<svg width="24" height="25" viewBox="0 0 24 25" fill="none" xmlns="http://www.w3.org/2000/svg">
<g clip-path="url(#clip0_1692_54103)">
<path d="M2.02539 5.93896H21.9749V19.2386H2.02539V5.93896Z" fill="white"/>
<path fill-rule="evenodd" clip-rule="evenodd" d="M6.8154 7.23834C6.50499 7.27911 6.19058 7.27911 5.88017 7.23834C5.9478 7.5754 5.99005 7.91625 6.00692 8.25803C5.66513 8.24116 5.32429 8.19892 4.98723 8.13128C5.028 8.44169 5.028 8.75611 4.98723 9.06652C5.32429 8.99889 5.66513 8.95664 6.00692 8.93977C5.99005 9.28156 5.9478 9.6224 5.88017 9.95946C6.19058 9.91869 6.50499 9.91869 6.8154 9.95946C6.74777 9.6224 6.70552 9.28156 6.68866 8.93977C7.03044 8.95664 7.37128 8.99889 7.70834 9.06652C7.66757 8.75611 7.66757 8.44169 7.70834 8.13128C7.37128 8.19892 7.03044 8.24116 6.68866 8.25803C6.70552 7.91625 6.74777 7.5754 6.8154 7.23834ZM6.68866 8.25803C6.46155 8.26924 6.23402 8.26924 6.00692 8.25803C6.01812 8.48514 6.01812 8.71266 6.00692 8.93977C6.23402 8.92856 6.46155 8.92856 6.68866 8.93977C6.67745 8.71266 6.67745 8.48514 6.68866 8.25803Z" fill="#FF0000"/>
<path d="M6.68866 8.25803C6.46155 8.26924 6.23402 8.26924 6.00692 8.25803C6.01812 8.48514 6.01812 8.71266 6.00692 8.93977C6.23402 8.92856 6.46155 8.92856 6.68866 8.93977C6.67745 8.71266 6.67745 8.48514 6.68866 8.25803Z" fill="#FF0000"/>
<path fill-rule="evenodd" clip-rule="evenodd" d="M13.3301 5.93896H10.6702V11.2588H2.02539V13.9188H10.6702V19.2386H13.3301V13.9188H21.9749V11.2588H13.3301V5.93896ZM13.3301 11.2588H10.6702V13.9188H13.3301V11.2588Z" fill="#FF0000"/>
<path d="M13.3301 11.2588H10.6702V13.9188H13.3301V11.2588Z" fill="#FF0000"/>
<path fill-rule="evenodd" clip-rule="evenodd" d="M18.1201 7.23834C17.8097 7.27911 17.4953 7.27911 17.1849 7.23834C17.2525 7.5754 17.2948 7.91625 17.3116 8.25803C16.9699 8.24116 16.629 8.19892 16.292 8.13128C16.3327 8.44169 16.3327 8.75611 16.292 9.06652C16.629 8.99889 16.9699 8.95664 17.3116 8.93977C17.2948 9.28156 17.2525 9.6224 17.1849 9.95946C17.4953 9.91869 17.8097 9.91869 18.1201 9.95946C18.0525 9.6224 18.0102 9.28156 17.9934 8.93977C18.3352 8.95664 18.676 8.99889 19.0131 9.06652C18.9723 8.75611 18.9723 8.44169 19.0131 8.13128C18.676 8.19892 18.3352 8.24116 17.9934 8.25803C18.0102 7.91625 18.0525 7.5754 18.1201 7.23834ZM17.9934 8.25803C17.7663 8.26924 17.5387 8.26924 17.3116 8.25803C17.3228 8.48514 17.3228 8.71266 17.3116 8.93977C17.5387 8.92856 17.7663 8.92856 17.9934 8.93977C17.9822 8.71266 17.9822 8.48514 17.9934 8.25803Z" fill="#FF0000"/>
<path d="M17.9934 8.25803C17.7663 8.26924 17.5387 8.26924 17.3116 8.25803C17.3228 8.48514 17.3228 8.71266 17.3116 8.93977C17.5387 8.92856 17.7663 8.92856 17.9934 8.93977C17.9822 8.71266 17.9822 8.48514 17.9934 8.25803Z" fill="#FF0000"/>
<path fill-rule="evenodd" clip-rule="evenodd" d="M18.1201 15.2181C17.8097 15.2589 17.4953 15.2589 17.1849 15.2181C17.2525 15.5552 17.2948 15.8961 17.3116 16.2378C16.9699 16.221 16.629 16.1787 16.292 16.1111C16.3327 16.4215 16.3327 16.7359 16.292 17.0463C16.629 16.9787 16.9699 16.9364 17.3116 16.9196C17.2948 17.2614 17.2525 17.6022 17.1849 17.9393C17.4953 17.8985 17.8097 17.8985 18.1201 17.9393C18.0525 17.6022 18.0102 17.2614 17.9934 16.9196C18.3352 16.9364 18.676 16.9787 19.0131 17.0463C18.9723 16.7359 18.9723 16.4215 19.0131 16.1111C18.676 16.1787 18.3352 16.221 17.9934 16.2378C18.0102 15.8961 18.0525 15.5552 18.1201 15.2181ZM17.9934 16.2378C17.7663 16.249 17.5387 16.249 17.3116 16.2378C17.3228 16.4649 17.3228 16.6925 17.3116 16.9196C17.5387 16.9084 17.7663 16.9084 17.9934 16.9196C17.9822 16.6925 17.9822 16.4649 17.9934 16.2378Z" fill="#FF0000"/>
<path d="M17.9934 16.2378C17.7663 16.249 17.5387 16.249 17.3116 16.2378C17.3228 16.4649 17.3228 16.6925 17.3116 16.9196C17.5387 16.9084 17.7663 16.9084 17.9934 16.9196C17.9822 16.6925 17.9822 16.4649 17.9934 16.2378Z" fill="#FF0000"/>
<path fill-rule="evenodd" clip-rule="evenodd" d="M6.8154 15.2181C6.50499 15.2589 6.19058 15.2589 5.88017 15.2181C5.9478 15.5552 5.99005 15.8961 6.00692 16.2378C5.66513 16.221 5.32429 16.1787 4.98723 16.1111C5.028 16.4215 5.028 16.7359 4.98723 17.0463C5.32429 16.9787 5.66513 16.9364 6.00692 16.9196C5.99005 17.2614 5.9478 17.6022 5.88017 17.9393C6.19058 17.8985 6.50499 17.8985 6.8154 17.9393C6.74777 17.6022 6.70552 17.2614 6.68866 16.9196C7.03044 16.9364 7.37128 16.9787 7.70834 17.0463C7.66757 16.7359 7.66757 16.4215 7.70834 16.1111C7.37128 16.1787 7.03044 16.221 6.68866 16.2378C6.70552 15.8961 6.74777 15.5552 6.8154 15.2181ZM6.68866 16.2378C6.46155 16.249 6.23402 16.249 6.00692 16.2378C6.01812 16.4649 6.01812 16.6925 6.00692 16.9196C6.23402 16.9084 6.46155 16.9084 6.68866 16.9196C6.67745 16.6925 6.67745 16.4649 6.68866 16.2378Z" fill="#FF0000"/>
<path d="M6.68866 16.2378C6.46155 16.249 6.23402 16.249 6.00692 16.2378C6.01812 16.4649 6.01812 16.6925 6.00692 16.9196C6.23402 16.9084 6.46155 16.9084 6.68866 16.9196C6.67745 16.6925 6.67745 16.4649 6.68866 16.2378Z" fill="#FF0000"/>
</g>
<defs>
<clipPath id="clip0_1692_54103">
<rect x="2.02539" y="5.93896" width="19.9495" height="13.2997" rx="1" fill="white"/>
</clipPath>
</defs>
</svg>
