<svg width="24" height="25" viewBox="0 0 24 25" fill="none" xmlns="http://www.w3.org/2000/svg">
<g clip-path="url(#clip0_1692_54038)">
<path d="M2.02734 5.93896H21.9769V19.2386H2.02734V5.93896Z" fill="#CE1126"/>
<path d="M3.69922 8.35205H20.2972V16.9702H3.69922V8.35205Z" fill="#007A5E"/>
<path d="M3.69922 8.35205H20.2972L3.69922 16.9702H20.2972L3.69922 8.35205Z" fill="#FCD116"/>
<path d="M11.9991 14.0982C12.7925 14.0982 13.4356 13.4551 13.4356 12.6617C13.4356 11.8683 12.7925 11.2251 11.9991 11.2251C11.2057 11.2251 10.5625 11.8683 10.5625 12.6617C10.5625 13.4551 11.2057 14.0982 11.9991 14.0982Z" fill="#CE1126"/>
<path d="M4.73047 12.679C4.9102 13.0138 5.2598 13.3781 5.56512 13.5062C5.57002 13.1662 5.44939 12.7305 5.28443 12.3833L4.73047 12.679Z" fill="#CE1126"/>
<path d="M4.42622 11.5293C4.68676 12.0724 3.75052 13.3681 5.31035 13.6718C5.11793 13.4092 4.99387 12.9758 5.0408 12.6279C5.36806 12.7524 5.71239 13.1167 5.85154 13.3952C6.25977 11.9128 4.80444 12.003 4.42622 11.5293Z" fill="#FCD116"/>
<path fill-rule="evenodd" clip-rule="evenodd" d="M7.84066 7.27442L8.01534 6.73682L8.19002 7.27442H7.84066ZM7.7327 7.60668L7.27539 7.27442H7.84066L7.7327 7.60668ZM8.01534 7.81203L7.7327 7.60668L7.55803 8.14428L8.01534 7.81203ZM8.01534 7.81203L8.47265 8.14428L8.29797 7.60668L8.75529 7.27442H8.19002L8.29797 7.60668L8.01534 7.81203Z" fill="#FCD116"/>
<path d="M8.19002 7.27442H7.84066L7.7327 7.60668L8.01534 7.81203L8.29797 7.60668L8.19002 7.27442Z" fill="#FCD116"/>
<path fill-rule="evenodd" clip-rule="evenodd" d="M11.8306 7.27442L12.0052 6.73682L12.1799 7.27442H11.8306ZM11.7226 7.60668L11.2653 7.27442H11.8306L11.7226 7.60668ZM12.0052 7.81202L11.7226 7.60668L11.5479 8.14428L12.0052 7.81202ZM12.0052 7.81202L12.4626 8.14428L12.2879 7.60668L12.7452 7.27442H12.1799L12.2879 7.60668L12.0052 7.81202Z" fill="#FCD116"/>
<path d="M12.1799 7.27442H11.8306L11.7226 7.60668L12.0052 7.81202L12.2879 7.60668L12.1799 7.27442Z" fill="#FCD116"/>
<path fill-rule="evenodd" clip-rule="evenodd" d="M15.8205 7.27442L15.9951 6.73682L16.1698 7.27442H15.8205ZM15.7125 7.60668L15.2552 7.27442H15.8205L15.7125 7.60668ZM15.9951 7.81203L15.7125 7.60668L15.5378 8.14428L15.9951 7.81203ZM15.9951 7.81203L16.4525 8.14428L16.2778 7.60668L16.7351 7.27442H16.1698L16.2778 7.60668L15.9951 7.81203Z" fill="#FCD116"/>
<path d="M16.1698 7.27442H15.8205L15.7125 7.60668L15.9951 7.81203L16.2778 7.60668L16.1698 7.27442Z" fill="#FCD116"/>
<path fill-rule="evenodd" clip-rule="evenodd" d="M15.8205 17.5684L15.9952 17.0308L16.1698 17.5684H15.8205ZM15.7125 17.9006L15.2552 17.5684H15.8205L15.7125 17.9006ZM15.9952 18.106L15.7125 17.9006L15.5378 18.4382L15.9952 18.106ZM15.9952 18.106L16.4525 18.4382L16.2778 17.9006L16.7351 17.5684H16.1698L16.2778 17.9006L15.9952 18.106Z" fill="#FCD116"/>
<path d="M16.1698 17.5684H15.8205L15.7125 17.9006L15.9952 18.106L16.2778 17.9006L16.1698 17.5684Z" fill="#FCD116"/>
<path fill-rule="evenodd" clip-rule="evenodd" d="M11.8306 17.5684L12.0052 17.0308L12.1799 17.5684H11.8306ZM11.7226 17.9006L11.2653 17.5684H11.8306L11.7226 17.9006ZM12.0052 18.106L11.7226 17.9006L11.5479 18.4382L12.0052 18.106ZM12.0052 18.106L12.4626 18.4382L12.2879 17.9006L12.7452 17.5684H12.1799L12.2879 17.9006L12.0052 18.106Z" fill="#FCD116"/>
<path d="M12.1799 17.5684H11.8306L11.7226 17.9006L12.0052 18.106L12.2879 17.9006L12.1799 17.5684Z" fill="#FCD116"/>
<path fill-rule="evenodd" clip-rule="evenodd" d="M7.84067 17.5684L8.01535 17.0308L8.19002 17.5684H7.84067ZM7.73271 17.9006L7.2754 17.5684H7.84067L7.73271 17.9006ZM8.01535 18.106L7.73271 17.9006L7.55803 18.4382L8.01535 18.106ZM8.01535 18.106L8.47266 18.4382L8.29798 17.9006L8.75529 17.5684H8.19002L8.29798 17.9006L8.01535 18.106Z" fill="#FCD116"/>
<path d="M8.19002 17.5684H7.84067L7.73271 17.9006L8.01535 18.106L8.29798 17.9006L8.19002 17.5684Z" fill="#FCD116"/>
<path fill-rule="evenodd" clip-rule="evenodd" d="M11.7096 12.2549L12.0052 11.3452L12.3009 12.2549H11.7096ZM11.5269 12.8172L10.753 12.2549H11.7096L11.5269 12.8172ZM12.0052 13.1647L11.5269 12.8172L11.2313 13.727L12.0052 13.1647ZM12.0052 13.1647L12.7792 13.727L12.4836 12.8172L13.2575 12.2549H12.3009L12.4836 12.8172L12.0052 13.1647Z" fill="#FCD116"/>
<path d="M12.3009 12.2549H11.7096L11.5269 12.8172L12.0052 13.1647L12.4836 12.8172L12.3009 12.2549Z" fill="#FCD116"/>
</g>
<defs>
<clipPath id="clip0_1692_54038">
<rect x="2.02734" y="5.93896" width="19.9495" height="13.2997" rx="1" fill="white"/>
</clipPath>
</defs>
</svg>
