<svg width="24" height="25" viewBox="0 0 24 25" fill="none" xmlns="http://www.w3.org/2000/svg">
<g clip-path="url(#clip0_1692_54001)">
<path fill-rule="evenodd" clip-rule="evenodd" d="M2.02539 5.93896H21.9749V19.2386H2.02539V5.93896Z" fill="#C62139"/>
<path fill-rule="evenodd" clip-rule="evenodd" d="M2.285 7.07148C2.285 6.62966 2.64318 6.27148 3.085 6.27148H20.923C21.3648 6.27148 21.723 6.62966 21.723 7.07148V18.1062C21.723 18.548 21.3648 18.9062 20.923 18.9062H3.085C2.64317 18.9062 2.285 18.548 2.285 18.1062V7.07148Z" fill="#00297B"/>
<path fill-rule="evenodd" clip-rule="evenodd" d="M12.001 9.30029C12.001 9.30029 9.80273 10.902 9.80273 12.5659C9.80273 14.23 12.001 15.8742 12.001 15.8742C12.001 15.8742 14.1853 14.3497 14.1853 12.5659C14.1853 10.7823 12.001 9.30029 12.001 9.30029Z" fill="#92DBFC"/>
<path fill-rule="evenodd" clip-rule="evenodd" d="M10.0469 13.5816C10.619 14.8399 12.002 15.8743 12.002 15.8743C12.002 15.8743 13.4096 14.8919 13.9648 13.5815" fill="#008CE7"/>
<path fill-rule="evenodd" clip-rule="evenodd" d="M13.9678 13.2178C13.6289 13.4398 11.7219 13.3332 11.7219 13.3332L11.6152 13.5818L13.8859 13.5882C13.8954 13.5541 13.918 13.5136 13.9259 13.4791L13.9678 13.2178Z" fill="#CCCCCC"/>
<path fill-rule="evenodd" clip-rule="evenodd" d="M10.5664 14.2479C10.663 14.2508 10.7592 14.2695 10.8455 14.3119C10.9999 14.3861 11.0895 14.3855 11.2559 14.3879C11.4301 14.3903 11.5668 14.5077 11.7551 14.5126C12.1019 14.5215 12.2477 14.6792 11.978 14.6791C11.8506 14.679 11.5776 14.6007 11.4456 14.6171C11.245 14.6358 11.129 14.6498 10.9805 14.7579C10.8391 14.6024 10.6977 14.4313 10.5664 14.2479ZM11.2525 15.0397C11.3385 14.9858 11.3977 14.9437 11.4812 14.9414C11.6433 14.9368 11.6986 14.845 11.8861 14.8451C12.0991 14.8808 12.3878 14.8216 12.5567 14.7873C12.8567 14.724 12.7144 14.5318 12.5328 14.4621C12.3861 14.4045 12.111 14.4592 11.9403 14.4021C11.8111 14.3559 11.9176 14.2822 11.9871 14.2666C12.0572 14.2548 12.1324 14.276 12.2196 14.289C12.3754 14.3016 12.5711 14.2882 12.7079 14.2688C12.9906 14.2291 12.979 14.1532 13.1155 14.1514C13.2151 14.1472 13.2909 14.1201 13.3588 14.0756C13.4386 14.0269 13.5217 13.9268 13.6183 13.9308L13.675 13.933C13.0787 14.9894 12.0077 15.6828 12.0077 15.6828C12.0077 15.6828 11.6617 15.4402 11.2525 15.0397Z" fill="#FFDE52"/>
<path fill-rule="evenodd" clip-rule="evenodd" d="M12.6188 14.265C12.6558 14.396 12.695 14.4406 12.8454 14.4742C12.9939 14.5079 13.2207 14.3757 13.0801 14.2474C12.9463 14.1281 12.8054 14.0976 12.6855 13.9901C12.4996 13.8213 12.2445 13.4723 12.1233 13.1423C11.9907 12.7815 12.0138 11.7658 12.0197 11.2513C12.0198 11.2453 12.0358 11.2417 12.0377 11.2393C12.0463 11.228 12.0545 11.2429 12.0411 11.1675C12.0375 11.1482 12.0208 11.1282 12.0209 11.1087C12.021 11.0738 11.8894 11.1468 11.8547 11.209C11.8468 11.2232 11.88 11.2637 11.88 11.2717C11.8844 11.7653 11.8265 12.74 11.9696 13.1812C12.0582 13.4543 12.2197 13.6652 12.366 13.8604C12.4537 13.9855 12.5806 14.1204 12.6188 14.265Z" fill="#8C4200"/>
<path fill-rule="evenodd" clip-rule="evenodd" d="M10.6385 11.1062C10.6478 11.118 10.6465 11.1687 10.6465 11.1687C10.6541 11.173 10.7781 11.0721 10.7781 11.0766C10.7782 11.0979 10.781 11.1416 10.781 11.1416C10.781 11.1416 10.9093 11.0299 10.9147 11.0417C10.9206 11.0549 10.9142 11.1196 10.9142 11.1196C10.9142 11.1196 10.9996 11.0334 11.0152 11.0179C11.0265 11.0068 11.0247 11.0319 11.0258 11.0724C11.026 11.0796 11.1658 10.978 11.1743 10.9762C11.1923 10.9727 11.1979 11.029 11.1969 11.0431C11.1962 11.0535 11.3259 10.9753 11.3202 10.9857L11.3298 11.0458C11.3659 11.0412 11.452 11.0118 11.5038 11.0194C11.5205 11.0219 11.5196 11.0295 11.5048 11.0351C11.2552 11.1276 11.0631 11.2671 10.9513 11.4615C10.9132 11.5277 10.9016 11.5855 10.9116 11.6C10.9116 11.6 10.9565 11.5116 11.0071 11.4977C11.0139 11.496 11.0184 11.5544 11.0253 11.5511C11.0253 11.5511 11.0636 11.4624 11.0913 11.4298C11.0987 11.421 11.1111 11.4763 11.1189 11.4681C11.1189 11.4681 11.1388 11.4088 11.1778 11.3674C11.1834 11.3616 11.1934 11.4235 11.1996 11.4183C11.24 11.3842 11.278 11.2987 11.2931 11.2924C11.3037 11.2848 11.3055 11.3635 11.3156 11.3567C11.3156 11.3567 11.3732 11.2507 11.4076 11.2315C11.4297 11.219 11.4289 11.2894 11.4289 11.2894C11.4728 11.2497 11.5212 11.1839 11.5441 11.1554C11.5547 11.1423 11.5488 11.242 11.5601 11.2459C11.5746 11.251 11.6692 11.1695 11.6798 11.1678C11.6869 11.1667 11.6951 11.1911 11.6767 11.2106C11.6752 11.2122 11.5598 11.3341 11.5598 11.3341C11.5822 11.338 11.5909 11.3322 11.6071 11.3361C11.655 11.3477 11.5173 11.42 11.5196 11.4335C11.5196 11.4335 11.586 11.4324 11.5638 11.4442C11.5478 11.4528 11.46 11.5562 11.46 11.5525C11.46 11.5506 11.5041 11.5534 11.5038 11.5649C11.5035 11.5864 11.4309 11.6969 11.4302 11.6962C11.4262 11.6926 11.4691 11.6915 11.475 11.7024C11.4856 11.7225 11.4005 11.8119 11.4171 11.8271C11.4194 11.8292 11.4657 11.8278 11.4864 11.832C11.4963 11.834 11.5242 11.9944 11.5172 11.9879C11.5156 11.9864 11.547 11.8375 11.5661 11.7922C11.5777 11.7648 11.615 11.8336 11.618 11.8275C11.6164 11.8275 11.6105 11.7297 11.6157 11.6851C11.6171 11.6727 11.6439 11.6981 11.6436 11.6862C11.6426 11.6593 11.6402 11.6304 11.6462 11.604C11.6509 11.5842 11.6737 11.6399 11.6825 11.6249C11.6825 11.6249 11.6549 11.5281 11.6664 11.5007C11.674 11.4827 11.6925 11.5443 11.7046 11.5467C11.7046 11.5467 11.6978 11.4714 11.7105 11.452L11.749 11.4897C11.7574 11.4776 11.7558 11.3603 11.7635 11.3493C11.77 11.3401 11.8099 11.3933 11.8158 11.385C11.8212 11.3774 11.799 11.2904 11.8039 11.2835C11.811 11.2736 11.8548 11.3077 11.8556 11.307C11.8734 11.2906 11.8728 11.2496 11.8804 11.2344C11.9005 11.1932 12.016 11.1878 12.0296 11.2172C12.0362 11.2314 12.0316 11.2497 12.029 11.2718C12.0301 11.2727 12.0868 11.2765 12.0873 11.2725C12.0873 11.2725 12.0805 11.321 12.0845 11.3744C12.0851 11.3816 12.1421 11.3727 12.1429 11.3798C12.1481 11.4301 12.1355 11.4348 12.1355 11.4348C12.1359 11.4384 12.1739 11.4294 12.1745 11.4333C12.1786 11.4579 12.17 11.4877 12.1531 11.5165C12.1505 11.5206 12.2074 11.5125 12.2082 11.5173C12.2152 11.5551 12.2165 11.5851 12.2093 11.6384C12.2087 11.6427 12.265 11.6007 12.2659 11.605C12.2744 11.6499 12.2645 11.6984 12.2696 11.7448C12.2708 11.7556 12.3069 11.7127 12.3101 11.7251C12.3134 11.7373 12.3021 11.8262 12.3076 11.8312C12.3076 11.8312 12.3679 11.8284 12.3732 11.8331C12.421 11.8742 12.4119 11.9459 12.4119 11.9459C12.425 11.9371 12.42 11.8506 12.4068 11.7716C12.4054 11.7632 12.4532 11.7664 12.4517 11.7587C12.4517 11.7587 12.3993 11.7298 12.3821 11.6494C12.3784 11.6322 12.4327 11.6357 12.4327 11.6357C12.4176 11.604 12.3912 11.598 12.3687 11.5676C12.3615 11.5576 12.425 11.5531 12.425 11.5502C12.4251 11.5199 12.3714 11.5054 12.3436 11.4739C12.3317 11.4604 12.4016 11.4598 12.4016 11.4598C12.3811 11.4337 12.3135 11.4222 12.2791 11.3877C12.2603 11.3689 12.3476 11.3505 12.3465 11.3472C12.3369 11.3196 12.2548 11.3109 12.215 11.2797C12.2068 11.2733 12.267 11.2515 12.267 11.2515C12.2609 11.2397 12.1298 11.1607 12.1965 11.168C12.2246 11.1711 12.2818 11.2077 12.2862 11.2022C12.2862 11.2022 12.2838 11.1561 12.2896 11.1505C12.3116 11.1296 12.3873 11.2392 12.413 11.2347C12.413 11.2347 12.4225 11.1563 12.4341 11.1542C12.4618 11.1494 12.4955 11.2684 12.5228 11.2684C12.5264 11.2684 12.5285 11.1996 12.5426 11.1958C12.5584 11.1916 12.5763 11.2729 12.5964 11.2909C12.6151 11.3075 12.6153 11.2274 12.6263 11.2426C12.6448 11.2671 12.6493 11.3184 12.6747 11.3409C12.6912 11.3556 12.6942 11.2703 12.7125 11.2817C12.7337 11.2949 12.7288 11.3391 12.7527 11.3609C12.7641 11.3712 12.7717 11.3046 12.7847 11.3144C12.7962 11.3229 12.804 11.4044 12.8163 11.4173C12.8321 11.4338 12.8503 11.3743 12.8667 11.3838C12.8784 11.3907 12.8757 11.4612 12.8866 11.4763C12.9089 11.5076 12.9205 11.4384 12.9353 11.4491C12.9456 11.4563 12.968 11.5374 12.9773 11.5438C12.998 11.5583 13.0094 11.507 13.0252 11.5142C13.0366 11.5193 13.0597 11.6237 13.0691 11.621C13.0753 11.6193 13.0906 11.3831 12.9914 11.2835C12.8297 11.1211 12.5401 11.0273 12.3038 11.025C12.3038 11.025 12.4226 11.0033 12.4257 10.9853C12.432 10.9495 12.491 10.9537 12.5321 10.9619C12.5394 10.9633 12.5355 10.8985 12.5365 10.8981C12.5732 10.8974 12.6061 10.9172 12.6413 10.9368C12.6522 10.9429 12.6191 10.8718 12.6307 10.8779C12.6759 10.9018 12.7261 10.9088 12.7565 10.9378C12.7645 10.9455 12.7473 10.883 12.7473 10.883C12.7699 10.878 12.8144 10.9078 12.8319 10.9357C12.8404 10.9495 12.8314 10.8629 12.838 10.8783C12.838 10.8783 12.9167 10.9027 12.9251 10.933C12.9251 10.933 12.9316 10.8781 12.9421 10.881C12.9737 10.8886 13.0013 10.9374 13.0259 10.9444C13.0259 10.9444 13.0158 10.8955 13.0238 10.8974C13.083 10.911 13.1473 10.9446 13.1471 10.9444C13.1138 10.8679 12.9873 10.7878 12.7647 10.7664C12.7238 10.7625 12.558 10.7563 12.4174 10.7862C12.3021 10.8106 12.2112 10.8245 12.2298 10.8078C12.306 10.7395 12.4291 10.7312 12.463 10.7153C12.4872 10.704 12.3813 10.6665 12.4023 10.6612C12.4232 10.6567 12.5178 10.6494 12.5178 10.6494C12.5383 10.6348 12.449 10.6061 12.4624 10.5848C12.4891 10.542 12.6469 10.5809 12.6603 10.5647C12.6647 10.5592 12.5925 10.5201 12.5956 10.5144C12.6071 10.4927 12.7476 10.5304 12.7508 10.5115C12.7508 10.5115 12.7083 10.4824 12.6779 10.4585C12.6743 10.4556 12.8034 10.4238 12.8034 10.4238C12.8009 10.4216 12.7813 10.409 12.7517 10.3984C12.7246 10.3887 12.865 10.3553 12.865 10.3553C12.6871 10.2809 12.2256 10.4926 12.134 10.7123C12.1102 10.7647 12.1095 10.7078 12.1145 10.6633C12.1192 10.6156 12.1258 10.5737 12.1202 10.5298C12.1185 10.5168 12.0825 10.5644 12.08 10.5517C12.0708 10.505 12.0981 10.4538 12.0856 10.4021C12.0815 10.3846 12.0337 10.4535 12.0274 10.4361C12.0099 10.3882 12.0405 10.3209 12.0281 10.2549C12.0233 10.2291 11.978 10.3101 11.9629 10.287C11.9451 10.2602 11.9529 10.161 11.9445 10.146C11.9377 10.134 11.8975 10.1936 11.8941 10.1824C11.8395 10.0005 11.912 9.97786 11.8072 10.0804C11.8036 10.0839 11.7803 9.97286 11.7763 9.97663C11.7333 10.0608 11.663 9.91665 11.639 9.93009C11.621 9.94031 11.688 9.99607 11.6887 10.0212C11.6891 10.0333 11.6271 10.0341 11.6271 10.0341C11.6284 10.0548 11.745 10.113 11.7488 10.1358C11.7518 10.1546 11.6663 10.1499 11.6663 10.1499C11.6689 10.1754 11.7661 10.1996 11.7714 10.2266C11.7745 10.2414 11.7259 10.2448 11.7275 10.2599C11.7301 10.2831 11.8214 10.329 11.8244 10.3526C11.8265 10.3691 11.7661 10.3759 11.7646 10.3912C11.7628 10.4097 11.8859 10.4719 11.8861 10.4894C11.8862 10.514 11.8371 10.5014 11.8147 10.5138C11.7833 10.5312 11.9155 10.6019 11.9211 10.622C11.9255 10.6397 11.8682 10.6241 11.8663 10.6402C11.8639 10.6613 11.9311 10.6932 11.9465 10.7294C11.9619 10.7652 11.9461 10.7743 11.924 10.7601C11.8798 10.7315 11.7012 10.5578 11.6538 10.5115C11.5849 10.4442 11.4438 10.3687 11.3031 10.3643C11.2884 10.3684 11.3788 10.4269 11.3794 10.4482C11.3795 10.4536 11.3387 10.4617 11.3406 10.4634C11.3656 10.4863 11.4433 10.5135 11.4433 10.5135L11.421 10.5502C11.4262 10.561 11.4631 10.5639 11.5222 10.5817C11.5222 10.5817 11.4779 10.6068 11.4812 10.6091C11.5125 10.632 11.5731 10.6489 11.5731 10.6489L11.5134 10.6672C11.5099 10.6778 11.6477 10.7283 11.6477 10.7283C11.6477 10.7283 11.6046 10.7623 11.6066 10.7641C11.6171 10.7737 11.7184 10.7952 11.7184 10.7952C11.7201 10.7967 11.6469 10.8176 11.6473 10.8181C11.6739 10.8424 11.7472 10.8503 11.7643 10.8905C11.7643 10.8905 11.7743 10.9134 11.7454 10.909C11.6313 10.8712 11.4547 10.7927 11.1123 10.8235C10.7622 10.8653 10.4954 11.144 10.5001 11.1717C10.5001 11.1717 10.6252 11.0895 10.6385 11.1062Z" fill="#109421"/>
<path fill-rule="evenodd" clip-rule="evenodd" d="M11.384 13.1331C11.3921 13.122 11.4002 13.1268 11.4083 13.1331L11.4259 13.9406H11.3674L11.384 13.1331Z" fill="#8C4200"/>
<path fill-rule="evenodd" clip-rule="evenodd" d="M10.6807 13.9134C10.6807 13.9134 11.413 13.9645 11.8621 13.8762C11.8621 13.8762 11.8998 13.8996 11.8456 13.9576C11.7914 14.0155 11.6542 14.0279 11.5788 14.0403C11.5788 14.0403 11.5608 14.0776 11.5622 14.0969C11.5638 14.1162 11.6098 14.1142 11.6323 14.11L11.6549 14.1059C11.6549 14.1059 11.6443 14.1783 11.3672 14.188C11.2762 14.1912 10.9762 14.197 10.9128 14.1155C10.9128 14.1155 10.9677 14.1196 10.982 14.1155C10.9963 14.1114 10.9859 14.059 10.9806 14.0513C10.9754 14.0438 10.7861 14.0513 10.6868 13.9671C10.6622 13.9431 10.6504 13.9176 10.6504 13.9085C10.6504 13.9077 10.6807 13.9134 10.6807 13.9134ZM11.0623 14.0541C11.0623 14.0541 11.2627 14.0776 11.4933 14.0541C11.4933 14.0541 11.4994 14.0941 11.4888 14.1093C11.4783 14.1245 11.2123 14.1362 11.0781 14.1149C11.0565 14.1085 11.0558 14.0843 11.0623 14.0541Z" fill="#8C4200"/>
<path fill-rule="evenodd" clip-rule="evenodd" d="M10.8105 13.8585C10.8105 13.8585 11.0425 13.5674 10.9681 13.064C11.3267 13.2635 11.6313 13.5642 11.7142 13.8435C11.3889 13.7683 11.1018 13.8202 10.8105 13.8585Z" fill="#FDF9FF"/>
<path fill-rule="evenodd" clip-rule="evenodd" d="M12.0022 9.10889C12.0022 9.10889 9.67578 10.6948 9.67578 12.5647C9.67578 14.4349 12.0022 16.0656 12.0022 16.0656C12.0022 16.0656 14.3136 14.5694 14.3136 12.5647C14.3136 10.5601 12.0022 9.10889 12.0022 9.10889ZM12.0013 9.49272C12.0013 9.49272 9.93169 10.9036 9.93169 12.5672C9.93169 14.231 12.0013 15.6818 12.0013 15.6818C12.0013 15.6818 14.0577 14.3507 14.0577 12.5672C14.0577 10.7838 12.0013 9.49272 12.0013 9.49272Z" fill="#C62139"/>
<path d="M11.8869 11.1899C11.9334 11.1899 11.9711 11.1522 11.9711 11.1057C11.9711 11.0592 11.9334 11.0215 11.8869 11.0215C11.8404 11.0215 11.8027 11.0592 11.8027 11.1057C11.8027 11.1522 11.8404 11.1899 11.8869 11.1899Z" fill="#8C4200"/>
<path fill-rule="evenodd" clip-rule="evenodd" d="M11.8892 11.0237C11.844 11.0237 11.8073 11.0603 11.8073 11.1055C11.8073 11.1508 11.844 11.1874 11.8892 11.1874C11.9345 11.1874 11.9711 11.1508 11.9711 11.1055C11.9711 11.0603 11.9345 11.0237 11.8892 11.0237ZM11.8027 11.1055C11.8027 11.0578 11.8415 11.019 11.8892 11.019C11.937 11.019 11.9757 11.0578 11.9757 11.1055C11.9757 11.1533 11.937 11.192 11.8892 11.192C11.8415 11.192 11.8027 11.1533 11.8027 11.1055Z" fill="black"/>
<path d="M11.8791 11.3246C11.9256 11.3246 11.9633 11.287 11.9633 11.2404C11.9633 11.1939 11.9256 11.1562 11.8791 11.1562C11.8326 11.1562 11.7949 11.1939 11.7949 11.2404C11.7949 11.287 11.8326 11.3246 11.8791 11.3246Z" fill="#8C4200"/>
<path fill-rule="evenodd" clip-rule="evenodd" d="M11.8814 11.1589C11.8362 11.1589 11.7995 11.1956 11.7995 11.2408C11.7995 11.286 11.8362 11.3227 11.8814 11.3227C11.9267 11.3227 11.9633 11.286 11.9633 11.2408C11.9633 11.1956 11.9267 11.1589 11.8814 11.1589ZM11.7949 11.2408C11.7949 11.193 11.8337 11.1543 11.8814 11.1543C11.9292 11.1543 11.9679 11.193 11.9679 11.2408C11.9679 11.2886 11.9292 11.3273 11.8814 11.3273C11.8337 11.3273 11.7949 11.2886 11.7949 11.2408Z" fill="black"/>
<path d="M11.998 11.1581C12.0445 11.1581 12.0822 11.1204 12.0822 11.0739C12.0822 11.0274 12.0445 10.9897 11.998 10.9897C11.9515 10.9897 11.9138 11.0274 11.9138 11.0739C11.9138 11.1204 11.9515 11.1581 11.998 11.1581Z" fill="#8C4200"/>
<path fill-rule="evenodd" clip-rule="evenodd" d="M11.9965 10.9919C11.9513 10.9919 11.9146 11.0286 11.9146 11.0738C11.9146 11.119 11.9513 11.1557 11.9965 11.1557C12.0417 11.1557 12.0784 11.119 12.0784 11.0738C12.0784 11.0286 12.0417 10.9919 11.9965 10.9919ZM11.91 11.0738C11.91 11.026 11.9487 10.9873 11.9965 10.9873C12.0443 10.9873 12.083 11.026 12.083 11.0738C12.083 11.1216 12.0443 11.1603 11.9965 11.1603C11.9487 11.1603 11.91 11.1216 11.91 11.0738Z" fill="black"/>
<path d="M12.01 11.2729C12.0565 11.2729 12.0942 11.2352 12.0942 11.1887C12.0942 11.1422 12.0565 11.1045 12.01 11.1045C11.9635 11.1045 11.9258 11.1422 11.9258 11.1887C11.9258 11.2352 11.9635 11.2729 12.01 11.2729Z" fill="#8C4200"/>
<path fill-rule="evenodd" clip-rule="evenodd" d="M12.0123 11.1071C11.9671 11.1071 11.9304 11.1438 11.9304 11.189C11.9304 11.2343 11.9671 11.2709 12.0123 11.2709C12.0575 11.2709 12.0942 11.2343 12.0942 11.189C12.0942 11.1438 12.0575 11.1071 12.0123 11.1071ZM11.9258 11.189C11.9258 11.1413 11.9645 11.1025 12.0123 11.1025C12.0601 11.1025 12.0988 11.1413 12.0988 11.189C12.0988 11.2368 12.0601 11.2755 12.0123 11.2755C11.9645 11.2755 11.9258 11.2368 11.9258 11.189Z" fill="black"/>
<path fill-rule="evenodd" clip-rule="evenodd" d="M11.0107 12.6361C11.0069 12.6361 11.0043 12.6378 11.0028 12.6412C11.0014 12.644 11.0005 12.648 11 12.6531H10.9914V12.5343H11C11.0009 12.5444 11.0045 12.5495 11.0107 12.5495H11.2216V12.5597C11.214 12.5603 11.2102 12.5651 11.2102 12.5741V12.715C11.2102 12.719 11.2107 12.7224 11.2116 12.7252C11.2126 12.7281 11.2149 12.7295 11.2188 12.7295H11.2223V12.7397C11.1575 12.7804 11.0808 12.8008 10.9921 12.8008C10.9621 12.8008 10.933 12.7965 10.9049 12.788C10.8773 12.779 10.8527 12.7651 10.8313 12.7464C10.8098 12.7278 10.7924 12.7043 10.7791 12.676C10.7662 12.6471 10.7598 12.6135 10.7598 12.575C10.7598 12.5365 10.7662 12.5031 10.7791 12.4748C10.7924 12.446 10.8098 12.4222 10.8313 12.4035C10.8527 12.3843 10.8773 12.3702 10.9049 12.3611C10.933 12.3515 10.9621 12.3467 10.9921 12.3467C11.004 12.3467 11.0145 12.347 11.0236 12.3475C11.0326 12.3481 11.0415 12.3492 11.05 12.3509C11.0586 12.3526 11.0674 12.3549 11.0765 12.3577C11.0855 12.36 11.0963 12.3631 11.1087 12.367C11.1206 12.371 11.1315 12.3758 11.1415 12.3815C11.1516 12.3866 11.158 12.3891 11.1608 12.3891C11.1647 12.3891 11.168 12.3869 11.1709 12.3823L11.1794 12.3857L11.133 12.4978L11.1244 12.4918C11.1253 12.4884 11.1258 12.4853 11.1258 12.4825C11.1258 12.4785 11.1218 12.4743 11.1137 12.4697C11.1056 12.4647 11.0953 12.4601 11.0829 12.4562C11.0705 12.4522 11.0565 12.4488 11.0407 12.446C11.0255 12.4432 11.0105 12.4417 10.9957 12.4417C10.9785 12.4417 10.9621 12.4446 10.9464 12.4502C10.9311 12.4553 10.9173 12.4635 10.9049 12.4748C10.893 12.4862 10.8835 12.5003 10.8763 12.5173C10.8692 12.5337 10.8656 12.5535 10.8656 12.5767C10.8656 12.5993 10.8699 12.6191 10.8784 12.6361C10.887 12.6525 10.8977 12.6661 10.9106 12.6768C10.924 12.6876 10.9387 12.6955 10.9549 12.7006C10.9711 12.7057 10.9871 12.7083 11.0028 12.7083C11.0229 12.7083 11.0407 12.7068 11.0565 12.704C11.0727 12.7012 11.0882 12.6972 11.1029 12.6921V12.6361H11.0107Z" fill="#BD0728"/>
<path fill-rule="evenodd" clip-rule="evenodd" d="M11.6762 12.3724C11.6762 12.3684 11.6751 12.3653 11.6729 12.363C11.6711 12.3601 11.6659 12.3581 11.6574 12.357V12.3467H11.7961V12.357C11.7876 12.3581 11.7822 12.3601 11.7799 12.363C11.7781 12.3653 11.7772 12.3684 11.7772 12.3724V12.6025C11.7772 12.6402 11.7723 12.672 11.7624 12.6978C11.753 12.7235 11.7398 12.7441 11.7227 12.7596C11.7061 12.775 11.6863 12.7859 11.6635 12.7922C11.641 12.7979 11.617 12.8008 11.5914 12.8008C11.5658 12.8008 11.5416 12.7979 11.5187 12.7922C11.4963 12.7859 11.4765 12.775 11.4594 12.7596C11.4428 12.7441 11.4296 12.7235 11.4197 12.6978C11.4103 12.672 11.4056 12.6402 11.4056 12.6025V12.3724C11.4056 12.3684 11.4045 12.3653 11.4022 12.363C11.4004 12.3601 11.3953 12.3581 11.3867 12.357V12.3467H11.5254V12.357C11.5169 12.3581 11.5115 12.3601 11.5093 12.363C11.5075 12.3653 11.5066 12.3684 11.5066 12.3724V12.6025C11.5066 12.6357 11.514 12.6594 11.5288 12.6737C11.5436 12.688 11.5645 12.6952 11.5914 12.6952C11.6183 12.6952 11.6392 12.688 11.654 12.6737C11.6688 12.6594 11.6762 12.6357 11.6762 12.6025V12.3724Z" fill="#BD0728"/>
<path fill-rule="evenodd" clip-rule="evenodd" d="M12.2121 12.7818C12.2121 12.7847 12.2128 12.787 12.2144 12.7887C12.2164 12.7898 12.2203 12.7904 12.2259 12.7904V12.8008H12.0902V12.7904C12.0959 12.7893 12.0999 12.7875 12.1025 12.7852C12.1051 12.7823 12.1076 12.7775 12.1102 12.7706C12.1112 12.7677 12.1137 12.7599 12.1178 12.7472C12.1219 12.7346 12.1273 12.7188 12.1339 12.6998C12.1406 12.6802 12.148 12.6586 12.1561 12.635C12.1643 12.6114 12.1725 12.5875 12.1807 12.5634C12.1888 12.5386 12.1968 12.5147 12.2044 12.4917C12.2126 12.4681 12.2197 12.4471 12.2259 12.4287C12.232 12.4103 12.2369 12.3953 12.2404 12.3838C12.2445 12.3723 12.2466 12.3662 12.2466 12.3657C12.2466 12.3628 12.2448 12.3608 12.2412 12.3596C12.2381 12.3585 12.2348 12.3576 12.2312 12.357V12.3467H12.4312V12.357C12.4272 12.3576 12.4238 12.3585 12.4213 12.3596C12.4187 12.3608 12.4174 12.3637 12.4174 12.3683C12.4174 12.3694 12.4197 12.3769 12.4243 12.3907C12.4295 12.4045 12.4358 12.4226 12.4435 12.4451C12.4512 12.467 12.4598 12.492 12.4696 12.5202C12.4798 12.5478 12.4902 12.5763 12.501 12.6057C12.5117 12.6344 12.5219 12.6626 12.5316 12.6903C12.5418 12.7179 12.551 12.7426 12.5592 12.7645C12.5633 12.7749 12.5666 12.7818 12.5692 12.7852C12.5722 12.7887 12.5761 12.7904 12.5807 12.7904V12.8008H12.4297V12.7904C12.4394 12.7898 12.4443 12.7864 12.4443 12.78C12.4443 12.7795 12.443 12.7757 12.4404 12.7688C12.4379 12.7613 12.4351 12.7533 12.432 12.7447C12.4289 12.7354 12.4259 12.7268 12.4228 12.7188C12.4203 12.7107 12.4187 12.7052 12.4182 12.7024H12.2366C12.2315 12.7179 12.2274 12.7306 12.2243 12.7403C12.2213 12.7501 12.2187 12.7579 12.2167 12.7636C12.2151 12.7694 12.2139 12.7737 12.2128 12.7766C12.2123 12.7789 12.2121 12.7806 12.2121 12.7818ZM12.3983 12.6333L12.324 12.4278L12.2558 12.6333H12.3983Z" fill="#BD0728"/>
<path fill-rule="evenodd" clip-rule="evenodd" d="M13.1098 12.7938C13.1192 12.7926 13.1248 12.7909 13.1268 12.7886C13.1292 12.7857 13.1305 12.7823 13.1305 12.7782V12.4605L13.129 12.4588L12.9978 12.7938L12.868 12.4554H12.8665V12.7782C12.8665 12.7823 12.8675 12.7857 12.8695 12.7886C12.8719 12.7909 12.8778 12.7926 12.8872 12.7938V12.8041H12.7574V12.7938C12.7668 12.7926 12.7724 12.7909 12.7744 12.7886C12.7768 12.7857 12.7781 12.7823 12.7781 12.7782V12.3759C12.7781 12.3719 12.7768 12.3688 12.7744 12.3665C12.7724 12.3636 12.7668 12.3616 12.7574 12.3604V12.35H12.9498V12.3604C12.9381 12.361 12.9322 12.3662 12.9322 12.3759C12.9322 12.3765 12.9336 12.3811 12.9366 12.3898C12.9395 12.3984 12.9432 12.409 12.9476 12.4217C12.9526 12.4344 12.9577 12.4482 12.9631 12.4631C12.969 12.4775 12.9744 12.4916 12.9793 12.5054C12.9847 12.5187 12.9894 12.5305 12.9933 12.5408C12.9973 12.5512 13 12.5581 13.0015 12.5616C13.0098 12.5397 13.0184 12.5184 13.0273 12.4977C13.0361 12.477 13.044 12.458 13.0509 12.4407C13.0582 12.4234 13.0641 12.409 13.0685 12.3975C13.073 12.386 13.0752 12.3788 13.0752 12.3759C13.0752 12.3662 13.0693 12.361 13.0575 12.3604V12.35H13.2573V12.3604C13.2479 12.3616 13.242 12.3636 13.2396 12.3665C13.2376 12.3688 13.2366 12.3719 13.2366 12.3759V12.7782C13.2366 12.7823 13.2376 12.7857 13.2396 12.7886C13.242 12.7909 13.2479 12.7926 13.2573 12.7938V12.8041H13.1098V12.7938Z" fill="#BD0728"/>
</g>
<defs>
<clipPath id="clip0_1692_54001">
<rect x="2.02539" y="5.93896" width="19.9495" height="13.2997" rx="1" fill="white"/>
</clipPath>
</defs>
</svg>
