<svg width="24" height="24" viewBox="0 0 24 24" fill="none" xmlns="http://www.w3.org/2000/svg">
<path d="M21.9987 16.4368C21.9987 17.5668 21.9987 18.1318 21.7704 18.4088C21.5721 18.6495 21.2729 18.7838 20.9613 18.7722C20.6026 18.7588 20.1803 18.3834 19.3357 17.6326L14.344 13.1956C13.8788 12.782 13.6461 12.5752 13.5604 12.331C13.4851 12.1166 13.4851 11.8829 13.5604 11.6684C13.6461 11.4242 13.8788 11.2175 14.344 10.8039L19.3357 6.36682C20.1803 5.61606 20.6026 5.24069 20.9613 5.22726C21.2729 5.2156 21.5721 5.34997 21.7704 5.59062C21.9987 5.86763 21.9987 6.43264 21.9987 7.56267V16.4368Z" stroke="#1C1D20" stroke-width="1.5" stroke-linecap="round" stroke-linejoin="round"/>
<path d="M10.9987 16.4368C10.9987 17.5668 10.9987 18.1318 10.7704 18.4088C10.5721 18.6495 10.2729 18.7838 9.9613 18.7722C9.60262 18.7588 9.18032 18.3834 8.33572 17.6326L3.34404 13.1956C2.87876 12.782 2.64611 12.5752 2.56037 12.331C2.48508 12.1166 2.48508 11.8829 2.56037 11.6684C2.64611 11.4242 2.87876 11.2175 3.34404 10.8039L8.33572 6.36682C9.18032 5.61606 9.60262 5.24069 9.9613 5.22726C10.2729 5.2156 10.5721 5.34997 10.7704 5.59062C10.9987 5.86763 10.9987 6.43264 10.9987 7.56267V16.4368Z" stroke="#1C1D20" stroke-width="1.5" stroke-linecap="round" stroke-linejoin="round"/>
</svg>
