<svg width="24" height="24" viewBox="0 0 24 24" fill="none" xmlns="http://www.w3.org/2000/svg">
<path d="M13 16.4368C13 17.5668 13 18.1318 13.2283 18.4088C13.4266 18.6495 13.7258 18.7838 14.0374 18.7722C14.3961 18.7588 14.8184 18.3834 15.663 17.6326L20.6547 13.1956C21.12 12.782 21.3526 12.5752 21.4383 12.331C21.5136 12.1166 21.5136 11.8829 21.4383 11.6684C21.3526 11.4243 21.12 11.2175 20.6547 10.8039L15.663 6.36682C14.8184 5.61606 14.3961 5.24069 14.0374 5.22726C13.7258 5.2156 13.4266 5.34997 13.2283 5.59062C13 5.86763 13 6.43264 13 7.56267V16.4368Z" stroke="#1C1D20" stroke-width="1.5" stroke-linecap="round" stroke-linejoin="round"/>
<path d="M2 16.4368C2 17.5668 2 18.1318 2.22827 18.4088C2.42657 18.6495 2.72579 18.7838 3.0374 18.7722C3.39609 18.7588 3.81839 18.3834 4.66298 17.6326L9.65466 13.1956C10.12 12.782 10.3526 12.5752 10.4383 12.331C10.5136 12.1166 10.5136 11.8829 10.4383 11.6684C10.3526 11.4243 10.12 11.2175 9.65466 10.8039L4.66298 6.36682C3.81839 5.61606 3.39609 5.24069 3.0374 5.22726C2.72579 5.2156 2.42657 5.34997 2.22827 5.59062C2 5.86763 2 6.43264 2 7.56267V16.4368Z" stroke="#1C1D20" stroke-width="1.5" stroke-linecap="round" stroke-linejoin="round"/>
</svg>
