<svg width="24" height="24" viewBox="0 0 24 24" fill="none" xmlns="http://www.w3.org/2000/svg">
<path d="M5.99916 11H9.99916M7.99916 9V13M14.9992 12H15.0092M17.9992 10H18.0092M10.4481 5H13.5502C16.1751 5 17.4875 5 18.5177 5.49743C19.4247 5.9354 20.1783 6.63709 20.6798 7.51059C21.2494 8.5027 21.3429 9.81181 21.5299 12.43L21.7759 15.8745C21.8965 17.5634 20.5589 19 18.8657 19C17.9998 19 17.1787 18.6154 16.6243 17.9502L16.2492 17.5C15.906 17.0882 15.7344 16.8823 15.5391 16.7159C15.1295 16.3672 14.6337 16.1349 14.1035 16.0436C13.8506 16 13.5826 16 13.0466 16H10.9517C10.4157 16 10.1477 16 9.89479 16.0436C9.36466 16.1349 8.86884 16.3672 8.45927 16.7159C8.2639 16.8823 8.09232 17.0882 7.74916 17.5L7.374 17.9502C6.81967 18.6154 5.99851 19 5.13262 19C3.4394 19 2.10177 17.5634 2.22241 15.8745L2.46844 12.43C2.65546 9.81181 2.74897 8.5027 3.31853 7.51059C3.82001 6.63709 4.5736 5.9354 5.48062 5.49743C6.51078 5 7.82323 5 10.4481 5Z" stroke="#1C1D20" stroke-width="1.5" stroke-linecap="round" stroke-linejoin="round"/>
</svg>
