<svg width="24" height="24" viewBox="0 0 24 24" fill="none" xmlns="http://www.w3.org/2000/svg">
<path d="M16.2429 4.75806C18.586 7.1012 18.586 10.9002 16.2429 13.2433M7.75758 13.2433C5.41444 10.9002 5.41443 7.1012 7.75758 4.75806M4.85853 16.0007C1.02383 12.0901 1.0473 5.81132 4.92893 1.92969M19.0715 1.92969C22.9531 5.81132 22.9766 12.0901 19.1419 16.0007M12.0002 16.0007V9.00073M5.00022 22.0007H19.0002C19.9321 22.0007 20.398 22.0007 20.7656 21.8485C21.2556 21.6455 21.645 21.2562 21.848 20.7661C22.0002 20.3986 22.0002 19.9326 22.0002 19.0007C22.0002 18.0688 22.0002 17.6029 21.848 17.2354C21.645 16.7453 21.2556 16.356 20.7656 16.153C20.398 16.0007 19.9321 16.0007 19.0002 16.0007H5.00022C4.06834 16.0007 3.6024 16.0007 3.23485 16.153C2.7448 16.356 2.35545 16.7453 2.15246 17.2354C2.00022 17.6029 2.00022 18.0688 2.00022 19.0007C2.00022 19.9326 2.00022 20.3986 2.15246 20.7661C2.35545 21.2562 2.7448 21.6455 3.23485 21.8485C3.6024 22.0007 4.06834 22.0007 5.00022 22.0007Z" stroke="#1C1D20" stroke-width="1.5" stroke-linecap="round" stroke-linejoin="round"/>
</svg>
