<svg width="24" height="24" viewBox="0 0 24 24" fill="none" xmlns="http://www.w3.org/2000/svg">
<path d="M6.20497 10.5573C5.72603 8.76903 6.08734 6.80257 7.2889 5.28317M17.7955 10.5573C18.2744 8.76899 17.9131 6.80253 16.7115 5.28312M2.34207 11.5991C1.50412 8.47432 2.20568 5.02269 4.44675 2.44531M21.6549 11.5991C22.4929 8.47436 21.7913 5.02273 19.5502 2.44536M12.0002 14.9994V8.99943M5.50022 18.4994H9.50022M5.20022 21.9994H18.8002C19.9203 21.9994 20.4804 21.9994 20.9082 21.7814C21.2845 21.5897 21.5905 21.2837 21.7822 20.9074C22.0002 20.4796 22.0002 19.9195 22.0002 18.7994V18.1994C22.0002 17.0793 22.0002 16.5193 21.7822 16.0915C21.5905 15.7151 21.2845 15.4092 20.9082 15.2174C20.4804 14.9994 19.9203 14.9994 18.8002 14.9994H5.20022C4.08012 14.9994 3.52006 14.9994 3.09224 15.2174C2.71592 15.4092 2.40996 15.7151 2.21821 16.0915C2.00022 16.5193 2.00022 17.0793 2.00022 18.1994V18.7994C2.00022 19.9195 2.00022 20.4796 2.21821 20.9074C2.40996 21.2837 2.71592 21.5897 3.09224 21.7814C3.52006 21.9994 4.08012 21.9994 5.20022 21.9994Z" stroke="#1C1D20" stroke-width="1.5" stroke-linecap="round" stroke-linejoin="round"/>
</svg>
