<svg width="24" height="24" viewBox="0 0 24 24" fill="none" xmlns="http://www.w3.org/2000/svg">
<path d="M16.2429 5.75806C18.586 8.1012 18.586 11.9002 16.2429 14.2433M7.75758 14.2433C5.41443 11.9002 5.41443 8.1012 7.75758 5.75806M4.92893 17.0718C1.02369 13.1666 1.02369 6.83493 4.92893 2.92969M19.0715 2.92969C22.9768 6.83493 22.9768 13.1666 19.0715 17.0718M12.0002 12.0007C13.1048 12.0007 14.0002 11.1053 14.0002 10.0007C14.0002 8.89616 13.1048 8.00073 12.0002 8.00073C10.8957 8.00073 10.0002 8.89616 10.0002 10.0007C10.0002 11.1053 10.8957 12.0007 12.0002 12.0007ZM12.0002 12.0007V21.0007" stroke="#1C1D20" stroke-width="1.5" stroke-linecap="round" stroke-linejoin="round"/>
</svg>
