<svg width="24" height="24" viewBox="0 0 24 24" fill="none" xmlns="http://www.w3.org/2000/svg">
<path d="M18.2451 8.00005C19.036 9.13388 19.4998 10.5128 19.4998 12C19.4998 13.4873 19.036 14.8662 18.2451 16M12.1343 5.36573L8.96863 8.53142C8.79568 8.70437 8.7092 8.79085 8.60828 8.85269C8.51881 8.90752 8.42127 8.94792 8.31923 8.97242C8.20414 9.00005 8.08185 9.00005 7.83726 9.00005H6.1C5.53995 9.00005 5.25992 9.00005 5.04601 9.10904C4.85785 9.20492 4.70487 9.3579 4.60899 9.54606C4.5 9.75997 4.5 10.04 4.5 10.6V13.4C4.5 13.9601 4.5 14.2401 4.60899 14.454C4.70487 14.6422 4.85785 14.7952 5.04601 14.8911C5.25992 15 5.53995 15 6.1 15H7.83726C8.08185 15 8.20414 15 8.31923 15.0277C8.42127 15.0522 8.51881 15.0926 8.60828 15.1474C8.7092 15.2093 8.79568 15.2957 8.96863 15.4687L12.1343 18.6344C12.5627 19.0627 12.7769 19.2769 12.9608 19.2914C13.1203 19.304 13.2763 19.2394 13.3802 19.1177C13.5 18.9774 13.5 18.6745 13.5 18.0687V5.93142C13.5 5.3256 13.5 5.0227 13.3802 4.88243C13.2763 4.76073 13.1203 4.69614 12.9608 4.7087C12.7769 4.72317 12.5627 4.93736 12.1343 5.36573Z" stroke="#1C1D20" stroke-width="1.5" stroke-linecap="round" stroke-linejoin="round"/>
</svg>
