<svg width="25" height="25" viewBox="0 0 25 25" fill="none" xmlns="http://www.w3.org/2000/svg">
<g clip-path="url(#clip0_1692_54127)">
<path d="M21.9983 5.68066H2.04883V18.9803H21.9983V5.68066Z" fill="white"/>
<path d="M21.9953 5.68066H7.0332V18.9803H21.9953V5.68066Z" fill="#01411C"/>
<path d="M18.1456 13.9834C18.0872 14.0429 18.0263 14.1009 17.9631 14.1571C16.4534 15.4991 14.1416 15.3631 12.7996 13.8534C11.4577 12.3437 11.5937 10.0319 13.1034 8.68995C13.1667 8.63364 13.2315 8.57993 13.2975 8.52881C11.6885 9.04301 10.5234 10.5505 10.5234 12.3301C10.5234 14.5336 12.3098 16.32 14.5133 16.32C16.1272 16.32 17.5172 15.3619 18.1456 13.9834Z" fill="white"/>
<path d="M15.9682 9.3445L17.6489 11.2353L15.1779 10.6935L17.4954 9.67934L16.2166 11.862L15.9682 9.3445Z" fill="white"/>
</g>
<defs>
<clipPath id="clip0_1692_54127">
<rect x="2.04883" y="5.68115" width="19.9504" height="13.2997" rx="1" fill="white"/>
</clipPath>
</defs>
</svg>
