<svg width="25" height="25" viewBox="0 0 25 25" fill="none" xmlns="http://www.w3.org/2000/svg">
<g clip-path="url(#clip0_1692_54126)">
<path d="M2.05575 18.8914C2.06268 18.8113 2.30971 18.5558 4.23748 16.6286L6.40997 14.4551H14.2042H21.9983V16.7179V18.9807H12.0224H2.04883L2.05575 18.8914Z" fill="#009639"/>
<path d="M4.25183 8.01167C2.4996 6.26609 2.05114 5.8043 2.05114 5.75196L2.04883 5.68115H12.0236H21.9983V7.94394V10.2067H14.2266H6.45252L4.25183 8.01167Z" fill="black"/>
<path d="M2.04883 14.3266C2.04883 14.2763 2.35961 14.0306 3.41037 13.2463C4.15625 12.6869 4.76895 12.2222 4.76895 12.2133C4.76895 12.2044 4.17105 11.7515 3.43997 11.2069C2.21754 10.2953 2.11099 10.2095 2.10803 10.1266C2.10803 10.0615 2.11691 10.0496 2.14354 10.0763C2.17018 10.1029 4.41968 10.1118 12.0887 10.1118H21.9983V12.2429V14.374L12.0236 14.3799L2.04883 14.3888V14.3266Z" fill="white"/>
<path d="M2.07617 12.331C2.07617 5.79814 2.07617 5.68115 2.13467 5.68115C2.16853 5.68115 2.19932 5.69347 2.20547 5.70578C2.21163 5.7181 4.17888 7.202 6.57713 8.99991C8.97846 10.7978 10.9426 12.2817 10.9426 12.3002C10.9426 12.3187 8.97846 13.8026 6.58021 15.5974C4.17888 17.3953 2.19316 18.8915 2.16237 18.9223C2.13467 18.9562 2.10388 18.9808 2.09464 18.9808C2.08541 18.9808 2.07617 15.9884 2.07617 12.331H2.07617Z" fill="#ED2E38"/>
</g>
<defs>
<clipPath id="clip0_1692_54126">
<rect x="2.04883" y="5.68115" width="19.9495" height="13.2997" rx="1" fill="white"/>
</clipPath>
</defs>
</svg>
