<svg width="24" height="24" viewBox="0 0 24 24" fill="none" xmlns="http://www.w3.org/2000/svg">
<path d="M20.9986 11.5C20.9986 16.1944 17.1931 20 12.4986 20C11.4219 20 10.3919 19.7998 9.4438 19.4345C9.27047 19.3678 9.1838 19.3344 9.11488 19.3185C9.04709 19.3029 8.99802 19.2963 8.92851 19.2937C8.85783 19.291 8.78029 19.299 8.62521 19.315L3.50419 19.8444C3.01595 19.8948 2.77183 19.9201 2.62782 19.8322C2.5024 19.7557 2.41697 19.6279 2.39423 19.4828C2.36812 19.3161 2.48477 19.1002 2.71808 18.6684L4.35374 15.6408C4.48844 15.3915 4.5558 15.2668 4.5863 15.1469C4.61643 15.0286 4.62371 14.9432 4.61408 14.8214C4.60432 14.6981 4.55022 14.5376 4.44202 14.2166C4.1545 13.3636 3.99865 12.45 3.99865 11.5C3.99865 6.80558 7.80423 3 12.4986 3C17.1931 3 20.9986 6.80558 20.9986 11.5Z" stroke="#1C1D20" stroke-width="1.5" stroke-linecap="round" stroke-linejoin="round"/>
</svg>
