<svg width="24" height="24" viewBox="0 0 24 24" fill="none" xmlns="http://www.w3.org/2000/svg">
<path d="M20.9986 11.5C20.9986 16.1944 17.1931 20 12.4986 20C11.4219 20 10.3919 19.7998 9.4438 19.4345C9.27047 19.3678 9.1838 19.3344 9.11488 19.3185C9.04709 19.3029 8.99802 19.2963 8.92851 19.2937C8.85783 19.291 8.78029 19.299 8.62521 19.315L3.50419 19.8444C3.01595 19.8948 2.77183 19.9201 2.62782 19.8322C2.5024 19.7557 2.41697 19.6279 2.39423 19.4828C2.36812 19.3161 2.48477 19.1002 2.71808 18.6684L4.35374 15.6408C4.48844 15.3915 4.5558 15.2668 4.5863 15.1469C4.61643 15.0286 4.62371 14.9432 4.61408 14.8214C4.60432 14.6981 4.55022 14.5376 4.44202 14.2166C4.1545 13.3636 3.99865 12.45 3.99865 11.5C3.99865 6.80558 7.80423 3 12.4986 3C17.1931 3 20.9986 6.80558 20.9986 11.5Z" stroke="#1C1D20" stroke-width="1.5" stroke-linecap="round" stroke-linejoin="round"/>
<path fill-rule="evenodd" clip-rule="evenodd" d="M12.4956 8.94925C11.5959 7.9104 10.0955 7.63095 8.96826 8.58223C7.84099 9.5335 7.68228 11.124 8.56754 12.2491C9.11598 12.9461 10.4925 14.2191 11.4606 15.087C11.8162 15.4057 11.994 15.5651 12.2074 15.6293C12.3904 15.6844 12.6007 15.6844 12.7838 15.6293C12.9971 15.5651 13.1749 15.4057 13.5305 15.087C14.4986 14.2191 15.8751 12.9461 16.4236 12.2491C17.3088 11.124 17.1695 9.5235 16.0229 8.58223C14.8762 7.64096 13.3953 7.9104 12.4956 8.94925Z" stroke="#1C1D20" stroke-width="1.5" stroke-linecap="round" stroke-linejoin="round"/>
</svg>
