<svg width="25" height="25" viewBox="0 0 25 25" fill="none" xmlns="http://www.w3.org/2000/svg">
<g clip-path="url(#clip0_1692_54118)">
<path d="M2.04883 5.81006H21.9983V19.1097H2.04883V5.81006Z" fill="#00AFCA"/>
<path d="M3.64957 7.24169C3.62395 7.30496 3.60613 7.36051 3.60613 7.39855C3.60613 7.47519 3.62184 7.53469 3.64957 7.58138C3.6773 7.53469 3.69301 7.47519 3.69301 7.39855C3.69301 7.36051 3.67519 7.30496 3.64957 7.24169Z" fill="#FEC50C"/>
<path d="M3.64957 7.90529C3.62376 7.95419 3.57374 8.1307 3.64957 8.28965C3.7254 8.1307 3.67538 7.95419 3.64957 7.90529Z" fill="#FEC50C"/>
<path fill-rule="evenodd" clip-rule="evenodd" d="M3.64948 6.78179L3.64957 6.78183L3.64966 6.78179L3.64975 6.78167C3.65515 6.77718 3.77833 6.6756 3.82079 6.7283C3.85965 6.77652 3.78877 6.9316 3.71826 7.08585C3.69378 7.1394 3.66935 7.19285 3.64957 7.24169C3.62979 7.19285 3.60536 7.1394 3.58088 7.08585C3.51037 6.9316 3.43949 6.77652 3.47835 6.7283C3.5208 6.6756 3.64398 6.77718 3.64939 6.78167L3.64948 6.78179ZM3.64957 7.58138C3.62184 7.53469 3.60613 7.47519 3.60613 7.39855C3.60613 7.36051 3.62395 7.30496 3.64957 7.24169C3.67519 7.30496 3.69301 7.36051 3.69301 7.39855C3.69301 7.47519 3.6773 7.53469 3.64957 7.58138ZM3.91011 7.73797C3.79702 7.71198 3.70189 7.66949 3.64957 7.58138C3.59724 7.66949 3.50212 7.71198 3.38902 7.73797C3.39658 7.74033 3.40381 7.74286 3.41067 7.74556C3.53614 7.7601 3.62373 7.85635 3.64953 7.90521L3.64957 7.90529C3.62376 7.95419 3.57374 8.1307 3.64957 8.28965L3.64953 8.28973C3.56641 8.4638 3.17457 9.29466 3.0524 9.55583C3.02649 9.61123 3.01077 9.66999 3.01077 9.7336C3.01077 9.89359 3.15734 9.94945 3.24059 9.94945C3.34011 9.94945 3.44144 9.87364 3.44144 9.77895C3.44144 9.71896 3.40886 9.68282 3.36182 9.68282C3.24933 9.68282 3.25617 9.77851 3.27859 9.83881C3.20858 9.80733 3.16788 9.75114 3.17907 9.69189C3.13943 9.68645 3.1017 9.66766 3.06688 9.6284C3.09428 9.59382 3.12769 9.56766 3.17907 9.56673C3.15663 9.4748 3.21817 9.43592 3.27859 9.41437C3.25948 9.48183 3.24694 9.55948 3.36182 9.55948C3.44561 9.55948 3.51155 9.57399 3.55001 9.62841C3.55227 9.55585 3.55905 9.26925 3.55905 9.26925C3.56389 9.16155 3.41491 9.16462 3.32022 9.19669C3.35595 9.07264 3.42925 9.00557 3.59887 9.02256C3.5577 9.00533 3.51382 8.96659 3.51382 8.89195C3.51385 8.79097 3.59577 8.67909 3.64956 8.64602C3.70334 8.67909 3.78529 8.79097 3.78532 8.89195C3.78532 8.96659 3.74144 9.00533 3.70027 9.02256C3.86989 9.00557 3.94319 9.07264 3.97892 9.19669C3.88423 9.16462 3.73525 9.16155 3.74009 9.26925C3.74009 9.26925 3.74687 9.55585 3.74913 9.62841C3.78759 9.57399 3.85353 9.55948 3.93732 9.55948C4.0522 9.55948 4.03966 9.48183 4.02055 9.41437C4.08097 9.43592 4.14251 9.4748 4.12007 9.56673C4.17145 9.56766 4.20486 9.59382 4.23225 9.6284C4.19744 9.66766 4.15971 9.68645 4.12007 9.69189C4.13126 9.75114 4.09056 9.80733 4.02055 9.83881C4.04297 9.77851 4.04981 9.68282 3.93732 9.68282C3.89028 9.68282 3.8577 9.71896 3.8577 9.77895C3.8577 9.87364 3.95903 9.94945 4.05855 9.94945C4.1418 9.94945 4.28837 9.89359 4.28837 9.7336C4.28837 9.66999 4.27265 9.61123 4.24674 9.55583C4.12457 9.29466 3.73273 8.4638 3.64961 8.28973L3.64957 8.28965C3.7254 8.1307 3.67538 7.95419 3.64957 7.90529L3.64961 7.90521C3.67541 7.85635 3.763 7.7601 3.88847 7.74556C3.89533 7.74286 3.90255 7.74033 3.91011 7.73797ZM4.34063 7.74152L4.3407 7.74151C4.29841 7.68468 4.2709 7.66793 4.19964 7.6634C4.27898 7.62221 4.35976 7.53279 4.35976 7.39363C4.35976 7.28953 4.33897 7.2151 4.31757 7.13845C4.29484 7.05707 4.27141 6.97317 4.27141 6.84856C4.27141 6.71433 4.38148 6.54346 4.38148 6.54346C4.18692 6.56293 4.09049 6.74307 4.14535 6.88704C4.11439 6.8915 4.08628 6.88451 4.06213 6.86164C4.04789 6.90154 4.07037 6.94786 4.10047 6.98777C4.08031 6.99854 4.0646 6.99499 4.03768 6.9889C4.03222 6.98766 4.0263 6.98632 4.01979 6.98498C4.02346 7.0261 4.04809 7.06978 4.10837 7.1109C3.93346 7.06548 3.82584 7.18739 3.82584 7.31501C3.82584 7.41141 3.89339 7.4805 3.95943 7.4805C3.98076 7.4805 4.01211 7.47171 4.02978 7.4585C4.04226 7.48503 4.03583 7.52054 4.023 7.54708C4.07138 7.53428 4.1021 7.50554 4.08024 7.44572C4.11741 7.4423 4.14698 7.42975 4.16709 7.40582C4.14671 7.37971 4.11579 7.36469 4.08024 7.36591C4.1073 7.31005 4.07714 7.2788 4.03319 7.25345C4.03319 7.25345 4.06114 7.36591 3.98976 7.36591C3.95767 7.36591 3.92842 7.35546 3.92842 7.30815C3.92842 7.26696 3.96443 7.2099 4.04767 7.21353C4.1309 7.21717 4.19838 7.27092 4.19838 7.4038C4.19838 7.52637 4.09951 7.58734 3.96923 7.59127C3.85175 7.5949 3.76308 7.53126 3.76308 7.41006C3.76308 7.32709 3.8247 7.18951 3.88454 7.05589C3.94103 6.92976 3.99593 6.80716 3.99593 6.73737C3.99593 6.62951 3.89895 6.56931 3.80406 6.56931C3.74502 6.56931 3.69041 6.59736 3.64957 6.62654C3.60873 6.59736 3.55412 6.56931 3.49508 6.56931C3.40019 6.56931 3.30321 6.62951 3.30321 6.73737C3.30321 6.80716 3.35811 6.92976 3.4146 7.05589C3.47444 7.18951 3.53606 7.32709 3.53606 7.41006C3.53606 7.53126 3.44739 7.5949 3.32991 7.59127C3.19963 7.58734 3.10076 7.52637 3.10076 7.4038C3.10076 7.27092 3.16824 7.21717 3.25147 7.21353C3.33471 7.2099 3.37072 7.26696 3.37072 7.30815C3.37072 7.35546 3.34147 7.36591 3.30938 7.36591C3.238 7.36591 3.26595 7.25345 3.26595 7.25345C3.222 7.2788 3.19183 7.31005 3.2189 7.36591C3.18335 7.36469 3.15243 7.37971 3.13205 7.40582C3.15216 7.42975 3.18173 7.4423 3.2189 7.44572C3.19703 7.50554 3.22776 7.53428 3.27614 7.54708C3.26331 7.52054 3.25688 7.48503 3.26936 7.4585C3.28703 7.47171 3.31838 7.4805 3.33971 7.4805C3.40575 7.4805 3.4733 7.41141 3.4733 7.31501C3.4733 7.18739 3.36567 7.06548 3.19077 7.1109C3.25104 7.06978 3.27568 7.0261 3.27935 6.98498C3.27284 6.98632 3.26692 6.98766 3.26146 6.9889C3.23454 6.99499 3.21883 6.99854 3.19867 6.98777C3.22877 6.94786 3.25124 6.90154 3.23701 6.86164C3.21286 6.88451 3.18475 6.8915 3.15378 6.88704C3.20865 6.74307 3.11222 6.56293 2.91766 6.54346C2.91766 6.54346 3.02773 6.71433 3.02773 6.84856C3.02773 6.97317 3.0043 7.05707 2.98157 7.13845C2.96016 7.2151 2.93938 7.28953 2.93938 7.39363C2.93938 7.53279 3.02016 7.62221 3.0995 7.6634C3.02824 7.66793 3.00073 7.68468 2.95844 7.74151L2.9585 7.74152L2.9584 7.74155C2.98049 7.78168 3.0186 7.81143 3.07774 7.82804C2.98753 7.89468 2.94203 7.99145 2.94203 8.08117C2.94203 8.17995 2.95998 8.24467 2.97956 8.31526C3.00305 8.39992 3.02887 8.49302 3.02887 8.66343C3.02887 8.75985 2.99141 8.8567 2.91488 8.9464C3.12397 8.90356 3.20616 8.7225 3.13926 8.59086C3.17277 8.57693 3.19903 8.59127 3.22489 8.60538C3.23192 8.60922 3.23891 8.61303 3.24602 8.61627C3.24706 8.55592 3.22711 8.5237 3.20831 8.49332C3.20449 8.48714 3.20071 8.48104 3.19717 8.4748C3.19717 8.4748 3.23334 8.47661 3.26593 8.48929C3.26154 8.44261 3.23983 8.40086 3.19717 8.38046C3.37654 8.40947 3.47222 8.29339 3.47222 8.15554C3.47222 8.01669 3.34902 7.98031 3.26865 8.00318C3.26524 7.98369 3.26558 7.96304 3.27589 7.9406C3.22483 7.9526 3.20121 7.9811 3.21889 8.03946C3.18904 8.04461 3.16583 8.05974 3.14561 8.07936C3.16474 8.10134 3.19043 8.1166 3.21889 8.12289C3.20128 8.17071 3.23208 8.20902 3.26956 8.21722C3.26956 8.21722 3.24837 8.11564 3.32383 8.11564C3.35372 8.11564 3.37451 8.13426 3.37451 8.17731C3.37451 8.23909 3.33945 8.27526 3.25146 8.27526C3.17996 8.27526 3.11032 8.21541 3.11032 8.08118C3.11032 7.97066 3.22071 7.87368 3.32203 7.8762C3.43317 7.87894 3.53917 7.96826 3.53917 8.07755C3.53917 8.1483 3.53255 8.19658 3.51202 8.23898C3.34747 8.57895 2.9248 9.45794 2.9248 9.45794C2.87239 9.56674 2.85156 9.63807 2.85156 9.75175C2.85156 9.9523 2.98799 10.1055 3.24422 10.1055C3.39624 10.1055 3.58138 10.017 3.64957 9.84376C3.71776 10.017 3.9029 10.1055 4.05492 10.1055C4.31115 10.1055 4.44758 9.9523 4.44758 9.75175C4.44758 9.63807 4.42675 9.56674 4.37434 9.45794C4.37434 9.45794 3.95167 8.57895 3.78711 8.23898C3.76659 8.19658 3.75997 8.1483 3.75997 8.07755C3.75997 7.96826 3.86597 7.87894 3.97711 7.8762C4.07843 7.87368 4.18882 7.97066 4.18882 8.08118C4.18882 8.21541 4.11918 8.27526 4.04768 8.27526C3.95969 8.27526 3.92463 8.23909 3.92463 8.17731C3.92463 8.13426 3.94542 8.11564 3.97531 8.11564C4.05077 8.11564 4.02958 8.21722 4.02958 8.21722C4.06706 8.20902 4.09786 8.17071 4.08025 8.12289C4.10871 8.1166 4.1344 8.10134 4.15353 8.07936C4.13331 8.05974 4.1101 8.04461 4.08025 8.03946C4.09793 7.9811 4.07431 7.9526 4.02325 7.9406C4.03356 7.96304 4.0339 7.98369 4.03049 8.00318C3.95012 7.98031 3.82692 8.01669 3.82692 8.15554C3.82692 8.29339 3.9226 8.40947 4.10197 8.38046C4.05931 8.40086 4.0376 8.44261 4.03321 8.48929C4.0658 8.47661 4.10197 8.4748 4.10197 8.4748C4.09843 8.48105 4.09465 8.48715 4.09083 8.49333C4.07202 8.52371 4.05208 8.55592 4.05312 8.61627C4.06023 8.61303 4.06722 8.60921 4.07425 8.60538C4.10011 8.59127 4.12637 8.57693 4.15988 8.59086C4.09298 8.7225 4.17517 8.90356 4.38426 8.9464C4.30773 8.8567 4.27027 8.75985 4.27027 8.66343C4.27027 8.49302 4.29609 8.39992 4.31958 8.31526C4.33916 8.24467 4.35711 8.17995 4.35711 8.08117C4.35711 7.99145 4.31161 7.89468 4.2214 7.82804C4.28054 7.81143 4.31864 7.78168 4.34074 7.74155L4.34063 7.74152ZM4.34063 7.74152C4.20958 7.70438 4.02287 7.70269 3.91011 7.73797C3.93218 7.74304 3.95492 7.74748 3.97816 7.75151C4.11473 7.77518 4.33627 7.74217 4.34063 7.74152Z" fill="#FEC50C"/>
<path d="M4.34063 7.74152C4.20958 7.70438 4.02287 7.70269 3.91011 7.73797C3.93218 7.74304 3.95492 7.74748 3.97816 7.75151C4.11473 7.77518 4.33627 7.74217 4.34063 7.74152Z" fill="#FEC50C"/>
<path d="M3.39972 12.4618C3.28841 12.4229 3.09383 12.4235 2.95854 12.4618C3.09383 12.5002 3.28841 12.5007 3.39972 12.4618Z" fill="#FEC50C"/>
<path fill-rule="evenodd" clip-rule="evenodd" d="M3.64957 10.3596C3.58138 10.1864 3.39624 10.0978 3.24422 10.0978C2.98799 10.0978 2.85156 10.251 2.85156 10.4516C2.85156 10.5653 2.87239 10.6366 2.9248 10.7454C2.9248 10.7454 3.34747 11.6244 3.51202 11.9644C3.53255 12.0068 3.53917 12.055 3.53917 12.1258C3.53917 12.2351 3.43317 12.3244 3.32203 12.3271C3.22071 12.3297 3.11032 12.2327 3.11032 12.1222C3.11032 11.9879 3.17996 11.9281 3.25146 11.9281C3.33945 11.9281 3.37451 11.9642 3.37451 12.026C3.37451 12.0691 3.35372 12.0877 3.32383 12.0877C3.24837 12.0877 3.26956 11.9861 3.26956 11.9861C3.23208 11.9943 3.20128 12.0326 3.21889 12.0804C3.19043 12.0867 3.16474 12.102 3.14561 12.124C3.16583 12.1436 3.18904 12.1587 3.21889 12.1639C3.20121 12.2222 3.22483 12.2507 3.27589 12.2627C3.26558 12.2403 3.26524 12.2196 3.26865 12.2002C3.34902 12.223 3.47222 12.1866 3.47222 12.0478C3.47222 11.9099 3.37654 11.7939 3.19717 11.8229C3.23983 11.8025 3.26154 11.7607 3.26593 11.714C3.23334 11.7267 3.19717 11.7285 3.19717 11.7285C3.20071 11.7223 3.20449 11.7162 3.20831 11.71C3.22712 11.6796 3.24706 11.6474 3.24602 11.5871C3.23891 11.5903 3.23192 11.5941 3.22489 11.598C3.19903 11.6121 3.17277 11.6264 3.13926 11.6125C3.20616 11.4808 3.12397 11.2998 2.91488 11.2569C2.99141 11.3466 3.02887 11.4435 3.02887 11.5399C3.02887 11.7103 3.00305 11.8034 2.97956 11.8881C2.95998 11.9587 2.94203 12.0234 2.94203 12.1222C2.94203 12.2119 2.98753 12.3087 3.07774 12.3753C3.0186 12.3919 2.98049 12.4217 2.9584 12.4618L2.95854 12.4618L2.9584 12.4619C2.98049 12.502 3.0186 12.5318 3.07774 12.5484C2.98753 12.615 2.94203 12.7118 2.94203 12.8015C2.94203 12.9003 2.95998 12.965 2.97956 13.0356C3.00305 13.1202 3.02887 13.2133 3.02887 13.3837C3.02887 13.4802 2.99141 13.577 2.91488 13.6667C3.12397 13.6239 3.20616 13.4428 3.13926 13.3112C3.17277 13.2973 3.19903 13.3116 3.22489 13.3257C3.23192 13.3295 3.23891 13.3334 3.24602 13.3366C3.24706 13.2762 3.22712 13.244 3.20831 13.2136C3.20449 13.2075 3.20071 13.2014 3.19717 13.1951C3.19717 13.1951 3.23334 13.1969 3.26593 13.2096C3.26154 13.1629 3.23983 13.1212 3.19717 13.1008C3.37654 13.1298 3.47222 13.0137 3.47222 12.8759C3.47222 12.737 3.34902 12.7006 3.26865 12.7235C3.26524 12.704 3.26558 12.6834 3.27589 12.6609C3.22483 12.6729 3.20121 12.7014 3.21889 12.7598C3.18904 12.7649 3.16583 12.7801 3.14561 12.7997C3.16474 12.8217 3.19043 12.8369 3.21889 12.8432C3.20128 12.891 3.23208 12.9293 3.26956 12.9375C3.26956 12.9375 3.24837 12.836 3.32383 12.836C3.35372 12.836 3.37451 12.8546 3.37451 12.8976C3.37451 12.9594 3.33945 12.9956 3.25146 12.9956C3.17996 12.9956 3.11032 12.9357 3.11032 12.8015C3.11032 12.691 3.22071 12.594 3.32203 12.5965C3.43317 12.5993 3.53917 12.6886 3.53917 12.7979C3.53917 12.8686 3.53255 12.9169 3.51202 12.9593C3.34747 13.2993 2.9248 14.1783 2.9248 14.1783C2.87239 14.2871 2.85156 14.3584 2.85156 14.4721C2.85156 14.6726 2.98799 14.8258 3.24422 14.8258C3.39624 14.8258 3.58138 14.7373 3.64957 14.5641C3.71776 14.7373 3.9029 14.8258 4.05492 14.8258C4.31115 14.8258 4.44758 14.6726 4.44758 14.4721C4.44758 14.3584 4.42675 14.2871 4.37434 14.1783C4.37434 14.1783 3.95167 13.2993 3.78711 12.9593C3.76659 12.9169 3.75997 12.8686 3.75997 12.7979C3.75997 12.6886 3.86597 12.5993 3.97711 12.5965C4.07843 12.594 4.18882 12.691 4.18882 12.8015C4.18882 12.9357 4.11918 12.9956 4.04768 12.9956C3.95969 12.9956 3.92463 12.9594 3.92463 12.8976C3.92463 12.8546 3.94542 12.836 3.97531 12.836C4.05077 12.836 4.02958 12.9375 4.02958 12.9375C4.06706 12.9293 4.09786 12.891 4.08025 12.8432C4.10871 12.8369 4.1344 12.8217 4.15353 12.7997C4.13331 12.7801 4.1101 12.7649 4.08025 12.7598C4.09793 12.7014 4.07431 12.6729 4.02325 12.6609C4.03356 12.6834 4.0339 12.704 4.03049 12.7235C3.95012 12.7006 3.82692 12.737 3.82692 12.8759C3.82692 13.0137 3.9226 13.1298 4.10197 13.1008C4.05931 13.1212 4.0376 13.1629 4.03321 13.2096C4.0658 13.1969 4.10197 13.1951 4.10197 13.1951C4.09843 13.2014 4.09465 13.2075 4.09083 13.2136C4.07202 13.244 4.05208 13.2762 4.05312 13.3366C4.06023 13.3334 4.06722 13.3295 4.07425 13.3257C4.10011 13.3116 4.12637 13.2973 4.15988 13.3112C4.09298 13.4428 4.17517 13.6239 4.38426 13.6667C4.30773 13.577 4.27027 13.4802 4.27027 13.3837C4.27027 13.2133 4.29609 13.1202 4.31958 13.0356C4.33916 12.965 4.35711 12.9003 4.35711 12.8015C4.35711 12.7118 4.31161 12.615 4.2214 12.5484C4.28054 12.5318 4.31864 12.502 4.34074 12.4619L4.3406 12.4618L4.34074 12.4618C4.31864 12.4217 4.28054 12.3919 4.2214 12.3753C4.31161 12.3087 4.35711 12.2119 4.35711 12.1222C4.35711 12.0234 4.33916 11.9587 4.31958 11.8881C4.29609 11.8034 4.27027 11.7103 4.27027 11.5399C4.27027 11.4435 4.30773 11.3466 4.38426 11.2569C4.17517 11.2998 4.09298 11.4808 4.15988 11.6125C4.12637 11.6264 4.10011 11.6121 4.07425 11.598C4.06722 11.5941 4.06023 11.5903 4.05312 11.5871C4.05208 11.6474 4.07202 11.6796 4.09083 11.71C4.09465 11.7162 4.09843 11.7223 4.10197 11.7285C4.10197 11.7285 4.0658 11.7267 4.03321 11.714C4.0376 11.7607 4.05931 11.8025 4.10197 11.8229C3.9226 11.7939 3.82692 11.9099 3.82692 12.0478C3.82692 12.1866 3.95012 12.223 4.03049 12.2002C4.0339 12.2196 4.03356 12.2403 4.02325 12.2627C4.07431 12.2507 4.09793 12.2222 4.08025 12.1639C4.1101 12.1587 4.13331 12.1436 4.15353 12.124C4.1344 12.102 4.10871 12.0867 4.08025 12.0804C4.09786 12.0326 4.06706 11.9943 4.02958 11.9861C4.02958 11.9861 4.05077 12.0877 3.97531 12.0877C3.94542 12.0877 3.92463 12.0691 3.92463 12.026C3.92463 11.9642 3.95969 11.9281 4.04768 11.9281C4.11918 11.9281 4.18882 11.9879 4.18882 12.1222C4.18882 12.2327 4.07843 12.3297 3.97711 12.3271C3.86597 12.3244 3.75997 12.2351 3.75997 12.1258C3.75997 12.055 3.76659 12.0068 3.78711 11.9644C3.95167 11.6244 4.37434 10.7454 4.37434 10.7454C4.42675 10.6366 4.44758 10.5653 4.44758 10.4516C4.44758 10.251 4.31115 10.0978 4.05492 10.0978C3.9029 10.0978 3.71776 10.1864 3.64957 10.3596ZM3.89942 12.4618C4.01073 12.4229 4.20531 12.4235 4.3406 12.4618C4.20531 12.5002 4.01073 12.5007 3.89942 12.4618ZM3.39972 12.4618C3.40347 12.4631 3.40712 12.4645 3.41067 12.4659C3.53614 12.4804 3.62373 12.5767 3.64953 12.6255L3.64957 12.6256L3.64961 12.6255C3.67541 12.5767 3.763 12.4804 3.88847 12.4659C3.89202 12.4645 3.89567 12.4631 3.89942 12.4618C3.89567 12.4605 3.89202 12.4592 3.88847 12.4578C3.763 12.4432 3.67541 12.347 3.64961 12.2981L3.64957 12.298C3.67538 12.2491 3.7254 12.0726 3.64957 11.9137L3.64961 11.9136C3.73273 11.7395 4.12457 10.9087 4.24674 10.6475C4.27265 10.5921 4.28837 10.5333 4.28837 10.4697C4.28837 10.3097 4.1418 10.2539 4.05855 10.2539C3.95903 10.2539 3.8577 10.3297 3.8577 10.4244C3.8577 10.4844 3.89028 10.5205 3.93732 10.5205C4.04981 10.5205 4.04297 10.4248 4.02055 10.3645C4.09056 10.396 4.13126 10.4522 4.12007 10.5114C4.15971 10.5169 4.19744 10.5357 4.23225 10.5749C4.20486 10.6095 4.17145 10.6357 4.12007 10.6366C4.14251 10.7285 4.08097 10.7674 4.02055 10.789C4.03966 10.7215 4.0522 10.6439 3.93732 10.6439C3.85353 10.6439 3.78759 10.6293 3.74913 10.5749C3.74687 10.6475 3.74009 10.9341 3.74009 10.9341C3.73525 11.0418 3.88423 11.0387 3.97892 11.0066C3.94319 11.1307 3.86989 11.1978 3.70027 11.1808C3.74144 11.198 3.78532 11.2367 3.78532 11.3114C3.78529 11.4124 3.70334 11.5242 3.64956 11.5573C3.59577 11.5242 3.51385 11.4124 3.51382 11.3114C3.51382 11.2367 3.5577 11.198 3.59887 11.1808C3.42925 11.1978 3.35595 11.1307 3.32022 11.0066C3.41491 11.0387 3.56389 11.0418 3.55905 10.9341C3.55905 10.9341 3.55227 10.6475 3.55001 10.5749C3.51155 10.6293 3.44561 10.6439 3.36182 10.6439C3.24694 10.6439 3.25948 10.7215 3.27859 10.789C3.21817 10.7674 3.15663 10.7285 3.17907 10.6366C3.12769 10.6357 3.09428 10.6095 3.06688 10.5749C3.1017 10.5357 3.13943 10.5169 3.17907 10.5114C3.16788 10.4522 3.20858 10.396 3.27859 10.3645C3.25617 10.4248 3.24933 10.5205 3.36182 10.5205C3.40886 10.5205 3.44144 10.4844 3.44144 10.4244C3.44144 10.3297 3.34011 10.2539 3.24059 10.2539C3.15734 10.2539 3.01077 10.3097 3.01077 10.4697C3.01077 10.5333 3.02649 10.5921 3.0524 10.6475C3.17457 10.9087 3.56641 11.7395 3.64953 11.9136L3.64957 11.9137C3.57374 12.0726 3.62376 12.2491 3.64957 12.298L3.64953 12.2981C3.62373 12.347 3.53614 12.4432 3.41067 12.4578C3.40712 12.4592 3.40347 12.4605 3.39972 12.4618ZM3.39972 12.4618C3.28841 12.4229 3.09383 12.4235 2.95854 12.4618C3.09383 12.5002 3.28841 12.5007 3.39972 12.4618ZM3.64957 13.01L3.64953 13.0101C3.56641 13.1841 3.17457 14.015 3.0524 14.2762C3.02649 14.3316 3.01077 14.3903 3.01077 14.4539C3.01077 14.6139 3.15734 14.6698 3.24059 14.6698C3.34011 14.6698 3.44144 14.594 3.44144 14.4993C3.44144 14.4393 3.40886 14.4031 3.36182 14.4031C3.24933 14.4031 3.25617 14.4988 3.27859 14.5591C3.20858 14.5277 3.16788 14.4715 3.17907 14.4122C3.13943 14.4068 3.1017 14.388 3.06688 14.3487C3.09428 14.3141 3.12769 14.288 3.17907 14.287C3.15663 14.1951 3.21817 14.1562 3.27859 14.1347C3.25948 14.2022 3.24694 14.2798 3.36182 14.2798C3.44561 14.2798 3.51155 14.2943 3.55001 14.3487C3.55227 14.2762 3.55905 13.9896 3.55905 13.9896C3.56389 13.8819 3.41491 13.8849 3.32022 13.917C3.35595 13.793 3.42925 13.7259 3.59887 13.7429C3.5577 13.7257 3.51382 13.6869 3.51382 13.6123C3.51385 13.5113 3.59577 13.3994 3.64956 13.3663C3.70334 13.3994 3.78529 13.5113 3.78532 13.6123C3.78532 13.6869 3.74144 13.7257 3.70027 13.7429C3.86989 13.7259 3.94319 13.793 3.97892 13.917C3.88423 13.8849 3.73525 13.8819 3.74009 13.9896C3.74009 13.9896 3.74687 14.2762 3.74913 14.3487C3.78759 14.2943 3.85353 14.2798 3.93732 14.2798C4.0522 14.2798 4.03966 14.2022 4.02055 14.1347C4.08097 14.1562 4.14251 14.1951 4.12007 14.287C4.17145 14.288 4.20486 14.3141 4.23225 14.3487C4.19744 14.388 4.15971 14.4068 4.12007 14.4122C4.13126 14.4715 4.09056 14.5277 4.02055 14.5591C4.04297 14.4988 4.04981 14.4031 3.93732 14.4031C3.89028 14.4031 3.8577 14.4393 3.8577 14.4993C3.8577 14.594 3.95903 14.6698 4.05855 14.6698C4.1418 14.6698 4.28837 14.6139 4.28837 14.4539C4.28837 14.3903 4.27265 14.3316 4.24674 14.2762C4.12457 14.015 3.73273 13.1841 3.64961 13.0101L3.64957 13.01Z" fill="#FEC50C"/>
<path d="M3.64957 12.298C3.67538 12.2491 3.7254 12.0726 3.64957 11.9137C3.57374 12.0726 3.62376 12.2491 3.64957 12.298Z" fill="#FEC50C"/>
<path d="M3.89942 12.4618C4.01073 12.4229 4.20531 12.4235 4.3406 12.4618C4.20531 12.5002 4.01073 12.5007 3.89942 12.4618Z" fill="#FEC50C"/>
<path d="M3.64956 16.2776L3.67643 15.2263C3.67643 15.1722 3.66669 15.1234 3.64957 15.0799C3.63245 15.1234 3.6227 15.1722 3.6227 15.2263L3.64956 16.2776Z" fill="#FEC50C"/>
<path d="M3.64957 17.3423C3.62184 17.389 3.60613 17.4485 3.60613 17.5251C3.60613 17.5631 3.62395 17.6187 3.64957 17.682C3.67519 17.6187 3.69301 17.5631 3.69301 17.5251C3.69301 17.4485 3.6773 17.389 3.64957 17.3423Z" fill="#FEC50C"/>
<path fill-rule="evenodd" clip-rule="evenodd" d="M3.24422 14.8182C3.39624 14.8182 3.58138 14.9067 3.64957 15.0799C3.63245 15.1234 3.6227 15.1722 3.6227 15.2263L3.64956 16.2776C3.59577 16.2446 3.51385 16.1327 3.51382 16.0317C3.51382 15.9571 3.5577 15.9183 3.59887 15.9011C3.42925 15.9181 3.35595 15.851 3.32022 15.727C3.41491 15.759 3.56389 15.7621 3.55905 15.6544C3.55905 15.6544 3.55227 15.3678 3.55001 15.2952C3.51155 15.3497 3.44561 15.3642 3.36182 15.3642C3.24694 15.3642 3.25948 15.4418 3.27859 15.5093C3.21817 15.4877 3.15663 15.4489 3.17907 15.3569C3.12769 15.356 3.09428 15.3298 3.06688 15.2953C3.1017 15.256 3.13943 15.2372 3.17907 15.2318C3.16788 15.1725 3.20858 15.1163 3.27859 15.0848C3.25617 15.1451 3.24933 15.2408 3.36182 15.2408C3.40886 15.2408 3.44144 15.2047 3.44144 15.1447C3.44144 15.05 3.34011 14.9742 3.24059 14.9742C3.15734 14.9742 3.01077 15.0301 3.01077 15.1901C3.01077 15.2537 3.02649 15.3124 3.0524 15.3678C3.17457 15.629 3.56641 16.4599 3.64953 16.6339L3.64957 16.634L3.64961 16.6339C3.73273 16.4599 4.12457 15.629 4.24674 15.3678C4.27265 15.3124 4.28837 15.2537 4.28837 15.1901C4.28837 15.0301 4.1418 14.9742 4.05855 14.9742C3.95903 14.9742 3.8577 15.05 3.8577 15.1447C3.8577 15.2047 3.89028 15.2408 3.93732 15.2408C4.04981 15.2408 4.04297 15.1451 4.02055 15.0848C4.09056 15.1163 4.13126 15.1725 4.12007 15.2318C4.15971 15.2372 4.19744 15.256 4.23225 15.2953C4.20486 15.3298 4.17145 15.356 4.12007 15.3569C4.14251 15.4489 4.08097 15.4877 4.02055 15.5093C4.03966 15.4418 4.0522 15.3642 3.93732 15.3642C3.85353 15.3642 3.78759 15.3497 3.74913 15.2952C3.74687 15.3678 3.74009 15.6544 3.74009 15.6544C3.73525 15.7621 3.88423 15.759 3.97892 15.727C3.94319 15.851 3.86989 15.9181 3.70027 15.9011C3.74144 15.9183 3.78532 15.9571 3.78532 16.0317C3.78529 16.1327 3.70334 16.2446 3.64956 16.2776L3.67643 15.2263C3.67643 15.1722 3.66669 15.1234 3.64957 15.0799C3.71776 14.9067 3.9029 14.8182 4.05492 14.8182C4.31115 14.8182 4.44758 14.9714 4.44758 15.1719C4.44758 15.2856 4.42675 15.3569 4.37434 15.4657C4.37434 15.4657 3.95167 16.3447 3.78711 16.6847C3.76659 16.7271 3.75997 16.7754 3.75997 16.8461C3.75997 16.9554 3.86597 17.0447 3.97711 17.0475C4.07843 17.05 4.18882 16.953 4.18882 16.8425C4.18882 16.7082 4.11918 16.6484 4.04768 16.6484C3.95969 16.6484 3.92463 16.6846 3.92463 16.7463C3.92463 16.7894 3.94542 16.808 3.97531 16.808C4.05077 16.808 4.02958 16.7064 4.02958 16.7064C4.06706 16.7146 4.09786 16.7529 4.08025 16.8008C4.10871 16.8071 4.1344 16.8223 4.15353 16.8443C4.13331 16.8639 4.1101 16.8791 4.08025 16.8842C4.09793 16.9426 4.07431 16.9711 4.02325 16.9831C4.03356 16.9606 4.0339 16.94 4.03049 16.9205C3.95012 16.9433 3.82692 16.907 3.82692 16.7681C3.82692 16.6303 3.9226 16.5142 4.10197 16.5432C4.05931 16.5228 4.0376 16.481 4.03321 16.4344C4.0658 16.4471 4.10197 16.4489 4.10197 16.4489C4.09843 16.4426 4.09465 16.4365 4.09082 16.4303C4.07202 16.3999 4.05208 16.3677 4.05312 16.3074C4.06022 16.3106 4.0672 16.3144 4.07422 16.3183L4.07425 16.3183C4.10011 16.3324 4.12637 16.3467 4.15988 16.3328C4.09298 16.2012 4.17517 16.0201 4.38426 15.9773C4.30773 16.067 4.27027 16.1638 4.27027 16.2602C4.27027 16.4306 4.29609 16.5237 4.31958 16.6084C4.33916 16.679 4.35711 16.7437 4.35711 16.8425C4.35711 16.9322 4.31161 17.029 4.2214 17.0956C4.28054 17.1122 4.31864 17.142 4.34074 17.1821L4.34063 17.1821L4.3407 17.1821C4.29841 17.239 4.2709 17.2557 4.19964 17.2603C4.27898 17.3014 4.35976 17.3909 4.35976 17.53C4.35976 17.6341 4.33897 17.7086 4.31757 17.7852C4.29484 17.8666 4.27141 17.9505 4.27141 18.0751C4.27141 18.2093 4.38148 18.3802 4.38148 18.3802C4.18692 18.3607 4.09049 18.1806 4.14535 18.0366C4.11439 18.0322 4.08628 18.0391 4.06213 18.062C4.04789 18.0221 4.07037 17.9758 4.10047 17.9359C4.08031 17.9251 4.0646 17.9287 4.03768 17.9348C4.03222 17.936 4.0263 17.9373 4.01979 17.9387C4.02346 17.8976 4.04809 17.8539 4.10837 17.8128C3.93346 17.8582 3.82584 17.7363 3.82584 17.6086C3.82584 17.5122 3.89339 17.4432 3.95943 17.4432C3.98076 17.4432 4.01211 17.4519 4.02978 17.4652C4.04226 17.4386 4.03583 17.4031 4.023 17.3766C4.07138 17.3894 4.1021 17.4181 4.08024 17.4779C4.11741 17.4814 4.14698 17.4939 4.16709 17.5178C4.14671 17.5439 4.11579 17.559 4.08024 17.5577C4.1073 17.6136 4.07714 17.6449 4.03319 17.6702C4.03319 17.6702 4.06114 17.5577 3.98976 17.5577C3.95767 17.5577 3.92842 17.5682 3.92842 17.6155C3.92842 17.6567 3.96443 17.7138 4.04767 17.7101C4.1309 17.7065 4.19838 17.6527 4.19838 17.5199C4.19838 17.3973 4.09951 17.3363 3.96923 17.3324C3.85175 17.3288 3.76308 17.3924 3.76308 17.5136C3.76308 17.5966 3.8247 17.7341 3.88454 17.8678C3.94103 17.9939 3.99593 18.1165 3.99593 18.1863C3.99593 18.2941 3.89895 18.3543 3.80406 18.3543C3.74502 18.3543 3.69041 18.3263 3.64957 18.2971C3.60873 18.3263 3.55412 18.3543 3.49508 18.3543C3.40019 18.3543 3.30321 18.2941 3.30321 18.1863C3.30321 18.1165 3.35811 17.9939 3.4146 17.8678C3.47444 17.7341 3.53606 17.5966 3.53606 17.5136C3.53606 17.3924 3.44739 17.3288 3.32991 17.3324C3.19963 17.3363 3.10076 17.3973 3.10076 17.5199C3.10076 17.6527 3.16824 17.7065 3.25147 17.7101C3.33471 17.7138 3.37072 17.6567 3.37072 17.6155C3.37072 17.5682 3.34147 17.5577 3.30938 17.5577C3.238 17.5577 3.26595 17.6702 3.26595 17.6702C3.222 17.6449 3.19183 17.6136 3.2189 17.5577C3.18335 17.559 3.15243 17.5439 3.13205 17.5178C3.15216 17.4939 3.18173 17.4814 3.2189 17.4779C3.19703 17.4181 3.22776 17.3894 3.27614 17.3766C3.26331 17.4031 3.25688 17.4386 3.26936 17.4652C3.28703 17.4519 3.31838 17.4432 3.33971 17.4432C3.40575 17.4432 3.4733 17.5122 3.4733 17.6086C3.4733 17.7363 3.36567 17.8582 3.19077 17.8128C3.25104 17.8539 3.27568 17.8976 3.27935 17.9387C3.27284 17.9373 3.26692 17.936 3.26146 17.9348C3.23454 17.9287 3.21883 17.9251 3.19867 17.9359C3.22877 17.9758 3.25124 18.0221 3.23701 18.062C3.21286 18.0391 3.18475 18.0322 3.15378 18.0366C3.20865 18.1806 3.11222 18.3607 2.91766 18.3802C2.91766 18.3802 3.02773 18.2093 3.02773 18.0751C3.02773 17.9505 3.0043 17.8666 2.98157 17.7852C2.96016 17.7086 2.93938 17.6341 2.93938 17.53C2.93938 17.3909 3.02016 17.3014 3.0995 17.2603C3.02824 17.2557 3.00073 17.239 2.95844 17.1821L2.9585 17.1821L2.9584 17.1821C2.98049 17.142 3.0186 17.1122 3.07774 17.0956C2.98753 17.029 2.94203 16.9322 2.94203 16.8425C2.94203 16.7437 2.95998 16.679 2.97956 16.6084C3.00305 16.5237 3.02887 16.4306 3.02887 16.2602C3.02887 16.1638 2.99141 16.067 2.91488 15.9773C3.12397 16.0201 3.20616 16.2012 3.13926 16.3328C3.17277 16.3467 3.19903 16.3324 3.22489 16.3183L3.22492 16.3183C3.23193 16.3144 3.23892 16.3106 3.24602 16.3074C3.24706 16.3677 3.22712 16.3999 3.20831 16.4303C3.20449 16.4365 3.20071 16.4426 3.19717 16.4489C3.19717 16.4489 3.23334 16.4471 3.26593 16.4344C3.26154 16.481 3.23983 16.5228 3.19717 16.5432C3.37654 16.5142 3.47222 16.6303 3.47222 16.7681C3.47222 16.907 3.34902 16.9433 3.26865 16.9205C3.26524 16.94 3.26558 16.9606 3.27589 16.9831C3.22483 16.9711 3.20121 16.9426 3.21889 16.8842C3.18904 16.8791 3.16583 16.8639 3.14561 16.8443C3.16474 16.8223 3.19043 16.8071 3.21889 16.8008C3.20128 16.7529 3.23208 16.7146 3.26956 16.7064C3.26956 16.7064 3.24837 16.808 3.32383 16.808C3.35372 16.808 3.37451 16.7894 3.37451 16.7463C3.37451 16.6846 3.33945 16.6484 3.25146 16.6484C3.17996 16.6484 3.11032 16.7082 3.11032 16.8425C3.11032 16.953 3.22071 17.05 3.32203 17.0475C3.43317 17.0447 3.53917 16.9554 3.53917 16.8461C3.53917 16.7754 3.53255 16.7271 3.51202 16.6847C3.34747 16.3447 2.9248 15.4657 2.9248 15.4657C2.87239 15.3569 2.85156 15.2856 2.85156 15.1719C2.85156 14.9714 2.98799 14.8182 3.24422 14.8182ZM3.38903 17.1857C3.50212 17.2117 3.59724 17.2542 3.64957 17.3423C3.62184 17.389 3.60613 17.4485 3.60613 17.5251C3.60613 17.5631 3.62395 17.6187 3.64957 17.682C3.62979 17.7308 3.60536 17.7843 3.58088 17.8378C3.51037 17.9921 3.43949 18.1471 3.47835 18.1954C3.5208 18.248 3.64398 18.1465 3.64939 18.142L3.64948 18.1419L3.64957 18.1418L3.64966 18.1419L3.64975 18.142C3.65516 18.1465 3.77834 18.248 3.82079 18.1954C3.85965 18.1471 3.78877 17.9921 3.71826 17.8378C3.69378 17.7843 3.66935 17.7308 3.64957 17.682C3.67519 17.6187 3.69301 17.5631 3.69301 17.5251C3.69301 17.4485 3.6773 17.389 3.64957 17.3423C3.70189 17.2542 3.79702 17.2117 3.91011 17.1857C3.90255 17.1833 3.89533 17.1808 3.88847 17.1781C3.763 17.1636 3.67541 17.0673 3.64961 17.0184L3.64957 17.0184L3.64953 17.0184C3.62373 17.0673 3.53614 17.1636 3.41067 17.1781C3.40381 17.1808 3.39658 17.1833 3.38903 17.1857ZM3.38903 17.1857C3.36696 17.1806 3.34422 17.1762 3.32097 17.1721C3.18442 17.1485 2.96293 17.1815 2.9585 17.1821C3.08956 17.2193 3.27627 17.221 3.38903 17.1857Z" fill="#FEC50C"/>
<path d="M3.38903 17.1857C3.36696 17.1806 3.34422 17.1762 3.32097 17.1721C3.18442 17.1485 2.96293 17.1815 2.9585 17.1821C3.08956 17.2193 3.27627 17.221 3.38903 17.1857Z" fill="#FEC50C"/>
<path d="M12.0369 13.1873C13.0252 13.1873 13.8263 12.3861 13.8263 11.3978C13.8263 10.4095 13.0252 9.60831 12.0369 9.60831C11.0486 9.60831 10.2474 10.4095 10.2474 11.3978C10.2474 12.3861 11.0486 13.1873 12.0369 13.1873Z" fill="#FEC50C"/>
<path d="M12.0369 9.36426C12.1433 9.36293 12.1832 9.29643 12.1832 9.21663C12.1832 9.11023 12.0369 8.60352 12.0369 8.60352C12.0369 8.60352 11.8906 9.11023 11.8906 9.21663C11.8906 9.29643 11.9305 9.36426 12.0369 9.36426Z" fill="#FEC50C"/>
<path d="M14.0704 11.3978C14.0717 11.5042 14.1382 11.5441 14.218 11.5441C14.3244 11.5441 14.8311 11.3978 14.8311 11.3978C14.8311 11.3978 14.3244 11.2515 14.218 11.2515C14.1382 11.2515 14.0704 11.2914 14.0704 11.3978Z" fill="#FEC50C"/>
<path d="M12.0369 13.4313C11.9305 13.4326 11.8906 13.4991 11.8906 13.5789C11.8906 13.6853 12.0369 14.192 12.0369 14.192C12.0369 14.192 12.1832 13.6853 12.1832 13.5789C12.1832 13.4991 12.1433 13.4313 12.0369 13.4313Z" fill="#FEC50C"/>
<path d="M10.0033 11.3978C10.002 11.2914 9.93552 11.2515 9.85572 11.2515C9.74933 11.2515 9.24261 11.3978 9.24261 11.3978C9.24261 11.3978 9.74933 11.5441 9.85572 11.5441C9.93552 11.5441 10.0033 11.5042 10.0033 11.3978Z" fill="#FEC50C"/>
<path d="M12.8151 9.51905C12.9139 9.55854 12.9762 9.51237 13.0067 9.43865C13.0474 9.34035 13.1062 8.81622 13.1062 8.81622C13.1062 8.81622 12.7771 9.22838 12.7364 9.32668C12.7059 9.4004 12.7168 9.47833 12.8151 9.51905Z" fill="#FEC50C"/>
<path d="M13.9156 12.176C13.8761 12.2748 13.9223 12.3371 13.996 12.3676C14.0943 12.4083 14.6184 12.4671 14.6184 12.4671C14.6184 12.4671 14.2063 12.138 14.108 12.0973C14.0342 12.0668 13.9563 12.0777 13.9156 12.176Z" fill="#FEC50C"/>
<path d="M11.2587 13.2765C11.1599 13.237 11.0976 13.2832 11.067 13.3569C11.0263 13.4552 10.9676 13.9793 10.9676 13.9793C10.9676 13.9793 11.2966 13.5672 11.3373 13.4689C11.3679 13.3952 11.357 13.3172 11.2587 13.2765Z" fill="#FEC50C"/>
<path d="M10.1581 10.6196C10.1976 10.5208 10.1515 10.4585 10.0777 10.4279C9.97944 10.3872 9.45531 10.3285 9.45531 10.3285C9.45531 10.3285 9.86747 10.6575 9.96577 10.6983C10.0395 10.7288 10.1174 10.7179 10.1581 10.6196Z" fill="#FEC50C"/>
<path d="M13.4748 9.95986C13.551 10.0342 13.6262 10.0153 13.6826 9.95892C13.7579 9.88369 14.0127 9.42194 14.0127 9.42194C14.0127 9.42194 13.551 9.67679 13.4757 9.75203C13.4193 9.80845 13.3996 9.88463 13.4748 9.95986Z" fill="#FEC50C"/>
<path d="M13.4748 12.8357C13.4005 12.9119 13.4193 12.9871 13.4757 13.0435C13.551 13.1188 14.0127 13.3736 14.0127 13.3736C14.0127 13.3736 13.7579 12.9119 13.6826 12.8366C13.6262 12.7802 13.55 12.7605 13.4748 12.8357Z" fill="#FEC50C"/>
<path d="M10.599 12.8357C10.5228 12.7614 10.4475 12.7802 10.3911 12.8366C10.3159 12.9119 10.061 13.3736 10.061 13.3736C10.061 13.3736 10.5228 13.1188 10.598 13.0435C10.6544 12.9871 10.6742 12.9109 10.599 12.8357Z" fill="#FEC50C"/>
<path d="M10.599 9.95986C10.6732 9.88369 10.6544 9.80845 10.598 9.75203C10.5228 9.67679 10.061 9.42194 10.061 9.42194C10.061 9.42194 10.3159 9.88369 10.3911 9.95892C10.4475 10.0153 10.5237 10.0351 10.599 9.95986Z" fill="#FEC50C"/>
<path d="M13.9156 10.6196C13.9575 10.7174 14.0342 10.7288 14.108 10.6983C14.2063 10.6575 14.6184 10.3285 14.6184 10.3285C14.6184 10.3285 14.0943 10.3872 13.996 10.4279C13.9223 10.4585 13.8749 10.5213 13.9156 10.6196Z" fill="#FEC50C"/>
<path d="M12.8151 13.2765C12.7173 13.3185 12.7059 13.3952 12.7364 13.4689C12.7771 13.5672 13.1062 13.9793 13.1062 13.9793C13.1062 13.9793 13.0474 13.4552 13.0067 13.3569C12.9762 13.2832 12.9134 13.2358 12.8151 13.2765Z" fill="#FEC50C"/>
<path d="M10.1581 12.176C10.1162 12.0782 10.0395 12.0668 9.96577 12.0973C9.86747 12.138 9.45531 12.4671 9.45531 12.4671C9.45531 12.4671 9.97944 12.4083 10.0777 12.3676C10.1515 12.3371 10.1989 12.2743 10.1581 12.176Z" fill="#FEC50C"/>
<path d="M11.2587 9.51905C11.3565 9.4771 11.3679 9.4004 11.3373 9.32668C11.2966 9.22838 10.9676 8.81622 10.9676 8.81622C10.9676 8.81622 11.0263 9.34035 11.067 9.43865C11.0976 9.51237 11.1604 9.55977 11.2587 9.51905Z" fill="#FEC50C"/>
<path d="M12.4336 9.40333C12.5382 9.42278 12.5903 9.36535 12.6059 9.28708C12.6266 9.18273 12.582 8.65721 12.582 8.65721C12.582 8.65721 12.3397 9.12565 12.3189 9.23C12.3033 9.30826 12.3292 9.38257 12.4336 9.40333Z" fill="#FEC50C"/>
<path d="M14.0313 11.7945C14.0119 11.8991 14.0693 11.9512 14.1476 11.9668C14.2519 11.9875 14.7774 11.9429 14.7774 11.9429C14.7774 11.9429 14.309 11.7006 14.2046 11.6798C14.1264 11.6642 14.0521 11.6901 14.0313 11.7945Z" fill="#FEC50C"/>
<path d="M11.6401 13.3922C11.5355 13.3728 11.4834 13.4302 11.4679 13.5085C11.4471 13.6128 11.4917 14.1383 11.4917 14.1383C11.4917 14.1383 11.7341 13.6699 11.7548 13.5656C11.7704 13.4873 11.7445 13.413 11.6401 13.3922Z" fill="#FEC50C"/>
<path d="M10.0424 11.0011C10.0619 10.8964 10.0044 10.8443 9.92617 10.8288C9.82182 10.808 9.2963 10.8526 9.2963 10.8526C9.2963 10.8526 9.76474 11.095 9.86909 11.1157C9.94736 11.1313 10.0217 11.1054 10.0424 11.0011Z" fill="#FEC50C"/>
<path d="M13.1666 9.70697C13.2558 9.76497 13.326 9.73185 13.3703 9.6655C13.4294 9.57703 13.5893 9.07443 13.5893 9.07443C13.5893 9.07443 13.1861 9.41448 13.127 9.50294C13.0827 9.56929 13.0782 9.64786 13.1666 9.70697Z" fill="#FEC50C"/>
<path d="M13.7277 12.5275C13.6697 12.6167 13.7028 12.6869 13.7691 12.7312C13.8576 12.7903 14.3602 12.9502 14.3602 12.9502C14.3602 12.9502 14.0202 12.547 13.9317 12.4879C13.8654 12.4436 13.7868 12.4391 13.7277 12.5275Z" fill="#FEC50C"/>
<path d="M10.9071 13.0886C10.8179 13.0306 10.7478 13.0637 10.7034 13.1301C10.6443 13.2185 10.4845 13.7211 10.4845 13.7211C10.4845 13.7211 10.8876 13.3811 10.9467 13.2926C10.9911 13.2263 10.9956 13.1477 10.9071 13.0886Z" fill="#FEC50C"/>
<path d="M10.3461 10.268C10.4041 10.1788 10.3709 10.1087 10.3046 10.0644C10.2161 10.0052 9.71353 9.84537 9.71353 9.84537C9.71353 9.84537 10.0536 10.2485 10.142 10.3076C10.2084 10.352 10.2869 10.3565 10.3461 10.268Z" fill="#FEC50C"/>
<path d="M13.7277 10.268C13.7879 10.3557 13.8654 10.352 13.9317 10.3076C14.0202 10.2485 14.3602 9.84537 14.3602 9.84537C14.3602 9.84537 13.8576 10.0052 13.7691 10.0644C13.7028 10.1087 13.6686 10.1795 13.7277 10.268Z" fill="#FEC50C"/>
<path d="M13.1666 13.0886C13.0789 13.1488 13.0827 13.2263 13.127 13.2926C13.1861 13.3811 13.5893 13.7211 13.5893 13.7211C13.5893 13.7211 13.4294 13.2185 13.3703 13.1301C13.326 13.0637 13.2551 13.0295 13.1666 13.0886Z" fill="#FEC50C"/>
<path d="M10.3461 12.5275C10.2858 12.4398 10.2084 12.4436 10.142 12.4879C10.0536 12.547 9.71353 12.9502 9.71353 12.9502C9.71353 12.9502 10.2161 12.7903 10.3046 12.7312C10.3709 12.6869 10.4052 12.616 10.3461 12.5275Z" fill="#FEC50C"/>
<path d="M10.9071 9.70697C10.9948 9.64675 10.9911 9.56929 10.9467 9.50294C10.8876 9.41448 10.4845 9.07443 10.4845 9.07443C10.4845 9.07443 10.6443 9.57703 10.7034 9.6655C10.7478 9.73185 10.8186 9.76608 10.9071 9.70697Z" fill="#FEC50C"/>
<path d="M14.0313 11.0011C14.0534 11.1052 14.1264 11.1313 14.2046 11.1157C14.309 11.095 14.7774 10.8526 14.7774 10.8526C14.7774 10.8526 14.2519 10.808 14.1476 10.8288C14.0693 10.8443 14.0106 10.8967 14.0313 11.0011Z" fill="#FEC50C"/>
<path d="M12.4336 13.3922C12.3295 13.4143 12.3033 13.4873 12.3189 13.5656C12.3397 13.6699 12.582 14.1384 12.582 14.1384C12.582 14.1384 12.6266 13.6128 12.6059 13.5085C12.5903 13.4302 12.5379 13.3715 12.4336 13.3922Z" fill="#FEC50C"/>
<path d="M10.0424 11.7945C10.0204 11.6904 9.94736 11.6642 9.86909 11.6798C9.76474 11.7006 9.2963 11.9429 9.2963 11.9429C9.2963 11.9429 9.82182 11.9875 9.92617 11.9668C10.0044 11.9512 10.0632 11.8989 10.0424 11.7945Z" fill="#FEC50C"/>
<path d="M11.6401 9.40333C11.7442 9.38127 11.7704 9.30826 11.7548 9.23C11.7341 9.12565 11.4917 8.65721 11.4917 8.65721C11.4917 8.65721 11.4471 9.18273 11.4679 9.28708C11.4834 9.36535 11.5358 9.42409 11.6401 9.40333Z" fill="#FEC50C"/>
<path d="M11.7176 15.2742C11.6697 15.2769 11.6232 15.2831 11.5775 15.2977C11.515 15.3061 11.4551 15.3278 11.3931 15.338L11.3682 15.342L11.3266 15.346C11.3292 15.3575 11.331 15.3691 11.331 15.3806C11.331 15.3926 11.3297 15.4041 11.3266 15.4138C11.3239 15.4232 11.3155 15.4347 11.3088 15.4418C11.3 15.4515 11.2907 15.4599 11.2796 15.4653C11.2689 15.4706 11.257 15.4728 11.245 15.4737C11.233 15.4741 11.2206 15.4737 11.2091 15.4693C11.1971 15.4653 11.186 15.4577 11.1758 15.4489C11.1634 15.452 11.1506 15.4542 11.1386 15.4555C11.1262 15.4568 11.1147 15.4568 11.1036 15.4555C11.0912 15.452 11.0783 15.448 11.0663 15.4431C11.0543 15.4381 11.0427 15.432 11.0318 15.4249C10.9865 15.4515 10.936 15.4768 10.9085 15.5233C10.893 15.5446 10.8899 15.569 10.8864 15.5943C10.8841 15.6253 10.8921 15.6581 10.9054 15.6869C10.9103 15.6953 10.9143 15.6563 10.9294 15.651C10.9546 15.6302 10.9861 15.6151 11.018 15.6067C11.0451 15.5929 11.0415 15.6076 11.0304 15.6288C11.0278 15.6399 11.0127 15.682 11.0331 15.6608C11.1231 15.6209 11.2228 15.6129 11.3199 15.6054C11.4609 15.5907 11.6023 15.5876 11.7437 15.5858C11.8767 15.5876 12.0097 15.5894 12.1427 15.5943C12.2061 15.596 12.27 15.6102 12.3325 15.5996C12.3475 15.5956 12.371 15.5947 12.3799 15.5858C12.3515 15.5695 12.3183 15.569 12.2868 15.565H12.0332C11.9627 15.5579 11.8892 15.557 11.8227 15.5304C11.8049 15.5233 11.7885 15.5065 11.7717 15.5247C11.7464 15.5335 11.7194 15.5397 11.6928 15.5415C11.6462 15.5451 11.5997 15.5353 11.5567 15.518C11.5877 15.475 11.6249 15.4373 11.6591 15.3974C11.6316 15.393 11.605 15.3872 11.5775 15.3806C11.6258 15.3473 11.6706 15.3097 11.7176 15.2742Z" fill="#FEC50C"/>
<path d="M13.7888 15.7336C13.6924 15.7915 13.6189 15.6889 13.5383 15.6581C13.4808 15.6894 13.4754 15.7939 13.4217 15.8434C13.3574 15.9166 13.2786 15.823 13.2845 15.7508C13.2076 15.8156 13.1687 15.9625 13.0443 15.9429C12.9854 15.8948 12.9416 15.7939 12.8966 15.9088C12.8599 15.9649 12.7621 16.0448 12.7115 15.96C12.6959 15.8852 12.6583 15.7971 12.6176 15.9161C12.5896 16.0002 12.4999 16.0621 12.4131 16.0252C12.3655 15.9864 12.4512 15.8427 12.3907 15.8529C12.3002 15.9127 12.2476 16.0611 12.1214 16.0492C12.0724 15.9942 12.1512 15.901 12.0974 15.84C12.034 15.9214 11.9636 16.0407 11.8538 16.0492C11.8008 16.0063 11.8559 15.883 11.8221 15.8647C11.7094 15.9323 11.5906 16.0526 11.449 16.0149C11.5042 15.8038 11.7348 15.7298 11.9288 15.7133C12.2624 15.6723 12.6135 15.7477 12.9345 15.6273C12.9864 15.5957 13.1121 15.5509 13.0673 15.4777C13.0277 15.4199 13.1704 15.4425 13.1842 15.375C13.1757 15.2895 13.2497 15.3013 13.322 15.2938C13.6462 15.2798 13.9664 15.3481 14.2897 15.3597C14.3141 15.5172 14.1394 15.6277 13.9987 15.5791C13.9315 15.59 13.8308 15.4246 13.8505 15.5449C13.837 15.6081 13.8465 15.6915 13.7888 15.7336V15.7336ZM11.0304 15.4111C11.1055 15.4798 11.1581 15.3982 11.2283 15.3684C11.4636 15.2874 11.6689 15.146 11.8713 15.0047C11.9939 14.9032 12.1002 14.7716 12.2649 14.7387C12.5861 14.6416 12.9276 14.6534 13.2501 14.5637C13.4957 14.2275 13.9128 14.1076 14.2622 13.9143C14.3406 13.8899 14.371 13.8254 14.396 13.7541C14.5294 13.5435 14.7111 13.357 14.9259 13.2295C15.0276 13.174 15.1489 13.142 15.264 13.1674C15.2557 13.3045 15.1771 13.426 15.0822 13.5208C15.1599 13.5191 15.2266 13.47 15.3051 13.4728C15.3321 13.6134 15.1801 13.6871 15.0993 13.7747C15.1443 13.7851 15.3168 13.7982 15.2228 13.8433C15.103 13.9264 14.9663 13.9835 14.8557 14.08C14.9577 14.0983 14.9693 14.12 14.8656 14.1569C14.8095 14.195 14.7015 14.2083 14.691 14.2824C14.7681 14.3298 14.6555 14.3768 14.6121 14.3922C14.5291 14.4115 14.4419 14.4476 14.5522 14.5106C14.5105 14.5737 14.421 14.5871 14.348 14.5809C14.3701 14.6523 14.4022 14.7322 14.3095 14.7637C14.1017 14.9208 13.8578 15.0351 13.5966 15.0612C13.9229 15.0863 14.259 15.0257 14.5379 14.8482C14.5747 14.8047 14.7677 14.7579 14.6598 14.7213C14.6089 14.7002 14.4999 14.6767 14.4926 14.6379C14.6436 14.5448 14.8339 14.5779 14.9964 14.5226C15.0006 14.47 14.8728 14.4846 14.8251 14.4726C14.7115 14.4633 14.7182 14.4343 14.8277 14.4236C14.9664 14.3869 15.1233 14.3796 15.2399 14.2893C15.145 14.2453 15.0256 14.284 14.9243 14.2481C15.096 14.1729 15.2986 14.1654 15.4527 14.0525C15.5228 13.9745 15.3628 13.9989 15.3161 14.0008C15.221 14.0173 15.177 13.9718 15.2851 13.9323C15.4696 13.7963 15.7031 13.7079 15.8327 13.5107C15.8634 13.4666 15.905 13.3336 15.8071 13.3814C15.6783 13.4242 15.5651 13.569 15.4184 13.5242C15.7074 13.3002 15.9824 13.0451 16.18 12.7351C16.1902 12.6457 16.0498 12.636 16.0133 12.7062C15.8276 12.8852 15.6595 13.0964 15.4218 13.2086C15.6495 12.9888 15.8377 12.7285 16.002 12.4588C16.0372 12.3786 16.1319 12.2821 16.0805 12.1931C15.9977 12.1245 15.8941 12.1873 15.8511 12.2693C15.7067 12.4577 15.5971 12.6777 15.4115 12.8312C15.574 12.521 15.7423 12.1908 15.7464 11.8331C15.7459 11.7594 15.7311 11.651 15.6311 11.6647C15.5518 11.6789 15.5706 11.7976 15.5379 11.8576C15.466 12.102 15.4322 12.3667 15.2846 12.5807C15.3178 12.3821 15.3759 12.1751 15.3313 11.9745C15.3104 11.8849 15.1657 11.9235 15.1843 12.0122C15.0114 12.8881 14.4237 13.6541 13.655 14.0973C13.303 14.2964 12.9099 14.4248 12.51 14.483C12.4024 14.5066 12.286 14.4927 12.1832 14.5294C11.934 14.7205 11.7831 15.0402 11.4676 15.1403C11.3262 15.2106 11.1418 15.2249 11.0407 15.3562C11.032 15.373 11.0301 15.3925 11.0304 15.4111" fill="#FEC50C"/>
<path d="M11.9748 14.5225C11.9282 14.607 11.9008 14.7042 11.8409 14.7798C11.6608 14.616 11.3998 14.6214 11.1713 14.6105C10.9828 14.6004 10.7777 14.583 10.6318 14.4486C10.4784 14.3228 10.3531 14.1596 10.1816 14.0576C10.0251 14.0151 9.86731 13.9618 9.74147 13.8545C9.47255 13.6353 9.31854 13.3101 9.05576 13.084C9.00566 13.0347 8.94659 12.9965 8.89046 12.9547C8.83713 12.9677 8.86127 13.0828 8.79601 13.0241C8.7605 12.9988 8.67168 12.9964 8.66368 13.0317C8.74402 13.1375 8.82444 13.2584 8.83557 13.3938C8.78078 13.3994 8.68336 13.3823 8.6562 13.4027C8.72896 13.5117 8.82224 13.6084 8.92821 13.6854C8.87738 13.6936 8.77722 13.6892 8.75773 13.7096C8.86292 13.7954 8.97571 13.883 9.11346 13.905C9.14165 13.9422 9.07223 14.0139 9.13061 14.0457C9.16446 14.0595 9.27617 14.0827 9.19923 14.1212C9.14643 14.1567 9.16602 14.2397 9.23354 14.2378C9.27623 14.2596 9.37208 14.2649 9.37959 14.3027C9.34175 14.3412 9.224 14.3869 9.32422 14.4229C9.41783 14.4748 9.5246 14.5086 9.63151 14.5123C9.57786 14.5574 9.51176 14.583 9.45654 14.6255C9.70325 14.7701 9.97673 14.8653 10.247 14.9569C10.3546 14.9928 10.4634 15.0264 10.5749 15.0475C10.2509 15.0288 9.93761 14.9328 9.64244 14.8015C9.48945 14.7344 9.33543 14.6696 9.17864 14.6118C9.24739 14.576 9.3269 14.5673 9.3982 14.5363C9.25021 14.5066 9.08852 14.4969 8.95842 14.4156C8.97837 14.38 9.05395 14.3783 9.09576 14.3602C9.17437 14.3414 9.22314 14.3185 9.11229 14.3117C9.0005 14.2813 8.87229 14.295 8.77378 14.2275C8.78013 14.1871 8.88323 14.2012 8.92521 14.1837C8.97809 14.1746 9.03688 14.167 9.07913 14.1314C8.90632 14.0598 8.68027 14.1106 8.54491 13.958C8.5137 13.8998 8.64185 13.9466 8.67835 13.937C8.77108 13.937 8.87075 13.9664 8.95906 13.929C8.70725 13.8185 8.43752 13.715 8.24547 13.5105C8.22415 13.4776 8.16026 13.3878 8.21181 13.3767C8.36128 13.3965 8.46947 13.5596 8.62936 13.5342C8.6506 13.5056 8.53648 13.4587 8.50799 13.4177C8.27487 13.2177 8.04862 13.0006 7.88523 12.7386C7.874 12.6511 8.01154 12.638 8.04776 12.7055C8.22604 12.8772 8.38708 13.0776 8.60913 13.1948C8.68792 13.2331 8.56389 13.1496 8.54737 13.1194C8.3422 12.8811 8.14688 12.6295 8.00348 12.3489C7.97781 12.2983 7.93528 12.2068 8.01207 12.1799C8.08885 12.1414 8.16503 12.1938 8.20396 12.2597C8.3548 12.45 8.4658 12.6761 8.65372 12.8346C8.49363 12.524 8.3227 12.1969 8.31856 11.8394C8.32233 11.7701 8.32678 11.6653 8.42076 11.6682C8.49966 11.6562 8.4872 11.7572 8.51306 11.8054C8.59081 12.068 8.62471 12.3523 8.78067 12.5842C8.74623 12.3893 8.69552 12.1887 8.7292 11.9906C8.73697 11.9256 8.81019 11.9059 8.85797 11.9452C8.89661 12.0398 8.90465 12.1566 8.93986 12.2577C9.14015 12.9429 9.58988 13.5455 10.1759 13.9499C10.6586 14.281 11.2314 14.4786 11.8161 14.513C11.8689 14.5176 11.9219 14.5192 11.9748 14.5225" fill="#FEC50C"/>
<path d="M11.21 15.3944C11.21 15.3834 11.219 15.3745 11.23 15.3745C11.241 15.3745 11.2499 15.3834 11.2499 15.3944C11.2499 15.4054 11.241 15.4144 11.23 15.4144C11.219 15.4144 11.21 15.4054 11.21 15.3944Z" fill="#FEC50C"/>
</g>
<defs>
<clipPath id="clip0_1692_54118">
<rect x="2.04883" y="5.81006" width="19.9504" height="13.2997" rx="1" fill="white"/>
</clipPath>
</defs>
</svg>
