<svg width="25" height="25" viewBox="0 0 25 25" fill="none" xmlns="http://www.w3.org/2000/svg">
<g clip-path="url(#clip0_1692_54088)">
<path d="M21.9964 5.81006H2.04688V19.1097H21.9964V5.81006Z" fill="white"/>
<path d="M21.9964 5.81006H2.04688V9.79996H21.9964V5.81006Z" fill="black"/>
<path d="M21.9964 10.4648H2.04688V14.4547H21.9964V10.4648Z" fill="#BB0000"/>
<path d="M21.9964 15.1191H2.04688V19.109H21.9964V15.1191Z" fill="#006600"/>
<path d="M9.6458 16.4074L9.78977 16.4906L13.6727 9.76516C13.8998 9.70431 14.0245 9.48835 14.1491 9.27239C14.2323 9.12841 14.5648 8.55252 14.7089 7.8042C14.1328 8.30315 13.8003 8.87904 13.7172 9.02302C13.5925 9.23898 13.4679 9.45494 13.5287 9.68203L9.6458 16.4074Z" fill="black"/>
<path d="M9.6458 16.4074L9.78977 16.4906L13.6727 9.76516C13.8998 9.70431 14.0245 9.48835 14.1491 9.27239C14.2323 9.12841 14.5648 8.55252 14.7089 7.8042C14.1328 8.30315 13.8003 8.87904 13.7172 9.02302C13.5925 9.23898 13.4679 9.45494 13.5287 9.68203L9.6458 16.4074Z" fill="white"/>
<path d="M14.3969 16.4074L14.2529 16.4906L10.37 9.76516C10.1429 9.70431 10.0183 9.48835 9.89357 9.27239C9.81045 9.12841 9.47796 8.55252 9.33386 7.8042C9.90988 8.30315 10.2424 8.87904 10.3255 9.02302C10.4502 9.23898 10.5749 9.45494 10.514 9.68203L14.3969 16.4074Z" fill="black"/>
<path d="M14.3969 16.4074L14.2529 16.4906L10.37 9.76516C10.1429 9.70431 10.0183 9.48835 9.89357 9.27239C9.81045 9.12841 9.47796 8.55252 9.33386 7.8042C9.90988 8.30315 10.2424 8.87904 10.3255 9.02302C10.4502 9.23898 10.5749 9.45494 10.514 9.68203L14.3969 16.4074Z" fill="white"/>
<path d="M10.4415 14.4546C10.6908 15.1196 11.5221 16.4495 12.0208 16.4495C12.5195 16.4495 13.3508 15.1196 13.6001 14.4546V10.4647C13.3508 9.79969 12.5195 8.46973 12.0208 8.46973C11.5221 8.46973 10.6908 9.79969 10.4415 10.4647V14.4546Z" fill="#BB0000"/>
<path d="M13.608 14.4553C13.8574 13.7902 14.0237 13.1252 14.0237 12.4601C14.0237 11.795 13.8574 11.1299 13.608 10.4648C13.3586 11.1299 13.1923 11.795 13.1923 12.4601C13.1923 13.1252 13.3586 13.7902 13.608 14.4553Z" fill="black"/>
<path d="M10.4489 14.4553C10.1995 13.7902 10.0332 13.1252 10.0332 12.4601C10.0332 11.795 10.1995 11.1299 10.4489 10.4648C10.6983 11.1299 10.8646 11.795 10.8646 12.4601C10.8646 13.1252 10.6983 13.7902 10.4489 14.4553Z" fill="black"/>
<path d="M12.0211 12.9581C12.2047 12.9581 12.3536 12.7348 12.3536 12.4594C12.3536 12.1839 12.2047 11.9606 12.0211 11.9606C11.8375 11.9606 11.6886 12.1839 11.6886 12.4594C11.6886 12.7348 11.8375 12.9581 12.0211 12.9581Z" fill="white"/>
<path d="M12.1042 12.9456C12.1042 12.9456 12.4367 13.6106 12.4367 14.6912C12.4367 15.7718 12.1042 16.4368 12.1042 16.4368V12.9456Z" fill="white"/>
<path d="M11.938 11.9731C11.938 11.9731 11.6055 11.3081 11.6055 10.2275C11.6055 9.14692 11.938 8.48193 11.938 8.48193V11.9731Z" fill="white"/>
<path d="M11.938 12.9456C11.938 12.9456 11.6055 13.6106 11.6055 14.6912C11.6055 15.7718 11.938 16.4368 11.938 16.4368V12.9456Z" fill="white"/>
<path d="M12.1042 11.9731C12.1042 11.9731 12.4367 11.3081 12.4367 10.2275C12.4367 9.14692 12.1042 8.48193 12.1042 8.48193V11.9731Z" fill="white"/>
</g>
<defs>
<clipPath id="clip0_1692_54088">
<rect x="2.04688" y="5.81006" width="19.9495" height="13.2997" rx="1" fill="white"/>
</clipPath>
</defs>
</svg>
