<svg width="25" height="25" viewBox="0 0 25 25" fill="none" xmlns="http://www.w3.org/2000/svg">
<g clip-path="url(#clip0_1692_54074)">
<path d="M22.1068 6.95996H1.94141V12.9179H22.1068V6.95996Z" fill="#C81010"/>
<path d="M12.2201 7.87896C11.5788 7.61375 11.1862 7.56501 10.7475 7.56064C10.1122 7.56501 9.80903 7.83795 9.20331 7.86316C9.44331 8.12165 10.3132 8.18485 10.68 7.84535C11.2252 7.90216 11.3489 8.04938 11.4951 8.23258C11.2675 8.19661 11.0053 8.13107 10.7879 8.37174C10.6043 8.40872 10.5193 8.37174 10.2053 8.37174C10.0588 8.37174 10.008 8.44367 10.01 8.57342C10.1048 8.44233 10.76 8.51964 10.9206 8.57342C11.044 8.61477 11.1751 8.78586 11.3314 8.81376C11.7412 8.8867 12.3291 8.67258 12.8712 8.5267L14.0437 8.37174H13.2393L14.2454 8.17006C13.7771 8.17006 13.4686 8.17006 13.1516 8.17006C13.1284 8.1435 13.0729 8.10922 13.0286 8.07997C13.3099 7.89879 13.5587 7.56938 13.6222 7.41039C14.1294 7.40534 14.4568 7.35828 14.8504 7.26618C12.2561 6.97912 12.8467 7.2887 12.2201 7.87896Z" fill="#F8D000"/>
<path fill-rule="evenodd" clip-rule="evenodd" d="M13.4338 7.15001C13.7534 7.15213 14.2032 7.18664 14.8517 7.2584L14.8965 7.26335L14.8527 7.27361C14.4599 7.36551 14.1329 7.41263 13.628 7.41794C13.5947 7.49856 13.5171 7.619 13.4136 7.74168C13.3105 7.86399 13.1812 7.98913 13.0434 8.07978C13.0465 8.0818 13.0496 8.08383 13.0528 8.08588C13.0695 8.09681 13.087 8.10824 13.1031 8.11946C13.1241 8.13404 13.1433 8.14873 13.1557 8.1621H14.3238L13.3179 8.36376H14.1618L12.8735 8.53402C12.7713 8.56152 12.6673 8.59151 12.5631 8.62155C12.3916 8.67097 12.2196 8.72056 12.0543 8.75951C11.7882 8.82218 11.5375 8.85781 11.331 8.82105C11.2508 8.80674 11.1776 8.75584 11.11 8.70449C11.1007 8.69746 11.0916 8.69042 11.0825 8.68346C11.0583 8.66481 11.0347 8.64669 11.0115 8.63055C10.9796 8.60841 10.949 8.59046 10.9192 8.58047C10.8399 8.55391 10.6368 8.52119 10.4413 8.51154C10.3437 8.50672 10.2485 8.50769 10.1719 8.51794C10.1336 8.52307 10.1002 8.53049 10.0737 8.54053C10.047 8.55062 10.028 8.56305 10.0175 8.57767L10.0038 8.59652L10.0035 8.57326C10.0024 8.50761 10.0147 8.45482 10.0474 8.41849C10.0802 8.38202 10.1321 8.36376 10.2065 8.36376C10.3298 8.36376 10.4179 8.36945 10.4904 8.37414C10.5103 8.37543 10.5291 8.37664 10.547 8.37763C10.6293 8.38219 10.6953 8.38221 10.7849 8.36441C10.9889 8.14042 11.232 8.1808 11.4461 8.21635C11.4566 8.2181 11.4671 8.21984 11.4775 8.22153C11.4091 8.13632 11.3436 8.0603 11.2343 7.99808C11.1188 7.93231 10.9537 7.88163 10.6837 7.85322C10.4979 8.02319 10.1879 8.09168 9.89513 8.08602C9.74787 8.08317 9.60447 8.06156 9.48268 8.02436C9.36106 7.98721 9.26022 7.93428 9.19891 7.86824L9.1875 7.85595L9.20425 7.85526C9.49329 7.84323 9.71312 7.7746 9.9342 7.70559C9.94385 7.70257 9.95351 7.69956 9.96318 7.69655C10.1942 7.62458 10.4297 7.55496 10.7485 7.55277L10.7486 7.55277C11.1871 7.55714 11.5798 7.60582 12.2193 7.86972C12.356 7.74024 12.4339 7.62452 12.5007 7.52529C12.509 7.51306 12.517 7.50108 12.525 7.48935C12.5985 7.38158 12.6655 7.295 12.7949 7.23644C12.924 7.17809 13.1143 7.14788 13.4338 7.15001ZM12.5136 7.53392C12.4461 7.63408 12.3665 7.7523 12.2263 7.8844L12.2226 7.88783L12.218 7.88592C11.5778 7.62116 11.1862 7.57259 10.7486 7.56823C10.4322 7.57042 10.1985 7.63943 9.96778 7.71131C9.95801 7.71435 9.94824 7.7174 9.93848 7.72045C9.72193 7.78805 9.50481 7.85584 9.22219 7.86991C9.28174 7.9276 9.37462 7.97519 9.4872 8.00957C9.60744 8.0463 9.7494 8.06774 9.89543 8.07056C10.1879 8.07622 10.4946 8.00723 10.6758 7.8395L10.6783 7.83712L10.6818 7.83748C10.9549 7.86594 11.1233 7.91711 11.242 7.98465C11.3607 8.05225 11.429 8.13591 11.5021 8.22752L11.5145 8.24309L11.4948 8.23998C11.4781 8.23733 11.4611 8.23453 11.4441 8.2317C11.2286 8.19604 10.9931 8.15706 10.7946 8.37667L10.7929 8.37856L10.7904 8.37906C10.6978 8.39773 10.6299 8.39771 10.5462 8.39307C10.528 8.39206 10.5092 8.39085 10.4892 8.38955C10.4168 8.38487 10.3292 8.37922 10.2065 8.37922C10.1343 8.37922 10.0876 8.39692 10.0589 8.42883C10.033 8.45755 10.0206 8.49908 10.019 8.55347C10.0318 8.54249 10.0486 8.53348 10.0682 8.52607C10.0962 8.51546 10.1309 8.50783 10.1698 8.50262C10.2477 8.49218 10.344 8.49126 10.4421 8.4961C10.638 8.50578 10.8428 8.53859 10.9241 8.56581C10.956 8.57649 10.988 8.59542 11.0203 8.61786C11.0439 8.63422 11.0679 8.65269 11.0922 8.67141C11.1012 8.67833 11.1103 8.68528 11.1193 8.69218C11.1872 8.74367 11.2576 8.79225 11.3337 8.80583C11.5369 8.84201 11.785 8.80706 12.0507 8.74446C12.2158 8.70557 12.3871 8.65621 12.5582 8.60688C12.6626 8.57676 12.767 8.54666 12.87 8.51896L12.8705 8.51883L13.9268 8.37922H13.1621L14.168 8.17756H13.1488L13.1465 8.17492C13.1356 8.16243 13.1166 8.14769 13.0943 8.13215C13.0784 8.12107 13.0612 8.10985 13.0445 8.09897C13.0379 8.09465 13.0314 8.09039 13.025 8.08621L13.0151 8.07968L13.0251 8.07326C13.1649 7.98322 13.2969 7.85618 13.4018 7.73171C13.5068 7.60714 13.5843 7.48579 13.6156 7.4074L13.6176 7.40259L13.6227 7.40254C14.1102 7.39769 14.4311 7.35401 14.8048 7.26879C14.1807 7.20042 13.745 7.16754 13.4337 7.16547C13.1148 7.16335 12.9272 7.1936 12.8013 7.25053C12.6759 7.30724 12.6109 7.39077 12.5378 7.49805C12.5299 7.50974 12.5218 7.52169 12.5136 7.53392Z" fill="black"/>
<path fill-rule="evenodd" clip-rule="evenodd" d="M10.9685 8.35098C10.9685 8.32169 10.9925 8.29805 11.0215 8.29805C11.0508 8.29805 11.0744 8.3217 11.0744 8.35098C11.0744 8.38027 11.0508 8.40392 11.0215 8.40392C10.9925 8.40392 10.9685 8.38028 10.9685 8.35098Z" fill="black"/>
<path fill-rule="evenodd" clip-rule="evenodd" d="M11.6943 8.24396L11.696 8.2468C11.6999 8.25345 11.6999 8.25345 11.6999 8.25345L11.6998 8.25355L11.6993 8.25382L11.6975 8.25489C11.6959 8.25581 11.6935 8.25717 11.6905 8.25888C11.6844 8.26232 11.6756 8.26722 11.6645 8.2731C11.6425 8.28485 11.6116 8.30053 11.5763 8.3162C11.5061 8.34741 11.4171 8.37922 11.3455 8.37922V8.36376C11.4136 8.36376 11.5 8.33321 11.57 8.30208C11.6049 8.28658 11.6354 8.27108 11.6573 8.25946C11.6682 8.25364 11.6769 8.24881 11.6829 8.24542C11.6859 8.24373 11.6882 8.24241 11.6897 8.24151L11.6915 8.24048L11.6919 8.24022L11.6921 8.24014C11.6921 8.24014 11.6921 8.24014 11.6943 8.24396Z" fill="black"/>
<path fill-rule="evenodd" clip-rule="evenodd" d="M12.8768 8.53245C12.8768 8.53245 12.8768 8.53245 12.872 8.52642C12.8671 8.5204 12.8671 8.5204 12.8671 8.5204L12.8672 8.52036L12.8673 8.52027L12.8677 8.51992L12.8694 8.51859C12.8709 8.51743 12.8731 8.51574 12.8759 8.5136C12.8816 8.50931 12.8899 8.5032 12.9004 8.49588C12.9214 8.48124 12.9511 8.46172 12.9865 8.44219C13.0569 8.40327 13.1503 8.36376 13.24 8.36376V8.37922C13.1543 8.37922 13.0637 8.41717 12.9939 8.45572C12.9592 8.47493 12.9299 8.49414 12.9092 8.50855C12.8989 8.51575 12.8908 8.52175 12.8853 8.52593C12.8825 8.52803 12.8804 8.52967 12.879 8.53078L12.8774 8.53204L12.877 8.53235L12.8768 8.53245Z" fill="black"/>
<path fill-rule="evenodd" clip-rule="evenodd" d="M9.80707 7.79354L9.7999 7.77984L9.80036 7.7796L9.8017 7.7789C9.80287 7.77829 9.80459 7.7774 9.80681 7.77625C9.81126 7.77396 9.81768 7.77066 9.82562 7.76664C9.84149 7.75859 9.86343 7.74763 9.88769 7.73599C9.93602 7.71278 9.9942 7.68655 10.0319 7.67542L10.0362 7.69025C9.99995 7.70097 9.94284 7.72666 9.89438 7.74992C9.87025 7.76151 9.84841 7.77242 9.83261 7.78043C9.82471 7.78443 9.81832 7.78771 9.8139 7.78999C9.8117 7.79113 9.80999 7.79202 9.80883 7.79262L9.80751 7.79331L9.80707 7.79354Z" fill="black"/>
<path fill-rule="evenodd" clip-rule="evenodd" d="M10.4555 7.67683C10.4555 7.67683 10.4555 7.67683 10.4525 7.66973C10.4494 7.66263 10.4494 7.66263 10.4494 7.66263L10.4495 7.66261L10.4496 7.66254L10.4502 7.6623L10.4524 7.66139C10.4543 7.66059 10.4571 7.65943 10.4608 7.65795C10.4682 7.655 10.4791 7.6508 10.493 7.64579C10.5208 7.63576 10.5606 7.62246 10.6092 7.60933C10.7063 7.58309 10.8383 7.55746 10.9776 7.56016L10.9773 7.57562C10.84 7.57295 10.7095 7.59824 10.6133 7.62426C10.5652 7.63726 10.5257 7.65042 10.4982 7.66033C10.4845 7.66528 10.4738 7.66942 10.4665 7.67231C10.4629 7.67376 10.4602 7.67489 10.4583 7.67566L10.4562 7.67654L10.4557 7.67676L10.4556 7.67681L10.4555 7.67683Z" fill="black"/>
<path fill-rule="evenodd" clip-rule="evenodd" d="M11.1253 7.70357L11.124 7.69594C11.1227 7.68832 11.1227 7.68832 11.1227 7.68832L11.1228 7.68831L11.123 7.68828L11.1237 7.68816L11.1265 7.68771C11.129 7.68732 11.1327 7.68676 11.1375 7.68607C11.147 7.68469 11.161 7.6828 11.1787 7.68075C11.2141 7.67664 11.2644 7.67187 11.3241 7.66919C11.4434 7.66384 11.6008 7.66685 11.7521 7.7005L11.7488 7.71559C11.5993 7.68235 11.4434 7.67932 11.3248 7.68463C11.2655 7.68729 11.2155 7.69203 11.1805 7.69611C11.1629 7.69814 11.1491 7.70001 11.1397 7.70137C11.135 7.70205 11.1313 7.7026 11.1289 7.70298L11.1262 7.70342L11.1255 7.70353L11.1253 7.70356L11.1253 7.70357Z" fill="black"/>
<path fill-rule="evenodd" clip-rule="evenodd" d="M11.4997 7.78221C11.4997 7.78221 11.4997 7.78221 11.4984 7.77459C11.4971 7.76697 11.4971 7.76697 11.4971 7.76696L11.4972 7.76696L11.4973 7.76693L11.4979 7.76683L11.5003 7.76646C11.5024 7.76614 11.5055 7.76568 11.5094 7.76513C11.5174 7.76402 11.5291 7.76252 11.5438 7.76096C11.5734 7.75783 11.6155 7.75443 11.6657 7.75333C11.7661 7.75114 11.8993 7.75813 12.0298 7.79505L12.0256 7.80992C11.8971 7.77357 11.7656 7.76661 11.6661 7.76879C11.6163 7.76988 11.5747 7.77324 11.5455 7.77633C11.5309 7.77788 11.5194 7.77935 11.5116 7.78044C11.5077 7.78098 11.5047 7.78143 11.5027 7.78174L11.5004 7.78209L11.4998 7.78218L11.4997 7.78221L11.4997 7.78221Z" fill="black"/>
<path fill-rule="evenodd" clip-rule="evenodd" d="M11.7762 7.86466L11.7763 7.85693C11.7764 7.8492 11.7764 7.8492 11.7764 7.8492L11.7767 7.8492L11.7773 7.84921L11.7796 7.84926C11.7817 7.8493 11.7847 7.84936 11.7886 7.84947C11.7965 7.84967 11.8078 7.85003 11.8218 7.85062C11.8498 7.8518 11.8886 7.85392 11.9317 7.85772C12.0177 7.86528 12.1217 7.87954 12.1912 7.90652L12.1856 7.92094C12.1183 7.89482 12.0163 7.88068 11.9304 7.87312C11.8876 7.86935 11.849 7.86723 11.8212 7.86606C11.8072 7.86548 11.796 7.86513 11.7882 7.86492C11.7843 7.86482 11.7813 7.86475 11.7793 7.86471L11.777 7.86467L11.7764 7.86466L11.7762 7.86466Z" fill="black"/>
<path fill-rule="evenodd" clip-rule="evenodd" d="M9.20254 7.87044C9.20254 7.87044 9.20253 7.87044 9.20457 7.86298L9.20661 7.85552L9.20666 7.85554L9.20686 7.85559L9.20766 7.8558C9.20838 7.85599 9.20946 7.85627 9.21088 7.85664C9.21374 7.85736 9.21799 7.85841 9.22352 7.85969C9.23459 7.86226 9.25078 7.86576 9.27121 7.86951C9.31207 7.877 9.36982 7.88543 9.43732 7.88917C9.57246 7.89665 9.746 7.8853 9.9013 7.81064L9.908 7.82458C9.74939 7.90082 9.57289 7.91216 9.43647 7.9046C9.36819 7.90082 9.30978 7.8923 9.26842 7.88472C9.24774 7.88092 9.23131 7.87737 9.22003 7.87475C9.21439 7.87344 9.21004 7.87237 9.20709 7.87162C9.20561 7.87125 9.20448 7.87095 9.20372 7.87075L9.20285 7.87052L9.20262 7.87046L9.20254 7.87044Z" fill="black"/>
<path fill-rule="evenodd" clip-rule="evenodd" d="M9.2518 7.9162C9.25179 7.9162 9.25179 7.91619 9.25364 7.90869C9.25549 7.90118 9.25549 7.90118 9.25549 7.90118L9.25557 7.9012L9.25582 7.90126L9.25687 7.90152C9.25781 7.90174 9.25921 7.90207 9.26105 7.90249C9.26473 7.90332 9.27018 7.90453 9.2772 7.90599C9.29126 7.9089 9.31162 7.91281 9.33678 7.91679C9.38712 7.92476 9.45659 7.933 9.53313 7.93411C9.68673 7.93633 9.86657 7.90978 9.97883 7.79736L9.98977 7.80828C9.87282 7.92541 9.68733 7.9518 9.5329 7.94957C9.45543 7.94845 9.38521 7.94011 9.33437 7.93206C9.30893 7.92804 9.28833 7.92408 9.27407 7.92112C9.26694 7.91965 9.26139 7.91842 9.25761 7.91756C9.25572 7.91713 9.25428 7.91679 9.2533 7.91656L9.25219 7.91629L9.2519 7.91622L9.2518 7.9162Z" fill="black"/>
<path fill-rule="evenodd" clip-rule="evenodd" d="M9.41933 8.00276C9.41932 8.00276 9.41932 8.00276 9.42169 7.9954C9.42406 7.98804 9.42405 7.98804 9.42405 7.98804L9.4241 7.98806L9.42427 7.98811L9.42503 7.98835C9.42572 7.98855 9.42676 7.98886 9.42813 7.98926C9.43089 7.99005 9.435 7.99118 9.44036 7.99251C9.45109 7.99518 9.4668 7.99866 9.48659 8.00188C9.5262 8.0083 9.5821 8.01365 9.64719 8.00928C9.77728 8.00056 9.94401 7.95309 10.0909 7.79784L10.1022 7.80847C9.952 7.96713 9.78129 8.01578 9.64822 8.02471C9.58173 8.02917 9.52463 8.02371 9.48412 8.01714C9.46386 8.01385 9.44773 8.01028 9.43663 8.00752C9.43108 8.00614 9.42679 8.00496 9.42387 8.00412C9.42241 8.0037 9.42129 8.00337 9.42053 8.00313L9.41965 8.00286L9.41941 8.00279L9.41933 8.00276Z" fill="black"/>
<path fill-rule="evenodd" clip-rule="evenodd" d="M9.7747 8.07912C9.7747 8.07912 9.77469 8.07912 9.77256 8.07169L9.77044 8.06426L9.77048 8.06425L9.77063 8.0642L9.77126 8.06402C9.77183 8.06386 9.77267 8.0636 9.77378 8.06327C9.77601 8.0626 9.7793 8.06158 9.78355 8.06022C9.79204 8.05751 9.80432 8.05343 9.81942 8.04796C9.84965 8.03703 9.89114 8.02059 9.93621 7.99858C10.0266 7.95441 10.1302 7.88838 10.1868 7.80032L10.1999 7.80868C10.1409 7.90043 10.0341 7.96799 9.94299 8.01247C9.89732 8.03478 9.85529 8.05143 9.82468 8.0625C9.80937 8.06804 9.79691 8.07218 9.78826 8.07495C9.78393 8.07633 9.78056 8.07737 9.77826 8.07807C9.77711 8.07841 9.77622 8.07868 9.77562 8.07885L9.77494 8.07905L9.77476 8.0791L9.7747 8.07912Z" fill="black"/>
<path fill-rule="evenodd" clip-rule="evenodd" d="M10.0156 8.08309C10.0156 8.08309 10.0156 8.08309 10.0112 8.07673C10.0068 8.07038 10.0068 8.07038 10.0068 8.07038L10.0069 8.07029L10.0074 8.06999L10.0091 8.06879C10.0106 8.06774 10.0128 8.06616 10.0156 8.06412C10.0213 8.06002 10.0296 8.05402 10.0397 8.04642C10.0599 8.03121 10.0877 8.00963 10.1177 7.98413C10.178 7.93294 10.2467 7.86661 10.2828 7.80464L10.2962 7.81242C10.2586 7.87683 10.1882 7.9446 10.1277 7.99592C10.0974 8.02167 10.0694 8.04344 10.049 8.05878C10.0387 8.06645 10.0304 8.07252 10.0246 8.07667C10.0217 8.07875 10.0195 8.08035 10.018 8.08143L10.0162 8.08266L10.0158 8.08298L10.0156 8.08309Z" fill="black"/>
<path fill-rule="evenodd" clip-rule="evenodd" d="M12.6421 7.92158C12.6421 7.92157 12.6421 7.92157 12.6482 7.91676C12.6542 7.91194 12.6542 7.91194 12.6542 7.91193C12.6542 7.91193 12.6542 7.91193 12.6542 7.91193L12.6543 7.91209C12.6544 7.91223 12.6546 7.91247 12.6549 7.9128C12.6555 7.91346 12.6564 7.91448 12.6577 7.91582C12.6603 7.91851 12.6645 7.92251 12.6704 7.92755C12.6822 7.93762 12.7012 7.95186 12.7296 7.9681C12.7865 8.00058 12.881 8.04107 13.0309 8.07219L13.0277 8.08733C12.8765 8.05593 12.7804 8.01492 12.722 7.98153C12.6927 7.96483 12.6729 7.95004 12.6603 7.93932C12.6541 7.93396 12.6496 7.92962 12.6466 7.92657C12.6451 7.92504 12.6441 7.92384 12.6433 7.923C12.6429 7.92258 12.6427 7.92224 12.6425 7.922L12.6422 7.92171L12.6421 7.92162L12.6421 7.92158Z" fill="black"/>
<path fill-rule="evenodd" clip-rule="evenodd" d="M12.6958 7.87484C12.6958 7.87484 12.6958 7.87483 12.7013 7.86937C12.7067 7.8639 12.7067 7.8639 12.7067 7.8639L12.7068 7.86395L12.707 7.86419C12.7072 7.86441 12.7076 7.86475 12.7081 7.8652C12.709 7.8661 12.7105 7.86746 12.7125 7.8692C12.7164 7.87269 12.7224 7.87776 12.7304 7.88396C12.7465 7.89636 12.7707 7.9133 12.8034 7.93124C12.8686 7.96711 12.9674 8.00701 13.1011 8.02268L13.0993 8.03803C12.9634 8.02211 12.8627 7.98151 12.7959 7.94479C12.7625 7.92643 12.7376 7.90904 12.721 7.8962C12.7126 7.88977 12.7064 7.88448 12.7022 7.88077C12.7001 7.87892 12.6985 7.87746 12.6975 7.87645C12.6969 7.87595 12.6965 7.87556 12.6963 7.87528L12.6959 7.87497L12.6958 7.87488L12.6958 7.87484Z" fill="black"/>
<path fill-rule="evenodd" clip-rule="evenodd" d="M12.7614 7.8144C12.7614 7.8144 12.7614 7.8144 12.7665 7.80853C12.7715 7.80267 12.7715 7.80267 12.7715 7.80267L12.7716 7.80272L12.7718 7.80293C12.772 7.80312 12.7724 7.80341 12.7729 7.80381C12.7738 7.8046 12.7753 7.80579 12.7774 7.80732C12.7814 7.8104 12.7875 7.81488 12.7958 7.82041C12.8123 7.83147 12.8373 7.84672 12.8713 7.8633C12.9392 7.89646 13.0428 7.93494 13.185 7.95582L13.1828 7.97112C13.0389 7.94999 12.9338 7.91101 12.8645 7.8772C12.8299 7.86029 12.8042 7.84469 12.7872 7.83326C12.7786 7.82754 12.7722 7.82288 12.768 7.81961C12.7658 7.81798 12.7642 7.8167 12.7631 7.81582C12.7626 7.81537 12.7622 7.81503 12.7619 7.81479L12.7616 7.81451L12.7615 7.81443L12.7614 7.8144Z" fill="black"/>
<path fill-rule="evenodd" clip-rule="evenodd" d="M12.827 7.7501C12.827 7.7501 12.827 7.7501 12.8313 7.74367C12.8356 7.73724 12.8356 7.73724 12.8356 7.73724L12.8357 7.73732L12.8361 7.73759L12.8378 7.73868C12.8393 7.73965 12.8416 7.74107 12.8445 7.7429C12.8504 7.74655 12.859 7.7518 12.8701 7.75815C12.8924 7.77086 12.9244 7.78799 12.9636 7.8056C13.042 7.84085 13.1485 7.87787 13.2617 7.88552L13.2607 7.90094C13.145 7.89313 13.0366 7.85536 12.9573 7.8197C12.9176 7.80185 12.8851 7.78449 12.8625 7.77157C12.8512 7.76512 12.8423 7.75977 12.8363 7.75602C12.8333 7.75415 12.831 7.75268 12.8294 7.75167L12.8277 7.75052L12.8272 7.75021L12.8271 7.75013L12.827 7.7501Z" fill="black"/>
<path fill-rule="evenodd" clip-rule="evenodd" d="M12.9054 7.66463C12.9054 7.66463 12.9054 7.66463 12.9106 7.65897C12.9159 7.65332 12.9159 7.65332 12.9159 7.65332C12.9159 7.65332 12.9159 7.65332 12.9159 7.65332L12.916 7.65338L12.9162 7.65363C12.9165 7.65385 12.9169 7.6542 12.9174 7.65466C12.9184 7.65558 12.92 7.65696 12.9222 7.65874C12.9265 7.6623 12.9329 7.66746 12.9416 7.67377C12.9589 7.6864 12.9849 7.70364 13.0196 7.72192C13.0889 7.75846 13.1931 7.79913 13.3316 7.81531L13.3299 7.83066C13.1892 7.81424 13.0832 7.77291 13.0124 7.73559C12.9769 7.71694 12.9503 7.69929 12.9324 7.68626C12.9235 7.67974 12.9168 7.67438 12.9123 7.67063C12.91 7.66875 12.9083 7.66727 12.9072 7.66625C12.9066 7.66574 12.9062 7.66535 12.9059 7.66508L12.9055 7.66476L12.9054 7.66467L12.9054 7.66463Z" fill="black"/>
<path fill-rule="evenodd" clip-rule="evenodd" d="M12.9648 7.59729C12.9648 7.59728 12.9648 7.59728 12.9698 7.59142L12.9748 7.58556L12.9749 7.58563L12.9752 7.58591C12.9755 7.58616 12.976 7.58654 12.9766 7.58704C12.9778 7.58805 12.9797 7.58954 12.9821 7.59146C12.9871 7.59529 12.9944 7.60083 13.004 7.60754C13.0233 7.62098 13.0518 7.63913 13.0883 7.6579C13.1613 7.69544 13.2664 7.73538 13.3949 7.74503L13.3937 7.76045C13.2627 7.75061 13.1556 7.70989 13.0812 7.67165C13.044 7.65252 13.015 7.634 12.9952 7.62023C12.9853 7.61334 12.9778 7.60764 12.9726 7.60365C12.9701 7.60165 12.9681 7.60008 12.9668 7.59899C12.9661 7.59845 12.9656 7.59803 12.9653 7.59775L12.9649 7.59741L12.9648 7.59732L12.9648 7.59729Z" fill="black"/>
<path fill-rule="evenodd" clip-rule="evenodd" d="M13.0221 7.52591C13.0221 7.5259 13.0221 7.5259 13.0279 7.52084C13.0338 7.51578 13.0338 7.51578 13.0338 7.51578C13.0338 7.51577 13.0338 7.51578 13.0338 7.51578L13.034 7.51598C13.0341 7.51616 13.0344 7.51645 13.0348 7.51683C13.0355 7.51761 13.0367 7.51879 13.0383 7.52033C13.0415 7.52341 13.0466 7.52793 13.0537 7.53349C13.068 7.54461 13.0906 7.55991 13.1237 7.57621C13.1897 7.60881 13.2975 7.64547 13.4635 7.66069L13.4621 7.67608C13.2944 7.66071 13.1848 7.62361 13.1168 7.59008C13.0828 7.57331 13.0593 7.55746 13.0442 7.54569C13.0367 7.53981 13.0312 7.53495 13.0276 7.53152C13.0258 7.52981 13.0245 7.52844 13.0236 7.52749C13.0231 7.52701 13.0228 7.52664 13.0225 7.52637L13.0222 7.52605L13.0221 7.52595L13.0221 7.52591Z" fill="black"/>
<path fill-rule="evenodd" clip-rule="evenodd" d="M13.0814 7.44976C13.0814 7.44976 13.0814 7.44975 13.0871 7.44455C13.0928 7.43934 13.0928 7.43934 13.0928 7.43934C13.0928 7.43934 13.0928 7.43934 13.0928 7.43934L13.0928 7.43938L13.093 7.43958C13.0932 7.43978 13.0935 7.44009 13.0939 7.44051C13.0948 7.44134 13.096 7.44261 13.0978 7.44425C13.1013 7.44753 13.1068 7.45232 13.1144 7.45818C13.1295 7.46991 13.1531 7.48594 13.1865 7.50285C13.2533 7.53666 13.3597 7.57405 13.5173 7.58741L13.516 7.60282C13.3566 7.5893 13.2482 7.5514 13.1795 7.51665C13.1452 7.49928 13.1208 7.48271 13.1049 7.4704C13.097 7.46425 13.0911 7.45917 13.0873 7.45558C13.0854 7.45379 13.0839 7.45237 13.0829 7.45138C13.0824 7.45088 13.0821 7.4505 13.0818 7.45022L13.0815 7.4499L13.0814 7.4498L13.0814 7.44976Z" fill="black"/>
<path fill-rule="evenodd" clip-rule="evenodd" d="M13.1285 7.38788C13.1285 7.38787 13.1285 7.38787 13.1331 7.3817C13.1378 7.37553 13.1378 7.37553 13.1378 7.37553L13.1379 7.37562L13.1383 7.37591C13.1387 7.37618 13.1392 7.37659 13.14 7.37712C13.1414 7.37819 13.1436 7.37976 13.1465 7.38177C13.1523 7.3858 13.1608 7.39156 13.1718 7.39848C13.1938 7.41232 13.2255 7.43076 13.2643 7.44911C13.342 7.48586 13.4477 7.522 13.5609 7.52051L13.5611 7.53596C13.4447 7.5375 13.3365 7.50037 13.2577 7.46309C13.2182 7.44443 13.186 7.42567 13.1636 7.41156C13.1524 7.40451 13.1436 7.39861 13.1377 7.39447C13.1347 7.39239 13.1324 7.39076 13.1309 7.38963C13.1301 7.38907 13.1295 7.38864 13.1291 7.38834L13.1287 7.388L13.1285 7.38791L13.1285 7.38788Z" fill="black"/>
<path fill-rule="evenodd" clip-rule="evenodd" d="M13.1685 7.3312C13.1685 7.33119 13.1685 7.33119 13.1725 7.32456L13.1764 7.31794L13.1766 7.31804L13.1772 7.31837L13.1794 7.31966C13.1813 7.3208 13.1842 7.32248 13.1879 7.32461C13.1953 7.32887 13.2061 7.33497 13.2195 7.34227C13.2465 7.35687 13.2839 7.37629 13.3263 7.39554C13.4114 7.43425 13.5145 7.47154 13.5906 7.46909L13.5911 7.48454C13.511 7.48712 13.4049 7.4483 13.3199 7.40962C13.2771 7.39017 13.2393 7.37058 13.2122 7.35586C13.1986 7.34849 13.1877 7.34233 13.1802 7.33802C13.1764 7.33586 13.1735 7.33416 13.1715 7.33299L13.1693 7.33166L13.1687 7.33132L13.1685 7.3312Z" fill="black"/>
<path fill-rule="evenodd" clip-rule="evenodd" d="M13.2161 7.25853C13.2161 7.25853 13.2161 7.25853 13.2202 7.25197L13.2243 7.24541L13.2244 7.24549L13.2248 7.24576L13.2266 7.24683C13.2281 7.24777 13.2304 7.24916 13.2335 7.25095C13.2395 7.25452 13.2483 7.25967 13.2595 7.26594C13.282 7.27848 13.314 7.2955 13.3519 7.31341C13.4281 7.34929 13.5279 7.3885 13.6239 7.40262L13.6217 7.41791C13.5235 7.40347 13.422 7.36353 13.3454 7.3274C13.307 7.3093 13.2747 7.29211 13.252 7.27943C13.2407 7.27309 13.2317 7.26788 13.2256 7.26425C13.2225 7.26243 13.2201 7.26101 13.2186 7.26004L13.2167 7.25892L13.2163 7.25863L13.2161 7.25853Z" fill="black"/>
<path fill-rule="evenodd" clip-rule="evenodd" d="M12.3202 7.98712C12.3202 7.98712 12.3202 7.98711 12.3248 7.98095L12.3295 7.97478L12.3295 7.97481L12.3297 7.97493L12.3304 7.97542C12.331 7.97586 12.3319 7.97652 12.3331 7.97736C12.3354 7.97904 12.3389 7.98145 12.3434 7.98435C12.3523 7.99015 12.365 7.99785 12.3802 8.00547C12.4106 8.02081 12.4499 8.03533 12.4872 8.03406L12.4878 8.04951C12.4465 8.05092 12.4044 8.03502 12.3732 8.01928C12.3575 8.01135 12.3443 8.00334 12.335 7.99731C12.3303 7.9943 12.3267 7.99177 12.3241 7.98999C12.3229 7.98909 12.3219 7.98839 12.3212 7.9879L12.3205 7.98733L12.3203 7.98718L12.3202 7.98712Z" fill="black"/>
<path fill-rule="evenodd" clip-rule="evenodd" d="M12.3682 7.93978C12.3682 7.93978 12.3682 7.93978 12.3732 7.9339C12.3782 7.92801 12.3782 7.92801 12.3782 7.92801L12.3784 7.92814L12.379 7.9286C12.3795 7.92902 12.3803 7.92965 12.3813 7.93046C12.3834 7.93208 12.3865 7.93443 12.3906 7.93725C12.3988 7.94291 12.4107 7.95048 12.4257 7.95804C12.4557 7.97319 12.4978 7.98817 12.5463 7.98801L12.5463 8.00347C12.4947 8.00364 12.4502 7.9877 12.4187 7.97184C12.403 7.96391 12.3904 7.95595 12.3818 7.94996C12.3775 7.94696 12.3741 7.94445 12.3718 7.94267C12.3707 7.94178 12.3698 7.94108 12.3692 7.94059L12.3685 7.94001L12.3683 7.93985L12.3682 7.93978Z" fill="black"/>
<path fill-rule="evenodd" clip-rule="evenodd" d="M12.4268 7.88174C12.4268 7.88174 12.4268 7.88173 12.432 7.87609C12.4373 7.87044 12.4373 7.87044 12.4373 7.87044C12.4373 7.87044 12.4373 7.87044 12.4373 7.87044L12.4374 7.87047L12.4375 7.87061L12.4382 7.87119C12.4387 7.87171 12.4396 7.87249 12.4408 7.87349C12.4432 7.87549 12.4467 7.87836 12.4512 7.88178C12.4602 7.88862 12.4733 7.8976 12.4894 7.90615C12.5217 7.9233 12.5655 7.93836 12.6128 7.93162L12.615 7.94693C12.5631 7.9543 12.516 7.93777 12.4822 7.9198C12.4652 7.91079 12.4514 7.90133 12.4419 7.89411C12.4371 7.8905 12.4333 7.88744 12.4308 7.88527C12.4295 7.88419 12.4285 7.88332 12.4278 7.88272L12.4271 7.88201L12.4269 7.88182L12.4268 7.88176L12.4268 7.88174Z" fill="black"/>
<path fill-rule="evenodd" clip-rule="evenodd" d="M12.4835 7.82669C12.4835 7.82669 12.4835 7.82669 12.4878 7.8203C12.4922 7.81391 12.4922 7.81391 12.4922 7.8139L12.4922 7.81394L12.4924 7.81407L12.4932 7.8146C12.4939 7.81507 12.495 7.81577 12.4964 7.81666C12.4992 7.81845 12.5033 7.82102 12.5086 7.82411C12.5191 7.83028 12.5339 7.83849 12.5515 7.84664C12.5869 7.86303 12.6324 7.87874 12.6749 7.87777L12.6752 7.89323C12.6292 7.89428 12.5812 7.87739 12.545 7.86067C12.5269 7.85226 12.5115 7.8438 12.5007 7.83743C12.4953 7.83424 12.491 7.83158 12.4881 7.8297C12.4866 7.82876 12.4855 7.82802 12.4847 7.8275L12.4838 7.82691L12.4836 7.82675L12.4835 7.82669Z" fill="black"/>
<path fill-rule="evenodd" clip-rule="evenodd" d="M12.5446 7.76262C12.5446 7.76262 12.5446 7.76262 12.5497 7.75678C12.5547 7.75094 12.5547 7.75093 12.5547 7.75093L12.5549 7.75106L12.5555 7.75153C12.556 7.75196 12.5568 7.7526 12.5578 7.75343C12.5599 7.7551 12.5631 7.75752 12.5674 7.76045C12.5758 7.76633 12.5883 7.77426 12.6043 7.7824C12.6364 7.79867 12.6826 7.81567 12.7393 7.81863L12.7385 7.83407C12.6792 7.83097 12.6308 7.81319 12.5973 7.79619C12.5805 7.78768 12.5675 7.77936 12.5585 7.77314C12.5541 7.77002 12.5506 7.76743 12.5483 7.7656C12.5471 7.76468 12.5462 7.76396 12.5456 7.76345L12.5449 7.76286L12.5447 7.76269L12.5446 7.76262ZM12.5547 7.75093C12.5547 7.75093 12.5547 7.75093 12.5547 7.75093V7.75093Z" fill="black"/>
<path fill-rule="evenodd" clip-rule="evenodd" d="M12.5997 7.69266C12.5997 7.69265 12.5997 7.69265 12.6048 7.68687L12.6099 7.68108L12.61 7.68112L12.6101 7.68125L12.6108 7.68184C12.6114 7.68237 12.6124 7.68315 12.6136 7.68416C12.6161 7.68618 12.6198 7.68909 12.6245 7.69261C12.6341 7.69964 12.648 7.70907 12.6652 7.71858C12.6998 7.73765 12.7475 7.75682 12.8006 7.75812L12.8002 7.77358C12.7437 7.77219 12.6936 7.75187 12.6578 7.73212C12.6398 7.72222 12.6254 7.71241 12.6154 7.70506C12.6104 7.70138 12.6065 7.69831 12.6038 7.69615C12.6025 7.69506 12.6015 7.69421 12.6008 7.69361L12.6 7.69292L12.5998 7.69273L12.5997 7.69268L12.5997 7.69266Z" fill="black"/>
<path fill-rule="evenodd" clip-rule="evenodd" d="M12.6588 7.64297C12.6588 7.64296 12.6588 7.64296 12.6629 7.63646C12.6671 7.62995 12.6671 7.62995 12.6671 7.62995L12.6671 7.62997L12.6673 7.63007L12.668 7.63048C12.6686 7.63085 12.6695 7.6314 12.6707 7.63211C12.6731 7.63354 12.6767 7.63562 12.6815 7.63815C12.6909 7.64321 12.7048 7.65009 12.7223 7.65729C12.7574 7.67169 12.8069 7.68732 12.8649 7.69227L12.8636 7.70768C12.8036 7.70255 12.7525 7.68642 12.7164 7.67159C12.6984 7.66416 12.684 7.65705 12.6742 7.65178C12.6692 7.64914 12.6654 7.64696 12.6628 7.64543C12.6615 7.64466 12.6605 7.64406 12.6599 7.64364L12.6591 7.64315L12.6589 7.64302L12.6588 7.64297Z" fill="black"/>
<path fill-rule="evenodd" clip-rule="evenodd" d="M12.7131 7.58493L12.7183 7.57035L12.7183 7.57037L12.7186 7.57045L12.7195 7.57078C12.7203 7.57107 12.7216 7.57149 12.7232 7.57204C12.7265 7.57313 12.7312 7.5747 12.7373 7.57662C12.7493 7.58047 12.7665 7.58569 12.7869 7.59123C12.8278 7.60231 12.8812 7.61454 12.9322 7.61935L12.9308 7.63474C12.8785 7.62981 12.8241 7.61733 12.7829 7.60615C12.7622 7.60055 12.7448 7.59525 12.7326 7.59136C12.7264 7.58941 12.7216 7.58781 12.7183 7.58669C12.7166 7.58613 12.7153 7.58569 12.7145 7.5854L12.7135 7.58505L12.7132 7.58496L12.7131 7.58493Z" fill="black"/>
<path fill-rule="evenodd" clip-rule="evenodd" d="M12.7721 7.51205C12.7721 7.51205 12.7721 7.51205 12.7765 7.50572C12.781 7.49939 12.781 7.49939 12.781 7.49938L12.7811 7.49948L12.7817 7.49988C12.7822 7.50024 12.7831 7.50078 12.7842 7.50148C12.7865 7.50288 12.7899 7.50491 12.7945 7.50736C12.8036 7.51225 12.8173 7.51879 12.8352 7.52525C12.8711 7.53816 12.924 7.55073 12.9918 7.54907L12.9922 7.56453C12.9222 7.56624 12.8674 7.55327 12.83 7.53979C12.8113 7.53306 12.7969 7.5262 12.7872 7.52099C12.7823 7.51838 12.7786 7.51618 12.7761 7.51462C12.7748 7.51384 12.7738 7.51321 12.7732 7.51278L12.7724 7.51226L12.7722 7.51211L12.7721 7.51207L12.7721 7.51205ZM12.781 7.49938C12.781 7.49938 12.781 7.49938 12.781 7.49938V7.49938Z" fill="black"/>
<path fill-rule="evenodd" clip-rule="evenodd" d="M12.8271 7.44024C12.827 7.44023 12.827 7.44023 12.8313 7.43379L12.8356 7.42735L12.8356 7.42738L12.8358 7.42749L12.8365 7.42796C12.8372 7.42838 12.8382 7.42901 12.8395 7.42982C12.8422 7.43144 12.8461 7.43378 12.8513 7.4366C12.8615 7.44223 12.8765 7.44979 12.8951 7.45739C12.9323 7.47261 12.9839 7.48792 13.0418 7.48858L13.0416 7.50404C12.9812 7.50335 12.9276 7.4874 12.8892 7.4717C12.87 7.46384 12.8545 7.45602 12.8438 7.45015C12.8385 7.44721 12.8343 7.44476 12.8315 7.44303C12.8301 7.44216 12.829 7.44147 12.8282 7.441L12.8274 7.44045L12.8271 7.4403L12.8271 7.44024Z" fill="black"/>
<path fill-rule="evenodd" clip-rule="evenodd" d="M12.8679 7.37231C12.8679 7.37231 12.8679 7.37231 12.8717 7.36557L12.8754 7.35882L12.8755 7.35886L12.8757 7.35899L12.8767 7.35954C12.8776 7.36002 12.879 7.36074 12.8807 7.36165C12.8842 7.36347 12.8894 7.36607 12.8959 7.36915C12.909 7.37531 12.9275 7.38337 12.9493 7.39095C12.9932 7.40618 13.0493 7.41916 13.1008 7.41169L13.103 7.42699C13.0479 7.43499 12.9889 7.42108 12.9443 7.40555C12.9218 7.39776 12.9028 7.38947 12.8893 7.38314C12.8826 7.37997 12.8773 7.37728 12.8736 7.37537C12.8718 7.37442 12.8704 7.37366 12.8694 7.37314L12.8683 7.37254L12.868 7.37238L12.8679 7.37233L12.8679 7.37231Z" fill="black"/>
<path fill-rule="evenodd" clip-rule="evenodd" d="M12.911 7.28912C12.911 7.28911 12.911 7.28911 12.9167 7.2839C12.9224 7.27868 12.9224 7.27868 12.9224 7.27868L12.9225 7.27884L12.9231 7.27947C12.9237 7.28004 12.9246 7.2809 12.9257 7.28201C12.928 7.28422 12.9315 7.28743 12.9361 7.29129C12.9455 7.29902 12.9594 7.30936 12.9778 7.31962C13.0147 7.34012 13.0694 7.36033 13.1407 7.35885L13.141 7.3743C13.0665 7.37585 13.0091 7.35471 12.9703 7.33312C12.9509 7.32234 12.9362 7.31143 12.9263 7.30319C12.9213 7.29906 12.9175 7.2956 12.915 7.29314C12.9137 7.29191 12.9127 7.29093 12.9121 7.29025C12.9117 7.2899 12.9115 7.28963 12.9113 7.28944L12.9111 7.28922L12.911 7.28915L12.911 7.28912Z" fill="black"/>
<path fill-rule="evenodd" clip-rule="evenodd" d="M12.9445 7.25367C12.9445 7.25367 12.9445 7.25367 12.9483 7.24693L12.9521 7.24019L12.9522 7.24023L12.9524 7.24039L12.9536 7.24102C12.9546 7.24158 12.9561 7.2424 12.9581 7.24344C12.9621 7.24553 12.9678 7.24849 12.9751 7.25199C12.9896 7.259 13.0099 7.26814 13.0331 7.27664C13.0799 7.29379 13.137 7.30778 13.1823 7.29818L13.1855 7.3133C13.1356 7.32387 13.075 7.30845 13.0278 7.29116C13.004 7.28243 12.9832 7.27308 12.9684 7.26591C12.9609 7.26232 12.955 7.25928 12.9509 7.25712C12.9489 7.25604 12.9473 7.25519 12.9462 7.2546L12.9449 7.25392L12.9446 7.25373L12.9445 7.25369L12.9445 7.25367Z" fill="black"/>
<path fill-rule="evenodd" clip-rule="evenodd" d="M13.0038 7.20883C13.0038 7.20883 13.0038 7.20883 13.0078 7.20223L13.0118 7.19562L13.0118 7.19566L13.0121 7.19578L13.0129 7.1963C13.0137 7.19675 13.0148 7.19743 13.0164 7.19829C13.0194 7.20002 13.0239 7.2025 13.0295 7.20547C13.0409 7.21143 13.057 7.21934 13.0762 7.22717C13.1146 7.24289 13.1644 7.25798 13.2116 7.25668L13.212 7.27213C13.1617 7.27352 13.1095 7.25751 13.0703 7.24148C13.0506 7.23343 13.034 7.22529 13.0223 7.21917C13.0165 7.2161 13.0119 7.21353 13.0087 7.21173C13.0071 7.21082 13.0059 7.21011 13.0051 7.20961L13.0041 7.20904L13.0039 7.20889L13.0038 7.20883Z" fill="black"/>
<path fill-rule="evenodd" clip-rule="evenodd" d="M13.1125 7.17652C13.1125 7.17652 13.1125 7.17651 13.116 7.16963C13.1195 7.16274 13.1195 7.16274 13.1195 7.16274L13.1196 7.16278L13.1199 7.16296C13.1203 7.16312 13.1208 7.16337 13.1215 7.16369C13.1229 7.16434 13.1249 7.16529 13.1277 7.16648C13.1332 7.16885 13.1415 7.17215 13.1522 7.1758C13.1736 7.1831 13.2049 7.19179 13.2441 7.19726C13.3225 7.20819 13.4328 7.20624 13.5597 7.1544L13.5656 7.16872C13.4357 7.22174 13.3227 7.22382 13.242 7.21257C13.2016 7.20695 13.1694 7.198 13.1472 7.19043C13.1361 7.18664 13.1275 7.1832 13.1216 7.18068C13.1187 7.17943 13.1164 7.1784 13.1149 7.17768C13.1141 7.17732 13.1135 7.17704 13.1131 7.17684L13.1127 7.17661L13.1125 7.17654L13.1125 7.17652ZM13.1195 7.16274C13.1195 7.16274 13.1195 7.16274 13.1195 7.16274V7.16274Z" fill="black"/>
<path fill-rule="evenodd" clip-rule="evenodd" d="M13.2759 7.24606C13.2759 7.24606 13.2759 7.24606 13.2777 7.23852L13.2794 7.23099L13.2794 7.231L13.2796 7.23105L13.2804 7.23123C13.2811 7.23138 13.2822 7.23162 13.2836 7.23192C13.2864 7.23251 13.2906 7.23338 13.2959 7.23442C13.3067 7.23651 13.3222 7.23933 13.3414 7.24224C13.3797 7.24805 13.4326 7.25421 13.4905 7.25558C13.5485 7.25696 13.6114 7.25355 13.67 7.24034C13.7286 7.22713 13.7823 7.20422 13.8226 7.16698L13.8331 7.17832C13.7902 7.21805 13.7335 7.24186 13.6734 7.25542C13.6132 7.269 13.5489 7.27243 13.4902 7.27104C13.4314 7.26964 13.3779 7.2634 13.3391 7.25752C13.3197 7.25458 13.3039 7.25172 13.293 7.2496C13.2875 7.24853 13.2833 7.24765 13.2804 7.24704C13.2789 7.24673 13.2778 7.24649 13.2771 7.24632L13.2762 7.24613L13.276 7.24608L13.2759 7.24606Z" fill="black"/>
<path fill-rule="evenodd" clip-rule="evenodd" d="M13.578 7.26907C13.578 7.26907 13.578 7.26907 13.5788 7.26138L13.5796 7.25369L13.5796 7.25369L13.5798 7.25371L13.5803 7.25376L13.5825 7.25397C13.5845 7.25414 13.5874 7.25439 13.5913 7.25467C13.599 7.25524 13.6103 7.25594 13.6249 7.2565C13.6541 7.25762 13.6961 7.25814 13.7472 7.25576C13.8496 7.25099 13.9886 7.2346 14.1354 7.18814L14.14 7.20287C13.9917 7.24985 13.8513 7.26639 13.7479 7.2712C13.6963 7.27361 13.6539 7.27308 13.6243 7.27195C13.6096 7.27138 13.598 7.27067 13.5901 7.27009C13.5862 7.2698 13.5832 7.26955 13.5811 7.26937C13.5801 7.26927 13.5793 7.2692 13.5788 7.26915L13.5782 7.26909L13.578 7.26907L13.578 7.26907Z" fill="black"/>
<path fill-rule="evenodd" clip-rule="evenodd" d="M13.7527 7.27064C13.7527 7.27064 13.7527 7.27064 13.7542 7.26306L13.7558 7.25548L13.7558 7.25549L13.756 7.25553L13.7569 7.2557C13.7576 7.25584 13.7588 7.25606 13.7603 7.25634C13.7634 7.25691 13.768 7.25773 13.7741 7.25875C13.7863 7.26079 13.8046 7.26362 13.8287 7.26679C13.877 7.27311 13.9486 7.28075 14.042 7.28597C14.2287 7.29641 14.5025 7.29717 14.85 7.2584L14.8517 7.27377C14.5033 7.31264 14.2287 7.31189 14.0411 7.3014C13.9473 7.29616 13.8753 7.28849 13.8267 7.28211C13.8024 7.27893 13.7839 7.27607 13.7715 7.274C13.7653 7.27296 13.7606 7.27213 13.7575 7.27155C13.7559 7.27126 13.7547 7.27103 13.7539 7.27088L13.753 7.2707L13.7528 7.27066L13.7527 7.27064Z" fill="black"/>
<path fill-rule="evenodd" clip-rule="evenodd" d="M10.1243 8.07411C10.1243 8.07411 10.1243 8.07412 10.1201 8.06766C10.1177 8.06403 10.1166 8.06245 10.1162 8.06175C10.1158 8.0612 10.1158 8.0612 10.1158 8.0612L10.1159 8.06113L10.1163 8.06088L10.1178 8.05989C10.1191 8.05901 10.121 8.0577 10.1235 8.05597C10.1285 8.05252 10.1357 8.04742 10.1447 8.04087C10.1625 8.02778 10.187 8.00892 10.2139 7.98584C10.2678 7.93956 10.3303 7.87685 10.3667 7.8102L10.3803 7.81762C10.3425 7.88675 10.2783 7.95092 10.224 7.99757C10.1968 8.02095 10.1719 8.04007 10.1538 8.05334C10.1448 8.05997 10.1374 8.06515 10.1323 8.06868C10.1298 8.07045 10.1278 8.0718 10.1264 8.07271L10.1249 8.07375L10.1245 8.07402L10.1244 8.07409L10.1243 8.07411Z" fill="black"/>
<path fill-rule="evenodd" clip-rule="evenodd" d="M10.2596 8.05136C10.2596 8.05136 10.2596 8.05136 10.2542 8.04581L10.2488 8.04026L10.2489 8.04017L10.2492 8.03987L10.2504 8.0387C10.2515 8.03767 10.253 8.03613 10.255 8.03415C10.259 8.03018 10.2648 8.0244 10.2718 8.0172C10.286 8.00279 10.3052 7.98269 10.3258 7.95989C10.3671 7.91405 10.413 7.85816 10.4334 7.81592L10.4473 7.82266C10.4258 7.86713 10.3785 7.9245 10.3373 7.97025C10.3165 7.99324 10.2971 8.01351 10.2829 8.02802C10.2758 8.03528 10.27 8.04111 10.2659 8.04512C10.2639 8.04713 10.2623 8.04869 10.2612 8.04974L10.26 8.05095L10.2597 8.05125L10.2596 8.05136Z" fill="black"/>
<path fill-rule="evenodd" clip-rule="evenodd" d="M10.3924 8.0156C10.3924 8.0156 10.3924 8.0156 10.3873 8.00985C10.3848 8.00708 10.3835 8.00565 10.3828 8.0049C10.3821 8.0041 10.3821 8.0041 10.3821 8.0041L10.3822 8.00403L10.3824 8.00381L10.3834 8.00293C10.3843 8.00214 10.3855 8.00098 10.3872 7.99946C10.3904 7.99644 10.3951 7.99202 10.4008 7.98648C10.4123 7.97541 10.4278 7.95987 10.4442 7.94203C10.4771 7.90603 10.5123 7.86178 10.5248 7.82614L10.5394 7.83126C10.5257 7.87023 10.4885 7.91656 10.4556 7.95248C10.439 7.9706 10.4232 7.98636 10.4116 7.9976C10.4058 8.00321 10.401 8.0077 10.3977 8.01079C10.396 8.01234 10.3947 8.01354 10.3938 8.01435L10.3928 8.01528L10.3925 8.01552L10.3924 8.0156Z" fill="black"/>
<path fill-rule="evenodd" clip-rule="evenodd" d="M9.8095 7.82987C9.8095 7.82987 9.8095 7.82987 9.80785 7.82231C9.80621 7.81476 9.80621 7.81476 9.80622 7.81476L9.80628 7.81475L9.80644 7.81471L9.80706 7.81458C9.80759 7.81447 9.80839 7.81431 9.80943 7.81411C9.81153 7.81371 9.81466 7.81313 9.81884 7.81243C9.82721 7.81103 9.83979 7.80913 9.85678 7.8071C9.89078 7.80305 9.94243 7.79848 10.0133 7.7964C10.1551 7.79222 10.3738 7.79796 10.682 7.8375L10.68 7.85284C10.3725 7.81339 10.1547 7.8077 10.0138 7.81185C9.94333 7.81392 9.89213 7.81845 9.85862 7.82245C9.84186 7.82445 9.82952 7.82632 9.8214 7.82768C9.81734 7.82836 9.81433 7.82891 9.81236 7.82929C9.81137 7.82948 9.81064 7.82963 9.81016 7.82973L9.80964 7.82984L9.8095 7.82987Z" fill="black"/>
<path fill-rule="evenodd" clip-rule="evenodd" d="M10.0492 7.72643L10.0458 7.71947C10.0424 7.71251 10.0424 7.71251 10.0424 7.71251L10.0426 7.71243L10.0431 7.7122L10.045 7.71131C10.0466 7.71052 10.049 7.70938 10.0522 7.70791C10.0585 7.70497 10.0677 7.70074 10.0794 7.69557C10.1027 7.68523 10.1358 7.67112 10.1749 7.65601C10.2531 7.62581 10.3557 7.59148 10.4526 7.57539L10.4551 7.59064C10.3597 7.60648 10.2583 7.64038 10.1805 7.67043C10.1417 7.68544 10.1088 7.69945 10.0857 7.70971C10.0741 7.71483 10.065 7.71902 10.0587 7.72192C10.0556 7.72338 10.0532 7.72451 10.0516 7.72527L10.0498 7.72614L10.0493 7.72636L10.0492 7.72643Z" fill="black"/>
<path fill-rule="evenodd" clip-rule="evenodd" d="M10.2635 7.68311L10.2602 7.67611C10.2569 7.66912 10.2569 7.66912 10.2569 7.66912L10.257 7.6691L10.2571 7.66906L10.2574 7.66889L10.2588 7.66824C10.2601 7.66767 10.2619 7.66684 10.2643 7.66578C10.2692 7.66365 10.2763 7.66058 10.2856 7.65678C10.3041 7.64918 10.3312 7.63868 10.3656 7.62703C10.4344 7.60373 10.5324 7.5758 10.6492 7.55723L10.6516 7.5725C10.5359 7.59091 10.4388 7.6186 10.3706 7.64168C10.3365 7.65322 10.3097 7.6636 10.2914 7.67108C10.2823 7.67483 10.2753 7.67785 10.2706 7.67992C10.2682 7.68096 10.2665 7.68176 10.2653 7.6823L10.2639 7.68291L10.2636 7.68306L10.2635 7.68311Z" fill="black"/>
<path fill-rule="evenodd" clip-rule="evenodd" d="M10.6215 7.66911C10.6215 7.66911 10.6215 7.66911 10.6185 7.662C10.6155 7.65489 10.6155 7.65489 10.6155 7.65489L10.6155 7.65487L10.6157 7.65481L10.6162 7.6546L10.6181 7.6538C10.6198 7.6531 10.6223 7.65209 10.6256 7.65081C10.6322 7.64825 10.6418 7.64462 10.6542 7.64029C10.679 7.63163 10.7148 7.6202 10.759 7.60905C10.8474 7.58675 10.9694 7.56551 11.1037 7.56991L11.1032 7.58537C10.9707 7.58103 10.8502 7.60197 10.7628 7.62404C10.7191 7.63506 10.6837 7.64636 10.6593 7.65489C10.6471 7.65915 10.6376 7.66272 10.6312 7.66522C10.628 7.66647 10.6256 7.66745 10.6239 7.66811L10.6221 7.66886L10.6217 7.66905L10.6215 7.66911Z" fill="black"/>
<path fill-rule="evenodd" clip-rule="evenodd" d="M10.8961 7.67122C10.8961 7.67122 10.8961 7.67122 10.8944 7.66368C10.8927 7.65614 10.8927 7.65613 10.8928 7.65613L10.893 7.65608L10.8937 7.65594L10.8963 7.65538C10.8985 7.65489 10.9019 7.65418 10.9063 7.6533C10.9151 7.65153 10.9279 7.64906 10.9441 7.6462C10.9766 7.6405 11.0228 7.63329 11.0776 7.62726C11.1871 7.61521 11.3315 7.60784 11.4702 7.62678L11.4681 7.6421C11.3312 7.6234 11.1882 7.63065 11.0793 7.64263C11.0249 7.64861 10.979 7.65577 10.9468 7.66143C10.9307 7.66426 10.918 7.66671 10.9094 7.66846C10.905 7.66933 10.9017 7.67002 10.8995 7.6705L10.8969 7.67104L10.8963 7.67118L10.8961 7.67122Z" fill="black"/>
<path fill-rule="evenodd" clip-rule="evenodd" d="M11.6957 7.8176C11.6957 7.8176 11.6957 7.8176 11.6953 7.80988C11.695 7.80216 11.695 7.80216 11.695 7.80216L11.695 7.80215L11.6952 7.80215L11.6957 7.80213L11.6977 7.80205C11.6995 7.80199 11.7021 7.80191 11.7055 7.80183C11.7123 7.80167 11.7223 7.80152 11.7351 7.80154C11.7607 7.80158 11.7976 7.80232 11.8427 7.8051C11.9329 7.81067 12.0561 7.82442 12.1879 7.85716L12.1842 7.87216C12.0535 7.83971 11.9313 7.82606 11.8418 7.82053C11.797 7.81777 11.7604 7.81704 11.7351 7.817C11.7224 7.81698 11.7125 7.81713 11.7058 7.81729C11.7025 7.81736 11.6999 7.81744 11.6982 7.8175L11.6963 7.81757L11.6958 7.81759L11.6957 7.8176Z" fill="black"/>
<path fill-rule="evenodd" clip-rule="evenodd" d="M11.3056 7.72584L11.3051 7.71813C11.3047 7.71041 11.3047 7.71041 11.3047 7.71041L11.305 7.71039L11.3057 7.71036L11.3085 7.71022C11.311 7.7101 11.3146 7.70993 11.3193 7.70973C11.3287 7.70933 11.3424 7.70881 11.3595 7.70831C11.3937 7.70732 11.4417 7.70642 11.4967 7.70682C11.6066 7.70762 11.745 7.71359 11.8577 7.73439L11.8549 7.74959C11.7435 7.72905 11.6063 7.72308 11.4966 7.72228C11.4418 7.72189 11.394 7.72278 11.36 7.72377C11.3429 7.72426 11.3293 7.72478 11.32 7.72518C11.3153 7.72538 11.3117 7.72554 11.3092 7.72566L11.3065 7.7258L11.3058 7.72583L11.3056 7.72584Z" fill="black"/>
<path fill-rule="evenodd" clip-rule="evenodd" d="M13.3223 7.25378C13.3223 7.25378 13.3223 7.25378 13.3274 7.24794C13.3325 7.24209 13.3325 7.24209 13.3324 7.24209L13.3325 7.24212L13.3327 7.24229C13.3329 7.24245 13.3332 7.2427 13.3336 7.24304C13.3344 7.24372 13.3357 7.24474 13.3375 7.24609C13.3411 7.24878 13.3466 7.25274 13.3542 7.25772C13.3694 7.26767 13.393 7.28167 13.4265 7.29763C13.4934 7.32956 13.5997 7.36936 13.7564 7.40033L13.7534 7.4155C13.5955 7.38429 13.488 7.3441 13.4199 7.31159C13.3858 7.29533 13.3615 7.28099 13.3457 7.27066C13.3378 7.26549 13.332 7.26133 13.3282 7.25843C13.3263 7.25698 13.3248 7.25584 13.3239 7.25506C13.3234 7.25466 13.323 7.25436 13.3228 7.25414L13.3225 7.25389L13.3224 7.25382L13.3223 7.25378ZM13.3324 7.24209C13.3324 7.24209 13.3324 7.24209 13.3324 7.24209V7.24209Z" fill="black"/>
<path fill-rule="evenodd" clip-rule="evenodd" d="M13.501 7.27045C13.501 7.27045 13.501 7.27045 13.5048 7.26373L13.5087 7.25701L13.5088 7.25707L13.5091 7.25727L13.5106 7.25808C13.5119 7.25881 13.5139 7.25988 13.5166 7.26127C13.5219 7.26404 13.5298 7.26806 13.5402 7.273C13.5609 7.28288 13.5915 7.29644 13.6308 7.3111C13.7094 7.34043 13.8228 7.37412 13.9615 7.39151L13.9596 7.40685C13.8194 7.38928 13.7049 7.35525 13.6254 7.32559C13.5856 7.31076 13.5546 7.29701 13.5335 7.28696C13.5229 7.28193 13.5149 7.27783 13.5094 7.27497C13.5067 7.27354 13.5046 7.27242 13.5032 7.27165L13.5016 7.27077L13.5012 7.27054L13.5011 7.27048L13.501 7.27045Z" fill="black"/>
<path fill-rule="evenodd" clip-rule="evenodd" d="M13.6873 7.27217C13.6873 7.27217 13.6873 7.27216 13.6904 7.26508L13.6935 7.25799L13.6935 7.258L13.6936 7.25806L13.6941 7.25828L13.6962 7.25916C13.6981 7.25994 13.7008 7.26109 13.7044 7.26256C13.7117 7.2655 13.7223 7.26971 13.7359 7.2748C13.7631 7.28496 13.8022 7.2986 13.8493 7.31244C13.9438 7.34015 14.0706 7.36862 14.2008 7.37196L14.2004 7.38741C14.0684 7.38403 13.9401 7.35519 13.845 7.32728C13.7974 7.31331 13.758 7.29955 13.7305 7.28928C13.7168 7.28414 13.706 7.27987 13.6986 7.27689C13.695 7.27539 13.6921 7.27422 13.6902 7.27341L13.688 7.27249L13.6875 7.27225L13.6873 7.27219L13.6873 7.27217Z" fill="black"/>
<path fill-rule="evenodd" clip-rule="evenodd" d="M13.9632 7.29612C13.9632 7.29612 13.9631 7.29612 13.965 7.2886L13.9668 7.28109L13.9668 7.2811L13.9669 7.28113L13.9675 7.28125L13.9696 7.28175C13.9715 7.28218 13.9743 7.28282 13.9781 7.28363C13.9855 7.28525 13.9966 7.28755 14.0108 7.29026C14.0392 7.29568 14.0805 7.30274 14.1315 7.30929C14.2335 7.3224 14.3745 7.33345 14.5305 7.32525L14.5313 7.34069C14.3741 7.34895 14.2322 7.33782 14.1295 7.32463C14.0782 7.31803 14.0366 7.31091 14.0079 7.30544C13.9935 7.30271 13.9824 7.30038 13.9748 7.29874C13.971 7.29792 13.9681 7.29726 13.9661 7.29682L13.9639 7.2963L13.9634 7.29617L13.9632 7.29613L13.9632 7.29612Z" fill="black"/>
<path fill-rule="evenodd" clip-rule="evenodd" d="M10.7673 7.66545C10.7673 7.66545 10.7673 7.66545 10.7644 7.6583C10.7614 7.65115 10.7614 7.65115 10.7614 7.65115L10.7615 7.65113L10.7616 7.65109L10.762 7.65092C10.7624 7.65078 10.7629 7.65057 10.7636 7.6503C10.765 7.64977 10.767 7.64899 10.7697 7.64801C10.7751 7.64606 10.7831 7.64329 10.7936 7.63999C10.8146 7.63339 10.8458 7.62468 10.8865 7.61616C10.9678 7.59912 11.0872 7.58284 11.2397 7.58571L11.2395 7.60116C11.0882 7.59832 10.9699 7.61447 10.8896 7.63129C10.8495 7.6397 10.8188 7.64828 10.7982 7.65474C10.7879 7.65797 10.7801 7.66066 10.775 7.66255C10.7724 7.66349 10.7704 7.66422 10.7692 7.66472L10.7677 7.66528L10.7674 7.66541L10.7673 7.66545Z" fill="black"/>
<path fill-rule="evenodd" clip-rule="evenodd" d="M11.8956 7.92275C11.8956 7.92275 11.8956 7.92275 11.8946 7.91507C11.8937 7.9074 11.8937 7.9074 11.8937 7.9074L11.8938 7.9074L11.8938 7.90739L11.8941 7.90736L11.8951 7.90726C11.8959 7.90717 11.8972 7.90706 11.8988 7.90695C11.9019 7.90672 11.9066 7.90646 11.9126 7.90635C11.9245 7.90613 11.9417 7.90649 11.9629 7.90878C12.0052 7.91335 12.0637 7.92564 12.1285 7.95649L12.1219 7.97045C12.0589 7.94047 12.0022 7.92857 11.9612 7.92415C11.9407 7.92194 11.9242 7.9216 11.9128 7.92181C11.9072 7.92192 11.9028 7.92216 11.8999 7.92237C11.8984 7.92248 11.8973 7.92257 11.8966 7.92264L11.8958 7.92273L11.8956 7.92275L11.8956 7.92275C11.8956 7.92275 11.8956 7.92275 11.8956 7.92275ZM11.8956 7.92275C11.8956 7.92275 11.8956 7.92275 11.8956 7.92275V7.92275Z" fill="black"/>
<path fill-rule="evenodd" clip-rule="evenodd" d="M12.2263 7.8844C12.1058 7.99818 11.9409 8.1219 11.6997 8.25358L11.6983 8.25437L11.6966 8.2545C11.6341 8.25962 11.5657 8.25107 11.4948 8.23998L11.4972 8.22471C11.5675 8.2357 11.6337 8.2439 11.6938 8.23922C11.9331 8.10838 12.0965 7.98568 12.2157 7.87316L12.2263 7.8844Z" fill="black"/>
<path d="M10.3242 12.3083C10.0891 12.2763 9.86341 12.1949 9.662 12.0695C9.4606 11.944 9.28804 11.7773 9.15568 11.5804C9.36191 11.6977 9.59064 11.7701 9.82685 11.7927C10.0631 11.8153 10.3014 11.7877 10.5261 11.7116" fill="#F8D000"/>
<path fill-rule="evenodd" clip-rule="evenodd" d="M9.12732 11.558L9.15591 11.5743C9.36118 11.6911 9.58887 11.7631 9.82399 11.7856C10.0591 11.8081 10.2963 11.7806 10.52 11.7049L10.525 11.7195C10.2992 11.796 10.0598 11.8237 9.82251 11.801C9.59617 11.7794 9.37665 11.7122 9.17708 11.6037C9.30623 11.788 9.4713 11.9444 9.66249 12.0635C9.86297 12.1884 10.0876 12.2694 10.3217 12.3012L10.3196 12.3165C10.0834 12.2844 9.85665 12.2027 9.65431 12.0766C9.45198 11.9506 9.27863 11.7831 9.14567 11.5853L9.12732 11.558Z" fill="black"/>
<path d="M10.3138 12.7082L8.90797 12.2616L10.3719 12.0809" fill="#F8D000"/>
<path fill-rule="evenodd" clip-rule="evenodd" d="M8.8696 12.2589L10.3686 12.0739L10.3705 12.0893L8.94171 12.2656L10.3138 12.7015L10.3091 12.7162L8.8696 12.2589Z" fill="black"/>
<path d="M10.544 11.7119C10.3379 11.5942 10.1592 11.4342 10.0194 11.2424C9.87964 11.0507 9.78207 10.8315 9.73311 10.5993C9.88037 10.7854 10.0653 10.9381 10.2759 11.0476C10.4864 11.157 10.7178 11.2206 10.9547 11.2342" fill="#F8D000"/>
<path fill-rule="evenodd" clip-rule="evenodd" d="M9.71397 10.5688L9.73439 10.5946C9.88096 10.7798 10.0651 10.9319 10.2747 11.0408C10.4842 11.1497 10.7145 11.213 10.9503 11.2266L10.9494 11.242C10.7114 11.2284 10.479 11.1645 10.2675 11.0545C10.0658 10.9496 9.88739 10.8052 9.74298 10.6298C9.79372 10.8491 9.88819 11.0559 10.0209 11.2379C10.16 11.4288 10.3379 11.5881 10.543 11.7052L10.5353 11.7187C10.3284 11.6004 10.1488 11.4397 10.0084 11.247C9.86796 11.0544 9.76995 10.8342 9.72076 10.601L9.71397 10.5688Z" fill="black"/>
<path d="M10.3802 12.0787L9.24402 11.1381L10.6691 11.5189" fill="#F8D000"/>
<path fill-rule="evenodd" clip-rule="evenodd" d="M9.21232 11.1211L10.6715 11.511L10.6675 11.526L9.27668 11.1543L10.3857 12.0724L10.3758 12.0843L9.21232 11.1211Z" fill="black"/>
<path d="M10.9341 11.2425C10.7905 11.0536 10.6884 10.8365 10.6347 10.6054C10.581 10.3742 10.5768 10.1344 10.6225 9.90152C10.6853 10.1303 10.7959 10.3432 10.9469 10.5262C11.098 10.7092 11.2861 10.8582 11.4988 10.9633" fill="#F8D000"/>
<path fill-rule="evenodd" clip-rule="evenodd" d="M10.6181 9.86803L10.6268 9.89976C10.6894 10.1275 10.7995 10.3394 10.9498 10.5216C11.1002 10.7038 11.2874 10.852 11.4991 10.9566L11.4923 10.9705C11.2786 10.8649 11.0896 10.7153 10.9379 10.5314C10.7931 10.3561 10.6854 10.1534 10.621 9.93556C10.582 10.1572 10.5881 10.3845 10.6391 10.6039C10.6926 10.834 10.7942 11.0501 10.9372 11.2381L10.9249 11.2474C10.7806 11.0577 10.678 10.8396 10.6241 10.6074C10.5701 10.3752 10.5659 10.1342 10.6118 9.90032L10.6181 9.86803Z" fill="black"/>
<path d="M10.6489 11.5177L9.97057 10.208L11.1335 11.1153" fill="#F8D000"/>
<path fill-rule="evenodd" clip-rule="evenodd" d="M9.94537 10.1807L11.1362 11.1098L11.1267 11.1219L9.99164 10.2364L10.6537 11.5148L10.64 11.5219L9.94537 10.1807Z" fill="black"/>
<path d="M11.4678 10.9387C11.3857 10.7161 11.3516 10.4786 11.3678 10.2419C11.384 10.0051 11.4501 9.77452 11.5618 9.56519C11.555 9.80237 11.5985 10.0383 11.6895 10.2575C11.7804 10.4766 11.9167 10.6741 12.0895 10.8368" fill="#F8D000"/>
<path fill-rule="evenodd" clip-rule="evenodd" d="M11.5713 9.5324L11.5703 9.56528C11.5636 9.80138 11.6069 10.0362 11.6974 10.2544C11.7879 10.4725 11.9236 10.6691 12.0955 10.831L12.0849 10.8423C11.9114 10.6788 11.7745 10.4805 11.6831 10.2603C11.596 10.0503 11.5522 9.82495 11.5543 9.59781C11.4522 9.79836 11.3916 10.0175 11.3763 10.2423C11.3601 10.4779 11.3941 10.7143 11.4759 10.9359L11.4614 10.9412C11.3788 10.7176 11.3445 10.479 11.3608 10.2412C11.3771 10.0034 11.4436 9.77171 11.5558 9.56142L11.5713 9.5324Z" fill="black"/>
<path d="M11.1091 11.1179L10.8433 9.66698L11.6902 10.8747" fill="#F8D000"/>
<path fill-rule="evenodd" clip-rule="evenodd" d="M10.8346 9.6333L11.7018 10.87L11.6891 10.8788L10.8626 9.7001L11.122 11.1162L11.1068 11.119L10.8346 9.6333Z" fill="black"/>
<path d="M12.0758 10.8291C12.0776 10.5918 12.1297 10.3576 12.2286 10.1419C12.3275 9.92619 12.4709 9.73387 12.6494 9.57758C12.5592 9.79704 12.5164 10.0331 12.524 10.2703C12.5316 10.5074 12.5892 10.7403 12.6933 10.9536" fill="#F8D000"/>
<path fill-rule="evenodd" clip-rule="evenodd" d="M12.6666 9.55011L12.6541 9.58053C12.5643 9.79898 12.5217 10.034 12.5292 10.27C12.5368 10.5061 12.5942 10.7379 12.6977 10.9502L12.6838 10.957C12.5793 10.7427 12.5214 10.5088 12.5138 10.2705C12.5065 10.0433 12.5453 9.817 12.6275 9.60527C12.4612 9.75677 12.327 9.94037 12.2331 10.1451C12.1347 10.3598 12.0829 10.593 12.081 10.8291L12.0656 10.829C12.0674 10.5907 12.1197 10.3554 12.2191 10.1387C12.3184 9.92199 12.4625 9.72878 12.6418 9.57178L12.6666 9.55011Z" fill="black"/>
<path d="M11.6733 10.8698L11.9378 9.4187L12.3029 10.8479" fill="#F8D000"/>
<path fill-rule="evenodd" clip-rule="evenodd" d="M11.9415 9.3823L12.3153 10.8457L12.3003 10.8496L11.944 9.45467L11.6858 10.871L11.6706 10.8682L11.9415 9.3823Z" fill="black"/>
<path d="M12.6608 11.0104C12.7727 10.8012 12.9278 10.6181 13.1156 10.4731C13.3034 10.3281 13.5198 10.2245 13.7506 10.1692C13.5686 10.3215 13.421 10.5106 13.3174 10.7241C13.2138 10.9376 13.1566 11.1706 13.1496 11.4077" fill="#F8D000"/>
<path fill-rule="evenodd" clip-rule="evenodd" d="M13.781 10.154L13.7558 10.1751C13.5747 10.3267 13.4277 10.515 13.3246 10.7275C13.2215 10.94 13.1645 11.1719 13.1575 11.408L13.142 11.4075C13.1491 11.1692 13.2066 10.9352 13.3107 10.7207C13.41 10.5161 13.5495 10.3338 13.7208 10.1846C13.503 10.2414 13.2988 10.3415 13.1205 10.4792C12.9336 10.6235 12.7793 10.8058 12.6678 11.014L12.6542 11.0067C12.7667 10.7966 12.9224 10.6126 13.1111 10.4669C13.2998 10.3213 13.5172 10.2172 13.749 10.1616L13.781 10.154Z" fill="black"/>
<path d="M12.285 10.8609L13.1939 9.69914L12.8526 11.1341" fill="#F8D000"/>
<path fill-rule="evenodd" clip-rule="evenodd" d="M13.2086 9.66677L12.859 11.1362L12.844 11.1326L13.1771 9.73201L12.29 10.8659L12.2778 10.8564L13.2086 9.66677Z" fill="black"/>
<path d="M13.1549 11.33C13.3172 11.1569 13.5143 11.0201 13.7332 10.9287C13.9522 10.8373 14.188 10.7932 14.4252 10.7995C14.2101 10.8995 14.0185 11.044 13.8632 11.2234C13.7079 11.4028 13.5924 11.613 13.5241 11.8403" fill="#F8D000"/>
<path fill-rule="evenodd" clip-rule="evenodd" d="M14.4613 10.793L14.4315 10.8069C14.2173 10.9065 14.0267 11.0503 13.8721 11.2289C13.7175 11.4074 13.6024 11.6167 13.5345 11.8429L13.5197 11.8385C13.5883 11.6102 13.7044 11.399 13.8604 11.2188C14.0092 11.0469 14.1911 10.9069 14.3952 10.8071C14.1702 10.8056 13.9471 10.8494 13.7392 10.9362C13.5213 11.0273 13.3251 11.1634 13.1635 11.3357L13.1522 11.3251C13.3153 11.1512 13.5133 11.0138 13.7333 10.922C13.9532 10.8301 14.1901 10.7859 14.4284 10.7922L14.4613 10.793Z" fill="black"/>
<path d="M12.8397 11.0904L14.0183 10.2035L13.3172 11.5012" fill="#F8D000"/>
<path fill-rule="evenodd" clip-rule="evenodd" d="M14.0394 10.1762L13.3214 11.505L13.3078 11.4977L13.9922 10.2311L12.8418 11.0967L12.8325 11.0843L14.0394 10.1762Z" fill="black"/>
<path d="M13.556 11.7953C13.7713 11.6956 14.0053 11.6426 14.2426 11.6399C14.4798 11.6371 14.715 11.6847 14.9326 11.7793C14.6956 11.7915 14.4639 11.8537 14.2527 11.9618C14.0415 12.07 13.8556 12.2216 13.7072 12.4068" fill="#F8D000"/>
<path fill-rule="evenodd" clip-rule="evenodd" d="M14.9614 11.7861L14.9286 11.7878C14.6927 11.7999 14.462 11.8618 14.2518 11.9695C14.0416 12.0771 13.8565 12.2281 13.7088 12.4124L13.6968 12.4027C13.8458 12.2167 14.0326 12.0643 14.2448 11.9557C14.4472 11.8521 14.6683 11.7904 14.8949 11.7744C14.6868 11.6886 14.4635 11.6457 14.2383 11.6484C14.0021 11.6511 13.7692 11.7038 13.5548 11.803L13.5483 11.789C13.7646 11.6889 13.9997 11.6357 14.2381 11.6329C14.4764 11.6301 14.7127 11.6779 14.9313 11.773L14.9614 11.7861Z" fill="black"/>
<path d="M13.3444 11.4537L14.7694 11.0729L13.6332 12.0135" fill="#F8D000"/>
<path fill-rule="evenodd" clip-rule="evenodd" d="M14.804 11.0561L13.6405 12.0193L13.6307 12.0074L14.7396 11.0894L13.3488 11.461L13.3448 11.4461L14.804 11.0561Z" fill="black"/>
<path d="M13.7002 12.4164C13.9371 12.4047 14.1739 12.4432 14.395 12.5296C14.616 12.6159 14.8162 12.748 14.9825 12.9173C14.7582 12.8398 14.5201 12.8107 14.2837 12.8318C14.0474 12.853 13.8182 12.924 13.6113 13.0401" fill="#F8D000"/>
<path fill-rule="evenodd" clip-rule="evenodd" d="M15.0146 12.9352L14.9835 12.9245C14.7603 12.8474 14.5232 12.8184 14.288 12.8394C14.0527 12.8605 13.8246 12.9311 13.6186 13.0467L13.611 13.0332C13.8189 12.9166 14.0492 12.8453 14.2866 12.824C14.5131 12.8038 14.7412 12.8294 14.9573 12.8994C14.7965 12.742 14.6055 12.6186 14.3957 12.5366C14.1757 12.4507 13.94 12.4123 13.7041 12.424L13.7033 12.4086C13.9414 12.3968 14.1793 12.4355 14.4013 12.5222C14.6234 12.609 14.8245 12.7417 14.9916 12.9118L15.0146 12.9352Z" fill="black"/>
<path d="M13.6354 12.022L15.0994 12.2028L13.6935 12.6493" fill="#F8D000"/>
<path fill-rule="evenodd" clip-rule="evenodd" d="M15.143 12.1996L13.7035 12.6567L13.6988 12.642L15.0709 12.2062L13.6421 12.0298L13.644 12.0145L15.143 12.1996Z" fill="black"/>
<path d="M12.0229 14.2665C12.9697 14.2665 13.7372 13.499 13.7372 12.5522C13.7372 11.6054 12.9697 10.8379 12.0229 10.8379C11.0761 10.8379 10.3086 11.6054 10.3086 12.5522C10.3086 13.499 11.0761 14.2665 12.0229 14.2665Z" fill="#F8D000"/>
<path fill-rule="evenodd" clip-rule="evenodd" d="M12.0189 10.8455C11.0764 10.8455 10.3123 11.6096 10.3123 12.5521C10.3123 13.4946 11.0764 14.2587 12.0189 14.2587C12.9614 14.2587 13.7255 13.4946 13.7255 12.5521C13.7255 11.6096 12.9614 10.8455 12.0189 10.8455ZM10.2969 12.5521C10.2969 11.6011 11.0679 10.8301 12.0189 10.8301C12.97 10.8301 13.7409 11.6011 13.7409 12.5521C13.7409 13.5032 12.97 14.2742 12.0189 14.2742C11.0679 14.2742 10.2969 13.5032 10.2969 12.5521Z" fill="black"/>
<path d="M22.1068 12.9185H1.94141V17.9598H22.1068V12.9185Z" fill="#183070"/>
<path fill-rule="evenodd" clip-rule="evenodd" d="M2.59823 13.329C2.37808 13.241 2.15955 13.1866 1.94141 13.1658V12.3566C2.26105 12.3786 2.58037 12.4531 2.8978 12.5801C3.47382 12.8105 4.03874 12.8105 4.61477 12.5801C5.3831 12.2728 6.16255 12.2728 6.93088 12.5801C7.50691 12.8105 8.07183 12.8105 8.64785 12.5801C9.42039 12.2711 10.229 12.276 11.0528 12.5755C11.7032 12.812 12.345 12.812 12.9954 12.5755C13.8192 12.276 14.6278 12.2711 15.4004 12.5801C15.9764 12.8105 16.5413 12.8105 17.1173 12.5801C17.8857 12.2728 18.6651 12.2728 19.4334 12.5801C20.0095 12.8105 20.5744 12.8105 21.1504 12.5801C21.4678 12.4531 21.7872 12.3786 22.1068 12.3566V13.1658C21.8887 13.1866 21.6701 13.241 21.45 13.329C20.6817 13.6364 19.9022 13.6364 19.1339 13.329C18.5578 13.0986 17.9929 13.0986 17.4169 13.329C16.6486 13.6364 15.8691 13.6364 15.1008 13.329C14.529 13.1003 13.926 13.0954 13.271 13.3336C12.4426 13.6348 11.6056 13.6348 10.7772 13.3336C10.1222 13.0954 9.51925 13.1003 8.94742 13.329C8.17909 13.6364 7.39965 13.6364 6.63131 13.329C6.05528 13.0986 5.49037 13.0986 4.91434 13.329C4.14601 13.6364 3.36656 13.6364 2.59823 13.329Z" fill="white"/>
<path fill-rule="evenodd" clip-rule="evenodd" d="M2.59823 14.9789C2.37808 14.8909 2.15955 14.8365 1.94141 14.8157V14.0065C2.26105 14.0285 2.58037 14.103 2.8978 14.23C3.47382 14.4604 4.03874 14.4604 4.61477 14.23C5.3831 13.9227 6.16255 13.9227 6.93088 14.23C7.50691 14.4604 8.07183 14.4604 8.64785 14.23C9.42039 13.921 10.229 13.9259 11.0528 14.2254C11.7032 14.4619 12.345 14.4619 12.9954 14.2254C13.8192 13.9259 14.6278 13.921 15.4004 14.23C15.9764 14.4604 16.5413 14.4604 17.1173 14.23C17.8857 13.9227 18.6651 13.9227 19.4334 14.23C20.0095 14.4604 20.5744 14.4604 21.1504 14.23C21.4678 14.103 21.7872 14.0285 22.1068 14.0065V14.8157C21.8887 14.8365 21.6701 14.8909 21.45 14.9789C20.6817 15.2863 19.9022 15.2863 19.1339 14.9789C18.5578 14.7485 17.9929 14.7485 17.4169 14.9789C16.6486 15.2863 15.8691 15.2863 15.1008 14.9789C14.529 14.7502 13.926 14.7453 13.271 14.9835C12.4426 15.2847 11.6056 15.2847 10.7772 14.9835C10.1222 14.7453 9.51925 14.7502 8.94742 14.9789C8.17909 15.2863 7.39965 15.2863 6.63131 14.9789C6.05528 14.7485 5.49037 14.7485 4.91434 14.9789C4.14601 15.2863 3.36656 15.2863 2.59823 14.9789Z" fill="white"/>
<path fill-rule="evenodd" clip-rule="evenodd" d="M2.59823 16.6288C2.37808 16.5408 2.15955 16.4864 1.94141 16.4656V15.6564C2.26105 15.6784 2.58037 15.7529 2.8978 15.8799C3.47382 16.1103 4.03874 16.1103 4.61477 15.8799C5.3831 15.5726 6.16255 15.5726 6.93088 15.8799C7.50691 16.1103 8.07183 16.1103 8.64785 15.8799C9.42039 15.5709 10.229 15.5758 11.0528 15.8753C11.7032 16.1118 12.345 16.1118 12.9954 15.8753C13.8192 15.5758 14.6278 15.5709 15.4004 15.8799C15.9764 16.1103 16.5413 16.1103 17.1173 15.8799C17.8857 15.5726 18.6651 15.5726 19.4334 15.8799C20.0095 16.1103 20.5744 16.1103 21.1504 15.8799C21.4678 15.7529 21.7872 15.6784 22.1068 15.6564V16.4656C21.8887 16.4864 21.6701 16.5408 21.45 16.6288C20.6817 16.9362 19.9022 16.9362 19.1339 16.6288C18.5578 16.3984 17.9929 16.3984 17.4169 16.6288C16.6486 16.9362 15.8691 16.9362 15.1008 16.6288C14.529 16.4001 13.926 16.3952 13.271 16.6334C12.4426 16.9346 11.6056 16.9346 10.7772 16.6334C10.1222 16.3952 9.51925 16.4001 8.94742 16.6288C8.17909 16.9362 7.39965 16.9362 6.63131 16.6288C6.05528 16.3984 5.49037 16.3984 4.91434 16.6288C4.14601 16.9362 3.36656 16.9362 2.59823 16.6288Z" fill="white"/>
</g>
<defs>
<clipPath id="clip0_1692_54074">
<rect x="2.02344" y="6.95996" width="20" height="11" rx="1" fill="white"/>
</clipPath>
</defs>
</svg>
