<svg width="24" height="24" viewBox="0 0 24 24" fill="none" xmlns="http://www.w3.org/2000/svg">
<path d="M15.9984 9V6C15.9984 3.79086 14.2076 2 11.9984 2C9.78928 2 7.99842 3.79086 7.99842 6V9M3.59042 10.352L2.99042 16.752C2.81982 18.5717 2.73452 19.4815 3.03647 20.1843C3.30171 20.8016 3.76653 21.3121 4.35643 21.6338C5.02794 22 5.94178 22 7.76946 22H16.2274C18.055 22 18.9689 22 19.6404 21.6338C20.2303 21.3121 20.6951 20.8016 20.9604 20.1843C21.2623 19.4815 21.177 18.5717 21.0064 16.752L20.4064 10.352C20.2624 8.81535 20.1903 8.04704 19.8448 7.46616C19.5404 6.95458 19.0908 6.54511 18.553 6.28984C17.9424 6 17.1707 6 15.6274 6L8.36946 6C6.82611 6 6.05443 6 5.44383 6.28984C4.90608 6.54511 4.45642 6.95458 4.15208 7.46616C3.80651 8.04704 3.73448 8.81534 3.59042 10.352Z" stroke="#1C1D20" stroke-width="1.5" stroke-linecap="round" stroke-linejoin="round"/>
</svg>
