<svg width="24" height="24" viewBox="0 0 24 24" fill="none" xmlns="http://www.w3.org/2000/svg">
<path d="M15.9986 8C15.9986 9.06087 15.5772 10.0783 14.827 10.8284C14.0769 11.5786 13.0595 12 11.9986 12C10.9377 12 9.92033 11.5786 9.17018 10.8284C8.42004 10.0783 7.99861 9.06087 7.99861 8M3.63183 7.40138L2.93183 15.8014C2.78145 17.6059 2.70626 18.5082 3.0113 19.2042C3.2793 19.8157 3.74364 20.3204 4.3308 20.6382C4.99908 21 5.90447 21 7.71525 21H16.282C18.0928 21 18.9981 21 19.6664 20.6382C20.2536 20.3204 20.7179 19.8157 20.9859 19.2042C21.291 18.5082 21.2158 17.6059 21.0654 15.8014L20.3654 7.40138C20.236 5.84875 20.1713 5.07243 19.8275 4.48486C19.5247 3.96744 19.0739 3.5526 18.5331 3.29385C17.919 3 17.14 3 15.582 3L8.41525 3C6.85724 3 6.07823 3 5.46413 3.29384C4.92336 3.5526 4.47251 3.96744 4.16974 4.48486C3.82591 5.07243 3.76122 5.84875 3.63183 7.40138Z" stroke="#1C1D20" stroke-width="1.5" stroke-linecap="round" stroke-linejoin="round"/>
</svg>
