<svg width="24" height="24" viewBox="0 0 24 24" fill="none" xmlns="http://www.w3.org/2000/svg">
<path d="M18.9989 10L4.99887 10M18.9989 10L20.863 13.1069C21.2808 13.8032 21.4897 14.1514 21.5982 14.5262C21.6943 14.8582 21.7323 15.2045 21.7105 15.5495C21.6859 15.9389 21.5575 16.324 21.3007 17.0944L21.0929 17.7179C20.6995 18.8981 20.5028 19.4882 20.1379 19.9245C19.8157 20.3098 19.402 20.608 18.9346 20.7918C18.4053 21 17.7833 21 16.5392 21L7.45851 21C6.21444 21 5.5924 21 5.06313 20.7918C4.59574 20.608 4.18199 20.3098 3.8598 19.9245C3.49495 19.4882 3.29824 18.8981 2.90483 17.7179L2.697 17.0944C2.44022 16.324 2.31182 15.9389 2.28722 15.5495C2.26542 15.2044 2.30342 14.8582 2.39955 14.5261C2.50804 14.1514 2.71693 13.8032 3.13471 13.1069L4.99887 10M18.9989 10L19.4161 8.53955C19.614 7.84717 19.7129 7.50097 19.6352 7.22708C19.5671 6.98715 19.4118 6.78132 19.1999 6.64996C18.9578 6.5 18.5978 6.5 17.8777 6.5L6.12004 6.5C5.39994 6.5 5.03989 6.5 4.79788 6.64996C4.58589 6.78132 4.43063 6.98715 4.36256 7.22708C4.28486 7.50097 4.38377 7.84717 4.5816 8.53955L4.99887 10M11.9989 6.5H8.46315C7.94219 6.5 7.44257 6.28929 7.07419 5.91421C6.70582 5.53914 6.49887 5.03043 6.49887 4.5C6.49887 3.96957 6.70582 3.46086 7.07419 3.08579C7.44257 2.71071 7.94219 2.5 8.46315 2.5C11.2132 2.5 11.9989 6.5 11.9989 6.5ZM11.9989 6.5H15.5346C16.0555 6.5 16.5552 6.28929 16.9235 5.91421C17.2919 5.53914 17.4989 5.03043 17.4989 4.5C17.4989 3.96957 17.2919 3.46086 16.9235 3.08579C16.5552 2.71071 16.0555 2.5 15.5346 2.5C12.7846 2.5 11.9989 6.5 11.9989 6.5Z" stroke="#1C1D20" stroke-width="1.5" stroke-linecap="round" stroke-linejoin="round"/>
</svg>
