<svg width="25" height="25" viewBox="0 0 25 25" fill="none" xmlns="http://www.w3.org/2000/svg">
<g clip-path="url(#clip0_1692_54144)">
<path d="M2.04883 6.02832H21.9983V19.3273H2.04883V6.02832Z" fill="white"/>
<path d="M2.04883 6.02832H21.9983V10.018H2.04883V6.02832Z" fill="#00209F"/>
<path d="M2.04883 15.3379H21.9983V19.3276H2.04883V15.3379Z" fill="#009543"/>
<path d="M12.0202 10.2305C12.0901 10.2304 12.1541 10.2693 12.186 10.3314C12.5803 10.3784 12.7877 10.6639 12.8599 10.996C12.9442 11.3841 12.8549 11.9118 12.581 12.466L13.633 13.8619C13.6888 13.8357 13.744 13.8083 13.7985 13.7794L14.1852 14.5979C12.8275 15.3009 11.213 15.3009 9.85529 14.5979L10.242 13.7794C10.2965 13.8083 10.3517 13.8357 10.4075 13.8619L11.4595 12.466C11.1856 11.9118 11.0963 11.3841 11.1806 10.996C11.2528 10.6639 11.4602 10.3784 11.8545 10.3314C11.8864 10.2693 11.9504 10.2304 12.0202 10.2305ZM12.4369 12.2745C12.6501 11.7983 12.7195 11.3468 12.652 11.0482C12.5924 10.7841 12.4587 10.5879 12.1932 10.5461V11.228L12.5257 11.5606H12.2597V12.0394L12.4369 12.2745ZM11.8473 10.5461C11.5818 10.5879 11.4481 10.7841 11.3885 11.0482C11.321 11.3468 11.3904 11.7983 11.6036 12.2745L11.7808 12.0394V11.5606H11.5148L11.8473 11.228V10.5461ZM10.3709 14.1295L10.2572 14.3699L10.4412 14.3205L10.3709 14.1295ZM10.2783 14.4744C10.3627 14.5107 10.4483 14.5444 10.5348 14.5754L10.4781 14.421L10.2783 14.4744ZM10.697 14.4383L10.9357 14.3628L10.8671 14.2089C10.7686 14.1789 10.6713 14.1452 10.5754 14.1077L10.697 14.4383ZM10.9792 14.4606L10.7339 14.5383L10.7764 14.6537C10.8838 14.6852 10.9923 14.7127 11.1018 14.7359L10.9792 14.4606ZM11.2443 14.5651L11.5072 14.4573L11.4443 14.3383C11.3338 14.3221 11.224 14.3011 11.1153 14.2756L11.2443 14.5651ZM11.5573 14.5518L11.2875 14.6623L11.3398 14.7799C11.4592 14.7985 11.5793 14.8122 11.6998 14.821L11.5573 14.5518ZM11.8224 14.6264L12.1504 14.4549L12.1029 14.3794C11.9633 14.3823 11.8237 14.3779 11.6846 14.3661L11.8224 14.6264ZM12.2076 14.5452L11.8723 14.7205L11.9312 14.8316C12.081 14.8347 12.2308 14.8301 12.3801 14.8179L12.2076 14.5452ZM12.4829 14.6074L12.7409 14.4302L12.6661 14.3274C12.5552 14.3457 12.4436 14.3592 12.3316 14.368L12.4829 14.6074ZM12.8036 14.5162L12.5399 14.6974L12.601 14.7941C12.7217 14.7782 12.8416 14.7573 12.9606 14.7314L12.8036 14.5162ZM13.0435 14.5065L13.2582 14.316L13.1705 14.2098C13.0754 14.2387 12.9792 14.264 12.8822 14.2856L13.0435 14.5065ZM13.3261 14.3979L13.1064 14.5929L13.1701 14.6803C13.2746 14.6521 13.3781 14.62 13.4803 14.5841L13.3261 14.3979ZM13.5451 14.3497L13.6907 14.1742L13.6273 14.04C13.5439 14.077 13.4592 14.111 13.3734 14.1421L13.5451 14.3497ZM13.7411 14.2804L13.6142 14.4331L13.6776 14.5098C13.7257 14.4904 13.7733 14.4701 13.8206 14.449L13.7411 14.2804Z" fill="black"/>
</g>
<defs>
<clipPath id="clip0_1692_54144">
<rect x="2.04883" y="6.02783" width="19.9495" height="13.2997" rx="1" fill="white"/>
</clipPath>
</defs>
</svg>
