<svg width="25" height="25" viewBox="0 0 25 25" fill="none" xmlns="http://www.w3.org/2000/svg">
<g clip-path="url(#clip0_1692_54174)">
<path d="M21.9983 6.02783H2.04883V19.3275H21.9983V6.02783Z" fill="#239E46"/>
<path d="M21.9983 6.02783H2.04883V16.0026H21.9983V6.02783Z" fill="black"/>
<path d="M21.9983 6.02783H2.04883V9.35275H21.9983V6.02783Z" fill="#E70013"/>
<path d="M12.5137 13.855C12.2128 14.1556 11.7973 14.3415 11.3384 14.3415C10.4202 14.3415 9.67575 13.5971 9.67575 12.6788C9.67575 11.7605 10.4202 11.0161 11.3384 11.0161C11.7974 11.0161 12.2128 11.202 12.5137 11.5026C12.2772 11.3336 11.9875 11.2342 11.6746 11.2342C10.8768 11.2342 10.23 11.881 10.23 12.6788C10.23 13.4767 10.8768 14.1235 11.6746 14.1235C11.9875 14.1235 12.2771 14.024 12.5137 13.855Z" fill="white"/>
<path fill-rule="evenodd" clip-rule="evenodd" d="M13.0011 12.4013L12.1469 12.6788L13.0011 12.9564V13.8545L13.5291 13.1279L14.3833 13.4054L13.8553 12.6788L14.3833 11.9522L13.5291 12.2297L13.0011 11.5031V12.4013ZM13.0011 12.4013L13.5291 12.2297L13.8553 12.6788L13.5291 13.1279L13.0011 12.9564V12.4013Z" fill="white"/>
<path d="M13.5291 12.2297L13.0011 12.4013V12.9564L13.5291 13.1279L13.8553 12.6788L13.5291 12.2297Z" fill="white"/>
</g>
<defs>
<clipPath id="clip0_1692_54174">
<rect x="2.04883" y="6.02783" width="19.9495" height="13.2997" rx="1" fill="white"/>
</clipPath>
</defs>
</svg>
