<svg width="25" height="25" viewBox="0 0 25 25" fill="none" xmlns="http://www.w3.org/2000/svg">
<g clip-path="url(#clip0_1692_54016)">
<path d="M22.0003 6.02783H2.05078V19.3275H22.0003V6.02783Z" fill="#002B7F"/>
<path d="M22.0003 12.6777H2.05078V19.3276H22.0003V12.6777Z" fill="#CE1126"/>
<path d="M6.85458 8.73843L6.81383 10.124H5.40787C5.2349 9.78774 5.09204 9.50213 5.09204 9.11539C5.09204 8.79173 5.34661 8.53467 5.71351 8.53467C6.10191 8.53467 6.52865 8.66555 6.85458 8.73843Z" fill="#FFD83D"/>
<path fill-rule="evenodd" clip-rule="evenodd" d="M5.25676 8.7859C5.26594 8.7859 5.27338 8.79335 5.27338 8.80253V9.6023C5.27338 9.61148 5.26594 9.61892 5.25676 9.61892C5.24757 9.61892 5.24013 9.61148 5.24013 9.6023V8.80253C5.24013 8.79335 5.24757 8.7859 5.25676 8.7859Z" fill="black"/>
<path fill-rule="evenodd" clip-rule="evenodd" d="M5.36968 8.70429C5.37886 8.70429 5.3863 8.71173 5.3863 8.72092V9.78579C5.3863 9.79498 5.37886 9.80242 5.36968 9.80242C5.36049 9.80242 5.35305 9.79498 5.35305 9.78579V8.72092C5.35305 8.71173 5.36049 8.70429 5.36968 8.70429Z" fill="black"/>
<path fill-rule="evenodd" clip-rule="evenodd" d="M5.48259 8.64825C5.49178 8.64825 5.49922 8.6557 5.49922 8.66488V9.93352C5.49922 9.9427 5.49178 9.95015 5.48259 9.95015C5.47341 9.95015 5.46597 9.9427 5.46597 9.93352V8.66488C5.46597 8.6557 5.47341 8.64825 5.48259 8.64825Z" fill="black"/>
<path fill-rule="evenodd" clip-rule="evenodd" d="M5.59551 8.62207C5.60469 8.62207 5.61214 8.62952 5.61214 8.6387V9.63368C5.61214 9.64287 5.60469 9.65031 5.59551 9.65031C5.58633 9.65031 5.57888 9.64287 5.57888 9.63368V8.6387C5.57888 8.62952 5.58633 8.62207 5.59551 8.62207Z" fill="black"/>
<path fill-rule="evenodd" clip-rule="evenodd" d="M5.70843 8.61714C5.71761 8.61714 5.72506 8.62458 5.72506 8.63376V9.63862C5.72506 9.6478 5.71761 9.65525 5.70843 9.65525C5.69925 9.65525 5.6918 9.6478 5.6918 9.63862V8.63376C5.6918 8.62458 5.69925 8.61714 5.70843 8.61714Z" fill="black"/>
<path fill-rule="evenodd" clip-rule="evenodd" d="M5.82135 8.58203C5.83053 8.58203 5.83798 8.58948 5.83798 8.59866V9.63807C5.83798 9.64725 5.83053 9.65469 5.82135 9.65469C5.81217 9.65469 5.80472 9.64725 5.80472 9.63807V8.59866C5.80472 8.58948 5.81217 8.58203 5.82135 8.58203Z" fill="black"/>
<path fill-rule="evenodd" clip-rule="evenodd" d="M5.93427 8.58203C5.94345 8.58203 5.95089 8.58948 5.95089 8.59866V9.63807C5.95089 9.64725 5.94345 9.65469 5.93427 9.65469C5.92508 9.65469 5.91764 9.64725 5.91764 9.63807V8.59866C5.91764 8.58948 5.92508 8.58203 5.93427 8.58203Z" fill="black"/>
<path fill-rule="evenodd" clip-rule="evenodd" d="M6.04718 8.59222C6.05637 8.59222 6.06381 8.59966 6.06381 8.60885V9.64826C6.06381 9.65744 6.05637 9.66488 6.04718 9.66488C6.038 9.66488 6.03056 9.65744 6.03056 9.64826V8.60885C6.03056 8.59966 6.038 8.59222 6.04718 8.59222Z" fill="black"/>
<path fill-rule="evenodd" clip-rule="evenodd" d="M6.1601 8.60241C6.16928 8.60241 6.17673 8.60985 6.17673 8.61903V9.65844C6.17673 9.66763 6.16928 9.67507 6.1601 9.67507C6.15092 9.67507 6.14348 9.66763 6.14348 9.65844V8.61903C6.14348 8.60985 6.15092 8.60241 6.1601 8.60241Z" fill="black"/>
<path fill-rule="evenodd" clip-rule="evenodd" d="M6.27302 8.66863C6.2822 8.66863 6.28965 8.67607 6.28965 8.68526V9.72467C6.28965 9.73385 6.2822 9.74129 6.27302 9.74129C6.26384 9.74129 6.25639 9.73385 6.25639 9.72467V8.68526C6.25639 8.67607 6.26384 8.66863 6.27302 8.66863Z" fill="black"/>
<path fill-rule="evenodd" clip-rule="evenodd" d="M6.38594 8.67882C6.39512 8.67882 6.40257 8.68626 6.40257 8.69545V9.8673C6.40257 9.87648 6.39512 9.88393 6.38594 9.88393C6.37676 9.88393 6.36931 9.87648 6.36931 9.8673V8.69545C6.36931 8.68626 6.37676 8.67882 6.38594 8.67882Z" fill="black"/>
<path fill-rule="evenodd" clip-rule="evenodd" d="M6.49886 8.67882C6.50804 8.67882 6.51548 8.68626 6.51548 8.69545V9.73485C6.51548 9.74404 6.50804 9.75148 6.49886 9.75148C6.48967 9.75148 6.48223 9.74404 6.48223 9.73485V8.69545C6.48223 8.68626 6.48967 8.67882 6.49886 8.67882Z" fill="black"/>
<path fill-rule="evenodd" clip-rule="evenodd" d="M6.61177 8.67882C6.62096 8.67882 6.6284 8.68626 6.6284 8.69545V9.73485C6.6284 9.74404 6.62096 9.75148 6.61177 9.75148C6.60259 9.75148 6.59515 9.74404 6.59515 9.73485V8.69545C6.59515 8.68626 6.60259 8.67882 6.61177 8.67882Z" fill="black"/>
<path d="M5.96483 8.64206C6.20345 8.68142 6.72759 8.92665 6.66781 9.25844C6.58309 9.72864 6.30849 9.53994 5.94445 9.47239L5.66938 9.56409C5.57095 9.66455 5.42601 9.75659 5.32807 9.6354H5.16506V10.2722H6.96836V8.73376L5.96483 8.64206Z" fill="black"/>
<path fill-rule="evenodd" clip-rule="evenodd" d="M5.94834 8.63995C5.94947 8.63108 5.95743 8.62469 5.96634 8.62551L6.96987 8.7172C6.97843 8.71798 6.98498 8.72516 6.98498 8.73376V10.2722C6.98498 10.2813 6.97754 10.2888 6.96836 10.2888H5.16506C5.15588 10.2888 5.14844 10.2813 5.14844 10.2722V9.6354C5.14844 9.62622 5.15588 9.61878 5.16506 9.61878H5.32807C5.3331 9.61878 5.33785 9.62105 5.34101 9.62495C5.36347 9.65275 5.38782 9.66744 5.41271 9.67334C5.43781 9.67928 5.46494 9.67661 5.49324 9.66711C5.55033 9.64793 5.60896 9.602 5.6575 9.55245C5.65935 9.55057 5.66161 9.54915 5.66412 9.54831L5.9392 9.45662C5.94187 9.45573 5.94472 9.45553 5.94749 9.45605C6.01796 9.46912 6.08529 9.48674 6.14791 9.50313C6.16679 9.50808 6.18525 9.51291 6.20323 9.51747C6.28157 9.53733 6.35064 9.55196 6.41046 9.55045C6.46945 9.54896 6.51837 9.5318 6.55797 9.48851C6.59824 9.44449 6.6305 9.37172 6.65144 9.2555C6.67949 9.09984 6.57099 8.96115 6.41866 8.8542C6.26726 8.74789 6.0789 8.67773 5.96212 8.65847C5.95329 8.65701 5.9472 8.64883 5.94834 8.63995ZM6.14477 8.6752C6.24058 8.71075 6.34578 8.76239 6.43777 8.82699C6.59223 8.93543 6.71591 9.08525 6.68417 9.26139C6.66275 9.38026 6.62892 9.46023 6.5825 9.51096C6.53542 9.56243 6.47705 9.58203 6.4113 9.58369C6.34637 9.58534 6.27324 9.56952 6.19506 9.5497C6.17659 9.54502 6.15782 9.5401 6.13873 9.53511C6.07758 9.51911 6.01325 9.50227 5.94563 9.48953L5.67842 9.5786C5.62899 9.62853 5.56709 9.67738 5.50383 9.69863C5.47136 9.70954 5.43774 9.71344 5.40504 9.7057C5.37426 9.6984 5.34559 9.68109 5.32032 9.65203H5.18169V10.2555H6.95173V8.74893L6.14477 8.6752Z" fill="black"/>
<path d="M6.77498 8.6419C6.83546 8.6419 6.8845 8.59286 6.8845 8.53238C6.8845 8.47189 6.83546 8.42285 6.77498 8.42285C6.71449 8.42285 6.66545 8.47189 6.66545 8.53238C6.66545 8.59286 6.71449 8.6419 6.77498 8.6419Z" fill="#FFD83D"/>
<path d="M6.52884 8.58266C6.58933 8.58266 6.63836 8.53363 6.63836 8.47314C6.63836 8.41265 6.58933 8.36362 6.52884 8.36362C6.46835 8.36362 6.41932 8.41265 6.41932 8.47314C6.41932 8.53363 6.46835 8.58266 6.52884 8.58266Z" fill="#FFD83D"/>
<path d="M6.27914 8.51995C6.33963 8.51995 6.38866 8.47092 6.38866 8.41043C6.38866 8.34994 6.33963 8.30091 6.27914 8.30091C6.21866 8.30091 6.16962 8.34994 6.16962 8.41043C6.16962 8.47092 6.21866 8.51995 6.27914 8.51995Z" fill="#FFD83D"/>
<path d="M6.02848 8.47814C6.08897 8.47814 6.138 8.42911 6.138 8.36862C6.138 8.30813 6.08897 8.2591 6.02848 8.2591C5.96799 8.2591 5.91896 8.30813 5.91896 8.36862C5.91896 8.42911 5.96799 8.47814 6.02848 8.47814Z" fill="#FFD83D"/>
<path d="M5.77782 8.45342C5.8383 8.45342 5.88734 8.40438 5.88734 8.3439C5.88734 8.28341 5.8383 8.23438 5.77782 8.23438C5.71733 8.23438 5.66829 8.28341 5.66829 8.3439C5.66829 8.40438 5.71733 8.45342 5.77782 8.45342Z" fill="#FFD83D"/>
<path d="M5.53203 8.46743C5.59252 8.46743 5.64155 8.41839 5.64155 8.35791C5.64155 8.29742 5.59252 8.24838 5.53203 8.24838C5.47154 8.24838 5.42251 8.29742 5.42251 8.35791C5.42251 8.41839 5.47154 8.46743 5.53203 8.46743Z" fill="#FFD83D"/>
<path d="M5.2977 8.54766C5.35819 8.54766 5.40722 8.49862 5.40722 8.43814C5.40722 8.37765 5.35819 8.32861 5.2977 8.32861C5.23721 8.32861 5.18818 8.37765 5.18818 8.43814C5.18818 8.49862 5.23721 8.54766 5.2977 8.54766Z" fill="#FFD83D"/>
<path d="M5.10031 8.69284C5.16079 8.69284 5.20983 8.6438 5.20983 8.58332C5.20983 8.52283 5.16079 8.4738 5.10031 8.4738C5.03982 8.4738 4.99079 8.52283 4.99079 8.58332C4.99079 8.6438 5.03982 8.69284 5.10031 8.69284Z" fill="#FFD83D"/>
<path d="M4.96022 8.89533C5.02071 8.89533 5.06974 8.84629 5.06974 8.78581C5.06974 8.72532 5.02071 8.67628 4.96022 8.67628C4.89973 8.67628 4.8507 8.72532 4.8507 8.78581C4.8507 8.84629 4.89973 8.89533 4.96022 8.89533Z" fill="#FFD83D"/>
<path d="M4.89273 9.13347C4.95321 9.13347 5.00225 9.08444 5.00225 9.02395C5.00225 8.96346 4.95321 8.91443 4.89273 8.91443C4.83224 8.91443 4.7832 8.96346 4.7832 9.02395C4.7832 9.08444 4.83224 9.13347 4.89273 9.13347Z" fill="#FFD83D"/>
<path d="M4.89527 9.38054C4.95576 9.38054 5.00479 9.3315 5.00479 9.27101C5.00479 9.21053 4.95576 9.16149 4.89527 9.16149C4.83478 9.16149 4.78575 9.21053 4.78575 9.27101C4.78575 9.3315 4.83478 9.38054 4.89527 9.38054Z" fill="#FFD83D"/>
<path d="M4.94239 9.6225C5.00288 9.6225 5.05191 9.57347 5.05191 9.51298C5.05191 9.45249 5.00288 9.40346 4.94239 9.40346C4.8819 9.40346 4.83287 9.45249 4.83287 9.51298C4.83287 9.57347 4.8819 9.6225 4.94239 9.6225Z" fill="#FFD83D"/>
<path fill-rule="evenodd" clip-rule="evenodd" d="M6.77371 8.44473C6.72546 8.44473 6.68635 8.48384 6.68635 8.53209C6.68635 8.58033 6.72546 8.61944 6.77371 8.61944C6.82195 8.61944 6.86106 8.58033 6.86106 8.53209C6.86106 8.48384 6.82195 8.44473 6.77371 8.44473ZM6.64202 8.53209C6.64202 8.45935 6.70098 8.40039 6.77371 8.40039C6.84644 8.40039 6.9054 8.45935 6.9054 8.53209C6.9054 8.60482 6.84644 8.66378 6.77371 8.66378C6.70098 8.66378 6.64202 8.60482 6.64202 8.53209Z" fill="black"/>
<path fill-rule="evenodd" clip-rule="evenodd" d="M6.52757 8.3855C6.47933 8.3855 6.44022 8.4246 6.44022 8.47285C6.44022 8.52109 6.47933 8.5602 6.52757 8.5602C6.57582 8.5602 6.61493 8.52109 6.61493 8.47285C6.61493 8.4246 6.57582 8.3855 6.52757 8.3855ZM6.39588 8.47285C6.39588 8.40012 6.45484 8.34116 6.52757 8.34116C6.6003 8.34116 6.65926 8.40012 6.65926 8.47285C6.65926 8.54558 6.6003 8.60454 6.52757 8.60454C6.45484 8.60454 6.39588 8.54558 6.39588 8.47285Z" fill="black"/>
<path fill-rule="evenodd" clip-rule="evenodd" d="M6.27787 8.32278C6.22963 8.32278 6.19052 8.36189 6.19052 8.41014C6.19052 8.45838 6.22963 8.49749 6.27787 8.49749C6.32612 8.49749 6.36523 8.45838 6.36523 8.41014C6.36523 8.36189 6.32612 8.32278 6.27787 8.32278ZM6.14618 8.41014C6.14618 8.33741 6.20514 8.27845 6.27787 8.27845C6.35061 8.27845 6.40956 8.33741 6.40956 8.41014C6.40956 8.48287 6.35061 8.54183 6.27787 8.54183C6.20514 8.54183 6.14618 8.48287 6.14618 8.41014Z" fill="black"/>
<path fill-rule="evenodd" clip-rule="evenodd" d="M6.02721 8.28098C5.97897 8.28098 5.93986 8.32009 5.93986 8.36833C5.93986 8.41657 5.97897 8.45568 6.02721 8.45568C6.07545 8.45568 6.11456 8.41657 6.11456 8.36833C6.11456 8.32009 6.07545 8.28098 6.02721 8.28098ZM5.89552 8.36833C5.89552 8.2956 5.95448 8.23664 6.02721 8.23664C6.09994 8.23664 6.1589 8.2956 6.1589 8.36833C6.1589 8.44106 6.09994 8.50002 6.02721 8.50002C5.95448 8.50002 5.89552 8.44106 5.89552 8.36833Z" fill="black"/>
<path fill-rule="evenodd" clip-rule="evenodd" d="M5.77655 8.25625C5.7283 8.25625 5.68919 8.29536 5.68919 8.34361C5.68919 8.39185 5.7283 8.43096 5.77655 8.43096C5.82479 8.43096 5.8639 8.39185 5.8639 8.34361C5.8639 8.29536 5.82479 8.25625 5.77655 8.25625ZM5.64486 8.34361C5.64486 8.27087 5.70382 8.21191 5.77655 8.21191C5.84928 8.21191 5.90824 8.27087 5.90824 8.34361C5.90824 8.41634 5.84928 8.4753 5.77655 8.4753C5.70382 8.4753 5.64486 8.41634 5.64486 8.34361Z" fill="black"/>
<path fill-rule="evenodd" clip-rule="evenodd" d="M5.53076 8.27026C5.48252 8.27026 5.44341 8.30937 5.44341 8.35761C5.44341 8.40586 5.48252 8.44497 5.53076 8.44497C5.579 8.44497 5.61811 8.40586 5.61811 8.35761C5.61811 8.30937 5.579 8.27026 5.53076 8.27026ZM5.39907 8.35761C5.39907 8.28488 5.45803 8.22592 5.53076 8.22592C5.60349 8.22592 5.66245 8.28488 5.66245 8.35761C5.66245 8.43035 5.60349 8.48931 5.53076 8.48931C5.45803 8.48931 5.39907 8.43035 5.39907 8.35761Z" fill="black"/>
<path fill-rule="evenodd" clip-rule="evenodd" d="M5.29643 8.35049C5.24819 8.35049 5.20908 8.3896 5.20908 8.43785C5.20908 8.48609 5.24819 8.5252 5.29643 8.5252C5.34468 8.5252 5.38379 8.48609 5.38379 8.43785C5.38379 8.3896 5.34468 8.35049 5.29643 8.35049ZM5.16474 8.43785C5.16474 8.36511 5.2237 8.30615 5.29643 8.30615C5.36916 8.30615 5.42812 8.36511 5.42812 8.43785C5.42812 8.51058 5.36916 8.56954 5.29643 8.56954C5.2237 8.56954 5.16474 8.51058 5.16474 8.43785Z" fill="black"/>
<path fill-rule="evenodd" clip-rule="evenodd" d="M5.09904 8.49567C5.0508 8.49567 5.01169 8.53478 5.01169 8.58303C5.01169 8.63127 5.0508 8.67038 5.09904 8.67038C5.14728 8.67038 5.18639 8.63127 5.18639 8.58303C5.18639 8.53478 5.14728 8.49567 5.09904 8.49567ZM4.96735 8.58303C4.96735 8.51029 5.02631 8.45133 5.09904 8.45133C5.17177 8.45133 5.23073 8.51029 5.23073 8.58303C5.23073 8.65576 5.17177 8.71472 5.09904 8.71472C5.02631 8.71472 4.96735 8.65576 4.96735 8.58303Z" fill="black"/>
<path fill-rule="evenodd" clip-rule="evenodd" d="M4.95895 8.69816C4.91071 8.69816 4.8716 8.73727 4.8716 8.78551C4.8716 8.83376 4.91071 8.87287 4.95895 8.87287C5.0072 8.87287 5.04631 8.83376 5.04631 8.78551C5.04631 8.73727 5.0072 8.69816 4.95895 8.69816ZM4.82726 8.78551C4.82726 8.71278 4.88622 8.65382 4.95895 8.65382C5.03168 8.65382 5.09064 8.71278 5.09064 8.78551C5.09064 8.85825 5.03168 8.91721 4.95895 8.91721C4.88622 8.91721 4.82726 8.85825 4.82726 8.78551Z" fill="black"/>
<path fill-rule="evenodd" clip-rule="evenodd" d="M4.89146 8.93631C4.84321 8.93631 4.8041 8.97542 4.8041 9.02366C4.8041 9.0719 4.84321 9.11101 4.89146 9.11101C4.9397 9.11101 4.97881 9.0719 4.97881 9.02366C4.97881 8.97542 4.9397 8.93631 4.89146 8.93631ZM4.75977 9.02366C4.75977 8.95093 4.81873 8.89197 4.89146 8.89197C4.96419 8.89197 5.02315 8.95093 5.02315 9.02366C5.02315 9.09639 4.96419 9.15535 4.89146 9.15535C4.81873 9.15535 4.75977 9.09639 4.75977 9.02366Z" fill="black"/>
<path fill-rule="evenodd" clip-rule="evenodd" d="M4.894 9.18337C4.84576 9.18337 4.80665 9.22248 4.80665 9.27072C4.80665 9.31897 4.84576 9.35807 4.894 9.35807C4.94225 9.35807 4.98136 9.31897 4.98136 9.27072C4.98136 9.22248 4.94225 9.18337 4.894 9.18337ZM4.76231 9.27072C4.76231 9.19799 4.82127 9.13903 4.894 9.13903C4.96673 9.13903 5.0257 9.19799 5.0257 9.27072C5.0257 9.34345 4.96673 9.40241 4.894 9.40241C4.82127 9.40241 4.76231 9.34345 4.76231 9.27072Z" fill="black"/>
<path fill-rule="evenodd" clip-rule="evenodd" d="M4.94112 9.42534C4.89288 9.42534 4.85377 9.46445 4.85377 9.51269C4.85377 9.56093 4.89288 9.60004 4.94112 9.60004C4.98937 9.60004 5.02848 9.56093 5.02848 9.51269C5.02848 9.46445 4.98937 9.42534 4.94112 9.42534ZM4.80943 9.51269C4.80943 9.43996 4.86839 9.381 4.94112 9.381C5.01386 9.381 5.07282 9.43996 5.07282 9.51269C5.07282 9.58542 5.01386 9.64438 4.94112 9.64438C4.86839 9.64438 4.80943 9.58542 4.80943 9.51269Z" fill="black"/>
<path d="M6.82276 8.67691L6.81257 8.81954C6.54009 8.77779 6.15382 8.62597 5.79377 8.62597C5.46108 8.62597 5.20286 8.75904 5.20286 9.09462C5.20286 9.42535 5.34292 9.72612 5.52887 10.0319L5.3353 10.1236C5.16232 9.78735 5.01947 9.50174 5.01947 9.11499C5.01947 8.79133 5.27404 8.47314 5.71226 8.47314C6.10066 8.47314 6.49683 8.60402 6.82276 8.67691Z" fill="#FFD83D"/>
<path fill-rule="evenodd" clip-rule="evenodd" d="M5.71105 8.49551C5.28536 8.49551 5.04043 8.80349 5.04043 9.11519C5.04043 9.48873 5.17544 9.76646 5.344 10.0946L5.496 10.0226C5.3158 9.72301 5.17948 9.42415 5.17948 9.09481C5.17948 8.92049 5.24701 8.79629 5.35953 8.71656C5.47087 8.63766 5.6238 8.60399 5.79256 8.60399C5.97539 8.60399 6.16413 8.64251 6.34009 8.68577C6.39101 8.69828 6.44072 8.71115 6.48891 8.72363C6.59868 8.75205 6.70058 8.77843 6.79098 8.79396L6.79808 8.69453C6.72503 8.67786 6.649 8.65863 6.57073 8.63883C6.30069 8.57054 6.00403 8.49551 5.71105 8.49551ZM4.99609 9.11519C4.99609 8.77956 5.26031 8.45117 5.71105 8.45117C6.01013 8.45117 6.31457 8.5282 6.58553 8.59677C6.66941 8.61799 6.75008 8.6384 6.82639 8.65547C6.8371 8.65786 6.84445 8.66773 6.84367 8.67868L6.83348 8.82132C6.83304 8.82749 6.83004 8.8332 6.8252 8.83706C6.82036 8.84092 6.81413 8.84259 6.80801 8.84165C6.70948 8.82655 6.59589 8.79714 6.47538 8.76594C6.42767 8.75359 6.37888 8.74096 6.32951 8.72882C6.1542 8.68573 5.96978 8.64833 5.79256 8.64833C5.62864 8.64833 5.48611 8.6812 5.38517 8.75274C5.2854 8.82343 5.22382 8.93356 5.22382 9.09481C5.22382 9.41923 5.36116 9.71564 5.54661 10.0206C5.54987 10.026 5.55071 10.0325 5.5489 10.0385C5.5471 10.0445 5.54283 10.0495 5.53716 10.0522L5.34358 10.1438C5.33277 10.149 5.31985 10.1446 5.31438 10.134C5.14153 9.79792 4.99609 9.50793 4.99609 9.11519Z" fill="black"/>
<path d="M7.11133 8.73843L7.15208 10.124H8.55804C8.73101 9.78774 8.87387 9.50213 8.87387 9.11539C8.87387 8.79173 8.6193 8.53467 8.25239 8.53467C7.86399 8.53467 7.43726 8.66555 7.11133 8.73843Z" fill="#FFD83D"/>
<path fill-rule="evenodd" clip-rule="evenodd" d="M8.70675 8.7859C8.69757 8.7859 8.69013 8.79335 8.69013 8.80253V9.6023C8.69013 9.61148 8.69757 9.61892 8.70675 9.61892C8.71594 9.61892 8.72338 9.61148 8.72338 9.6023V8.80253C8.72338 8.79335 8.71594 8.7859 8.70675 8.7859Z" fill="black"/>
<path fill-rule="evenodd" clip-rule="evenodd" d="M8.59384 8.70429C8.58465 8.70429 8.57721 8.71173 8.57721 8.72092V9.78579C8.57721 9.79498 8.58465 9.80242 8.59384 9.80242C8.60302 9.80242 8.61046 9.79498 8.61046 9.78579V8.72092C8.61046 8.71173 8.60302 8.70429 8.59384 8.70429Z" fill="black"/>
<path fill-rule="evenodd" clip-rule="evenodd" d="M8.48092 8.64825C8.47173 8.64825 8.46429 8.6557 8.46429 8.66488V9.93352C8.46429 9.9427 8.47173 9.95015 8.48092 9.95015C8.4901 9.95015 8.49754 9.9427 8.49754 9.93352V8.66488C8.49754 8.6557 8.4901 8.64825 8.48092 8.64825Z" fill="black"/>
<path fill-rule="evenodd" clip-rule="evenodd" d="M8.368 8.62207C8.35882 8.62207 8.35137 8.62952 8.35137 8.6387V9.63368C8.35137 9.64287 8.35882 9.65031 8.368 9.65031C8.37718 9.65031 8.38463 9.64287 8.38463 9.63368V8.6387C8.38463 8.62952 8.37718 8.62207 8.368 8.62207Z" fill="black"/>
<path fill-rule="evenodd" clip-rule="evenodd" d="M8.25508 8.61714C8.2459 8.61714 8.23845 8.62458 8.23845 8.63376V9.63862C8.23845 9.6478 8.2459 9.65525 8.25508 9.65525C8.26426 9.65525 8.27171 9.6478 8.27171 9.63862V8.63376C8.27171 8.62458 8.26426 8.61714 8.25508 8.61714Z" fill="black"/>
<path fill-rule="evenodd" clip-rule="evenodd" d="M8.14216 8.58203C8.13298 8.58203 8.12554 8.58948 8.12554 8.59866V9.63807C8.12554 9.64725 8.13298 9.65469 8.14216 9.65469C8.15135 9.65469 8.15879 9.64725 8.15879 9.63807V8.59866C8.15879 8.58948 8.15135 8.58203 8.14216 8.58203Z" fill="black"/>
<path fill-rule="evenodd" clip-rule="evenodd" d="M8.02924 8.58203C8.02006 8.58203 8.01262 8.58948 8.01262 8.59866V9.63807C8.01262 9.64725 8.02006 9.65469 8.02924 9.65469C8.03843 9.65469 8.04587 9.64725 8.04587 9.63807V8.59866C8.04587 8.58948 8.03843 8.58203 8.02924 8.58203Z" fill="black"/>
<path fill-rule="evenodd" clip-rule="evenodd" d="M7.91633 8.59222C7.90714 8.59222 7.8997 8.59966 7.8997 8.60885V9.64826C7.8997 9.65744 7.90714 9.66488 7.91633 9.66488C7.92551 9.66488 7.93295 9.65744 7.93295 9.64826V8.60885C7.93295 8.59966 7.92551 8.59222 7.91633 8.59222Z" fill="black"/>
<path fill-rule="evenodd" clip-rule="evenodd" d="M7.80341 8.60241C7.79423 8.60241 7.78678 8.60985 7.78678 8.61903V9.65844C7.78678 9.66763 7.79423 9.67507 7.80341 9.67507C7.81259 9.67507 7.82004 9.66763 7.82004 9.65844V8.61903C7.82004 8.60985 7.81259 8.60241 7.80341 8.60241Z" fill="black"/>
<path fill-rule="evenodd" clip-rule="evenodd" d="M7.69049 8.66863C7.68131 8.66863 7.67386 8.67607 7.67386 8.68526V9.72467C7.67386 9.73385 7.68131 9.74129 7.69049 9.74129C7.69967 9.74129 7.70712 9.73385 7.70712 9.72467V8.68526C7.70712 8.67607 7.69967 8.66863 7.69049 8.66863Z" fill="black"/>
<path fill-rule="evenodd" clip-rule="evenodd" d="M7.57757 8.67882C7.56839 8.67882 7.56095 8.68626 7.56095 8.69545V9.8673C7.56095 9.87648 7.56839 9.88393 7.57757 9.88393C7.58676 9.88393 7.5942 9.87648 7.5942 9.8673V8.69545C7.5942 8.68626 7.58676 8.67882 7.57757 8.67882Z" fill="black"/>
<path fill-rule="evenodd" clip-rule="evenodd" d="M7.46465 8.67882C7.45547 8.67882 7.44803 8.68626 7.44803 8.69545V9.73485C7.44803 9.74404 7.45547 9.75148 7.46465 9.75148C7.47384 9.75148 7.48128 9.74404 7.48128 9.73485V8.69545C7.48128 8.68626 7.47384 8.67882 7.46465 8.67882Z" fill="black"/>
<path fill-rule="evenodd" clip-rule="evenodd" d="M7.35174 8.67882C7.34255 8.67882 7.33511 8.68626 7.33511 8.69545V9.73485C7.33511 9.74404 7.34255 9.75148 7.35174 9.75148C7.36092 9.75148 7.36836 9.74404 7.36836 9.73485V8.69545C7.36836 8.68626 7.36092 8.67882 7.35174 8.67882Z" fill="black"/>
<path d="M7.99867 8.64204C7.76005 8.6814 7.23591 8.92663 7.29569 9.25842C7.38041 9.72862 7.65501 9.53992 8.01905 9.47237L8.29412 9.56407C8.39255 9.66453 8.53749 9.75657 8.63543 9.63538H8.79844V10.2721H6.99514V8.73374L7.99867 8.64204Z" fill="black"/>
<path fill-rule="evenodd" clip-rule="evenodd" d="M8.01516 8.63993C8.01403 8.63106 8.00607 8.62467 7.99716 8.62549L6.99363 8.71718C6.98507 8.71796 6.97852 8.72514 6.97852 8.73374V10.2721C6.97852 10.2813 6.98596 10.2888 6.99514 10.2888H8.79844C8.80762 10.2888 8.81506 10.2813 8.81506 10.2721V9.63538C8.81506 9.6262 8.80762 9.61876 8.79844 9.61876H8.63543C8.6304 9.61876 8.62565 9.62103 8.62249 9.62493C8.60003 9.65273 8.57568 9.66742 8.55079 9.67332C8.52569 9.67926 8.49856 9.67659 8.47026 9.66709C8.41317 9.64791 8.35454 9.60198 8.306 9.55243C8.30415 9.55055 8.30189 9.54913 8.29938 9.54829L8.0243 9.4566C8.02163 9.45571 8.01878 9.45551 8.01601 9.45603C7.94554 9.4691 7.87821 9.48672 7.81559 9.50312C7.79671 9.50806 7.77825 9.51289 7.76027 9.51745C7.68193 9.53731 7.61286 9.55195 7.55304 9.55043C7.49405 9.54894 7.44513 9.53178 7.40553 9.48849C7.36526 9.44447 7.333 9.3717 7.31205 9.25548C7.28401 9.09983 7.39251 8.96114 7.54484 8.85418C7.69624 8.74787 7.8846 8.67771 8.00138 8.65845C8.01021 8.65699 8.0163 8.64881 8.01516 8.63993ZM7.81873 8.67518C7.72292 8.71073 7.61772 8.76237 7.52573 8.82697C7.37127 8.93542 7.24759 9.08523 7.27933 9.26137C7.30075 9.38024 7.33458 9.46021 7.381 9.51094C7.42808 9.56241 7.48645 9.58201 7.5522 9.58367C7.61713 9.58532 7.69026 9.5695 7.76844 9.54968C7.78691 9.545 7.80568 9.54008 7.82477 9.53509C7.88592 9.51909 7.95025 9.50225 8.01787 9.48951L8.28508 9.57858C8.33451 9.62851 8.39641 9.67736 8.45967 9.69861C8.49214 9.70952 8.52576 9.71342 8.55846 9.70568C8.58924 9.69838 8.61791 9.68107 8.64318 9.65201H8.78181V10.2555H7.01177V8.74892L7.81873 8.67518Z" fill="black"/>
<path d="M7.19546 8.6419C7.13497 8.6419 7.08594 8.59286 7.08594 8.53238C7.08594 8.47189 7.13497 8.42285 7.19546 8.42285C7.25595 8.42285 7.30498 8.47189 7.30498 8.53238C7.30498 8.59286 7.25595 8.6419 7.19546 8.6419Z" fill="#FFD83D"/>
<path d="M7.44159 8.58266C7.38111 8.58266 7.33207 8.53363 7.33207 8.47314C7.33207 8.41265 7.38111 8.36362 7.44159 8.36362C7.50208 8.36362 7.55112 8.41265 7.55112 8.47314C7.55112 8.53363 7.50208 8.58266 7.44159 8.58266Z" fill="#FFD83D"/>
<path d="M7.69129 8.51995C7.63081 8.51995 7.58177 8.47092 7.58177 8.41043C7.58177 8.34994 7.63081 8.30091 7.69129 8.30091C7.75178 8.30091 7.80081 8.34994 7.80081 8.41043C7.80081 8.47092 7.75178 8.51995 7.69129 8.51995Z" fill="#FFD83D"/>
<path d="M7.94196 8.47814C7.88147 8.47814 7.83243 8.42911 7.83243 8.36862C7.83243 8.30813 7.88147 8.2591 7.94196 8.2591C8.00244 8.2591 8.05148 8.30813 8.05148 8.36862C8.05148 8.42911 8.00244 8.47814 7.94196 8.47814Z" fill="#FFD83D"/>
<path d="M8.19262 8.45342C8.13213 8.45342 8.0831 8.40438 8.0831 8.3439C8.0831 8.28341 8.13213 8.23438 8.19262 8.23438C8.25311 8.23438 8.30214 8.28341 8.30214 8.3439C8.30214 8.40438 8.25311 8.45342 8.19262 8.45342Z" fill="#FFD83D"/>
<path d="M8.43841 8.46743C8.37792 8.46743 8.32888 8.41839 8.32888 8.35791C8.32888 8.29742 8.37792 8.24838 8.43841 8.24838C8.49889 8.24838 8.54793 8.29742 8.54793 8.35791C8.54793 8.41839 8.49889 8.46743 8.43841 8.46743Z" fill="#FFD83D"/>
<path d="M8.67273 8.54766C8.61225 8.54766 8.56321 8.49862 8.56321 8.43814C8.56321 8.37765 8.61225 8.32861 8.67273 8.32861C8.73322 8.32861 8.78226 8.37765 8.78226 8.43814C8.78226 8.49862 8.73322 8.54766 8.67273 8.54766Z" fill="#FFD83D"/>
<path d="M8.87013 8.69284C8.80964 8.69284 8.76061 8.6438 8.76061 8.58332C8.76061 8.52283 8.80964 8.4738 8.87013 8.4738C8.93061 8.4738 8.97965 8.52283 8.97965 8.58332C8.97965 8.6438 8.93061 8.69284 8.87013 8.69284Z" fill="#FFD83D"/>
<path d="M9.01021 8.89533C8.94973 8.89533 8.90069 8.84629 8.90069 8.78581C8.90069 8.72532 8.94973 8.67628 9.01021 8.67628C9.0707 8.67628 9.11974 8.72532 9.11974 8.78581C9.11974 8.84629 9.0707 8.89533 9.01021 8.89533Z" fill="#FFD83D"/>
<path d="M9.07771 9.13347C9.01722 9.13347 8.96819 9.08444 8.96819 9.02395C8.96819 8.96346 9.01722 8.91443 9.07771 8.91443C9.1382 8.91443 9.18723 8.96346 9.18723 9.02395C9.18723 9.08444 9.1382 9.13347 9.07771 9.13347Z" fill="#FFD83D"/>
<path d="M9.07516 9.38054C9.01468 9.38054 8.96564 9.3315 8.96564 9.27101C8.96564 9.21053 9.01468 9.16149 9.07516 9.16149C9.13565 9.16149 9.18468 9.21053 9.18468 9.27101C9.18468 9.3315 9.13565 9.38054 9.07516 9.38054Z" fill="#FFD83D"/>
<path d="M9.02804 9.6225C8.96756 9.6225 8.91852 9.57347 8.91852 9.51298C8.91852 9.45249 8.96756 9.40346 9.02804 9.40346C9.08853 9.40346 9.13756 9.45249 9.13756 9.51298C9.13756 9.57347 9.08853 9.6225 9.02804 9.6225Z" fill="#FFD83D"/>
<path fill-rule="evenodd" clip-rule="evenodd" d="M7.19041 8.44473C7.23865 8.44473 7.27776 8.48384 7.27776 8.53209C7.27776 8.58033 7.23865 8.61944 7.19041 8.61944C7.14216 8.61944 7.10305 8.58033 7.10305 8.53209C7.10305 8.48384 7.14216 8.44473 7.19041 8.44473ZM7.3221 8.53209C7.3221 8.45935 7.26314 8.40039 7.19041 8.40039C7.11768 8.40039 7.05872 8.45935 7.05872 8.53209C7.05872 8.60482 7.11768 8.66378 7.19041 8.66378C7.26314 8.66378 7.3221 8.60482 7.3221 8.53209Z" fill="black"/>
<path fill-rule="evenodd" clip-rule="evenodd" d="M7.43654 8.3855C7.48479 8.3855 7.52389 8.4246 7.52389 8.47285C7.52389 8.52109 7.48479 8.5602 7.43654 8.5602C7.3883 8.5602 7.34919 8.52109 7.34919 8.47285C7.34919 8.4246 7.3883 8.3855 7.43654 8.3855ZM7.56823 8.47285C7.56823 8.40012 7.50927 8.34116 7.43654 8.34116C7.36381 8.34116 7.30485 8.40012 7.30485 8.47285C7.30485 8.54558 7.36381 8.60454 7.43654 8.60454C7.50927 8.60454 7.56823 8.54558 7.56823 8.47285Z" fill="black"/>
<path fill-rule="evenodd" clip-rule="evenodd" d="M7.68624 8.32278C7.73448 8.32278 7.77359 8.36189 7.77359 8.41014C7.77359 8.45838 7.73448 8.49749 7.68624 8.49749C7.638 8.49749 7.59889 8.45838 7.59889 8.41014C7.59889 8.36189 7.638 8.32278 7.68624 8.32278ZM7.81793 8.41014C7.81793 8.33741 7.75897 8.27845 7.68624 8.27845C7.61351 8.27845 7.55455 8.33741 7.55455 8.41014C7.55455 8.48287 7.61351 8.54183 7.68624 8.54183C7.75897 8.54183 7.81793 8.48287 7.81793 8.41014Z" fill="black"/>
<path fill-rule="evenodd" clip-rule="evenodd" d="M7.9369 8.28098C7.98515 8.28098 8.02426 8.32009 8.02426 8.36833C8.02426 8.41657 7.98515 8.45568 7.9369 8.45568C7.88866 8.45568 7.84955 8.41657 7.84955 8.36833C7.84955 8.32009 7.88866 8.28098 7.9369 8.28098ZM8.06859 8.36833C8.06859 8.2956 8.00963 8.23664 7.9369 8.23664C7.86417 8.23664 7.80521 8.2956 7.80521 8.36833C7.80521 8.44106 7.86417 8.50002 7.9369 8.50002C8.00963 8.50002 8.06859 8.44106 8.06859 8.36833Z" fill="black"/>
<path fill-rule="evenodd" clip-rule="evenodd" d="M8.18757 8.25625C8.23581 8.25625 8.27492 8.29536 8.27492 8.34361C8.27492 8.39185 8.23581 8.43096 8.18757 8.43096C8.13932 8.43096 8.10021 8.39185 8.10021 8.34361C8.10021 8.29536 8.13932 8.25625 8.18757 8.25625ZM8.31926 8.34361C8.31926 8.27087 8.2603 8.21191 8.18757 8.21191C8.11484 8.21191 8.05588 8.27087 8.05588 8.34361C8.05588 8.41634 8.11484 8.4753 8.18757 8.4753C8.2603 8.4753 8.31926 8.41634 8.31926 8.34361Z" fill="black"/>
<path fill-rule="evenodd" clip-rule="evenodd" d="M8.43335 8.27026C8.4816 8.27026 8.52071 8.30937 8.52071 8.35761C8.52071 8.40586 8.4816 8.44497 8.43335 8.44497C8.38511 8.44497 8.346 8.40586 8.346 8.35761C8.346 8.30937 8.38511 8.27026 8.43335 8.27026ZM8.56505 8.35761C8.56505 8.28488 8.50609 8.22592 8.43335 8.22592C8.36062 8.22592 8.30166 8.28488 8.30166 8.35761C8.30166 8.43035 8.36062 8.48931 8.43335 8.48931C8.50609 8.48931 8.56505 8.43035 8.56505 8.35761Z" fill="black"/>
<path fill-rule="evenodd" clip-rule="evenodd" d="M8.66768 8.35049C8.71592 8.35049 8.75503 8.3896 8.75503 8.43785C8.75503 8.48609 8.71592 8.5252 8.66768 8.5252C8.61944 8.5252 8.58033 8.48609 8.58033 8.43785C8.58033 8.3896 8.61944 8.35049 8.66768 8.35049ZM8.79937 8.43785C8.79937 8.36511 8.74041 8.30615 8.66768 8.30615C8.59495 8.30615 8.53599 8.36511 8.53599 8.43785C8.53599 8.51058 8.59495 8.56954 8.66768 8.56954C8.74041 8.56954 8.79937 8.51058 8.79937 8.43785Z" fill="black"/>
<path fill-rule="evenodd" clip-rule="evenodd" d="M8.86507 8.49567C8.91332 8.49567 8.95243 8.53478 8.95243 8.58303C8.95243 8.63127 8.91332 8.67038 8.86507 8.67038C8.81683 8.67038 8.77772 8.63127 8.77772 8.58303C8.77772 8.53478 8.81683 8.49567 8.86507 8.49567ZM8.99677 8.58303C8.99677 8.51029 8.93781 8.45133 8.86507 8.45133C8.79234 8.45133 8.73338 8.51029 8.73338 8.58303C8.73338 8.65576 8.79234 8.71472 8.86507 8.71472C8.93781 8.71472 8.99677 8.65576 8.99677 8.58303Z" fill="black"/>
<path fill-rule="evenodd" clip-rule="evenodd" d="M9.00516 8.69816C9.0534 8.69816 9.09251 8.73727 9.09251 8.78551C9.09251 8.83376 9.0534 8.87287 9.00516 8.87287C8.95692 8.87287 8.91781 8.83376 8.91781 8.78551C8.91781 8.73727 8.95692 8.69816 9.00516 8.69816ZM9.13685 8.78551C9.13685 8.71278 9.07789 8.65382 9.00516 8.65382C8.93243 8.65382 8.87347 8.71278 8.87347 8.78551C8.87347 8.85825 8.93243 8.91721 9.00516 8.91721C9.07789 8.91721 9.13685 8.85825 9.13685 8.78551Z" fill="black"/>
<path fill-rule="evenodd" clip-rule="evenodd" d="M9.07266 8.93631C9.1209 8.93631 9.16001 8.97542 9.16001 9.02366C9.16001 9.0719 9.1209 9.11101 9.07266 9.11101C9.02441 9.11101 8.9853 9.0719 8.9853 9.02366C8.9853 8.97542 9.02441 8.93631 9.07266 8.93631ZM9.20435 9.02366C9.20435 8.95093 9.14539 8.89197 9.07266 8.89197C8.99993 8.89197 8.94097 8.95093 8.94097 9.02366C8.94097 9.09639 8.99993 9.15535 9.07266 9.15535C9.14539 9.15535 9.20435 9.09639 9.20435 9.02366Z" fill="black"/>
<path fill-rule="evenodd" clip-rule="evenodd" d="M9.07011 9.18337C9.11835 9.18337 9.15746 9.22248 9.15746 9.27072C9.15746 9.31897 9.11835 9.35807 9.07011 9.35807C9.02187 9.35807 8.98276 9.31897 8.98276 9.27072C8.98276 9.22248 9.02187 9.18337 9.07011 9.18337ZM9.2018 9.27072C9.2018 9.19799 9.14284 9.13903 9.07011 9.13903C8.99738 9.13903 8.93842 9.19799 8.93842 9.27072C8.93842 9.34345 8.99738 9.40241 9.07011 9.40241C9.14284 9.40241 9.2018 9.34345 9.2018 9.27072Z" fill="black"/>
<path fill-rule="evenodd" clip-rule="evenodd" d="M9.02299 9.42534C9.07123 9.42534 9.11034 9.46445 9.11034 9.51269C9.11034 9.56093 9.07123 9.60004 9.02299 9.60004C8.97475 9.60004 8.93564 9.56093 8.93564 9.51269C8.93564 9.46445 8.97475 9.42534 9.02299 9.42534ZM9.15468 9.51269C9.15468 9.43996 9.09572 9.381 9.02299 9.381C8.95026 9.381 8.8913 9.43996 8.8913 9.51269C8.8913 9.58542 8.95026 9.64438 9.02299 9.64438C9.09572 9.64438 9.15468 9.58542 9.15468 9.51269Z" fill="black"/>
<path d="M7.14273 8.67691L7.15292 8.81954C7.4254 8.77779 7.81168 8.62597 8.17173 8.62597C8.50441 8.62597 8.76264 8.75904 8.76264 9.09462C8.76264 9.42535 8.62258 9.72612 8.43662 10.0319L8.63019 10.1236C8.80317 9.78735 8.94602 9.50174 8.94602 9.11499C8.94602 8.79133 8.69145 8.47314 8.25323 8.47314C7.86483 8.47314 7.46866 8.60402 7.14273 8.67691Z" fill="#FFD83D"/>
<path fill-rule="evenodd" clip-rule="evenodd" d="M8.25181 8.49551C8.67751 8.49551 8.92243 8.80349 8.92243 9.11519C8.92243 9.48873 8.78743 9.76646 8.61887 10.0946L8.46687 10.0226C8.64707 9.72301 8.78339 9.42415 8.78339 9.09481C8.78339 8.92049 8.71586 8.79629 8.60334 8.71656C8.492 8.63766 8.33907 8.60399 8.17031 8.60399C7.98748 8.60399 7.79874 8.64251 7.62277 8.68577C7.57185 8.69828 7.52214 8.71115 7.47395 8.72363C7.36418 8.75205 7.26229 8.77843 7.17188 8.79396L7.16478 8.69453C7.23784 8.67786 7.31387 8.65863 7.39213 8.63883C7.66218 8.57054 7.95883 8.49551 8.25181 8.49551ZM8.96677 9.11519C8.96677 8.77956 8.70255 8.45117 8.25181 8.45117C7.95273 8.45117 7.64829 8.5282 7.37733 8.59677C7.29345 8.61799 7.21278 8.6384 7.13647 8.65547C7.12576 8.65786 7.11842 8.66773 7.1192 8.67868L7.12939 8.82132C7.12983 8.82749 7.13283 8.8332 7.13767 8.83706C7.14251 8.84092 7.14874 8.84259 7.15486 8.84165C7.25339 8.82655 7.36698 8.79714 7.48749 8.76594C7.5352 8.75359 7.58399 8.74096 7.63336 8.72882C7.80866 8.68573 7.99309 8.64833 8.17031 8.64833C8.33423 8.64833 8.47675 8.6812 8.5777 8.75274C8.67746 8.82343 8.73905 8.93356 8.73905 9.09481C8.73905 9.41923 8.6017 9.71564 8.41626 10.0206C8.41299 10.026 8.41216 10.0325 8.41396 10.0385C8.41576 10.0445 8.42003 10.0495 8.42571 10.0522L8.61928 10.1438C8.63009 10.149 8.64301 10.1446 8.64849 10.134C8.82134 9.79792 8.96677 9.50793 8.96677 9.11519Z" fill="black"/>
<path d="M6.96823 7.20508L6.85392 7.41915L6.96823 7.63253L7.08254 7.41915L6.96823 7.20508ZM6.96823 7.74545L6.85392 7.95883L6.96823 8.17291L7.08254 7.95883L6.96823 7.74545Z" fill="#FFD83D"/>
<path d="M6.56073 7.68899L6.741 7.8033L6.92069 7.68899L6.741 7.57468L6.56073 7.68899ZM7.01578 7.68899L7.19547 7.8033L7.37574 7.68899L7.19547 7.57468L7.01578 7.68899Z" fill="#FFD83D"/>
<path fill-rule="evenodd" clip-rule="evenodd" d="M6.96678 7.18311C6.97497 7.18311 6.98248 7.18761 6.98634 7.19483L7.10065 7.4089C7.10414 7.41544 7.10413 7.42329 7.10063 7.42982L6.98632 7.6432C6.98246 7.6504 6.97495 7.6549 6.96678 7.6549C6.95861 7.6549 6.9511 7.6504 6.94724 7.6432L6.83293 7.42982C6.82943 7.42329 6.82943 7.41544 6.83292 7.4089L6.94723 7.19483C6.95108 7.18761 6.9586 7.18311 6.96678 7.18311ZM6.87761 7.41933L6.96678 7.58578L7.05595 7.41933L6.96678 7.25234L6.87761 7.41933ZM6.96678 7.72348C6.97495 7.72348 6.98246 7.72798 6.98632 7.73518L7.10063 7.94856C7.10413 7.95509 7.10414 7.96294 7.10065 7.96947L6.98634 8.18355C6.98248 8.19076 6.97497 8.19527 6.96678 8.19527C6.9586 8.19527 6.95108 8.19076 6.94723 8.18355L6.83292 7.96947C6.82943 7.96294 6.82943 7.95509 6.83293 7.94856L6.94724 7.73518C6.9511 7.72798 6.95861 7.72348 6.96678 7.72348ZM6.87761 7.95905L6.96678 8.12604L7.05595 7.95905L6.96678 7.7926L6.87761 7.95905Z" fill="black"/>
<path fill-rule="evenodd" clip-rule="evenodd" d="M6.72768 7.55616C6.73493 7.55155 6.7442 7.55156 6.75145 7.55617L6.93113 7.67048C6.93753 7.67455 6.9414 7.68161 6.9414 7.68919C6.9414 7.69677 6.93753 7.70382 6.93113 7.70789L6.75145 7.8222C6.7442 7.82682 6.73493 7.82682 6.72768 7.82222L6.54741 7.70791C6.54099 7.70385 6.53711 7.69678 6.53711 7.68919C6.53711 7.6816 6.54099 7.67453 6.54741 7.67047L6.72768 7.55616ZM7.18212 7.55617C7.18937 7.55156 7.19863 7.55155 7.20589 7.55616L7.38616 7.67047C7.39257 7.67453 7.39645 7.6816 7.39645 7.68919C7.39645 7.69678 7.39257 7.70385 7.38616 7.70791L7.20589 7.82222C7.19863 7.82682 7.18937 7.82682 7.18212 7.8222L7.00243 7.70789C6.99603 7.70382 6.99216 7.69677 6.99216 7.68919C6.99216 7.68161 6.99603 7.67455 7.00243 7.67048L7.18212 7.55617ZM6.60068 7.68919L6.73953 7.77724L6.87793 7.68919L6.73953 7.60114L6.60068 7.68919ZM7.19403 7.60114L7.05563 7.68919L7.19403 7.77724L7.33289 7.68919L7.19403 7.60114Z" fill="black"/>
<path d="M6.97284 7.78113C7.02149 7.78113 7.06092 7.7417 7.06092 7.69306C7.06092 7.64441 7.02149 7.60498 6.97284 7.60498C6.9242 7.60498 6.88477 7.64441 6.88477 7.69306C6.88477 7.7417 6.9242 7.78113 6.97284 7.78113Z" fill="#FFD83D"/>
<path fill-rule="evenodd" clip-rule="evenodd" d="M6.97257 7.62756C6.93681 7.62756 6.90783 7.65654 6.90783 7.69229C6.90783 7.72805 6.93681 7.75703 6.97257 7.75703C7.00832 7.75703 7.0373 7.72805 7.0373 7.69229C7.0373 7.65654 7.00832 7.62756 6.97257 7.62756ZM6.86328 7.69229C6.86328 7.63194 6.91221 7.58301 6.97257 7.58301C7.03292 7.58301 7.08185 7.63194 7.08185 7.69229C7.08185 7.75265 7.03292 7.80158 6.97257 7.80158C6.91221 7.80158 6.86328 7.75265 6.86328 7.69229Z" fill="black"/>
<path d="M6.97311 8.47846C7.10173 8.47846 7.206 8.37419 7.206 8.24558C7.206 8.11696 7.10173 8.0127 6.97311 8.0127C6.8445 8.0127 6.74023 8.11696 6.74023 8.24558C6.74023 8.37419 6.8445 8.47846 6.97311 8.47846Z" fill="#FFD83D"/>
<path fill-rule="evenodd" clip-rule="evenodd" d="M6.97586 8.03478C6.85954 8.03478 6.76525 8.12908 6.76525 8.24539C6.76525 8.3617 6.85954 8.456 6.97586 8.456C7.09217 8.456 7.18646 8.3617 7.18646 8.24539C7.18646 8.12908 7.09217 8.03478 6.97586 8.03478ZM6.7207 8.24539C6.7207 8.10447 6.83494 7.99023 6.97586 7.99023C7.11678 7.99023 7.23101 8.10447 7.23101 8.24539C7.23101 8.38631 7.11678 8.50054 6.97586 8.50054C6.83494 8.50054 6.7207 8.38631 6.7207 8.24539Z" fill="black"/>
<path fill-rule="evenodd" clip-rule="evenodd" d="M7.0276 8.00421C7.03384 8.00162 7.04102 8.00304 7.0458 8.0078L7.21147 8.17277C7.21662 8.1779 7.21786 8.18577 7.21454 8.19223C7.21122 8.1987 7.20411 8.20228 7.19694 8.20109C7.14342 8.19218 7.08873 8.18636 7.03327 8.1839C7.02434 8.1835 7.01731 8.17614 7.01731 8.16721V8.01964C7.01731 8.01289 7.02137 8.0068 7.0276 8.00421ZM6.9228 8.00422C6.92902 8.00681 6.93308 8.01289 6.93308 8.01964C6.93308 8.06982 6.93282 8.10486 6.9326 8.1347C6.93252 8.14614 6.93244 8.15682 6.93238 8.1673C6.93234 8.1762 6.92531 8.1835 6.91642 8.1839C6.86096 8.18636 6.80627 8.19218 6.75275 8.20109C6.74558 8.20228 6.73845 8.19869 6.73514 8.19222C6.73182 8.18574 6.73308 8.17787 6.73825 8.17275L6.90461 8.00777C6.9094 8.00302 6.91657 8.00162 6.9228 8.00422ZM6.79789 8.16065C6.83126 8.15635 6.86501 8.15321 6.89907 8.15131C6.89911 8.1458 6.89915 8.14017 6.89919 8.13435C6.89935 8.11323 6.89952 8.08958 6.89961 8.05979L6.79789 8.16065ZM7.05072 8.05985V8.15132C7.0848 8.15322 7.11858 8.15636 7.15197 8.16068L7.05072 8.05985ZM6.97484 8.30016C6.89893 8.30016 6.82457 8.30661 6.75207 8.31872C6.74297 8.32024 6.73436 8.3141 6.73284 8.305C6.73132 8.2959 6.73746 8.28729 6.74656 8.28577C6.82083 8.27336 6.89703 8.26675 6.97484 8.26675C7.05266 8.26675 7.12886 8.27336 7.20313 8.28577C7.21223 8.28729 7.21837 8.2959 7.21685 8.305C7.21533 8.3141 7.20672 8.32024 7.19762 8.31872C7.12512 8.30661 7.05076 8.30016 6.97484 8.30016Z" fill="black"/>
<path d="M6.74337 8.63623C6.72138 9.01493 6.67667 9.40061 6.5293 9.68096L6.769 9.58397C6.85272 9.26631 6.87031 8.85587 6.89578 8.66186L6.74337 8.63623ZM7.19645 8.63623L7.04404 8.66186C7.06951 8.85587 7.0871 9.26631 7.17082 9.58397L7.41053 9.68096C7.26315 9.40061 7.21844 9.01493 7.19645 8.63623Z" fill="#FFD83D"/>
<path fill-rule="evenodd" clip-rule="evenodd" d="M6.72633 8.6186C6.73125 8.61468 6.73761 8.61303 6.74382 8.61408L6.89624 8.63971C6.90801 8.64169 6.9161 8.65263 6.91454 8.66446C6.9078 8.71583 6.90156 8.78346 6.89439 8.86112C6.87495 9.07172 6.84871 9.356 6.78722 9.58933C6.78544 9.59608 6.78057 9.60161 6.7741 9.60423L6.53439 9.70122C6.52577 9.70471 6.51588 9.70244 6.50964 9.69554C6.5034 9.68865 6.50212 9.67859 6.50645 9.67035C6.65134 9.39474 6.69601 9.01356 6.71802 8.63465C6.71838 8.62837 6.7214 8.62253 6.72633 8.6186ZM7.20705 8.6186C7.21198 8.62253 7.215 8.62837 7.21536 8.63465C7.23737 9.01356 7.28204 9.39474 7.42693 9.67035C7.43126 9.67859 7.42998 9.68865 7.42374 9.69554C7.4175 9.70244 7.40761 9.70471 7.39899 9.70122L7.15928 9.60423C7.15281 9.60161 7.14794 9.59608 7.14616 9.58933C7.08467 9.35599 7.05843 9.07171 7.03899 8.86111C7.03182 8.78346 7.02558 8.71583 7.01884 8.66446C7.01729 8.65263 7.02537 8.64169 7.03714 8.63971L7.18956 8.61408C7.19577 8.61303 7.20213 8.61468 7.20705 8.6186ZM6.76082 8.6619C6.7397 9.00976 6.69789 9.36535 6.57168 9.6383L6.74714 9.56731C6.8056 9.34002 6.83067 9.0684 6.84975 8.86163C6.85613 8.79243 6.86185 8.73049 6.86792 8.67991L6.76082 8.6619ZM7.06546 8.67991C7.07153 8.73049 7.07725 8.79242 7.08363 8.86163C7.10271 9.06839 7.12778 9.34001 7.18625 9.56731L7.36171 9.6383C7.23549 9.36535 7.19368 9.00976 7.17257 8.6619L7.06546 8.67991Z" fill="black"/>
<path d="M6.97416 9.45605C6.68788 9.45605 6.47758 9.59099 6.46496 9.93477C6.39498 9.81162 6.09894 9.42431 5.82274 9.47615C5.65847 9.50698 5.51332 9.73477 5.538 9.99574C5.402 9.6049 5.00357 9.54085 4.71289 9.77197C4.97099 9.98418 5.0858 10.6107 5.30315 10.8825H6.97416H8.64517C8.86251 10.6107 8.97802 9.98418 9.23612 9.77197C8.94544 9.54085 8.54701 9.6049 8.41101 9.99574C8.43569 9.73477 8.28985 9.50698 8.12558 9.47615C7.84938 9.42431 7.55403 9.81162 7.48405 9.93477C7.47142 9.59099 7.26044 9.45605 6.97416 9.45605Z" fill="#FFD83D"/>
<path fill-rule="evenodd" clip-rule="evenodd" d="M6.60116 9.54982C6.69647 9.46853 6.82647 9.43408 6.97277 9.43408C7.11906 9.43408 7.24923 9.46853 7.3447 9.54981C7.42799 9.62071 7.48243 9.72513 7.4996 9.86686C7.54642 9.7985 7.62135 9.70475 7.71123 9.62358C7.82912 9.51714 7.97916 9.42657 8.12827 9.45455C8.21881 9.47155 8.30103 9.54183 8.35696 9.63876C8.39764 9.70926 8.42527 9.79515 8.43259 9.88844C8.50928 9.74666 8.62681 9.66035 8.75909 9.62923C8.91951 9.5915 9.09862 9.63562 9.24852 9.75481C9.25376 9.75898 9.25684 9.76529 9.2569 9.77198C9.25695 9.77868 9.25398 9.78504 9.24881 9.78929C9.1875 9.8397 9.13352 9.91576 9.08354 10.0076C9.03367 10.0992 8.98864 10.2049 8.94451 10.3135C8.93427 10.3386 8.92407 10.364 8.91387 10.3893C8.88029 10.4728 8.84673 10.5562 8.8117 10.6335C8.76606 10.7343 8.71718 10.8264 8.66109 10.8966C8.65688 10.9018 8.65051 10.9049 8.64378 10.9049H5.30176C5.29502 10.9049 5.28865 10.9018 5.28444 10.8966C5.22835 10.8264 5.17951 10.7343 5.13393 10.6335C5.09893 10.5561 5.06541 10.4727 5.03188 10.3892C5.02172 10.3639 5.01157 10.3386 5.00137 10.3134C4.95732 10.2049 4.91238 10.0992 4.86257 10.0076C4.81266 9.91576 4.75872 9.83969 4.69742 9.78929C4.69225 9.78504 4.68928 9.77868 4.68933 9.77198C4.68939 9.76529 4.69246 9.75898 4.6977 9.75481C4.84761 9.63562 5.02671 9.5915 5.18714 9.62923C5.3194 9.66035 5.43692 9.74664 5.51361 9.88839C5.52087 9.79514 5.54837 9.70927 5.58891 9.63878C5.64466 9.54185 5.72671 9.47155 5.81726 9.45455C5.96637 9.42657 6.11658 9.51713 6.23463 9.62357C6.32467 9.70474 6.39973 9.79851 6.44662 9.86688C6.46374 9.72516 6.51803 9.62073 6.60116 9.54982ZM6.62993 9.58356C6.54584 9.65528 6.49187 9.76845 6.48572 9.93578C6.48536 9.94569 6.47846 9.95415 6.46884 9.9565C6.45921 9.95886 6.44919 9.95454 6.44429 9.94592C6.41038 9.88625 6.32033 9.76053 6.20494 9.6565C6.08843 9.55145 5.95253 9.47428 5.82544 9.49813C5.75172 9.51197 5.67906 9.57098 5.62734 9.66089C5.5759 9.75033 5.54677 9.86793 5.55868 9.99385C5.55974 10.005 5.55229 10.0152 5.54133 10.0176C5.53038 10.02 5.51936 10.0138 5.51568 10.0032C5.44993 9.81428 5.32187 9.70648 5.17698 9.67239C5.03876 9.63988 4.88248 9.67385 4.74649 9.77335C4.80522 9.82798 4.85586 9.90239 4.90153 9.98641C4.95263 10.0804 4.99836 10.1881 5.04245 10.2968C5.05281 10.3223 5.06306 10.3478 5.07328 10.3732C5.10674 10.4566 5.13976 10.5388 5.17433 10.6152C5.21759 10.7109 5.26258 10.7958 5.31254 10.8605H8.633C8.68296 10.7958 8.72799 10.7109 8.77132 10.6152C8.80591 10.5389 8.83898 10.4567 8.87248 10.3734C8.88274 10.3479 8.89304 10.3223 8.90343 10.2967C8.94761 10.1881 8.99343 10.0804 9.0446 9.9864C9.09032 9.90238 9.141 9.82798 9.19974 9.77335C9.06374 9.67385 8.90747 9.63988 8.76924 9.67239C8.62436 9.70648 8.4963 9.81428 8.43055 10.0032C8.42687 10.0138 8.41585 10.02 8.40489 10.0176C8.39394 10.0152 8.38649 10.005 8.38754 9.99385C8.39945 9.86795 8.37017 9.75036 8.31856 9.66092C8.26667 9.571 8.19383 9.51197 8.1201 9.49813C7.99301 9.47428 7.85728 9.55145 7.74095 9.65649C7.62574 9.76052 7.53586 9.88623 7.50194 9.94592C7.49704 9.95454 7.48702 9.95886 7.47739 9.9565C7.46776 9.95415 7.46087 9.94569 7.46051 9.93578C7.45436 9.76848 7.40023 9.65531 7.31596 9.58357C7.23122 9.51144 7.11275 9.47842 6.97277 9.47842C6.83278 9.47842 6.7145 9.51144 6.62993 9.58356Z" fill="black"/>
<path d="M6.97272 8.64267C7.01562 8.64267 7.0504 8.60789 7.0504 8.56499C7.0504 8.52209 7.01562 8.4873 6.97272 8.4873C6.92981 8.4873 6.89503 8.52209 6.89503 8.56499C6.89503 8.60789 6.92981 8.64267 6.97272 8.64267Z" fill="#FFD83D"/>
<path d="M6.97272 8.81587C7.01843 8.81587 7.0555 8.77881 7.0555 8.73309C7.0555 8.68738 7.01843 8.65031 6.97272 8.65031C6.927 8.65031 6.88994 8.68738 6.88994 8.73309C6.88994 8.77881 6.927 8.81587 6.97272 8.81587Z" fill="#FFD83D"/>
<path d="M6.97272 9.00435C7.02265 9.00435 7.06314 8.96387 7.06314 8.91393C7.06314 8.86399 7.02265 8.82351 6.97272 8.82351C6.92278 8.82351 6.8823 8.86399 6.8823 8.91393C6.8823 8.96387 6.92278 9.00435 6.97272 9.00435Z" fill="#FFD83D"/>
<path d="M6.97272 9.2183C7.02969 9.2183 7.07587 9.17212 7.07587 9.11515C7.07587 9.05818 7.02969 9.01199 6.97272 9.01199C6.91575 9.01199 6.86956 9.05818 6.86956 9.11515C6.86956 9.17212 6.91575 9.2183 6.97272 9.2183Z" fill="#FFD83D"/>
<path d="M6.97272 9.45263C7.03531 9.45263 7.08606 9.40188 7.08606 9.33928C7.08606 9.27669 7.03531 9.22594 6.97272 9.22594C6.91012 9.22594 6.85938 9.27669 6.85938 9.33928C6.85938 9.40188 6.91012 9.45263 6.97272 9.45263Z" fill="#FFD83D"/>
<path fill-rule="evenodd" clip-rule="evenodd" d="M6.97372 8.50396C6.94 8.50396 6.91266 8.53129 6.91266 8.56501C6.91266 8.59874 6.94 8.62607 6.97372 8.62607C7.00744 8.62607 7.03478 8.59874 7.03478 8.56501C7.03478 8.53129 7.00744 8.50396 6.97372 8.50396ZM6.87941 8.56501C6.87941 8.51293 6.92163 8.4707 6.97372 8.4707C7.02581 8.4707 7.06803 8.51293 7.06803 8.56501C7.06803 8.6171 7.02581 8.65933 6.97372 8.65933C6.92163 8.65933 6.87941 8.6171 6.87941 8.56501Z" fill="black"/>
<path fill-rule="evenodd" clip-rule="evenodd" d="M6.97372 8.66697C6.93719 8.66697 6.90757 8.69658 6.90757 8.73312C6.90757 8.76965 6.93719 8.79927 6.97372 8.79927C7.01025 8.79927 7.03987 8.76965 7.03987 8.73312C7.03987 8.69658 7.01025 8.66697 6.97372 8.66697ZM6.87431 8.73312C6.87431 8.67822 6.91882 8.63371 6.97372 8.63371C7.02862 8.63371 7.07312 8.67822 7.07312 8.73312C7.07312 8.78802 7.02862 8.83252 6.97372 8.83252C6.91882 8.83252 6.87431 8.78802 6.87431 8.73312Z" fill="black"/>
<path fill-rule="evenodd" clip-rule="evenodd" d="M6.97372 8.84016C6.93297 8.84016 6.89993 8.8732 6.89993 8.91396C6.89993 8.95471 6.93297 8.98775 6.97372 8.98775C7.01447 8.98775 7.04751 8.95471 7.04751 8.91396C7.04751 8.8732 7.01447 8.84016 6.97372 8.84016ZM6.86667 8.91396C6.86667 8.85484 6.9146 8.80691 6.97372 8.80691C7.03284 8.80691 7.08077 8.85484 7.08077 8.91396C7.08077 8.97308 7.03284 9.021 6.97372 9.021C6.9146 9.021 6.86667 8.97308 6.86667 8.91396Z" fill="black"/>
<path fill-rule="evenodd" clip-rule="evenodd" d="M6.97372 9.02864C6.92593 9.02864 6.88719 9.06738 6.88719 9.11517C6.88719 9.16296 6.92593 9.2017 6.97372 9.2017C7.02151 9.2017 7.06025 9.16296 7.06025 9.11517C7.06025 9.06738 7.02151 9.02864 6.97372 9.02864ZM6.85394 9.11517C6.85394 9.04902 6.90757 8.99539 6.97372 8.99539C7.03987 8.99539 7.0935 9.04902 7.0935 9.11517C7.0935 9.18132 7.03987 9.23495 6.97372 9.23495C6.90757 9.23495 6.85394 9.18132 6.85394 9.11517Z" fill="black"/>
<path fill-rule="evenodd" clip-rule="evenodd" d="M6.97372 9.24259C6.92031 9.24259 6.877 9.28589 6.877 9.33931C6.877 9.39272 6.92031 9.43602 6.97372 9.43602C7.02713 9.43602 7.07044 9.39272 7.07044 9.33931C7.07044 9.28589 7.02713 9.24259 6.97372 9.24259ZM6.84375 9.33931C6.84375 9.26753 6.90194 9.20934 6.97372 9.20934C7.0455 9.20934 7.10369 9.26753 7.10369 9.33931C7.10369 9.41109 7.0455 9.46928 6.97372 9.46928C6.90194 9.46928 6.84375 9.41109 6.84375 9.33931Z" fill="black"/>
<path d="M6.92927 9.55664C6.91701 9.55649 6.90541 9.56682 6.90848 9.58643C6.91209 9.60957 6.91662 9.65283 6.92095 9.68204C6.92585 9.71514 6.94514 9.70709 6.95005 9.68134C6.95495 9.65561 6.95298 9.63909 6.95421 9.59128C6.95482 9.56738 6.94152 9.55679 6.92927 9.55664ZM7.01933 9.55664C7.00707 9.55679 6.99377 9.56738 6.99439 9.59128C6.99562 9.63909 6.99364 9.65561 6.99854 9.68134C7.00345 9.70709 7.02274 9.71514 7.02764 9.68204C7.03197 9.65283 7.0365 9.60957 7.04011 9.58643C7.04318 9.56682 7.03159 9.55649 7.01933 9.55664ZM6.8489 9.56911C6.83769 9.57067 6.82606 9.58198 6.82673 9.59405C6.82795 9.61612 6.83406 9.64258 6.83643 9.6758C6.83888 9.71012 6.86307 9.69679 6.86553 9.67719C6.86798 9.65757 6.87075 9.62859 6.8683 9.59059C6.86738 9.57634 6.86116 9.57007 6.85375 9.56911C6.85221 9.56891 6.8505 9.56889 6.8489 9.56911ZM7.09484 9.56911C7.08744 9.57007 7.08121 9.57634 7.08029 9.59059C7.07785 9.62859 7.08062 9.65757 7.08306 9.67719C7.08552 9.69679 7.10971 9.71012 7.11216 9.6758C7.11454 9.64258 7.12064 9.61612 7.12186 9.59405C7.12253 9.58198 7.11091 9.57067 7.09969 9.56911C7.09809 9.56889 7.09638 9.56891 7.09484 9.56911ZM6.7526 9.60791C6.74234 9.61056 6.73291 9.62291 6.73598 9.63701C6.7421 9.6652 6.74775 9.69638 6.74775 9.72499C6.74775 9.74951 6.76869 9.74076 6.76992 9.7236C6.77114 9.70644 6.77339 9.6701 6.77339 9.63701C6.77339 9.6123 6.76287 9.60526 6.7526 9.60791ZM7.18906 9.60791C7.18177 9.60993 7.17521 9.61847 7.17521 9.63701C7.17521 9.6701 7.17745 9.70644 7.17867 9.7236C7.1799 9.74076 7.20084 9.74951 7.20084 9.72499C7.20084 9.69638 7.20649 9.6652 7.21262 9.63701C7.21568 9.62291 7.20626 9.61056 7.19599 9.60791C7.19342 9.60725 7.19149 9.60724 7.18906 9.60791ZM5.879 9.6117C5.86671 9.61129 5.85809 9.62795 5.86652 9.64634C5.88 9.67576 5.89433 9.69433 5.90809 9.72601C5.92035 9.75421 5.93916 9.73663 5.93303 9.717C5.9269 9.69739 5.92024 9.67554 5.90186 9.63387C5.89496 9.61824 5.88636 9.61194 5.879 9.6117ZM8.0696 9.6117C8.06223 9.61194 8.05363 9.61824 8.04674 9.63387C8.02835 9.67554 8.02169 9.69739 8.01556 9.717C8.00943 9.73663 8.02824 9.75421 8.0405 9.72601C8.05427 9.69433 8.06859 9.67576 8.08207 9.64634C8.0905 9.62795 8.08188 9.61129 8.0696 9.6117ZM5.96767 9.61308C5.95863 9.61584 5.95315 9.62731 5.95867 9.6408C5.96971 9.66776 5.98564 9.69541 5.99677 9.72462C6.00657 9.75036 6.02838 9.74307 6.02102 9.71977C6.01366 9.69648 6.01148 9.68285 5.99677 9.63872C5.98941 9.61666 5.97671 9.61033 5.96767 9.61308ZM7.97399 9.61308C7.96626 9.61473 7.95734 9.62217 7.95182 9.63872C7.93711 9.68285 7.93493 9.69648 7.92758 9.71977C7.92021 9.74307 7.94202 9.75036 7.95182 9.72462C7.96296 9.69541 7.97889 9.66776 7.98993 9.6408C7.99544 9.62731 7.98996 9.61584 7.98092 9.61308C7.97866 9.61239 7.97657 9.61253 7.97399 9.61308ZM6.07852 9.63456C6.06712 9.63673 6.05829 9.65412 6.06605 9.67544C6.07586 9.7024 6.08981 9.72793 6.10207 9.75857C6.11433 9.78922 6.13469 9.78303 6.12979 9.76342C6.12488 9.74381 6.11887 9.7113 6.10415 9.66227C6.09772 9.64082 6.08738 9.63287 6.07852 9.63456ZM7.87007 9.63456C7.86121 9.63287 7.85088 9.64082 7.84444 9.66227C7.82972 9.7113 7.82371 9.74381 7.81881 9.76342C7.8139 9.78303 7.83426 9.78922 7.84652 9.75857C7.85878 9.72793 7.87273 9.7024 7.88254 9.67544C7.8903 9.65412 7.88147 9.63673 7.87007 9.63456ZM5.80417 9.6498C5.79183 9.65106 5.78058 9.6712 5.78824 9.68652C5.80051 9.71104 5.80827 9.71938 5.82011 9.74541C5.83237 9.77238 5.8458 9.75149 5.84089 9.73432C5.83599 9.71716 5.8297 9.69717 5.82357 9.67266C5.81908 9.65471 5.81158 9.64905 5.80417 9.6498ZM8.14442 9.6498C8.13701 9.64905 8.12951 9.65471 8.12502 9.67266C8.1189 9.69717 8.11261 9.71716 8.1077 9.73432C8.1028 9.75149 8.11622 9.77238 8.12848 9.74541C8.14032 9.71938 8.14808 9.71104 8.16035 9.68652C8.16801 9.6712 8.15676 9.65106 8.14442 9.6498ZM6.65838 9.71183C6.64544 9.71182 6.63162 9.72899 6.63621 9.74508C6.64357 9.77083 6.65494 9.79365 6.66323 9.82683C6.67059 9.85625 6.69148 9.8416 6.69025 9.82198C6.68902 9.80237 6.68566 9.77568 6.67709 9.734C6.67387 9.71837 6.66615 9.71183 6.65838 9.71183ZM7.29021 9.71183C7.28244 9.71183 7.27472 9.71837 7.2715 9.734C7.26293 9.77568 7.25957 9.80237 7.25834 9.82198C7.25711 9.8416 7.27801 9.85625 7.28536 9.82683C7.29366 9.79365 7.30502 9.77083 7.31238 9.74508C7.31697 9.72899 7.30315 9.71182 7.29021 9.71183ZM6.9743 9.73815C6.95835 9.73815 6.95615 9.75956 6.95559 9.77695C6.95376 9.83395 6.9301 9.88932 6.90987 9.91689C6.88964 9.94448 6.85986 9.93714 6.83227 9.92244C6.80469 9.90773 6.78825 9.8967 6.75884 9.87463C6.72941 9.85257 6.7071 9.86547 6.74221 9.91551C6.84458 10.0614 6.95559 10.1861 6.95559 10.424C6.95559 10.4548 6.96097 10.4642 6.9743 10.4642C6.98763 10.4642 6.99369 10.4548 6.99369 10.424C6.99369 10.1861 7.10402 10.0614 7.20638 9.91551C7.24149 9.86547 7.21918 9.85257 7.18975 9.87463C7.16034 9.8967 7.14391 9.90773 7.11632 9.92244C7.08873 9.93714 7.05895 9.94448 7.03873 9.91689C7.01849 9.88932 6.99483 9.83395 6.993 9.77695C6.99244 9.75956 6.99024 9.73815 6.9743 9.73815ZM6.19214 9.70245C6.19074 9.70242 6.18922 9.70276 6.18798 9.70315C6.18203 9.70502 6.17806 9.71221 6.18036 9.72462C6.18447 9.74684 6.19987 9.79039 6.20599 9.81122C6.21213 9.83207 6.23775 9.82763 6.23163 9.79944C6.22549 9.77125 6.22582 9.76273 6.21846 9.73086C6.21444 9.71343 6.2019 9.70272 6.19214 9.70245ZM7.75646 9.70245C7.74669 9.70272 7.73415 9.71343 7.73013 9.73086C7.72278 9.76273 7.7231 9.77125 7.71697 9.79944C7.71084 9.82763 7.73647 9.83207 7.7426 9.81122C7.74873 9.79039 7.76412 9.74684 7.76823 9.72462C7.77053 9.71221 7.76657 9.70502 7.76061 9.70315C7.75937 9.70276 7.75785 9.70242 7.75646 9.70245ZM5.72727 9.71146C5.71444 9.71247 5.70524 9.72859 5.71827 9.75234C5.73232 9.77798 5.75642 9.81016 5.76746 9.82854C5.77849 9.84693 5.79757 9.83452 5.78408 9.81122C5.7706 9.78793 5.76607 9.76118 5.75014 9.72809C5.74416 9.71567 5.73497 9.71086 5.72727 9.71146ZM8.22132 9.71146C8.21362 9.71086 8.20443 9.71567 8.19846 9.72809C8.18252 9.76118 8.17799 9.78793 8.16451 9.81122C8.15102 9.83452 8.17011 9.84693 8.18114 9.82854C8.19217 9.81016 8.21627 9.77798 8.23032 9.75234C8.24335 9.72859 8.23415 9.71247 8.22132 9.71146ZM5.02478 9.78526C5.00998 9.78448 5.00534 9.81121 5.01924 9.82891C5.03948 9.85465 5.05355 9.8683 5.07674 9.88918C5.09514 9.90573 5.10049 9.88425 5.09129 9.86771C5.0821 9.85116 5.0688 9.83433 5.05042 9.80674C5.04034 9.79162 5.03151 9.78562 5.02478 9.78526ZM8.92381 9.78526C8.91708 9.78562 8.90825 9.79162 8.89817 9.80674C8.87979 9.83433 8.86649 9.85116 8.8573 9.86771C8.84811 9.88425 8.85345 9.90573 8.87185 9.88918C8.89504 9.8683 8.90912 9.85465 8.92935 9.82891C8.94325 9.81121 8.93861 9.78448 8.92381 9.78526ZM5.13632 9.80743C5.12452 9.80759 5.11674 9.8163 5.12593 9.83653C5.1391 9.86548 5.15646 9.89829 5.1675 9.92036C5.17853 9.94242 5.21215 9.94983 5.19868 9.91551C5.18519 9.88119 5.18253 9.86355 5.17027 9.83168C5.16414 9.81574 5.14812 9.80728 5.13632 9.80743ZM8.81227 9.80743C8.80047 9.80728 8.78445 9.81574 8.77832 9.83168C8.76606 9.86355 8.76341 9.88119 8.74992 9.91551C8.73644 9.94983 8.77006 9.94242 8.78109 9.92036C8.79213 9.89829 8.80949 9.86548 8.82266 9.83653C8.83185 9.8163 8.82407 9.80759 8.81227 9.80743ZM4.92017 9.81505C4.90302 9.81523 4.90154 9.83243 4.91671 9.84346C4.93694 9.85817 4.96105 9.87449 4.9846 9.89334C5.01218 9.9154 5.02287 9.89511 5.00816 9.87671C4.99345 9.85833 4.97912 9.83968 4.94234 9.82129C4.93315 9.81669 4.92589 9.81499 4.92017 9.81505ZM9.02842 9.81505C9.0227 9.81499 9.01544 9.81669 9.00625 9.82129C8.96947 9.83968 8.95514 9.85833 8.94043 9.87671C8.92573 9.89511 8.93641 9.9154 8.96399 9.89334C8.98754 9.87449 9.01165 9.85817 9.03188 9.84346C9.04705 9.83243 9.04557 9.81523 9.02842 9.81505ZM6.59742 9.83099C6.58782 9.83233 6.57954 9.84323 6.58356 9.85731C6.59092 9.88305 6.59926 9.91033 6.60435 9.93698C6.60925 9.96273 6.63904 9.96305 6.63414 9.93976C6.62924 9.91646 6.62678 9.88732 6.6182 9.85177C6.61498 9.83844 6.60826 9.83204 6.60158 9.83099C6.60018 9.83077 6.59879 9.8308 6.59742 9.83099ZM7.34702 9.83099C7.34033 9.83204 7.33361 9.83844 7.33039 9.85177C7.32182 9.88732 7.31935 9.91646 7.31446 9.93976C7.30955 9.96305 7.33934 9.96273 7.34425 9.93698C7.34933 9.91033 7.35768 9.88305 7.36503 9.85731C7.36905 9.84323 7.36077 9.83233 7.35117 9.83099C7.3498 9.8308 7.34841 9.83077 7.34702 9.83099ZM5.93026 9.78697C5.92272 9.78906 5.91839 9.80347 5.92403 9.82369C5.95529 9.93586 5.96487 9.99494 5.95936 10.0225C5.95384 10.0501 5.93871 10.0539 5.91848 10.0447C5.89826 10.0355 5.87452 10.0222 5.85613 10.0094C5.83775 9.99648 5.81863 10.0119 5.84505 10.0336C5.97928 10.1439 6.07232 10.27 6.10831 10.423C6.11566 10.4542 6.1353 10.4579 6.12979 10.423C6.09936 10.2303 6.09351 10.0719 6.13948 9.97264C6.15676 9.93533 6.13936 9.89949 6.11177 9.96017C6.09339 10.0006 6.06363 10.0166 6.03972 9.98165C6.01582 9.94672 5.96645 9.85352 5.95174 9.81122C5.94622 9.79536 5.93941 9.78802 5.93373 9.78697C5.93254 9.78676 5.93134 9.78668 5.93026 9.78697ZM8.01487 9.78697C8.00918 9.78802 8.00237 9.79536 7.99685 9.81122C7.98215 9.85352 7.93277 9.94672 7.90887 9.98165C7.88496 10.0166 7.8552 10.0006 7.83682 9.96017C7.80923 9.89949 7.79183 9.93533 7.80911 9.97264C7.85508 10.0719 7.84923 10.2303 7.81881 10.423C7.81329 10.4579 7.83293 10.4542 7.84028 10.423C7.87627 10.27 7.96931 10.1439 8.10354 10.0336C8.12997 10.0119 8.11084 9.99648 8.09246 10.0094C8.07407 10.0222 8.05033 10.0355 8.03011 10.0447C8.00988 10.0539 7.99475 10.0501 7.98923 10.0225C7.98372 9.99494 7.9933 9.93586 8.02457 9.82369C8.0302 9.80347 8.02587 9.78906 8.01833 9.78697C8.01725 9.78668 8.01605 9.78676 8.01487 9.78697ZM5.25548 9.84069C5.24338 9.84084 5.23334 9.84932 5.23886 9.86771C5.2477 9.89716 5.26599 9.92899 5.27211 9.94738C5.27825 9.96576 5.29796 9.95718 5.29428 9.93144C5.2906 9.9057 5.28879 9.89036 5.28389 9.86216C5.28144 9.84807 5.26759 9.84053 5.25548 9.84069ZM8.69311 9.84069C8.681 9.84053 8.66716 9.84807 8.6647 9.86216C8.6598 9.89036 8.65799 9.9057 8.65431 9.93144C8.65064 9.95718 8.67035 9.96576 8.67648 9.94738C8.68261 9.92899 8.70089 9.89716 8.70974 9.86771C8.71525 9.84932 8.70521 9.84084 8.69311 9.84069ZM5.67185 9.80222C5.65777 9.79969 5.65575 9.83601 5.66769 9.85071C5.68363 9.87034 5.70577 9.89405 5.72797 9.92068C5.74635 9.94276 5.75771 9.92313 5.74667 9.90475C5.73564 9.88635 5.71928 9.86681 5.68986 9.82023C5.68251 9.80858 5.67654 9.80306 5.67185 9.80222ZM8.27674 9.80222C8.27205 9.80306 8.26609 9.80858 8.25873 9.82023C8.22931 9.86681 8.21295 9.88635 8.20192 9.90475C8.19088 9.92313 8.20224 9.94276 8.22063 9.92068C8.24283 9.89405 8.26496 9.87034 8.2809 9.85071C8.29284 9.83601 8.29082 9.79969 8.27674 9.80222ZM5.3504 9.88987C5.34166 9.88926 5.33425 9.89635 5.33793 9.91412C5.34305 9.93887 5.3505 9.95942 5.35663 9.98271C5.36276 10.006 5.3788 10.002 5.3788 9.97994C5.3788 9.95787 5.37486 9.93326 5.37118 9.90997C5.36934 9.89832 5.35913 9.89049 5.3504 9.88987ZM8.5982 9.88987C8.58946 9.89049 8.57925 9.89832 8.57741 9.90997C8.57374 9.93326 8.56979 9.95787 8.56979 9.97994C8.56979 10.002 8.58584 10.006 8.59196 9.98271C8.5981 9.95942 8.60554 9.93887 8.61067 9.91412C8.61434 9.89635 8.60693 9.88926 8.5982 9.88987ZM5.64068 9.92138C5.62696 9.92345 5.61488 9.93671 5.63098 9.9574C5.65672 9.99049 5.6849 10.0137 5.69471 10.026C5.70452 10.0382 5.72935 10.0337 5.71342 10.008C5.69713 9.98167 5.67249 9.95 5.66146 9.93038C5.65732 9.92303 5.64891 9.92013 5.64068 9.92138ZM8.30237 9.92138C8.29634 9.92201 8.29024 9.92487 8.28713 9.93038C8.2761 9.95 8.25146 9.98167 8.23517 10.008C8.21924 10.0337 8.24408 10.0382 8.25388 10.026C8.26369 10.0137 8.29188 9.99049 8.31762 9.9574C8.33371 9.93671 8.32164 9.92345 8.30792 9.92138C8.30586 9.92107 8.30439 9.92116 8.30237 9.92138ZM5.18274 10.0139C5.17192 10.0129 5.16818 10.0216 5.18274 10.0416C5.21583 10.0869 5.25234 10.1556 5.25479 10.185C5.25725 10.2144 5.2427 10.2141 5.22916 10.2141C5.1887 10.2141 5.16894 10.1846 5.13217 10.176C5.09539 10.1674 5.09005 10.1868 5.11623 10.2058C5.25107 10.3039 5.38623 10.4133 5.44046 10.5127C5.46252 10.5531 5.49235 10.5679 5.47579 10.5293C5.42509 10.411 5.4128 10.3108 5.42383 10.2501C5.43487 10.1894 5.44992 10.1486 5.44808 10.1136C5.44624 10.0787 5.42643 10.0811 5.41829 10.1136C5.41277 10.1357 5.40209 10.165 5.39473 10.176C5.38738 10.187 5.35781 10.1932 5.32961 10.1552C5.30142 10.1172 5.23028 10.044 5.20699 10.0257C5.19825 10.0188 5.18924 10.0145 5.18274 10.0139ZM8.76585 10.0139C8.75936 10.0145 8.75034 10.0188 8.7416 10.0257C8.71831 10.044 8.64718 10.1172 8.61898 10.1552C8.59078 10.1932 8.56121 10.187 8.55386 10.176C8.5465 10.165 8.53582 10.1357 8.5303 10.1136C8.52216 10.0811 8.50235 10.0787 8.50051 10.1136C8.49867 10.1486 8.51372 10.1894 8.52476 10.2501C8.53579 10.3108 8.5235 10.411 8.4728 10.5293C8.45625 10.5679 8.48607 10.5531 8.50813 10.5127C8.56237 10.4133 8.69752 10.3039 8.83236 10.2058C8.85854 10.1868 8.8532 10.1674 8.81643 10.176C8.77965 10.1846 8.75989 10.2141 8.71943 10.2141C8.70589 10.2141 8.69134 10.2144 8.6938 10.185C8.69625 10.1556 8.73276 10.0869 8.76585 10.0416C8.78041 10.0216 8.77668 10.0129 8.76585 10.0139Z" fill="black"/>
<path d="M8.64089 10.883C8.64089 11.0067 7.89463 11.1428 6.97513 11.1428C6.05564 11.1428 5.30938 11.0067 5.30938 10.883C5.30938 10.7592 6.05564 10.6945 6.97513 10.6945C7.89463 10.6945 8.64089 10.7592 8.64089 10.883Z" fill="black"/>
<path fill-rule="evenodd" clip-rule="evenodd" d="M5.35193 10.8535C5.33089 10.8664 5.32601 10.8766 5.32601 10.883C5.32601 10.8898 5.3315 10.9011 5.35279 10.916C5.37322 10.9304 5.40436 10.9452 5.44595 10.9601C5.52891 10.9898 5.6498 11.0182 5.80014 11.0429C6.10059 11.0922 6.51611 11.1261 6.97513 11.1261C7.43416 11.1261 7.84968 11.0922 8.15013 11.0429C8.30047 11.0182 8.42136 10.9898 8.50432 10.9601C8.54591 10.9452 8.57705 10.9304 8.59748 10.916C8.61877 10.9011 8.62426 10.8898 8.62426 10.883C8.62426 10.8766 8.61938 10.8664 8.59834 10.8535C8.57809 10.8411 8.54708 10.8289 8.50546 10.8173C8.42248 10.7942 8.30156 10.7747 8.15109 10.7589C7.8504 10.7273 7.4346 10.7111 6.97513 10.7111C6.51567 10.7111 6.09987 10.7273 5.79918 10.7589C5.64871 10.7747 5.52779 10.7942 5.44481 10.8173C5.40319 10.8289 5.37218 10.8411 5.35193 10.8535ZM5.79571 10.7258C6.09803 10.6941 6.51511 10.6779 6.97513 10.6779C7.43516 10.6779 7.85224 10.6941 8.15456 10.7258C8.30559 10.7417 8.4287 10.7615 8.51438 10.7853C8.55709 10.7972 8.59156 10.8104 8.61572 10.8252C8.63908 10.8395 8.65752 10.8584 8.65752 10.883C8.65752 10.9071 8.63969 10.9271 8.61657 10.9433C8.5926 10.9601 8.55826 10.9761 8.51552 10.9914C8.42982 11.0221 8.30668 11.0509 8.15552 11.0757C7.85296 11.1253 7.4356 11.1594 6.97513 11.1594C6.51467 11.1594 6.09731 11.1253 5.79475 11.0757C5.64359 11.0509 5.52045 11.0221 5.43475 10.9914C5.39201 10.9761 5.35767 10.9601 5.3337 10.9433C5.31058 10.9271 5.29276 10.9071 5.29276 10.883C5.29276 10.8584 5.31119 10.8395 5.33455 10.8252C5.35871 10.8104 5.39318 10.7972 5.43589 10.7853C5.52157 10.7615 5.64468 10.7417 5.79571 10.7258Z" fill="black"/>
<path fill-rule="evenodd" clip-rule="evenodd" d="M6.97512 10.5684C6.9843 10.5684 6.99174 10.5758 6.99174 10.585V10.7429C6.99174 10.7521 6.9843 10.7595 6.97512 10.7595C6.96593 10.7595 6.95849 10.7521 6.95849 10.7429V10.585C6.95849 10.5758 6.96593 10.5684 6.97512 10.5684ZM6.80874 10.5777C6.81791 10.5773 6.82566 10.5844 6.82605 10.5936L6.83206 10.737C6.83244 10.7462 6.82532 10.754 6.81614 10.7543C6.80697 10.7547 6.79922 10.7476 6.79884 10.7384L6.79282 10.595C6.79244 10.5858 6.79956 10.5781 6.80874 10.5777ZM7.14149 10.5777C7.15067 10.5781 7.1578 10.5858 7.15741 10.595L7.1514 10.7384C7.15101 10.7476 7.14326 10.7547 7.13409 10.7543C7.12491 10.754 7.11779 10.7462 7.11817 10.737L7.12419 10.5936C7.12457 10.5844 7.13232 10.5773 7.14149 10.5777ZM6.67546 10.5813C6.68464 10.5809 6.69239 10.588 6.69277 10.5972L6.69878 10.7406C6.69917 10.7498 6.69204 10.7576 6.68287 10.7579C6.67369 10.7583 6.66594 10.7512 6.66556 10.742L6.65955 10.5986C6.65916 10.5894 6.66629 10.5817 6.67546 10.5813ZM7.27477 10.5813C7.28394 10.5817 7.29107 10.5894 7.29069 10.5986L7.28467 10.742C7.28429 10.7512 7.27654 10.7583 7.26736 10.7579C7.25819 10.7576 7.25106 10.7498 7.25145 10.7406L7.25746 10.5972C7.25785 10.588 7.2656 10.5809 7.27477 10.5813ZM6.55944 10.5885C6.56861 10.5881 6.57642 10.5951 6.57689 10.6043L6.58413 10.7477C6.58459 10.7568 6.57753 10.7647 6.56836 10.7651C6.55919 10.7656 6.55138 10.7585 6.55091 10.7493L6.54367 10.606C6.54321 10.5968 6.55027 10.589 6.55944 10.5885ZM7.39079 10.5885C7.39996 10.589 7.40702 10.5968 7.40656 10.606L7.39932 10.7493C7.39885 10.7585 7.39104 10.7656 7.38187 10.7651C7.3727 10.7647 7.36564 10.7568 7.36611 10.7477L7.37335 10.6043C7.37381 10.5951 7.38162 10.5881 7.39079 10.5885ZM6.45421 10.5958C6.46337 10.5952 6.47124 10.6022 6.47179 10.6114L6.48029 10.7547C6.48083 10.7639 6.47384 10.7717 6.46468 10.7723C6.45551 10.7728 6.44764 10.7658 6.44709 10.7567L6.43859 10.6134C6.43805 10.6042 6.44504 10.5963 6.45421 10.5958ZM7.49603 10.5958C7.50519 10.5963 7.51218 10.6042 7.51164 10.6134L7.50314 10.7567C7.50259 10.7658 7.49472 10.7728 7.48555 10.7723C7.47639 10.7717 7.4694 10.7639 7.46994 10.7547L7.47844 10.6114C7.47899 10.6022 7.48686 10.5952 7.49603 10.5958ZM6.33814 10.5958C6.3473 10.5952 6.35524 10.6021 6.35586 10.6113L6.36566 10.7545C6.36629 10.7637 6.35937 10.7716 6.35021 10.7722C6.34105 10.7729 6.33311 10.7659 6.33249 10.7568L6.32269 10.6136C6.32206 10.6044 6.32898 10.5965 6.33814 10.5958ZM7.61209 10.5958C7.62125 10.5965 7.62817 10.6044 7.62754 10.6136L7.61774 10.7568C7.61712 10.7659 7.60918 10.7729 7.60002 10.7722C7.59086 10.7716 7.58394 10.7637 7.58457 10.7545L7.59437 10.6113C7.59499 10.6021 7.60293 10.5952 7.61209 10.5958ZM6.22875 10.6071C6.23786 10.606 6.24617 10.6125 6.24731 10.6216L6.26512 10.764C6.26626 10.7731 6.2598 10.7814 6.25069 10.7826C6.24158 10.7837 6.23326 10.7772 6.23213 10.7681L6.21431 10.6257C6.21317 10.6166 6.21964 10.6083 6.22875 10.6071ZM7.72148 10.6071C7.7306 10.6083 7.73706 10.6166 7.73592 10.6257L7.71811 10.7681C7.71697 10.7772 7.70866 10.7837 7.69954 10.7826C7.69043 10.7814 7.68397 10.7731 7.68511 10.764L7.70292 10.6216C7.70406 10.6125 7.71237 10.606 7.72148 10.6071ZM6.00902 10.6143C6.01813 10.6132 6.02644 10.6197 6.02758 10.6288L6.0454 10.7712C6.04654 10.7803 6.04007 10.7886 6.03096 10.7898C6.02185 10.7909 6.01354 10.7844 6.0124 10.7753L5.99459 10.6329C5.99345 10.6238 5.99991 10.6155 6.00902 10.6143ZM7.94121 10.6143C7.95032 10.6155 7.95678 10.6238 7.95564 10.6329L7.93783 10.7753C7.93669 10.7844 7.92838 10.7909 7.91927 10.7898C7.91016 10.7886 7.90369 10.7803 7.90483 10.7712L7.92265 10.6288C7.92379 10.6197 7.9321 10.6132 7.94121 10.6143ZM6.12069 10.6215C6.1298 10.6204 6.13811 10.6269 6.13925 10.636L6.15706 10.7784C6.1582 10.7875 6.15174 10.7958 6.14263 10.797C6.13351 10.7981 6.1252 10.7916 6.12406 10.7825L6.10625 10.6401C6.10511 10.631 6.11157 10.6227 6.12069 10.6215ZM7.82955 10.6215C7.83866 10.6227 7.84512 10.631 7.84398 10.6401L7.82617 10.7825C7.82503 10.7916 7.81672 10.7981 7.80761 10.797C7.79849 10.7958 7.79203 10.7875 7.79317 10.7784L7.81098 10.636C7.81212 10.6269 7.82043 10.6204 7.82955 10.6215ZM5.76816 10.6544C5.77722 10.6529 5.78576 10.6591 5.78722 10.6682L5.81012 10.8099C5.81159 10.8189 5.80543 10.8275 5.79636 10.8289C5.7873 10.8304 5.77876 10.8242 5.77729 10.8152L5.75439 10.6735C5.75293 10.6644 5.75909 10.6559 5.76816 10.6544ZM8.18208 10.6544C8.19114 10.6559 8.1973 10.6644 8.19584 10.6735L8.17294 10.8152C8.17147 10.8242 8.16294 10.8304 8.15387 10.8289C8.14481 10.8275 8.13864 10.8189 8.14011 10.8099L8.16301 10.6682C8.16447 10.6591 8.17301 10.6529 8.18208 10.6544ZM5.88954 10.6546C5.89859 10.653 5.9072 10.6591 5.90878 10.6681L5.93344 10.8095C5.93502 10.8186 5.92896 10.8272 5.91992 10.8287C5.91087 10.8303 5.90226 10.8243 5.90068 10.8152L5.87602 10.6738C5.87444 10.6648 5.88049 10.6562 5.88954 10.6546ZM8.06069 10.6546C8.06974 10.6562 8.07579 10.6648 8.07421 10.6738L8.04955 10.8152C8.04797 10.8243 8.03936 10.8303 8.03032 10.8287C8.02127 10.8272 8.01522 10.8186 8.01679 10.8095L8.04145 10.6681C8.04303 10.6591 8.05164 10.653 8.06069 10.6546ZM5.65325 10.6658C5.66225 10.664 5.67101 10.6698 5.67282 10.6788L5.70098 10.8196C5.70278 10.8286 5.69695 10.8373 5.68794 10.8392C5.67894 10.841 5.67018 10.8351 5.66837 10.8261L5.64021 10.6854C5.63841 10.6764 5.64425 10.6676 5.65325 10.6658ZM8.29698 10.6658C8.30599 10.6676 8.31182 10.6764 8.31002 10.6854L8.28186 10.8261C8.28006 10.8351 8.2713 10.841 8.26229 10.8392C8.25329 10.8373 8.24745 10.8286 8.24925 10.8196L8.27741 10.6788C8.27922 10.6698 8.28798 10.664 8.29698 10.6658ZM5.56434 10.6836C5.57337 10.6819 5.58205 10.6879 5.58373 10.6969L5.61005 10.838C5.61173 10.847 5.60578 10.8557 5.59675 10.8574C5.58772 10.8591 5.57904 10.8531 5.57736 10.8441L5.55104 10.703C5.54936 10.694 5.55531 10.6853 5.56434 10.6836ZM8.38589 10.6836C8.39492 10.6853 8.40087 10.694 8.39919 10.703L8.37287 10.8441C8.37119 10.8531 8.36251 10.8591 8.35348 10.8574C8.34445 10.8557 8.3385 10.847 8.34018 10.838L8.3665 10.6969C8.36818 10.6879 8.37687 10.6819 8.38589 10.6836ZM5.46691 10.6997C5.47576 10.6972 5.48492 10.7024 5.48737 10.7113L5.52567 10.8496C5.52812 10.8585 5.52293 10.8676 5.51408 10.8701C5.50523 10.8725 5.49607 10.8673 5.49362 10.8585L5.45532 10.7202C5.45287 10.7113 5.45806 10.7021 5.46691 10.6997ZM8.48332 10.6997C8.49217 10.7021 8.49736 10.7113 8.49491 10.7202L8.45661 10.8585C8.45416 10.8673 8.445 10.8725 8.43615 10.8701C8.4273 10.8676 8.42211 10.8585 8.42456 10.8496L8.46286 10.7113C8.46531 10.7024 8.47447 10.6972 8.48332 10.6997ZM5.37743 10.7258C5.38618 10.723 5.39552 10.7279 5.39829 10.7367L5.44151 10.8735C5.44428 10.8823 5.43942 10.8916 5.43066 10.8944C5.42191 10.8972 5.41257 10.8923 5.4098 10.8836L5.36658 10.7467C5.36381 10.7379 5.36867 10.7286 5.37743 10.7258ZM8.57281 10.7258C8.58156 10.7286 8.58642 10.7379 8.58365 10.7467L8.54043 10.8836C8.53766 10.8923 8.52832 10.8972 8.51957 10.8944C8.51081 10.8916 8.50595 10.8823 8.50872 10.8735L8.55194 10.7367C8.55471 10.7279 8.56405 10.723 8.57281 10.7258Z" fill="black"/>
</g>
<defs>
<clipPath id="clip0_1692_54016">
<rect x="2.05078" y="6.02783" width="19.9495" height="13.2997" rx="1" fill="white"/>
</clipPath>
</defs>
</svg>
