<svg width="22" height="22" viewBox="0 0 22 22" fill="none" xmlns="http://www.w3.org/2000/svg">
<path d="M9.79882 8.6L10.3988 9.05L9.79882 8.6ZM8.29882 10.6L7.69882 10.15L8.29882 10.6ZM13.6988 10.6L13.0988 11.05L13.6988 10.6ZM12.1988 8.6L12.7988 8.15V8.15L12.1988 8.6ZM18.25 11C18.25 15.0041 15.0041 18.25 11 18.25V19.75C15.8325 19.75 19.75 15.8325 19.75 11H18.25ZM11 18.25C6.99594 18.25 3.75 15.0041 3.75 11H2.25C2.25 15.8325 6.16751 19.75 11 19.75V18.25ZM3.75 11C3.75 6.99594 6.99594 3.75 11 3.75V2.25C6.16751 2.25 2.25 6.16751 2.25 11H3.75ZM11 3.75C15.0041 3.75 18.25 6.99594 18.25 11H19.75C19.75 6.16751 15.8325 2.25 11 2.25V3.75ZM4.25 19C4.25 19.6904 3.69036 20.25 3 20.25V21.75C4.51878 21.75 5.75 20.5188 5.75 19H4.25ZM3 20.25C2.30964 20.25 1.75 19.6904 1.75 19H0.25C0.25 20.5188 1.48122 21.75 3 21.75V20.25ZM1.75 19C1.75 18.3096 2.30964 17.75 3 17.75V16.25C1.48122 16.25 0.25 17.4812 0.25 19H1.75ZM3 17.75C3.69036 17.75 4.25 18.3096 4.25 19H5.75C5.75 17.4812 4.51878 16.25 3 16.25V17.75ZM20.25 19C20.25 19.6904 19.6904 20.25 19 20.25V21.75C20.5188 21.75 21.75 20.5188 21.75 19H20.25ZM19 20.25C18.3096 20.25 17.75 19.6904 17.75 19H16.25C16.25 20.5188 17.4812 21.75 19 21.75V20.25ZM17.75 19C17.75 18.3096 18.3096 17.75 19 17.75V16.25C17.4812 16.25 16.25 17.4812 16.25 19H17.75ZM19 17.75C19.6904 17.75 20.25 18.3096 20.25 19H21.75C21.75 17.4812 20.5188 16.25 19 16.25V17.75ZM4.25 3C4.25 3.69036 3.69036 4.25 3 4.25V5.75C4.51878 5.75 5.75 4.51878 5.75 3H4.25ZM3 4.25C2.30964 4.25 1.75 3.69036 1.75 3H0.25C0.25 4.51878 1.48122 5.75 3 5.75V4.25ZM1.75 3C1.75 2.30964 2.30964 1.75 3 1.75V0.25C1.48122 0.25 0.25 1.48122 0.25 3H1.75ZM3 1.75C3.69036 1.75 4.25 2.30964 4.25 3H5.75C5.75 1.48122 4.51878 0.25 3 0.25V1.75ZM20.25 3C20.25 3.69036 19.6904 4.25 19 4.25V5.75C20.5188 5.75 21.75 4.51878 21.75 3H20.25ZM19 4.25C18.3096 4.25 17.75 3.69036 17.75 3H16.25C16.25 4.51878 17.4812 5.75 19 5.75V4.25ZM17.75 3C17.75 2.30964 18.3096 1.75 19 1.75V0.25C17.4812 0.25 16.25 1.48122 16.25 3H17.75ZM19 1.75C19.6904 1.75 20.25 2.30964 20.25 3H21.75C21.75 1.48122 20.5188 0.25 19 0.25V1.75ZM9.19882 8.15L7.69882 10.15L8.89882 11.05L10.3988 9.05L9.19882 8.15ZM9.49882 13.75H12.4988V12.25H9.49882V13.75ZM14.2988 10.15L12.7988 8.15L11.5988 9.05L13.0988 11.05L14.2988 10.15ZM12.4988 13.75C14.3529 13.75 15.4113 11.6333 14.2988 10.15L13.0988 11.05C13.4696 11.5444 13.1169 12.25 12.4988 12.25V13.75ZM7.69882 10.15C6.58636 11.6333 7.64472 13.75 9.49882 13.75V12.25C8.88078 12.25 8.528 11.5444 8.89882 11.05L7.69882 10.15ZM10.3988 9.05C10.6988 8.65 11.2988 8.65 11.5988 9.05L12.7988 8.15C11.8988 6.95 10.0988 6.95 9.19882 8.15L10.3988 9.05Z" fill="#1C1D20"/>
</svg>
