<svg width="25" height="25" viewBox="0 0 25 25" fill="none" xmlns="http://www.w3.org/2000/svg">
<g clip-path="url(#clip0_1692_54115)">
<path d="M2.56055 6.28564H22.5101V19.5853H2.56055V6.28564Z" fill="#006B3F"/>
<path d="M2.56055 11.6885H22.5101V13.3509H2.56055V11.6885Z" fill="#FCD116"/>
<path d="M2.56055 12.5195H22.5101V14.182H2.56055V12.5195Z" fill="white"/>
<path d="M2.56055 12.5195H22.5101V13.3508H2.56055V12.5195Z" fill="black"/>
<path d="M11.2871 6.28564H12.9496V19.5853H11.2871V6.28564Z" fill="#FCD116"/>
<path d="M12.1191 6.28564H13.7816V19.5853H12.1191V6.28564Z" fill="white"/>
<path d="M12.1191 6.28564H12.9504V19.5853H12.1191V6.28564Z" fill="black"/>
<path d="M12.537 15.4295C13.9144 15.4295 15.0311 14.3129 15.0311 12.9355C15.0311 11.558 13.9144 10.4414 12.537 10.4414C11.1596 10.4414 10.043 11.558 10.043 12.9355C10.043 14.3129 11.1596 15.4295 12.537 15.4295Z" fill="#D41C30"/>
<path d="M12.4567 10.9664L12.5367 10.7383L12.6093 10.9627L12.8529 10.9664L12.6602 11.1136L12.7475 11.3638L12.5367 11.2093L12.3295 11.3565L12.4095 11.1136L12.2204 10.9701L12.4567 10.9664Z" fill="#006B3F"/>
<path d="M12.6166 14.904L12.5367 15.1321L12.464 14.9077L12.2204 14.904L12.4131 14.7569L12.3258 14.5066L12.5367 14.6611L12.7438 14.5139L12.6639 14.7569L12.8529 14.9003L12.6166 14.904Z" fill="#006B3F"/>
<path d="M13.6292 11.2954L13.828 11.1579L13.7548 11.3822L13.9497 11.5283L13.7073 11.5341L13.6309 11.7878L13.5511 11.5389L13.297 11.5362L13.5045 11.3867L13.4359 11.1595L13.6292 11.2954Z" fill="#006B3F"/>
<path d="M11.4441 14.575L11.2453 14.7125L11.3185 14.4882L11.1236 14.3421L11.366 14.3363L11.4424 14.0826L11.5222 14.3315L11.7763 14.3342L11.5688 14.4837L11.6374 14.7109L11.4441 14.575Z" fill="#006B3F"/>
<path d="M14.3844 12.2507L14.6261 12.2563L14.435 12.3948L14.5068 12.6276L14.3073 12.4898L14.0963 12.6501L14.1781 12.4019L13.9741 12.2503L14.2298 12.2513L14.3079 12.0272L14.3844 12.2507Z" fill="#006B3F"/>
<path d="M10.6889 13.6197L10.4473 13.6141L10.6383 13.4756L10.5665 13.2428L10.766 13.3806L10.977 13.2203L10.8953 13.4685L11.0992 13.6201L10.8435 13.6191L10.7654 13.8432L10.6889 13.6197Z" fill="#006B3F"/>
<path d="M14.4338 13.4675L14.6261 13.6141L14.3901 13.6138L14.3114 13.8444L14.231 13.6156L13.966 13.6213L14.1781 13.4685L14.1021 13.226L14.3085 13.3772L14.5033 13.2417L14.4338 13.4675Z" fill="#006B3F"/>
<path d="M10.6395 12.4029L10.4473 12.2563L10.6832 12.2566L10.7619 12.026L10.8423 12.2548L11.1073 12.2491L10.8953 12.4019L10.9712 12.6444L10.7649 12.4933L10.57 12.6287L10.6395 12.4029Z" fill="#006B3F"/>
<path d="M13.7586 14.481L13.828 14.7125L13.6373 14.5737L13.438 14.7139L13.5075 14.4816L13.2898 14.3304L13.5511 14.3315L13.6322 14.0906L13.7103 14.3342L13.9476 14.3392L13.7586 14.481Z" fill="#006B3F"/>
<path d="M11.3147 11.3894L11.2453 11.1579L11.4361 11.2967L11.6353 11.1565L11.5659 11.3888L11.7836 11.54L11.5222 11.5389L11.4411 11.7798L11.363 11.5362L11.1257 11.5313L11.3147 11.3894Z" fill="#006B3F"/>
<path fill-rule="evenodd" clip-rule="evenodd" d="M12.5403 10.7119L12.6188 10.9542L12.8804 10.9581L12.6734 11.1162L12.7675 11.386L12.5399 11.2192L12.317 11.3776L12.4031 11.1162L12.1996 10.9618L12.4541 10.9578L12.5403 10.7119ZM12.5397 10.764L12.466 10.9743L12.248 10.9777L12.4226 11.1102L12.3487 11.3347L12.5401 11.1987L12.7342 11.3409L12.6537 11.1103L12.8322 10.974L12.6066 10.9706L12.5397 10.764Z" fill="black"/>
<path fill-rule="evenodd" clip-rule="evenodd" d="M12.5397 15.1578L12.4613 14.9155L12.1997 14.9116L12.4067 14.7536L12.3125 14.4838L12.5401 14.6505L12.763 14.4922L12.677 14.7535L12.8805 14.9079L12.6259 14.9119L12.5397 15.1578ZM12.5403 15.1058L12.6141 14.8954L12.8321 14.8921L12.6575 14.7595L12.7314 14.535L12.5399 14.671L12.3459 14.5288L12.4263 14.7595L12.2479 14.8957L12.4734 14.8991L12.5403 15.1058Z" fill="black"/>
<path fill-rule="evenodd" clip-rule="evenodd" d="M13.8469 11.1366L13.7679 11.3787L13.9773 11.5357L13.7169 11.5419L13.6345 11.8155L13.5484 11.5468L13.275 11.5439L13.4982 11.3831L13.4243 11.1385L13.6326 11.2849L13.8469 11.1366ZM13.8158 11.1784L13.6325 11.3052L13.4542 11.1798L13.5175 11.3896L13.3258 11.5278L13.5606 11.5303L13.634 11.7595L13.7045 11.5256L13.9289 11.5202L13.7484 11.3849L13.8158 11.1784Z" fill="black"/>
<path fill-rule="evenodd" clip-rule="evenodd" d="M11.2332 14.7331L11.3121 14.491L11.1028 14.334L11.3631 14.3278L11.4456 14.0542L11.5317 14.3229L11.8051 14.3258L11.5819 14.4866L11.6557 14.7312L11.4475 14.5848L11.2332 14.7331ZM11.2643 14.6913L11.4475 14.5645L11.6259 14.6899L11.5625 14.4801L11.7543 14.3419L11.5195 14.3394L11.4461 14.1102L11.3756 14.3442L11.1511 14.3495L11.3316 14.4848L11.2643 14.6913Z" fill="black"/>
<path fill-rule="evenodd" clip-rule="evenodd" d="M14.6543 12.2482L14.4481 12.3977L14.5252 12.6477L14.3109 12.4997L14.0834 12.6726L14.1717 12.4046L13.9522 12.2416L14.2273 12.2426L14.3113 12.0014L14.3937 12.2422L14.6543 12.2482ZM14.6046 12.2637L14.3818 12.2586L14.3112 12.0523L14.2391 12.2593L14.0027 12.2584L14.1912 12.3984L14.1159 12.627L14.3105 12.4792L14.4952 12.6068L14.4287 12.3912L14.6046 12.2637Z" fill="black"/>
<path fill-rule="evenodd" clip-rule="evenodd" d="M10.4258 13.6215L10.632 13.472L10.5548 13.222L10.7691 13.37L10.9966 13.1971L10.9084 13.4651L11.1278 13.6282L10.8527 13.6271L10.7687 13.8684L10.6863 13.6275L10.4258 13.6215ZM10.4755 13.606L10.6983 13.6111L10.7689 13.8174L10.8409 13.6104L11.0773 13.6113L10.8888 13.4713L10.9641 13.2427L10.7696 13.3906L10.5849 13.263L10.6514 13.4785L10.4755 13.606Z" fill="black"/>
<path fill-rule="evenodd" clip-rule="evenodd" d="M14.6541 13.6221L14.3994 13.6218L14.3149 13.8694L14.2285 13.6237L13.9428 13.6299L14.1717 13.4649L14.09 13.204L14.3119 13.3666L14.5217 13.2208L14.4468 13.4641L14.6541 13.6221ZM14.6048 13.6054L14.4275 13.4703L14.4917 13.2619L14.3117 13.387L14.121 13.2473L14.1912 13.4714L13.9959 13.6121L14.2402 13.6068L14.3146 13.8186L14.3875 13.6052L14.6048 13.6054Z" fill="black"/>
<path fill-rule="evenodd" clip-rule="evenodd" d="M10.426 12.2476L10.6806 12.2479L10.7652 12.0003L10.8516 12.246L11.1372 12.2399L10.9083 12.4048L10.99 12.6657L10.7681 12.5031L10.5583 12.6489L10.6332 12.4056L10.426 12.2476ZM10.4753 12.2643L10.6525 12.3994L10.5884 12.6078L10.7684 12.4827L10.9591 12.6224L10.8889 12.3983L11.0841 12.2576L10.8399 12.2629L10.7654 12.0511L10.6925 12.2646L10.4753 12.2643Z" fill="black"/>
<path fill-rule="evenodd" clip-rule="evenodd" d="M13.8464 14.7334L13.6405 14.5835L13.4266 14.7341L13.5011 14.4846L13.2664 14.3217L13.5485 14.3228L13.6358 14.0637L13.7198 14.3257L13.9752 14.331L13.7716 14.4838L13.8464 14.7334ZM13.8163 14.691L13.7523 14.4775L13.9267 14.3466L13.7076 14.342L13.6354 14.1169L13.5604 14.3395L13.3198 14.3385L13.5205 14.4778L13.4562 14.6929L13.6407 14.5631L13.8163 14.691Z" fill="black"/>
<path fill-rule="evenodd" clip-rule="evenodd" d="M11.2337 11.1363L11.4395 11.2862L11.6535 11.1356L11.5789 11.3851L11.8136 11.5481L11.5315 11.5469L11.4443 11.806L11.3603 11.5441L11.1048 11.5387L11.3085 11.3859L11.2337 11.1363ZM11.2638 11.1788L11.3277 11.3922L11.1534 11.5231L11.3725 11.5277L11.4447 11.7528L11.5196 11.5303L11.7602 11.5312L11.5595 11.3919L11.6238 11.1768L11.4393 11.3066L11.2638 11.1788Z" fill="black"/>
<path d="M12.9315 14.3284C13.0136 14.3226 13.0567 13.9896 13.0277 13.5848C12.9987 13.1799 12.9086 12.8565 12.8265 12.8624C12.7443 12.8683 12.7012 13.2012 12.7302 13.6061C12.7592 14.0109 12.8493 14.3343 12.9315 14.3284Z" fill="#006B3F"/>
<path fill-rule="evenodd" clip-rule="evenodd" d="M12.7402 13.085C12.7228 13.2191 12.7193 13.4032 12.7337 13.6054C12.7482 13.8076 12.778 13.9892 12.8142 14.1195C12.8324 14.1847 12.8521 14.2367 12.8723 14.272C12.8823 14.2896 12.8923 14.3028 12.9021 14.3113C12.9118 14.3198 12.9208 14.3233 12.9291 14.3227C12.9374 14.3221 12.9458 14.3173 12.9543 14.3075C12.9627 14.2977 12.9707 14.2833 12.9782 14.2644C12.9931 14.2266 13.0052 14.1723 13.0139 14.1052C13.0312 13.9711 13.0348 13.787 13.0203 13.5849C13.0058 13.3827 12.9761 13.201 12.9398 13.0707C12.9216 13.0055 12.9019 12.9535 12.8818 12.9183C12.8717 12.9006 12.8617 12.8875 12.8519 12.879C12.8422 12.8705 12.8332 12.867 12.8249 12.8676C12.8166 12.8682 12.8082 12.8729 12.7998 12.8827C12.7913 12.8925 12.7833 12.907 12.7758 12.9259C12.7609 12.9636 12.7488 13.0179 12.7402 13.085ZM12.7914 12.8756C12.801 12.8644 12.8119 12.8575 12.8241 12.8566C12.8363 12.8558 12.8481 12.8611 12.8592 12.8707C12.8702 12.8803 12.8809 12.8947 12.8913 12.9128C12.9121 12.9492 12.9321 13.0023 12.9503 13.0678C12.9869 13.199 13.0167 13.3814 13.0312 13.5841C13.0457 13.7867 13.0422 13.9716 13.0247 14.1066C13.016 14.1741 13.0038 14.2294 12.9884 14.2684C12.9807 14.2879 12.9721 14.3036 12.9626 14.3147C12.953 14.3258 12.9421 14.3327 12.9299 14.3336C12.9177 14.3345 12.9059 14.3292 12.8949 14.3195C12.8838 14.3099 12.8731 14.2956 12.8627 14.2774C12.842 14.241 12.8219 14.188 12.8037 14.1225C12.7671 13.9913 12.7373 13.8088 12.7228 13.6062C12.7083 13.4035 12.7118 13.2187 12.7293 13.0836C12.738 13.0161 12.7503 12.9608 12.7656 12.9218C12.7733 12.9024 12.7819 12.8867 12.7914 12.8756Z" fill="black"/>
<path d="M13.0776 14.3267C13.1644 14.3205 13.2112 13.9872 13.182 13.5824C13.1529 13.1776 13.0588 12.8545 12.9719 12.8607C12.8851 12.867 12.8383 13.2002 12.8674 13.6051C12.8966 14.0099 12.9907 14.333 13.0776 14.3267Z" fill="#006B3F"/>
<path fill-rule="evenodd" clip-rule="evenodd" d="M12.8838 13.0846C12.8649 13.2188 12.8605 13.4029 12.8751 13.605C12.8896 13.8072 12.9204 13.9887 12.9583 14.1188C12.9772 14.1839 12.9979 14.2359 13.019 14.271C13.0296 14.2886 13.0401 14.3017 13.0504 14.3101C13.0606 14.3186 13.0702 14.3221 13.0791 14.3214C13.0881 14.3208 13.097 14.3159 13.106 14.3061C13.1149 14.2963 13.1234 14.2818 13.1314 14.2629C13.1472 14.2251 13.1602 14.1708 13.1697 14.1036C13.1885 13.9694 13.1929 13.7853 13.1784 13.5832C13.1638 13.381 13.133 13.1995 13.0952 13.0694C13.0762 13.0043 13.0556 12.9524 13.0344 12.9172C13.0239 12.8996 13.0133 12.8866 13.0031 12.8781C12.9928 12.8697 12.9833 12.8661 12.9743 12.8668C12.9654 12.8674 12.9564 12.8723 12.9475 12.8821C12.9385 12.8919 12.93 12.9064 12.9221 12.9253C12.9062 12.9631 12.8932 13.0175 12.8838 13.0846ZM12.9391 12.8745C12.9492 12.8633 12.9607 12.8564 12.9735 12.8554C12.9863 12.8545 12.9986 12.8597 13.0103 12.8693C13.0219 12.8789 13.0332 12.8932 13.0442 12.9114C13.066 12.9477 13.087 13.0007 13.1061 13.0662C13.1442 13.1973 13.1751 13.3797 13.1897 13.5824C13.2043 13.785 13.1999 13.97 13.1809 14.1052C13.1714 14.1727 13.1583 14.2282 13.1418 14.2673C13.1336 14.2868 13.1245 14.3026 13.1144 14.3137C13.1042 14.3249 13.0927 14.3318 13.0799 14.3328C13.0672 14.3337 13.0548 14.3285 13.0431 14.3189C13.0315 14.3093 13.0202 14.295 13.0093 14.2768C12.9874 14.2405 12.9665 14.1875 12.9474 14.122C12.9092 13.9909 12.8784 13.8085 12.8638 13.6058C12.8492 13.4032 12.8536 13.2182 12.8725 13.083C12.882 13.0155 12.8952 12.96 12.9116 12.9209C12.9198 12.9014 12.929 12.8856 12.9391 12.8745Z" fill="black"/>
<path d="M13.0126 14.4429C13.0822 14.438 13.1132 14.0713 13.0819 13.6238C13.0506 13.1762 12.9688 12.8174 12.8993 12.8223C12.8298 12.8271 12.7988 13.1938 12.8301 13.6414C12.8614 14.0889 12.9431 14.4478 13.0126 14.4429Z" fill="#006B3F"/>
<path fill-rule="evenodd" clip-rule="evenodd" d="M12.8338 13.0667C12.8213 13.2146 12.8214 13.4179 12.837 13.6415C12.8526 13.8651 12.8809 14.0664 12.9138 14.2111C12.9303 14.2835 12.9479 14.3415 12.9657 14.381C12.9745 14.4007 12.9833 14.4156 12.9917 14.4252C13.0003 14.435 13.0077 14.4386 13.014 14.4381C13.0202 14.4377 13.0271 14.4331 13.0342 14.4223C13.0412 14.4115 13.0478 14.3956 13.0538 14.3748C13.0659 14.3332 13.0753 14.2733 13.0815 14.1994C13.094 14.0515 13.094 13.8482 13.0783 13.6246C13.0627 13.401 13.0345 13.1997 13.0015 13.055C12.985 12.9826 12.9674 12.9246 12.9497 12.8851C12.9408 12.8653 12.932 12.8505 12.9236 12.8409C12.915 12.8311 12.9076 12.8275 12.9014 12.8279C12.8951 12.8284 12.8883 12.833 12.8812 12.8438C12.8741 12.8546 12.8675 12.8705 12.8615 12.8913C12.8494 12.9328 12.8401 12.9927 12.8338 13.0667ZM12.8724 12.8381C12.8802 12.8262 12.8895 12.8183 12.9006 12.8175C12.9118 12.8167 12.9221 12.8233 12.9315 12.834C12.9409 12.8447 12.9502 12.8606 12.9592 12.8808C12.9774 12.9212 12.9952 12.98 13.0117 13.0527C13.0448 13.198 13.0731 13.3999 13.0888 13.6239C13.1044 13.8478 13.1045 14.0517 13.092 14.2002C13.0857 14.2745 13.0762 14.3352 13.0639 14.3777C13.0577 14.399 13.0508 14.416 13.0429 14.428C13.0352 14.4399 13.0258 14.4478 13.0147 14.4486C13.0036 14.4494 12.9932 14.4428 12.9839 14.4321C12.9744 14.4213 12.9652 14.4054 12.9561 14.3853C12.938 14.3448 12.9202 14.2861 12.9036 14.2134C12.8705 14.068 12.8422 13.8662 12.8266 13.6422C12.8109 13.4183 12.8108 13.2144 12.8234 13.0658C12.8296 12.9916 12.8391 12.9309 12.8514 12.8884C12.8576 12.8671 12.8646 12.8501 12.8724 12.8381Z" fill="black"/>
<path d="M11.7988 13.9754C11.9261 13.9701 11.8708 13.902 11.9351 13.8657C11.9994 13.8295 12.0908 13.8535 12.1183 13.8988C12.1457 13.944 12.1237 13.9885 12.159 13.9891C12.1943 13.9897 13.1554 13.9494 13.19 13.9873C13.2247 14.0252 13.2304 14.1 13.1945 14.1291C13.1586 14.1585 11.9436 14.1721 11.9018 14.1413C11.8599 14.111 11.7986 13.9829 11.7988 13.9754Z" fill="#9C4A00"/>
<path d="M11.9387 13.8706C11.9686 13.8537 12.005 13.8504 12.0377 13.8566L12.0425 13.8464C12.0425 13.8464 11.9729 13.8389 11.9387 13.8615C11.9148 13.8772 11.9034 13.8918 11.8921 13.9181C11.8895 13.9244 11.8894 13.9285 11.8864 13.9345C11.8813 13.9443 11.8766 13.949 11.8683 13.9563C11.8459 13.9761 11.7949 13.9744 11.7949 13.9744C11.7949 13.9744 11.807 14.0028 11.8148 14.0187C11.8247 14.039 11.8284 14.0465 11.8402 14.0658C11.8515 14.0844 11.8734 14.1157 11.8734 14.1157L11.8994 14.1458L11.8995 14.1457L11.9043 14.1358C11.8949 14.1285 11.8843 14.116 11.8734 14.1006C11.8619 14.0844 11.8504 14.0655 11.8402 14.0472C11.83 14.0289 11.8211 14.0114 11.8148 13.998C11.8116 13.9912 11.8091 13.9856 11.8074 13.9814L11.8071 13.9805C11.8354 13.9788 11.8547 13.9736 11.8683 13.966C11.8834 13.9575 11.8911 13.9463 11.8965 13.9345C11.899 13.929 11.901 13.9235 11.9029 13.9181C11.9095 13.9003 11.9156 13.8836 11.9387 13.8706Z" fill="black"/>
<path d="M13.1869 13.9911C13.2032 14.0089 13.213 14.0358 13.2142 14.0618C13.2149 14.0771 13.2127 14.0917 13.2075 14.1037C13.2162 14.0904 13.2214 14.0746 13.2218 14.0575C13.2226 14.0197 13.1995 13.987 13.1665 13.9743C13.1587 13.9731 13.1493 13.9721 13.1386 13.9712C13.1333 13.9707 13.1276 13.9703 13.1216 13.9699C13.112 13.9715 13.103 13.9748 13.0948 13.9794C13.1025 13.9797 13.1099 13.9801 13.1169 13.9805C13.1235 13.9788 13.1304 13.9779 13.1376 13.9781C13.149 13.9783 13.1598 13.9811 13.1694 13.9859C13.1707 13.9861 13.1719 13.9863 13.173 13.9865C13.1773 13.9874 13.1807 13.9883 13.1832 13.9892C13.1844 13.9897 13.1853 13.9901 13.186 13.9904C13.1863 13.9906 13.1865 13.9908 13.1867 13.9909C13.1869 13.991 13.1869 13.9911 13.1869 13.9911Z" fill="black"/>
<path d="M13.2142 14.0618C13.213 14.0358 13.2032 14.0089 13.1869 13.9911C13.1869 13.9911 13.1869 13.991 13.1867 13.9909C13.1865 13.9908 13.1863 13.9906 13.186 13.9904C13.1853 13.9901 13.1844 13.9897 13.1832 13.9892C13.1807 13.9883 13.1773 13.9874 13.173 13.9865C13.1719 13.9863 13.1707 13.9861 13.1694 13.9859C13.1954 13.9987 13.213 14.026 13.2124 14.0573C13.2115 14.0956 13.1836 14.1267 13.1478 14.1324C13.1584 14.1313 13.1674 14.1302 13.1746 14.1291C13.1787 14.1284 13.1821 14.1278 13.1849 14.1271C13.1938 14.1209 13.2015 14.1129 13.2075 14.1037C13.2127 14.0917 13.2149 14.0771 13.2142 14.0618Z" fill="black"/>
<path fill-rule="evenodd" clip-rule="evenodd" d="M12.0377 13.8566C12.0385 13.8567 12.0394 13.8569 12.0403 13.8571C12.0738 13.864 12.1019 13.8808 12.1145 13.9016C12.1259 13.9205 12.1283 13.9391 12.1303 13.955C12.1306 13.9572 12.1309 13.9594 12.1312 13.9615C12.1323 13.9698 12.1339 13.978 12.138 13.9842C12.1425 13.991 12.1496 13.9944 12.1598 13.9946C12.1661 13.9947 12.2013 13.9936 12.2551 13.9918C12.3537 13.9885 12.515 13.9831 12.6758 13.9797C12.8003 13.9771 12.9247 13.9756 13.0201 13.9772C13.0477 13.9777 13.0728 13.9784 13.0948 13.9794C13.0687 13.9939 13.0509 14.0217 13.0502 14.0539C13.0494 14.0907 13.0713 14.1227 13.103 14.1361C13.1126 14.1401 13.1231 14.1424 13.1342 14.1427C13.153 14.1431 13.1705 14.1373 13.1849 14.1271C13.1821 14.1278 13.1787 14.1284 13.1746 14.1291C13.1674 14.1302 13.1584 14.1313 13.1478 14.1324C13.1448 14.1327 13.1418 14.1329 13.1386 14.1332C13.1372 14.1333 13.1358 14.1333 13.1344 14.1333C13.0922 14.1324 13.0587 14.097 13.0596 14.0541C13.0604 14.0185 13.0846 13.989 13.1169 13.9805C13.1099 13.9801 13.1025 13.9797 13.0948 13.9794C13.103 13.9748 13.112 13.9715 13.1216 13.9699C13.1276 13.9703 13.1333 13.9707 13.1386 13.9712C13.1493 13.9721 13.1587 13.9731 13.1665 13.9743C13.1576 13.9709 13.1479 13.9689 13.1378 13.9687C13.1323 13.9686 13.1268 13.969 13.1216 13.9699C13.094 13.9681 13.0596 13.9669 13.0203 13.9663C12.9247 13.9647 12.8001 13.9662 12.6756 13.9688C12.5138 13.9722 12.3522 13.9776 12.2539 13.9809C12.2008 13.9826 12.1662 13.9838 12.16 13.9837C12.1525 13.9836 12.1492 13.9813 12.1471 13.9781C12.1445 13.9743 12.1432 13.9685 12.142 13.96C12.1417 13.958 12.1415 13.9559 12.1412 13.9538C12.1392 13.9379 12.1366 13.9169 12.1239 13.896C12.1091 13.8716 12.0777 13.8537 12.0425 13.8464L12.0377 13.8566ZM11.8995 14.1457L11.8994 14.1458L11.8995 14.1458L11.8995 14.1457Z" fill="black"/>
<path d="M11.9059 14.137L11.9059 14.137C11.9054 14.1366 11.9048 14.1362 11.9043 14.1358L11.8995 14.1457L11.9027 14.1414L11.8995 14.1458L11.8995 14.1458C11.9017 14.1475 11.9051 14.1486 11.9087 14.1495C11.9124 14.1504 11.9172 14.1513 11.9229 14.1521C11.9343 14.1537 11.9497 14.1551 11.9684 14.1564C12.0058 14.1589 12.057 14.1608 12.1172 14.1621C12.2376 14.1647 12.3946 14.1649 12.5513 14.1633C12.7081 14.1617 12.8647 14.1582 12.9844 14.1532C13.0442 14.1508 13.0949 14.148 13.1318 14.1448C13.1502 14.1432 13.1652 14.1416 13.1763 14.1399C13.1818 14.139 13.1865 14.1381 13.1901 14.1371C13.1934 14.1363 13.1967 14.1351 13.1989 14.1334L13.1954 14.1291L13.1989 14.1334L13.1989 14.1334C13.2187 14.1173 13.2264 14.0893 13.2251 14.0613C13.2238 14.0332 13.2134 14.0038 13.195 13.9837C13.193 13.9815 13.19 13.98 13.1869 13.9789C13.1837 13.9778 13.1798 13.9767 13.1751 13.9758C13.1725 13.9753 13.1696 13.9748 13.1665 13.9743C13.1995 13.987 13.2226 14.0197 13.2218 14.0575C13.2214 14.0746 13.2162 14.0904 13.2075 14.1037C13.2038 14.1122 13.1987 14.1195 13.192 14.1249L13.192 14.1249C13.1919 14.125 13.1916 14.1251 13.1909 14.1254C13.19 14.1258 13.1888 14.1262 13.1873 14.1266C13.1866 14.1268 13.1858 14.127 13.1849 14.1271C13.1705 14.1373 13.153 14.1431 13.1342 14.1427C13.1231 14.1424 13.1126 14.1401 13.103 14.1361C13.0702 14.1383 13.0298 14.1404 12.984 14.1423C12.8644 14.1473 12.7079 14.1508 12.5512 14.1524C12.3945 14.154 12.2377 14.1537 12.1174 14.1511C12.0572 14.1498 12.0063 14.148 11.9691 14.1455C11.9505 14.1442 11.9355 14.1428 11.9245 14.1412C11.9189 14.1405 11.9146 14.1397 11.9113 14.1388C11.9078 14.138 11.9063 14.1373 11.9059 14.137Z" fill="black"/>
<path d="M13.1873 14.1266C13.1888 14.1262 13.19 14.1258 13.1909 14.1254C13.1916 14.1251 13.1919 14.125 13.192 14.1249L13.192 14.1249C13.1987 14.1195 13.2038 14.1122 13.2075 14.1037C13.2015 14.1129 13.1938 14.1209 13.1849 14.1271C13.1858 14.127 13.1866 14.1268 13.1873 14.1266Z" fill="black"/>
<path d="M13.1694 13.9859C13.1598 13.9811 13.149 13.9783 13.1376 13.9781C13.1304 13.9779 13.1235 13.9788 13.1169 13.9805C13.1243 13.981 13.1313 13.9815 13.1377 13.982C13.1505 13.9831 13.1612 13.9844 13.1694 13.9859Z" fill="black"/>
<path d="M12.4781 14.0694C12.4758 14.1659 12.6185 14.1385 12.6205 14.2191C12.6162 14.3045 12.3812 14.2243 12.3789 14.0681C12.3887 13.9119 12.6187 13.8348 12.6215 13.924C12.6237 13.9981 12.4804 13.9729 12.4781 14.0694Z" fill="#FCD116"/>
<path fill-rule="evenodd" clip-rule="evenodd" d="M12.3895 14.0691C12.3907 14.1443 12.4479 14.2019 12.5065 14.2304C12.5358 14.2446 12.5646 14.2511 12.586 14.2492C12.5967 14.2482 12.6051 14.2452 12.6109 14.2404C12.6164 14.2358 12.62 14.2292 12.6205 14.2199C12.62 14.2018 12.6118 14.1899 12.5992 14.1804C12.5875 14.1716 12.5723 14.1651 12.5562 14.1582C12.5544 14.1575 12.5527 14.1567 12.5509 14.1559C12.5331 14.1483 12.5146 14.1399 12.5008 14.1269C12.4866 14.1136 12.4775 14.0958 12.4781 14.0701C12.4787 14.0445 12.4888 14.0266 12.5036 14.0133C12.518 14.0003 12.5369 13.9918 12.5547 13.9843C12.5569 13.9834 12.5591 13.9825 12.5613 13.9816C12.577 13.975 12.5915 13.969 12.6025 13.961C12.6147 13.9522 12.622 13.9414 12.6216 13.925C12.6212 13.9151 12.6178 13.908 12.6124 13.9029C12.6069 13.8978 12.5988 13.8944 12.5884 13.893C12.5676 13.8904 12.5394 13.8961 12.5103 13.9097C12.4523 13.9369 12.3943 13.9938 12.3895 14.0691ZM12.6196 13.8952C12.6273 13.9024 12.6317 13.9123 12.6321 13.9247L12.6321 13.9247C12.6327 13.9454 12.6229 13.9592 12.6087 13.9695C12.5966 13.9784 12.5808 13.9849 12.5653 13.9914C12.5631 13.9922 12.561 13.9931 12.5588 13.994C12.5409 14.0016 12.5236 14.0095 12.5106 14.0212C12.4979 14.0326 12.4892 14.0478 12.4887 14.0704C12.4881 14.093 12.496 14.1079 12.508 14.1192C12.5203 14.1307 12.5372 14.1386 12.5551 14.1462C12.5568 14.147 12.5586 14.1478 12.5605 14.1485C12.5763 14.1553 12.5927 14.1623 12.6055 14.172C12.6202 14.183 12.6305 14.1978 12.631 14.2199L12.631 14.2201L12.631 14.2203C12.6304 14.2323 12.6257 14.2418 12.6176 14.2485C12.6097 14.2551 12.599 14.2586 12.587 14.2597C12.563 14.2618 12.5322 14.2546 12.5019 14.2399C12.4414 14.2105 12.3801 14.15 12.3789 14.069L12.3789 14.0688L12.3789 14.0686C12.384 13.9879 12.4458 13.9283 12.5059 13.9001C12.5359 13.8861 12.5663 13.8795 12.5898 13.8826C12.6016 13.8841 12.612 13.8881 12.6196 13.8952Z" fill="black"/>
<path d="M12.566 14.0703C12.5637 14.1668 12.7064 14.1395 12.7084 14.2201C12.7041 14.3055 12.4691 14.2253 12.4668 14.069C12.4766 13.9129 12.7066 13.8358 12.7094 13.925C12.7116 13.999 12.5683 13.9739 12.566 14.0703Z" fill="#FCD116"/>
<path fill-rule="evenodd" clip-rule="evenodd" d="M12.4696 14.0701C12.4707 14.1453 12.528 14.2029 12.5866 14.2313C12.6159 14.2455 12.6447 14.2521 12.6661 14.2501C12.6768 14.2492 12.6852 14.2461 12.6909 14.2414C12.6965 14.2367 12.7 14.2301 12.7005 14.2209C12.7 14.2028 12.6918 14.1909 12.6793 14.1814C12.6676 14.1725 12.6524 14.1661 12.6363 14.1592C12.6345 14.1584 12.6327 14.1577 12.631 14.1569C12.6132 14.1493 12.5947 14.1408 12.5809 14.1279C12.5667 14.1146 12.5576 14.0968 12.5582 14.0711C12.5588 14.0454 12.5689 14.0276 12.5836 14.0143C12.5981 14.0013 12.6169 13.9928 12.6348 13.9853C12.637 13.9844 12.6392 13.9834 12.6413 13.9826C12.6571 13.976 12.6716 13.97 12.6826 13.962C12.6947 13.9532 12.7021 13.9424 12.7016 13.926C12.7013 13.9161 12.6979 13.9089 12.6925 13.9039C12.6869 13.8988 12.6788 13.8954 12.6685 13.894C12.6477 13.8913 12.6194 13.8971 12.5904 13.9107C12.5324 13.9378 12.4744 13.9947 12.4696 14.0701ZM12.6997 13.8962C12.7074 13.9033 12.7118 13.9133 12.7122 13.9257L12.7122 13.9257C12.7128 13.9464 12.703 13.9602 12.6888 13.9705C12.6767 13.9793 12.6609 13.9859 12.6454 13.9923C12.6432 13.9932 12.641 13.9941 12.6389 13.995C12.6209 14.0025 12.6037 14.0105 12.5907 14.0222C12.578 14.0336 12.5693 14.0488 12.5688 14.0714C12.5682 14.0939 12.5761 14.1089 12.5881 14.1202C12.6004 14.1317 12.6172 14.1395 12.6351 14.1472C12.6369 14.148 12.6387 14.1487 12.6405 14.1495C12.6564 14.1563 12.6728 14.1633 12.6856 14.1729C12.7002 14.184 12.7106 14.1988 12.7111 14.2209L12.7111 14.221L12.7111 14.2212C12.7105 14.2333 12.7058 14.2428 12.6977 14.2495C12.6898 14.2561 12.6791 14.2596 12.6671 14.2607C12.6431 14.2628 12.6123 14.2555 12.582 14.2408C12.5215 14.2115 12.4602 14.1509 12.459 14.07L12.459 14.0698L12.459 14.0696C12.464 13.9889 12.5259 13.9292 12.5859 13.9011C12.616 13.887 12.6464 13.8805 12.6699 13.8835C12.6816 13.8851 12.692 13.8891 12.6997 13.8962Z" fill="black"/>
<path d="M12.658 14.0664C12.6557 14.1629 12.7984 14.1356 12.8003 14.2162C12.796 14.3016 12.561 14.2214 12.5588 14.0651C12.5685 13.909 12.7986 13.8319 12.8014 13.921C12.8035 13.9951 12.6603 13.97 12.658 14.0664Z" fill="#FCD116"/>
<path fill-rule="evenodd" clip-rule="evenodd" d="M12.5614 14.0661C12.5625 14.1414 12.6198 14.199 12.6784 14.2274C12.7077 14.2416 12.7365 14.2482 12.7579 14.2462C12.7686 14.2453 12.777 14.2422 12.7827 14.2375C12.7883 14.2328 12.7918 14.2262 12.7923 14.217C12.7918 14.1989 12.7836 14.187 12.7711 14.1775C12.7593 14.1686 12.7442 14.1622 12.7281 14.1553C12.7263 14.1545 12.7245 14.1538 12.7228 14.153C12.705 14.1454 12.6865 14.1369 12.6727 14.124C12.6585 14.1107 12.6494 14.0929 12.65 14.0672C12.6506 14.0415 12.6607 14.0237 12.6754 14.0104C12.6899 13.9974 12.7087 13.9889 12.7266 13.9814C12.7288 13.9804 12.731 13.9795 12.7331 13.9786C12.7489 13.9721 12.7634 13.9661 12.7744 13.9581C12.7865 13.9493 12.7939 13.9384 12.7934 13.9221C12.7931 13.9122 12.7897 13.905 12.7843 13.9C12.7787 13.8948 12.7706 13.8915 12.7603 13.8901C12.7395 13.8874 12.7112 13.8932 12.6822 13.9068C12.6242 13.9339 12.5662 13.9908 12.5614 14.0661ZM12.7915 13.8923C12.7992 13.8994 12.8036 13.9094 12.804 13.9218L12.804 13.9218C12.8046 13.9425 12.7948 13.9563 12.7806 13.9666C12.7685 13.9754 12.7527 13.982 12.7371 13.9884C12.735 13.9893 12.7328 13.9902 12.7307 13.9911C12.7127 13.9986 12.6955 14.0066 12.6825 14.0183C12.6698 14.0297 12.6611 14.0449 12.6606 14.0675C12.66 14.09 12.6679 14.105 12.6799 14.1162C12.6922 14.1278 12.709 14.1356 12.7269 14.1433C12.7287 14.1441 12.7305 14.1448 12.7323 14.1456C12.7482 14.1524 12.7646 14.1594 12.7774 14.169C12.792 14.1801 12.8024 14.1949 12.8029 14.2169L12.8029 14.2171L12.8029 14.2173C12.8023 14.2294 12.7976 14.2389 12.7895 14.2456C12.7816 14.2522 12.7709 14.2557 12.7589 14.2567C12.7349 14.2589 12.7041 14.2516 12.6738 14.2369C12.6133 14.2076 12.552 14.147 12.5508 14.0661L12.5508 14.0659L12.5508 14.0657C12.5558 13.985 12.6177 13.9253 12.6777 13.8972C12.7078 13.8831 12.7382 13.8766 12.7616 13.8796C12.7734 13.8812 12.7838 13.8852 12.7915 13.8923Z" fill="black"/>
<path d="M12.742 14.0679C12.7397 14.1644 12.8824 14.1371 12.8843 14.2176C12.88 14.3031 12.645 14.2229 12.6428 14.0666C12.6525 13.9105 12.8826 13.8333 12.8854 13.9225C12.8875 13.9966 12.7443 13.9714 12.742 14.0679Z" fill="#FCD116"/>
<path fill-rule="evenodd" clip-rule="evenodd" d="M12.6492 14.0671C12.6504 14.1424 12.7077 14.2 12.7663 14.2284C12.7956 14.2426 12.8244 14.2491 12.8458 14.2472C12.8565 14.2462 12.8649 14.2432 12.8706 14.2384C12.8762 14.2338 12.8797 14.2272 12.8802 14.218C12.8797 14.1999 12.8715 14.1879 12.8589 14.1784C12.8472 14.1696 12.8321 14.1632 12.816 14.1563C12.8142 14.1555 12.8124 14.1548 12.8107 14.154C12.7929 14.1464 12.7744 14.1379 12.7605 14.1249C12.7464 14.1117 12.7373 14.0939 12.7379 14.0682C12.7385 14.0425 12.7486 14.0246 12.7633 14.0114C12.7778 13.9983 12.7966 13.9898 12.8145 13.9823C12.8167 13.9814 12.8189 13.9805 12.821 13.9796C12.8368 13.9731 12.8513 13.9671 12.8623 13.959C12.8744 13.9502 12.8818 13.9394 12.8813 13.9231C12.881 13.9132 12.8776 13.906 12.8722 13.901C12.8666 13.8958 12.8585 13.8924 12.8482 13.8911C12.8274 13.8884 12.7991 13.8942 12.7701 13.9078C12.7121 13.9349 12.6541 13.9918 12.6492 14.0671ZM12.8794 13.8932C12.8871 13.9004 12.8915 13.9104 12.8919 13.9227L12.8919 13.9228C12.8925 13.9435 12.8827 13.9573 12.8685 13.9676C12.8564 13.9764 12.8406 13.9829 12.825 13.9894C12.8229 13.9903 12.8207 13.9912 12.8186 13.9921C12.8006 13.9996 12.7834 14.0075 12.7704 14.0192C12.7577 14.0307 12.749 14.0459 12.7485 14.0684C12.7479 14.091 12.7558 14.106 12.7678 14.1172C12.7801 14.1288 12.7969 14.1366 12.8148 14.1443C12.8166 14.1451 12.8184 14.1458 12.8202 14.1466C12.8361 14.1534 12.8525 14.1603 12.8653 14.17C12.8799 14.181 12.8903 14.1958 12.8908 14.2179L12.8908 14.2181L12.8908 14.2183C12.8902 14.2303 12.8854 14.2399 12.8774 14.2466C12.8694 14.2531 12.8588 14.2566 12.8468 14.2577C12.8228 14.2599 12.792 14.2526 12.7617 14.2379C12.7012 14.2085 12.6398 14.148 12.6387 14.0671L12.6387 14.0669L12.6387 14.0667C12.6437 13.986 12.7055 13.9263 12.7656 13.8982C12.7957 13.8841 12.8261 13.8776 12.8495 13.8806C12.8613 13.8821 12.8717 13.8861 12.8794 13.8932Z" fill="black"/>
<path d="M12.6656 13.9403C12.7056 13.936 12.7304 13.8612 12.721 13.7732C12.7115 13.6851 12.6714 13.6173 12.6313 13.6216C12.5912 13.6259 12.5665 13.7007 12.5759 13.7888C12.5854 13.8768 12.6255 13.9446 12.6656 13.9403Z" fill="#006B3F"/>
<path fill-rule="evenodd" clip-rule="evenodd" d="M12.5986 13.6759C12.589 13.7051 12.5852 13.7448 12.5898 13.7881C12.5945 13.8314 12.6067 13.8694 12.6223 13.8958C12.6383 13.9228 12.6563 13.9355 12.6722 13.9338C12.688 13.9321 12.703 13.9159 12.7128 13.8861C12.7225 13.8569 12.7263 13.8172 12.7217 13.7739C12.717 13.7306 12.7048 13.6926 12.6892 13.6662C12.6732 13.6392 12.6552 13.6265 12.6393 13.6282C12.6235 13.6299 12.6085 13.6461 12.5986 13.6759ZM12.586 13.6717C12.5962 13.641 12.6137 13.6176 12.6379 13.615C12.6621 13.6124 12.6841 13.6316 12.7006 13.6594C12.7174 13.6878 12.7301 13.7278 12.7349 13.7725C12.7397 13.8172 12.7358 13.8589 12.7254 13.8903C12.7153 13.921 12.6978 13.9444 12.6736 13.947C12.6494 13.9496 12.6274 13.9304 12.6109 13.9026C12.5941 13.8742 12.5814 13.8342 12.5766 13.7895C12.5718 13.7448 12.5757 13.7031 12.586 13.6717Z" fill="black"/>
<path d="M12.5443 13.9301C12.5844 13.9258 12.6092 13.8509 12.5997 13.7629C12.5902 13.6749 12.5501 13.607 12.51 13.6113C12.47 13.6156 12.4452 13.6905 12.4546 13.7785C12.4641 13.8665 12.5042 13.9344 12.5443 13.9301Z" fill="#006B3F"/>
<path fill-rule="evenodd" clip-rule="evenodd" d="M12.4696 13.6661C12.4599 13.6953 12.4561 13.735 12.4607 13.7783C12.4654 13.8216 12.4776 13.8596 12.4932 13.8861C12.5092 13.9131 12.5272 13.9257 12.5431 13.924C12.5589 13.9223 12.5739 13.9061 12.5838 13.8763C12.5934 13.8472 12.5972 13.8074 12.5926 13.7641C12.5879 13.7208 12.5757 13.6828 12.5601 13.6564C12.5441 13.6294 12.5261 13.6167 12.5102 13.6185C12.4944 13.6202 12.4794 13.6364 12.4696 13.6661ZM12.457 13.662C12.4671 13.6312 12.4846 13.6079 12.5088 13.6053C12.533 13.6027 12.5551 13.6218 12.5715 13.6496C12.5883 13.6781 12.601 13.718 12.6058 13.7627C12.6106 13.8074 12.6067 13.8491 12.5964 13.8805C12.5862 13.9112 12.5687 13.9346 12.5445 13.9372C12.5203 13.9398 12.4983 13.9207 12.4818 13.8928C12.465 13.8644 12.4523 13.8245 12.4475 13.7797C12.4427 13.735 12.4466 13.6933 12.457 13.662Z" fill="black"/>
<path d="M12.4584 13.7738C12.4984 13.7695 12.5232 13.6947 12.5137 13.6067C12.5043 13.5186 12.4641 13.4508 12.4241 13.4551C12.384 13.4594 12.3592 13.5342 12.3687 13.6223C12.3782 13.7103 12.4183 13.7781 12.4584 13.7738Z" fill="#006B3F"/>
<path fill-rule="evenodd" clip-rule="evenodd" d="M12.3856 13.5099C12.3759 13.539 12.3721 13.5788 12.3767 13.6221C12.3814 13.6654 12.3936 13.7034 12.4092 13.7298C12.4252 13.7568 12.4433 13.7695 12.4591 13.7677C12.475 13.766 12.4899 13.7498 12.4998 13.7201C12.5094 13.6909 12.5133 13.6512 12.5086 13.6079C12.5039 13.5646 12.4918 13.5266 12.4761 13.5001C12.4601 13.4731 12.4421 13.4605 12.4262 13.4622C12.4104 13.4639 12.3954 13.4801 12.3856 13.5099ZM12.373 13.5057C12.3832 13.475 12.4006 13.4516 12.4248 13.449C12.449 13.4464 12.4711 13.4655 12.4875 13.4934C12.5044 13.5218 12.517 13.5617 12.5218 13.6065C12.5266 13.6512 12.5228 13.6929 12.5124 13.7242C12.5022 13.755 12.4847 13.7783 12.4605 13.7809C12.4363 13.7835 12.4143 13.7644 12.3978 13.7366C12.381 13.7081 12.3684 13.6682 12.3636 13.6235C12.3587 13.5788 12.3626 13.5371 12.373 13.5057Z" fill="black"/>
<path d="M12.5822 13.7841C12.6207 13.78 12.6435 13.6979 12.6332 13.6008C12.6228 13.5037 12.5831 13.4283 12.5445 13.4325C12.506 13.4366 12.4832 13.5187 12.4935 13.6158C12.5039 13.7129 12.5436 13.7882 12.5822 13.7841Z" fill="#006B3F"/>
<path fill-rule="evenodd" clip-rule="evenodd" d="M12.5075 13.4902C12.4985 13.5223 12.4954 13.5661 12.5005 13.614C12.5057 13.6619 12.518 13.7041 12.5335 13.7336C12.5413 13.7483 12.5497 13.7596 12.5581 13.7668C12.5664 13.774 12.5743 13.7768 12.5813 13.776C12.5884 13.7753 12.5954 13.7709 12.6021 13.7621C12.6088 13.7533 12.6146 13.7405 12.6191 13.7244C12.628 13.6923 12.6311 13.6485 12.626 13.6006C12.6209 13.5527 12.6085 13.5105 12.593 13.481C12.5852 13.4662 12.5768 13.455 12.5685 13.4478C12.5601 13.4406 12.5523 13.4378 12.5452 13.4386C12.5382 13.4393 12.5311 13.4437 12.5244 13.4525C12.5178 13.4613 12.5119 13.4741 12.5075 13.4902ZM12.5131 13.4439C12.5212 13.4331 12.5315 13.4257 12.5437 13.4244C12.5559 13.4231 12.5675 13.4282 12.5777 13.437C12.588 13.4458 12.5974 13.4587 12.6056 13.4744C12.6222 13.5058 12.6349 13.5499 12.6402 13.5991C12.6454 13.6483 12.6423 13.694 12.6328 13.7282C12.628 13.7453 12.6216 13.7599 12.6134 13.7707C12.6053 13.7814 12.5951 13.7889 12.5828 13.7902C12.5706 13.7915 12.559 13.7864 12.5488 13.7776C12.5386 13.7688 12.5292 13.7559 12.5209 13.7402C12.5043 13.7088 12.4916 13.6647 12.4864 13.6155C12.4811 13.5663 12.4842 13.5206 12.4937 13.4863C12.4985 13.4692 12.5049 13.4547 12.5131 13.4439Z" fill="black"/>
<path d="M12.7518 13.7749C12.7903 13.7707 12.8136 13.6936 12.8039 13.6025C12.7941 13.5115 12.7549 13.441 12.7164 13.4452C12.6779 13.4493 12.6545 13.5264 12.6643 13.6175C12.674 13.7085 12.7132 13.779 12.7518 13.7749Z" fill="#006B3F"/>
<path fill-rule="evenodd" clip-rule="evenodd" d="M12.6823 13.5008C12.6732 13.531 12.6698 13.5721 12.6746 13.6169C12.6794 13.6618 12.6914 13.7012 12.7067 13.7287C12.7144 13.7425 12.7227 13.753 12.731 13.7597C12.7394 13.7664 12.7473 13.7691 12.7546 13.7683C12.762 13.7675 12.7692 13.7632 12.7759 13.7549C12.7826 13.7465 12.7885 13.7345 12.7931 13.7195C12.8022 13.6893 12.8056 13.6482 12.8007 13.6034C12.7959 13.5585 12.7839 13.5191 12.7686 13.4916C12.761 13.4778 12.7527 13.4673 12.7443 13.4606C12.736 13.4539 12.7281 13.4512 12.7207 13.452C12.7134 13.4528 12.7062 13.4571 12.6995 13.4654C12.6928 13.4738 12.6869 13.4858 12.6823 13.5008ZM12.689 13.4569C12.6972 13.4468 12.7073 13.4399 12.7193 13.4386C12.7312 13.4373 12.7426 13.4419 12.7528 13.4501C12.7629 13.4582 12.7723 13.4703 12.7804 13.485C12.7968 13.5144 12.8092 13.5557 12.8142 13.6019C12.8191 13.6481 12.8158 13.6911 12.806 13.7234C12.8011 13.7395 12.7946 13.7532 12.7864 13.7634C12.7782 13.7735 12.768 13.7804 12.7561 13.7817C12.7441 13.783 12.7327 13.7784 12.7226 13.7702C12.7124 13.7621 12.7031 13.75 12.6949 13.7353C12.6785 13.7059 12.6661 13.6646 12.6612 13.6184C12.6562 13.5722 12.6596 13.5292 12.6694 13.4969C12.6742 13.4808 12.6808 13.4671 12.689 13.4569Z" fill="black"/>
<path d="M12.6639 13.7172C12.7025 13.7131 12.7258 13.6359 12.716 13.5449C12.7063 13.4539 12.6671 13.3834 12.6286 13.3875C12.59 13.3917 12.5667 13.4688 12.5765 13.5599C12.5862 13.6509 12.6254 13.7214 12.6639 13.7172Z" fill="#006B3F"/>
<path fill-rule="evenodd" clip-rule="evenodd" d="M12.5864 13.4432C12.5773 13.4733 12.5739 13.5144 12.5787 13.5593C12.5835 13.6041 12.5956 13.6436 12.6109 13.6711C12.6185 13.6849 12.6268 13.6954 12.6352 13.7021C12.6435 13.7088 12.6514 13.7114 12.6587 13.7107C12.6661 13.7099 12.6733 13.7056 12.68 13.6973C12.6867 13.6889 12.6926 13.6769 12.6972 13.6619C12.7063 13.6317 12.7097 13.5906 12.7049 13.5458C12.7001 13.5009 12.688 13.4615 12.6727 13.434C12.6651 13.4202 12.6568 13.4097 12.6484 13.403C12.6401 13.3963 12.6322 13.3936 12.6248 13.3944C12.6175 13.3952 12.6103 13.3995 12.6036 13.4078C12.5969 13.4161 12.591 13.4281 12.5864 13.4432ZM12.5931 13.3993C12.6013 13.3891 12.6115 13.3822 12.6234 13.381C12.6353 13.3797 12.6467 13.3843 12.6569 13.3925C12.6671 13.4006 12.6764 13.4127 12.6846 13.4274C12.7009 13.4568 12.7134 13.4981 12.7183 13.5443C12.7233 13.5905 12.7199 13.6335 12.7101 13.6658C12.7052 13.6819 12.6987 13.6956 12.6905 13.7058C12.6823 13.7159 12.6721 13.7228 12.6602 13.7241C12.6483 13.7254 12.6368 13.7208 12.6267 13.7126C12.6165 13.7044 12.6072 13.6924 12.599 13.6777C12.5827 13.6482 12.5702 13.6069 12.5653 13.5607C12.5603 13.5145 12.5637 13.4715 12.5735 13.4393C12.5783 13.4232 12.5849 13.4094 12.5931 13.3993Z" fill="black"/>
<path d="M12.5387 13.6357C12.5773 13.6316 12.6006 13.5544 12.5909 13.4634C12.5811 13.3723 12.5419 13.3019 12.5034 13.306C12.4648 13.3101 12.4415 13.3873 12.4513 13.4783C12.461 13.5694 12.5002 13.6398 12.5387 13.6357Z" fill="#006B3F"/>
<path fill-rule="evenodd" clip-rule="evenodd" d="M12.4692 13.3607C12.4601 13.3908 12.4567 13.4319 12.4615 13.4768C12.4663 13.5216 12.4784 13.5611 12.4937 13.5886C12.5013 13.6024 12.5096 13.6128 12.518 13.6196C12.5263 13.6263 12.5342 13.6289 12.5416 13.6281C12.5489 13.6274 12.5561 13.6231 12.5628 13.6147C12.5695 13.6064 12.5754 13.5944 12.58 13.5793C12.5891 13.5492 12.5925 13.5081 12.5877 13.4632C12.5829 13.4184 12.5708 13.3789 12.5555 13.3514C12.5479 13.3377 12.5396 13.3272 12.5312 13.3205C12.5229 13.3138 12.515 13.3111 12.5076 13.3119C12.5003 13.3127 12.4931 13.317 12.4864 13.3253C12.4797 13.3336 12.4738 13.3456 12.4692 13.3607ZM12.4759 13.3168C12.4841 13.3066 12.4943 13.2997 12.5062 13.2984C12.5181 13.2972 12.5296 13.3017 12.5397 13.3099C12.5499 13.3181 12.5592 13.3302 12.5674 13.3449C12.5837 13.3743 12.5962 13.4156 12.6011 13.4618C12.6061 13.508 12.6027 13.551 12.5929 13.5832C12.5881 13.5994 12.5815 13.6131 12.5733 13.6232C12.5651 13.6334 12.5549 13.6403 12.543 13.6416C12.5311 13.6429 12.5197 13.6383 12.5095 13.6301C12.4993 13.6219 12.49 13.6099 12.4818 13.5952C12.4655 13.5657 12.453 13.5244 12.4481 13.4782C12.4431 13.432 12.4465 13.389 12.4563 13.3568C12.4612 13.3407 12.4677 13.3269 12.4759 13.3168Z" fill="black"/>
<path d="M12.4313 13.5859C12.4699 13.5818 12.4932 13.5046 12.4834 13.4136C12.4737 13.3225 12.4345 13.2521 12.396 13.2562C12.3574 13.2603 12.3341 13.3375 12.3438 13.4285C12.3536 13.5196 12.3928 13.59 12.4313 13.5859Z" fill="#006B3F"/>
<path fill-rule="evenodd" clip-rule="evenodd" d="M12.3577 13.3119C12.3486 13.342 12.3452 13.3831 12.35 13.4279C12.3548 13.4728 12.3669 13.5122 12.3822 13.5398C12.3898 13.5535 12.3981 13.564 12.4065 13.5707C12.4148 13.5774 12.4227 13.5801 12.43 13.5793C12.4374 13.5785 12.4446 13.5742 12.4513 13.5659C12.458 13.5576 12.4639 13.5456 12.4685 13.5305C12.4776 13.5004 12.481 13.4593 12.4762 13.4144C12.4714 13.3696 12.4593 13.3301 12.444 13.3026C12.4364 13.2888 12.4281 13.2784 12.4197 13.2716C12.4114 13.2649 12.4035 13.2623 12.3961 13.2631C12.3888 13.2638 12.3816 13.2681 12.3749 13.2764C12.3682 13.2848 12.3623 13.2968 12.3577 13.3119ZM12.3644 13.268C12.3726 13.2578 12.3828 13.2509 12.3947 13.2496C12.4066 13.2483 12.418 13.2529 12.4282 13.2611C12.4384 13.2693 12.4477 13.2813 12.4559 13.296C12.4722 13.3255 12.4847 13.3668 12.4896 13.413C12.4946 13.4592 12.4912 13.5022 12.4814 13.5344C12.4765 13.5505 12.47 13.5643 12.4618 13.5744C12.4536 13.5846 12.4434 13.5915 12.4315 13.5928C12.4196 13.594 12.4081 13.5895 12.398 13.5813C12.3878 13.5731 12.3785 13.561 12.3703 13.5463C12.354 13.5169 12.3415 13.4756 12.3366 13.4294C12.3316 13.3832 12.335 13.3402 12.3448 13.3079C12.3496 13.2918 12.3562 13.2781 12.3644 13.268Z" fill="black"/>
<path d="M12.2927 12.0596C12.2927 12.0596 12.049 12.2711 12.0764 12.8434C12.107 13.4191 12.615 13.6896 12.615 13.6896C12.615 13.6896 12.7444 13.5263 12.7294 13.0637C12.6931 12.3876 12.4532 12.0888 12.4532 12.0888L12.2927 12.0596Z" fill="#9461C9"/>
<path fill-rule="evenodd" clip-rule="evenodd" d="M12.2922 12.0542L12.4567 12.0841L12.4578 12.0855L12.4541 12.0885C12.4578 12.0855 12.4578 12.0855 12.4578 12.0855L12.4579 12.0856L12.4579 12.0856L12.458 12.0858L12.4586 12.0865C12.4591 12.0871 12.4597 12.088 12.4606 12.0892C12.4624 12.0916 12.4651 12.0952 12.4684 12.1C12.4751 12.1095 12.4847 12.1239 12.4963 12.1433C12.5194 12.1821 12.5507 12.2408 12.583 12.3206C12.6477 12.4803 12.7169 12.7246 12.735 13.0632L12.735 13.0633C12.7426 13.2951 12.7139 13.4521 12.6833 13.5513C12.6679 13.6009 12.6521 13.6361 12.6401 13.6589C12.634 13.6703 12.629 13.6786 12.6254 13.6841C12.6236 13.6868 12.6222 13.6889 12.6212 13.6902C12.6207 13.6909 12.6203 13.6914 12.62 13.6918L12.6197 13.6922L12.6196 13.6923L12.6196 13.6923C12.6196 13.6923 12.6196 13.6924 12.6158 13.6894L12.6196 13.6924L12.6171 13.6955L12.6136 13.6936L12.6158 13.6895C12.6147 13.6916 12.6141 13.6926 12.6139 13.6931C12.6136 13.6936 12.6136 13.6936 12.6136 13.6936L12.6136 13.6936L12.6135 13.6935L12.6132 13.6934C12.6129 13.6933 12.6126 13.693 12.6121 13.6928C12.6111 13.6922 12.6096 13.6914 12.6078 13.6904C12.604 13.6882 12.5985 13.685 12.5915 13.6807C12.5774 13.6721 12.5574 13.6593 12.5332 13.642C12.4849 13.6075 12.4202 13.5555 12.3546 13.4854C12.2232 13.3453 12.0879 13.1327 12.0725 12.8434L12.0725 12.8434C12.0588 12.5565 12.113 12.3597 12.1708 12.2346C12.1997 12.172 12.2295 12.1274 12.2521 12.0984C12.2635 12.0838 12.273 12.0732 12.2797 12.0662C12.2831 12.0627 12.2857 12.0601 12.2875 12.0584C12.2885 12.0575 12.2892 12.0568 12.2897 12.0564L12.2902 12.0559L12.2904 12.0558L12.2904 12.0557L12.2904 12.0557C12.2904 12.0557 12.2904 12.0557 12.2936 12.0593L12.2904 12.0557L12.2922 12.0542ZM12.295 12.0644C12.2948 12.0647 12.2945 12.065 12.2941 12.0653C12.2924 12.0669 12.2898 12.0694 12.2866 12.0728C12.2801 12.0796 12.2708 12.09 12.2597 12.1042C12.2375 12.1327 12.2081 12.1767 12.1795 12.2386C12.1223 12.3623 12.0684 12.5575 12.082 12.8429C12.0973 13.1293 12.2312 13.3398 12.3615 13.4789C12.4267 13.5484 12.4909 13.6 12.5388 13.6342C12.5627 13.6513 12.5826 13.6641 12.5964 13.6726C12.6034 13.6768 12.6088 13.68 12.6125 13.6821C12.6132 13.6825 12.6139 13.6828 12.6145 13.6832C12.6152 13.682 12.6162 13.6806 12.6174 13.6788C12.6208 13.6736 12.6257 13.6655 12.6316 13.6544C12.6434 13.6321 12.659 13.5975 12.6741 13.5485C12.7044 13.4504 12.733 13.2945 12.7255 13.0637C12.7074 12.7262 12.6384 12.483 12.5741 12.3242C12.542 12.2449 12.511 12.1866 12.4881 12.1482C12.4766 12.129 12.4671 12.1148 12.4606 12.1054C12.4573 12.1007 12.4547 12.0972 12.453 12.0949C12.4524 12.0941 12.4519 12.0934 12.4515 12.0929L12.295 12.0644Z" fill="black"/>
<path d="M12.8288 13.9593C12.869 13.9622 12.9068 13.893 12.9132 13.8047C12.9196 13.7164 12.8922 13.6425 12.852 13.6396C12.8119 13.6366 12.7741 13.7059 12.7677 13.7941C12.7613 13.8824 12.7887 13.9564 12.8288 13.9593Z" fill="#006B3F"/>
<path fill-rule="evenodd" clip-rule="evenodd" d="M12.8072 13.6846C12.7925 13.7116 12.7816 13.75 12.7785 13.7934C12.7753 13.8368 12.7805 13.8764 12.7912 13.9052C12.8021 13.9347 12.8176 13.9503 12.8335 13.9515C12.8494 13.9526 12.867 13.9394 12.882 13.9118C12.8967 13.8849 12.9076 13.8464 12.9108 13.803C12.9139 13.7596 12.9087 13.72 12.898 13.6912C12.8872 13.6618 12.8717 13.6461 12.8557 13.645C12.8398 13.6438 12.8222 13.6571 12.8072 13.6846ZM12.7956 13.6783C12.8111 13.6499 12.8324 13.63 12.8567 13.6317C12.881 13.6335 12.8993 13.6563 12.9105 13.6866C12.922 13.7176 12.9272 13.7591 12.924 13.804C12.9207 13.8489 12.9095 13.8892 12.8937 13.9182C12.8782 13.9466 12.8568 13.9665 12.8325 13.9647C12.8083 13.9629 12.79 13.9402 12.7788 13.9098C12.7673 13.8789 12.762 13.8373 12.7653 13.7925C12.7685 13.7476 12.7797 13.7072 12.7956 13.6783Z" fill="black"/>
<path d="M12.7076 13.9285C12.7478 13.9314 12.7856 13.8622 12.792 13.7739C12.7984 13.6857 12.771 13.6117 12.7308 13.6088C12.6907 13.6059 12.6529 13.6751 12.6465 13.7634C12.6401 13.8517 12.6674 13.9256 12.7076 13.9285Z" fill="#006B3F"/>
<path fill-rule="evenodd" clip-rule="evenodd" d="M12.6841 13.6539C12.6694 13.6808 12.6585 13.7192 12.6554 13.7627C12.6522 13.8061 12.6574 13.8457 12.6681 13.8745C12.679 13.9039 12.6945 13.9196 12.7104 13.9207C12.7263 13.9219 12.7439 13.9086 12.7589 13.8811C12.7736 13.8541 12.7845 13.8157 12.7876 13.7723C12.7908 13.7288 12.7856 13.6893 12.7749 13.6605C12.764 13.631 12.7485 13.6154 12.7326 13.6142C12.7167 13.6131 12.6991 13.6263 12.6841 13.6539ZM12.6725 13.6475C12.688 13.6191 12.7093 13.5992 12.7336 13.601C12.7579 13.6027 12.7762 13.6255 12.7874 13.6558C12.7989 13.6868 12.8041 13.7284 12.8009 13.7732C12.7976 13.8181 12.7864 13.8584 12.7706 13.8874C12.7551 13.9158 12.7337 13.9357 12.7094 13.9339C12.6852 13.9322 12.6669 13.9094 12.6556 13.8791C12.6442 13.8481 12.6389 13.8066 12.6421 13.7617C12.6454 13.7168 12.6566 13.6765 12.6725 13.6475Z" fill="black"/>
<path d="M12.6589 13.7576C12.6991 13.7605 12.7369 13.6913 12.7433 13.603C12.7497 13.5148 12.7223 13.4408 12.6821 13.4379C12.6419 13.435 12.6042 13.5042 12.5978 13.5925C12.5914 13.6808 12.6187 13.7547 12.6589 13.7576Z" fill="#006B3F"/>
<path fill-rule="evenodd" clip-rule="evenodd" d="M12.6275 13.4849C12.6128 13.5119 12.602 13.5503 12.5988 13.5937C12.5957 13.6371 12.6008 13.6767 12.6115 13.7055C12.6224 13.7349 12.6379 13.7506 12.6538 13.7518C12.6697 13.7529 12.6873 13.7397 12.7023 13.7121C12.7171 13.6851 12.7279 13.6467 12.7311 13.6033C12.7342 13.5599 12.729 13.5203 12.7184 13.4915C12.7075 13.4621 12.692 13.4464 12.6761 13.4453C12.6602 13.4441 12.6426 13.4574 12.6275 13.4849ZM12.6159 13.4786C12.6314 13.4502 12.6527 13.4303 12.677 13.432C12.7013 13.4338 12.7196 13.4566 12.7308 13.4869C12.7423 13.5179 12.7476 13.5594 12.7443 13.6043C12.741 13.6491 12.7298 13.6895 12.714 13.7185C12.6985 13.7469 12.6771 13.7668 12.6528 13.765C12.6286 13.7632 12.6103 13.7405 12.5991 13.7101C12.5876 13.6792 12.5823 13.6376 12.5856 13.5928C12.5888 13.5479 12.6001 13.5075 12.6159 13.4786Z" fill="black"/>
<path d="M12.7748 13.7895C12.8135 13.7923 12.8506 13.7156 12.8578 13.6183C12.8649 13.5209 12.8393 13.4396 12.8007 13.4368C12.762 13.4339 12.7249 13.5106 12.7177 13.608C12.7106 13.7054 12.7362 13.7866 12.7748 13.7895Z" fill="#006B3F"/>
<path fill-rule="evenodd" clip-rule="evenodd" d="M12.7524 13.4892C12.7379 13.5192 12.7269 13.5618 12.7234 13.6098C12.7199 13.6578 12.7245 13.7015 12.7345 13.7333C12.7395 13.7492 12.7458 13.7618 12.7527 13.7704C12.7597 13.779 12.7669 13.7831 12.7739 13.7836C12.781 13.7842 12.7887 13.7811 12.7969 13.7736C12.805 13.7661 12.813 13.7546 12.8203 13.7396C12.8348 13.7096 12.8457 13.667 12.8493 13.619C12.8528 13.571 12.8482 13.5273 12.8382 13.4955C12.8332 13.4796 12.8269 13.467 12.82 13.4584C12.813 13.4498 12.8058 13.4457 12.7987 13.4452C12.7917 13.4446 12.784 13.4477 12.7758 13.4552C12.7677 13.4627 12.7597 13.4742 12.7524 13.4892ZM12.7662 13.4447C12.7761 13.4355 12.7875 13.43 12.7998 13.4309C12.8121 13.4318 12.8226 13.4389 12.831 13.4494C12.8395 13.4599 12.8465 13.4743 12.8518 13.4912C12.8625 13.5251 12.8671 13.5707 12.8635 13.6201C12.8599 13.6694 12.8486 13.7139 12.8331 13.7458C12.8254 13.7618 12.8164 13.775 12.8065 13.7841C12.7966 13.7933 12.7852 13.7988 12.7729 13.7979C12.7606 13.797 12.7501 13.7899 12.7416 13.7794C12.7332 13.7689 12.7262 13.7545 12.7209 13.7376C12.7102 13.7037 12.7056 13.6581 12.7092 13.6087C12.7128 13.5594 12.7241 13.5149 12.7396 13.483C12.7473 13.467 12.7563 13.4538 12.7662 13.4447Z" fill="black"/>
<path d="M12.9446 13.8119C12.9832 13.8147 13.02 13.743 13.0266 13.6516C13.0333 13.5603 13.0074 13.484 12.9687 13.4812C12.93 13.4784 12.8933 13.5501 12.8866 13.6414C12.88 13.7328 12.9059 13.8091 12.9446 13.8119Z" fill="#006B3F"/>
<path fill-rule="evenodd" clip-rule="evenodd" d="M12.9199 13.528C12.9055 13.556 12.8948 13.5959 12.8916 13.6409C12.8883 13.6858 12.8931 13.7268 12.9032 13.7566C12.9083 13.7715 12.9146 13.7833 12.9216 13.7914C12.9286 13.7995 12.9359 13.8036 12.9432 13.8041C12.9506 13.8046 12.9584 13.8017 12.9665 13.7947C12.9746 13.7877 12.9826 13.777 12.9898 13.7629C13.0041 13.7349 13.0148 13.6951 13.0181 13.6501C13.0214 13.6051 13.0166 13.5641 13.0065 13.5343C13.0014 13.5194 12.9951 13.5076 12.9881 13.4995C12.9811 13.4914 12.9737 13.4874 12.9664 13.4869C12.959 13.4863 12.9512 13.4893 12.9431 13.4962C12.935 13.5032 12.927 13.514 12.9199 13.528ZM12.9343 13.486C12.9442 13.4775 12.9554 13.4725 12.9674 13.4734C12.9794 13.4742 12.9898 13.4808 12.9983 13.4907C13.0068 13.5005 13.0138 13.5141 13.0193 13.53C13.0301 13.5619 13.035 13.6047 13.0316 13.6511C13.0282 13.6974 13.0172 13.7391 13.0018 13.7691C12.9941 13.7841 12.9852 13.7964 12.9754 13.8049C12.9655 13.8135 12.9542 13.8185 12.9423 13.8176C12.9303 13.8167 12.9199 13.8102 12.9113 13.8003C12.9028 13.7904 12.8958 13.7769 12.8904 13.761C12.8795 13.7291 12.8747 13.6862 12.8781 13.6399C12.8814 13.5935 12.8925 13.5518 12.9078 13.5219C12.9155 13.5069 12.9244 13.4945 12.9343 13.486Z" fill="black"/>
<path d="M12.8605 13.7382C12.8992 13.741 12.9359 13.6692 12.9426 13.5779C12.9492 13.4866 12.9233 13.4103 12.8846 13.4075C12.846 13.4046 12.8092 13.4764 12.8026 13.5677C12.7959 13.659 12.8218 13.7353 12.8605 13.7382Z" fill="#006B3F"/>
<path fill-rule="evenodd" clip-rule="evenodd" d="M12.8398 13.4558C12.8254 13.4838 12.8148 13.5236 12.8115 13.5686C12.8082 13.6136 12.813 13.6545 12.8231 13.6843C12.8282 13.6993 12.8345 13.7111 12.8415 13.7192C12.8485 13.7272 12.8558 13.7313 12.8632 13.7318C12.8705 13.7324 12.8784 13.7294 12.8865 13.7224C12.8946 13.7154 12.9025 13.7047 12.9097 13.6907C12.924 13.6627 12.9347 13.6228 12.938 13.5778C12.9413 13.5328 12.9365 13.4919 12.9264 13.4621C12.9213 13.4472 12.915 13.4354 12.908 13.4273C12.901 13.4192 12.8937 13.4151 12.8863 13.4146C12.879 13.4141 12.8711 13.417 12.863 13.424C12.8549 13.431 12.847 13.4417 12.8398 13.4558ZM12.8542 13.4137C12.8641 13.4052 12.8753 13.4002 12.8873 13.4011C12.8993 13.402 12.9097 13.4085 12.9182 13.4184C12.9267 13.4283 12.9338 13.4418 12.9392 13.4577C12.95 13.4896 12.9549 13.5325 12.9515 13.5788C12.9481 13.6252 12.9371 13.6668 12.9217 13.6968C12.9141 13.7118 12.9051 13.7242 12.8953 13.7327C12.8854 13.7412 12.8742 13.7462 12.8622 13.7453C12.8502 13.7444 12.8398 13.7379 12.8313 13.728C12.8227 13.7182 12.8157 13.7046 12.8103 13.6887C12.7995 13.6568 12.7946 13.614 12.798 13.5676C12.8014 13.5213 12.8124 13.4796 12.8278 13.4496C12.8354 13.4346 12.8443 13.4222 12.8542 13.4137Z" fill="black"/>
<path d="M12.7607 13.6371C12.7994 13.6399 12.8361 13.5682 12.8428 13.4768C12.8495 13.3855 12.8235 13.3092 12.7849 13.3064C12.7462 13.3036 12.7094 13.3753 12.7028 13.4666C12.6961 13.558 12.7221 13.6343 12.7607 13.6371Z" fill="#006B3F"/>
<path fill-rule="evenodd" clip-rule="evenodd" d="M12.7324 13.3532C12.718 13.3812 12.7073 13.4211 12.7041 13.4661C12.7008 13.511 12.7056 13.552 12.7157 13.5818C12.7208 13.5967 12.7271 13.6085 12.7341 13.6166C12.7411 13.6247 12.7484 13.6287 12.7557 13.6293C12.7631 13.6298 12.7709 13.6269 12.779 13.6199C12.7871 13.6129 12.7951 13.6021 12.8023 13.5881C12.8166 13.5601 12.8273 13.5203 12.8306 13.4753C12.8339 13.4303 12.8291 13.3893 12.819 13.3595C12.8139 13.3446 12.8076 13.3328 12.8006 13.3247C12.7936 13.3166 12.7862 13.3126 12.7789 13.3121C12.7715 13.3115 12.7637 13.3145 12.7556 13.3214C12.7475 13.3284 12.7395 13.3392 12.7324 13.3532ZM12.7468 13.3112C12.7567 13.3027 12.7679 13.2977 12.7799 13.2986C12.7919 13.2994 12.8023 13.306 12.8108 13.3159C12.8193 13.3257 12.8263 13.3392 12.8318 13.3552C12.8426 13.3871 12.8475 13.4299 12.8441 13.4763C12.8407 13.5226 12.8297 13.5643 12.8143 13.5943C12.8066 13.6093 12.7977 13.6216 12.7879 13.6301C12.778 13.6387 12.7667 13.6436 12.7548 13.6428C12.7428 13.6419 12.7324 13.6353 12.7238 13.6255C12.7153 13.6156 12.7083 13.6021 12.7029 13.5862C12.692 13.5543 12.6872 13.5114 12.6906 13.4651C12.6939 13.4187 12.705 13.377 12.7203 13.3471C12.728 13.3321 12.7369 13.3197 12.7468 13.3112Z" fill="black"/>
<path d="M12.6572 13.5692C12.6959 13.572 12.7326 13.5003 12.7393 13.409C12.7459 13.3176 12.72 13.2413 12.6813 13.2385C12.6427 13.2357 12.6059 13.3074 12.5993 13.3988C12.5926 13.4901 12.6185 13.5664 12.6572 13.5692Z" fill="#006B3F"/>
<path fill-rule="evenodd" clip-rule="evenodd" d="M12.6386 13.2858C12.6243 13.3138 12.6136 13.3537 12.6103 13.3987C12.607 13.4437 12.6118 13.4846 12.6219 13.5144C12.627 13.5293 12.6333 13.5411 12.6403 13.5492C12.6473 13.5573 12.6546 13.5614 12.662 13.5619C12.6694 13.5624 12.6772 13.5595 12.6853 13.5525C12.6934 13.5455 12.7013 13.5348 12.7085 13.5207C12.7229 13.4927 12.7335 13.4529 12.7368 13.4079C12.7401 13.3629 12.7353 13.322 12.7252 13.2922C12.7201 13.2772 12.7138 13.2654 12.7068 13.2573C12.6998 13.2493 12.6925 13.2452 12.6851 13.2447C12.6778 13.2441 12.6699 13.2471 12.6619 13.2541C12.6537 13.2611 12.6458 13.2718 12.6386 13.2858ZM12.653 13.2438C12.6629 13.2353 12.6742 13.2303 12.6861 13.2312C12.6981 13.2321 12.7085 13.2386 12.7171 13.2485C12.7256 13.2583 12.7326 13.2719 12.738 13.2878C12.7488 13.3197 12.7537 13.3625 12.7503 13.4089C12.7469 13.4552 12.7359 13.4969 12.7206 13.5269C12.7129 13.5419 12.704 13.5543 12.6941 13.5628C12.6842 13.5713 12.673 13.5763 12.661 13.5754C12.649 13.5745 12.6386 13.568 12.6301 13.5581C12.6216 13.5482 12.6145 13.5347 12.6091 13.5188C12.5983 13.4869 12.5934 13.444 12.5968 13.3977C12.6002 13.3513 12.6112 13.3097 12.6266 13.2797C12.6343 13.2647 12.6432 13.2523 12.653 13.2438Z" fill="black"/>
<path d="M13.0557 13.6249C13.1603 13.5807 13.135 13.2846 12.9994 12.9635C12.8637 12.6423 12.6689 12.4178 12.5643 12.462C12.4598 12.5062 12.485 12.8023 12.6207 13.1235C12.7564 13.4446 12.9511 13.6691 13.0557 13.6249Z" fill="#D41C30"/>
<path fill-rule="evenodd" clip-rule="evenodd" d="M12.5042 12.6878C12.5143 12.807 12.5544 12.9608 12.6221 13.1211C12.6899 13.2814 12.7723 13.4174 12.8506 13.5077C12.8898 13.5529 12.9279 13.5865 12.9624 13.606C12.9969 13.6256 13.0273 13.6307 13.0517 13.6204C13.0761 13.6101 13.0936 13.5848 13.1037 13.5463C13.1138 13.508 13.1162 13.4573 13.1111 13.3977C13.101 13.2785 13.0609 13.1246 12.9932 12.9644C12.9254 12.8041 12.843 12.6681 12.7647 12.5777C12.7255 12.5326 12.6874 12.499 12.6529 12.4794C12.6184 12.4599 12.588 12.4548 12.5636 12.4651C12.5392 12.4754 12.5217 12.5007 12.5116 12.5392C12.5015 12.5775 12.4991 12.6282 12.5042 12.6878ZM12.5036 12.5371C12.5139 12.4975 12.5325 12.4692 12.5604 12.4574C12.5882 12.4457 12.6214 12.4521 12.657 12.4722C12.6927 12.4924 12.7314 12.5267 12.771 12.5723C12.85 12.6635 12.9329 12.8003 13.0008 12.9611C13.0688 13.122 13.1092 13.2767 13.1194 13.397C13.1245 13.4571 13.1221 13.5088 13.1117 13.5484C13.1014 13.588 13.0828 13.6163 13.0549 13.628C13.0271 13.6398 12.9939 13.6334 12.9583 13.6133C12.9226 13.5931 12.8839 13.5588 12.8443 13.5132C12.7653 13.422 12.6824 13.2852 12.6145 13.1244C12.5465 12.9635 12.5061 12.8087 12.4959 12.6885C12.4908 12.6284 12.4932 12.5767 12.5036 12.5371Z" fill="black"/>
<path d="M12.6509 12.5318C12.7013 12.5327 12.7427 12.4974 12.7435 12.4529C12.7443 12.4084 12.7041 12.3717 12.6538 12.3708C12.6034 12.3699 12.5619 12.4052 12.5611 12.4497C12.5603 12.4941 12.6005 12.5309 12.6509 12.5318Z" fill="#006B3F"/>
<path fill-rule="evenodd" clip-rule="evenodd" d="M12.6552 12.3759C12.6072 12.375 12.5688 12.4086 12.5681 12.4494C12.5674 12.4903 12.6045 12.5252 12.6525 12.526C12.7006 12.5269 12.7389 12.4933 12.7396 12.4525C12.7404 12.4116 12.7032 12.3767 12.6552 12.3759ZM12.5572 12.4492C12.5581 12.4011 12.6027 12.3641 12.6554 12.365C12.7081 12.3659 12.7513 12.4046 12.7505 12.4527C12.7496 12.5007 12.705 12.5378 12.6523 12.5369C12.5996 12.536 12.5564 12.4973 12.5572 12.4492Z" fill="black"/>
<path d="M12.7216 12.4198C12.7667 12.4206 12.8039 12.3852 12.8047 12.3408C12.8055 12.2963 12.7696 12.2596 12.7245 12.2588C12.6793 12.258 12.6421 12.2934 12.6413 12.3378C12.6405 12.3823 12.6765 12.419 12.7216 12.4198Z" fill="#006B3F"/>
<path fill-rule="evenodd" clip-rule="evenodd" d="M12.7216 12.2647C12.6794 12.2639 12.6447 12.2971 12.6439 12.3385C12.6432 12.3799 12.6767 12.4143 12.7189 12.415C12.7612 12.4158 12.7959 12.3827 12.7966 12.3412C12.7974 12.2998 12.7639 12.2655 12.7216 12.2647ZM12.6332 12.3383C12.6341 12.2908 12.6738 12.2531 12.7218 12.254C12.7698 12.2548 12.8082 12.2939 12.8073 12.3414C12.8065 12.3889 12.7668 12.4266 12.7188 12.4257C12.6708 12.4249 12.6324 12.3858 12.6332 12.3383Z" fill="black"/>
<path d="M12.6101 12.4179C12.6552 12.4187 12.6924 12.3833 12.6932 12.3388C12.694 12.2943 12.6581 12.2576 12.6129 12.2568C12.5678 12.256 12.5306 12.2914 12.5298 12.3359C12.529 12.3804 12.565 12.4171 12.6101 12.4179Z" fill="#006B3F"/>
<path fill-rule="evenodd" clip-rule="evenodd" d="M12.6103 12.2627C12.5681 12.262 12.5334 12.2951 12.5326 12.3366C12.5319 12.378 12.5654 12.4123 12.6076 12.4131C12.6499 12.4138 12.6846 12.3807 12.6853 12.3393C12.686 12.2978 12.6525 12.2635 12.6103 12.2627ZM12.5219 12.3364C12.5228 12.2889 12.5625 12.2512 12.6105 12.252C12.6585 12.2529 12.6969 12.292 12.696 12.3395C12.6952 12.387 12.6554 12.4246 12.6074 12.4238C12.5594 12.4229 12.5211 12.3839 12.5219 12.3364Z" fill="black"/>
<path d="M12.6336 12.3314C12.6808 12.3323 12.7197 12.2991 12.7204 12.2573C12.7212 12.2156 12.6835 12.1811 12.6363 12.1802C12.5891 12.1794 12.5502 12.2126 12.5494 12.2543C12.5487 12.296 12.5864 12.3306 12.6336 12.3314Z" fill="#006B3F"/>
<path fill-rule="evenodd" clip-rule="evenodd" d="M12.6337 12.1848C12.5888 12.184 12.5531 12.2154 12.5524 12.2536C12.5517 12.2917 12.5863 12.3244 12.6312 12.3252C12.6761 12.326 12.7118 12.2946 12.7125 12.2564C12.7132 12.2183 12.6786 12.1856 12.6337 12.1848ZM12.5415 12.2534C12.5423 12.208 12.5843 12.1731 12.6339 12.174C12.6835 12.1749 12.7242 12.2113 12.7234 12.2566C12.7226 12.302 12.6806 12.3369 12.631 12.336C12.5814 12.3351 12.5407 12.2987 12.5415 12.2534Z" fill="black"/>
<path d="M12.6258 12.2367C12.673 12.2375 12.7119 12.2044 12.7126 12.1626C12.7134 12.1209 12.6757 12.0863 12.6285 12.0855C12.5812 12.0847 12.5424 12.1178 12.5416 12.1596C12.5409 12.2013 12.5786 12.2358 12.6258 12.2367Z" fill="#006B3F"/>
<path fill-rule="evenodd" clip-rule="evenodd" d="M12.6259 12.0911C12.581 12.0903 12.5452 12.1217 12.5446 12.1598C12.5439 12.198 12.5785 12.2306 12.6234 12.2314C12.6683 12.2322 12.704 12.2008 12.7047 12.1627C12.7054 12.1245 12.6708 12.0919 12.6259 12.0911ZM12.5337 12.1596C12.5345 12.1143 12.5765 12.0793 12.6261 12.0802C12.6756 12.0811 12.7164 12.1175 12.7156 12.1629C12.7148 12.2082 12.6728 12.2431 12.6232 12.2423C12.5736 12.2414 12.5329 12.205 12.5337 12.1596Z" fill="black"/>
<path d="M12.5046 12.3539C12.5497 12.3547 12.587 12.3193 12.5877 12.2748C12.5885 12.2304 12.5526 12.1937 12.5075 12.1929C12.4624 12.1921 12.4251 12.2275 12.4243 12.2719C12.4236 12.3164 12.4595 12.3531 12.5046 12.3539Z" fill="#006B3F"/>
<path fill-rule="evenodd" clip-rule="evenodd" d="M12.5087 12.1998C12.4665 12.199 12.4318 12.2321 12.4311 12.2736C12.4303 12.315 12.4638 12.3493 12.5061 12.3501C12.5483 12.3508 12.583 12.3177 12.5837 12.2763C12.5845 12.2348 12.551 12.2005 12.5087 12.1998ZM12.4203 12.2734C12.4212 12.2259 12.4609 12.1882 12.5089 12.189C12.5569 12.1899 12.5953 12.229 12.5944 12.2765C12.5936 12.324 12.5539 12.3617 12.5059 12.3608C12.4579 12.3599 12.4195 12.3209 12.4203 12.2734Z" fill="black"/>
<path d="M12.5262 12.252C12.5713 12.2528 12.6085 12.2181 12.6093 12.1746C12.61 12.131 12.5741 12.095 12.529 12.0942C12.4838 12.0934 12.4466 12.1281 12.4459 12.1716C12.4451 12.2152 12.481 12.2512 12.5262 12.252Z" fill="#006B3F"/>
<path fill-rule="evenodd" clip-rule="evenodd" d="M12.5341 12.0987C12.4918 12.098 12.4572 12.1304 12.4565 12.1709C12.4558 12.2113 12.4892 12.245 12.5315 12.2457C12.5739 12.2465 12.6084 12.214 12.6092 12.1736C12.6099 12.1332 12.5765 12.0995 12.5341 12.0987ZM12.4458 12.1707C12.4466 12.124 12.4864 12.0871 12.5343 12.088C12.5822 12.0888 12.6207 12.1271 12.6199 12.1738C12.6191 12.2205 12.5792 12.2573 12.5313 12.2565C12.4834 12.2556 12.4449 12.2174 12.4458 12.1707Z" fill="black"/>
<path d="M12.3988 12.2554C12.4492 12.2563 12.4907 12.221 12.4914 12.1765C12.4922 12.1321 12.4521 12.0953 12.4017 12.0944C12.3513 12.0935 12.3098 12.1288 12.3091 12.1733C12.3083 12.2178 12.3484 12.2545 12.3988 12.2554Z" fill="#006B3F"/>
<path fill-rule="evenodd" clip-rule="evenodd" d="M12.3993 12.1C12.3513 12.0991 12.3129 12.1327 12.3122 12.1735C12.3114 12.2144 12.3486 12.2493 12.3966 12.2502C12.4446 12.251 12.483 12.2175 12.4837 12.1766C12.4844 12.1357 12.4473 12.1008 12.3993 12.1ZM12.3013 12.1733C12.3022 12.1253 12.3468 12.0882 12.3995 12.0891C12.4522 12.0901 12.4954 12.1287 12.4946 12.1768C12.4937 12.2249 12.4491 12.2619 12.3964 12.261C12.3437 12.2601 12.3005 12.2214 12.3013 12.1733Z" fill="black"/>
<path d="M12.5652 12.12C12.6124 12.1208 12.6513 12.0877 12.652 12.0459C12.6528 12.0042 12.6151 11.9696 12.5679 11.9688C12.5206 11.968 12.4818 12.0011 12.481 12.0429C12.4803 12.0846 12.5179 12.1191 12.5652 12.12Z" fill="#006B3F"/>
<path fill-rule="evenodd" clip-rule="evenodd" d="M12.5617 11.9739C12.5168 11.9731 12.481 12.0045 12.4804 12.0426C12.4797 12.0808 12.5143 12.1134 12.5592 12.1142C12.604 12.115 12.6398 12.0836 12.6405 12.0455C12.6412 12.0073 12.6065 11.9747 12.5617 11.9739ZM12.4695 12.0424C12.4703 11.9971 12.5123 11.9622 12.5619 11.963C12.6114 11.9639 12.6522 12.0003 12.6513 12.0457C12.6505 12.091 12.6086 12.126 12.559 12.1251C12.5094 12.1242 12.4687 12.0878 12.4695 12.0424Z" fill="black"/>
<path d="M12.4539 12.1372C12.499 12.138 12.5362 12.1034 12.537 12.0598C12.5378 12.0163 12.5018 11.9803 12.4567 11.9795C12.4116 11.9787 12.3744 12.0133 12.3736 12.0569C12.3728 12.1005 12.4088 12.1364 12.4539 12.1372Z" fill="#006B3F"/>
<path fill-rule="evenodd" clip-rule="evenodd" d="M12.4502 11.9854C12.4078 11.9847 12.3732 12.0172 12.3725 12.0576C12.3718 12.098 12.4052 12.1317 12.4475 12.1324C12.4899 12.1332 12.5245 12.1007 12.5252 12.0603C12.5259 12.0199 12.4925 11.9862 12.4502 11.9854ZM12.3618 12.0574C12.3626 12.0107 12.4024 11.9738 12.4503 11.9747C12.4982 11.9755 12.5367 12.0138 12.5359 12.0605C12.5351 12.1072 12.4952 12.144 12.4473 12.1432C12.3994 12.1423 12.3609 12.1041 12.3618 12.0574Z" fill="black"/>
<path d="M12.2741 12.2601C12.3193 12.261 12.3565 12.2256 12.3573 12.1811C12.3581 12.1366 12.3221 12.0999 12.277 12.0991C12.2319 12.0983 12.1947 12.1337 12.1939 12.1782C12.1931 12.2226 12.229 12.2593 12.2741 12.2601Z" fill="#006B3F"/>
<path fill-rule="evenodd" clip-rule="evenodd" d="M12.2822 12.105C12.2399 12.1043 12.2052 12.1374 12.2045 12.1788C12.2038 12.2203 12.2373 12.2546 12.2795 12.2554C12.3217 12.2561 12.3564 12.223 12.3572 12.1816C12.3579 12.1401 12.3244 12.1058 12.2822 12.105ZM12.1938 12.1786C12.1946 12.1311 12.2344 12.0935 12.2824 12.0943C12.3304 12.0952 12.3687 12.1342 12.3679 12.1817C12.367 12.2292 12.3273 12.2669 12.2793 12.2661C12.2313 12.2652 12.1929 12.2261 12.1938 12.1786Z" fill="black"/>
<path d="M12.3054 12.1997C12.3505 12.2005 12.3877 12.1659 12.3885 12.1223C12.3893 12.0788 12.3533 12.0428 12.3082 12.042C12.2631 12.0412 12.2259 12.0758 12.2251 12.1194C12.2243 12.163 12.2603 12.1989 12.3054 12.1997Z" fill="#006B3F"/>
<path fill-rule="evenodd" clip-rule="evenodd" d="M12.3095 12.0484C12.2672 12.0477 12.2326 12.0801 12.2319 12.1206C12.2312 12.161 12.2646 12.1947 12.3069 12.1954C12.3492 12.1962 12.3838 12.1637 12.3846 12.1233C12.3853 12.0829 12.3519 12.0492 12.3095 12.0484ZM12.2212 12.1204C12.222 12.0737 12.2618 12.0368 12.3097 12.0377C12.3576 12.0385 12.3961 12.0768 12.3953 12.1235C12.3945 12.1702 12.3546 12.207 12.3067 12.2062C12.2588 12.2053 12.2203 12.1671 12.2212 12.1204Z" fill="black"/>
<path d="M12.3406 12.1348C12.3857 12.1356 12.4229 12.1009 12.4237 12.0574C12.4245 12.0138 12.3885 11.9778 12.3434 11.977C12.2983 11.9762 12.2611 12.0109 12.2603 12.0545C12.2595 12.098 12.2955 12.134 12.3406 12.1348Z" fill="#006B3F"/>
<path fill-rule="evenodd" clip-rule="evenodd" d="M12.3408 11.983C12.2984 11.9822 12.2639 12.0147 12.2631 12.0551C12.2624 12.0956 12.2958 12.1293 12.3382 12.13C12.3805 12.1308 12.4151 12.0983 12.4158 12.0579C12.4165 12.0174 12.3831 11.9837 12.3408 11.983ZM12.2524 12.0549C12.2532 12.0082 12.2931 11.9714 12.341 11.9723C12.3889 11.9731 12.4274 12.0113 12.4265 12.058C12.4257 12.1047 12.3859 12.1416 12.338 12.1407C12.2901 12.1399 12.2516 12.1016 12.2524 12.0549Z" fill="black"/>
<path d="M13.1593 13.6378C13.2921 13.5822 13.2698 13.2266 13.1094 12.8436C12.949 12.4606 12.7113 12.1952 12.5784 12.2508C12.4456 12.3065 12.4679 12.6621 12.6283 13.0451C12.7887 13.4281 13.0264 13.6935 13.1593 13.6378Z" fill="#006B3F"/>
<path fill-rule="evenodd" clip-rule="evenodd" d="M12.5005 12.525C12.5095 12.6681 12.555 12.8522 12.6351 13.0433C12.7151 13.2345 12.8144 13.3961 12.91 13.5029C12.9579 13.5563 13.0046 13.5958 13.0474 13.6184C13.0902 13.6411 13.1284 13.6467 13.1598 13.6335C13.1911 13.6204 13.214 13.5893 13.2278 13.5429C13.2417 13.4965 13.2464 13.4355 13.2419 13.3639C13.2329 13.2208 13.1874 13.0367 13.1073 12.8456C13.0273 12.6544 12.928 12.4928 12.8324 12.386C12.7846 12.3326 12.7378 12.2932 12.695 12.2705C12.6522 12.2478 12.614 12.2422 12.5827 12.2554C12.5513 12.2685 12.5285 12.2996 12.5146 12.346C12.5007 12.3924 12.4961 12.4534 12.5005 12.525ZM12.5054 12.3433C12.5197 12.2954 12.5439 12.2612 12.579 12.2465C12.614 12.2319 12.6554 12.2386 12.6995 12.262C12.7437 12.2854 12.7913 12.3258 12.8395 12.3797C12.9361 12.4874 13.0358 12.65 13.1162 12.8419C13.1965 13.0337 13.2424 13.2189 13.2514 13.3633C13.256 13.4355 13.2513 13.4977 13.237 13.5456C13.2227 13.5935 13.1985 13.6277 13.1635 13.6424C13.1284 13.6571 13.087 13.6503 13.0429 13.6269C12.9988 13.6035 12.9511 13.5631 12.9029 13.5093C12.8064 13.4015 12.7066 13.2389 12.6262 13.047C12.5459 12.8552 12.5 12.67 12.491 12.5256C12.4865 12.4534 12.4911 12.3912 12.5054 12.3433Z" fill="black"/>
<path d="M13.1472 13.2094C13.1727 13.1979 13.1642 13.124 13.1283 13.0443C13.0923 12.9647 13.0424 12.9095 13.0169 12.921C12.9914 12.9325 12.9999 13.0065 13.0358 13.0861C13.0718 13.1657 13.1217 13.2209 13.1472 13.2094Z" fill="#006B3F"/>
<path fill-rule="evenodd" clip-rule="evenodd" d="M13.0105 12.9784C13.0139 13.0077 13.0248 13.0456 13.0427 13.085C13.0605 13.1245 13.0817 13.1578 13.1015 13.1797C13.1113 13.1906 13.1207 13.1985 13.1288 13.2029C13.1371 13.2074 13.1433 13.2079 13.1477 13.206C13.152 13.204 13.1557 13.199 13.1578 13.1898C13.1599 13.1808 13.1601 13.1686 13.1585 13.1539C13.1551 13.1246 13.1442 13.0867 13.1263 13.0473C13.1085 13.0078 13.0873 12.9745 13.0675 12.9526C13.0577 12.9417 13.0483 12.9338 13.0402 12.9294C13.0319 12.9249 13.0257 12.9244 13.0213 12.9263C13.0169 12.9283 13.0133 12.9333 13.0112 12.9425C13.0091 12.9515 13.0089 12.9637 13.0105 12.9784ZM13.0018 12.9403C13.0042 12.9299 13.009 12.9214 13.0174 12.9176C13.0258 12.9138 13.0354 12.9158 13.0448 12.9209C13.0542 12.9261 13.0644 12.9348 13.0747 12.9462C13.0952 12.969 13.1169 13.0032 13.1351 13.0433C13.1532 13.0834 13.1645 13.1223 13.168 13.1528C13.1697 13.168 13.1696 13.1814 13.1672 13.192C13.1648 13.2024 13.16 13.2109 13.1516 13.2147C13.1432 13.2185 13.1336 13.2165 13.1242 13.2114C13.1148 13.2062 13.1046 13.1975 13.0943 13.1861C13.0738 13.1633 13.0521 13.1291 13.0339 13.089C13.0158 13.0489 13.0045 13.01 13.001 12.9795C12.9992 12.9643 12.9994 12.9509 13.0018 12.9403Z" fill="black"/>
<path d="M13.0614 13.0655C13.2744 13.3248 13.2475 13.4895 13.2253 13.6288C13.1584 13.4682 13.1219 13.367 12.9088 13.1076C12.6958 12.8482 12.8021 12.6662 12.8168 12.5703C12.8488 12.6533 12.8484 12.8061 13.0614 13.0655Z" fill="#006B3F"/>
<path fill-rule="evenodd" clip-rule="evenodd" d="M12.8156 12.5522L12.8221 12.569C12.829 12.587 12.8345 12.6081 12.8407 12.6325C12.8418 12.6367 12.8429 12.641 12.8441 12.6455C12.8518 12.6754 12.8614 12.7102 12.8766 12.7505C12.9069 12.831 12.9598 12.9335 13.066 13.0629C13.1729 13.193 13.2199 13.2997 13.2372 13.3917C13.2544 13.4831 13.2422 13.5595 13.2311 13.6288L13.2283 13.6467L13.2218 13.6311C13.2185 13.6233 13.2153 13.6156 13.2122 13.608C13.1831 13.5379 13.1583 13.478 13.1186 13.408C13.0747 13.3306 13.0124 13.2407 12.906 13.1111C12.7988 12.9806 12.7717 12.8691 12.7735 12.778C12.7744 12.7325 12.7825 12.6923 12.7913 12.6575C12.7942 12.6458 12.7972 12.6348 12.8 12.6244C12.8056 12.6038 12.8105 12.5858 12.8129 12.57L12.8156 12.5522ZM12.8189 12.5892C12.8163 12.601 12.8128 12.6139 12.809 12.6276C12.8063 12.6379 12.8033 12.6486 12.8005 12.6598C12.7919 12.6943 12.784 12.7337 12.7831 12.7782C12.7813 12.8669 12.8076 12.9762 12.9134 13.105C13.02 13.2349 13.0826 13.3252 13.1269 13.4033C13.1669 13.4738 13.1919 13.5342 13.221 13.6043C13.222 13.6068 13.2231 13.6093 13.2241 13.6118C13.2343 13.5468 13.2434 13.4764 13.2278 13.3935C13.2108 13.3034 13.1647 13.1981 13.0586 13.0689C12.9518 12.9388 12.8984 12.8354 12.8676 12.7539C12.8523 12.7131 12.8426 12.678 12.8348 12.6479C12.8336 12.6434 12.8325 12.639 12.8314 12.6347C12.8271 12.6178 12.8232 12.6026 12.8189 12.5892Z" fill="black"/>
<path d="M13.079 13.274C13.292 13.5333 13.2651 13.698 13.2429 13.8373C13.176 13.6767 13.1395 13.5755 12.9264 13.3161C12.7134 13.0567 12.8197 12.8747 12.8343 12.7788C12.8664 12.8618 12.866 13.0146 13.079 13.274Z" fill="#006B3F"/>
<path fill-rule="evenodd" clip-rule="evenodd" d="M12.8332 12.7603L12.8397 12.777C12.8466 12.795 12.852 12.8161 12.8583 12.8405C12.8594 12.8447 12.8605 12.849 12.8616 12.8535C12.8694 12.8834 12.879 12.9182 12.8941 12.9585C12.9245 13.039 12.9774 13.1415 13.0836 13.2709C13.1905 13.401 13.2374 13.5077 13.2547 13.5997C13.2719 13.6911 13.2598 13.7675 13.2487 13.8368L13.2459 13.8547L13.2394 13.8391C13.2361 13.8313 13.2329 13.8236 13.2298 13.816C13.2007 13.7459 13.1758 13.686 13.1362 13.6161C13.0922 13.5386 13.03 13.4487 12.9236 13.3191C12.8164 13.1886 12.7893 13.0771 12.7911 12.986C12.792 12.9405 12.8001 12.9003 12.8088 12.8655C12.8118 12.8538 12.8148 12.8428 12.8176 12.8324C12.8232 12.8118 12.8281 12.7938 12.8305 12.778L12.8332 12.7603ZM12.8365 12.7972C12.8339 12.809 12.8304 12.8219 12.8266 12.8356C12.8238 12.8459 12.8209 12.8567 12.8181 12.8679C12.8095 12.9023 12.8015 12.9418 12.8007 12.9862C12.7989 13.0749 12.8251 13.1842 12.931 13.313C13.0376 13.4429 13.1002 13.5332 13.1445 13.6113C13.1845 13.6818 13.2095 13.7422 13.2386 13.8123C13.2396 13.8148 13.2407 13.8173 13.2417 13.8198C13.2519 13.7548 13.261 13.6844 13.2453 13.6015C13.2284 13.5114 13.1823 13.4061 13.0762 13.2769C12.9694 13.1469 12.9159 13.0434 12.8852 12.9619C12.8698 12.9211 12.8602 12.886 12.8524 12.8559C12.8512 12.8514 12.8501 12.847 12.849 12.8428C12.8446 12.8258 12.8408 12.8107 12.8365 12.7972Z" fill="black"/>
<path d="M13.0846 13.443C13.3028 13.6977 13.2792 13.8629 13.2598 14.0027C13.1896 13.8435 13.1511 13.7432 12.9329 13.4884C12.7147 13.2336 12.8174 13.0493 12.8301 12.9531C12.8638 13.0354 12.8665 13.1882 13.0846 13.443Z" fill="#006B3F"/>
<path fill-rule="evenodd" clip-rule="evenodd" d="M12.8286 12.9355L12.8354 12.9522C12.8427 12.97 12.8485 12.991 12.8553 13.0152C12.8564 13.0194 12.8576 13.0237 12.8589 13.0281C12.8673 13.0579 12.8775 13.0925 12.8935 13.1325C12.9254 13.2123 12.9804 13.3137 13.0891 13.4407C13.1986 13.5686 13.2477 13.6743 13.2668 13.7659C13.2859 13.8568 13.2752 13.9335 13.2655 14.003L13.2631 14.0209L13.2563 14.0055C13.2528 13.9977 13.2495 13.9901 13.2462 13.9826C13.2157 13.9131 13.1897 13.8538 13.1486 13.7847C13.1031 13.7082 13.0391 13.6196 12.9301 13.4923C12.8204 13.3641 12.791 13.2533 12.791 13.1621C12.791 13.1167 12.7983 13.0763 12.8063 13.0413C12.8091 13.0295 12.8118 13.0184 12.8144 13.008C12.8196 12.9873 12.8242 12.9692 12.8262 12.9534L12.8286 12.9355ZM12.8327 12.9724C12.8302 12.9843 12.827 12.9972 12.8235 13.0111C12.821 13.0214 12.8182 13.0322 12.8157 13.0434C12.8077 13.0781 12.8006 13.1177 12.8006 13.1621C12.8006 13.2509 12.829 13.3595 12.9374 13.4861C13.0466 13.6137 13.111 13.7027 13.1568 13.7798C13.1982 13.8494 13.2245 13.9093 13.2549 13.9787C13.256 13.9812 13.2571 13.9837 13.2582 13.9862C13.2671 13.921 13.2748 13.8504 13.2575 13.7678C13.2387 13.6781 13.1906 13.5739 13.0819 13.4469C12.9725 13.3192 12.917 13.2168 12.8846 13.136C12.8685 13.0956 12.8581 13.0607 12.8497 13.0307C12.8484 13.0263 12.8472 13.0219 12.846 13.0177C12.8413 13.0008 12.8372 12.9858 12.8327 12.9724Z" fill="black"/>
<path d="M13.0414 13.0815C13.0892 13.0616 13.0793 12.9292 13.0195 12.7858C12.9597 12.6423 12.8725 12.5422 12.8247 12.5621C12.777 12.582 12.7868 12.7144 12.8466 12.8579C12.9065 13.0013 12.9937 13.1015 13.0414 13.0815Z" fill="#006B3F"/>
<path fill-rule="evenodd" clip-rule="evenodd" d="M12.8065 12.663C12.8104 12.7159 12.8276 12.7843 12.8574 12.8557C12.8872 12.9271 12.9237 12.9875 12.9585 13.0275C12.976 13.0475 12.9928 13.0622 13.0079 13.0706C13.0232 13.0791 13.0359 13.0809 13.0459 13.0767C13.0559 13.0726 13.0635 13.0623 13.0682 13.0455C13.0729 13.0288 13.0743 13.0065 13.0723 12.98C13.0684 12.9271 13.0511 12.8587 13.0214 12.7873C12.9916 12.7159 12.9551 12.6555 12.9202 12.6155C12.9028 12.5955 12.886 12.5808 12.8708 12.5724C12.8556 12.5639 12.8429 12.5621 12.8329 12.5662C12.8229 12.5704 12.8152 12.5807 12.8106 12.5975C12.8059 12.6142 12.8045 12.6365 12.8065 12.663ZM12.8013 12.5949C12.8063 12.5768 12.8153 12.5631 12.8292 12.5573C12.8431 12.5515 12.8591 12.5547 12.8756 12.5639C12.8921 12.5731 12.9097 12.5887 12.9275 12.6092C12.9632 12.6501 13.0002 12.7115 13.0303 12.7836C13.0604 12.8556 13.0779 12.9251 13.0819 12.9793C13.084 13.0063 13.0826 13.0299 13.0775 13.0481C13.0725 13.0662 13.0635 13.0799 13.0496 13.0857C13.0357 13.0915 13.0197 13.0882 13.0032 13.0791C12.9867 13.0699 12.9691 13.0543 12.9512 13.0338C12.9156 12.9928 12.8786 12.9315 12.8485 12.8594C12.8184 12.7873 12.8008 12.7179 12.7968 12.6637C12.7948 12.6366 12.7962 12.6131 12.8013 12.5949Z" fill="black"/>
<path d="M12.934 13.1798C12.9766 13.1632 12.9737 13.0535 12.9275 12.9347C12.8813 12.816 12.8093 12.7332 12.7667 12.7497C12.724 12.7663 12.7269 12.8761 12.7731 12.9948C12.8193 13.1135 12.8913 13.1964 12.934 13.1798Z" fill="#006B3F"/>
<path fill-rule="evenodd" clip-rule="evenodd" d="M12.7399 12.8337C12.7411 12.8773 12.7532 12.9339 12.7761 12.9929C12.7991 13.0519 12.8284 13.1017 12.857 13.1347C12.8714 13.1512 12.8854 13.1632 12.8981 13.1701C12.9109 13.1771 12.9219 13.1785 12.9307 13.1751C12.9395 13.1717 12.9466 13.1632 12.9513 13.1494C12.9561 13.1357 12.9582 13.1174 12.9577 13.0955C12.9565 13.0519 12.9444 12.9953 12.9215 12.9363C12.8985 12.8773 12.8692 12.8275 12.8406 12.7945C12.8262 12.778 12.8122 12.766 12.7995 12.7591C12.7867 12.7522 12.7757 12.7507 12.7669 12.7541C12.7581 12.7576 12.751 12.766 12.7463 12.7798C12.7415 12.7935 12.7394 12.8118 12.7399 12.8337ZM12.7371 12.7766C12.7423 12.7614 12.7509 12.7499 12.7634 12.7451C12.7759 12.7402 12.79 12.7429 12.8041 12.7505C12.8183 12.7582 12.8332 12.7712 12.8479 12.7881C12.8775 12.8221 12.9073 12.873 12.9306 12.9328C12.9538 12.9926 12.9662 13.0502 12.9674 13.0953C12.968 13.1178 12.9658 13.1374 12.9605 13.1526C12.9553 13.1678 12.9467 13.1793 12.9342 13.1842C12.9217 13.189 12.9077 13.1864 12.8935 13.1787C12.8793 13.171 12.8644 13.1581 12.8497 13.1411C12.8201 13.1071 12.7903 13.0562 12.7671 12.9964C12.7438 12.9367 12.7314 12.879 12.7302 12.8339C12.7296 12.8114 12.7318 12.7918 12.7371 12.7766Z" fill="black"/>
<path d="M12.8309 13.2804C12.8739 13.2646 12.873 13.1548 12.829 13.0353C12.7849 12.9157 12.7144 12.8315 12.6715 12.8474C12.6286 12.8632 12.6294 12.9729 12.6735 13.0925C12.7175 13.2121 12.788 13.2962 12.8309 13.2804Z" fill="#006B3F"/>
<path fill-rule="evenodd" clip-rule="evenodd" d="M12.6432 12.9309C12.6435 12.9746 12.6546 13.0314 12.6765 13.0908C12.6984 13.1502 12.7267 13.2006 12.7548 13.234C12.7688 13.2508 12.7826 13.2631 12.7952 13.2702C12.8079 13.2774 12.8188 13.2791 12.8277 13.2758C12.8366 13.2725 12.8438 13.2642 12.8488 13.2505C12.8538 13.2369 12.8563 13.2186 12.8561 13.1967C12.8558 13.1531 12.8447 13.0963 12.8228 13.0369C12.801 12.9775 12.7726 12.9271 12.7445 12.8936C12.7305 12.8769 12.7167 12.8646 12.7041 12.8574C12.6914 12.8503 12.6805 12.8486 12.6716 12.8519C12.6627 12.8552 12.6555 12.8635 12.6505 12.8771C12.6455 12.8908 12.643 12.9091 12.6432 12.9309ZM12.6414 12.8738C12.6469 12.8587 12.6557 12.8474 12.6683 12.8427C12.6808 12.8381 12.6949 12.841 12.7089 12.8489C12.7229 12.8569 12.7375 12.8701 12.752 12.8874C12.7809 12.9219 12.8098 12.9734 12.832 13.0335C12.8541 13.0937 12.8655 13.1516 12.8659 13.1967C12.8661 13.2192 12.8635 13.2387 12.8579 13.2539C12.8524 13.269 12.8437 13.2803 12.8311 13.2849C12.8185 13.2896 12.8045 13.2866 12.7905 13.2787C12.7764 13.2708 12.7618 13.2576 12.7473 13.2403C12.7184 13.2058 12.6895 13.1543 12.6673 13.0941C12.6452 13.034 12.6338 12.9761 12.6334 12.931C12.6333 12.9085 12.6358 12.8889 12.6414 12.8738Z" fill="black"/>
<path d="M12.9022 12.8703C12.9361 12.8554 12.9319 12.7711 12.8929 12.682C12.8538 12.593 12.7946 12.5329 12.7607 12.5477C12.7267 12.5626 12.7309 12.6469 12.77 12.736C12.809 12.825 12.8682 12.8851 12.9022 12.8703Z" fill="#006B3F"/>
<path fill-rule="evenodd" clip-rule="evenodd" d="M12.7454 12.6139C12.7471 12.6472 12.7577 12.6899 12.777 12.7341C12.7964 12.7782 12.8207 12.815 12.8441 12.8387C12.8558 12.8506 12.8671 12.8591 12.8773 12.8637C12.8875 12.8683 12.896 12.8688 12.9028 12.8658C12.9095 12.8629 12.9149 12.8562 12.9184 12.8456C12.9219 12.835 12.9234 12.821 12.9226 12.8043C12.9209 12.771 12.9103 12.7282 12.8909 12.6841C12.8716 12.64 12.8473 12.6032 12.8239 12.5795C12.8122 12.5675 12.8009 12.5591 12.7907 12.5545C12.7805 12.5499 12.772 12.5494 12.7652 12.5523C12.7584 12.5553 12.7531 12.5619 12.7495 12.5725C12.746 12.5832 12.7446 12.5972 12.7454 12.6139ZM12.7402 12.5695C12.7442 12.5573 12.7511 12.5478 12.7613 12.5433C12.7715 12.5389 12.7831 12.5403 12.7947 12.5455C12.8064 12.5508 12.8187 12.5602 12.8309 12.5726C12.8554 12.5974 12.8802 12.6352 12.8999 12.6802C12.9196 12.7251 12.9307 12.769 12.9324 12.8038C12.9332 12.8212 12.9318 12.8366 12.9278 12.8487C12.9237 12.8609 12.9169 12.8704 12.9067 12.8748C12.8965 12.8793 12.8849 12.8779 12.8732 12.8726C12.8616 12.8674 12.8493 12.858 12.8371 12.8456C12.8126 12.8208 12.7878 12.783 12.768 12.738C12.7483 12.6931 12.7373 12.6492 12.7356 12.6144C12.7347 12.597 12.7362 12.5816 12.7402 12.5695Z" fill="black"/>
<path d="M12.8103 12.9393C12.845 12.9262 12.8453 12.842 12.8109 12.7514C12.7766 12.6607 12.7206 12.5978 12.6859 12.611C12.6512 12.6241 12.6509 12.7083 12.6852 12.799C12.7196 12.8896 12.7756 12.9525 12.8103 12.9393Z" fill="#006B3F"/>
<path fill-rule="evenodd" clip-rule="evenodd" d="M12.6631 12.6753C12.663 12.7086 12.6713 12.7517 12.6884 12.7966C12.7054 12.8416 12.7277 12.8794 12.7498 12.9042C12.7609 12.9167 12.7718 12.9257 12.7817 12.9308C12.7916 12.9358 12.8001 12.9368 12.8071 12.9342C12.814 12.9316 12.8197 12.9252 12.8238 12.9148C12.8279 12.9044 12.83 12.8905 12.8301 12.8738C12.8302 12.8406 12.8219 12.7975 12.8048 12.7525C12.7878 12.7076 12.7655 12.6698 12.7434 12.6449C12.7323 12.6325 12.7214 12.6235 12.7115 12.6184C12.7016 12.6133 12.6931 12.6124 12.6861 12.615C12.6792 12.6176 12.6735 12.624 12.6694 12.6344C12.6653 12.6448 12.6632 12.6587 12.6631 12.6753ZM12.6603 12.6308C12.6649 12.6189 12.6722 12.6098 12.6827 12.6058C12.6931 12.6019 12.7046 12.6038 12.716 12.6097C12.7274 12.6155 12.7392 12.6254 12.7507 12.6384C12.7738 12.6643 12.7967 12.7033 12.814 12.749C12.8314 12.7948 12.84 12.8391 12.8399 12.8739C12.8399 12.8912 12.8376 12.9065 12.8329 12.9184C12.8283 12.9303 12.821 12.9394 12.8105 12.9434C12.8001 12.9473 12.7886 12.9453 12.7772 12.9395C12.7658 12.9337 12.754 12.9237 12.7425 12.9108C12.7194 12.8848 12.6965 12.8459 12.6792 12.8001C12.6618 12.7544 12.6532 12.7101 12.6533 12.6753C12.6533 12.6579 12.6556 12.6427 12.6603 12.6308Z" fill="black"/>
<path d="M12.6814 12.6724C12.7446 12.827 12.7703 12.966 12.7385 12.9827C12.7068 12.9994 12.6297 12.8875 12.5664 12.7329" fill="#006B3F"/>
<path fill-rule="evenodd" clip-rule="evenodd" d="M12.7377 12.88C12.7274 12.8242 12.7053 12.7511 12.6737 12.674L12.6826 12.6704C12.7143 12.7479 12.7367 12.8217 12.7471 12.8782C12.7523 12.9065 12.7546 12.9307 12.7535 12.9491C12.7529 12.9582 12.7515 12.9662 12.749 12.9725C12.7466 12.9789 12.7429 12.984 12.7375 12.9868C12.7321 12.9897 12.726 12.9896 12.7199 12.9875C12.7138 12.9855 12.7074 12.9815 12.7009 12.976C12.6877 12.965 12.6728 12.9474 12.6571 12.9246C12.6257 12.879 12.5905 12.8121 12.5588 12.7346L12.5677 12.7309C12.5992 12.808 12.6342 12.8743 12.6651 12.9192C12.6805 12.9416 12.6948 12.9585 12.707 12.9686C12.7131 12.9737 12.7184 12.9769 12.7229 12.9784C12.7273 12.9799 12.7306 12.9796 12.7331 12.9783C12.7357 12.977 12.7381 12.9741 12.7401 12.969C12.7421 12.964 12.7434 12.9571 12.7439 12.9485C12.7449 12.9312 12.7428 12.9079 12.7377 12.88Z" fill="black"/>
<path d="M12.7985 12.7577C12.8332 12.7446 12.8335 12.6604 12.7992 12.5697C12.7648 12.479 12.7089 12.4162 12.6742 12.4293C12.6395 12.4425 12.6392 12.5266 12.6735 12.6173C12.7079 12.708 12.7638 12.7708 12.7985 12.7577Z" fill="#006B3F"/>
<path fill-rule="evenodd" clip-rule="evenodd" d="M12.6572 12.4937C12.6571 12.527 12.6655 12.5701 12.6825 12.615C12.6995 12.6599 12.7218 12.6978 12.744 12.7226C12.755 12.735 12.7659 12.744 12.7758 12.7491C12.7858 12.7542 12.7943 12.7552 12.8012 12.7525C12.8081 12.7499 12.8139 12.7436 12.8179 12.7332C12.822 12.7228 12.8242 12.7089 12.8242 12.6922C12.8243 12.6589 12.816 12.6158 12.799 12.5709C12.782 12.526 12.7597 12.4881 12.7375 12.4633C12.7264 12.4508 12.7156 12.4419 12.7056 12.4368C12.6957 12.4317 12.6872 12.4307 12.6803 12.4334C12.6734 12.436 12.6676 12.4423 12.6636 12.4527C12.6595 12.4631 12.6573 12.477 12.6572 12.4937ZM12.6544 12.4491C12.6591 12.4372 12.6664 12.4281 12.6768 12.4242C12.6872 12.4202 12.6987 12.4222 12.7101 12.428C12.7215 12.4339 12.7333 12.4438 12.7449 12.4568C12.768 12.4827 12.7908 12.5217 12.8082 12.5674C12.8255 12.6132 12.8342 12.6575 12.8341 12.6922C12.834 12.7096 12.8317 12.7248 12.8271 12.7368C12.8224 12.7487 12.8151 12.7578 12.8047 12.7617C12.7942 12.7657 12.7827 12.7637 12.7713 12.7579C12.76 12.752 12.7482 12.7421 12.7366 12.7291C12.7135 12.7032 12.6906 12.6642 12.6733 12.6185C12.656 12.5727 12.6473 12.5284 12.6474 12.4937C12.6475 12.4763 12.6497 12.4611 12.6544 12.4491Z" fill="black"/>
<path d="M12.6911 12.8097C12.7261 12.7972 12.728 12.7131 12.6954 12.6219C12.6628 12.5307 12.608 12.4668 12.5731 12.4793C12.5381 12.4918 12.5362 12.5759 12.5688 12.6671C12.6014 12.7583 12.6561 12.8222 12.6911 12.8097Z" fill="#006B3F"/>
<path fill-rule="evenodd" clip-rule="evenodd" d="M12.549 12.5434C12.5482 12.5766 12.5557 12.6198 12.5719 12.665C12.588 12.7102 12.6096 12.7484 12.6313 12.7736C12.6421 12.7863 12.6528 12.7955 12.6626 12.8007C12.6724 12.806 12.6809 12.8071 12.6879 12.8046C12.6949 12.8021 12.7008 12.7959 12.705 12.7856C12.7093 12.7753 12.7117 12.7614 12.7121 12.7447C12.7129 12.7115 12.7054 12.6683 12.6892 12.6231C12.6731 12.5779 12.6515 12.5397 12.6298 12.5145C12.619 12.5018 12.6083 12.4927 12.5985 12.4874C12.5886 12.4821 12.5802 12.481 12.5732 12.4835C12.5662 12.486 12.5603 12.4923 12.5561 12.5026C12.5518 12.5129 12.5494 12.5267 12.549 12.5434ZM12.547 12.4988C12.5519 12.487 12.5594 12.478 12.5699 12.4743C12.5804 12.4705 12.5918 12.4727 12.6031 12.4787C12.6144 12.4848 12.626 12.4949 12.6373 12.5081C12.6599 12.5344 12.682 12.5738 12.6985 12.6198C12.7149 12.6658 12.7227 12.7102 12.722 12.745C12.7216 12.7623 12.719 12.7775 12.7141 12.7893C12.7092 12.8011 12.7017 12.8101 12.6912 12.8139C12.6807 12.8176 12.6693 12.8154 12.658 12.8094C12.6467 12.8033 12.6351 12.7932 12.6238 12.78C12.6012 12.7537 12.5791 12.7144 12.5626 12.6683C12.5462 12.6223 12.5384 12.5779 12.5391 12.5431C12.5395 12.5258 12.5421 12.5106 12.547 12.4988Z" fill="black"/>
<path d="M12.573 12.4639C12.6345 12.5683 12.6675 12.6659 12.6468 12.6817C12.6261 12.6974 12.5595 12.6254 12.498 12.5209" fill="#006B3F"/>
<path fill-rule="evenodd" clip-rule="evenodd" d="M12.6323 12.6085C12.619 12.5695 12.5956 12.5193 12.5649 12.4673L12.5732 12.4624C12.6041 12.5148 12.6279 12.5657 12.6414 12.6055C12.6481 12.6253 12.6523 12.6427 12.6535 12.6562C12.6541 12.663 12.654 12.669 12.6529 12.6741C12.6518 12.6791 12.6496 12.6835 12.6458 12.6865C12.6419 12.6894 12.6371 12.6901 12.6323 12.6893C12.6275 12.6885 12.6224 12.6862 12.6171 12.683C12.6064 12.6764 12.5939 12.6653 12.5803 12.6506C12.553 12.6212 12.5208 12.5768 12.49 12.5243L12.4983 12.5195C12.5289 12.5715 12.5607 12.6153 12.5873 12.6441C12.6007 12.6585 12.6125 12.6689 12.6221 12.6748C12.6269 12.6777 12.6308 12.6793 12.6339 12.6798C12.6369 12.6803 12.6387 12.6798 12.64 12.6788C12.6413 12.6778 12.6427 12.6758 12.6435 12.672C12.6443 12.6683 12.6445 12.6633 12.644 12.6571C12.6429 12.6446 12.6389 12.6281 12.6323 12.6085Z" fill="black"/>
<path d="M12.614 12.3955C12.6755 12.5 12.7085 12.5975 12.6878 12.6133C12.6672 12.6291 12.6005 12.557 12.5391 12.4526" fill="#006B3F"/>
<path fill-rule="evenodd" clip-rule="evenodd" d="M12.6774 12.5387C12.6642 12.4997 12.6407 12.4495 12.6101 12.3974L12.6184 12.3926C12.6492 12.445 12.673 12.4958 12.6865 12.5356C12.6933 12.5555 12.6975 12.5729 12.6987 12.5864C12.6993 12.5932 12.6992 12.5992 12.6981 12.6042C12.697 12.6093 12.6948 12.6137 12.691 12.6166C12.6871 12.6196 12.6823 12.6203 12.6775 12.6194C12.6727 12.6186 12.6676 12.6164 12.6622 12.6131C12.6516 12.6066 12.639 12.5955 12.6254 12.5808C12.5982 12.5514 12.566 12.5069 12.5352 12.4545L12.5434 12.4496C12.574 12.5017 12.6059 12.5455 12.6325 12.5743C12.6458 12.5887 12.6577 12.5991 12.6672 12.6049C12.672 12.6079 12.676 12.6095 12.6791 12.61C12.6821 12.6105 12.6839 12.6099 12.6852 12.609C12.6865 12.608 12.6879 12.6059 12.6887 12.6022C12.6895 12.5985 12.6897 12.5935 12.6891 12.5872C12.688 12.5748 12.684 12.5583 12.6774 12.5387Z" fill="black"/>
<path d="M12.8038 12.4097C12.8894 12.5524 12.9355 12.6857 12.9066 12.7072C12.8777 12.7287 12.7848 12.6304 12.6992 12.4877" fill="#006B3F"/>
<path fill-rule="evenodd" clip-rule="evenodd" d="M12.8938 12.6045C12.8753 12.551 12.8426 12.4823 12.7999 12.4112L12.8081 12.4062C12.851 12.4778 12.8841 12.5471 12.9029 12.6014C12.9122 12.6285 12.9181 12.652 12.9197 12.6703C12.9206 12.6795 12.9204 12.6875 12.9189 12.6942C12.9174 12.7008 12.9145 12.7065 12.9097 12.7101C12.9047 12.7138 12.8987 12.7147 12.8923 12.7136C12.886 12.7126 12.8791 12.7096 12.8718 12.7052C12.8571 12.6965 12.8398 12.6814 12.8209 12.6614C12.7831 12.6213 12.7382 12.5608 12.6953 12.4892L12.7035 12.4843C12.7462 12.5554 12.7907 12.6154 12.8279 12.6548C12.8465 12.6745 12.8632 12.6889 12.8767 12.697C12.8835 12.701 12.8893 12.7034 12.8939 12.7041C12.8985 12.7049 12.9016 12.7041 12.9039 12.7024C12.9063 12.7006 12.9083 12.6974 12.9095 12.6921C12.9107 12.6868 12.911 12.6798 12.9102 12.6712C12.9086 12.654 12.903 12.6313 12.8938 12.6045Z" fill="black"/>
<path d="M12.6842 12.3359C12.7459 12.4513 12.7792 12.5589 12.7585 12.5763C12.7379 12.5936 12.6711 12.514 12.6094 12.3986" fill="#006B3F"/>
<path fill-rule="evenodd" clip-rule="evenodd" d="M12.7441 12.4946C12.7307 12.4515 12.7071 12.396 12.6764 12.3385L12.6849 12.334C12.7158 12.3919 12.7397 12.4479 12.7533 12.4917C12.76 12.5136 12.7643 12.5327 12.7655 12.5475C12.7661 12.5549 12.766 12.5615 12.7649 12.5669C12.7639 12.5723 12.7618 12.5771 12.758 12.5802C12.7541 12.5836 12.7492 12.5843 12.7443 12.5834C12.7394 12.5824 12.7343 12.5799 12.7289 12.5763C12.7182 12.5691 12.7057 12.5568 12.6921 12.5406C12.6648 12.5081 12.6325 12.4591 12.6016 12.4012L12.61 12.3967C12.6408 12.4542 12.6727 12.5026 12.6994 12.5344C12.7128 12.5504 12.7247 12.5619 12.7343 12.5684C12.7391 12.5716 12.743 12.5733 12.746 12.5739C12.7489 12.5745 12.7507 12.5739 12.7519 12.5729C12.7533 12.5717 12.7547 12.5694 12.7555 12.5651C12.7563 12.5608 12.7565 12.5553 12.756 12.5483C12.7548 12.5345 12.7508 12.5162 12.7441 12.4946Z" fill="black"/>
<path d="M12.6716 12.1688C12.6304 12.2103 12.6707 12.2878 12.7084 12.3159C12.7507 12.3542 12.9881 12.6046 13.1556 12.3939C13.0214 12.3915 12.7709 12.0764 12.6716 12.1688Z" fill="#9461C9"/>
<path fill-rule="evenodd" clip-rule="evenodd" d="M13.0373 12.3411C13.0812 12.3696 13.121 12.3889 13.153 12.3895L13.163 12.3897L13.1568 12.3975C13.1142 12.4511 13.0668 12.4757 13.0189 12.4814C12.9712 12.4871 12.9235 12.474 12.8802 12.4533C12.8049 12.4171 12.7415 12.357 12.7127 12.3298C12.7086 12.3258 12.7052 12.3226 12.7026 12.3202C12.6829 12.3055 12.6629 12.2783 12.653 12.2495C12.6431 12.2206 12.6429 12.1885 12.6654 12.1659L12.6655 12.1657L12.6655 12.1657C12.6926 12.1406 12.7294 12.1439 12.7694 12.1607C12.8096 12.1775 12.8549 12.2086 12.9007 12.2424C12.913 12.2513 12.9252 12.2605 12.9375 12.2697C12.9714 12.295 13.0052 12.3203 13.0373 12.3411ZM12.6723 12.1729C12.6537 12.1917 12.653 12.2191 12.6624 12.2463C12.6717 12.2735 12.6907 12.2991 12.7086 12.3124L12.7088 12.3126L12.709 12.3127C12.7118 12.3153 12.7154 12.3186 12.7197 12.3227C12.7487 12.3502 12.8107 12.409 12.8845 12.4444C12.9268 12.4647 12.9725 12.477 13.0177 12.4716C13.0606 12.4665 13.1035 12.4454 13.143 12.3987C13.1101 12.3949 13.0718 12.3752 13.0319 12.3494C12.9995 12.3284 12.9653 12.3028 12.9313 12.2774C12.9191 12.2683 12.907 12.2592 12.8949 12.2503C12.849 12.2165 12.8046 12.1861 12.7656 12.1698C12.7266 12.1534 12.6949 12.1519 12.6723 12.1729Z" fill="black"/>
<path d="M12.6482 12.0468C12.607 12.0882 12.6473 12.1658 12.685 12.1938C12.7273 12.2321 12.9647 12.4826 13.1322 12.2718C12.998 12.2694 12.7475 11.9543 12.6482 12.0468Z" fill="#9461C9"/>
<path fill-rule="evenodd" clip-rule="evenodd" d="M13.0137 12.2181C13.0577 12.2465 13.0974 12.2659 13.1294 12.2665L13.1394 12.2666L13.1332 12.2745C13.0906 12.328 13.0432 12.3527 12.9953 12.3584C12.9476 12.3641 12.8999 12.351 12.8567 12.3302C12.7813 12.2941 12.718 12.234 12.6892 12.2067C12.6851 12.2028 12.6816 12.1996 12.679 12.1972C12.6594 12.1825 12.6394 12.1553 12.6295 12.1265C12.6196 12.0976 12.6193 12.0655 12.6418 12.0428L12.6419 12.0427L12.6419 12.0427C12.669 12.0175 12.7059 12.0208 12.7459 12.0376C12.786 12.0544 12.8313 12.0856 12.8772 12.1193C12.8894 12.1283 12.9017 12.1375 12.9139 12.1466C12.9478 12.172 12.9816 12.1972 13.0137 12.2181ZM12.6487 12.0499C12.6301 12.0687 12.6295 12.096 12.6388 12.1233C12.6482 12.1505 12.6671 12.176 12.6851 12.1894L12.6853 12.1895L12.6855 12.1897C12.6882 12.1922 12.6918 12.1956 12.6961 12.1997C12.7251 12.2271 12.7871 12.2859 12.8609 12.3213C12.9032 12.3416 12.949 12.354 12.9942 12.3486C13.037 12.3435 13.0799 12.3223 13.1195 12.2757C13.0865 12.2718 13.0483 12.2522 13.0084 12.2263C12.9759 12.2053 12.9418 12.1798 12.9078 12.1543C12.8956 12.1452 12.8834 12.1361 12.8713 12.1273C12.8254 12.0935 12.781 12.063 12.7421 12.0467C12.703 12.0303 12.6713 12.0289 12.6487 12.0499Z" fill="black"/>
<path d="M12.6111 11.9291C12.5699 11.9705 12.6102 12.0481 12.6479 12.0761C12.6902 12.1144 12.9276 12.3649 13.0951 12.1542C12.9609 12.1517 12.7104 11.8367 12.6111 11.9291Z" fill="#9461C9"/>
<path fill-rule="evenodd" clip-rule="evenodd" d="M12.9727 12.1004C13.0167 12.1288 13.0564 12.1482 13.0884 12.1488L13.0984 12.149L13.0922 12.1568C13.0496 12.2104 13.0022 12.235 12.9543 12.2407C12.9066 12.2464 12.8589 12.2333 12.8156 12.2125C12.7403 12.1764 12.6769 12.1163 12.6482 12.089C12.644 12.0851 12.6406 12.0819 12.638 12.0795C12.6183 12.0648 12.5984 12.0376 12.5885 12.0088C12.5785 11.9799 12.5783 11.9478 12.6008 11.9252L12.6009 11.925L12.6009 11.925C12.628 11.8998 12.6648 11.9032 12.7049 11.9199C12.745 11.9368 12.7903 11.9679 12.8362 12.0016C12.8484 12.0106 12.8607 12.0198 12.8729 12.029C12.9068 12.0543 12.9406 12.0796 12.9727 12.1004ZM12.6077 11.9322C12.5891 11.951 12.5884 11.9784 12.5978 12.0056C12.6071 12.0328 12.6261 12.0583 12.6441 12.0717L12.6443 12.0719L12.6444 12.072C12.6472 12.0745 12.6508 12.0779 12.6551 12.082C12.6841 12.1095 12.7461 12.1682 12.8199 12.2036C12.8622 12.2239 12.9079 12.2363 12.9531 12.2309C12.996 12.2258 13.0389 12.2046 13.0785 12.158C13.0455 12.1541 13.0073 12.1345 12.9674 12.1087C12.9349 12.0877 12.9008 12.0621 12.8667 12.0367C12.8546 12.0276 12.8424 12.0185 12.8303 12.0096C12.7844 11.9758 12.74 11.9454 12.7011 11.929C12.662 11.9127 12.6303 11.9112 12.6077 11.9322Z" fill="black"/>
<path d="M12.5232 11.7924C12.482 11.8338 12.5223 11.9114 12.56 11.9394C12.6023 11.9777 12.8397 12.2282 13.0072 12.0174C12.873 12.015 12.6225 11.7 12.5232 11.7924Z" fill="#9461C9"/>
<path fill-rule="evenodd" clip-rule="evenodd" d="M12.8927 11.9651C12.9366 11.9936 12.9763 12.013 13.0083 12.0135L13.0183 12.0137L13.0121 12.0215C12.9695 12.0751 12.9221 12.0997 12.8742 12.1055C12.8265 12.1112 12.7788 12.098 12.7356 12.0773C12.6602 12.0411 12.5969 11.9811 12.5681 11.9538C12.564 11.9499 12.5606 11.9466 12.5579 11.9442C12.5383 11.9295 12.5183 11.9024 12.5084 11.8735C12.4985 11.8447 12.4982 11.8126 12.5207 11.7899L12.5208 11.7898L12.5208 11.7898C12.5479 11.7646 12.5848 11.7679 12.6248 11.7847C12.665 11.8015 12.7102 11.8326 12.7561 11.8664C12.7683 11.8754 12.7806 11.8845 12.7928 11.8937C12.8268 11.9191 12.8605 11.9443 12.8927 11.9651ZM12.5276 11.7969C12.509 11.8157 12.5084 11.8431 12.5177 11.8703C12.5271 11.8976 12.546 11.9231 12.564 11.9365L12.5642 11.9366L12.5644 11.9368C12.5671 11.9393 12.5707 11.9427 12.575 11.9468C12.604 11.9742 12.666 12.033 12.7398 12.0684C12.7821 12.0887 12.8279 12.1011 12.8731 12.0957C12.9159 12.0905 12.9589 12.0694 12.9984 12.0227C12.9654 12.0189 12.9272 11.9992 12.8873 11.9734C12.8548 11.9524 12.8207 11.9269 12.7867 11.9014C12.7745 11.8923 12.7623 11.8832 12.7502 11.8743C12.7043 11.8405 12.6599 11.8101 12.621 11.7938C12.5819 11.7774 12.5502 11.776 12.5276 11.7969Z" fill="black"/>
<path d="M12.2311 11.6645C12.3156 11.6017 12.4707 11.5833 12.5916 11.6448C12.6923 11.6941 12.8601 11.8954 12.9862 11.943C12.8974 11.9589 12.8434 11.9455 12.7867 11.9182C12.6746 11.9993 12.6347 12.0115 12.5205 12.0275C12.3617 12.0504 12.2299 12.009 12.1836 11.9262C12.1363 11.8481 12.1567 11.7227 12.2311 11.6645Z" fill="#9461C9"/>
<path fill-rule="evenodd" clip-rule="evenodd" d="M12.2395 11.6685C12.2035 11.6966 12.1804 11.7412 12.1721 11.7886C12.1638 11.836 12.1704 11.8856 12.1932 11.9234L12.1933 11.9235L12.1933 11.9235C12.2156 11.9634 12.2588 11.9938 12.3166 12.0113C12.3743 12.0289 12.4462 12.0335 12.525 12.0221L12.525 12.0221C12.5821 12.0142 12.6201 12.0072 12.6577 11.9923C12.6953 11.9773 12.7329 11.9543 12.7888 11.9138L12.7914 11.912L12.7942 11.9134C12.8461 11.9383 12.8955 11.9514 12.9727 11.9406C12.9454 11.9279 12.9167 11.9092 12.8876 11.8873C12.8524 11.8608 12.8163 11.8295 12.7811 11.7983C12.7728 11.791 12.7646 11.7836 12.7564 11.7763C12.7299 11.7526 12.7042 11.7296 12.6799 11.7094C12.648 11.6829 12.6191 11.6614 12.5945 11.6493L12.5944 11.6493L12.5944 11.6493C12.535 11.619 12.467 11.6084 12.4033 11.6131C12.3396 11.6178 12.2808 11.6378 12.2395 11.6685ZM12.5991 11.64C12.5377 11.6087 12.4678 11.5978 12.4025 11.6027C12.3373 11.6075 12.2764 11.628 12.2332 11.6601L12.2332 11.6601L12.2331 11.6602C12.1947 11.6903 12.1705 11.7375 12.1618 11.7868C12.1531 11.8362 12.1599 11.8883 12.1843 11.9287C12.2083 11.9716 12.2542 12.0033 12.3136 12.0213C12.373 12.0394 12.4465 12.044 12.5265 12.0325C12.5836 12.0245 12.6227 12.0174 12.6615 12.002C12.6998 11.9868 12.7377 11.9636 12.7924 11.9241C12.8491 11.9509 12.9039 11.9638 12.9924 11.948L13.011 11.9447L12.9933 11.938C12.9624 11.9263 12.9288 11.9052 12.8939 11.879C12.859 11.8528 12.8232 11.8217 12.788 11.7905C12.7798 11.7832 12.7716 11.7759 12.7635 11.7686C12.7369 11.7449 12.711 11.7217 12.6866 11.7014C12.6547 11.6748 12.6249 11.6526 12.5991 11.64Z" fill="black"/>
<path d="M12.4143 11.8337C12.4551 11.8345 12.4886 11.8158 12.489 11.7921C12.4894 11.7684 12.4566 11.7486 12.4158 11.7479C12.3749 11.7472 12.3415 11.7658 12.341 11.7895C12.3406 11.8132 12.3734 11.833 12.4143 11.8337Z" fill="#D41C30"/>
<path fill-rule="evenodd" clip-rule="evenodd" d="M12.3632 11.7641C12.3504 11.7712 12.3438 11.7804 12.3437 11.7896C12.3435 11.7988 12.3498 11.8082 12.3622 11.8157C12.3746 11.8231 12.392 11.8281 12.4117 11.8284C12.4314 11.8288 12.449 11.8245 12.4616 11.8175C12.4743 11.8104 12.4809 11.8012 12.4811 11.792C12.4813 11.7828 12.475 11.7734 12.4625 11.7659C12.4502 11.7585 12.4327 11.7535 12.413 11.7532C12.3934 11.7528 12.3757 11.7571 12.3632 11.7641ZM12.358 11.7549C12.3725 11.7469 12.392 11.7422 12.4132 11.7426C12.4344 11.743 12.4538 11.7483 12.468 11.7569C12.482 11.7654 12.4919 11.7777 12.4916 11.7922C12.4914 11.8067 12.481 11.8187 12.4667 11.8267C12.4522 11.8347 12.4327 11.8394 12.4115 11.839C12.3903 11.8386 12.371 11.8333 12.3568 11.8247C12.3428 11.8162 12.3329 11.8039 12.3331 11.7894C12.3334 11.7749 12.3437 11.7629 12.358 11.7549Z" fill="black"/>
<path d="M12.2139 12.0196C12.2671 11.9998 12.3004 11.9576 12.2884 11.9252C12.2764 11.8929 12.2235 11.8826 12.1704 11.9023C12.1173 11.922 12.084 11.9642 12.096 11.9966C12.108 12.029 12.1608 12.0393 12.2139 12.0196Z" fill="#FCD116"/>
<path fill-rule="evenodd" clip-rule="evenodd" d="M12.1115 11.9475C12.0987 11.9637 12.0944 11.9803 12.0995 11.994C12.1046 12.0078 12.1187 12.0176 12.1389 12.0215C12.159 12.0254 12.1844 12.0233 12.21 12.0138C12.2356 12.0042 12.2562 11.9894 12.2689 11.9733C12.2817 11.9571 12.2859 11.9405 12.2808 11.9268C12.2757 11.913 12.2617 11.9032 12.2415 11.8993C12.2214 11.8954 12.196 11.8975 12.1704 11.9071C12.1448 11.9166 12.1241 11.9314 12.1115 11.9475ZM12.1033 11.9411C12.1174 11.9233 12.1397 11.9074 12.1668 11.8973C12.1939 11.8873 12.2212 11.8848 12.2434 11.8891C12.2656 11.8934 12.2837 11.9047 12.2906 11.9232C12.2974 11.9416 12.2911 11.962 12.2771 11.9797C12.263 11.9975 12.2407 12.0134 12.2136 12.0235C12.1865 12.0335 12.1592 12.0361 12.1369 12.0317C12.1148 12.0274 12.0966 12.0161 12.0898 11.9977C12.083 11.9792 12.0893 11.9588 12.1033 11.9411Z" fill="black"/>
<path d="M12.409 11.8113C12.4239 11.8116 12.4362 11.8014 12.4364 11.7885C12.4366 11.7756 12.4247 11.7649 12.4098 11.7646C12.3949 11.7644 12.3826 11.7746 12.3824 11.7875C12.3822 11.8004 12.3941 11.8111 12.409 11.8113Z" fill="black"/>
<path d="M12.2511 11.8461C12.2578 11.8786 12.2337 11.9226 12.1813 11.9382C12.1279 11.9603 12.0874 12.0104 12.0641 12.0923C11.9829 11.9055 12.0345 11.8265 12.1207 11.8072C12.1948 11.7836 12.2394 11.7866 12.2511 11.8461Z" fill="#FCD116"/>
<path fill-rule="evenodd" clip-rule="evenodd" d="M12.2101 11.8012C12.19 11.7964 12.1617 11.801 12.1247 11.8128L12.1245 11.8129L12.1242 11.813C12.0827 11.8222 12.0504 11.8455 12.0377 11.8884C12.0255 11.9295 12.0308 11.9895 12.0654 12.0742C12.0897 12.0006 12.1292 11.9538 12.1811 11.9323L12.1814 11.9322L12.1817 11.9321C12.2318 11.9172 12.2533 11.8758 12.2473 11.8471L12.2473 11.847L12.2473 11.847C12.2445 11.8328 12.2399 11.8226 12.2338 11.8153C12.2277 11.8081 12.2199 11.8035 12.2101 11.8012ZM12.2593 11.8446C12.2563 11.8291 12.2509 11.8167 12.2431 11.8074C12.2352 11.798 12.225 11.7922 12.2129 11.7893C12.1893 11.7837 12.1583 11.7893 12.1213 11.8011C12.0767 11.8111 12.0402 11.8369 12.026 11.885C12.0118 11.9325 12.0199 12.0006 12.0607 12.0945L12.0675 12.1102L12.0721 12.0938C12.0951 12.0131 12.1346 11.965 12.1855 11.9437C12.24 11.9274 12.2668 11.8809 12.2593 11.8446Z" fill="black"/>
<path d="M12.178 11.8798C12.1878 11.8793 12.1953 11.8709 12.1948 11.8611C12.1942 11.8512 12.1858 11.8437 12.176 11.8442C12.1662 11.8448 12.1586 11.8532 12.1592 11.863C12.1597 11.8728 12.1681 11.8804 12.178 11.8798Z" fill="black"/>
</g>
<defs>
<clipPath id="clip0_1692_54115">
<rect x="2.56055" y="6.28564" width="19.9495" height="13.2997" rx="1" fill="white"/>
</clipPath>
</defs>
</svg>
