<svg width="24" height="25" viewBox="0 0 24 25" fill="none" xmlns="http://www.w3.org/2000/svg">
<g clip-path="url(#clip0_1692_54091)">
<path d="M21.973 5.76855H2.02344V19.0682H21.973V5.76855Z" fill="#FF9933"/>
<path d="M21.973 10.2017H2.02344V14.6349H21.973V10.2017Z" fill="white"/>
<path d="M21.973 14.6343H2.02344V19.0675H21.973V14.6343Z" fill="#128807"/>
<path fill-rule="evenodd" clip-rule="evenodd" d="M13.7776 12.4191C13.7776 13.3986 12.9835 14.1926 12.004 14.1926C11.0245 14.1926 10.2305 13.3986 10.2305 12.4191C10.2305 11.4396 11.0245 10.6455 12.004 10.6455C12.9835 10.6455 13.7776 11.4396 13.7776 12.4191ZM13.5559 12.4191C13.5559 13.2761 12.8611 13.9709 12.004 13.9709C11.1469 13.9709 10.4522 13.2761 10.4522 12.4191C10.4522 11.562 11.1469 10.8672 12.004 10.8672C12.8611 10.8672 13.5559 11.562 13.5559 12.4191Z" fill="#000088"/>
<path d="M12.004 12.7294C12.1754 12.7294 12.3144 12.5905 12.3144 12.4191C12.3144 12.2476 12.1754 12.1087 12.004 12.1087C11.8326 12.1087 11.6936 12.2476 11.6936 12.4191C11.6936 12.5905 11.8326 12.7294 12.004 12.7294Z" fill="#000088"/>
<path d="M13.5324 12.6985C13.5749 12.7041 13.6139 12.6742 13.6195 12.6317C13.6251 12.5892 13.5952 12.5503 13.5527 12.5447C13.5102 12.5391 13.4712 12.569 13.4656 12.6115C13.46 12.654 13.49 12.6929 13.5324 12.6985Z" fill="#000088"/>
<path d="M12.004 13.9709L12.0572 13.0398L12.004 12.5964L11.9508 13.0398L12.004 13.9709Z" fill="#000088"/>
<path d="M13.408 13.0846C13.4476 13.101 13.493 13.0822 13.5094 13.0426C13.5258 13.003 13.507 12.9576 13.4674 12.9412C13.4278 12.9248 13.3824 12.9436 13.366 12.9832C13.3496 13.0228 13.3684 13.0682 13.408 13.0846Z" fill="#000088"/>
<path d="M11.6023 13.918L11.8947 13.0324L11.9581 12.5904L11.7919 13.0049L11.6023 13.918Z" fill="#000088"/>
<path d="M13.1879 13.4253C13.2219 13.4514 13.2706 13.445 13.2967 13.411C13.3228 13.377 13.3164 13.3283 13.2824 13.3022C13.2484 13.2761 13.1997 13.2825 13.1736 13.3165C13.1475 13.3505 13.1539 13.3992 13.1879 13.4253Z" fill="#000088"/>
<path d="M11.2281 13.763L11.7397 12.9832L11.9153 12.5726L11.6475 12.93L11.2281 13.763Z" fill="#000088"/>
<path d="M12.8871 13.6975C12.9132 13.7315 12.9619 13.7379 12.9959 13.7118C13.0299 13.6857 13.0363 13.637 13.0103 13.603C12.9842 13.569 12.9355 13.5626 12.9015 13.5887C12.8675 13.6147 12.8611 13.6635 12.8871 13.6975Z" fill="#000088"/>
<path d="M10.9067 13.5164L11.6027 12.8956L11.8786 12.5445L11.5274 12.8204L10.9067 13.5164Z" fill="#000088"/>
<path d="M12.5262 13.8825C12.5426 13.9221 12.588 13.9409 12.6276 13.9245C12.6671 13.9081 12.6859 13.8627 12.6695 13.8231C12.6531 13.7835 12.6078 13.7647 12.5682 13.7811C12.5286 13.7975 12.5098 13.8429 12.5262 13.8825Z" fill="#000088"/>
<path d="M10.6601 13.195L11.493 12.7755L11.8504 12.5078L11.4398 12.6834L10.6601 13.195Z" fill="#000088"/>
<path d="M12.1296 13.9678C12.1352 14.0103 12.1742 14.0402 12.2167 14.0346C12.2592 14.029 12.2891 13.99 12.2835 13.9475C12.2779 13.905 12.2389 13.8751 12.1964 13.8807C12.1539 13.8863 12.124 13.9253 12.1296 13.9678Z" fill="#000088"/>
<path d="M10.505 12.8207L11.4182 12.6311L11.8327 12.465L11.3906 12.5283L10.505 12.8207Z" fill="#000088"/>
<path d="M11.7245 13.9475C11.7189 13.99 11.7488 14.029 11.7913 14.0346C11.8338 14.0402 11.8728 14.0103 11.8784 13.9678C11.884 13.9253 11.854 13.8863 11.8116 13.8807C11.7691 13.8751 11.7301 13.905 11.7245 13.9475Z" fill="#000088"/>
<path d="M10.4521 12.4191L11.3832 12.4723L11.8266 12.4191L11.3832 12.3659L10.4521 12.4191Z" fill="#000088"/>
<path d="M11.3384 13.8231C11.322 13.8627 11.3408 13.9081 11.3804 13.9245C11.42 13.9409 11.4654 13.9221 11.4818 13.8825C11.4982 13.8429 11.4794 13.7975 11.4398 13.7811C11.4002 13.7647 11.3548 13.7835 11.3384 13.8231Z" fill="#000088"/>
<path d="M10.505 12.0174L11.3906 12.3098L11.8327 12.3732L11.4181 12.207L10.505 12.0174Z" fill="#000088"/>
<path d="M10.9977 13.603C10.9717 13.637 10.9781 13.6857 11.0121 13.7118C11.0461 13.7379 11.0948 13.7315 11.1209 13.6975C11.1469 13.6635 11.1405 13.6147 11.1065 13.5887C11.0725 13.5626 11.0238 13.569 10.9977 13.603Z" fill="#000088"/>
<path d="M10.6601 11.6431L11.4398 12.1548L11.8504 12.3304L11.493 12.0626L10.6601 11.6431Z" fill="#000088"/>
<path d="M10.7256 13.3022C10.6916 13.3283 10.6852 13.377 10.7113 13.411C10.7374 13.445 10.7861 13.4514 10.8201 13.4253C10.8541 13.3992 10.8605 13.3505 10.8344 13.3165C10.8083 13.2825 10.7596 13.2761 10.7256 13.3022Z" fill="#000088"/>
<path d="M10.9067 11.3217L11.5275 12.0177L11.8786 12.2936L11.6027 11.9425L10.9067 11.3217Z" fill="#000088"/>
<path d="M10.5406 12.9412C10.501 12.9576 10.4822 13.003 10.4986 13.0426C10.515 13.0822 10.5604 13.101 10.6 13.0846C10.6396 13.0682 10.6584 13.0228 10.642 12.9832C10.6256 12.9436 10.5802 12.9248 10.5406 12.9412Z" fill="#000088"/>
<path d="M11.2281 11.0751L11.6476 11.9081L11.9153 12.2655L11.7397 11.8549L11.2281 11.0751Z" fill="#000088"/>
<path d="M10.4553 12.5447C10.4128 12.5503 10.3829 12.5893 10.3885 12.6317C10.3941 12.6742 10.4331 12.7041 10.4756 12.6985C10.518 12.6929 10.548 12.654 10.5424 12.6115C10.5368 12.569 10.4978 12.5391 10.4553 12.5447Z" fill="#000088"/>
<path d="M11.6024 10.9201L11.792 11.8332L11.9581 12.2477L11.8947 11.8057L11.6024 10.9201Z" fill="#000088"/>
<path d="M10.4756 12.1396C10.4331 12.134 10.3941 12.1639 10.3885 12.2064C10.3829 12.2489 10.4128 12.2878 10.4553 12.2934C10.4978 12.299 10.5368 12.2691 10.5424 12.2266C10.548 12.1841 10.518 12.1452 10.4756 12.1396Z" fill="#000088"/>
<path d="M12.004 10.8672L11.9508 11.7983L12.004 12.2417L12.0572 11.7983L12.004 10.8672Z" fill="#000088"/>
<path d="M10.6 11.7535C10.5604 11.7371 10.515 11.7559 10.4986 11.7955C10.4822 11.8351 10.501 11.8805 10.5406 11.8969C10.5802 11.9133 10.6256 11.8945 10.642 11.8549C10.6584 11.8153 10.6396 11.7699 10.6 11.7535Z" fill="#000088"/>
<path d="M12.4057 10.9201L12.1133 11.8057L12.0499 12.2477L12.2161 11.8332L12.4057 10.9201Z" fill="#000088"/>
<path d="M10.8201 11.4128C10.7861 11.3867 10.7374 11.3931 10.7113 11.4271C10.6852 11.4611 10.6916 11.5098 10.7256 11.5359C10.7596 11.562 10.8083 11.5556 10.8344 11.5216C10.8605 11.4876 10.8541 11.4389 10.8201 11.4128Z" fill="#000088"/>
<path d="M12.7799 11.0751L12.2683 11.8549L12.0927 12.2655L12.3605 11.9081L12.7799 11.0751Z" fill="#000088"/>
<path d="M11.1209 11.1407C11.0948 11.1067 11.0461 11.1002 11.0121 11.1263C10.9781 11.1524 10.9717 11.2011 10.9977 11.2351C11.0238 11.2691 11.0725 11.2755 11.1065 11.2494C11.1405 11.2234 11.1469 11.1747 11.1209 11.1407Z" fill="#000088"/>
<path d="M13.1013 11.3217L12.4053 11.9425L12.1294 12.2936L12.4806 12.0177L13.1013 11.3217Z" fill="#000088"/>
<path d="M11.4818 10.9556C11.4654 10.916 11.42 10.8972 11.3805 10.9136C11.3409 10.93 11.3221 10.9754 11.3385 11.015C11.3549 11.0546 11.4003 11.0734 11.4398 11.057C11.4794 11.0406 11.4982 10.9952 11.4818 10.9556Z" fill="#000088"/>
<path d="M13.348 11.6431L12.515 12.0626L12.1576 12.3304L12.5682 12.1548L13.348 11.6431Z" fill="#000088"/>
<path d="M11.8784 10.8703C11.8728 10.8279 11.8338 10.798 11.7913 10.8035C11.7488 10.8091 11.7189 10.8481 11.7245 10.8906C11.7301 10.9331 11.7691 10.963 11.8116 10.9574C11.8541 10.9518 11.884 10.9128 11.8784 10.8703Z" fill="#000088"/>
<path d="M13.503 12.0174L12.5898 12.207L12.1753 12.3731L12.6174 12.3098L13.503 12.0174Z" fill="#000088"/>
<path d="M12.2835 10.8906C12.2891 10.8481 12.2592 10.8091 12.2167 10.8035C12.1742 10.798 12.1352 10.8279 12.1296 10.8703C12.1241 10.9128 12.154 10.9518 12.1964 10.9574C12.2389 10.963 12.2779 10.9331 12.2835 10.8906Z" fill="#000088"/>
<path d="M13.5559 12.4191L12.6248 12.3658L12.1814 12.4191L12.6248 12.4723L13.5559 12.4191Z" fill="#000088"/>
<path d="M12.6696 11.015C12.686 10.9754 12.6672 10.93 12.6276 10.9136C12.588 10.8972 12.5426 10.916 12.5262 10.9556C12.5098 10.9952 12.5286 11.0406 12.5682 11.057C12.6078 11.0734 12.6532 11.0546 12.6696 11.015Z" fill="#000088"/>
<path d="M13.503 12.8207L12.6174 12.5283L12.1753 12.465L12.5898 12.6311L13.503 12.8207Z" fill="#000088"/>
<path d="M13.0103 11.2351C13.0364 11.2011 13.03 11.1524 12.996 11.1263C12.962 11.1002 12.9133 11.1067 12.8872 11.1406C12.8611 11.1746 12.8675 11.2234 12.9015 11.2494C12.9355 11.2755 12.9842 11.2691 13.0103 11.2351Z" fill="#000088"/>
<path d="M13.348 13.195L12.5682 12.6833L12.1576 12.5077L12.515 12.7755L13.348 13.195Z" fill="#000088"/>
<path d="M13.2824 11.5359C13.3164 11.5098 13.3228 11.4611 13.2967 11.4271C13.2707 11.3931 13.2219 11.3867 13.1879 11.4128C13.1539 11.4389 13.1475 11.4876 13.1736 11.5216C13.1997 11.5556 13.2484 11.562 13.2824 11.5359Z" fill="#000088"/>
<path d="M13.1013 13.5164L12.4806 12.8204L12.1294 12.5445L12.4053 12.8956L13.1013 13.5164Z" fill="#000088"/>
<path d="M13.4674 11.8969C13.507 11.8805 13.5258 11.8351 13.5094 11.7955C13.493 11.7559 13.4476 11.7371 13.408 11.7535C13.3685 11.7699 13.3497 11.8153 13.3661 11.8549C13.3825 11.8945 13.4278 11.9133 13.4674 11.8969Z" fill="#000088"/>
<path d="M12.7799 13.763L12.3605 12.93L12.0927 12.5726L12.2683 12.9832L12.7799 13.763Z" fill="#000088"/>
<path d="M13.5527 12.2934C13.5952 12.2878 13.6251 12.2489 13.6195 12.2064C13.6139 12.1639 13.575 12.134 13.5325 12.1396C13.49 12.1452 13.4601 12.1841 13.4657 12.2266C13.4713 12.2691 13.5102 12.299 13.5527 12.2934Z" fill="#000088"/>
<path d="M12.4057 13.918L12.2161 13.0049L12.0499 12.5904L12.1133 13.0324L12.4057 13.918Z" fill="#000088"/>
</g>
<defs>
<clipPath id="clip0_1692_54091">
<rect x="2.02344" y="5.76855" width="19.9495" height="13.2997" rx="1" fill="white"/>
</clipPath>
</defs>
</svg>
