<svg width="24" height="25" viewBox="0 0 24 25" fill="none" xmlns="http://www.w3.org/2000/svg">
<g clip-path="url(#clip0_1692_54080)">
<path d="M2.02539 5.76855H21.9749V19.0682H2.02539V5.76855Z" fill="#CE1126"/>
<path d="M2.02539 10.2017H21.9749V19.0681H2.02539V10.2017Z" fill="white"/>
<path d="M2.02539 14.6343H21.9749V19.0675H2.02539V14.6343Z" fill="black"/>
<path d="M13.9417 11.5892C13.9147 11.5749 13.8842 11.5519 13.874 11.538C13.8588 11.5168 13.8676 11.5159 13.9305 11.533C14.043 11.5635 14.1156 11.5516 14.1876 11.4906L14.2511 11.4371L14.3259 11.4751C14.367 11.4959 14.4107 11.5103 14.4234 11.507C14.4557 11.4984 14.5229 11.4123 14.5207 11.3825C14.5181 11.3457 14.5492 11.3549 14.5642 11.3953C14.594 11.4745 14.5505 11.5653 14.4736 11.5855C14.4361 11.5952 14.4014 11.5917 14.3446 11.5719C14.2748 11.5475 14.2628 11.5479 14.2278 11.5747C14.1493 11.6348 14.04 11.6404 13.9417 11.5892Z" fill="#007A3D"/>
<path d="M14.2201 11.3347C14.1927 11.2999 14.1599 11.1685 14.1705 11.1363C14.1798 11.1084 14.1895 11.1028 14.2149 11.1107C14.2594 11.1247 14.2697 11.1554 14.2631 11.2595C14.2579 11.3443 14.2453 11.3665 14.2201 11.3347Z" fill="#007A3D"/>
<path d="M10.9429 11.2403C10.9339 11.3039 11.0558 11.462 11.1108 11.4906C11.0734 11.5074 11.0269 11.4998 10.9926 11.5186C10.801 11.7102 10.1011 12.3926 9.9733 12.5557C10.3519 12.5632 10.7717 12.5505 11.1266 12.5343C11.1263 12.2771 11.3702 12.2639 11.5334 12.1702C11.6174 12.3025 11.8283 12.2923 11.8547 12.4914C11.8547 12.7297 11.8551 13.0887 11.8551 13.3479C10.7844 13.3479 9.69197 13.3479 8.6212 13.3479C8.56431 13.5991 8.33753 13.7908 8.02155 13.7119C8.1193 13.6098 8.2839 13.5747 8.34283 13.4336C8.39253 13.1247 8.24351 12.9339 8.14716 12.7586C8.30657 12.7006 8.33074 12.6861 8.49281 12.5772C8.37903 12.9228 8.78846 12.8849 9.09241 12.877C9.10265 12.7597 9.09673 12.6211 9.00669 12.604C9.12299 12.5618 9.14231 12.5473 9.32797 12.3898V12.8555C10.0505 12.8555 10.8299 12.8501 11.5675 12.8501C11.5675 12.7044 11.6061 12.4703 11.4908 12.4703C11.3806 12.4703 11.4856 12.7699 11.4 12.7699C11.3144 12.7699 10.2487 12.7699 9.67056 12.7699C9.67056 12.7055 9.66891 12.5707 9.66891 12.4737C9.7422 12.4004 9.73352 12.4067 10.2343 11.9059C10.2842 11.8559 10.6355 11.5386 10.9429 11.2403Z" fill="#007A3D"/>
<path d="M15.2658 11.228C15.3865 11.2929 15.4821 11.3828 15.6299 11.4208C15.6127 11.482 15.5583 11.5061 15.544 11.5706V12.8768C15.7091 12.9132 15.7439 12.8196 15.8225 12.7697C15.8439 12.9788 15.9771 13.1837 15.9724 13.3478C15.7369 13.3478 15.5013 13.3478 15.2657 13.3478C15.2658 12.6414 15.2658 11.9347 15.2658 11.228Z" fill="#007A3D"/>
<path d="M14.3236 11.9275C14.3236 11.9275 14.5806 11.7105 14.5806 11.7021V12.842L14.7657 12.8417C14.7657 12.4075 14.76 11.967 14.76 11.5633C14.8352 11.4881 14.9823 11.3793 15.0191 11.3032V13.3448C14.4975 13.3448 13.5245 13.3454 13.3958 13.3454C13.3719 12.9217 13.3678 12.4828 13.8618 12.5772C13.8618 12.505 13.8618 12.4622 13.8618 12.4042C13.8467 12.3747 13.8197 12.4114 13.8134 12.3729C13.8918 12.2945 13.9184 12.2745 14.1307 12.0889C14.1307 12.3128 14.1346 12.8412 14.1346 12.8412C14.1865 12.8412 14.2876 12.8414 14.3218 12.8414C14.3219 12.8415 14.3236 11.9567 14.3236 11.9275ZM13.7142 12.8305C13.749 12.8826 13.8673 12.8817 13.8618 12.7938C13.8419 12.7214 13.6863 12.749 13.7142 12.8305Z" fill="#007A3D"/>
<path d="M9.01509 13.6877C9.06983 13.6877 9.11421 13.6433 9.11421 13.5886C9.11421 13.5338 9.06983 13.4894 9.01509 13.4894C8.96035 13.4894 8.91597 13.5338 8.91597 13.5886C8.91597 13.6433 8.96035 13.6877 9.01509 13.6877Z" fill="#007A3D"/>
<path d="M12.0741 11.23C12.1949 11.295 12.2905 11.3849 12.4383 11.4228C12.4211 11.484 12.3666 11.5082 12.3524 11.5726V12.8789C12.5175 12.9152 12.5523 12.8216 12.6309 12.7718C12.6523 12.9809 12.7855 13.1857 12.7807 13.3499C12.5452 13.3499 12.3096 13.3499 12.074 13.3499C12.0741 12.6434 12.0741 11.9367 12.0741 11.23Z" fill="#007A3D"/>
</g>
<defs>
<clipPath id="clip0_1692_54080">
<rect x="2.02344" y="5.76855" width="19.9551" height="13.2998" rx="1" fill="white"/>
</clipPath>
</defs>
</svg>
