<svg width="24" height="25" viewBox="0 0 24 25" fill="none" xmlns="http://www.w3.org/2000/svg">
<g clip-path="url(#clip0_1692_54025)">
<path d="M21.9749 5.93896H2.02539V19.2386H21.9749V5.93896Z" fill="#DA000C"/>
<path d="M21.9749 5.93896H2.02539V14.8487H21.9749V5.93896Z" fill="white"/>
<path d="M12.2107 12.3472H9.30103V14.3473H12.2107V12.3472Z" fill="black"/>
<path d="M10.8108 14.0552H9.0346L8.64087 14.3143V14.5889H10.8108" fill="#DA000C"/>
<path fill-rule="evenodd" clip-rule="evenodd" d="M9.02702 14.0327H10.8328V14.0782H9.04064L8.66283 14.3268V14.5664H10.8328V14.6119H8.61737V14.3023L9.02702 14.0327Z" fill="black"/>
<path d="M10.0666 12.9063C10.3223 12.9063 10.5311 13.1195 10.5311 13.3823V14.0543H10.865V11.5083H9.03366V14.0543H9.60197V13.3823C9.60197 13.1298 9.80723 12.9063 10.0666 12.9063Z" fill="#DA000C"/>
<path fill-rule="evenodd" clip-rule="evenodd" d="M9.01001 11.4858H10.8868V14.0773H10.5075V13.3826C10.5075 13.1319 10.3083 12.9293 10.0656 12.9293C9.81978 12.9293 9.62378 13.1417 9.62378 13.3826V14.0773H9.01001V11.4858ZM9.05547 11.5313V14.0318H9.57831V13.3826C9.57831 13.1184 9.79284 12.8839 10.0656 12.8839C10.3344 12.8839 10.553 13.1077 10.553 13.3826V14.0318H10.8414V11.5313H9.05547Z" fill="black"/>
<path d="M10.5065 9.78662H9.66431V11.3306H10.5065V9.78662Z" fill="black"/>
<path d="M10.4996 11.0905H9.76265V10.8291H9.22232V11.0905H8.85576V10.8291H8.63696V11.3036H10.4996V11.0905ZM8.85576 11.3019H10.4457V11.5082H8.85576V11.3019Z" fill="#DA000C"/>
<path fill-rule="evenodd" clip-rule="evenodd" d="M8.61356 10.8071H8.87782V11.0685H9.19891V10.8071H9.78471V11.0685H10.5216V11.3271H10.4677V11.5317H8.83235V11.3271H8.61356V10.8071ZM10.4677 11.2817V11.2799H8.83235V11.2817H8.65902V10.8526H8.83235V11.114H9.24437V10.8526H9.73925V11.114H10.4762V11.2817H10.4677ZM8.87782 11.3271V11.4863H10.4223V11.3271H8.87782Z" fill="black"/>
<path d="M9.48462 9.22559V10.8296H9.76069V10.3892C9.76069 10.2242 9.87718 10.0892 10.0401 10.0809C10.0454 10.0806 10.0504 10.0809 10.0558 10.0809C10.2261 10.0809 10.3641 10.2189 10.3641 10.3892V10.8296H10.6269V9.22559H9.48462Z" fill="#DA000C"/>
<path fill-rule="evenodd" clip-rule="evenodd" d="M9.46906 9.20264H10.6568V10.8521H10.3485V10.389C10.3485 10.2312 10.2207 10.1034 10.0629 10.1034C10.0602 10.1034 10.0581 10.1034 10.0563 10.1033C10.0534 10.1033 10.0512 10.1032 10.0485 10.1034C9.89886 10.111 9.79059 10.2348 9.79059 10.389V10.8521H9.46906V9.20264ZM9.51452 9.2481V10.8067H9.74513V10.389C9.74513 10.2132 9.86982 10.0669 10.0462 10.058C10.0504 10.0577 10.0553 10.0578 10.0591 10.0579C10.0606 10.0579 10.0619 10.0579 10.0629 10.0579C10.2458 10.0579 10.394 10.2061 10.394 10.389V10.8067H10.6113V9.2481H9.51452Z" fill="black"/>
<path d="M9.38885 9.00879V9.22617H10.7187V9.00879H9.38885Z" fill="#DA000C"/>
<path fill-rule="evenodd" clip-rule="evenodd" d="M9.36548 8.98535H10.7408V9.24819H9.36548V8.98535ZM9.41094 9.03082V9.20273H10.6953V9.03082H9.41094Z" fill="black"/>
<path d="M9.21698 8.59229V9.00857H10.8125V8.59229H10.5667V8.80398H10.2698V8.59229H9.81654V8.80398H9.5196V8.59229H9.21698Z" fill="#DA000C"/>
<path fill-rule="evenodd" clip-rule="evenodd" d="M9.19751 8.56934H9.5456V8.78103H9.79707V8.56934H10.2958V8.78103H10.5472V8.56934H10.8385V9.03108H9.19751V8.56934ZM9.24297 8.6148V8.98562H10.793V8.6148H10.5927V8.82649H10.2503V8.6148H9.84254V8.82649H9.50013V8.6148H9.24297Z" fill="black"/>
<path fill-rule="evenodd" clip-rule="evenodd" d="M8.61737 14.2915H10.841V14.337H8.61737V14.2915Z" fill="black"/>
<path d="M11.7955 12.3472H14.7052V14.3473H11.7955V12.3472Z" fill="black"/>
<path d="M13.1955 14.0552H14.9718L15.3655 14.3143V14.5889H13.1955" fill="#DA000C"/>
<path fill-rule="evenodd" clip-rule="evenodd" d="M14.9791 14.0327H13.1734V14.0782H14.9655L15.3433 14.3268V14.5664H13.1734V14.6119H15.3888V14.3023L14.9791 14.0327Z" fill="black"/>
<path d="M13.94 12.9063C13.6843 12.9063 13.4754 13.1195 13.4754 13.3823V14.0543H13.1415V11.5083H14.9729V14.0543H14.4046V13.3823C14.4046 13.1298 14.1993 12.9063 13.94 12.9063Z" fill="#DA000C"/>
<path fill-rule="evenodd" clip-rule="evenodd" d="M14.9963 11.4858H13.1195V14.0773H13.4989V13.3826C13.4989 13.1319 13.698 12.9293 13.9407 12.9293C14.1866 12.9293 14.3826 13.1417 14.3826 13.3826V14.0773H14.9963V11.4858ZM14.9509 11.5313V14.0318H14.428V13.3826C14.428 13.1184 14.2135 12.8839 13.9407 12.8839C13.6719 12.8839 13.4534 13.1077 13.4534 13.3826V14.0318H13.165V11.5313H14.9509Z" fill="black"/>
<path d="M13.5078 9.78662H14.35V11.3306H13.5078V9.78662Z" fill="black"/>
<path d="M13.5029 11.0905H14.2398V10.8291H14.7801V11.0905H15.1467V10.8291H15.3655V11.3036H13.5029V11.0905ZM15.1467 11.3019H13.5568V11.5082H15.1467V11.3019Z" fill="#DA000C"/>
<path fill-rule="evenodd" clip-rule="evenodd" d="M15.3888 10.8071H15.1245V11.0685H14.8034V10.8071H14.2176V11.0685H13.4807V11.3271H13.5346V11.5317H15.17V11.3271H15.3888V10.8071ZM13.5346 11.2817V11.2799H15.17V11.2817H15.3433V10.8526H15.17V11.114H14.758V10.8526H14.2631V11.114H13.5262V11.2817H13.5346ZM15.1245 11.3271V11.4863H13.5801V11.3271H15.1245Z" fill="black"/>
<path d="M14.5219 9.22559V10.8296H14.2458V10.3892C14.2458 10.2242 14.1293 10.0892 13.9663 10.0809C13.9611 10.0806 13.956 10.0809 13.9507 10.0809C13.7804 10.0809 13.6424 10.2189 13.6424 10.3892V10.8296H13.3796V9.22559H14.5219Z" fill="#DA000C"/>
<path fill-rule="evenodd" clip-rule="evenodd" d="M14.5452 9.20264H13.3574V10.8521H13.6657V10.389C13.6657 10.2312 13.7935 10.1034 13.9513 10.1034C13.954 10.1034 13.9561 10.1034 13.958 10.1033C13.9608 10.1033 13.963 10.1032 13.9658 10.1034C14.1154 10.111 14.2236 10.2348 14.2236 10.389V10.8521H14.5452V9.20264ZM14.4997 9.2481V10.8067H14.2691V10.389C14.2691 10.2132 14.1444 10.0669 13.9681 10.058C13.9638 10.0577 13.9589 10.0578 13.9551 10.0579C13.9536 10.0579 13.9523 10.0579 13.9513 10.0579C13.7684 10.0579 13.6203 10.2061 13.6203 10.389V10.8067H13.4029V9.2481H14.4997Z" fill="black"/>
<path d="M14.6135 9.00879V9.22617H13.2837V9.00879H14.6135Z" fill="#DA000C"/>
<path fill-rule="evenodd" clip-rule="evenodd" d="M14.637 8.98535H13.2617V9.24819H14.637V8.98535ZM14.5915 9.03082V9.20273H13.3071V9.03082H14.5915Z" fill="black"/>
<path d="M14.7854 8.59229V9.00857H13.1899V8.59229H13.4356V8.80398H13.7326V8.59229H14.1858V8.80398H14.4827V8.59229H14.7854Z" fill="#DA000C"/>
<path fill-rule="evenodd" clip-rule="evenodd" d="M14.8049 8.56934H14.4568V8.78103H14.2054V8.56934H13.7067V8.78103H13.4552V8.56934H13.164V9.03108H14.8049V8.56934ZM14.7595 8.6148V8.98562H13.2094V8.6148H13.4097V8.82649H13.7521V8.6148H14.1599V8.82649H14.5023V8.6148H14.7595Z" fill="black"/>
<path fill-rule="evenodd" clip-rule="evenodd" d="M15.3888 14.2915H13.1651V14.337H15.3888V14.2915Z" fill="black"/>
<path d="M12.2244 14.1885H10.7496L10.3049 14.403V14.7227H12.2244" fill="#DA000C"/>
<path d="M11.7761 14.1885H13.2508L13.6955 14.403V14.7227H11.7761" fill="#DA000C"/>
<path fill-rule="evenodd" clip-rule="evenodd" d="M10.7457 14.166H12.2484V14.2115H10.7561L10.3289 14.4176V14.7002H12.2484V14.7457H10.2834V14.389L10.7457 14.166Z" fill="black"/>
<path fill-rule="evenodd" clip-rule="evenodd" d="M13.2573 14.166H11.7546V14.2115H13.2469L13.674 14.4176V14.7002H11.7546V14.7457H13.7195V14.389L13.2573 14.166Z" fill="black"/>
<path fill-rule="evenodd" clip-rule="evenodd" d="M12.2664 14.4263H10.301V14.3809H12.2664V14.4263Z" fill="black"/>
<path fill-rule="evenodd" clip-rule="evenodd" d="M11.7272 14.4263H13.6925V14.3809H11.7272V14.4263Z" fill="black"/>
<path d="M12.7885 13.8809C12.6679 13.921 12.5588 13.9886 12.449 14.0515C12.308 14.1348 12.1713 14.2255 12.0441 14.3288C11.9994 14.3583 11.9564 14.3906 11.9219 14.4321C11.8752 14.472 11.828 14.5255 11.8369 14.5918C11.8393 14.6211 11.8766 14.5575 11.9012 14.5544C11.944 14.5298 11.9959 14.5219 12.0441 14.533C12.1018 14.4721 12.1764 14.4313 12.2407 14.3781C12.3773 14.2762 12.5242 14.1886 12.6737 14.1071C12.7259 14.0804 12.7783 14.0532 12.834 14.0343C12.8188 13.9832 12.8037 13.932 12.7885 13.8809Z" fill="#F8D80E"/>
<path fill-rule="evenodd" clip-rule="evenodd" d="M12.4807 14.0118C12.5762 13.9565 12.6742 13.8998 12.7811 13.8643L12.7866 13.8808L12.8033 13.8759L12.8536 14.0454L12.8377 14.0508C12.7849 14.0687 12.7349 14.0944 12.6838 14.1205C12.6825 14.1212 12.6812 14.1219 12.6799 14.1225C12.531 14.2038 12.385 14.2907 12.2495 14.3918C12.2246 14.4124 12.198 14.4313 12.172 14.4498C12.164 14.4555 12.156 14.4612 12.1482 14.4668C12.1145 14.4911 12.0825 14.5158 12.0548 14.545L12.0479 14.5522L12.0382 14.55C11.9944 14.5399 11.947 14.5471 11.9079 14.5695L11.9049 14.5713L11.9014 14.5717C11.9013 14.5717 11.9003 14.572 11.8983 14.5731C11.8962 14.5744 11.8935 14.5763 11.8905 14.5789C11.8854 14.5832 11.8804 14.5883 11.8751 14.5936C11.8738 14.5949 11.8724 14.5962 11.8711 14.5976C11.8679 14.6008 11.8645 14.6041 11.8612 14.6069C11.8582 14.6094 11.8542 14.6126 11.8497 14.6146C11.8455 14.6165 11.8355 14.6196 11.8264 14.6122C11.8194 14.6065 11.818 14.5982 11.8176 14.5937C11.8077 14.5182 11.8611 14.4596 11.9075 14.4198C11.9433 14.3771 11.9872 14.3441 12.0319 14.3146C12.1597 14.2109 12.2969 14.1198 12.4381 14.0364L12.4383 14.0363C12.4524 14.0282 12.4666 14.02 12.4807 14.0118ZM12.775 13.9033C12.6784 13.9378 12.589 13.9896 12.4985 14.0419C12.4843 14.0501 12.4701 14.0584 12.4558 14.0665C12.3154 14.1495 12.1795 14.2397 12.0532 14.3423L12.0525 14.3428L12.0518 14.3433C12.0075 14.3725 11.9663 14.4037 11.9333 14.4432L11.9324 14.4444L11.9313 14.4453C11.8908 14.48 11.8553 14.5206 11.8517 14.5676C11.8566 14.5627 11.8623 14.5571 11.8679 14.5523C11.8741 14.547 11.883 14.5403 11.8931 14.5378C11.9363 14.5138 11.9876 14.5051 12.0362 14.5139C12.0646 14.4854 12.0962 14.4612 12.1278 14.4385C12.1361 14.4325 12.1443 14.4266 12.1525 14.4208C12.1784 14.4024 12.2036 14.3845 12.2276 14.3646L12.2279 14.3644L12.2283 14.3641C12.3658 14.2615 12.5136 14.1735 12.6634 14.0918L12.6636 14.0917L12.6638 14.0916C12.6655 14.0907 12.6671 14.0899 12.6687 14.089C12.7143 14.0657 12.7612 14.0416 12.8106 14.0234L12.775 13.9033ZM11.8525 14.5914C11.8525 14.5914 11.8525 14.5912 11.8524 14.5909C11.8525 14.5912 11.8525 14.5914 11.8525 14.5914Z" fill="black"/>
<path fill-rule="evenodd" clip-rule="evenodd" d="M12.2003 14.1927C12.2128 14.1927 12.223 14.2029 12.223 14.2155V14.3933C12.223 14.4059 12.2128 14.416 12.2003 14.416C12.1877 14.416 12.1775 14.4059 12.1775 14.3933V14.2155C12.1775 14.2029 12.1877 14.1927 12.2003 14.1927Z" fill="black"/>
<path fill-rule="evenodd" clip-rule="evenodd" d="M12.3101 14.1152C12.3227 14.1152 12.3329 14.1253 12.3329 14.1379V14.3144C12.3329 14.327 12.3227 14.3372 12.3101 14.3372C12.2976 14.3372 12.2874 14.327 12.2874 14.3144V14.1379C12.2874 14.1253 12.2976 14.1152 12.3101 14.1152Z" fill="black"/>
<path fill-rule="evenodd" clip-rule="evenodd" d="M12.42 14.0467C12.4325 14.0467 12.4427 14.0569 12.4427 14.0694V14.2449C12.4427 14.2574 12.4325 14.2676 12.42 14.2676C12.4074 14.2676 12.3973 14.2574 12.3973 14.2449V14.0694C12.3973 14.0569 12.4074 14.0467 12.42 14.0467Z" fill="black"/>
<path fill-rule="evenodd" clip-rule="evenodd" d="M12.5299 13.9791C12.5424 13.9791 12.5526 13.9893 12.5526 14.0019V14.1829C12.5526 14.1954 12.5424 14.2056 12.5299 14.2056C12.5173 14.2056 12.5071 14.1954 12.5071 14.1829V14.0019C12.5071 13.9893 12.5173 13.9791 12.5299 13.9791Z" fill="black"/>
<path d="M11.222 13.8862C11.204 13.9364 11.186 13.9866 11.168 14.0368C11.4197 14.1323 11.6594 14.2586 11.8862 14.4033C11.9631 14.4556 12.0438 14.5063 12.1042 14.5781C12.1176 14.615 12.0809 14.6458 12.0445 14.6347C12.0112 14.6234 11.9784 14.6105 11.9433 14.6345C11.893 14.6574 11.8475 14.7319 11.9239 14.7569C12.0292 14.8276 12.2004 14.7968 12.251 14.673C12.2775 14.6093 12.2792 14.5277 12.228 14.4755C12.1342 14.368 12.0098 14.2932 11.8905 14.2176C11.6773 14.0894 11.4553 13.9733 11.222 13.8862L11.222 13.8862Z" fill="#F8D80E"/>
<path fill-rule="evenodd" clip-rule="evenodd" d="M11.2358 13.8732L11.2251 13.8223L11.1445 14.0471L11.1606 14.0531C11.4109 14.1481 11.6494 14.2738 11.8754 14.4179C11.8837 14.4235 11.892 14.4291 11.9003 14.4347C11.9686 14.4808 12.0356 14.526 12.0874 14.5867C12.0901 14.5968 12.0867 14.6055 12.0801 14.6115C12.0725 14.6183 12.0607 14.6217 12.0486 14.6181C12.0469 14.6175 12.0452 14.6169 12.0435 14.6163C12.013 14.6058 11.974 14.5924 11.9335 14.6192C11.9052 14.6326 11.878 14.6599 11.8683 14.6894C11.8632 14.7049 11.8625 14.7224 11.871 14.7385C11.8791 14.754 11.8942 14.7654 11.915 14.7727C11.9718 14.8099 12.045 14.82 12.1107 14.8049C12.1772 14.7896 12.2381 14.7478 12.2659 14.6796C12.2937 14.6128 12.2973 14.5229 12.2396 14.4636C12.1509 14.3621 12.0357 14.2893 11.9251 14.2195C11.9162 14.2139 11.9074 14.2084 11.8987 14.2028L11.8985 14.2027L11.8983 14.2026C11.6873 14.0757 11.4672 13.9604 11.2358 13.8732ZM11.2312 13.9088L11.189 14.0266C11.4362 14.1219 11.6716 14.2465 11.8944 14.3886L11.8946 14.3887L11.8948 14.3888C11.9031 14.3945 11.9115 14.4001 11.9199 14.4058C11.9887 14.4522 12.0608 14.5009 12.1164 14.5669L12.1184 14.5693L12.1195 14.5722C12.1287 14.5978 12.1204 14.622 12.1035 14.6373C12.087 14.6523 12.0624 14.6588 12.0382 14.6514L12.0379 14.6513L12.0377 14.6512C12.037 14.651 12.0363 14.6507 12.0356 14.6505C12.0016 14.6389 11.9782 14.631 11.9519 14.6489L11.9507 14.6498L11.9493 14.6504C11.9278 14.6602 11.9078 14.6811 11.9015 14.7003C11.8985 14.7095 11.899 14.7167 11.9019 14.7223C11.9048 14.7279 11.9119 14.7349 11.9281 14.7403L11.9304 14.741L11.9324 14.7424C11.9806 14.7747 12.0447 14.7842 12.1028 14.7708C12.1608 14.7575 12.2109 14.722 12.2336 14.6664L12.2337 14.6663C12.2588 14.6058 12.2585 14.5328 12.2143 14.4877L12.2139 14.4873L12.2136 14.4869C12.1284 14.3892 12.0172 14.319 11.9056 14.2485C11.8971 14.2432 11.8886 14.2378 11.8801 14.2324C11.6726 14.1076 11.4571 13.9946 11.2312 13.9088Z" fill="black"/>
<path fill-rule="evenodd" clip-rule="evenodd" d="M11.912 14.2218C11.9245 14.223 11.9337 14.2341 11.9326 14.2466L11.9184 14.3984C11.9172 14.4109 11.9061 14.4201 11.8936 14.4189C11.8811 14.4177 11.8719 14.4066 11.8731 14.3941L11.8873 14.2423C11.8885 14.2298 11.8995 14.2206 11.912 14.2218Z" fill="black"/>
<path fill-rule="evenodd" clip-rule="evenodd" d="M12.0422 14.2999C12.0543 14.3031 12.0616 14.3156 12.0584 14.3277L12.0192 14.4764C12.016 14.4885 12.0036 14.4957 11.9914 14.4925C11.9793 14.4893 11.972 14.4769 11.9752 14.4648L12.0144 14.3161C12.0176 14.304 12.0301 14.2967 12.0422 14.2999Z" fill="black"/>
<path fill-rule="evenodd" clip-rule="evenodd" d="M12.1847 14.4067C12.195 14.414 12.1974 14.4282 12.1901 14.4384L12.1078 14.5538C12.1005 14.564 12.0863 14.5664 12.0761 14.5591C12.0659 14.5518 12.0635 14.5376 12.0708 14.5274L12.153 14.412C12.1603 14.4018 12.1745 14.3994 12.1847 14.4067Z" fill="black"/>
<path fill-rule="evenodd" clip-rule="evenodd" d="M12.0743 14.6313C12.0802 14.6202 12.094 14.6161 12.105 14.622L12.2237 14.6857C12.2348 14.6916 12.2389 14.7054 12.233 14.7164C12.2271 14.7275 12.2133 14.7317 12.2022 14.7257L12.0835 14.6621C12.0725 14.6561 12.0683 14.6423 12.0743 14.6313Z" fill="black"/>
<path fill-rule="evenodd" clip-rule="evenodd" d="M12.2725 14.5785C12.2737 14.591 12.2645 14.6021 12.252 14.6032L12.1158 14.616C12.1033 14.6171 12.0923 14.608 12.0911 14.5955C12.0899 14.583 12.0991 14.5719 12.1116 14.5707L12.2478 14.558C12.2603 14.5568 12.2714 14.566 12.2725 14.5785Z" fill="black"/>
<path fill-rule="evenodd" clip-rule="evenodd" d="M12.0632 14.6354C12.0757 14.6344 12.0866 14.6437 12.0876 14.6563L12.0969 14.7759C12.0979 14.7885 12.0886 14.7994 12.0761 14.8004C12.0635 14.8013 12.0526 14.792 12.0516 14.7795L12.0423 14.6598C12.0413 14.6473 12.0507 14.6363 12.0632 14.6354Z" fill="black"/>
<path fill-rule="evenodd" clip-rule="evenodd" d="M12.0427 14.6274C12.0502 14.6375 12.048 14.6518 12.0379 14.6592L11.9255 14.742C11.9154 14.7495 11.9011 14.7473 11.8937 14.7372C11.8862 14.7271 11.8884 14.7129 11.8985 14.7054L12.0109 14.6226C12.021 14.6152 12.0353 14.6173 12.0427 14.6274Z" fill="black"/>
<path fill-rule="evenodd" clip-rule="evenodd" d="M11.4838 13.9899C11.4963 13.9899 11.5065 14.0001 11.5065 14.0126V14.1543C11.5065 14.1668 11.4963 14.177 11.4838 14.177C11.4712 14.177 11.461 14.1668 11.461 14.1543V14.0126C11.461 14.0001 11.4712 13.9899 11.4838 13.9899Z" fill="black"/>
<path fill-rule="evenodd" clip-rule="evenodd" d="M11.7696 14.1403C11.7822 14.1403 11.7923 14.1504 11.7923 14.163V14.3237C11.7923 14.3362 11.7822 14.3464 11.7696 14.3464C11.757 14.3464 11.7469 14.3362 11.7469 14.3237V14.163C11.7469 14.1504 11.757 14.1403 11.7696 14.1403Z" fill="black"/>
<path fill-rule="evenodd" clip-rule="evenodd" d="M11.6267 14.0652C11.6392 14.0652 11.6494 14.0754 11.6494 14.0879V14.2388C11.6494 14.2514 11.6392 14.2616 11.6267 14.2616C11.6141 14.2616 11.604 14.2514 11.604 14.2388V14.0879C11.604 14.0754 11.6141 14.0652 11.6267 14.0652Z" fill="black"/>
<path d="M11.084 17.4043V17.7694H11.3127V17.5862H11.6239V17.7694H11.8697V17.4043H11.084ZM11.084 17.9072V18.2738H11.8697V17.9072H11.6239V18.0905H11.3127V17.9072H11.084Z" fill="#F8D80E"/>
<path fill-rule="evenodd" clip-rule="evenodd" d="M11.0605 17.3818H11.8917V17.7924H11.6004V17.6092H11.3348V17.7924H11.0605V17.3818ZM11.106 17.4273V17.747H11.2893V17.5637H11.6459V17.747H11.8462V17.4273H11.106ZM11.0605 17.8848H11.3348V18.0681H11.6004V17.8848H11.8917V18.2968H11.0605V17.8848ZM11.106 17.9302V18.2513H11.8462V17.9302H11.6459V18.1135H11.2893V17.9302H11.106Z" fill="black"/>
<path d="M12.1019 15.8623H11.875V18.5045H12.1019V15.8623Z" fill="#F8D80E"/>
<path fill-rule="evenodd" clip-rule="evenodd" d="M11.8477 15.8398H12.12V18.5275H11.8477V15.8398ZM11.8931 15.8853V18.482H12.0745V15.8853H11.8931Z" fill="black"/>
<path fill-rule="evenodd" clip-rule="evenodd" d="M11.8477 16.0684H12.12V18.3898H11.8477V16.0684ZM11.8931 16.1139V18.3444H12.0745V16.1139H11.8931Z" fill="black"/>
<path d="M11.9819 15.2156L12.4649 15.497L11.9819 15.7768L11.4988 15.497L11.9819 15.2156ZM11.3354 15.3961H11.209V15.5978H11.3354L11.9819 15.9729L12.6283 15.5978H12.7548V15.3961H12.6283L11.9819 15.021L11.3354 15.3961Z" fill="#F8D80E"/>
<path fill-rule="evenodd" clip-rule="evenodd" d="M11.9837 14.9941L12.6364 15.3729H12.7798V15.6212H12.6364L11.9837 15.9999L11.331 15.6212H11.1875V15.3729H11.331L11.9837 14.9941ZM11.9837 15.048L11.3435 15.4194H11.2341V15.5746H11.3435L11.9837 15.9461L12.6239 15.5746H12.7333V15.4194H12.6239L11.9837 15.048ZM11.9837 15.1888L12.5131 15.4971L11.9837 15.8038L11.4543 15.4971L11.9837 15.1888ZM11.547 15.497L11.9837 15.75L12.4204 15.497L11.9837 15.2426L11.547 15.497Z" fill="black"/>
<path d="M11.9735 14.5282C11.8636 14.5437 11.7814 14.6524 11.7874 14.7617C11.7878 14.9316 11.7866 15.1016 11.7881 15.2715C11.7939 15.381 11.8895 15.4791 12.0006 15.4801C12.0908 15.4886 12.1815 15.4359 12.2193 15.3537C12.1933 15.3381 12.1672 15.3225 12.1412 15.3068C12.121 15.3607 12.0628 15.394 12.0062 15.3878C11.9319 15.3899 11.8717 15.3176 11.8783 15.2453C11.8788 15.0765 11.8775 14.9076 11.879 14.7388C11.8831 14.6699 11.9488 14.6136 12.0176 14.6206C12.0461 14.6124 12.0852 14.6514 12.1028 14.6178C12.1294 14.5801 12.084 14.5506 12.0588 14.5297C12.0309 14.5259 12.0018 14.5293 11.9735 14.5282L11.9735 14.5282ZM12.2364 14.7058C12.2184 14.7398 12.1811 14.7599 12.1511 14.7777V15.1193C12.1814 15.1368 12.2118 15.1543 12.2421 15.1719C12.2417 15.0262 12.2428 14.8805 12.2415 14.7349C12.2401 14.7259 12.2412 14.7122 12.2364 14.7058H12.2364Z" fill="#F8D80E"/>
<path fill-rule="evenodd" clip-rule="evenodd" d="M12.0196 14.5045C12.0341 14.5042 12.0499 14.5043 12.0657 14.5065L12.0723 14.5074L12.0774 14.5116C12.0793 14.5132 12.0816 14.5151 12.0842 14.5171C12.0955 14.5261 12.1116 14.5389 12.1225 14.5532C12.1295 14.5625 12.136 14.5743 12.1376 14.5884C12.1391 14.6026 12.1353 14.6167 12.1264 14.6298C12.1191 14.643 12.1079 14.6514 12.094 14.654C12.0817 14.6562 12.0697 14.6533 12.0615 14.6509C12.058 14.6499 12.0544 14.6487 12.0512 14.6477C12.0504 14.6474 12.0497 14.6472 12.049 14.647C12.0451 14.6457 12.0417 14.6446 12.0386 14.6439C12.0319 14.6422 12.029 14.6425 12.0278 14.6428L12.0234 14.6441L12.019 14.6436C11.9636 14.6379 11.9097 14.684 11.906 14.7395C11.9051 14.8432 11.9052 14.9469 11.9054 15.0506C11.9055 15.1154 11.9055 15.1803 11.9054 15.2452L11.9054 15.2463L11.9053 15.2473C11.8997 15.3073 11.9505 15.366 12.0093 15.3644L12.0109 15.3643L12.0125 15.3645C12.0592 15.3696 12.1069 15.3417 12.1231 15.2985L12.1329 15.2723L12.253 15.3443L12.2442 15.3633C12.2024 15.4541 12.103 15.5122 12.0031 15.5032C11.8794 15.5015 11.775 15.3932 11.7686 15.2726L11.7685 15.272L11.7685 15.2715C11.7676 15.1657 11.7677 15.0598 11.7679 14.9539C11.768 14.8899 11.768 14.826 11.7679 14.7622C11.7617 14.6433 11.8495 14.5248 11.9702 14.5056L11.9722 14.5046L11.9782 14.5048C11.9882 14.5052 11.9982 14.505 12.009 14.5047C12.0124 14.5046 12.016 14.5046 12.0196 14.5045ZM11.9786 14.5514C11.9895 14.5518 12.0006 14.5515 12.011 14.5513C12.0143 14.5512 12.0174 14.5511 12.0204 14.551C12.0321 14.5508 12.0429 14.5509 12.0531 14.5519C12.0546 14.5531 12.0562 14.5544 12.0577 14.5556C12.0686 14.5643 12.0785 14.5722 12.0854 14.5814C12.0895 14.5868 12.091 14.5907 12.0913 14.5934C12.0915 14.5955 12.0913 14.5988 12.0875 14.6042L12.0866 14.6055L12.0859 14.6068C12.0856 14.6075 12.0853 14.6079 12.0851 14.6082C12.0838 14.6083 12.0807 14.608 12.0745 14.6062C12.0718 14.6054 12.0691 14.6045 12.0659 14.6035C12.0651 14.6032 12.0642 14.603 12.0633 14.6027C12.0593 14.6014 12.0546 14.5999 12.0498 14.5987C12.0417 14.5967 12.031 14.5948 12.0197 14.5969C11.9391 14.591 11.8643 14.6566 11.8595 14.7373L11.8595 14.7379L11.8595 14.7384C11.8585 14.8426 11.8587 14.9469 11.8588 15.0511C11.8589 15.1155 11.859 15.1799 11.8588 15.2441C11.8518 15.3278 11.9203 15.4124 12.009 15.411C12.066 15.4166 12.1243 15.3885 12.1546 15.3396L12.1922 15.3622C12.1542 15.4248 12.0799 15.4637 12.0065 15.4568L12.0055 15.4567L12.0045 15.4566C11.9068 15.4558 11.8206 15.3684 11.8151 15.2706C11.8142 15.1651 11.8143 15.0598 11.8144 14.9544C11.8145 14.8901 11.8146 14.8259 11.8144 14.7615L11.8144 14.7608L11.8144 14.7602C11.809 14.6627 11.8825 14.566 11.9786 14.5514ZM12.2261 14.6824H12.2518L12.2587 14.6917C12.2655 14.7007 12.2667 14.712 12.2671 14.717C12.2674 14.7195 12.2675 14.7221 12.2677 14.7242C12.2677 14.7248 12.2677 14.7253 12.2678 14.7257C12.2679 14.7284 12.2681 14.73 12.2683 14.731L12.2685 14.7328L12.2686 14.7345C12.2693 14.8244 12.2692 14.9144 12.2691 15.0043C12.269 15.0601 12.2689 15.116 12.2691 15.1716L12.2692 15.2121L12.1316 15.1326V14.7643L12.143 14.7575C12.1453 14.7562 12.1475 14.7548 12.1498 14.7535C12.1631 14.7457 12.176 14.738 12.188 14.729C12.2018 14.7186 12.2128 14.7076 12.2196 14.6948L12.2261 14.6824ZM12.2222 14.7614C12.2201 14.7631 12.218 14.7647 12.216 14.7663C12.2035 14.7756 12.1901 14.7838 12.1782 14.7908V15.1057L12.2225 15.1313C12.2224 15.0888 12.2225 15.0463 12.2225 15.0038C12.2226 14.923 12.2227 14.8423 12.2222 14.7614Z" fill="black"/>
<path d="M12.6442 8.80322H11.3108V11.2244H12.6442V8.80322Z" fill="black"/>
<path d="M11.2151 8.80469V10.8307H11.6384V10.2297C11.6384 10.0911 11.7272 9.89867 11.9993 9.89867C12.2714 9.89867 12.3602 10.0911 12.3602 10.2297V10.8307H12.7836V8.80469H11.2151ZM11.934 9.03201H12.0647V9.72534H11.934V9.03201ZM11.5589 9.1684H11.691V9.67561H11.5589V9.1684ZM12.3076 9.1684H12.4398V9.67561H12.3076V9.1684Z" fill="#DA000C"/>
<path fill-rule="evenodd" clip-rule="evenodd" d="M11.1917 8.78174H12.8057V10.8532H12.3369V10.2295C12.3369 10.1646 12.316 10.0874 12.264 10.0268C12.2125 9.96693 12.1289 9.92119 11.9987 9.92119C11.8686 9.92119 11.7849 9.96693 11.7335 10.0268C11.6815 10.0874 11.6606 10.1646 11.6606 10.2295V10.8532H11.1917V8.78174ZM11.2372 8.8272V10.8077H11.6151V10.2295C11.6151 10.1558 11.6386 10.0675 11.699 9.99718C11.76 9.92619 11.8568 9.87572 11.9987 9.87572C12.1407 9.87572 12.2375 9.92619 12.2985 9.99718C12.3588 10.0675 12.3823 10.1558 12.3823 10.2295V10.8077H12.7603V8.8272H11.2372ZM11.9106 9.00906H12.0868V9.74786H11.9106V9.00906ZM11.9561 9.05452V9.70239H12.0414V9.05452H11.9561ZM11.5356 9.14545H11.7132V9.69813H11.5356V9.14545ZM11.581 9.19092V9.65266H11.6677V9.19092H11.581ZM12.2843 9.14545H12.4619V9.69813H12.2843V9.14545ZM12.3298 9.19092V9.65266H12.4164V9.19092H12.3298Z" fill="black"/>
<path d="M11.0725 8.5127V8.80111H12.928V8.5127H11.0725Z" fill="#DA000C"/>
<path fill-rule="evenodd" clip-rule="evenodd" d="M11.051 8.49023H12.952V8.82411H11.051V8.49023ZM11.0965 8.5357V8.77865H12.9065V8.5357H11.0965Z" fill="black"/>
<path d="M10.8967 8.17773V8.51303H13.1017V8.17773H12.8247V8.36243H12.5121V8.17773H12.1555V8.36243H11.8429V8.17773H11.4863V8.36243H11.1737V8.17773H10.8967Z" fill="#DA000C"/>
<path fill-rule="evenodd" clip-rule="evenodd" d="M10.8752 8.15479H11.1977V8.33948H11.4648V8.15479H11.8669V8.33948H12.134V8.15479H12.5361V8.33948H12.8032V8.15479H13.1257V8.53555H10.8752V8.15479ZM10.9207 8.20025V8.49008H13.0802V8.20025H12.8487V8.38495H12.4906V8.20025H12.1795V8.38495H11.8214V8.20025H11.5103V8.38495H11.1523V8.20025H10.9207Z" fill="black"/>
<path d="M10.4846 11.5078V11.7167H13.508V11.5078H10.4846Z" fill="#DA000C"/>
<path fill-rule="evenodd" clip-rule="evenodd" d="M10.4631 11.4854H13.5319V11.7397H10.4631V11.4854ZM10.5086 11.5308V11.6942H13.4865V11.5308H10.5086Z" fill="black"/>
<path d="M10.3635 10.8281V11.5072H13.6341V10.8281H13.3244V11.0895H12.9123V10.8281H12.3597V11.0895H11.6379V10.8281H11.0852V11.0895H10.6732V10.8281H10.3635Z" fill="#DA000C"/>
<path fill-rule="evenodd" clip-rule="evenodd" d="M10.3401 10.8052H10.6952V11.0666H11.0618V10.8052H11.6599V11.0666H12.3362V10.8052H12.9344V11.0666H13.3009V10.8052H13.6561V11.5298H10.3401V10.8052ZM10.3855 10.8506V11.4843H13.6107V10.8506H13.3464V11.1121H12.8889V10.8506H12.3817V11.1121H11.6145V10.8506H11.1073V11.1121H10.6498V10.8506H10.3855Z" fill="black"/>
<path d="M10.7561 11.7158V14.1865H11.34V13.2616C11.34 12.8259 11.6308 12.6208 11.9978 12.6208C12.3506 12.6208 12.6556 12.8259 12.6556 13.2616V14.1865H13.2396V11.7158H10.7561Z" fill="#DA000C"/>
<path fill-rule="evenodd" clip-rule="evenodd" d="M10.7326 11.7156C10.7326 11.703 10.7428 11.6929 10.7554 11.6929H13.2389C13.2514 11.6929 13.2616 11.703 13.2616 11.7156V14.1863C13.2616 14.1989 13.2514 14.209 13.2389 14.209H12.6549C12.6424 14.209 12.6322 14.1989 12.6322 14.1863V13.2614C12.6322 13.0493 12.5582 12.8956 12.4433 12.7947C12.328 12.6934 12.1693 12.6434 11.9971 12.6434C11.8176 12.6434 11.6591 12.6935 11.5457 12.7946C11.4327 12.8953 11.362 13.0489 11.362 13.2614V14.1863C11.362 14.1989 11.3519 14.209 11.3393 14.209H10.7554C10.7428 14.209 10.7326 14.1989 10.7326 14.1863V11.7156ZM10.7781 11.7383V14.1636H11.3166V13.2614C11.3166 13.0382 11.3913 12.8714 11.5154 12.7607C11.6392 12.6503 11.8096 12.5979 11.9971 12.5979C12.1777 12.5979 12.3479 12.6504 12.4733 12.7606C12.5992 12.8711 12.6777 13.0378 12.6777 13.2614V14.1636H13.2161V11.7383H10.7781Z" fill="black"/>
</g>
<defs>
<clipPath id="clip0_1692_54025">
<rect x="2.02539" y="5.93896" width="19.9495" height="13.2997" rx="1" fill="white"/>
</clipPath>
</defs>
</svg>
