<svg width="24" height="24" viewBox="0 0 24 24" fill="none" xmlns="http://www.w3.org/2000/svg">
<path d="M17.1163 15.3592C16.8456 15.6652 16.5615 15.9675 16.2645 16.2645C11.9687 20.5603 6.58683 22.1432 4.24368 19.8C2.63728 18.1936 2.87617 15.159 4.56944 12.0252M6.89065 8.72623C7.17236 8.40592 7.4687 8.08973 7.77921 7.77921C12.075 3.48345 17.4569 1.90053 19.8 4.24368C21.4075 5.85119 21.1672 8.88893 19.4708 12.025M16.2645 7.77921C20.5603 12.075 22.1432 17.4569 19.8 19.8C17.4569 22.1432 12.075 20.5603 7.77921 16.2645C3.48345 11.9687 1.90053 6.58683 4.24368 4.24368C6.58683 1.90053 11.9687 3.48345 16.2645 7.77921ZM13.001 12.001C13.001 12.5533 12.5533 13.001 12.001 13.001C11.4488 13.001 11.001 12.5533 11.001 12.001C11.001 11.4487 11.4488 11.001 12.001 11.001C12.5533 11.001 13.001 11.4487 13.001 12.001Z" stroke="#1C1D20" stroke-width="1.5" stroke-linecap="round" stroke-linejoin="round"/>
</svg>
