<svg width="24" height="24" viewBox="0 0 24 24" fill="none" xmlns="http://www.w3.org/2000/svg">
<path d="M5 9.99958V16.0107C5 16.3697 5 16.5492 5.05465 16.7076C5.10299 16.8477 5.18187 16.9754 5.28558 17.0813C5.40287 17.201 5.5634 17.2813 5.88446 17.4418L11.2845 20.1418C11.5468 20.273 11.678 20.3386 11.8156 20.3644C11.9375 20.3873 12.0625 20.3873 12.1844 20.3644C12.322 20.3386 12.4532 20.273 12.7155 20.1418L18.1155 17.4418C18.4366 17.2813 18.5971 17.201 18.7144 17.0813C18.8181 16.9754 18.897 16.8477 18.9453 16.7076C19 16.5492 19 16.3697 19 16.0107V9.99958M2 8.49958L11.6422 3.67846C11.7734 3.61287 11.839 3.58008 11.9078 3.56717C11.9687 3.55574 12.0313 3.55574 12.0922 3.56717C12.161 3.58008 12.2266 3.61287 12.3578 3.67846L22 8.49958L12.3578 13.3207C12.2266 13.3863 12.161 13.4191 12.0922 13.432C12.0313 13.4434 11.9687 13.4434 11.9078 13.432C11.839 13.4191 11.7734 13.3863 11.6422 13.3207L2 8.49958Z" stroke="#1C1D20" stroke-width="1.5" stroke-linecap="round" stroke-linejoin="round"/>
</svg>
