<svg width="24" height="24" viewBox="0 0 24 24" fill="none" xmlns="http://www.w3.org/2000/svg">
<path d="M13.1237 14.8446L18.0024 21.9999M10.881 14.8446L6.00236 21.9999M14.0024 13.2C14.0024 14.3045 13.1069 15.2 12.0024 15.2C10.8978 15.2 10.0024 14.3045 10.0024 13.2C10.0024 12.0954 10.8978 11.2 12.0024 11.2C13.1069 11.2 14.0024 12.0954 14.0024 13.2ZM17.1509 4.53225L5.36657 7.68984C5.09609 7.76232 4.96085 7.79855 4.87164 7.87888C4.79317 7.94953 4.73908 8.04321 4.71713 8.14649C4.69217 8.26391 4.72841 8.39915 4.80089 8.66964L5.68087 11.9538C5.75335 12.2243 5.78959 12.3595 5.86991 12.4487C5.94056 12.5272 6.03424 12.5813 6.13753 12.6032C6.25494 12.6282 6.39018 12.5919 6.66067 12.5195L18.445 9.36188L17.1509 4.53225ZM21.7947 9.49958C20.7128 9.78949 20.1718 9.93444 19.7022 9.83461C19.289 9.74679 18.9143 9.53045 18.6317 9.21657C18.3104 8.85975 18.1655 8.31878 17.8756 7.23684L17.7203 6.65728C17.4304 5.57535 17.2854 5.03438 17.3852 4.56471C17.4731 4.15158 17.6894 3.77686 18.0033 3.49425C18.3601 3.17296 18.9011 3.02801 19.983 2.7381C20.2535 2.66562 20.3887 2.62939 20.5062 2.65434C20.6094 2.6763 20.7031 2.73038 20.7738 2.80885C20.8541 2.89806 20.8903 3.0333 20.9628 3.30379L22.3604 8.51979C22.4329 8.79027 22.4691 8.92551 22.4442 9.04293C22.4222 9.14621 22.3681 9.23989 22.2897 9.31055C22.2005 9.39087 22.0652 9.42711 21.7947 9.49958ZM3.50407 12.33L4.85637 11.9677C5.12685 11.8952 5.26209 11.8589 5.3513 11.7786C5.42977 11.708 5.48386 11.6143 5.50581 11.511C5.53077 11.3936 5.49453 11.2583 5.42205 10.9879L5.05971 9.63556C4.98723 9.36508 4.95099 9.22983 4.87067 9.14063C4.80002 9.06216 4.70634 9.00807 4.60305 8.98612C4.48564 8.96116 4.3504 8.9974 4.07991 9.06988L2.72761 9.43222C2.45713 9.5047 2.32189 9.54094 2.23268 9.62126C2.15421 9.69191 2.10013 9.78559 2.07817 9.88888C2.05321 10.0063 2.08945 10.1415 2.16193 10.412L2.52428 11.7643C2.59675 12.0348 2.63299 12.17 2.71331 12.2592C2.78397 12.3377 2.87765 12.3918 2.98093 12.4138C3.09834 12.4387 3.23359 12.4025 3.50407 12.33Z" stroke="#1C1D20" stroke-width="1.5" stroke-linecap="round" stroke-linejoin="round"/>
</svg>
