<svg width="25" height="25" viewBox="0 0 25 25" fill="none" xmlns="http://www.w3.org/2000/svg">
<g clip-path="url(#clip0_1692_54064)">
<path d="M21.9983 6.1167H2.04883V19.4164H21.9983V6.1167Z" fill="#20603D"/>
<path d="M21.9983 6.1167H2.04883V16.0915H21.9983V6.1167Z" fill="#FAD201"/>
<path d="M21.9983 6.1167H2.04883V12.7665H21.9983V6.1167Z" fill="#00A1DE"/>
<path d="M17.7608 9.50531C17.7684 9.44666 17.7837 9.39041 17.8056 9.3376L16.3484 9.03701L17.7608 9.50531Z" fill="#E5BE01"/>
<path d="M17.7608 9.50534L16.2753 9.59214L17.7608 9.67895C17.7571 9.65054 17.7551 9.62157 17.7551 9.59215C17.7551 9.56272 17.7571 9.53375 17.7608 9.50534Z" fill="#E5BE01"/>
<path d="M17.7608 9.67897L16.3484 10.1473L17.8056 9.84669C17.7837 9.79388 17.7684 9.73763 17.7608 9.67897Z" fill="#E5BE01"/>
<path d="M17.8056 9.84675L16.5627 10.6646L17.8925 9.99703C17.8574 9.95127 17.828 9.90081 17.8056 9.84675Z" fill="#E5BE01"/>
<path d="M17.8925 9.99703L16.9035 11.1088L18.0153 10.1198C17.9692 10.0844 17.9279 10.0431 17.8925 9.99703Z" fill="#E5BE01"/>
<path d="M18.0153 10.1198L17.3478 11.4497L18.1656 10.2067C18.1115 10.1843 18.0611 10.155 18.0153 10.1198Z" fill="#E5BE01"/>
<path d="M18.1657 10.2068L17.8651 11.6639L18.3334 10.2516C18.2747 10.244 18.2185 10.2287 18.1657 10.2068Z" fill="#E5BE01"/>
<path d="M18.3334 10.2516L18.4202 11.737L18.507 10.2516C18.4786 10.2553 18.4496 10.2572 18.4202 10.2572C18.3908 10.2572 18.3618 10.2553 18.3334 10.2516Z" fill="#E5BE01"/>
<path d="M18.507 10.2516L18.9753 11.6639L18.6748 10.2068C18.6219 10.2287 18.5657 10.244 18.507 10.2516Z" fill="#E5BE01"/>
<path d="M18.6748 10.2067L19.4926 11.4497L18.8251 10.1198C18.7793 10.155 18.7289 10.1843 18.6748 10.2067Z" fill="#E5BE01"/>
<path d="M18.8251 10.1198L19.9369 11.1088L18.9479 9.99705C18.9125 10.0431 18.8712 10.0844 18.8251 10.1198Z" fill="#E5BE01"/>
<path d="M18.9479 9.99705L20.2777 10.6646L19.0348 9.84676C19.0124 9.90082 18.983 9.95129 18.9479 9.99705Z" fill="#E5BE01"/>
<path d="M19.0348 9.8467L20.492 10.1473L19.0797 9.67898C19.072 9.73763 19.0567 9.79388 19.0348 9.8467Z" fill="#E5BE01"/>
<path d="M19.0797 9.67895L20.5651 9.59214L19.0797 9.50534C19.0834 9.53375 19.0853 9.56273 19.0853 9.59215C19.0853 9.62157 19.0834 9.65054 19.0797 9.67895Z" fill="#E5BE01"/>
<path d="M19.0797 9.50531L20.492 9.03701L19.0348 9.33759C19.0567 9.39041 19.072 9.44666 19.0797 9.50531Z" fill="#E5BE01"/>
<path d="M19.0348 9.33753L20.2777 8.5197L18.9479 9.18725C18.9831 9.23301 19.0124 9.28347 19.0348 9.33753Z" fill="#E5BE01"/>
<path d="M18.9479 9.18725L19.9369 8.07549L18.8251 9.06448C18.8712 9.09988 18.9125 9.14119 18.9479 9.18725Z" fill="#E5BE01"/>
<path d="M18.8251 9.06448L19.4926 7.73462L18.6748 8.97754C18.7289 8.99996 18.7794 9.02931 18.8251 9.06448Z" fill="#E5BE01"/>
<path d="M18.6748 8.97752L18.9753 7.52035L18.507 8.93268C18.5657 8.94033 18.6219 8.95562 18.6748 8.97752Z" fill="#E5BE01"/>
<path d="M18.507 8.93268L18.4202 7.44727L18.3334 8.93268C18.3618 8.92898 18.3908 8.92707 18.4202 8.92707C18.4496 8.92707 18.4786 8.92898 18.507 8.93268Z" fill="#E5BE01"/>
<path d="M18.3334 8.93269L17.8651 7.52035L18.1657 8.97752C18.2185 8.95562 18.2747 8.94033 18.3334 8.93269Z" fill="#E5BE01"/>
<path d="M18.1656 8.97755L17.3478 7.73462L18.0153 9.06448C18.0611 9.02931 18.1115 8.99997 18.1656 8.97755Z" fill="#E5BE01"/>
<path d="M18.0153 9.06448L16.9035 8.07549L17.8925 9.18725C17.928 9.14119 17.9693 9.09988 18.0153 9.06448Z" fill="#E5BE01"/>
<path d="M17.8925 9.18725L16.5627 8.5197L17.8056 9.33754C17.828 9.28348 17.8574 9.23301 17.8925 9.18725Z" fill="#E5BE01"/>
<path d="M17.818 9.59215C17.818 9.25952 18.0876 8.98988 18.4202 8.98988C18.7528 8.98988 19.0225 9.25952 19.0225 9.59215C19.0225 9.92477 18.7528 10.1944 18.4202 10.1944C18.0876 10.1944 17.818 9.92477 17.818 9.59215Z" fill="#E5BE01"/>
</g>
<defs>
<clipPath id="clip0_1692_54064">
<rect x="2.04883" y="6.1167" width="19.9495" height="13.2997" rx="1" fill="white"/>
</clipPath>
</defs>
</svg>
