<svg width="25" height="25" viewBox="0 0 25 25" fill="none" xmlns="http://www.w3.org/2000/svg">
<g clip-path="url(#clip0_1692_54129)">
<mask id="mask0_1692_54129" style="mask-type:alpha" maskUnits="userSpaceOnUse" x="2" y="5" width="20" height="14">
<rect x="2.04883" y="5.46338" width="19.9495" height="13.2997" fill="white"/>
</mask>
<g mask="url(#mask0_1692_54129)">
<path d="M2.04883 18.7631V5.46338H21.9983L2.04883 18.7631Z" fill="#003580"/>
<path d="M21.9983 5.46338V18.7631H2.04883L21.9983 5.46338Z" fill="#009543"/>
<path fill-rule="evenodd" clip-rule="evenodd" d="M23.2309 7.30683L3.28138 20.6065L0.822266 16.9178L20.7718 3.61816L23.2309 7.30683Z" fill="white"/>
<path fill-rule="evenodd" clip-rule="evenodd" d="M22.9188 6.8456L2.96933 20.1453L1.125 17.3788L21.0745 4.0791L22.9188 6.8456Z" fill="#D21034"/>
<path d="M6.04115 6.86914L6.38544 7.80136L7.14961 7.16621L6.98179 8.14565L7.96101 7.97761L7.32608 8.742L8.25808 9.08607L7.32608 9.43036L7.96101 10.1945L6.98179 10.0267L7.14961 11.0062L6.38544 10.371L6.04115 11.303L5.69686 10.371L4.93268 11.0062L5.1005 10.0267L4.12129 10.1945L4.75622 9.43036L3.82422 9.08607L4.75622 8.742L4.12129 7.97761L5.1005 8.14565L4.93268 7.16621L5.69686 7.80136L6.04115 6.86914Z" fill="#FFCE00"/>
<path d="M6.04158 10.3063C6.71498 10.3063 7.26089 9.76039 7.26089 9.08699C7.26089 8.41358 6.71498 7.86768 6.04158 7.86768C5.36817 7.86768 4.82227 8.41358 4.82227 9.08699C4.82227 9.76039 5.36817 10.3063 6.04158 10.3063Z" stroke="#003580" stroke-width="0.221661"/>
</g>
</g>
<defs>
<clipPath id="clip0_1692_54129">
<rect x="2.04883" y="5.46338" width="19.9504" height="13.2997" rx="1" fill="white"/>
</clipPath>
</defs>
</svg>
