<svg width="25" height="25" viewBox="0 0 25 25" fill="none" xmlns="http://www.w3.org/2000/svg">
<g clip-path="url(#clip0_1692_54079)">
<path d="M21.9964 5.46338H2.04688V18.7631H21.9964V5.46338Z" fill="#007934"/>
<path d="M15.9255 5.46338H8.11914V18.7631H15.9255V5.46338Z" fill="white"/>
<path d="M12.0956 7.79004C12.0782 7.97877 12.0607 8.16761 12.0433 8.35635C11.9794 8.36598 11.9155 8.37556 11.8516 8.38519C11.8516 8.38519 11.9847 8.45997 12.008 8.53508C12.0117 8.54711 12.0102 8.55706 12.0048 8.56455C12.003 8.56689 12.0003 8.5695 11.9979 8.57145C11.9593 8.6011 11.8452 8.58713 11.8452 8.58713C11.8452 8.58713 11.9963 8.71462 12.008 8.76084C12.0082 8.76193 12.0086 8.76293 12.0086 8.76398C12.0086 8.76485 12.0088 8.76628 12.0086 8.76712C12.0084 8.76778 12.0076 8.76897 12.0073 8.76963C12.0063 8.77189 12.0044 8.77445 12.0023 8.77653C11.9668 8.80934 11.7992 8.81854 11.7992 8.81854C11.7992 8.81854 11.985 8.95101 11.9966 9.02612C12.0071 9.09419 11.9983 9.13406 11.9966 9.14089C11.9836 9.1298 11.684 8.87803 11.4908 8.95149C11.4812 8.95649 11.4755 8.96126 11.4731 8.96592C11.4721 8.96824 11.4719 8.97114 11.4725 8.97344C11.486 9.01532 11.7593 9.05822 11.9499 9.22305C11.9452 9.2643 11.4066 9.09184 11.3867 9.19985C11.4036 9.2303 11.9663 9.31141 12.008 9.38485C11.8007 9.39256 11.3726 9.33924 11.3867 9.40743C11.3434 9.48615 11.7911 9.44169 11.979 9.50589C12.034 9.5681 12.0287 9.62036 11.9329 9.62692C11.7519 9.54085 11.3467 9.47689 11.3457 9.58679C11.3457 9.58692 11.3457 9.5873 11.3457 9.58741C11.3458 9.58754 11.3463 9.58793 11.3464 9.58804C11.3465 9.58839 11.3467 9.58898 11.347 9.58929C11.3476 9.58991 11.3491 9.5906 11.3501 9.59118C11.3959 9.614 11.7732 9.60287 11.9153 9.69653C11.7139 9.74209 11.0309 9.60412 11.0266 9.67145C11.046 9.7029 11.1541 9.84091 11.3401 9.83513C11.526 9.82935 11.9562 9.9103 11.9853 9.96808C11.9862 9.96988 11.9862 9.97174 11.9859 9.9731C11.9733 10.0134 11.4194 9.85018 11.2064 9.95052C10.9856 10.0545 11.8395 9.99148 11.979 10.1186C12.1184 10.2457 11.7002 10.1067 11.7002 10.1067C11.7002 10.1067 11.1194 10.0261 11.0323 10.0665C10.9451 10.107 10.8462 10.1995 10.8462 10.1995C10.8462 10.1995 10.9042 10.3148 10.9623 10.2917C10.9711 10.2882 10.9772 10.2874 10.9806 10.2885C10.9806 10.2886 10.9811 10.2885 10.9812 10.2885C10.9813 10.2886 10.9817 10.2891 10.9818 10.2892C10.9819 10.2893 10.9823 10.2897 10.9825 10.2898C10.9825 10.2899 10.983 10.2903 10.9831 10.2904C10.9831 10.2905 10.9837 10.291 10.9837 10.2911C10.984 10.2916 10.9842 10.2929 10.9843 10.2936C10.9857 10.3109 10.9446 10.3613 10.9446 10.3613C10.9446 10.3613 11.7585 10.5573 11.9386 10.7307C12.1187 10.904 10.9043 10.4591 10.9043 10.4591C10.9043 10.4591 10.4161 10.6382 10.9333 10.6498C10.8756 10.7336 10.9571 10.7852 10.9623 10.7884C10.9623 10.7884 11.8224 10.9676 11.9096 11.1063C11.9968 11.245 11.3228 10.9732 11.1717 10.8981C11.0259 10.8256 10.6202 10.9364 10.5971 10.9702C10.5969 10.9705 10.5966 10.9712 10.5965 10.9715C10.5964 10.9716 10.5965 10.972 10.5965 10.9721C10.5964 10.9724 10.5965 10.9731 10.5965 10.9734C10.5965 10.9735 10.5965 10.9739 10.5965 10.974C10.5965 10.9741 10.5964 10.9745 10.5965 10.9746C10.5965 10.9747 10.5971 10.9751 10.5971 10.9752C10.5972 10.9754 10.5971 10.9758 10.5971 10.9759C10.5974 10.9763 10.598 10.9773 10.5984 10.9777C10.5985 10.9779 10.5989 10.9783 10.599 10.9784C10.625 11.0069 10.8061 11.0461 10.8116 11.095C10.8116 11.0952 10.8115 11.0955 10.8116 11.0956C10.8116 11.0983 10.8108 11.1014 10.8097 11.1038C10.7868 11.1478 10.5708 11.1665 10.5618 11.2079C10.5617 11.2086 10.5612 11.2097 10.5612 11.2104C10.5612 11.2567 11.6481 11.482 11.9386 11.7247C12.2291 11.9673 11.0846 11.4355 11.0846 11.4355C11.0846 11.4355 11.1486 11.5222 11.0846 11.5453C11.0207 11.5684 10.7937 11.2218 10.4218 11.4355C10.354 11.5235 10.7465 11.5933 10.8462 11.603C10.8122 11.6901 10.7825 11.7189 10.9219 11.8055C10.9372 11.815 10.9457 11.8208 10.949 11.8237C10.9491 11.8238 10.9496 11.8243 10.9497 11.8244L10.9503 11.825C10.9503 11.825 10.9503 11.8256 10.9503 11.8256C10.9503 11.8257 10.9503 11.8262 10.9503 11.8262C10.9503 11.8263 10.9498 11.8262 10.9497 11.8262C10.9496 11.8262 10.9491 11.8263 10.949 11.8262C10.9274 11.8229 10.6769 11.6949 10.6507 11.6895C10.6505 11.6895 10.6496 11.6895 10.6494 11.6895C10.6494 11.6895 10.6489 11.6895 10.6488 11.6895C10.6488 11.7011 10.6778 11.84 10.6778 11.84C10.5491 11.736 10.3935 11.7047 10.2477 11.8112C10.2475 11.8174 10.2464 11.9171 10.3928 11.9786C10.3103 12.1462 10.486 12.0942 10.7649 12.2502C10.3504 12.1425 10.3172 12.3426 10.6135 12.3888C10.9099 12.435 11.7235 12.464 11.9153 12.7124C11.9557 12.7648 11.9667 12.7911 11.9588 12.7996C11.9268 12.8284 11.6326 12.6168 11.5899 12.6089C11.5898 12.6089 11.5893 12.6088 11.5892 12.6089C11.5891 12.609 11.5887 12.6094 11.5886 12.6095C11.588 12.6102 11.5872 12.6116 11.5867 12.6127C11.5762 12.6357 11.5665 12.7356 11.5665 12.7356C11.4425 12.6642 11.3288 12.6002 11.1805 12.57C11.1689 12.5931 11.1713 12.6259 11.1597 12.649C11.0252 12.5526 10.9079 12.4847 10.7125 12.4753C10.7048 12.5062 10.697 12.5373 10.6892 12.5681C10.6892 12.5681 10.5263 12.3659 10.2067 12.5681C10.0283 12.6954 10.8809 12.6142 11.0203 12.7644C11.1598 12.9146 11.0493 12.9375 11.0493 12.9375C10.9331 12.8952 10.8174 12.8532 10.7012 12.8108C10.7012 12.8108 10.2882 12.7353 10.172 12.8278C10.0558 12.9202 11.8687 13.1456 11.9209 13.3941C11.9562 13.5288 11.495 13.253 11.096 13.1345C11.0805 13.1786 11.0647 13.2227 11.0493 13.2668C11.0398 13.2575 10.8855 13.1082 10.7125 13.0824C10.7125 13.0825 10.7119 13.0829 10.7119 13.083C10.7119 13.0833 10.7119 13.084 10.7119 13.0843C10.7121 13.1033 10.7472 13.2386 10.7472 13.2386C10.7472 13.2386 10.3002 13.0303 10.0736 13.1401C9.847 13.2499 10.8636 13.3076 10.9566 13.4117C10.9668 13.423 10.971 13.4313 10.9705 13.4367C10.9703 13.4377 10.9697 13.4391 10.9692 13.4399C10.9468 13.4726 10.6436 13.3518 10.6135 13.4117C10.5786 13.481 10.0848 13.2847 10.0907 13.3772C10.0965 13.4696 10.1607 13.5214 10.1607 13.5214C10.1607 13.5214 11.1891 13.6196 11.224 13.7409C11.2589 13.8622 10.6545 13.6719 10.6545 13.6719C10.6545 13.6719 10.596 13.7581 10.6425 13.7986C10.6443 13.8002 10.6458 13.8017 10.6463 13.8023C10.6463 13.8024 10.6463 13.8029 10.6463 13.803C10.6463 13.803 10.6457 13.803 10.6457 13.803C10.6247 13.7961 10.2972 13.5828 10.3291 13.7465C10.2009 13.6958 9.87008 13.5387 9.91658 13.66C9.96237 13.7795 10.8253 13.9498 10.8506 13.9547C10.8278 13.9565 10.4629 13.9869 10.4798 14.082C9.99071 13.7858 9.99186 13.9634 10.003 13.9773C10.003 13.9773 10.003 13.9779 10.003 13.9779C9.97551 13.9736 9.3738 13.8246 9.85225 14.0821C10.1088 14.2201 10.1714 14.274 10.1727 14.2946C10.1727 14.2951 10.1727 14.2961 10.1727 14.2965C10.1726 14.2971 10.1722 14.2979 10.172 14.2984C10.172 14.2985 10.1715 14.2989 10.1714 14.299C10.1712 14.2994 10.171 14.3 10.1708 14.3003C10.1707 14.3004 10.1702 14.3008 10.1701 14.3009C10.17 14.301 10.1696 14.3015 10.1695 14.3016C10.1694 14.3016 10.169 14.3021 10.1689 14.3022C10.1687 14.3023 10.1684 14.3027 10.1682 14.3028C10.1583 14.3091 10.1343 14.3065 10.1272 14.3066C10.1269 14.3066 10.1262 14.3066 10.126 14.3066C10.1258 14.3066 10.1254 14.3071 10.1253 14.3072L10.126 14.3078C10.1328 14.3179 10.1703 14.4198 10.1682 14.4376C10.1682 14.4379 10.1677 14.4387 10.1676 14.4389C10.1676 14.439 10.1676 14.4394 10.1676 14.4395C10.1676 14.4396 10.167 14.4395 10.167 14.4395C10.1669 14.4395 10.167 14.4401 10.167 14.4402C10.1669 14.4402 10.1664 14.4401 10.1663 14.4402C10.1663 14.4401 10.1658 14.4402 10.1657 14.4402C10.1447 14.4349 9.82784 14.2665 9.71916 14.2552C9.60874 14.2436 9.08565 14.3994 9.64347 14.6421C10.2013 14.8847 10.5439 14.5842 10.8519 14.6189C11.1599 14.6535 11.3054 14.7057 11.2764 14.8039C11.2473 14.9021 10.9613 14.4819 10.6608 14.8453C10.3189 14.778 10.087 14.7391 10.2634 14.9889C9.70514 14.7814 9.3642 15.0522 10.0673 15.162C10.7582 15.1822 11.183 14.9945 11.183 14.9945C11.183 14.9945 11.2996 15.2087 11.4681 15.0585C11.6287 14.9153 11.6413 15.0975 11.6472 15.1149C11.6473 15.1152 11.6477 15.1154 11.6478 15.1156C11.6479 15.1156 11.6478 15.1162 11.6478 15.1162C11.6479 15.1162 11.6484 15.1162 11.6485 15.1162C11.6609 15.1131 11.8106 15.0466 11.8106 15.0466C11.8241 15.0466 11.838 15.0466 11.8515 15.0466V16.4332C12.0394 16.4351 12.2269 16.4369 12.4148 16.4388C12.4148 16.4388 12.2346 15.2316 12.3334 15.0698C12.4291 14.9131 12.5196 14.93 12.5251 14.9312C12.5251 14.9312 12.8913 15.0407 12.9319 15.0234C12.9324 15.0232 12.9334 15.023 12.9338 15.0228C12.9341 15.0226 12.9348 15.0223 12.9351 15.0221C12.9358 15.0217 12.937 15.0208 12.9376 15.0203C12.9377 15.0202 12.9381 15.0197 12.9382 15.0196C12.968 14.9926 12.9377 14.886 13.1237 14.9023C13.1811 14.8816 13.1592 14.7905 13.1962 14.7681C13.1968 14.7678 13.198 14.7672 13.1987 14.7669C13.2001 14.7662 13.2022 14.7655 13.2038 14.765C13.2059 14.7644 13.2088 14.764 13.2113 14.7638C13.2694 14.758 14.3908 15.0755 14.6348 14.775C14.5709 14.6075 14.3498 14.7636 14.2917 14.7694C14.2394 14.7694 14.0184 14.6654 13.8906 14.7694C13.7744 14.6827 13.246 14.6252 13.246 14.6252C13.1763 14.5558 14.5069 14.6596 14.5824 14.6076C14.7393 14.4516 14.2921 14.4691 14.2223 14.5211C14.0984 14.4459 13.9426 14.4515 13.8477 14.5035C13.8022 14.3952 13.3701 14.4421 13.13 14.4113C13.0531 14.3665 13.0659 14.3407 13.118 14.3128C13.6196 14.334 14.1187 14.3992 14.6228 14.3768C14.7591 14.2002 14.4513 14.1336 14.2627 14.284C14.152 14.1029 13.9256 14.2781 13.7745 14.2608C13.6235 14.2435 13.6932 14.0588 13.8849 14.0877C14.0767 14.1166 14.4195 14.0759 14.4834 13.9892C14.5473 13.9026 14.4453 13.8148 14.129 13.8971C14.0219 13.793 13.7865 13.8969 13.6761 13.9316C13.5292 13.8501 13.1875 13.9202 13.0713 13.9491C12.9575 13.8788 13.6698 13.7641 13.6698 13.7641C13.9447 13.7593 14.0998 13.712 14.187 13.6889C14.6026 13.4674 14.1812 13.4438 13.9631 13.6048C13.8277 13.4997 13.6991 13.6139 13.5771 13.6544C13.4627 13.6923 13.2512 13.7199 13.2252 13.7089C13.2249 13.7088 13.2242 13.7085 13.2239 13.7083C13.2239 13.7083 13.2233 13.7077 13.2233 13.7077L13.2227 13.707C13.2226 13.707 13.2227 13.7065 13.2227 13.7064C13.2227 13.7064 13.2226 13.7059 13.2227 13.7058C13.2227 13.7055 13.2231 13.7048 13.2233 13.7045C13.2404 13.6781 13.5538 13.4869 13.5538 13.4869C13.5538 13.4869 13.9606 13.4577 14.0419 13.4461C14.0915 13.4391 14.2653 13.3573 14.2652 13.327C14.2637 13.3082 14.1913 13.3099 13.9719 13.3652C13.7743 13.3826 13.6583 13.3714 13.5828 13.3772C13.4613 13.3647 13.4101 13.3519 13.3999 13.3408C13.3995 13.3403 13.3988 13.3394 13.3986 13.3389C13.3977 13.3369 13.3983 13.3346 13.3999 13.3326C13.4002 13.3322 13.4012 13.3312 13.4018 13.3307C13.4315 13.3071 13.6238 13.29 13.6238 13.29C13.6238 13.29 14.2106 13.2365 14.2494 13.2059C14.2495 13.2058 14.2499 13.2054 14.25 13.2053C14.2503 13.2051 14.2505 13.2043 14.2507 13.2041C14.2507 13.2039 14.2513 13.2036 14.2513 13.2034C14.2634 12.9649 13.7535 13.075 13.7398 13.0768C13.7413 12.909 13.2796 13.0743 13.258 13.0768C13.2579 13.0768 13.2574 13.0768 13.2573 13.0768C13.2375 13.0651 13.2288 13.0528 13.2271 13.0416C13.2265 13.0374 13.227 13.0326 13.2283 13.0285C13.2399 12.9939 13.3097 12.967 13.3097 12.967C13.4375 12.9362 13.6287 12.9266 13.6786 12.8861C13.6786 12.8861 14.0394 12.883 14.0823 12.7877C13.9938 12.5448 13.3187 12.8306 13.2283 12.8742C13.2102 12.8742 13.1991 12.8697 13.1936 12.8623C13.164 12.8192 13.3104 12.6772 13.3154 12.6723C13.3154 12.6722 13.3159 12.6717 13.316 12.6716C13.3383 12.6653 13.8773 12.6379 14.1346 12.291C14.1528 12.0764 13.8269 12.412 13.8269 12.412C13.8025 12.1338 13.4724 12.4296 13.2807 12.4528C13.0889 12.4759 13.0833 12.366 13.217 12.3487C13.3506 12.3313 13.5015 12.3427 13.5771 12.1405C13.6526 11.9382 13.8795 12.1522 13.9202 12.0771C13.9596 12.0043 13.846 11.9423 13.8388 11.9385C13.8388 11.9385 14.0072 11.7647 13.7342 11.7704C13.4638 11.7762 13.1143 11.7368 13.1072 11.736C13.1242 11.7295 13.3995 11.6263 13.6585 11.6319C13.9258 11.6376 13.7804 11.4412 13.5248 11.4412C13.2691 11.4412 13.1356 11.3547 13.1356 11.3547C13.2809 11.3007 13.4262 11.2468 13.5714 11.1929C13.5617 11.1524 13.5521 11.1123 13.5424 11.0718C13.5424 11.0718 13.798 10.8695 13.4377 10.9157C13.0775 10.9619 13.0366 10.9677 13.0366 10.9677C13.0366 10.9677 12.3274 11.0758 12.3107 11.0775C12.3106 11.0775 12.3101 11.0775 12.31 11.0775C12.3032 11.0764 12.2329 11.0547 12.2198 11.0279C12.2194 11.0271 12.2188 11.0257 12.2186 11.0248C12.2183 11.0237 12.218 11.0221 12.2179 11.021C12.2179 11.0198 12.2177 11.0179 12.2179 11.0166C12.2209 11.0025 12.2427 10.9873 12.2987 10.9734C12.4846 10.9272 13.1415 10.7945 13.2403 10.8291C13.253 10.8336 13.2623 10.8326 13.2681 10.8279C13.3051 10.7946 13.1819 10.582 12.8795 10.5519C12.5309 10.5173 12.3163 10.6385 12.3163 10.6385C12.3163 10.6385 12.0895 10.5573 12.2987 10.488C12.5079 10.4187 12.8392 10.5112 12.8392 10.5112C12.8392 10.5112 13.2108 10.4012 12.9029 10.355C12.5949 10.3088 12.4978 10.3966 12.3567 10.4014C12.3004 10.3315 12.8402 10.315 12.8739 10.2572C12.8169 10.1532 12.4829 10.2572 12.2873 10.2572C12.2041 10.2221 12.1986 10.165 12.293 10.1299C12.4925 10.1222 12.68 10.1338 12.8795 10.1261C12.8737 10.0202 12.8797 9.89465 12.8739 9.78875C12.6208 9.74277 12.3241 9.82241 12.182 9.81571C12.22 9.70014 12.7664 9.67031 12.8272 9.63886C12.9527 9.48284 12.3032 9.63645 12.2873 9.63886C12.172 9.62192 12.179 9.54946 12.252 9.50591C12.4205 9.48665 12.7984 9.53046 12.7698 9.41686C12.7479 9.3104 12.5078 9.3674 12.409 9.39052C12.3103 9.41362 12.165 9.39616 12.165 9.39616C12.1017 9.31149 12.7346 9.3461 12.7288 9.28077C12.7206 9.20577 12.3276 9.25743 12.194 9.26321C12.0912 9.19269 12.6772 9.1458 12.7048 9.13653C12.705 9.13645 12.7054 9.13597 12.7055 9.1359C12.7274 8.94384 12.2987 9.1359 12.2173 9.1359C12.2033 9.1359 12.1928 9.13243 12.1852 9.1265C12.1835 9.12513 12.1815 9.12308 12.1801 9.12148C12.1522 9.08908 12.177 9.01487 12.177 9.01487C12.177 9.01487 12.3297 8.94661 12.339 8.93021C12.3391 8.93008 12.3396 8.9297 12.3397 8.92958C12.3397 8.92954 12.3397 8.92901 12.3397 8.92895C12.3397 8.92891 12.3397 8.92838 12.3397 8.92832C12.3396 8.92824 12.3391 8.92779 12.339 8.9277C12.3387 8.92721 12.3378 8.92638 12.3372 8.92581C12.3192 8.91208 12.2141 8.87742 12.2003 8.87627C12.2002 8.87626 12.1997 8.87627 12.1997 8.87627C12.1996 8.87624 12.1991 8.87569 12.199 8.87564C12.1989 8.87551 12.1985 8.8752 12.1984 8.87501C12.1983 8.87493 12.1978 8.87451 12.1978 8.87439C12.1898 8.85823 12.1997 8.74332 12.1997 8.74332C12.1997 8.74332 12.3207 8.65312 12.3283 8.61726C12.3284 8.61696 12.3283 8.6163 12.3283 8.61601C12.3284 8.6157 12.3283 8.61503 12.3283 8.61475C12.3283 8.61449 12.3283 8.61377 12.3283 8.6135C12.3283 8.61324 12.3284 8.6125 12.3283 8.61224C12.3283 8.61211 12.3283 8.61174 12.3283 8.61162C12.3282 8.61127 12.3278 8.6107 12.3277 8.61036C12.3276 8.61023 12.3277 8.60985 12.3277 8.60973C12.3276 8.60965 12.3271 8.60921 12.3271 8.60911C12.3269 8.60889 12.3266 8.60867 12.3264 8.60848C12.3262 8.60817 12.326 8.60749 12.3258 8.60722C12.3257 8.60714 12.3253 8.60668 12.3252 8.60659C12.3247 8.6062 12.3238 8.60569 12.3233 8.60534C12.323 8.60521 12.3223 8.60484 12.322 8.60471C12.2914 8.59012 12.165 8.63356 12.165 8.63356C12.165 8.59504 12.165 8.55669 12.165 8.51817C12.165 8.51817 12.2757 8.5062 12.2873 8.4542C12.288 8.45115 12.2877 8.44816 12.2873 8.44542C12.2871 8.44434 12.287 8.4427 12.2867 8.44166C12.286 8.43943 12.2849 8.43678 12.2835 8.43476C12.2833 8.43446 12.2825 8.43381 12.2823 8.43351C12.2569 8.40099 12.1536 8.39651 12.1536 8.39651C12.1342 8.19429 12.1149 7.99229 12.0956 7.79009L12.0956 7.79004ZM11.9922 9.77051V9.85015C11.9922 9.85015 11.8619 9.84351 11.8377 9.82319C11.8376 9.8231 11.8372 9.82266 11.837 9.82256C11.837 9.82247 11.8365 9.82203 11.8364 9.82193C11.8363 9.82185 11.8359 9.82141 11.8358 9.82131C11.8357 9.82122 11.8352 9.82078 11.8351 9.82068C11.8349 9.82037 11.8347 9.81974 11.8345 9.81942C11.8345 9.81934 11.8346 9.8189 11.8345 9.8188C11.8345 9.81871 11.8339 9.81828 11.8339 9.81817C11.8339 9.81808 11.8339 9.81765 11.8339 9.81754C11.8339 9.81733 11.8339 9.81651 11.8339 9.81629C11.8339 9.81616 11.8339 9.81577 11.8339 9.81566C11.8339 9.81553 11.8339 9.81515 11.8339 9.81503C11.834 9.81457 11.8343 9.81363 11.8345 9.81315C11.8346 9.81302 11.8351 9.81264 11.8351 9.81253C11.8355 9.81204 11.836 9.81114 11.8364 9.81064C11.8365 9.81051 11.8369 9.81014 11.837 9.81002C11.8373 9.80976 11.838 9.80902 11.8383 9.80876C11.8392 9.808 11.8403 9.80705 11.8415 9.80625C11.8852 9.77582 11.9725 9.77653 11.9897 9.77176C11.9898 9.77172 11.9902 9.7718 11.9903 9.77176C11.9904 9.77172 11.9908 9.77118 11.9909 9.77113C11.991 9.77109 11.9915 9.77118 11.9916 9.77113C11.9917 9.77109 11.9921 9.77056 11.9922 9.77051L11.9922 9.77051ZM12.177 9.87649C12.1815 9.87649 12.4366 9.87867 12.4589 9.91161C12.4591 9.91187 12.4594 9.91258 12.4595 9.91286C12.4597 9.9133 12.4601 9.91431 12.4602 9.91475C12.4602 9.91505 12.4602 9.9157 12.4602 9.916C12.4602 9.91646 12.4603 9.91742 12.4602 9.91788C12.4601 9.91835 12.4597 9.91929 12.4595 9.91977C12.4401 9.96091 12.182 9.98562 12.182 9.98562L12.177 9.8765L12.177 9.87649ZM12.1625 10.0339C12.1626 10.0339 12.163 10.0339 12.1631 10.0339C12.1632 10.0339 12.1636 10.0339 12.1638 10.0339C12.1789 10.0379 12.2845 10.0413 12.2975 10.059C12.2976 10.0592 12.298 10.0594 12.2981 10.0596C12.2981 10.0597 12.2981 10.0602 12.2981 10.0602C12.2982 10.0604 12.2987 10.0607 12.2987 10.0609C12.2988 10.0609 12.2987 10.0614 12.2987 10.0615C12.2987 10.0616 12.2987 10.062 12.2987 10.0621C12.2987 10.0622 12.2987 10.0627 12.2987 10.0627C12.2987 10.0628 12.2987 10.0633 12.2987 10.0634C12.2987 10.0635 12.2988 10.0639 12.2987 10.064C12.2987 10.0641 12.2981 10.0645 12.2981 10.0646C12.2981 10.0647 12.2981 10.0652 12.2981 10.0652C12.2979 10.0656 12.2977 10.0662 12.2975 10.0665C12.2974 10.0666 12.2969 10.067 12.2968 10.0671C12.2967 10.0672 12.2969 10.0677 12.2968 10.0678C12.2749 10.0944 12.1774 10.1016 12.1726 10.1016C12.1725 10.1016 12.172 10.1016 12.172 10.1016C12.1719 10.1016 12.172 10.101 12.172 10.101C12.1719 10.1009 12.1714 10.1005 12.1713 10.1004C12.1669 10.0914 12.1625 10.0339 12.1625 10.0339L12.1625 10.0339ZM11.3848 10.2434C11.4681 10.2391 11.6334 10.2586 11.9436 10.3437C11.9436 10.3503 11.9499 10.4303 11.9474 10.4434C11.9474 10.4435 11.9468 10.4439 11.9468 10.444C11.9468 10.4441 11.9468 10.4446 11.9468 10.4447C11.9467 10.4447 11.9462 10.4453 11.9461 10.4453C11.9413 10.4429 11.3817 10.283 11.3306 10.2854C11.3292 10.2854 11.3275 10.2855 11.3262 10.2854C11.325 10.2852 11.3234 10.285 11.3224 10.2847C11.321 10.2844 11.3192 10.2834 11.318 10.2829C11.3175 10.2827 11.3165 10.2825 11.3161 10.2822C11.3159 10.2822 11.3156 10.2817 11.3154 10.2816C11.3137 10.2805 11.3121 10.2787 11.311 10.2772C11.3109 10.2771 11.3105 10.2767 11.3104 10.2766C11.3103 10.2763 11.3099 10.2756 11.3098 10.2753C11.3097 10.2752 11.3098 10.2748 11.3098 10.2747C11.3097 10.2745 11.3092 10.2737 11.3091 10.2735C11.3091 10.2733 11.3091 10.273 11.3091 10.2728C11.3091 10.2726 11.3091 10.2719 11.3091 10.2716C11.3091 10.2713 11.3091 10.2706 11.3091 10.2703C11.3092 10.2696 11.3095 10.2685 11.3098 10.2678C11.3105 10.2661 11.3119 10.2639 11.3135 10.2622C11.3221 10.2538 11.3435 10.2455 11.3848 10.2434L11.3848 10.2434ZM11.6749 10.4798C11.7641 10.4766 11.9779 10.5277 11.9897 10.5249C11.9897 10.5419 11.9991 10.622 11.9884 10.6384C11.9883 10.6386 11.9879 10.6389 11.9878 10.6391C11.9877 10.6392 11.9873 10.6396 11.9871 10.6397C11.987 10.6398 11.9866 10.6402 11.9865 10.6403C11.9863 10.6405 11.9855 10.6409 11.9852 10.641C11.9851 10.641 11.9848 10.6409 11.9846 10.641C11.9844 10.641 11.9836 10.641 11.9834 10.641C11.9832 10.6409 11.9829 10.641 11.9827 10.641C11.9646 10.6364 11.6492 10.5368 11.6371 10.4961C11.6369 10.4954 11.6371 10.4942 11.6371 10.4936C11.6372 10.4922 11.6379 10.4904 11.639 10.4892C11.6391 10.4891 11.6395 10.4887 11.6396 10.4886C11.6398 10.4884 11.6401 10.4881 11.6403 10.4879C11.6463 10.4832 11.6588 10.4804 11.6749 10.4798L11.6749 10.4798ZM12.5529 10.6993C12.6381 10.6976 12.6982 10.7049 12.6759 10.7306C12.615 10.8008 12.1946 10.8586 12.1946 10.8586L12.1871 10.7306C12.1961 10.7293 12.4097 10.7021 12.5529 10.6993H12.5529ZM11.3495 11.0981C11.421 11.0943 11.5875 11.1334 11.9581 11.2894L11.9607 11.3816C11.9607 11.3816 11.3329 11.1923 11.311 11.1608C11.3003 11.1454 11.2802 11.1018 11.3495 11.0981L11.3495 11.0981ZM12.5794 11.2355C12.5985 11.2345 12.6119 11.2364 12.6166 11.2411C12.6167 11.2412 12.6171 11.2416 12.6172 11.2417C12.6175 11.2422 12.6177 11.2432 12.6178 11.2436C12.6179 11.2441 12.6185 11.245 12.6185 11.2455C12.6182 11.2482 12.6162 11.2517 12.6128 11.2555C12.5544 11.3209 12.2407 11.386 12.2407 11.386C12.2407 11.386 12.2407 11.3037 12.2407 11.3013C12.2407 11.3013 12.2412 11.3013 12.2413 11.3013C12.2556 11.3008 12.4859 11.2402 12.5794 11.2355L12.5794 11.2355ZM11.2032 11.2468C11.2969 11.2418 11.5085 11.2912 11.9827 11.5145C11.9827 11.5169 11.987 11.5939 11.9853 11.6011C11.9852 11.6011 11.9847 11.6011 11.9846 11.6011C11.9565 11.5921 11.1313 11.3038 11.1313 11.3038C11.1304 11.3007 11.118 11.2513 11.2032 11.2468L11.2032 11.2468ZM12.7742 11.6074C12.7982 11.6064 12.814 11.6084 12.8178 11.6136C12.8181 11.6142 12.8184 11.6155 12.8184 11.6162C12.8183 11.6187 12.8162 11.6219 12.8121 11.6256C12.7373 11.6928 12.2602 11.7742 12.2432 11.7754C12.2431 11.7754 12.2426 11.7755 12.2426 11.7754C12.2425 11.7754 12.242 11.7755 12.2419 11.7754C12.2419 11.7754 12.2414 11.7749 12.2413 11.7748C12.2411 11.7746 12.2408 11.7739 12.2407 11.7736C12.2406 11.7734 12.2407 11.773 12.2407 11.7729C12.2406 11.7727 12.2401 11.772 12.24 11.7717C12.237 11.7561 12.2469 11.7016 12.2476 11.6939C12.2476 11.6938 12.2476 11.6934 12.2476 11.6933C12.2476 11.6933 12.2482 11.6933 12.2482 11.6933C12.2483 11.6933 12.2488 11.6939 12.2489 11.6939C12.249 11.6939 12.2494 11.6939 12.2495 11.6939C12.28 11.6934 12.6457 11.6127 12.7742 11.6074H12.7742ZM11.3716 11.8175C11.5136 11.8102 11.944 12.0064 11.9651 12.0125C11.9651 12.0125 11.9657 12.0125 11.9657 12.0125C11.9635 12.0213 11.9631 12.0921 11.9613 12.1034C11.9613 12.1037 11.9613 12.1045 11.9613 12.1047C11.9613 12.1047 11.9607 12.1047 11.9607 12.1047C11.9491 12.0985 11.3592 11.8551 11.3331 11.8745C11.3169 11.8362 11.3337 11.8194 11.3716 11.8175L11.3716 11.8175ZM12.6405 11.8689C12.6701 11.8676 12.6917 11.8689 12.6986 11.8726C12.6994 11.8732 12.7002 11.8739 12.7005 11.8745C12.7005 11.8746 12.7004 11.875 12.7005 11.8752C12.7005 11.8753 12.7005 11.8757 12.7005 11.8758C12.7004 11.876 12.7006 11.8768 12.7005 11.877C12.7004 11.8772 12.6999 11.8775 12.6998 11.8777C12.6994 11.8782 12.6986 11.8789 12.6979 11.8795C12.6541 11.9183 12.2476 11.9981 12.2476 11.9981C12.2476 11.9981 12.2457 11.9232 12.2457 11.9159C12.2573 11.9135 12.5197 11.8742 12.6406 11.8689L12.6405 11.8689ZM12.6077 12.1279C12.6364 12.1269 12.6566 12.1286 12.6614 12.1335L12.662 12.1342C12.6621 12.1344 12.6619 12.1352 12.662 12.1354C12.662 12.1355 12.6626 12.1359 12.6626 12.136C12.6626 12.1362 12.662 12.1365 12.662 12.1367C12.6619 12.1369 12.6621 12.1376 12.662 12.1379C12.6619 12.138 12.6614 12.1384 12.6614 12.1385C12.661 12.1391 12.6606 12.1398 12.6601 12.1404C12.6597 12.1409 12.6587 12.1419 12.6582 12.1423C12.6143 12.18 12.2697 12.2521 12.2697 12.2521C12.2697 12.2521 12.2602 12.1698 12.2602 12.1674C12.2698 12.1676 12.5002 12.1314 12.6077 12.1279L12.6077 12.1279ZM11.1534 12.1486C11.2365 12.1433 11.4426 12.1774 11.9512 12.3612L11.9682 12.4603C11.9682 12.4603 11.1213 12.1884 11.0972 12.1799C11.0973 12.1799 11.0972 12.1794 11.0972 12.1793C11.0972 12.1788 11.0971 12.1775 11.0972 12.1762C11.0975 12.1737 11.0988 12.1697 11.1016 12.1661C11.1076 12.1588 11.1212 12.1506 11.1534 12.1486L11.1534 12.1486ZM12.2691 12.3637C12.2793 12.3658 12.4213 12.3705 12.4475 12.3925C12.4477 12.3926 12.4481 12.3931 12.4482 12.3932C12.4483 12.3932 12.4487 12.3937 12.4488 12.3938C12.4489 12.3939 12.4494 12.3943 12.4494 12.3944C12.4497 12.3948 12.4499 12.3953 12.4501 12.3957C12.4501 12.3958 12.4507 12.3962 12.4507 12.3963C12.4509 12.3968 12.4512 12.3977 12.4513 12.3982C12.4514 12.3983 12.4513 12.3987 12.4513 12.3988C12.4514 12.3989 12.4513 12.3993 12.4513 12.3994C12.4513 12.3997 12.4514 12.4004 12.4513 12.4007C12.4513 12.4008 12.4514 12.4012 12.4513 12.4013C12.4513 12.4016 12.4508 12.4023 12.4507 12.4026C12.4507 12.4027 12.4508 12.4031 12.4507 12.4032C12.4506 12.4035 12.4502 12.4042 12.4501 12.4045C12.4282 12.4383 12.2798 12.4509 12.2798 12.4509C12.2798 12.4509 12.2725 12.3845 12.2691 12.3637L12.2691 12.3637ZM12.6128 12.5568C12.6459 12.556 12.6696 12.5598 12.6746 12.5694C12.6774 12.5759 12.672 12.5854 12.6563 12.5982C12.5347 12.6974 12.2697 12.7168 12.2697 12.7168V12.6076C12.2697 12.6076 12.2702 12.6076 12.2703 12.6076C12.2854 12.6059 12.503 12.5595 12.6128 12.5568H12.6128ZM12.9502 12.6584C12.9922 12.6568 13.0103 12.6638 13.0158 12.6735C13.0163 12.6743 13.0168 12.6757 13.0171 12.6766C13.0175 12.6783 13.0179 12.6805 13.0177 12.6823C13.0164 12.6947 13.0028 12.7096 12.9925 12.7193C12.9511 12.758 12.2918 12.9657 12.2918 12.9657C12.2918 12.9657 12.2868 12.8279 12.2893 12.8158C12.6747 12.6997 12.8633 12.6617 12.9502 12.6584L12.9502 12.6584ZM12.5239 13.0485C12.5658 13.047 12.5986 13.0494 12.6084 13.0592C12.609 13.0598 12.6099 13.061 12.6103 13.0617C12.6105 13.0621 12.6108 13.0631 12.6109 13.0636C12.611 13.064 12.6109 13.0649 12.6109 13.0654C12.6109 13.0663 12.6111 13.0677 12.6109 13.0686C12.6104 13.0704 12.6092 13.0727 12.6078 13.0749C12.5513 13.1299 12.2773 13.1382 12.2773 13.1382V13.0698C12.3287 13.0681 12.4433 13.0515 12.5239 13.0485L12.5239 13.0485ZM12.7982 13.1608C12.8113 13.1605 12.8192 13.1626 12.8203 13.1664C12.8203 13.1667 12.8203 13.1673 12.8203 13.1677C12.8196 13.1709 12.8158 13.1757 12.8077 13.1815C12.6982 13.2589 12.2867 13.3382 12.2867 13.3382C12.2867 13.3382 12.2918 13.2841 12.2943 13.2711C12.3057 13.271 12.6998 13.1632 12.7982 13.1608L12.7982 13.1608ZM13.0291 13.2467C13.0775 13.2462 13.1145 13.2533 13.1356 13.2686C13.1357 13.2686 13.1362 13.2686 13.1363 13.2686C13.1363 13.2687 13.1363 13.2692 13.1363 13.2693C13.1363 13.2693 13.1363 13.2698 13.1363 13.2699C13.1363 13.2701 13.1363 13.2709 13.1363 13.2711C13.1342 13.2861 13.1034 13.3567 12.995 13.3872C12.8598 13.3752 12.2861 13.5438 12.2747 13.5464C12.2747 13.5464 12.2741 13.5465 12.2741 13.5464C12.2741 13.5462 12.2741 13.5455 12.2741 13.5452C12.2738 13.5344 12.2817 13.4762 12.2817 13.4762C12.4794 13.3586 12.8388 13.2485 13.029 13.2467L13.0291 13.2467ZM11.5602 13.5778C11.5614 13.5778 11.5626 13.5778 11.5639 13.5778C11.8121 13.6044 11.9048 13.6968 11.931 13.734C11.8815 13.8203 11.4893 13.6267 11.5305 13.5853C11.5352 13.5811 11.545 13.5781 11.5602 13.5778L11.5602 13.5778ZM12.9824 13.5941C12.9922 13.5937 13.0012 13.5957 13.0076 13.5997C13.0102 13.6015 13.0128 13.604 13.0146 13.6066C13.0169 13.6105 13.0185 13.6157 13.019 13.6217C12.993 13.6615 12.859 13.6441 12.8506 13.643C12.8573 13.6406 12.9347 13.5959 12.9824 13.5941H12.9824ZM12.4507 13.8625C12.4691 13.8618 12.4844 13.8636 12.493 13.8688C12.494 13.8694 12.4953 13.8705 12.4961 13.8713C12.4964 13.8716 12.4971 13.8723 12.4974 13.8725C12.4977 13.873 12.4984 13.874 12.4986 13.8744C12.4989 13.8749 12.4991 13.8758 12.4993 13.8763C12.5008 13.881 12.5002 13.8875 12.4961 13.8951C12.4572 13.9677 12.2867 13.9409 12.2867 13.9409V13.8901C12.2868 13.8901 12.2873 13.8901 12.2874 13.8901C12.297 13.8909 12.3909 13.865 12.4507 13.8625L12.4507 13.8625ZM11.4466 14.0538C11.4991 14.0512 11.5449 14.0854 11.593 14.1127C11.7 14.091 11.9197 14.1297 11.9197 14.1297V14.2262C11.9197 14.2263 11.9192 14.2268 11.919 14.2269C11.9189 14.2269 11.9185 14.2268 11.9184 14.2269C11.8984 14.2303 11.641 14.2192 11.5835 14.183C11.5366 14.183 11.4039 14.1133 11.3937 14.0776C11.3936 14.0773 11.3931 14.0767 11.393 14.0764C11.3929 14.0759 11.3931 14.0749 11.393 14.0745C11.393 14.0742 11.393 14.0735 11.393 14.0732C11.393 14.073 11.393 14.0722 11.393 14.072C11.3931 14.0718 11.393 14.0715 11.393 14.0713C11.3931 14.0711 11.3936 14.0703 11.3937 14.0701C11.3937 14.07 11.3936 14.0696 11.3937 14.0695C11.412 14.0597 11.4299 14.0546 11.4466 14.0538L11.4466 14.0538ZM12.5724 14.1014C12.6127 14.0993 12.6298 14.1117 12.5983 14.156C12.5107 14.2794 12.2842 14.2288 12.2842 14.2288L12.2747 14.1522C12.3546 14.1553 12.5007 14.1053 12.5724 14.1014L12.5724 14.1014ZM11.726 14.3517C11.8176 14.3474 11.9171 14.3836 11.9171 14.3836C11.9195 14.3883 11.9664 14.4802 11.9247 14.511C11.9232 14.5121 11.9215 14.5132 11.9197 14.5141C11.8686 14.5407 11.6243 14.4933 11.61 14.3956C11.6387 14.3654 11.6813 14.3537 11.726 14.3517H11.726ZM10.7819 14.3993C10.8656 14.3943 10.9592 14.4456 10.9698 14.4507C10.97 14.4508 10.9704 14.4507 10.9705 14.4507C10.9705 14.4536 10.9673 14.5436 10.9673 14.5436C10.9673 14.5436 10.8015 14.4976 10.7491 14.405C10.7596 14.4021 10.7708 14.4 10.7819 14.3993H10.7819ZM12.3769 14.4119C12.4704 14.4113 12.5832 14.4331 12.5996 14.4645C12.6027 14.471 12.6017 14.4781 12.5958 14.4852C12.5496 14.5409 12.2867 14.4903 12.2867 14.4903V14.4225C12.3101 14.4157 12.3423 14.4121 12.3769 14.4119L12.3769 14.4119Z" fill="#007934"/>
</g>
<defs>
<clipPath id="clip0_1692_54079">
<rect x="2.04688" y="5.46338" width="19.9495" height="13.2997" rx="1" fill="white"/>
</clipPath>
</defs>
</svg>
