<svg width="24" height="24" viewBox="0 0 24 24" fill="none" xmlns="http://www.w3.org/2000/svg">
<path d="M2.87604 18.1159C2.92198 17.7024 2.94496 17.4957 3.00751 17.3025C3.06301 17.131 3.14143 16.9679 3.24064 16.8174C3.35246 16.6478 3.49955 16.5008 3.79373 16.2066L17 3.0003C18.1046 1.89573 19.8955 1.89573 21 3.0003C22.1046 4.10487 22.1046 5.89573 21 7.0003L7.79373 20.2066C7.49955 20.5008 7.35245 20.6479 7.18289 20.7597C7.03245 20.8589 6.86929 20.9373 6.69785 20.9928C6.5046 21.0553 6.29786 21.0783 5.88437 21.1243L2.5 21.5003L2.87604 18.1159Z" stroke="#1C1D20" stroke-width="1.5" stroke-linecap="round" stroke-linejoin="round"/>
</svg>
