<svg width="24" height="24" viewBox="0 0 24 24" fill="none" xmlns="http://www.w3.org/2000/svg">
<path d="M3.38394 5.66687C2.6276 4.82155 2.24943 4.39889 2.23516 4.03968C2.22277 3.72764 2.35687 3.42772 2.59768 3.22889C2.87489 3 3.44203 3 4.57633 3H19.4193C20.5536 3 21.1207 3 21.3979 3.22889C21.6387 3.42772 21.7728 3.72764 21.7604 4.03968C21.7462 4.39889 21.368 4.82155 20.6116 5.66687L14.9054 12.0444C14.7546 12.2129 14.6793 12.2972 14.6255 12.3931C14.5778 12.4781 14.5428 12.5697 14.5217 12.6648C14.4978 12.7721 14.4978 12.8852 14.4978 13.1113V18.4584C14.4978 18.6539 14.4978 18.7517 14.4663 18.8363C14.4384 18.911 14.3931 18.9779 14.334 19.0315C14.2673 19.0922 14.1765 19.1285 13.9949 19.2012L10.5949 20.5612C10.2274 20.7082 10.0436 20.7817 9.89607 20.751C9.76706 20.7242 9.65385 20.6476 9.58104 20.5377C9.49779 20.4122 9.49779 20.2142 9.49779 19.8184V13.1113C9.49779 12.8852 9.49779 12.7721 9.47391 12.6648C9.45274 12.5697 9.41776 12.4781 9.37008 12.3931C9.31633 12.2972 9.24095 12.2129 9.09018 12.0444L3.38394 5.66687Z" stroke="#1C1D20" stroke-width="1.5" stroke-linecap="round" stroke-linejoin="round"/>
</svg>
