<svg width="24" height="24" viewBox="0 0 24 24" fill="none" xmlns="http://www.w3.org/2000/svg">
<path d="M11.223 2.43225C11.5066 2.2747 11.6484 2.19592 11.7985 2.16503C11.9315 2.1377 12.0685 2.1377 12.2015 2.16503C12.3516 2.19592 12.4934 2.2747 12.777 2.43225L20.177 6.54337C20.4766 6.70977 20.6263 6.79297 20.7354 6.91131C20.8318 7.016 20.9049 7.14008 20.9495 7.27525C21 7.42805 21 7.59937 21 7.94202V16.0591C21 16.4018 21 16.5731 20.9495 16.7259C20.9049 16.8611 20.8318 16.9851 20.7354 17.0898C20.6263 17.2082 20.4766 17.2914 20.177 17.4578L12.777 21.5689C12.4934 21.7264 12.3516 21.8052 12.2015 21.8361C12.0685 21.8634 11.9315 21.8634 11.7985 21.8361C11.6484 21.8052 11.5066 21.7264 11.223 21.5689L3.82297 17.4578C3.52345 17.2914 3.37369 17.2082 3.26463 17.0898C3.16816 16.9851 3.09515 16.8611 3.05048 16.7259C3 16.5731 3 16.4018 3 16.0591V7.94202C3 7.59937 3 7.42805 3.05048 7.27525C3.09515 7.14008 3.16816 7.016 3.26463 6.91131C3.37369 6.79297 3.52345 6.70977 3.82297 6.54337L11.223 2.43225Z" stroke="#1C1D20" stroke-width="1.5" stroke-linecap="round" stroke-linejoin="round"/>
<path fill-rule="evenodd" clip-rule="evenodd" d="M11.9966 9.06848C10.9969 7.89977 9.32987 7.58539 8.07735 8.65558C6.82482 9.72576 6.64848 11.5151 7.6321 12.7808C8.26211 13.5915 9.87558 15.0948 10.9542 16.0709C11.3127 16.3953 11.4919 16.5575 11.7066 16.6225C11.8911 16.6785 12.102 16.6785 12.2866 16.6225C12.5012 16.5575 12.6805 16.3953 13.0389 16.0709C14.1176 15.0948 15.731 13.5915 16.3611 12.7808C17.3447 11.5151 17.1899 9.71451 15.9158 8.65558C14.6417 7.59665 12.9963 7.89977 11.9966 9.06848Z" stroke="#1C1D20" stroke-width="1.5" stroke-linecap="round" stroke-linejoin="round"/>
</svg>
