<svg width="24" height="24" viewBox="0 0 24 24" fill="none" xmlns="http://www.w3.org/2000/svg">
<path fill-rule="evenodd" clip-rule="evenodd" d="M12 2.75024C6.892 2.75024 2.75 6.89124 2.75 12.0002C2.75 17.1082 6.892 21.2502 12 21.2502C17.108 21.2502 21.25 17.1082 21.25 12.0002C21.25 6.89124 17.108 2.75024 12 2.75024Z" stroke="#1C1D20" stroke-width="1.5" stroke-linecap="round" stroke-linejoin="round"/>
<path d="M7.96094 10C7.96094 10.4142 8.29672 10.75 8.71094 10.75C9.12515 10.75 9.46094 10.4142 9.46094 10H7.96094ZM11.7109 6.25C9.63922 6.25 7.96094 7.92829 7.96094 10H9.46094C9.46094 8.75671 10.4677 7.75 11.7109 7.75V6.25ZM13.2109 13.522C13.2109 13.0988 13.4302 12.9 14.0449 12.4245C14.6055 11.9908 15.4609 11.3316 15.4609 10H13.9609C13.9609 10.5434 13.6914 10.8015 13.127 11.2381C12.6167 11.6329 11.7109 12.2576 11.7109 13.522H13.2109ZM15.4609 10C15.4609 7.92829 13.7827 6.25 11.7109 6.25V7.75C12.9542 7.75 13.9609 8.75671 13.9609 10H15.4609ZM11.7109 13.522V14.5H13.2109V13.522H11.7109Z" fill="#1C1D20"/>
<rect x="11.9727" y="15.8457" width="1" height="1" rx="0.5" fill="#D9D9D9" stroke="#1C1D20"/>
</svg>
