<svg width="24" height="24" viewBox="0 0 24 24" fill="none" xmlns="http://www.w3.org/2000/svg">
<path d="M3 10.5638C3 9.98948 3 9.7023 3.07403 9.43783C3.1396 9.20356 3.24737 8.98322 3.39203 8.78764C3.55534 8.56683 3.78202 8.39052 4.23539 8.0379L11.0177 2.76278C11.369 2.48953 11.5447 2.3529 11.7387 2.30038C11.9098 2.25404 12.0902 2.25404 12.2613 2.30038C12.4553 2.3529 12.631 2.48953 12.9823 2.76278L19.7646 8.03791C20.218 8.39052 20.4447 8.56683 20.608 8.78764C20.7526 8.98322 20.8604 9.20356 20.926 9.43783C21 9.7023 21 9.98948 21 10.5638V17.7988C21 18.9189 21 19.4789 20.782 19.9067C20.5903 20.2831 20.2843 20.589 19.908 20.7808C19.4802 20.9988 18.9201 20.9988 17.8 20.9988H6.2C5.07989 20.9988 4.51984 20.9988 4.09202 20.7808C3.71569 20.589 3.40973 20.2831 3.21799 19.9067C3 19.4789 3 18.9189 3 17.7988V10.5638Z" stroke="#1C1D20" stroke-width="1.5" stroke-linecap="round" stroke-linejoin="round"/>
</svg>
