<svg width="24" height="24" viewBox="0 0 24 24" fill="none" xmlns="http://www.w3.org/2000/svg">
<path d="M6 17.0008C6 17.3521 6 17.5278 6.01567 17.6805C6.14575 18.9482 7.0626 19.9955 8.30206 20.292C8.45134 20.3277 8.6255 20.3509 8.97368 20.3973L15.5656 21.2762C17.442 21.5264 18.3803 21.6515 19.1084 21.362C19.7478 21.1078 20.2803 20.6415 20.6168 20.0414C21 19.3579 21 18.4114 21 16.5183V7.48329C21 5.59025 21 4.64373 20.6168 3.9602C20.2803 3.36009 19.7478 2.89386 19.1084 2.63965C18.3803 2.35011 17.442 2.47521 15.5656 2.7254L8.97368 3.60432C8.62546 3.65075 8.45135 3.67397 8.30206 3.70968C7.0626 4.00617 6.14575 5.05339 6.01567 6.32116C6 6.47386 6 6.64951 6 7.00082M12 8.00082L16 12.0008M16 12.0008L12 16.0008M16 12.0008H3" stroke="#1C1D20" stroke-width="1.5" stroke-linecap="round" stroke-linejoin="round"/>
</svg>
