<svg width="24" height="24" viewBox="0 0 24 24" fill="none" xmlns="http://www.w3.org/2000/svg">
<path d="M8.3756 15.6172L2.71875 21.274M11.6933 6.64267L10.1324 8.20356C10.0051 8.33088 9.94142 8.39454 9.86889 8.44513C9.80451 8.49003 9.73506 8.52719 9.66199 8.55585C9.57967 8.58814 9.49139 8.6058 9.31482 8.64111L5.65036 9.37401C4.69805 9.56447 4.2219 9.6597 3.99914 9.91075C3.80507 10.1295 3.71645 10.4222 3.75661 10.7118C3.8027 11.0442 4.14606 11.3876 4.83277 12.0743L11.9185 19.16C12.6052 19.8468 12.9486 20.1901 13.281 20.2362C13.5707 20.2764 13.8634 20.1877 14.0821 19.9937C14.3331 19.7709 14.4283 19.2948 14.6188 18.3425L15.3517 14.678C15.387 14.5014 15.4047 14.4131 15.437 14.3308C15.4656 14.2578 15.5028 14.1883 15.5477 14.1239C15.5983 14.0514 15.6619 13.9877 15.7893 13.8604L17.3501 12.2995C17.4316 12.2181 17.4723 12.1774 17.517 12.1419C17.5567 12.1103 17.5988 12.0818 17.6429 12.0566C17.6925 12.0283 17.7454 12.0056 17.8512 11.9603L20.3456 10.8913C21.0733 10.5794 21.4372 10.4234 21.6024 10.1715C21.747 9.9511 21.7987 9.6826 21.7463 9.42433C21.6864 9.12899 21.4065 8.84907 20.8467 8.28925L15.7036 3.14611C15.1437 2.58629 14.8638 2.30637 14.5685 2.2465C14.3102 2.19414 14.0417 2.24585 13.8214 2.39039C13.5694 2.55566 13.4134 2.91951 13.1016 3.64721L12.0326 6.14157C11.9872 6.24739 11.9645 6.30029 11.9362 6.34991C11.911 6.39398 11.8825 6.43607 11.8509 6.47582C11.8154 6.52056 11.7747 6.56126 11.6933 6.64267Z" stroke="#1C1D20" stroke-width="1.5" stroke-linecap="round" stroke-linejoin="round"/>
</svg>
