<svg width="24" height="24" viewBox="0 0 24 24" fill="none" xmlns="http://www.w3.org/2000/svg">
<path d="M11.9985 15C13.6554 15 14.9985 13.6569 14.9985 12C14.9985 10.3431 13.6554 9 11.9985 9C10.3417 9 8.99854 10.3431 8.99854 12C8.99854 13.6569 10.3417 15 11.9985 15Z" stroke="#1C1D20" stroke-width="1.5" stroke-linecap="round" stroke-linejoin="round"/>
<path d="M9.28762 19.3711L9.87207 20.6856C10.0458 21.0768 10.3293 21.4093 10.6883 21.6426C11.0472 21.8759 11.4662 22.0001 11.8943 22C12.3224 22.0001 12.7413 21.8759 13.1003 21.6426C13.4592 21.4093 13.7428 21.0768 13.9165 20.6856L14.501 19.3711C14.709 18.9047 15.059 18.5159 15.501 18.26C15.9457 18.0034 16.4603 17.8941 16.971 17.9478L18.401 18.1C18.8266 18.145 19.2562 18.0656 19.6376 17.8713C20.0191 17.6771 20.3359 17.3763 20.5498 17.0056C20.764 16.635 20.8661 16.2103 20.8436 15.7829C20.8211 15.3555 20.6751 14.9438 20.4232 14.5978L19.5765 13.4344C19.275 13.0171 19.1139 12.5148 19.1165 12C19.1164 11.4866 19.279 10.9864 19.581 10.5711L20.4276 9.40778C20.6795 9.06175 20.8255 8.65007 20.848 8.22267C20.8705 7.79528 20.7685 7.37054 20.5543 7C20.3404 6.62923 20.0235 6.32849 19.6421 6.13423C19.2607 5.93997 18.8311 5.86053 18.4054 5.90556L16.9754 6.05778C16.4647 6.11141 15.9502 6.00212 15.5054 5.74556C15.0625 5.48825 14.7125 5.09736 14.5054 4.62889L13.9165 3.31444C13.7428 2.92317 13.4592 2.59072 13.1003 2.3574C12.7413 2.12408 12.3224 1.99993 11.8943 2C11.4662 1.99993 11.0472 2.12408 10.6883 2.3574C10.3293 2.59072 10.0458 2.92317 9.87207 3.31444L9.28762 4.62889C9.08055 5.09736 8.73049 5.48825 8.28762 5.74556C7.84284 6.00212 7.32829 6.11141 6.81762 6.05778L5.38318 5.90556C4.95751 5.86053 4.52792 5.93997 4.14649 6.13423C3.76507 6.32849 3.44819 6.62923 3.23429 7C3.02011 7.37054 2.91807 7.79528 2.94055 8.22267C2.96304 8.65007 3.10908 9.06175 3.36095 9.40778L4.20762 10.5711C4.50956 10.9864 4.67216 11.4866 4.67206 12C4.67216 12.5134 4.50956 13.0137 4.20762 13.4289L3.36095 14.5922C3.10908 14.9382 2.96304 15.3499 2.94055 15.7773C2.91807 16.2047 3.02011 16.6295 3.23429 17C3.4484 17.3706 3.76532 17.6712 4.14668 17.8654C4.52805 18.0596 4.95754 18.1392 5.38318 18.0944L6.81318 17.9422C7.32384 17.8886 7.83839 17.9979 8.28318 18.2544C8.7277 18.511 9.07938 18.902 9.28762 19.3711Z" stroke="#1C1D20" stroke-width="1.5" stroke-linecap="round" stroke-linejoin="round"/>
</svg>
