<svg width="25" height="25" viewBox="0 0 25 25" fill="none" xmlns="http://www.w3.org/2000/svg">
<g clip-path="url(#clip0_1692_53993)">
<path d="M22.6038 5.8501H2.6543V19.1498H22.6038V5.8501Z" fill="#F7E017"/>
<path d="M2.6543 8.19922V12.6324L22.6038 14.7105V12.3554L2.6543 8.19922Z" fill="white"/>
<path d="M2.6543 10.5542V12.6323L22.6038 16.7884V14.7103L2.6543 10.5542Z" fill="black"/>
<path d="M12.2942 15.4006C12.0259 15.365 11.78 15.2796 11.6092 15.1627C11.5761 15.1399 11.5449 15.1214 11.54 15.1214C11.535 15.1214 11.531 15.1466 11.531 15.1778C11.531 15.266 11.4955 15.3105 11.4063 15.3336C11.321 15.3558 11.1907 15.3111 11.0851 15.2235C10.9758 15.1327 10.8496 15.0635 10.7428 15.0357C10.6548 15.0127 10.538 15.0165 10.4536 15.0448C10.4144 15.0579 10.3698 15.0765 10.3542 15.086C10.3389 15.0956 10.3215 15.1034 10.316 15.1034C10.301 15.1034 10.3031 15.0085 10.3188 14.9781C10.3394 14.9383 10.3903 14.8991 10.4496 14.8775C10.4795 14.8666 10.504 14.8526 10.504 14.8463C10.504 14.8401 10.4939 14.8172 10.4816 14.7958C10.4414 14.7254 10.4579 14.6572 10.528 14.6036C10.5998 14.5487 10.7213 14.5393 10.8287 14.5802C10.8557 14.5904 10.8809 14.5989 10.8846 14.5989C10.8988 14.5989 10.8902 14.5791 10.8513 14.5224C10.8064 14.4567 10.7975 14.4243 10.803 14.3461C10.8102 14.2472 10.8909 14.1663 10.9897 14.1591C11.0703 14.1533 11.1205 14.1804 11.2395 14.2938C11.5949 14.6327 11.9813 14.8195 12.4321 14.87C12.5458 14.8828 12.7747 14.876 12.909 14.8558C13.3145 14.7947 13.7231 14.5907 14.0422 14.2902C14.1306 14.2069 14.1732 14.1849 14.2456 14.1846C14.3087 14.1843 14.3529 14.2047 14.3981 14.2546C14.4392 14.3003 14.4532 14.3437 14.4488 14.4131C14.4459 14.4575 14.4387 14.4794 14.4122 14.5225C14.3731 14.5861 14.3798 14.5919 14.4571 14.562C14.5616 14.5213 14.6903 14.5401 14.7597 14.6061C14.8208 14.6641 14.8266 14.7222 14.7791 14.8009C14.7618 14.8297 14.7476 14.8567 14.7476 14.861C14.7476 14.8689 14.7608 14.8727 14.8243 14.8829C14.9073 14.8962 14.9548 14.9579 14.9548 15.0521C14.9548 15.0804 14.9513 15.1034 14.947 15.1034C14.9429 15.1034 14.9114 15.0919 14.8772 15.0777C14.7805 15.0378 14.7255 15.0276 14.6124 15.0283C14.5264 15.0288 14.4967 15.0328 14.4367 15.0524C14.3449 15.0824 14.2466 15.1404 14.1665 15.2117C14.0783 15.2904 14.0227 15.3152 13.9368 15.3145C13.857 15.3137 13.8024 15.2906 13.7736 15.245C13.7582 15.2206 13.756 15.2058 13.7597 15.1506C13.7622 15.1147 13.7617 15.0854 13.7588 15.0854C13.7557 15.0854 13.7247 15.105 13.6896 15.1293C13.5976 15.1925 13.539 15.2238 13.4337 15.2655C13.1125 15.3925 12.649 15.4475 12.2942 15.4006Z" fill="#CF1126"/>
<path d="M12.4411 14.7833C11.9065 14.732 11.395 14.4536 11.084 14.0121C10.7464 13.5516 10.64 12.9436 10.743 12.3877C10.7978 12.1346 10.9083 11.8813 11.097 11.7011C10.9466 12.0198 10.8958 12.3851 10.976 12.7304C11.1006 13.4198 11.6832 14.0033 12.3802 14.1043C12.6559 14.1841 12.9411 14.0998 13.2045 14.0143C13.7856 13.8095 14.2282 13.258 14.2822 12.6415C14.3284 12.3079 14.2772 11.961 14.1269 11.6589C14.2126 11.7042 14.3207 11.8818 14.3845 12.0012C14.6062 12.4308 14.6163 12.9456 14.4858 13.404C14.3087 13.9873 13.8628 14.4983 13.2733 14.684C13.0057 14.7714 12.7212 14.7981 12.4411 14.7833L12.4411 14.7833Z" fill="#CF1126"/>
<path d="M9.74861 14.0175C9.71358 14.012 9.67495 14.0465 9.68816 14.0826C9.71342 14.119 9.75694 14.1369 9.79621 14.1543C9.89031 14.1921 9.99267 14.2067 10.0937 14.2043C10.0589 14.2042 10.1057 14.2047 10.1187 14.2043C10.1987 14.2045 10.2782 14.1901 10.3534 14.163C10.3953 14.1483 10.4485 14.1349 10.4657 14.0887C10.4824 14.0586 10.4521 14.0285 10.4215 14.0345C10.379 14.0438 10.3392 14.0631 10.297 14.0741C10.2059 14.0998 10.11 14.1097 10.0157 14.102C9.94668 14.0935 9.87983 14.0715 9.816 14.0446C9.79387 14.0348 9.77311 14.0206 9.74861 14.0175Z" fill="#CF1126"/>
<path d="M9.78754 13.8737C9.75213 13.8684 9.72162 13.9091 9.73639 13.9417C9.76362 13.9811 9.80937 14.0021 9.85217 14.0206C9.92659 14.0504 10.0074 14.0628 10.0874 14.0605C10.057 14.0604 10.0978 14.0608 10.1091 14.0605C10.177 14.0605 10.2447 14.0471 10.3075 14.0212C10.346 14.0063 10.393 13.9918 10.409 13.9495C10.4214 13.9263 10.412 13.8925 10.3827 13.8906C10.356 13.8893 10.3329 13.9063 10.3082 13.914C10.2183 13.9511 10.1194 13.9669 10.0226 13.9585C9.96219 13.9507 9.90452 13.9285 9.84978 13.9026C9.82921 13.8927 9.81069 13.8772 9.78754 13.8737Z" fill="#CF1126"/>
<path d="M9.83535 13.7358C9.80499 13.7322 9.78411 13.7664 9.78922 13.7937C9.79375 13.8178 9.8153 13.8339 9.83313 13.8486C9.90697 13.9026 10.0006 13.9256 10.0912 13.9226C10.056 13.9225 10.1384 13.9232 10.1133 13.9225C10.1707 13.9223 10.2274 13.9082 10.2791 13.8834C10.3136 13.8684 10.3541 13.851 10.3657 13.8116C10.3713 13.7933 10.3747 13.7669 10.3541 13.7566C10.3324 13.7445 10.3109 13.7631 10.2912 13.7707C10.2248 13.8045 10.1509 13.8233 10.0763 13.8229C10.0119 13.8251 9.95114 13.798 9.89523 13.7688C9.87495 13.7584 9.85822 13.7405 9.83535 13.7358Z" fill="#CF1126"/>
<path d="M9.32615 11.7008C9.28101 11.746 9.31547 11.8293 9.31303 11.8884C9.33642 12.0708 9.36548 12.2554 9.43354 12.427C9.51688 12.5947 9.6939 12.6844 9.80117 12.8326C9.83952 12.904 9.82591 12.9899 9.83399 13.068C9.84033 13.2809 9.83836 13.494 9.83464 13.7069C9.93078 13.7552 10.0352 13.8037 10.1458 13.7852C10.2113 13.7695 10.333 13.7598 10.3466 13.6945C10.3413 13.3273 10.3379 12.96 10.333 12.5929C10.2957 12.4804 10.1813 12.4222 10.0957 12.3502C10.025 12.2806 9.95929 12.2056 9.8991 12.1271C9.86277 12.0659 9.7208 12.0439 9.77216 12.1504C9.80228 12.2426 9.87913 12.3112 9.89837 12.4081C9.90258 12.4612 9.96596 12.5589 9.91186 12.5898C9.87744 12.5313 9.82758 12.4815 9.76385 12.4519C9.70244 12.4061 9.60092 12.387 9.57875 12.3061C9.56248 12.1914 9.50372 12.0875 9.4279 12.0015C9.44744 11.8985 9.42797 11.7696 9.3389 11.7037L9.32615 11.7008Z" fill="#CF1126"/>
<path d="M9.46346 11.7214C9.4224 11.7281 9.4238 11.7804 9.4428 11.8079C9.463 11.8673 9.46851 11.9318 9.45757 11.9937C9.53055 12.0791 9.58707 12.1813 9.60411 12.2935C9.60452 12.3357 9.6489 12.3497 9.67767 12.3705C9.74516 12.4135 9.82105 12.4446 9.88115 12.4984C9.8938 12.5119 9.90334 12.5265 9.89441 12.4989C9.88503 12.4636 9.8802 12.4247 9.85255 12.398C9.81466 12.3572 9.76734 12.3209 9.71215 12.3085C9.70755 12.2515 9.6804 12.1991 9.65532 12.1487C9.62752 12.1005 9.59847 12.0488 9.55084 12.0176C9.55275 11.9331 9.55137 11.8444 9.51501 11.7665C9.50435 11.7464 9.48864 11.7226 9.46347 11.7214H9.46346Z" fill="#CF1126"/>
<path d="M9.57832 11.7551C9.54972 11.7636 9.55519 11.7989 9.56425 11.8205C9.57795 11.8803 9.58009 11.942 9.57897 12.0031C9.6315 12.0447 9.66436 12.105 9.69428 12.1637C9.71303 12.2029 9.73081 12.2434 9.738 12.2865C9.78062 12.3006 9.81791 12.3273 9.85122 12.3569C9.83802 12.3169 9.80859 12.286 9.78881 12.2496C9.76731 12.2116 9.74677 12.1721 9.73767 12.1291C9.69669 12.0854 9.67411 12.0234 9.68307 11.9635C9.68491 11.8973 9.66354 11.8289 9.61925 11.7791C9.6081 11.7681 9.59478 11.7559 9.57832 11.7551Z" fill="#CF1126"/>
<path d="M9.70898 11.7738C9.69343 11.7766 9.68397 11.7914 9.67564 11.8034C9.67242 11.8155 9.68725 11.8285 9.68961 11.8417C9.7078 11.8873 9.71466 11.9373 9.70923 11.9861C9.70803 12.0208 9.72044 12.0547 9.7381 12.084C9.7432 12.0624 9.76327 12.0468 9.78503 12.0447C9.79294 12.0433 9.80457 12.0473 9.79996 12.0352C9.79444 11.9689 9.78433 11.9022 9.76116 11.8396C9.75217 11.8172 9.74197 11.7936 9.72259 11.7783C9.71866 11.7755 9.71396 11.7731 9.70898 11.7738Z" fill="#CF1126"/>
<path d="M15.5121 14.0175C15.5471 14.012 15.5857 14.0465 15.5725 14.0826C15.5473 14.119 15.5037 14.1369 15.4645 14.1543C15.3704 14.1921 15.268 14.2067 15.167 14.2043C15.2018 14.2042 15.155 14.2047 15.142 14.2043C15.062 14.2045 14.9824 14.1901 14.9072 14.163C14.8654 14.1483 14.8121 14.1349 14.795 14.0887C14.7783 14.0586 14.8086 14.0285 14.8391 14.0345C14.8817 14.0438 14.9215 14.0631 14.9637 14.0741C15.0548 14.0998 15.1507 14.1097 15.245 14.102C15.314 14.0935 15.3809 14.0715 15.4447 14.0446C15.4668 14.0348 15.4876 14.0206 15.5121 14.0175Z" fill="#CF1126"/>
<path d="M15.4731 13.8737C15.5085 13.8684 15.5391 13.9091 15.5243 13.9417C15.4971 13.9811 15.4513 14.0021 15.4085 14.0206C15.3341 14.0504 15.2533 14.0628 15.1733 14.0605C15.2037 14.0604 15.1629 14.0608 15.1516 14.0605C15.0836 14.0605 15.016 14.0471 14.9531 14.0212C14.9147 14.0063 14.8677 13.9918 14.8517 13.9495C14.8392 13.9263 14.8487 13.8925 14.878 13.8906C14.9047 13.8893 14.9278 13.9063 14.9525 13.914C15.0423 13.9511 15.1412 13.9669 15.2381 13.9585C15.2985 13.9507 15.3562 13.9285 15.4109 13.9026C15.4315 13.8927 15.45 13.8772 15.4731 13.8737Z" fill="#CF1126"/>
<path d="M15.4253 13.7358C15.4557 13.7322 15.4766 13.7664 15.4715 13.7937C15.4669 13.8178 15.4454 13.8339 15.4275 13.8486C15.3537 13.9026 15.2601 13.9256 15.1695 13.9226C15.2047 13.9225 15.1222 13.9232 15.1474 13.9225C15.09 13.9223 15.0332 13.9082 14.9816 13.8834C14.9471 13.8684 14.9066 13.851 14.895 13.8116C14.8894 13.7933 14.8859 13.7669 14.9066 13.7566C14.9283 13.7445 14.9498 13.7631 14.9695 13.7707C15.0359 13.8045 15.1098 13.8233 15.1844 13.8229C15.2488 13.8251 15.3095 13.798 15.3654 13.7688C15.3857 13.7584 15.4025 13.7405 15.4253 13.7358Z" fill="#CF1126"/>
<path d="M15.9345 11.7008C15.9797 11.746 15.9452 11.8293 15.9476 11.8884C15.9243 12.0708 15.8952 12.2554 15.8271 12.427C15.7438 12.5947 15.5668 12.6844 15.4595 12.8326C15.4212 12.904 15.4348 12.9899 15.4267 13.068C15.4203 13.2809 15.4223 13.494 15.426 13.7069C15.3299 13.7552 15.2255 13.8037 15.1149 13.7852C15.0493 13.7695 14.9277 13.7598 14.914 13.6945C14.9193 13.3273 14.9228 12.96 14.9277 12.5929C14.9649 12.4804 15.0794 12.4222 15.165 12.3502C15.2356 12.2806 15.3014 12.2056 15.3616 12.1271C15.3979 12.0659 15.5399 12.0439 15.4885 12.1504C15.4584 12.2426 15.3815 12.3112 15.3623 12.4081C15.3581 12.4612 15.2947 12.5589 15.3488 12.5898C15.3832 12.5313 15.4331 12.4815 15.4968 12.4519C15.5582 12.4061 15.6598 12.387 15.6819 12.3061C15.6982 12.1914 15.757 12.0875 15.8328 12.0015C15.8132 11.8985 15.8327 11.7696 15.9218 11.7037L15.9345 11.7008Z" fill="#CF1126"/>
<path d="M15.7972 11.7214C15.8383 11.7281 15.8369 11.7804 15.8179 11.8079C15.7977 11.8673 15.7922 11.9318 15.8031 11.9937C15.7301 12.0791 15.6736 12.1813 15.6566 12.2935C15.6562 12.3357 15.6118 12.3497 15.583 12.3705C15.5155 12.4135 15.4396 12.4446 15.3795 12.4984C15.3669 12.5119 15.3573 12.5265 15.3663 12.4989C15.3757 12.4636 15.3805 12.4247 15.4081 12.398C15.446 12.3572 15.4933 12.3209 15.5485 12.3085C15.5531 12.2515 15.5803 12.1991 15.6054 12.1487C15.6332 12.1005 15.6622 12.0488 15.7098 12.0176C15.7079 11.9331 15.7093 11.8444 15.7457 11.7665C15.7563 11.7464 15.772 11.7226 15.7972 11.7214H15.7972Z" fill="#CF1126"/>
<path d="M15.6824 11.7551C15.711 11.7636 15.7055 11.7989 15.6964 11.8205C15.6827 11.8803 15.6806 11.942 15.6817 12.0031C15.6292 12.0447 15.5963 12.105 15.5664 12.1637C15.5476 12.2029 15.5299 12.2434 15.5227 12.2865C15.4801 12.3006 15.4428 12.3273 15.4095 12.3569C15.4227 12.3169 15.4521 12.286 15.4719 12.2496C15.4934 12.2116 15.5139 12.1721 15.523 12.1291C15.564 12.0854 15.5866 12.0234 15.5776 11.9635C15.5758 11.8973 15.5971 11.8289 15.6414 11.7791C15.6526 11.7681 15.6659 11.7559 15.6824 11.7551Z" fill="#CF1126"/>
<path d="M15.5517 11.7738C15.5672 11.7766 15.5767 11.7914 15.585 11.8034C15.5883 11.8155 15.5734 11.8285 15.5711 11.8417C15.5529 11.8873 15.546 11.9373 15.5514 11.9861C15.5526 12.0208 15.5402 12.0547 15.5226 12.084C15.5175 12.0624 15.4974 12.0468 15.4757 12.0447C15.4677 12.0433 15.4561 12.0473 15.4607 12.0352C15.4662 11.9689 15.4763 11.9022 15.4995 11.8396C15.5085 11.8172 15.5187 11.7936 15.5381 11.7783C15.542 11.7755 15.5467 11.7731 15.5517 11.7738Z" fill="#CF1126"/>
<path d="M12.5703 14.1017C12.3834 14.0839 12.2147 13.9477 12.157 13.7692C12.1601 13.7384 12.1984 13.7864 12.2165 13.7896C12.2505 13.8085 12.2872 13.824 12.3263 13.8264C12.3755 13.8476 12.406 13.8961 12.4531 13.9215C12.4749 13.9385 12.5522 13.9719 12.5378 13.9178C12.5197 13.8895 12.5073 13.8537 12.5229 13.8214C12.5491 13.7639 12.5894 13.7138 12.63 13.6658C12.6598 13.6558 12.6798 13.7147 12.7011 13.7345C12.7306 13.7799 12.7662 13.8354 12.7489 13.8918C12.732 13.9127 12.7209 13.9756 12.7661 13.9544C12.8218 13.9299 12.8674 13.8887 12.9136 13.8503C12.9541 13.822 13.0058 13.82 13.0482 13.7953C13.0679 13.7903 13.1088 13.751 13.1173 13.7728C13.0941 13.835 13.0552 13.8907 13.0136 13.942C12.9463 14.0189 12.8552 14.0767 12.7533 14.093C12.6931 14.1041 12.6313 14.1064 12.5703 14.1017Z" fill="#CF1126"/>
<path d="M12.7901 13.8834C12.7942 13.8458 12.7857 13.8075 12.7665 13.7734C12.7371 13.7135 12.6955 13.6603 12.655 13.6077C12.6168 13.5853 12.5956 13.6584 12.5702 13.6793C12.5306 13.7386 12.4809 13.7993 12.4785 13.8738C12.4563 13.9085 12.4147 13.8455 12.3968 13.8248C12.3627 13.7765 12.3368 13.7192 12.341 13.6587C12.337 13.5613 12.3556 13.4642 12.3912 13.3736C12.418 13.2962 12.4615 13.2211 12.4571 13.1366C12.4602 13.073 12.4473 13.0027 12.3957 12.96C12.3467 12.9215 12.4275 12.9133 12.4531 12.9333C12.4971 12.9362 12.5208 13.0088 12.5609 12.9908C12.5769 12.9529 12.5801 12.9077 12.613 12.8782C12.6453 12.8339 12.6791 12.8969 12.6902 12.9265C12.713 12.9524 12.6889 13.0166 12.726 13.0183C12.7704 12.9872 12.8021 12.9349 12.8589 12.9235C12.8819 12.9103 12.9213 12.9217 12.8909 12.9482C12.8489 12.9876 12.8129 13.0369 12.8053 13.0955C12.7924 13.1691 12.8108 13.2436 12.8429 13.3099C12.9045 13.44 12.9521 13.5869 12.921 13.7317C12.9065 13.796 12.8628 13.8515 12.8097 13.8888C12.803 13.8929 12.7924 13.8926 12.7901 13.8834Z" fill="#CF1126"/>
<path d="M12.7236 12.9053C12.7034 12.8689 12.6789 12.8331 12.645 12.8084C12.612 12.8083 12.5916 12.8499 12.5692 12.8717C12.5535 12.901 12.5344 12.9498 12.4957 12.9116C12.4341 12.8757 12.4232 12.797 12.4236 12.7321C12.4198 12.6269 12.4621 12.5288 12.4997 12.433C12.5237 12.373 12.5178 12.3055 12.5032 12.2441C12.4848 12.1735 12.4282 12.1246 12.3846 12.0695C12.3875 12.0483 12.4432 12.0599 12.4642 12.0639C12.5108 12.0757 12.5386 12.1169 12.5733 12.146C12.5979 12.1386 12.5879 12.0887 12.5994 12.0652C12.6002 12.0322 12.6442 11.9887 12.6623 12.036C12.6894 12.066 12.6614 12.1255 12.6965 12.1442C12.7299 12.1319 12.7464 12.0953 12.7778 12.0788C12.8087 12.0578 12.8523 12.0554 12.8855 12.072C12.8972 12.1026 12.849 12.1281 12.835 12.1548C12.7788 12.2241 12.7591 12.3198 12.7832 12.4057C12.8022 12.4731 12.836 12.5361 12.8476 12.6057C12.8617 12.684 12.8612 12.7663 12.8409 12.8435C12.8288 12.8903 12.7883 12.9216 12.7464 12.9411C12.736 12.9315 12.7306 12.9173 12.7236 12.9053L12.7236 12.9053Z" fill="#CF1126"/>
<path d="M12.2824 10.3367C12.2683 10.5183 12.2221 10.6451 12.158 10.7849L12.3118 10.6423L12.4188 10.7694L12.5346 10.6401L12.6528 10.7493L12.7664 10.6357L12.8845 10.7738L12.987 10.6602L13.1607 10.7849C13.0977 10.6451 13.0123 10.5267 13.023 10.3299C12.8547 10.455 12.4546 10.4776 12.2824 10.3367Z" fill="#CF1126"/>
<path d="M12.5881 10.244C12.5263 10.2451 12.4612 10.2459 12.4025 10.2574C12.362 10.2655 12.3251 10.2786 12.2943 10.3004C12.2993 10.4186 12.8624 10.4679 13.0135 10.3026C12.9817 10.2795 12.9429 10.2657 12.9003 10.2574C12.8439 10.2465 12.7815 10.2454 12.7223 10.2444C12.7223 10.2768 12.7226 10.3094 12.7226 10.342L12.5881 10.3415V10.244Z" fill="#CF1126"/>
<path d="M12.6605 9.57227C12.6094 9.57227 12.5716 9.59139 12.5716 9.61411C12.5716 9.63683 12.6094 9.65609 12.6605 9.65609C12.7117 9.65609 12.7492 9.63683 12.7492 9.61411C12.7492 9.59139 12.7117 9.57227 12.6605 9.57227Z" fill="#CF1126"/>
<path fill-rule="evenodd" clip-rule="evenodd" d="M12.6108 9.64071L12.6982 9.64002L12.6983 9.65771L12.6981 9.65762L12.6647 9.98517L12.6992 10.002L12.7 10.3253L12.6108 10.3249V9.64071ZM12.6992 10.002L12.6983 9.65771L13.064 9.84619L12.8311 9.92171L13.0017 10.1498L12.6992 10.002Z" fill="#CF1126"/>
<path d="M12.6981 9.65762L12.6647 9.98517L12.6992 10.002L12.6983 9.65771L12.6981 9.65762Z" fill="#CF1126"/>
<path fill-rule="evenodd" clip-rule="evenodd" d="M12.6517 10.7917L12.7228 10.7355V11.055C12.7169 11.0625 12.71 11.0669 12.7034 11.0669C12.6877 11.0669 12.6865 11.0584 12.6865 10.9505C12.6758 10.9364 12.6254 10.9412 12.6254 10.9412C12.624 11.0077 12.6193 11.0656 12.615 11.0699C12.6124 11.0725 12.6022 11.0667 12.5879 11.0551V10.7436L12.6517 10.7917ZM12.5879 11.0551C12.5771 11.0463 12.5639 11.0342 12.5498 11.0199C12.4533 10.922 12.3442 10.8823 12.1728 10.883C11.9872 10.8839 11.8415 10.9375 11.6629 11.071C11.5695 11.1407 11.4331 11.2102 11.3304 11.2398C11.269 11.2575 11.2384 11.2606 11.1232 11.2603C11.0409 11.2602 10.9726 11.2555 10.9488 11.2484C10.9273 11.2422 10.9074 11.2393 10.9045 11.2422C10.8924 11.2542 10.9539 11.3587 10.9973 11.3998C11.0637 11.4626 11.1098 11.4835 11.1916 11.4885C11.2812 11.4938 11.3289 11.4794 11.499 11.3957C11.6315 11.3306 11.7064 11.306 11.7553 11.3119C11.7933 11.3163 11.7912 11.3354 11.7522 11.3417C11.6653 11.3556 11.6279 11.3691 11.5016 11.432C11.4214 11.472 11.3375 11.5068 11.2951 11.5175C11.2558 11.5275 11.2216 11.5377 11.219 11.5403C11.2162 11.543 11.2219 11.5597 11.2316 11.5776C11.2876 11.6815 11.4615 11.6905 11.5767 11.5955C11.6751 11.5143 11.8399 11.4371 11.9229 11.4335C11.9657 11.4316 11.9798 11.451 11.9414 11.459C11.8206 11.4844 11.6683 11.557 11.588 11.6275C11.5694 11.6437 11.5413 11.6641 11.5256 11.6724C11.51 11.6808 11.4971 11.6919 11.4971 11.6969C11.4971 11.7159 11.5535 11.7691 11.5844 11.7794C11.6281 11.7938 11.7267 11.7856 11.7768 11.7634C11.7991 11.7536 11.8417 11.7232 11.8712 11.6959C11.9716 11.6037 12.1041 11.5175 12.1454 11.5175C12.1773 11.5175 12.1656 11.5342 12.1166 11.559C12.0562 11.5895 11.9344 11.6774 11.8935 11.7199C11.8762 11.7381 11.8489 11.7611 11.8327 11.771C11.7975 11.7929 11.7958 11.8133 11.8263 11.8495C11.8857 11.9203 12.016 11.906 12.1523 11.814C12.176 11.7979 12.2472 11.7321 12.3105 11.6677C12.3899 11.5869 12.4286 11.5534 12.435 11.5597C12.4415 11.5663 12.4296 11.5869 12.3969 11.6263C12.356 11.6753 12.3496 11.6882 12.3507 11.7185C12.3532 11.7806 12.388 11.7997 12.4609 11.7788C12.5062 11.7658 12.512 11.7798 12.48 11.8241C12.4583 11.854 12.4522 11.8719 12.4522 11.9049C12.4522 11.9693 12.4675 12.0019 12.5141 12.036C12.537 12.0529 12.5562 12.0667 12.5568 12.0669C12.5572 12.067 12.5692 12.0487 12.5835 12.0261C12.6245 11.9614 12.6615 11.961 12.7036 12.025C12.7157 12.0432 12.7301 12.058 12.7358 12.058C12.7416 12.058 12.7629 12.0437 12.7833 12.0264C12.8488 11.9703 12.8567 11.8887 12.8033 11.822C12.7674 11.7774 12.776 11.764 12.8307 11.7788C12.8842 11.7932 12.9102 11.7845 12.9259 11.7468C12.9436 11.7043 12.9346 11.6747 12.8878 11.6224C12.85 11.58 12.8385 11.5535 12.858 11.5535C12.8633 11.5535 12.9144 11.6021 12.9717 11.6616C13.1185 11.8139 13.2119 11.8716 13.3316 11.8842C13.3916 11.8906 13.4379 11.8745 13.4658 11.838C13.4933 11.8021 13.4942 11.7825 13.4693 11.7692C13.4588 11.7636 13.427 11.7378 13.3989 11.7117C13.3393 11.657 13.2584 11.6006 13.1797 11.5589C13.1199 11.5272 13.1046 11.5085 13.1386 11.5085C13.1801 11.5085 13.31 11.5919 13.4477 11.7072C13.513 11.7618 13.576 11.7834 13.6485 11.7759C13.7044 11.7701 13.7561 11.7404 13.7766 11.7022C13.789 11.679 13.7887 11.6763 13.773 11.6671C13.7637 11.6616 13.7272 11.6355 13.692 11.6091C13.5778 11.5236 13.4663 11.4704 13.3712 11.4558C13.3431 11.4515 13.3299 11.4449 13.3278 11.4341C13.3173 11.3798 13.5904 11.4815 13.7 11.5726C13.7655 11.6271 13.8063 11.6432 13.8796 11.6434C13.9563 11.6436 14.0107 11.6202 14.0427 11.5729C14.0729 11.5286 14.0719 11.5085 14.0395 11.5085C13.9949 11.5085 13.9196 11.4816 13.7856 11.4179C13.6618 11.3591 13.5729 11.3282 13.5269 11.3282C13.5146 11.3282 13.5063 11.3228 13.5063 11.3148C13.5063 11.276 13.6645 11.3149 13.7969 11.3861C14.0091 11.5006 14.16 11.5011 14.276 11.3878C14.3395 11.3259 14.3935 11.2201 14.3618 11.2201C14.3565 11.2201 14.3232 11.2268 14.2878 11.2348C14.2017 11.2544 14.0339 11.2476 13.9387 11.2206C13.8447 11.1938 13.6855 11.1137 13.6076 11.0539C13.53 10.994 13.4485 10.948 13.3751 10.9222C13.2008 10.8614 12.9838 10.8633 12.8584 10.9269C12.8003 10.9563 12.746 11.0047 12.7313 11.04C12.7289 11.0458 12.726 11.0509 12.7228 11.055V11.1297L12.5879 11.128V11.0551Z" fill="#CF1126"/>
<path d="M12.6254 10.9412C12.624 11.0077 12.6193 11.0656 12.615 11.0699C12.6124 11.0725 12.6022 11.0667 12.5879 11.0551V11.128L12.7228 11.1297V11.055C12.7169 11.0625 12.71 11.0669 12.7034 11.0669C12.6877 11.0669 12.6865 11.0584 12.6865 10.9505C12.6758 10.9364 12.6254 10.9412 12.6254 10.9412Z" fill="#CF1126"/>
<path d="M12.5118 15.3182C12.5671 15.2999 12.5986 15.2664 12.6211 15.2018C12.6324 15.1697 12.64 15.1363 12.638 15.1276C12.6333 15.1069 12.6095 15.108 12.5832 15.1299C12.5652 15.145 12.5629 15.1526 12.5681 15.1834C12.5812 15.261 12.5537 15.2803 12.4068 15.2961C12.3922 15.2976 12.3501 15.2951 12.313 15.2905C12.2432 15.2818 12.2182 15.2887 12.2436 15.3098C12.2512 15.3161 12.2706 15.3247 12.2867 15.3288C12.3259 15.3389 12.4698 15.3321 12.5118 15.3182Z" fill="#F7E017"/>
<path d="M12.8162 15.3053C12.8245 15.2977 12.8531 15.2846 12.8797 15.276C12.9152 15.2646 12.9334 15.2524 12.9484 15.2301C12.9915 15.1659 12.9835 15.1107 12.9201 15.0361C12.8858 14.9957 12.8705 14.9968 12.8431 15.0417C12.8194 15.0805 12.82 15.0829 12.8541 15.0918C12.8719 15.0964 12.8891 15.1096 12.8985 15.1258C12.9357 15.1901 12.9247 15.2298 12.8697 15.2302C12.8198 15.2307 12.8061 15.2377 12.7927 15.27C12.7856 15.2868 12.7799 15.3046 12.7799 15.3098C12.7799 15.3233 12.7988 15.321 12.8162 15.3053Z" fill="#F7E017"/>
<path d="M12.7163 15.2327C12.7257 15.2072 12.7291 15.1614 12.728 15.0678C12.7273 14.9966 12.7245 14.9362 12.7217 14.9334C12.7134 14.9251 12.6724 14.9516 12.667 14.9686C12.6642 14.9775 12.6688 14.998 12.6771 15.0141C12.6899 15.0389 12.6915 15.062 12.6876 15.1592C12.6827 15.2819 12.6907 15.3026 12.7163 15.2327Z" fill="#F7E017"/>
<path d="M12.4819 15.1743C12.4869 15.1514 12.4932 15.1046 12.4962 15.0703C12.4991 15.0361 12.5061 14.9929 12.5117 14.9742C12.5258 14.9262 12.5115 14.9136 12.4737 14.9405L12.4456 14.9606L12.4514 15.0295C12.4568 15.0915 12.447 15.2072 12.4327 15.2521C12.4288 15.264 12.4344 15.261 12.45 15.2427C12.4626 15.228 12.477 15.1971 12.4819 15.1743Z" fill="#F7E017"/>
<path d="M12.2739 15.2077C12.3245 15.1653 12.3187 15.0931 12.3299 15.0342C12.3287 14.995 12.3549 14.9481 12.338 14.9139C12.2907 14.9225 12.2616 14.9673 12.2858 15.0119C12.2878 15.0637 12.286 15.1201 12.2593 15.1659C12.2376 15.1958 12.1687 15.1884 12.1719 15.1459C12.1892 15.0821 12.1127 15.1131 12.0828 15.1299C12.0597 15.1459 12.011 15.1471 12.028 15.1069C12.0168 15.0534 11.9479 15.0869 11.9104 15.0866C11.8751 15.086 11.9075 15.015 11.8568 15.0274C11.7625 15.02 11.6584 15.0283 11.5767 14.9713C11.529 14.9483 11.536 14.8909 11.5609 14.8537C11.5906 14.8029 11.5991 14.7394 11.6463 14.7C11.6929 14.6552 11.6022 14.6741 11.5818 14.6892C11.5363 14.7141 11.5786 14.7782 11.5414 14.8138C11.5196 14.8506 11.491 14.9015 11.4406 14.8945C11.368 14.8808 11.3262 14.8133 11.2741 14.768C11.2295 14.7591 11.2546 14.8404 11.2776 14.8574C11.3232 14.8915 11.3764 14.9164 11.4313 14.9311C11.486 14.9224 11.4877 14.9939 11.5345 15.0052C11.6202 15.0451 11.7157 15.0571 11.8093 15.062C11.846 15.065 11.8253 15.1304 11.8736 15.1175C11.9006 15.1245 11.9616 15.1075 11.9646 15.1388C11.9237 15.1874 12.0039 15.1863 12.0336 15.1776C12.0716 15.1718 12.1201 15.1573 12.1302 15.2094C12.1619 15.2428 12.2201 15.2379 12.2587 15.2187C12.2642 15.2156 12.2693 15.2119 12.2739 15.2077Z" fill="#F7E017"/>
<path d="M11.4459 14.7882C11.4613 14.7687 11.4843 14.7292 11.497 14.7004C11.5096 14.6714 11.5286 14.6386 11.539 14.6274C11.5634 14.601 11.5498 14.5848 11.5105 14.5936C11.4897 14.5981 11.4812 14.6058 11.4778 14.6238C11.466 14.6825 11.4446 14.7427 11.4257 14.7706C11.3913 14.8214 11.3905 14.8234 11.4046 14.8234C11.4119 14.8234 11.4305 14.8076 11.4459 14.7882Z" fill="#F7E017"/>
<path d="M10.9269 14.4629C10.8881 14.4629 10.8864 14.4874 10.9242 14.5006C10.9425 14.507 10.958 14.5223 10.9705 14.5474C11.0074 14.6207 11.029 14.6337 11.1268 14.6422L11.1896 14.6479L11.1926 14.686C11.1941 14.707 11.1991 14.7245 11.204 14.7245C11.2088 14.7245 11.2331 14.714 11.2576 14.7015C11.3036 14.6782 11.3472 14.6239 11.3472 14.5902C11.3472 14.5682 11.3105 14.5444 11.2771 14.5444C11.2623 14.5444 11.234 14.5563 11.2117 14.5725C11.1419 14.6231 11.0672 14.6128 11.0263 14.547C10.9928 14.4927 10.9577 14.4629 10.9269 14.4629ZM11.2658 14.598C11.2843 14.598 11.2889 14.6117 11.2788 14.6379C11.2719 14.6559 11.2493 14.6565 11.2425 14.6387C11.2344 14.6178 11.2457 14.598 11.2658 14.598Z" fill="#F7E017"/>
<path d="M13.8945 14.5128C13.8691 14.5138 13.8616 14.5193 13.8456 14.5431C13.8192 14.5822 13.8166 14.6669 13.8409 14.6968C13.856 14.7154 13.8582 14.7158 13.8902 14.7025C13.9348 14.6838 13.9423 14.6845 13.9422 14.7084C13.9419 14.7697 13.854 14.8877 13.762 14.9505C13.7372 14.9674 13.7151 14.9862 13.7127 14.9925C13.706 15.0099 13.7401 15.006 13.782 14.9847C13.8391 14.9556 13.914 14.8791 13.9448 14.8189C13.9692 14.7708 13.9726 14.7544 13.9755 14.6703C13.9782 14.5929 13.9761 14.5701 13.9629 14.5444C13.9482 14.5154 13.9435 14.5128 13.9067 14.5128C13.9022 14.5128 13.8982 14.5126 13.8945 14.5128ZM13.8975 14.5668C13.9167 14.5668 13.92 14.5711 13.9222 14.5986C13.9241 14.6213 13.9201 14.6351 13.9075 14.6465C13.8903 14.662 13.8889 14.6619 13.8737 14.6387C13.8524 14.606 13.8655 14.5668 13.8975 14.5668Z" fill="#F7E017"/>
<path d="M13.4769 15.1582C13.5579 15.1183 13.6057 15.0734 13.6365 15.0084C13.651 14.9775 13.663 14.9484 13.663 14.9434C13.663 14.9322 13.6231 14.9136 13.5991 14.9136C13.5752 14.9136 13.5704 14.8971 13.5807 14.8516C13.5906 14.8071 13.5786 14.7514 13.559 14.7514C13.552 14.7514 13.5395 14.7618 13.5312 14.7744C13.5184 14.7939 13.5177 14.8022 13.5272 14.8306C13.541 14.8728 13.5301 14.9042 13.4924 14.9311C13.4745 14.9438 13.4647 14.9585 13.4647 14.9728C13.4647 14.9849 13.4662 14.9947 13.468 14.9947C13.4699 14.9947 13.4896 14.9844 13.5118 14.9721L13.5522 14.9495L13.5761 14.9682C13.5891 14.9785 13.5999 14.9952 13.5999 15.0055C13.5999 15.0548 13.4593 15.1377 13.3627 15.1454C13.3113 15.1496 13.3026 15.1478 13.2847 15.1301C13.2701 15.1155 13.266 15.1033 13.2696 15.0861C13.2724 15.073 13.2773 15.049 13.2807 15.0329C13.2895 14.99 13.2711 14.9958 13.2392 15.046C13.2131 15.0874 13.2053 15.1316 13.22 15.1549C13.232 15.1738 13.3121 15.192 13.3688 15.1885C13.4044 15.1865 13.4396 15.1765 13.4769 15.1582Z" fill="#F7E017"/>
<path d="M14.0178 14.8564C14.0688 14.8056 14.0904 14.7436 14.0907 14.6479L14.0908 14.576L14.1329 14.556C14.1877 14.53 14.2395 14.4781 14.2395 14.4493C14.2395 14.4197 14.2263 14.4212 14.2025 14.4535C14.1852 14.4769 14.162 14.491 14.0774 14.53C14.056 14.5398 14.0547 14.5451 14.0498 14.6346C14.0441 14.7378 14.0301 14.7765 13.9725 14.847C13.9372 14.8899 13.9359 14.8956 13.9604 14.8956C13.9706 14.8956 13.9963 14.878 14.0178 14.8564Z" fill="#F7E017"/>
<path d="M13.4625 14.7988C13.4673 14.7839 13.4392 14.7734 13.427 14.7855C13.4219 14.7906 13.4205 14.7995 13.4239 14.8051C13.432 14.818 13.4575 14.8137 13.4625 14.7988Z" fill="#F7E017"/>
<path d="M14.2283 14.6005C14.2333 14.5857 14.205 14.5751 14.1929 14.5872C14.1877 14.5925 14.1863 14.6013 14.1898 14.607C14.1978 14.6199 14.2233 14.6156 14.2283 14.6005Z" fill="#F7E017"/>
<path d="M13.3066 14.0637C13.2868 14.0731 13.2765 14.0945 13.2627 14.1109C13.2528 14.1176 13.2608 14.1239 13.2665 14.1302C13.3014 14.1679 13.3162 14.2187 13.3328 14.2662C13.3491 14.3221 13.3697 14.3822 13.3526 14.4406C13.3459 14.4629 13.3283 14.486 13.3021 14.4786C13.2601 14.476 13.2188 14.4649 13.1767 14.4653C13.1392 14.4673 13.1102 14.5014 13.0719 14.4976C13.0474 14.4993 13.0484 14.4475 13.0257 14.4613C13.0144 14.4883 13.02 14.5184 13.0186 14.547C13.0229 14.551 13.0348 14.5475 13.0419 14.5487H13.1174C13.1227 14.5747 13.122 14.6046 13.1407 14.6253C13.1669 14.6346 13.1964 14.6266 13.2213 14.6164C13.248 14.604 13.2515 14.5719 13.2591 14.5469C13.2671 14.5201 13.3023 14.5271 13.323 14.5166C13.3738 14.5017 13.4071 14.449 13.4041 14.397C13.4008 14.3177 13.3706 14.2432 13.3476 14.1681C13.3361 14.135 13.3281 14.1006 13.3147 14.0683C13.3131 14.0655 13.3099 14.0632 13.3066 14.0637ZM13.1809 14.5171C13.2091 14.5152 13.2214 14.5499 13.2154 14.5729C13.2049 14.6042 13.1664 14.5841 13.1587 14.5616C13.1444 14.5415 13.1532 14.5144 13.1809 14.5171Z" fill="#F7E017"/>
<path d="M12.1362 14.2569C12.1236 14.2566 12.1094 14.2613 12.0954 14.2711C12.0219 14.3227 12.003 14.3836 12.053 14.4075C12.0898 14.4251 12.0805 14.4457 12.0227 14.4747C11.94 14.516 11.867 14.5108 11.7283 14.4535C11.6942 14.4393 11.6853 14.4448 11.6932 14.4759C11.7008 14.5065 11.7288 14.5233 11.7984 14.5391C11.8732 14.5563 11.9637 14.5507 12.0219 14.5257C12.0503 14.5135 12.0839 14.4878 12.1124 14.4569L12.1574 14.4075L12.2098 14.414C12.2743 14.4219 12.2756 14.4226 12.2756 14.4535C12.2756 14.478 12.277 14.4786 12.3363 14.4841C12.3697 14.4873 12.4136 14.4902 12.4341 14.4902C12.4603 14.4903 12.4751 14.4949 12.4838 14.5071C12.4955 14.5233 12.5024 14.5241 12.5999 14.5154C12.6911 14.5071 12.709 14.5078 12.7501 14.5218C12.7794 14.5318 12.8115 14.5358 12.8359 14.5332C12.9057 14.5253 13.002 14.4682 13.016 14.4262C13.0177 14.4211 13.043 14.4121 13.0723 14.4062C13.1428 14.3921 13.1459 14.3767 13.08 14.3685C13.0515 14.3649 13.0087 14.3545 12.9849 14.3451C12.9609 14.3357 12.9282 14.3278 12.9121 14.3278C12.8766 14.3278 12.8432 14.35 12.8432 14.3728C12.8432 14.3878 12.8485 14.3893 12.8905 14.385C12.93 14.381 12.9415 14.3832 12.9623 14.3997C12.976 14.4105 12.9851 14.4233 12.9822 14.4278C12.9729 14.4429 12.8905 14.4805 12.8541 14.4863C12.8297 14.4902 12.81 14.4876 12.7909 14.4777C12.7589 14.4611 12.7118 14.4586 12.7029 14.4729C12.6991 14.4791 12.689 14.4751 12.6752 14.4621L12.6536 14.4417L12.6046 14.4621C12.5549 14.4827 12.5366 14.4819 12.5366 14.4582C12.5366 14.4474 12.5221 14.4461 12.4488 14.4508C12.368 14.4561 12.3595 14.4547 12.3444 14.4378C12.3304 14.4223 12.3302 14.4169 12.3401 14.401C12.3493 14.3863 12.3493 14.3799 12.3406 14.3712C12.3318 14.3624 12.3205 14.3626 12.2886 14.3712C12.2082 14.3927 12.1855 14.3806 12.1855 14.3178C12.1855 14.2801 12.1639 14.2573 12.1362 14.2569ZM12.1162 14.3145C12.1205 14.3145 12.1241 14.3171 12.1297 14.3227C12.1367 14.3297 12.1405 14.3421 12.1374 14.35C12.1302 14.3687 12.0961 14.368 12.0889 14.3491C12.0855 14.34 12.0899 14.3297 12.1002 14.3223C12.1074 14.317 12.1119 14.3144 12.1162 14.3145Z" fill="#F7E017"/>
<path d="M11.9721 14.373C12.021 14.3419 12.0199 14.3443 12.027 14.2581C12.0319 14.1973 12.031 14.1927 12.0145 14.1927C11.9906 14.1927 11.9781 14.219 11.9781 14.2692C11.9781 14.3013 11.9731 14.3158 11.9559 14.3328C11.9152 14.3735 11.814 14.355 11.8013 14.3044C11.797 14.2871 11.8025 14.2714 11.8237 14.2413C11.8679 14.1786 11.858 14.1632 11.8038 14.2109C11.7665 14.2434 11.7599 14.2444 11.7669 14.2163C11.7734 14.1904 11.7599 14.1801 11.7295 14.1877C11.714 14.1916 11.7055 14.2013 11.7018 14.2201C11.6982 14.2386 11.6898 14.2488 11.6751 14.2524C11.6505 14.2587 11.6087 14.2354 11.6087 14.2156C11.6087 14.2009 11.6713 14.1244 11.7517 14.041C11.782 14.0094 11.8068 13.98 11.8068 13.9756C11.8068 13.9712 11.7906 13.9676 11.7708 13.9676C11.7418 13.9676 11.7348 13.9707 11.7348 13.9842C11.7348 13.9933 11.6943 14.0464 11.6447 14.1022C11.5414 14.2186 11.5328 14.2429 11.5839 14.2739C11.625 14.2991 11.6778 14.2972 11.7193 14.2691L11.7528 14.2462V14.2876C11.7528 14.3406 11.7633 14.3595 11.8049 14.3816C11.8571 14.4091 11.9203 14.4058 11.9721 14.373Z" fill="#F7E017"/>
<path d="M14.1414 13.6537C14.1031 13.6766 14.1331 13.7247 14.1389 13.7567C14.1232 13.8002 14.0672 13.812 14.0264 13.8201C13.9686 13.8297 13.9276 13.878 13.9056 13.9294C13.8937 13.9628 13.8649 14.0146 13.8335 13.9637C13.8063 13.9361 13.7562 13.9142 13.724 13.9465C13.6995 13.9698 13.6933 14.0041 13.6842 14.0352C13.6697 14.0113 13.6632 13.9757 13.6326 13.9681C13.5837 13.975 13.6014 14.0366 13.6244 14.062C13.6453 14.0916 13.6653 14.1307 13.6449 14.1659C13.6268 14.2082 13.5644 14.2367 13.5277 14.2005C13.4934 14.1824 13.5163 14.1179 13.4826 14.1143C13.4659 14.1264 13.4645 14.1939 13.4378 14.1573C13.4186 14.126 13.4288 14.0831 13.4052 14.055C13.3774 14.0585 13.355 14.1064 13.3642 14.1322C13.4014 14.1823 13.4167 14.2452 13.4312 14.3049C13.4402 14.3288 13.4298 14.3773 13.4522 14.3868C13.4677 14.3483 13.4533 14.3046 13.4655 14.2658C13.5018 14.2612 13.5422 14.2778 13.5802 14.269C13.6346 14.2619 13.6767 14.216 13.6958 14.1671C13.7016 14.1303 13.6947 14.093 13.6937 14.056C13.7367 14.0626 13.7814 14.0625 13.8227 14.0765C13.8432 14.1079 13.8162 14.152 13.8105 14.1863C13.789 14.2563 13.7341 14.3072 13.6808 14.354C13.6585 14.3672 13.6555 14.4021 13.6884 14.3833C13.7601 14.3526 13.8135 14.2877 13.8443 14.2175C13.8667 14.1634 13.8487 14.1032 13.8633 14.0479C13.8849 14.0064 13.937 14.0151 13.9756 14.0153C14.0155 14.0137 14.0495 13.9673 14.0362 13.9285C14.0235 13.8835 14.0711 13.8618 14.1036 13.8458C14.1467 13.824 14.1798 13.7798 14.1765 13.7299C14.1747 13.7044 14.176 13.6561 14.1414 13.6537ZM13.9886 13.9135C14.0347 13.9258 13.9802 14.014 13.9556 13.9581C13.9481 13.9368 13.966 13.9128 13.9886 13.9135ZM13.7742 13.9767C13.8343 13.9732 13.8127 14.061 13.7619 14.0211C13.7356 14.0079 13.7443 13.9751 13.7742 13.9767Z" fill="#F7E017"/>
<path d="M11.598 14.3159C11.5997 14.3072 11.5953 14.3009 11.5874 14.3009C11.5706 14.3009 11.5605 14.3156 11.5684 14.3284C11.5765 14.3415 11.5946 14.334 11.598 14.3159Z" fill="#F7E017"/>
<path d="M12.3025 14.2372C12.3025 14.2243 12.2976 14.2195 12.2868 14.2215C12.2632 14.226 12.2606 14.2559 12.2837 14.2559C12.2966 14.2559 12.3025 14.2501 12.3025 14.2372Z" fill="#F7E017"/>
<path d="M11.4308 13.8143C11.4027 13.8085 11.385 13.8323 11.3754 13.855C11.3543 13.8903 11.3287 13.9265 11.2909 13.9452C11.2638 13.9527 11.2342 13.9424 11.2108 13.9284C11.1829 13.9145 11.1893 13.881 11.1773 13.8578C11.1571 13.8419 11.1213 13.8646 11.1221 13.8892C11.1199 13.9223 11.1508 13.9414 11.1765 13.9542C11.1983 13.9675 11.2299 13.975 11.2386 14.002C11.238 14.025 11.2473 14.0513 11.2753 14.0424C11.3066 14.0419 11.3147 14.0801 11.302 14.1029C11.2892 14.1287 11.2805 14.1589 11.2866 14.1877C11.3016 14.2003 11.3169 14.1665 11.3277 14.1568C11.3351 14.147 11.3425 14.1372 11.3498 14.1274C11.4052 14.1304 11.4606 14.1374 11.5161 14.1355C11.5556 14.1348 11.5892 14.1104 11.6143 14.0818C11.6499 14.0446 11.679 14.001 11.7196 13.969C11.7485 13.9619 11.733 13.9075 11.7028 13.9232C11.6756 13.9334 11.6671 13.9641 11.6483 13.9837C11.6162 14.0225 11.5835 14.0619 11.543 14.0924C11.5136 14.1046 11.4797 14.0993 11.4495 14.0924C11.4369 14.0813 11.4745 14.0723 11.4798 14.0601C11.4971 14.0428 11.5177 14.0263 11.5278 14.0035C11.5182 13.9825 11.4888 13.9808 11.468 13.9804C11.417 13.9866 11.378 14.0294 11.3264 14.0335C11.2872 14.0348 11.3076 13.9924 11.3253 13.978C11.3598 13.937 11.3971 13.8984 11.4331 13.8587C11.4434 13.8464 11.4804 13.8347 11.4567 13.8174C11.4484 13.8144 11.4395 13.8144 11.4308 13.8143ZM11.4559 14.0217C11.4817 14.0362 11.4395 14.0599 11.4217 14.0567C11.3984 14.0637 11.398 14.0399 11.4187 14.0352C11.4303 14.0291 11.4426 14.0228 11.4559 14.0217ZM11.3767 14.0758C11.3913 14.0756 11.422 14.0896 11.3932 14.0987C11.3731 14.1142 11.3504 14.0828 11.3767 14.0758Z" fill="#F7E017"/>
<path d="M12.0005 14.1117C12.0005 14.0921 11.9655 14.0949 11.9616 14.1147C11.9591 14.1275 11.9631 14.1305 11.9795 14.1281C11.9911 14.1265 12.0005 14.1191 12.0005 14.1117Z" fill="#F7E017"/>
<path d="M13.5531 13.9742C13.5567 13.9555 13.5306 13.943 13.5169 13.9567C13.5032 13.9705 13.5158 13.9965 13.5344 13.9929C13.543 13.9913 13.5514 13.9828 13.5531 13.9742Z" fill="#F7E017"/>
<path d="M11.1369 13.784C11.1613 13.763 11.1616 13.7617 11.151 13.7157C11.1361 13.6512 11.137 13.6443 11.1616 13.6382C11.1926 13.6303 11.2714 13.6726 11.2889 13.7064C11.3025 13.7326 11.3021 13.7344 11.2791 13.7557C11.2543 13.7786 11.2544 13.8053 11.2792 13.8053C11.2997 13.8053 11.3564 13.7517 11.3564 13.7324C11.3564 13.7057 11.2935 13.6425 11.2437 13.6194C11.213 13.605 11.1822 13.5983 11.1466 13.5982C11.0829 13.5982 11.0743 13.6119 11.0915 13.686C11.1117 13.7729 11.0843 13.7847 11.0143 13.7191C10.9623 13.6705 10.9418 13.6199 10.9421 13.5402C10.9422 13.4548 10.9749 13.4125 11.0486 13.4025C11.0976 13.396 11.0963 13.3845 11.046 13.377C10.9726 13.3659 10.9105 13.415 10.8869 13.5026C10.8608 13.5997 10.9208 13.718 11.0269 13.779C11.0825 13.8108 11.1046 13.8118 11.1369 13.784Z" fill="#F7E017"/>
<path d="M14.0306 13.6774C14.0365 13.6715 14.0414 13.658 14.0414 13.6476C14.0414 13.6372 14.0515 13.6149 14.0638 13.5982C14.0763 13.5814 14.0864 13.5642 14.0864 13.5601C14.0864 13.543 14.0583 13.5436 14.0361 13.5612C14.0134 13.5789 13.9963 13.5793 13.9963 13.562C13.9963 13.5577 14.0071 13.5488 14.0204 13.5423C14.0534 13.5262 14.0562 13.5103 14.0283 13.4976C13.9926 13.4814 13.9567 13.511 13.953 13.5599C13.9506 13.5926 13.9532 13.5983 13.9785 13.6131C14.0015 13.6267 14.0057 13.6339 14.0019 13.6533C13.9952 13.687 14.0092 13.6988 14.0306 13.6774Z" fill="#F7E017"/>
<path d="M14.3025 13.6467C14.3225 13.6288 14.3387 13.6084 14.3387 13.6016C14.3387 13.5948 14.3559 13.5768 14.3769 13.5617C14.4367 13.5188 14.4498 13.4754 14.4231 13.4088C14.4127 13.3826 14.38 13.3464 14.3089 13.2824C14.2543 13.2331 14.204 13.1927 14.1975 13.1927C14.1781 13.1927 14.1816 13.2641 14.2013 13.2703C14.2367 13.2817 14.2582 13.2962 14.314 13.3465C14.3789 13.4052 14.4088 13.4599 14.3925 13.4904C14.3768 13.5199 14.356 13.5107 14.2988 13.4494C14.2687 13.4171 14.2389 13.3907 14.2328 13.3907C14.2262 13.3909 14.2215 13.4025 14.2215 13.4189C14.2215 13.4394 14.2324 13.4589 14.2621 13.4919C14.3104 13.5456 14.3151 13.5779 14.2788 13.6065C14.2658 13.6167 14.2524 13.6252 14.2491 13.6252C14.2459 13.6252 14.2352 13.6091 14.2255 13.5896C14.2053 13.5486 14.0815 13.4179 14.063 13.4179C14.0545 13.4179 14.0504 13.4284 14.0504 13.4492C14.0504 13.4743 14.0554 13.4832 14.0753 13.4934C14.0998 13.5062 14.1605 13.5673 14.2215 13.641C14.2389 13.662 14.2561 13.6791 14.2599 13.6792C14.2635 13.6792 14.2827 13.6645 14.3025 13.6467Z" fill="#F7E017"/>
<path d="M14.4239 13.2993C14.4159 13.2734 14.2499 13.1025 14.2328 13.1025C14.224 13.1025 14.2212 13.1131 14.2233 13.1402C14.2256 13.1732 14.2292 13.1789 14.252 13.1848C14.2661 13.1886 14.3099 13.2229 14.3491 13.261C14.3882 13.2992 14.4225 13.3281 14.4253 13.3252C14.4281 13.3224 14.4275 13.3108 14.4239 13.2993Z" fill="#F7E017"/>
<path d="M13.4325 15.2222C13.4325 15.2347 13.4215 15.2448 13.4079 15.2448C13.3942 15.2448 13.3832 15.2347 13.3832 15.2222C13.3832 15.2097 13.3942 15.1996 13.4079 15.1996C13.4215 15.1996 13.4325 15.2097 13.4325 15.2222Z" fill="#F7E017"/>
<path d="M13.5197 15.1931C13.5197 15.2056 13.5086 15.2157 13.495 15.2157C13.4814 15.2157 13.4703 15.2056 13.4703 15.1931C13.4703 15.1806 13.4814 15.1705 13.495 15.1705C13.5086 15.1705 13.5197 15.1806 13.5197 15.1931Z" fill="#F7E017"/>
</g>
<defs>
<clipPath id="clip0_1692_53993">
<rect x="2.6543" y="5.8501" width="19.9495" height="13.2997" rx="1" fill="white"/>
</clipPath>
</defs>
</svg>
