<svg width="25" height="24" viewBox="0 0 25 24" fill="none" xmlns="http://www.w3.org/2000/svg">
<g clip-path="url(#clip0_1692_54175)">
<path d="M22.0234 5.3335H2.02344V18.6668H22.0234V5.3335Z" fill="#FF0000"/>
<path fill-rule="evenodd" clip-rule="evenodd" d="M12.5691 15.6602C12.4436 15.5514 12.2914 15.3311 12.2936 15.1187C12.3048 14.9603 12.4134 14.8682 12.4836 15.0616C12.5828 15.275 12.7956 15.6279 13.0889 15.4209C13.217 15.3268 13.215 15.1884 13.0394 15.2043C12.8224 15.1894 12.6892 15.07 12.5921 14.7627C12.5744 14.5937 12.6447 14.5979 12.7428 14.7067C12.869 14.8513 13.1199 15.07 13.3968 14.9528C13.5507 14.8883 13.5941 14.7553 13.3617 14.7225C13.1416 14.7257 12.9619 14.5831 12.7831 14.3654C12.685 14.245 12.8297 14.1235 12.9165 14.226C12.994 14.2925 13.1024 14.4151 13.1954 14.432C13.3029 14.4531 13.4361 14.4426 13.5837 14.3644C13.7429 14.2312 13.6912 14.1351 13.498 14.113C13.3483 14.1204 13.2667 14.1773 13.0735 14.0485C12.7263 13.8138 12.4503 13.5002 12.4072 13.123C12.3788 12.875 12.5122 12.7998 12.6231 12.8284C12.9247 12.906 13.1221 13.4697 13.3308 13.7793C13.3991 13.8686 13.4619 13.87 13.5063 13.8425C13.59 13.7707 13.6569 13.7117 13.7406 13.6315C13.7406 13.6315 14.3545 13.7418 14.6889 13.8508L14.3166 13.9831C14.1756 13.9052 14.0055 13.9892 14.0055 14.1242C13.8721 14.2164 13.8829 14.3246 13.9404 14.429C13.958 14.3563 13.973 14.2619 14.0783 14.2493C14.2287 14.3116 14.4039 14.2228 14.4039 14.1053L14.8431 13.9327L15.2868 14.1839C15.2868 14.3537 15.4476 14.4075 15.615 14.3617C15.6939 14.4106 15.7446 14.4956 15.7713 14.5865C15.8207 14.4554 15.8104 14.3629 15.7331 14.2986C15.7775 14.1291 15.54 13.9662 15.3562 14.0747L15.037 13.8914L15.5833 13.8761C15.6467 13.9884 15.8759 13.9946 15.9428 13.8761C15.9999 13.8605 16.0482 13.8505 16.1596 13.9333C16.1245 13.7993 16.0562 13.7421 15.9537 13.7421C15.8758 13.6041 15.594 13.6047 15.5533 13.7601L14.9843 13.7759L15.3219 13.5355C15.4479 13.6099 15.6248 13.5272 15.6602 13.392C15.7104 13.3323 15.7724 13.3042 15.8943 13.3448C15.8315 13.2334 15.7429 13.2002 15.583 13.2758C15.437 13.1652 15.2447 13.2993 15.2739 13.4107L14.8247 13.7163C14.4987 13.619 13.9082 13.4675 13.9082 13.4675C13.9785 13.3935 14.0498 13.3248 14.12 13.2498C14.1453 13.2059 14.1066 13.1548 14.0528 13.1441C13.5259 13.0354 13.2243 12.823 13.0415 12.2832C12.9651 12.0571 13.1303 11.9896 13.1871 12.1278C13.2657 12.3202 13.3524 12.5304 13.589 12.6931C13.6706 12.7502 13.9134 12.7036 13.7698 12.5673C13.621 12.4448 13.557 12.3921 13.4837 12.0941C13.4837 11.9431 13.6375 11.8754 13.7234 12.0201C13.8152 12.317 13.8246 12.4448 13.9909 12.636C14.1168 12.7808 14.2811 12.878 14.3627 12.8758C14.5095 12.8738 14.6572 12.7152 14.4609 12.6001C14.1727 12.485 14.0673 12.3276 14.0249 12.1775C13.9785 11.9156 14.0292 11.7888 14.1872 11.9176C14.4113 12.1722 14.839 12.6466 15.0631 12.8674C15.3142 13.0597 15.6023 13.066 15.8317 12.8706C15.9629 12.7195 15.9164 12.5569 15.7108 12.5917C15.247 12.6308 14.8958 12.4005 14.5105 11.7782C14.435 11.6377 14.4144 11.4359 14.5808 11.586C14.7728 11.8459 15.0528 12.0667 15.3132 12.1618C15.5746 12.2557 15.7904 12.2038 15.8741 12.1216C15.975 12.0207 15.9484 11.7667 15.7739 11.8279C15.6302 11.8786 15.4278 11.8913 15.2171 11.8099C15.0063 11.7275 14.7873 11.55 14.5549 11.249C14.4753 11.0789 14.5012 10.9352 14.6623 11.0229C15.0436 11.3462 15.5353 11.6081 15.7863 11.4508C15.9712 11.3356 15.9743 11.0398 15.7398 11.0588C15.2677 11.1232 15.089 11.0187 14.6355 10.6183C14.5322 10.5412 14.5394 10.3457 14.7036 10.4704C15.0849 10.7166 15.6055 10.8127 15.81 10.6838C15.994 10.5687 15.9671 10.2168 15.6572 10.3414C15.4092 10.4925 15.1354 10.4883 14.5869 10.0964C14.4485 9.98127 14.5517 9.83116 14.6654 9.89565C15.1065 10.1471 15.7491 10.2548 15.9164 9.74353C15.9814 9.54814 15.8637 9.43402 15.6912 9.56924C15.3121 9.91996 14.8823 9.74773 14.6417 9.57129C14.5728 9.53067 14.4464 9.32512 14.6685 9.36327C15.2429 9.49429 15.811 9.38016 15.9144 8.97341C15.9743 8.84137 15.8564 8.60786 15.6468 8.80337C15.371 9.0759 15.0786 9.08535 14.7109 9.08331C14.5239 9.04416 14.5219 8.83816 14.6789 8.80759C14.9691 8.81384 15.2553 8.68704 15.4846 8.5582C15.7088 8.42937 15.8947 8.24869 15.9537 7.99831C15.9898 7.77439 15.7739 7.53667 15.6438 7.77439C15.4516 8.1219 15.026 8.44945 14.5527 8.50857C14.5281 8.46735 14.4661 8.36167 14.3896 8.39137C14.2507 8.44524 14.0851 8.51733 13.9147 8.59829C13.5472 8.77275 13.3941 8.85684 13.4382 9.15829C13.4843 9.47284 13.2418 9.67161 13.0415 9.61671C12.8668 9.56969 12.7704 9.4119 12.8017 9.1382C12.8268 8.92012 13.0458 8.65633 13.2925 8.518C13.4522 8.42861 13.6933 8.37971 13.9836 8.31522C14.1603 8.28043 14.2502 8.21171 14.2605 8.1398C14.2605 8.1398 14.1397 8.22816 13.9465 8.2149C13.8551 8.20837 13.7938 8.16816 13.7708 8.12714C13.838 8.11347 13.9598 8.12933 14.0693 8.12933C14.2149 8.12816 14.553 8.09555 14.6427 7.89055C14.6706 7.75533 14.5818 7.73102 14.4991 7.81763C14.4103 7.91124 14.3737 7.99539 14.1954 8.02682C14.087 8.0459 13.9785 8.06804 13.839 8.03426C13.9175 7.94094 14.0424 7.84545 14.1489 7.86304C14.1839 7.86888 14.2305 7.9012 14.2677 7.95929C14.2905 7.81137 14.2501 7.64439 13.8545 7.71412C13.8608 7.60218 13.6251 7.55355 13.4837 7.55573C13.4031 7.55778 13.2388 7.60539 13.1201 7.66231C12.932 7.72053 12.7461 7.76275 12.527 7.77863C12.6542 7.88737 12.6779 7.89378 12.8049 7.98563C12.6129 8.05741 12.4641 8.20533 12.3969 8.30257C12.3969 8.30257 12.6211 8.29631 12.6779 8.32163C12.4433 8.3902 12.338 8.43141 12.214 8.5582C12.2574 8.56563 12.3224 8.57829 12.3504 8.58892C12.3794 8.59941 12.3719 8.61847 12.3484 8.63639C12.2978 8.67496 12.089 8.91749 12.0281 8.97557C11.9671 8.91749 11.7583 8.67496 11.7078 8.63639C11.6843 8.61847 11.6767 8.59941 11.7058 8.58892C11.7337 8.57831 11.7987 8.56563 11.8422 8.5582C11.7182 8.43141 11.6128 8.3902 11.3782 8.32163C11.435 8.29631 11.6592 8.30257 11.6592 8.30257C11.592 8.20533 11.4433 8.05741 11.2512 7.98563C11.3782 7.89378 11.402 7.88737 11.5291 7.77861C11.31 7.76275 11.1241 7.72053 10.9361 7.66229C10.8173 7.60539 10.6531 7.55778 10.5725 7.55573C10.431 7.55355 10.1954 7.60218 10.2017 7.7141C9.80605 7.64439 9.76563 7.81137 9.7884 7.95929C9.82569 7.9012 9.87224 7.86888 9.90726 7.86306C10.0137 7.84545 10.1386 7.94094 10.2172 8.03426C10.0777 8.06804 9.96918 8.0459 9.86071 8.02684C9.68248 7.99541 9.64589 7.91124 9.55704 7.81765C9.47436 7.73102 9.38552 7.75533 9.41342 7.89057C9.50312 8.09555 9.84118 8.12816 9.98683 8.12933C10.0963 8.12933 10.2182 8.11345 10.2854 8.12714C10.2623 8.1682 10.2011 8.20837 10.1097 8.2149C9.91638 8.22816 9.79565 8.1398 9.79565 8.1398C9.80591 8.21171 9.89585 8.28041 10.0725 8.31522C10.3628 8.37971 10.604 8.42863 10.7637 8.51802C11.0104 8.65633 11.2293 8.92012 11.2544 9.1382C11.2857 9.41188 11.1893 9.56969 11.0146 9.61671C10.8144 9.67161 10.5719 9.47284 10.6179 9.15829C10.662 8.85684 10.5089 8.77275 10.1415 8.59829C9.97104 8.51733 9.80548 8.44522 9.66655 8.39135C9.5901 8.36167 9.52803 8.46737 9.5034 8.50857C9.0302 8.44945 8.60457 8.1219 8.41238 7.77439C8.28226 7.53667 8.06632 7.77439 8.10246 7.99831C8.1614 8.24871 8.34732 8.42937 8.57152 8.5582C8.80087 8.68704 9.08701 8.81384 9.37728 8.80759C9.53428 8.83816 9.5323 9.04416 9.34524 9.08331C8.97752 9.08535 8.68514 9.0759 8.40938 8.80337C8.19971 8.60786 8.08183 8.84137 8.14177 8.97341C8.24512 9.38014 8.81326 9.49429 9.38767 9.36327C9.60971 9.3251 9.48332 9.53069 9.4144 9.57131C9.17385 9.74773 8.74408 9.91996 8.36497 9.56926C8.19244 9.43402 8.07469 9.54814 8.13977 9.74353C8.30704 10.2548 8.94963 10.1471 9.39079 9.89565C9.5044 9.83116 9.60761 9.98127 9.46924 10.0964C8.92073 10.4883 8.64699 10.4925 8.39899 10.3414C8.0891 10.2168 8.06218 10.5687 8.24612 10.6838C8.45067 10.8127 8.97128 10.7166 9.3525 10.4704C9.51679 10.3457 9.52389 10.5412 9.42067 10.6183C8.96714 11.0187 8.78848 11.1232 8.3163 11.0588C8.08181 11.0398 8.08495 11.3356 8.26989 11.4508C8.52085 11.6081 9.01255 11.3462 9.39377 11.0229C9.55493 10.9352 9.58083 11.0789 9.50126 11.249C9.26881 11.55 9.04983 11.7275 8.83901 11.8099C8.62834 11.8913 8.42591 11.8786 8.28228 11.8279C8.10773 11.7667 8.0812 12.0207 8.18206 12.1216C8.26579 12.2038 8.48157 12.2557 8.74293 12.1618C9.0033 12.0667 9.28332 11.8458 9.47536 11.586C9.64177 11.4359 9.62112 11.6377 9.54567 11.7782C9.16032 12.4005 8.80914 12.6308 8.34532 12.5917C8.13977 12.5569 8.09322 12.7195 8.22446 12.8706C8.45381 13.066 8.74193 13.0597 8.99303 12.8674C9.21712 12.6466 9.64487 12.1722 9.86895 11.9176C10.027 11.7888 10.0777 11.9156 10.0313 12.1775C9.98881 12.3276 9.8835 12.485 9.59522 12.6001C9.39889 12.7153 9.54665 12.8738 9.69344 12.8758C9.77501 12.878 9.9393 12.7808 10.0653 12.6361C10.2315 12.4448 10.241 12.317 10.3328 12.0201C10.4186 11.8754 10.5725 11.9431 10.5725 12.0941C10.4992 12.3921 10.4351 12.4448 10.2864 12.5673C10.1427 12.7036 10.3856 12.7502 10.4672 12.6931C10.7037 12.5304 10.7904 12.3202 10.869 12.1278C10.9258 11.9896 11.0911 12.0571 11.0146 12.2832C10.8319 12.823 10.5302 13.0354 10.0034 13.1441C9.94955 13.1548 9.91081 13.2059 9.93614 13.2498C10.0063 13.3248 10.0777 13.3935 10.148 13.4675C10.148 13.4675 9.55746 13.619 9.23142 13.7163L8.78224 13.4107C8.81142 13.2993 8.61912 13.1652 8.47318 13.2758C8.3132 13.2002 8.22465 13.2334 8.16179 13.3448C8.28375 13.3042 8.34571 13.3323 8.39595 13.392C8.43136 13.5272 8.6082 13.6099 8.73422 13.5355L9.07183 13.7759L8.50285 13.7601C8.46214 13.6047 8.1803 13.6041 8.1024 13.7421C7.99995 13.7421 7.93159 13.7993 7.89648 13.9333C8.00791 13.8505 8.05622 13.8605 8.11334 13.8761C8.1802 13.9946 8.40938 13.9884 8.47277 13.8761L9.01912 13.8914L8.69993 14.0747C8.51612 13.9662 8.27867 14.1291 8.32306 14.2986C8.24571 14.3629 8.23538 14.4554 8.28479 14.5865C8.31148 14.4956 8.36222 14.4106 8.44112 14.3616C8.60846 14.4075 8.76936 14.3537 8.76936 14.1839L9.21303 13.9327L9.65222 14.1053C9.65222 14.2228 9.82742 14.3116 9.97781 14.2493C10.0832 14.2619 10.0982 14.3563 10.1157 14.4289C10.1733 14.3246 10.184 14.2164 10.0506 14.1242C10.0506 13.9892 9.88048 13.9052 9.73952 13.9831L9.36724 13.8508C9.70159 13.7418 10.3156 13.6315 10.3156 13.6315C10.3993 13.7117 10.4661 13.7707 10.5499 13.8425C10.5943 13.87 10.6571 13.8686 10.7254 13.7793C10.9341 13.4697 11.1314 12.906 11.433 12.8284C11.5439 12.7998 11.6773 12.875 11.649 13.123C11.6059 13.5002 11.3298 13.8138 10.9826 14.0485C10.7894 14.1773 10.7079 14.1204 10.5581 14.113C10.3649 14.1351 10.3133 14.2312 10.4724 14.3644C10.62 14.4426 10.7533 14.4531 10.8608 14.432C10.9537 14.4151 11.0622 14.2925 11.1396 14.226C11.2265 14.1235 11.3711 14.245 11.273 14.3654C11.0942 14.5831 10.9146 14.7257 10.6945 14.7225C10.462 14.7553 10.5054 14.8883 10.6593 14.9528C10.9362 15.07 11.1872 14.8514 11.3133 14.7067C11.4114 14.5979 11.4817 14.5937 11.4641 14.7627C11.367 15.07 11.2337 15.1894 11.0168 15.2043C10.8411 15.1884 10.8391 15.3268 10.9672 15.4209C11.2605 15.6279 11.4733 15.275 11.5725 15.0616C11.6427 14.8683 11.7513 14.9603 11.7626 15.1187C11.7647 15.3311 11.6126 15.5514 11.4871 15.6602C11.3616 15.7691 12.0281 16.461 12.0281 16.461C12.0281 16.461 12.6945 15.7691 12.5691 15.6602L12.5691 15.6602ZM13.4622 7.82473C13.3585 7.82473 13.2944 7.86106 13.2944 7.90514C13.2944 7.94992 13.3585 7.98641 13.4622 7.98641C13.5653 7.98641 13.6308 7.94661 13.6308 7.90178C13.6308 7.85769 13.5653 7.82471 13.4622 7.82471V7.82473ZM10.594 7.82473C10.6977 7.82473 10.7618 7.86106 10.7618 7.90514C10.7618 7.94992 10.6977 7.98641 10.594 7.98641C10.4908 7.98641 10.4253 7.94661 10.4253 7.90178C10.4253 7.85769 10.4909 7.82471 10.594 7.82471V7.82473Z" fill="black"/>
</g>
<defs>
<clipPath id="clip0_1692_54175">
<rect x="2.02344" y="5.3335" width="20" height="13.3333" rx="1" fill="white"/>
</clipPath>
</defs>
</svg>
