<svg width="25" height="24" viewBox="0 0 25 24" fill="none" xmlns="http://www.w3.org/2000/svg">
<g clip-path="url(#clip0_1692_54131)">
<path d="M2.53516 5.3335H22.5352V18.6668H2.53516V5.3335Z" fill="white"/>
<path d="M2.53516 5.3335H12.5352V18.6668H2.53516V5.3335Z" fill="#006633"/>
<path d="M15.4221 10.3339C15.0552 9.69833 14.4888 9.20161 13.8108 8.92076C13.1328 8.63992 12.381 8.59065 11.6721 8.78059C10.9632 8.97053 10.3369 9.38908 9.89009 9.97131C9.44333 10.5535 9.20117 11.2669 9.20117 12.0008C9.20117 12.7347 9.44333 13.4481 9.89009 14.0303C10.3369 14.6125 10.9632 15.0311 11.6721 15.221C12.381 15.411 13.1328 15.3617 13.8108 15.0808C14.4888 14.8 15.0552 14.3033 15.4221 13.6677C15.0768 14.0991 14.606 14.4125 14.0748 14.5647C13.5436 14.7169 12.9783 14.7003 12.4569 14.5173C11.9355 14.3343 11.4838 13.9939 11.1643 13.5431C10.8448 13.0923 10.6731 12.5534 10.6731 12.0008C10.6731 11.4482 10.8448 10.9093 11.1643 10.4585C11.4838 10.0077 11.9355 9.66728 12.4569 9.48427C12.9783 9.30127 13.5436 9.28472 14.0748 9.43692C14.606 9.58912 15.0768 9.90255 15.4221 10.3339ZM15.5504 12.0008L12.535 11.021L14.3986 13.5861V10.4155L12.535 12.9806L15.5504 12.0008Z" fill="#D21034"/>
</g>
<defs>
<clipPath id="clip0_1692_54131">
<rect x="2.53516" y="5.3335" width="20" height="13.3333" rx="1" fill="white"/>
</clipPath>
</defs>
</svg>
