<svg width="25" height="24" viewBox="0 0 25 24" fill="none" xmlns="http://www.w3.org/2000/svg">
<g clip-path="url(#clip0_1692_54169)">
<path d="M2.07227 5.3501H22.0218V18.6498H2.07227V5.3501Z" fill="#000066"/>
<path d="M2.07227 11.9999L22.0218 5.3501V18.6498L2.07227 11.9999Z" fill="#BD1021"/>
<path d="M4.211 12.0002L22.0231 6.06299V17.9375" fill="white"/>
<path d="M15.8106 12.7419C15.9878 12.7555 15.9818 12.9312 15.9818 12.9312L16.6096 12.9452C16.6899 12.7263 16.7732 12.7517 16.9257 12.8598C17.0706 12.9625 17.2288 13.0084 17.2288 13.0084C17.2894 12.6942 17.7349 12.7577 17.7349 12.7577C17.9248 12.3041 17.9409 12.3101 17.8278 12.2527C17.7147 12.1952 17.6685 12.098 17.6685 12.098C17.5611 11.9684 17.5046 11.7809 17.4924 11.6659C17.4803 11.5509 17.347 11.7235 17.3227 11.6872C17.2985 11.6509 17.1005 11.6721 17.1005 11.6721C17.149 11.7235 16.9833 11.6932 16.9833 11.6932C16.9995 11.7053 16.9833 11.7537 16.9833 11.7537C16.9671 11.7325 16.8419 11.7114 16.8419 11.7114C16.8298 11.7386 16.8015 11.7688 16.8015 11.7688C16.7328 11.7386 16.5954 11.7446 16.5954 11.7446C16.3934 11.7416 16.2722 11.8051 16.2156 11.8384C16.159 11.8717 15.957 11.9745 15.7913 12.1348C15.6257 12.295 15.5327 12.2769 15.5327 12.2769C15.4843 12.4553 15.0883 12.6731 15.0883 12.6731C15.0237 12.7305 14.8257 12.7577 14.7247 12.6731C14.6237 12.5884 14.7247 12.4372 14.7247 12.4372C14.762 12.3665 14.7991 12.3694 14.8032 12.1241C14.806 11.9582 14.9772 11.8267 15.153 11.6339C15.3678 11.3982 15.6681 11.0102 15.6681 11.0102C15.6697 11.1292 15.7348 11.1485 15.7348 11.1485C15.7939 11.0272 15.8788 10.9296 15.8788 10.9296C15.8833 10.9399 15.8954 10.9467 15.8954 10.9467C15.9621 10.8559 16.003 10.8197 16.003 10.8197C15.9803 10.8106 15.7939 10.8197 15.6197 10.9716C15.4454 11.1236 15.3257 11.0726 15.3257 11.0726C15.2045 11.034 15.1939 10.941 15.1939 10.941C15.1054 10.5602 15.453 10.2878 15.453 10.2878C14.9863 10.1766 15.3227 9.58464 15.9015 9.33288C16.4803 9.08112 16.4742 8.9677 16.4742 8.9677C16.5075 9.00627 16.5348 9.07431 16.5348 9.07431C16.5409 9.06976 16.5833 9.00627 16.9167 8.85883C17.25 8.71139 17.4106 8.58438 17.4106 8.58438C17.453 8.66604 17.4439 8.72501 17.4439 8.72501C18.3561 8.4052 19.2546 7.67146 19.2546 7.67146C19.2804 7.73269 19.2667 7.82568 19.2667 7.82568C19.4152 7.68846 19.9516 7.36865 19.9516 7.36865C19.9607 7.57278 19.7925 7.65103 19.7925 7.65103C19.8107 7.68053 19.8213 7.73381 19.8213 7.73381C19.9092 7.68617 20.3183 7.40039 20.3183 7.40039C20.4683 7.52966 20.3319 7.74173 20.3319 7.74173C20.385 7.73381 20.4244 7.68731 20.4244 7.68731C20.4622 7.90732 20.2183 8.10125 20.2183 8.10125C20.2607 8.1024 20.3319 8.06042 20.3319 8.06042C20.2865 8.30085 19.8304 8.56735 19.8304 8.56735C19.8971 8.62632 19.8334 8.70458 19.7789 8.73974C19.7243 8.77491 19.6274 8.85202 19.6577 8.88378C19.688 8.91554 19.8895 8.77376 19.8895 8.77376C19.9244 8.87471 19.6653 9.07317 19.6653 9.07317C19.8456 9.09697 20.3471 8.86904 20.3471 8.86904C20.3062 9.06298 20.1168 9.2138 19.8834 9.30112C19.6501 9.38845 19.6622 9.40207 19.6622 9.40207C19.7031 9.43494 20.0259 9.34083 20.0259 9.34083C19.9289 9.55743 19.5925 9.70602 19.5925 9.70602C19.6849 9.78427 19.8107 9.69354 19.9365 9.60736C20.0622 9.52118 20.2334 9.44745 20.4228 9.38395C20.6122 9.32043 20.7456 9.36807 20.7456 9.36807C20.9031 9.31817 21.0365 9.38847 21.0365 9.38847C21.3395 9.41342 21.3698 9.52344 21.3698 9.52344C21.4031 9.53137 21.4289 9.54498 21.5062 9.60169C21.5835 9.6584 21.5789 9.83417 21.5759 9.92038C21.5729 10.0066 21.5486 10.0066 21.5335 10.0304C21.5183 10.0542 21.5168 10.0814 21.5168 10.1143C21.5168 10.1472 21.441 10.3513 20.9728 10.3536C20.5046 10.3559 20.2632 10.3536 20.2632 10.3536C20.2246 10.3536 20.1784 10.3763 20.1784 10.3763C19.9814 10.4738 20.0854 10.3098 19.8511 10.5026C19.6167 10.6954 19.4975 10.6621 19.4975 10.6621C19.4591 10.7082 19.2137 10.9365 19.0733 11.0273C18.9328 11.118 18.9581 11.1097 19.0803 11.1626C19.2026 11.2155 19.3874 11.1626 19.3874 11.1626C19.2692 11.2412 19.3511 11.2775 19.3511 11.2775C19.5066 11.183 19.6006 11.2178 19.6006 11.2178C19.6501 11.3531 19.4723 11.5671 19.4723 11.5671C19.541 11.5762 19.6703 11.5671 19.6703 11.5671C19.6389 11.6586 19.5096 11.7591 19.4147 11.7901C19.3197 11.8211 19.3369 11.8332 19.3652 11.8907C19.3935 11.9481 19.3692 12.0064 19.3692 12.0064C19.2036 11.8914 19.1975 11.9943 19.1975 11.9943C19.1784 12.1304 19.1813 12.3254 19.1813 12.3254C19.0642 12.2664 19.0581 12.3451 19.0581 12.3451C19.0278 12.4691 18.8843 12.6127 18.8843 12.6127C18.8783 12.5356 18.8076 12.5159 18.8076 12.5159C18.7328 12.6596 18.5955 12.7458 18.5955 12.7458C18.5773 12.8698 18.6116 13.0437 18.6116 13.0437C18.5227 13.0255 18.4904 13.0271 18.4763 13.0482C18.4621 13.0694 18.4965 13.08 18.4965 13.08L19.6541 13.1087C19.6703 13.1102 19.739 13.1178 19.741 13.2433C19.743 13.3688 19.64 13.3748 19.64 13.3748L18.3732 13.3446C18.3732 13.3446 18.3793 13.3794 18.3126 13.4142C18.2459 13.4489 18.2682 13.3748 18.25 13.5306C18.2318 13.6863 17.9793 13.5185 17.9793 13.5185C17.9388 13.579 17.8398 13.6576 17.8398 13.6576C17.7833 13.4867 17.7247 13.4338 17.6338 13.582C17.5429 13.7302 17.7974 13.7045 17.7974 13.7045C17.7974 13.7045 19.2844 13.4852 19.3652 13.4777C19.446 13.4701 19.5349 13.4746 19.5712 13.5881C19.6076 13.7015 19.3914 13.7196 19.3914 13.7196L17.8661 13.8859C17.8338 13.9767 17.7065 13.9691 17.7065 13.9691C17.7166 14.0553 17.6257 14.1098 17.5792 14.1415C17.5328 14.1733 17.3873 14.1581 17.3873 14.1581C17.2095 14.2791 17.1226 14.1838 17.1226 14.1838C17.0075 14.2337 16.9347 14.2126 16.8398 14.1717C16.7449 14.1309 16.7529 14.016 16.7529 14.016L15.7903 14.1158C15.7448 14.1317 15.7135 14.1619 15.7135 14.1619C15.7479 14.2058 15.6446 14.3077 15.6446 14.3077C15.6734 14.3275 15.7287 14.3831 15.7362 14.5033C15.7442 14.6305 15.5809 14.6518 15.6627 14.7403C15.7446 14.8288 15.8938 14.7556 16.0605 14.6757C16.2272 14.5957 16.3908 14.6059 16.462 14.6065C16.5332 14.6071 16.7317 14.657 16.8552 14.7006C16.9787 14.7443 17.0211 14.7182 17.0294 14.6547C17.0378 14.5912 17.0931 14.573 17.0931 14.573C17.0779 14.6354 17.1113 14.6632 17.1113 14.6632C17.159 14.6666 17.2423 14.6201 17.2423 14.6201C17.2348 14.6661 17.1742 14.695 17.1742 14.695C17.053 14.776 17.2196 14.746 17.2196 14.746C17.5515 14.678 17.6696 14.6848 17.756 14.6938C17.8424 14.7029 18.25 14.8764 18.25 14.8764C18.2651 14.8356 18.2545 14.7347 18.2545 14.7347C18.3591 14.763 18.4015 14.8231 18.4015 14.8231C18.4409 14.7801 18.4151 14.7075 18.4151 14.7075C18.7515 14.8957 18.3454 14.9808 18.2379 15.0171C18.1303 15.0533 18.1318 15.0976 18.1318 15.0976C18.2212 15.0692 18.2833 15.059 18.3576 15.0533C18.4318 15.0477 18.4061 15.0522 18.5834 15.0171C18.7606 14.9819 18.8516 15.0567 18.8516 15.0567C18.7031 15.0647 18.6591 15.1089 18.6591 15.1089C18.7531 15.1735 18.6637 15.228 18.6637 15.228C18.5288 15.0579 18.4137 15.2348 18.4137 15.2348C18.4599 15.228 18.5955 15.2563 18.6341 15.2807C18.664 15.2996 18.7341 15.334 18.8213 15.3743C18.9443 15.4311 18.9213 15.3947 19.0167 15.431C19.1121 15.4673 19.0758 15.5592 19.0758 15.5592C19.0349 15.4843 18.947 15.4582 18.947 15.4582C18.9394 15.5592 18.8379 15.5761 18.8379 15.5761C18.9622 15.4378 18.694 15.3777 18.5682 15.38C18.4425 15.3822 18.3485 15.4627 18.3485 15.4627C18.6015 15.6998 18.7773 15.6226 18.7773 15.6226C18.7455 15.7088 18.5364 15.6748 18.5364 15.6748C18.6334 15.7485 18.6228 15.8007 18.6228 15.8007C18.5712 15.7508 18.4864 15.7758 18.3046 15.6578C18.1228 15.5399 17.9606 15.5784 17.9606 15.5784C18.1379 15.7678 17.8955 15.8801 17.8955 15.8801C17.8061 15.9311 17.9334 16.0003 17.9334 16.0003C17.8213 16.0207 17.8061 15.9085 17.8061 15.9085C17.747 15.8971 17.6621 15.9686 17.6621 15.9686C17.6682 15.8529 17.8197 15.9107 17.8243 15.7905C17.8288 15.6703 17.6833 15.5773 17.2545 15.6363C16.8257 15.6953 16.7 15.558 16.7 15.558C16.6636 15.5592 16.656 15.5955 16.656 15.5955C16.7272 15.6635 16.7591 15.6919 16.7469 15.7395C16.7348 15.7871 16.7696 15.803 16.7696 15.803C16.6909 15.7985 16.6848 15.7044 16.6848 15.7044C16.6833 15.7429 16.6666 15.7463 16.6409 15.7871C16.6151 15.828 16.6393 15.8801 16.6393 15.8801C16.606 15.8506 16.5454 15.8155 16.603 15.7316C16.6473 15.6669 16.5105 15.5841 16.5105 15.5841C16.4575 15.5297 16.3166 15.5807 16.3166 15.5807C16.0242 15.6386 15.853 15.4537 15.853 15.4537C15.8196 15.4537 15.756 15.4356 15.756 15.4356C15.4469 15.5739 15.1757 15.2745 15.1757 15.2745C14.9423 15.3188 14.8362 15.2065 14.765 15.0965C14.6938 14.9865 14.6802 14.9774 14.5862 14.9207C14.4923 14.864 14.4045 14.7036 14.4908 14.6191C14.566 14.5453 14.5438 14.5283 14.5438 14.5283C14.4226 14.3246 14.76 14.2589 14.7661 14.2101C14.7749 14.139 14.8453 14.094 14.9211 14.0894C14.9969 14.0849 14.9969 14.0917 15.0469 14.0407C15.0969 13.9896 15.1923 14.0531 15.1923 14.0531C15.212 14.0384 15.3787 13.9091 15.5272 13.976C15.6757 14.043 15.7984 13.9953 15.7984 13.9953C15.903 13.9726 16.7712 13.8547 16.7712 13.8547C16.8273 13.7708 16.8667 13.6698 17.106 13.6154C17.3454 13.561 17.5273 13.4124 17.5273 13.4124C17.4849 13.367 17.4136 13.3693 17.3773 13.3648C17.3409 13.3602 17.2652 13.2956 17.2652 13.2956C17.2212 13.3149 17.1987 13.3054 16.8848 13.4963C16.6045 13.6668 16.5965 13.3285 16.5965 13.3285L15.9848 13.3296C15.9742 13.4589 15.8757 13.5099 15.8757 13.5099L15.653 13.5212C15.5288 13.4555 15.5272 13.2366 15.5272 13.2366C14.8545 13.2468 14.4802 13.4872 14.4802 13.4872C13.7181 13.0971 13.1211 13.0086 13.1211 13.0086C14.0469 12.9077 14.5363 12.6503 14.5363 12.6503C15.0469 12.9565 15.5272 12.9644 15.5272 12.9644C15.5454 12.7795 15.6697 12.7342 15.6697 12.7342L15.8106 12.7419Z" fill="black"/>
<path d="M14.7072 14.2778C14.5137 14.3912 14.5487 14.4532 14.5655 14.488C14.5827 14.5236 14.5847 14.5576 14.5322 14.6105C14.4796 14.6635 14.4847 14.6819 14.4847 14.6819C14.4928 14.8699 14.626 14.9098 14.6815 14.956C14.7281 14.9946 14.807 15.1156 14.807 15.1156C14.906 15.2578 15.011 15.2593 15.0888 15.2593C15.1666 15.2593 15.1597 15.2527 15.1201 15.2177C15.0829 15.1848 15.005 15.1209 15.005 15.1209C15.109 15.1572 15.208 15.2661 15.208 15.2661C15.4046 15.4812 15.5859 15.4529 15.6657 15.4423C15.7455 15.4317 15.7313 15.3856 15.7313 15.3856C15.7271 15.3779 15.6495 15.372 15.6495 15.372C15.3545 15.344 15.2656 15.1504 15.2656 15.1504C15.4434 15.3251 15.7222 15.3606 15.8081 15.3574C15.894 15.3542 15.8889 15.3788 15.8707 15.3833C15.8525 15.3879 15.8263 15.3833 15.7869 15.3803C15.7475 15.3773 15.7475 15.3871 15.7566 15.4037C15.7657 15.4204 15.8028 15.4221 15.8498 15.4204C15.8968 15.4187 15.8589 15.4238 15.9809 15.5185C16.1029 15.6132 16.4067 15.5366 16.4067 15.5366C16.2104 15.4879 16.1832 15.3994 16.1832 15.3994C15.9164 15.4305 15.8081 15.2706 15.8081 15.2706C15.7604 15.223 15.6179 15.1493 15.6179 15.1493C15.4671 15.0846 15.4436 14.9482 15.4436 14.9482C15.4861 15.0086 15.5687 15.0778 15.6732 15.1067C15.7778 15.1357 15.8073 15.151 15.8073 15.151C15.7573 15.1583 15.7277 15.1419 15.7277 15.1419C15.6232 15.1113 15.6823 15.1538 15.6823 15.1538C15.7974 15.2457 15.8293 15.2389 15.8293 15.2389C16.1316 15.2701 15.9816 15.1493 15.9816 15.1493C16.1968 15.2004 16.2324 15.1198 16.2324 15.1198C16.2771 15.2145 16.44 15.1805 16.44 15.1805C16.2233 15.2848 16.3877 15.255 16.3877 15.255C16.6067 15.2139 16.6497 15.2697 16.6497 15.2697C16.7089 15.3248 16.7689 15.3172 16.7689 15.3172C16.7689 15.3172 16.8083 15.3183 16.8916 15.335C16.975 15.3517 17.1023 15.4226 17.2235 15.4076C17.3447 15.3926 17.3644 15.4307 17.3644 15.4307C17.3417 15.4228 17.2887 15.4147 17.1947 15.4567C17.1007 15.4987 16.9386 15.5123 16.7022 15.4567C16.4658 15.4011 16.4476 15.4079 16.4476 15.4079C16.5037 15.4499 16.5537 15.5089 16.5643 15.5497C16.5749 15.5905 16.6158 15.5928 16.6158 15.5928C16.6325 15.5406 16.7037 15.5179 16.7037 15.5179C16.7503 15.561 16.875 15.6178 16.875 15.6178C16.8886 15.5894 16.875 15.5695 16.875 15.5695C16.9659 15.6563 17.072 15.6302 17.072 15.6302C17.1007 15.6099 17.0917 15.561 17.0917 15.561C17.128 15.5599 17.1341 15.5826 17.1598 15.5996C17.1856 15.6166 17.2674 15.6053 17.2674 15.6053C17.2371 15.5928 17.2159 15.5463 17.2159 15.5463C17.3356 15.4635 17.5948 15.4998 17.5948 15.4998C17.7819 15.5327 17.7584 15.6552 17.7584 15.6552C17.7963 15.6733 17.8463 15.73 17.8463 15.73C17.8622 15.6869 17.8478 15.6433 17.8478 15.6433C17.9335 15.6841 17.9516 15.7839 17.9516 15.7839C18.0509 15.6705 17.8569 15.5429 17.8569 15.5429C17.9509 15.531 18.0547 15.5395 18.1176 15.5486C18.1805 15.5576 18.2706 15.5905 18.3441 15.6518C18.4176 15.713 18.5495 15.7414 18.5495 15.7414C18.5454 15.7161 18.4752 15.6733 18.4593 15.6643C18.4434 15.6552 18.4366 15.6331 18.4366 15.6331C18.501 15.6444 18.5457 15.6387 18.5457 15.6387C18.3192 15.5004 18.2623 15.4346 18.2623 15.4346C18.3472 15.4454 18.3942 15.3926 18.3942 15.3926C18.2154 15.3966 18.2093 15.3501 18.2093 15.3501C18.2313 15.3563 18.3124 15.3762 18.4192 15.3552C18.526 15.3342 18.6745 15.3557 18.6745 15.3557C18.5972 15.2315 18.2979 15.2525 18.2025 15.2576C18.107 15.2627 18.0699 15.2503 18.0699 15.2503C18.0851 15.2429 18.101 15.227 18.176 15.2264C18.251 15.2259 18.3245 15.2321 18.4093 15.1737C18.4942 15.1153 18.6106 15.1346 18.6106 15.1346C18.5823 15.0786 18.448 15.059 18.3298 15.1346C18.2116 15.2102 18.1045 15.186 18.1045 15.186C18.2914 15.1595 18.3459 15.0937 18.3459 15.0937C18.2893 15.0801 18.258 15.0983 18.1459 15.1202C18.0338 15.1421 18.0034 15.1036 18.0034 15.1036C18.1267 15.0302 18.2126 15.0007 18.2126 15.0007C18.1075 14.9788 18.0105 14.9339 18.0105 14.9339C17.9014 15.0366 17.8165 15.0945 17.6074 14.9848C17.3983 14.8752 17.2892 14.8881 17.2892 14.8881C17.4731 14.7792 17.662 14.826 17.7994 14.9085C17.9368 14.9909 17.9762 14.9236 17.9762 14.9236C17.9328 14.8964 17.9388 14.8729 17.9388 14.8729C18.2722 15.043 18.4167 14.9372 18.4904 14.8873C18.5642 14.8374 18.4571 14.7708 18.4571 14.7708C18.45 14.879 18.3136 14.9281 18.2066 14.8918C18.0995 14.8555 18.0005 14.8094 17.8464 14.7451C17.6923 14.6809 17.4994 14.7142 17.3195 14.752C17.1397 14.7898 17.1165 14.7716 17.1003 14.7572C17.0841 14.7429 17.075 14.699 16.9831 14.7368C16.8912 14.7746 16.677 14.6741 16.5436 14.6423C16.4103 14.6106 16.1919 14.6279 16.0031 14.7315C15.8143 14.8352 15.7213 14.8094 15.6647 14.7837C15.6081 14.758 15.5727 14.6869 15.6334 14.6234C15.694 14.5599 15.699 14.5425 15.694 14.451C15.6889 14.3595 15.599 14.305 15.599 14.305C15.6819 14.2196 15.7021 14.2007 15.6738 14.1637C15.6455 14.1266 15.6899 14.1274 15.7374 14.1062C15.7849 14.085 15.7637 14.082 15.7526 14.054C15.7415 14.026 15.7142 14.0306 15.7142 14.0306C15.6041 14.0351 15.5435 14.0049 15.5435 14.0049C15.3611 13.921 15.1919 14.0843 15.1919 14.0843C15.0883 14.0049 15.0646 14.0563 15.0464 14.0759C15.0282 14.0956 14.9918 14.1092 14.9433 14.1137C14.8992 14.1179 14.8326 14.1351 14.8094 14.1763C14.8094 14.1763 14.789 14.2095 14.8145 14.2457C14.8145 14.2457 14.8428 14.2884 14.7913 14.34C14.7398 14.3916 14.7216 14.4041 14.7375 14.4529C14.7534 14.5016 14.7489 14.539 14.7292 14.5708C14.7292 14.5708 14.7057 14.5436 14.7117 14.5101C14.7178 14.4767 14.7178 14.4574 14.7102 14.4392C14.7102 14.4392 14.6595 14.4891 14.6504 14.5249C14.6504 14.5249 14.6292 14.4699 14.7026 14.3961C14.7761 14.3224 14.8096 14.2857 14.789 14.2572C14.7739 14.2362 14.7201 14.2702 14.7072 14.2778Z" fill="#FFC221"/>
<path d="M18.508 15.062C18.508 15.062 18.5821 15.0594 18.6252 15.0797C18.6252 15.0797 18.6535 15.0555 18.7212 15.0483C18.7212 15.0483 18.6767 15.0037 18.508 15.062ZM18.2863 14.8824C18.2863 14.8824 18.3605 14.879 18.3828 14.8434C18.3828 14.8434 18.3454 14.7958 18.2883 14.7731C18.2883 14.7731 18.2999 14.8238 18.2863 14.8824ZM15.7944 14.0536C15.7944 14.0536 15.7808 14.0173 15.8581 14.006C15.9353 13.9946 16.9456 13.8506 16.9456 13.8506C16.9456 13.8506 16.9992 13.8505 17.0067 13.8858C17.0149 13.9239 17.0007 13.9523 16.7567 13.9809C16.5127 14.0094 15.8687 14.0899 15.8687 14.0899C15.8687 14.0899 15.8005 14.1013 15.7944 14.0536Z" fill="#FFC221"/>
<path d="M14.9153 15.091C14.9153 15.091 14.8234 15.0207 14.8345 14.9231C14.8456 14.8256 14.8438 14.8135 14.8336 14.7931C14.8336 14.7931 14.8168 14.8028 14.8173 14.8407C14.8178 14.8763 14.8127 14.9133 14.8092 14.9201C14.8092 14.9201 14.7618 14.8392 14.7426 14.8241C14.7426 14.8241 14.7587 14.7394 14.7325 14.7031C14.7062 14.6668 14.6808 14.6645 14.6506 14.6759C14.6089 14.6916 14.5774 14.7303 14.7176 14.8452C14.7176 14.8452 14.7698 14.8868 14.8062 14.9791C14.8426 15.0713 14.9032 15.0857 14.9153 15.091ZM15.371 14.8211C15.371 14.8211 15.3639 14.7659 15.4134 14.6683C15.4629 14.5708 15.4332 14.4983 15.4221 14.4741C15.411 14.4499 15.4043 14.4589 15.4543 14.4169C15.5157 14.3653 15.4306 14.3002 15.5316 14.2098C15.5316 14.2098 15.5983 14.1526 15.6135 14.1292C15.6135 14.1292 15.5064 14.1866 15.4366 14.2154C15.3669 14.2441 15.1002 14.3749 15.1588 14.4626C15.2174 14.5503 15.2114 14.5549 15.2023 14.5912C15.2023 14.5912 15.0437 14.5072 15.0992 14.3711C15.0992 14.3711 15.1244 14.3163 15.1912 14.2547C15.2518 14.1987 15.2154 14.2668 15.3386 14.1964C15.3386 14.1964 15.4366 14.1382 15.4881 14.0596C15.4881 14.0596 15.4235 14.1004 15.4003 14.1072C15.4003 14.1072 15.2578 14.1329 15.2002 14.1934C15.1426 14.2539 15.0204 14.359 15.0618 14.4762C15.0618 14.4762 14.9193 14.4588 14.887 14.3106C14.887 14.3106 14.6233 14.6357 15.177 14.787C15.177 14.787 15.278 14.8139 15.371 14.8211Z" fill="black"/>
<path d="M15.474 14.7837C15.474 14.7837 15.624 14.9136 15.8028 14.9079C15.9817 14.9023 16.0574 14.8546 16.1029 14.7837C16.1029 14.7837 16.1377 14.8387 16.1377 14.875C16.1377 14.875 16.2923 14.7469 16.559 14.858C16.8258 14.9692 16.7439 14.9386 16.803 14.9465C16.803 14.9465 16.6896 14.9264 16.4302 15.0452C16.1635 15.1673 15.4679 15.1257 15.474 14.7837Z" fill="black"/>
<path d="M17.4455 15.4309C17.4455 15.4309 17.5122 15.3117 17.7047 15.3117C17.8971 15.3117 17.9199 15.4002 18.1623 15.4172C18.1623 15.4172 17.8712 15.4993 17.6683 15.424C17.5622 15.3847 17.4668 15.4174 17.4455 15.4309Z" fill="black"/>
<path d="M16.6515 15.0475C16.6515 15.0475 16.9272 15.0795 17.1606 15.0656C17.304 15.0571 17.4592 15.0309 17.3819 15.0795C17.3046 15.128 17.3425 15.1326 17.6729 15.1019C18.0032 15.0713 17.6698 15.1643 17.8971 15.1938C17.8971 15.1938 17.3462 15.4751 16.6515 15.0475Z" fill="black"/>
<path d="M14.9981 14.7837C14.9981 14.7837 15.0011 14.8109 15.0799 14.8461C15.1587 14.8813 15.2011 14.9442 15.2178 14.9783C15.2345 15.0123 15.2746 15.0632 15.3398 15.0794C15.3398 15.0794 15.0618 15.1374 14.9372 14.9928C14.9372 14.9928 14.8428 14.8887 14.9951 14.7837" fill="black"/>
<path d="M16.4772 15.1349C16.4772 15.1349 16.6045 15.1145 16.9288 15.2359C17.2531 15.3572 17.388 15.3266 17.4365 15.3232C17.4365 15.3232 17.2535 15.4188 16.9702 15.294C16.7197 15.1837 16.703 15.2256 16.4772 15.1349Z" fill="black"/>
<path d="M15.2299 14.2093C15.2299 14.2093 15.2974 14.2196 15.3648 14.1436C15.3648 14.1436 15.2739 14.1606 15.2299 14.2093ZM14.7204 14.8139C14.7204 14.8139 14.595 14.7152 14.6753 14.6959C14.6753 14.6959 14.7325 14.6869 14.7204 14.8139Z" fill="#5A3719"/>
<path d="M15.5452 14.8706C15.5452 14.8706 15.8331 15.0453 16.0892 14.8559C16.0892 14.8559 16.1104 14.8763 16.1286 14.9228C16.1286 14.9228 16.3226 14.7356 16.6696 14.9375C16.6696 14.9375 16.627 14.9328 16.4635 15.0033C16.2506 15.0952 15.7179 15.1553 15.5452 14.8706Z" fill="#5A3719"/>
<path d="M17.3803 14.8717C17.3803 14.8717 17.5425 14.8128 17.6925 14.8831C17.8425 14.9534 17.8198 14.9591 17.9198 14.9693C17.9198 14.9693 17.8501 15.0691 17.685 14.9886C17.5198 14.908 17.476 14.8925 17.3803 14.8717ZM17.5607 15.3697C17.5607 15.3697 17.7198 15.2903 17.8956 15.3728C17.9176 15.3831 17.9656 15.4031 18.0107 15.4128C18.0107 15.4128 17.876 15.4545 17.738 15.4116C17.6806 15.3938 17.6349 15.3799 17.5607 15.3697ZM16.7742 15.085C16.7742 15.085 17.1288 15.1178 17.3212 15.0795C17.3212 15.0795 17.0984 15.187 17.6576 15.1371C17.6576 15.1371 17.7819 15.1235 17.7667 15.1428C17.7516 15.1621 17.7425 15.1768 17.8031 15.195C17.8031 15.195 17.3879 15.381 16.7742 15.085Z" fill="#5A3719"/>
<path d="M17.1909 15.4252C17.1909 15.4252 17.0803 15.4184 16.9303 15.3662C16.7803 15.3141 16.7408 15.3583 16.656 15.2948C16.5711 15.2313 16.3999 15.271 16.3681 15.2755C16.3363 15.28 16.2453 15.2755 16.359 15.2018C16.359 15.2018 16.2681 15.1995 16.2332 15.1541C16.2332 15.1541 16.1923 15.1938 16.0392 15.1791C16.0392 15.1791 16.1074 15.2862 15.8331 15.2553C15.8331 15.2553 15.915 15.3504 16.0135 15.3696C16.112 15.3889 16.1531 15.3825 16.2166 15.364C16.2166 15.364 16.1984 15.4468 16.3257 15.4785C16.4529 15.5103 16.4787 15.5352 16.5439 15.5613C16.5439 15.5613 16.553 15.508 16.3832 15.3844C16.3832 15.3844 16.4742 15.3798 16.6045 15.4116C16.7348 15.4434 17.0303 15.5194 17.1909 15.4252ZM17.2596 15.5522C17.2596 15.5522 17.2869 15.6158 17.3708 15.6014C17.4546 15.587 17.5925 15.5625 17.7259 15.6305C17.7259 15.6305 17.7486 15.5171 17.4809 15.5091C17.4809 15.5091 17.3132 15.5182 17.2596 15.5522ZM14.9926 14.8241C14.9926 14.8241 14.8895 14.9087 14.983 14.9969C15.0683 15.0773 15.2002 15.0702 15.2633 15.0679C15.2633 15.0679 15.2254 15.0464 15.1921 14.9965C15.1588 14.9466 15.1576 14.9128 15.0875 14.8808C15.0148 14.8475 15.0062 14.8388 14.9926 14.8241ZM14.8845 14.384C14.8845 14.384 14.7299 14.7095 15.3376 14.79C15.3376 14.79 15.3391 14.7538 15.3633 14.7027C15.3875 14.6516 15.4406 14.5485 15.3906 14.4815C15.3406 14.4146 15.4315 14.4498 15.4451 14.3624C15.4588 14.2751 15.436 14.2876 15.4785 14.2308C15.4785 14.2308 15.2875 14.3 15.2148 14.384C15.1421 14.4679 15.3133 14.5314 15.2118 14.6233C15.2118 14.6233 15.1269 14.5927 15.0769 14.5008C15.0769 14.5008 14.9587 14.5031 14.8845 14.384Z" fill="#5A3719"/>
<path d="M17.814 13.7335C18.0208 13.7023 19.2191 13.5212 19.328 13.5101C19.4472 13.498 19.4928 13.4821 19.532 13.5782C19.5765 13.6871 19.3684 13.6886 19.3684 13.6886L17.9398 13.8505C17.8698 13.8586 17.8541 13.8319 17.8541 13.8319C17.8417 13.8091 17.8178 13.7787 17.8014 13.7588C17.8014 13.7588 17.7825 13.7383 17.814 13.7335Z" fill="#FFC221"/>
<path d="M16.7871 14.0099C16.7871 14.0099 16.7871 14.1529 16.9326 14.174C17.0738 14.1946 17.1223 14.1652 17.1599 14.0909C17.1698 14.0714 17.2131 13.9222 17.1504 13.9108C17.1258 13.9063 17.0821 13.9089 17.0508 13.9222C17.0021 13.943 16.957 13.9674 16.973 13.9918C17.0074 14.0439 17.0141 14.0561 17.0013 14.0598C16.9664 14.0702 16.9407 14.0395 16.9336 14.0182C16.9248 13.9918 16.9529 13.9747 16.8579 13.9887C16.819 13.9945 16.7871 13.9933 16.7871 14.0099Z" fill="#FFC221"/>
<path d="M17.3923 13.9001C17.4666 13.9086 17.461 14.0659 17.3721 14.137C17.2763 14.2135 17.185 14.1861 17.185 14.1861C17.1366 14.1657 17.1427 14.1725 17.1801 14.1158C17.2155 14.0621 17.2322 13.9899 17.2124 13.9396C17.2061 13.9236 17.2235 13.9105 17.2482 13.9052C17.2482 13.9052 17.3155 13.8912 17.3923 13.9001Z" fill="#FFC221"/>
<path d="M17.4569 13.9139C17.4569 13.9139 17.51 13.9807 17.4438 14.1037C17.4438 14.1037 17.4145 14.14 17.4801 14.1347C17.5458 14.1294 17.6923 14.0591 17.6771 13.9691C17.6771 13.9691 17.6721 13.9472 17.6337 13.9494C17.5953 13.9517 17.6266 13.9282 17.6428 13.9237C17.659 13.9192 17.709 13.9007 17.5792 13.8171C17.5792 13.8171 17.5577 13.7978 17.5327 13.8058C17.5129 13.812 17.4438 13.8404 17.4438 13.8806C17.4438 13.8971 17.4569 13.9139 17.4569 13.9139Z" fill="#FFC221"/>
<path d="M17.5989 13.8008C17.5989 13.8008 17.7024 13.8751 17.7019 13.8971C17.7014 13.9192 17.6923 13.9491 17.7196 13.9464C17.7469 13.9438 17.8591 13.9199 17.8282 13.8459C17.7974 13.7717 17.7666 13.7457 17.7146 13.7275C17.6625 13.7094 17.6494 13.734 17.605 13.7676C17.605 13.7676 17.5726 13.7873 17.5989 13.8008ZM17.0387 13.9056C17.0387 13.9056 17.0559 13.8504 16.9629 13.83C16.9629 13.83 17.0023 13.7975 17.0811 13.8149C17.1594 13.8321 17.151 13.8837 17.1504 13.8905C17.1504 13.8905 17.0892 13.8882 17.0387 13.9056ZM17.2407 13.8927C17.2407 13.8927 17.3484 13.8739 17.3963 13.8799C17.3963 13.8799 17.3433 13.7612 17.1998 13.8016C17.1998 13.8016 17.2513 13.8599 17.2407 13.8927ZM17.4251 13.8632C17.4251 13.8632 17.4251 13.8269 17.5165 13.7906C17.5165 13.7906 17.4722 13.7489 17.4105 13.7528C17.3398 13.7574 17.3256 13.7831 17.3256 13.7831C17.3256 13.7831 17.4024 13.8097 17.4251 13.8632ZM17.461 13.7392C17.461 13.7392 17.5176 13.7536 17.5529 13.7838C17.5529 13.7838 17.6065 13.7253 17.6519 13.7128C17.6519 13.7128 17.563 13.6651 17.461 13.7392Z" fill="#FFC221"/>
<path d="M14.4872 13.453C14.4872 13.453 14.7368 13.2415 14.8766 13.267C15.0165 13.2924 14.9463 13.2749 15.0994 13.2511C15.2525 13.2273 15.4101 13.2114 15.4737 13.2193C15.4737 13.2193 15.2888 13.0866 14.9585 13.0889C14.9585 13.0889 14.7251 13.1694 14.5644 13.276C14.5644 13.276 14.2553 13.1036 13.9355 13.2069C13.9355 13.2069 14.2826 13.3327 14.4872 13.453Z" fill="#5A3719"/>
<path d="M17.1364 13.8202L17.1781 13.8132C17.1781 13.8132 17.2484 13.9003 17.1973 13.9013C17.1574 13.9021 17.1735 13.889 17.166 13.8637C17.1584 13.8384 17.1448 13.827 17.1364 13.8202ZM16.8227 13.827C16.8227 13.827 16.7977 13.8581 16.8447 13.8508C16.9019 13.842 16.8909 13.8528 16.9538 13.8102C16.9538 13.8102 16.9925 13.7692 17.0644 13.7947C17.0644 13.7947 17.1251 13.8146 17.1743 13.7907C17.2235 13.7669 17.2349 13.7686 17.2614 13.7709C17.2879 13.7732 17.2862 13.7789 17.3215 13.753C17.3569 13.7272 17.4183 13.7471 17.4569 13.7147C17.4956 13.6824 17.5441 13.7096 17.4569 13.6472C17.4569 13.6472 17.4387 13.6291 17.4403 13.6138C17.4403 13.6138 17.4736 13.6234 17.5001 13.6472C17.5266 13.6711 17.5706 13.6637 17.5782 13.6597C17.5782 13.6597 17.5827 13.582 17.66 13.5106C17.7373 13.4391 17.738 13.4334 17.6926 13.4329C17.6471 13.4323 17.5706 13.4147 17.5448 13.4329C17.5191 13.451 17.2925 13.5996 17.1607 13.6245C17.0288 13.6495 16.9076 13.6869 16.8227 13.827ZM13.3047 13.0142C13.3047 13.0142 13.7093 13.1185 13.8002 13.1624C13.8002 13.1624 13.8219 13.0947 13.6381 13.0418C13.6381 13.0418 14.0846 13.0281 14.5574 13.2429C14.5574 13.2429 14.7853 13.0475 15.5188 13.108C15.5188 13.108 15.5202 13.0432 15.5253 12.9934C15.5253 12.9934 15.01 12.9783 14.5372 12.6909C14.5372 12.6909 14.1139 12.8992 13.3047 13.0142ZM15.5536 13.2096C15.5253 12.796 15.6839 12.759 15.6839 12.759C15.6839 12.759 15.7586 12.7594 15.8395 12.7718C15.8395 12.7718 15.7142 12.9208 15.7475 13.2164C15.7475 13.2164 15.7607 13.2641 15.6546 13.2641C15.5502 13.2641 15.5536 13.2096 15.5536 13.2096Z" fill="#FFC221"/>
<path d="M15.6614 13.4841C15.6614 13.4841 15.5843 13.4051 15.5762 13.3139C15.5762 13.3139 15.5741 13.2904 15.6523 13.2926C15.7305 13.2949 15.7407 13.2851 15.7599 13.3306C15.7786 13.3749 15.8279 13.4681 15.8401 13.4788L15.6614 13.4841Z" fill="#5A3719"/>
<path d="M15.8264 13.2795C15.8193 13.2251 15.8166 13.1787 15.8178 13.1215C15.8229 12.8898 15.8614 12.9104 15.8766 12.9393L15.9559 12.9407C15.9559 12.9407 15.898 12.6794 15.83 12.8321C15.7632 12.9821 15.7681 13.0797 15.7762 13.1983C15.7809 13.2665 15.7899 13.309 15.7975 13.3346L15.8264 13.2795Z" fill="#FFC221"/>
<path d="M16.7187 13.2773C16.7187 13.2773 16.871 13.3005 16.6376 13.3561C16.6376 13.3561 16.649 13.6381 16.9248 13.4406C16.9248 13.4406 17.0877 13.3365 17.2006 13.2941C17.2006 13.2941 17.2574 13.2744 17.2506 13.2319C17.2506 13.2319 17.2551 13.1818 17.196 13.1916C17.196 13.1916 17.1495 13.1927 17.1195 13.1818C17.1195 13.1818 17.0869 13.1434 17.0649 13.1582C17.043 13.1729 16.9914 13.1644 17.0316 13.2132C17.0718 13.2619 17.0839 13.2495 17.1036 13.2353C17.1233 13.2211 17.2104 13.1865 17.1301 13.2585C17.0498 13.3305 16.9869 13.2188 16.9611 13.1984L16.7187 13.2773ZM15.9564 13.3092L15.8887 13.3077C15.8887 13.3077 15.8524 13.3622 15.8276 13.2767L15.7988 13.3315C15.7988 13.3315 15.8827 13.6343 15.9564 13.3092Z" fill="#5A3719"/>
<path d="M15.8644 12.9594C15.8644 12.9594 15.8301 13.1575 15.8735 13.28L16.606 13.2936C16.606 13.2936 16.5969 13.1514 16.608 12.9594H16.504C16.504 12.9594 16.4898 13.1189 16.503 13.2172L16.4858 13.2176C16.4858 13.2176 16.4727 13.0796 16.4868 12.9594H16.4009C16.4009 12.9594 16.3868 13.1069 16.3979 13.2188H16.3817C16.3817 13.2188 16.3696 13.0895 16.3837 12.9594H16.2989C16.2989 12.9594 16.2833 13.0929 16.3 13.2169L16.2797 13.2165C16.2797 13.2165 16.2625 13.0811 16.2807 12.9594H16.1867C16.1867 12.9594 16.1635 13.0842 16.1857 13.218H16.1665C16.1665 13.218 16.1453 13.0902 16.1686 12.9594H16.0746C16.0746 12.9594 16.0524 13.1008 16.0716 13.218H16.0534C16.0534 13.218 16.0382 13.0811 16.0584 12.9594H15.9705C15.9705 12.9594 15.9473 13.0789 15.9665 13.218H15.9473C15.9473 13.218 15.9331 13.1144 15.9513 12.9594H15.8644V12.9594ZM16.6383 13.3208C16.6383 13.3208 16.6181 12.9624 16.6868 12.8702C16.7556 12.778 16.7697 12.7961 16.8869 12.8702C17.004 12.9443 17.1556 13.0244 17.1798 13.0335C17.2041 13.0426 17.2384 13.0516 17.2384 13.1167C17.2384 13.1817 17.2506 13.2014 17.1495 13.1197C17.1344 13.1075 17.0872 13.0642 17.0531 13.0534C16.9625 13.0245 17.0748 13.0736 17.1071 13.1197C17.1345 13.1588 17.1556 13.1545 17.0849 13.1727C17.0142 13.1908 16.7697 13.2724 16.6383 13.3208Z" fill="#FFC221"/>
<path d="M16.8978 13.065C16.8978 13.065 16.8445 12.9977 16.9123 12.9823C16.98 12.9669 16.9854 13.0888 16.9968 13.1623C17.0082 13.2358 16.9115 13.0881 16.8978 13.065ZM16.7989 13.3789C16.7989 13.3789 16.7197 13.4079 16.7715 13.4336C16.8232 13.4592 16.9694 13.3378 16.9192 13.3458C16.8689 13.3538 16.7989 13.3789 16.7989 13.3789ZM16.9062 13.2678C16.9062 13.2678 16.9762 13.2609 16.9626 13.2911C16.9488 13.3213 16.9237 13.3021 16.9131 13.2955C16.9024 13.2888 16.8529 13.2717 16.9062 13.2678Z" fill="black"/>
<path d="M17.2685 13.1753C17.2685 13.1753 17.2873 13.3125 17.4051 13.3472C17.4051 13.3472 17.4731 13.3641 17.4589 13.3041C17.4589 13.3041 17.4472 13.254 17.4376 13.2331C17.4279 13.2122 17.3807 13.1989 17.3756 13.1966C17.3705 13.1944 17.3645 13.1799 17.397 13.1906C17.4294 13.2012 17.4345 13.2023 17.432 13.1795C17.4294 13.1567 17.4103 13.1659 17.3805 13.1513C17.369 13.1457 17.3817 13.1381 17.3939 13.1408C17.4061 13.1435 17.435 13.1522 17.4355 13.1051C17.4355 13.1051 17.442 13.0789 17.4061 13.077C17.367 13.0749 17.3701 13.0574 17.3823 13.0548C17.3944 13.0521 17.4353 13.0805 17.4467 13.0339C17.4584 12.986 17.3904 13.0136 17.3995 12.9889C17.4086 12.9642 17.4568 13.003 17.4608 12.9737C17.4647 12.9452 17.5037 12.9328 17.4373 12.9236C17.4059 12.9192 17.435 12.9053 17.4703 12.9102C17.5081 12.9156 17.531 12.8688 17.5528 12.8536C17.5746 12.8384 17.698 12.7648 17.5335 12.7891C17.3691 12.8133 17.3209 12.8931 17.3102 12.9091C17.2995 12.925 17.2538 13.0192 17.2685 13.1753Z" fill="#FFC221"/>
<path d="M17.6515 13.28C17.6726 13.2759 17.6926 13.2817 17.6998 13.2964C17.7269 13.3519 17.6648 13.3321 17.6303 13.3731C17.5957 13.4142 17.5947 13.4058 17.546 13.3914C17.4973 13.3771 17.479 13.3032 17.479 13.3032C17.4736 13.2806 17.4946 13.2786 17.5199 13.2815C17.5198 13.2815 17.6006 13.2898 17.6515 13.28ZM17.4734 13.2504C17.4734 13.2504 17.4768 13.2671 17.5047 13.2693C17.5326 13.2716 17.6137 13.2786 17.662 13.2631C17.662 13.2631 17.6797 13.2596 17.6717 13.2282C17.6717 13.2282 17.6711 13.2078 17.6277 13.2161C17.5843 13.2243 17.5215 13.2161 17.5006 13.2115C17.4796 13.2069 17.4626 13.2119 17.4734 13.2504ZM17.4668 13.1509C17.4668 13.1509 17.4653 13.1942 17.5089 13.1999C17.5526 13.2056 17.6069 13.2054 17.6296 13.2009C17.6468 13.1975 17.6779 13.1912 17.6805 13.1657C17.683 13.1403 17.6901 13.1213 17.6363 13.1346C17.5825 13.1479 17.5176 13.1392 17.511 13.1376C17.5044 13.1361 17.4678 13.1251 17.4668 13.1509ZM17.4866 13.0635C17.4866 13.0635 17.4759 13.0833 17.4775 13.1023C17.479 13.1213 17.5105 13.1277 17.5673 13.1285C17.6242 13.1293 17.6749 13.1209 17.6784 13.1019C17.682 13.0829 17.6957 13.0609 17.6511 13.0677C17.6064 13.0746 17.55 13.0765 17.5277 13.0674C17.5054 13.0582 17.4904 13.0551 17.4866 13.0635Z" fill="#FFC221"/>
<path d="M19.5654 13.2824C19.5654 13.2824 19.5647 13.3218 19.5957 13.3607L18.0254 13.3156C18.0254 13.3156 18.0483 13.3014 18.0542 13.2402L19.5654 13.2824Z" fill="#5A3719"/>
<path d="M17.5012 12.9973C17.5012 12.9973 17.4875 13.037 17.5158 13.045C17.5441 13.0529 17.5926 13.0616 17.6568 13.0514C17.6568 13.0514 17.6891 13.0537 17.7002 13.0193C17.7113 12.9849 17.7102 13.0042 17.6188 12.986C17.6188 12.986 17.5901 12.9776 17.6734 12.9773C17.6734 12.9773 17.7199 12.9788 17.727 12.9709C17.7341 12.9629 17.7957 12.9141 17.7159 12.9172C17.6361 12.9202 17.6755 12.9032 17.7159 12.9032C17.7563 12.9032 17.7689 12.9115 17.782 12.8986C17.7952 12.8858 17.783 12.8945 17.7613 12.8725C17.7396 12.8506 17.7547 12.857 17.7704 12.8691C17.7861 12.8812 17.7957 12.885 17.8133 12.8695C17.831 12.854 17.7997 12.8313 17.8133 12.834C17.827 12.8366 17.8336 12.8625 17.8851 12.8375C17.9366 12.8126 18.0063 12.8256 18.0252 12.8398C18.0442 12.854 18.098 12.8721 18.1306 12.8387C18.1631 12.8052 18.0919 12.778 18.1222 12.7734C18.1526 12.7689 18.1738 12.7797 18.1859 12.7553C18.198 12.7309 18.1389 12.7076 18.1957 12.6923C18.2526 12.677 18.2048 12.5177 18.1851 12.5029C18.1851 12.5029 18.1215 12.5404 18.0518 12.6532C17.982 12.7661 17.9411 12.8319 17.8464 12.7973C17.7098 12.7474 17.6399 12.8191 17.6188 12.832C17.586 12.8521 17.6873 12.8619 17.6282 12.863C17.5691 12.8642 17.5691 12.8693 17.5631 12.8784C17.557 12.8874 17.5623 12.8954 17.5729 12.8959C17.5835 12.8965 17.6062 12.9192 17.5699 12.918C17.5335 12.9169 17.5077 12.9112 17.5184 12.9499C17.5184 12.9499 17.5191 12.9583 17.5403 12.9606C17.5615 12.9628 17.5691 12.985 17.5297 12.985C17.5044 12.985 17.5019 12.9948 17.5012 12.9973ZM17.6464 13.3911C17.6464 13.3911 17.6183 13.4109 17.657 13.4132C17.6956 13.4154 17.7161 13.4228 17.7282 13.4021C17.7403 13.3814 17.7926 13.3899 17.7578 13.361C17.7229 13.3321 17.6994 13.3485 17.6464 13.3911Z" fill="#FFC221"/>
<path d="M17.8057 12.9196C17.8057 12.9196 17.9371 12.7959 18.0469 12.8797C18.1567 12.9635 18.1673 12.976 18.1689 12.9777C18.1704 12.9794 18.1818 12.9885 18.1521 13.0148C18.1224 13.041 18.1513 13.0404 18.1841 13.0244C18.2168 13.0085 18.2191 13.0233 18.2351 13.041C18.251 13.0586 18.2724 13.0689 18.2218 13.0695C18.1711 13.07 18.0623 13.0695 18.0623 13.0695C18.0623 13.0695 17.9884 13.0757 18.0257 13.0455C18.063 13.0153 18.0577 12.9794 18.0387 12.9772C18.0196 12.9749 18.0371 12.9954 18.0257 13.0096C18.0143 13.0239 17.9884 13.037 17.9625 13.0364C17.9367 13.0359 17.9138 13.0552 17.9549 13.07C17.996 13.0848 17.9503 13.0946 17.929 13.094C17.9077 13.0934 17.8049 13.102 17.9093 13.1145C18.0136 13.127 17.8998 13.124 17.9762 13.1677C18.0607 13.2159 17.9998 13.3185 17.9679 13.3276C17.9679 13.3276 17.9329 13.3467 17.977 13.3414C18.0212 13.3362 18.0455 13.3299 18.0143 13.3538C17.9831 13.3777 17.9207 13.4575 17.8339 13.3965C17.8339 13.3965 17.7943 13.3778 17.8651 13.3743C17.9359 13.3709 17.8073 13.3558 17.786 13.3414C17.7647 13.327 17.6832 13.2438 17.7342 13.2541C17.7852 13.2644 17.7669 13.2347 17.7365 13.2239C17.706 13.2131 17.6999 13.1663 17.7342 13.1766C17.7684 13.1869 17.8088 13.206 17.8362 13.2047C17.8636 13.2034 17.856 13.192 17.7974 13.1738C17.7387 13.1555 17.7144 13.1527 17.7281 13.1031C17.7418 13.0535 17.8057 13.1225 17.7905 13.0854C17.7753 13.0484 17.7197 13.0666 17.7494 13.0176C17.7791 12.9686 17.786 12.9897 17.7997 12.996C17.8134 13.0023 17.8353 12.9976 17.7966 12.9686C17.7722 12.9503 17.7988 12.9256 17.8057 12.9196Z" fill="#FFC221"/>
<path d="M17.9023 12.9542C17.9023 12.9542 17.9016 12.9374 17.9255 12.9403C17.9495 12.9432 17.9433 12.9316 17.9502 12.9281C17.9572 12.9246 18.0171 12.946 17.9611 12.9663C17.9403 12.9738 17.9078 12.9684 17.9023 12.9542Z" fill="black"/>
<path d="M18.0268 13.0933C18.0268 13.0933 17.9826 13.1158 18.0226 13.1621C18.0567 13.2017 18.0565 13.2142 18.0537 13.2405C18.0508 13.2668 19.5649 13.2826 19.5649 13.2826C19.5649 13.2826 19.5623 13.1854 19.6271 13.1307C19.6271 13.1307 18.7997 13.1114 18.0268 13.0933Z" fill="#FFC221"/>
<path d="M19.5886 13.2562C19.5886 13.2562 19.5948 13.1738 19.6404 13.1465C19.6655 13.1314 19.6986 13.1402 19.7131 13.2066C19.7337 13.3011 19.6536 13.3815 19.6164 13.3456C19.581 13.3115 19.5886 13.2562 19.5886 13.2562Z" fill="#5A3719"/>
<path d="M17.8551 13.6098C17.8551 13.6098 17.9559 13.5241 17.9711 13.4855C17.9711 13.4855 18.2439 13.6788 18.2272 13.5014C18.2272 13.5014 18.228 13.4538 18.2355 13.4084C18.2355 13.4084 18.3341 13.4181 18.3492 13.3394L18.0946 13.3319C18.0946 13.3319 18.068 13.3262 18.0286 13.3687C17.9892 13.4113 17.9082 13.4578 17.8324 13.4172C17.8324 13.4172 17.8007 13.3897 17.7684 13.4129C17.7361 13.4362 17.7346 13.443 17.7612 13.468C17.7877 13.4929 17.8445 13.5695 17.8551 13.6098ZM18.4409 13.0761L18.2916 13.0704C18.2916 13.0704 18.237 12.9939 18.131 12.9088C18.131 12.9088 18.0999 12.8952 18.1597 12.8476C18.2196 12.7999 18.237 12.7489 18.2393 12.7256C18.2416 12.7024 18.2355 12.6661 18.2583 12.6939C18.281 12.7217 18.4356 12.8612 18.4575 12.8198C18.4795 12.7784 18.4833 12.7591 18.4871 12.7466C18.4909 12.7341 18.4962 12.6956 18.5182 12.7358C18.5401 12.7761 18.5552 12.7658 18.5561 12.8702C18.5561 12.8702 18.5598 12.9735 18.5758 13.0109C18.5757 13.0109 18.3802 12.9483 18.4409 13.0761ZM17.793 12.7585C17.793 12.7585 17.9066 12.822 17.9627 12.7358C18.0188 12.6496 18.0567 12.636 18.0143 12.5532C17.9718 12.4704 18.0154 12.4319 18.0474 12.3978C18.0794 12.3638 18.1067 12.3695 18.1112 12.2379C18.1158 12.1063 18.2067 12.0621 18.2476 12.0213C18.2886 11.9804 18.3916 11.918 18.2355 11.892C18.0794 11.8659 17.7703 11.7853 17.69 11.6651C17.6096 11.5449 17.5733 11.6164 17.5718 11.6209C17.5702 11.6254 17.5445 11.7139 17.6248 11.8738C17.7051 12.0338 17.7733 12.1366 17.8506 12.1884C17.9279 12.2402 17.9976 12.2685 17.9582 12.3752C17.9188 12.4818 17.8506 12.6723 17.793 12.7585Z" fill="#7B3C20"/>
<path d="M18.2169 12.4185C18.2169 12.4185 18.2366 12.6919 18.4366 12.7894C18.4366 12.7894 18.4821 12.6828 18.4639 12.5773C18.4639 12.5773 18.5291 12.583 18.5473 12.6125C18.5473 12.6125 18.5503 12.5331 18.4563 12.5042C18.3624 12.4752 18.4078 12.2972 18.4412 12.2768C18.4745 12.2563 18.4639 12.2208 18.4412 12.1887C18.4184 12.1565 18.4124 12.1078 18.4912 12.1282C18.57 12.1486 18.5578 12.1066 18.5109 12.068C18.4639 12.0295 18.4654 11.9819 18.5321 11.9819C18.5988 11.9819 18.7094 11.9172 18.6427 11.8968C18.576 11.8764 18.5548 11.8548 18.6457 11.8287C18.7367 11.8026 18.7806 11.7697 18.7124 11.7618C18.6442 11.7539 18.5988 11.7301 18.6654 11.7187C18.7321 11.7074 18.6533 11.6393 18.576 11.6359C18.4987 11.6325 18.332 11.6643 18.4639 11.5588C18.5957 11.4533 18.2744 11.5305 18.4063 11.4613C18.5381 11.3921 18.3623 11.4227 18.3381 11.4216C18.3139 11.4204 18.3141 11.4216 18.3231 11.3864C18.332 11.3512 18.3047 11.3353 18.2669 11.3569C18.229 11.3784 18.229 11.3784 18.2305 11.3297C18.232 11.2809 18.185 11.3172 18.1562 11.3297C18.1275 11.3422 18.0547 11.3966 18.0259 11.3671C17.9971 11.3376 17.9804 11.307 17.891 11.3614C17.8016 11.4159 17.8229 11.3671 17.8244 11.3433C17.8259 11.3195 17.8592 11.2253 17.7365 11.3263C17.6137 11.4272 17.7138 11.2174 17.6168 11.2888C17.5198 11.3603 17.5092 11.3728 17.494 11.341C17.4788 11.3092 17.4605 11.2832 17.3537 11.3512C17.247 11.4193 17.3258 11.3104 17.3409 11.2866C17.3561 11.2628 17.4016 11.1085 17.3076 11.2287C17.3076 11.2287 17.2621 11.3127 17.1606 11.163C17.1606 11.163 17.053 11.3117 17.0257 11.2458C16.9984 11.18 16.9711 11.1732 16.9363 11.2163C16.9014 11.2594 16.9272 11.214 16.9121 11.1777C16.8969 11.1414 16.8878 11.0745 16.709 11.2049C16.5302 11.3353 16.7711 11.2401 16.6348 11.2991C16.4984 11.358 16.1695 11.544 16.4711 11.501C16.7727 11.4579 16.3241 11.6189 16.4287 11.6484C16.5332 11.6779 16.4999 11.7686 16.8924 11.6609C17.2849 11.5531 17.2212 11.6439 17.4212 11.5577C17.6213 11.4715 17.3758 11.5872 17.644 11.5815C17.9123 11.5758 17.6895 11.5826 17.741 11.6382C17.7925 11.6938 18.0198 11.8253 18.232 11.8469C18.4442 11.8684 18.4957 11.7891 18.4351 11.8809C18.3744 11.9728 18.3532 12.008 18.3169 12.0397C18.2805 12.0715 18.1805 12.1441 18.179 12.2711C18.1774 12.3981 18.0123 12.4186 18.0729 12.5592C18.0729 12.5592 18.1669 12.4684 18.2169 12.4185Z" fill="#5A3719"/>
<path d="M18.5626 12.7246C18.5626 12.7246 18.5141 12.6905 18.5151 12.63C18.5151 12.63 18.5495 12.6361 18.5626 12.658C18.5626 12.658 18.6849 12.5196 18.5389 12.4698C18.3929 12.4198 18.4656 12.2875 18.5151 12.2868C18.5646 12.286 18.5732 12.2724 18.5316 12.2172C18.4899 12.162 18.4929 12.1597 18.5757 12.1454C18.6586 12.131 18.6473 12.1136 18.6105 12.0932C18.5737 12.0728 18.5455 12.0395 18.5455 12.0395C18.5455 12.0395 18.7798 11.9374 18.704 11.8906C18.6282 11.8437 18.704 11.8558 18.7717 11.8074C18.8394 11.759 18.8485 11.7499 18.8586 11.731C18.8586 11.731 18.7917 11.7378 18.7423 11.728C18.7423 11.728 18.8008 11.6992 18.7423 11.6516C18.6838 11.6039 18.6596 11.5608 18.5666 11.5828C18.4737 11.6047 18.504 11.5737 18.5404 11.5351C18.5767 11.4965 18.5595 11.4746 18.4939 11.4648C18.4939 11.4648 18.502 11.4255 18.5515 11.3763C18.5515 11.3763 18.4252 11.3854 18.3828 11.3635C18.3828 11.3635 18.4333 11.3287 18.4373 11.2871C18.4373 11.2871 18.3676 11.3098 18.2797 11.3015C18.2797 11.3015 18.3313 11.2568 18.3313 11.2175C18.3313 11.2175 18.1787 11.2515 18.108 11.3052C18.108 11.3052 18.0928 11.3022 18.0807 11.2856C18.0686 11.2689 18.0595 11.2523 17.8908 11.306C17.8908 11.306 17.91 11.2311 17.9504 11.2009C17.9908 11.1706 17.9847 11.1101 17.7221 11.2742C17.7221 11.2742 17.6867 11.253 17.6574 11.1744C17.6574 11.1744 17.6008 11.2546 17.5574 11.2818C17.5574 11.2818 17.521 11.297 17.5256 11.2459C17.5301 11.1948 17.4998 11.2312 17.4725 11.2459C17.4452 11.2606 17.427 11.2969 17.4407 11.1937C17.4543 11.0905 17.4043 11.0689 17.4043 11.0689C17.4043 11.0689 17.3225 11.1846 17.2755 11.1971C17.2755 11.1971 17.1891 11.1132 17.1588 11.0576C17.1285 11.002 17.1285 10.9816 17.0982 11.078C17.0679 11.1744 17.03 11.1823 17.03 11.1823C17.03 11.1823 16.9785 11.1381 16.9724 11.1143C16.9724 11.1143 16.9633 11.1404 16.9467 11.1517C16.9467 11.1517 16.9012 11.0984 16.9027 11.0213C16.9027 11.0213 16.6209 11.1767 16.586 11.2708C16.586 11.2708 16.3193 11.2549 16.2087 11.2754C16.2087 11.2754 16.2359 11.1892 16.3057 11.1461C16.3057 11.1461 16.236 11.1381 16.2329 11.0667C16.2329 11.0667 16.289 11.0746 16.3239 11.0655C16.3587 11.0565 16.2754 10.9555 16.3633 10.9532C16.4512 10.951 16.5072 10.9952 16.4678 10.8784C16.4284 10.7616 16.4466 10.7616 16.4466 10.7616C16.4466 10.7616 16.5997 10.8523 16.6239 10.8296C16.6482 10.8069 16.6042 10.7582 16.7406 10.7809C16.877 10.8035 16.8391 10.7253 16.8921 10.7219C16.9452 10.7185 16.974 10.7559 16.9406 10.5087C16.9073 10.2614 17.1058 10.6312 16.9709 10.258C16.9709 10.258 16.9368 10.1451 16.8558 10.0969C16.8558 10.0969 16.8376 10.1786 16.7459 10.1066C16.6542 10.0345 16.4739 10.009 16.5497 9.95233C16.6254 9.89561 16.661 9.81963 16.6391 9.77198C16.6391 9.77198 16.5497 9.86539 16.3943 9.79864C16.2716 9.74589 16.2458 9.84288 16.12 9.81452C16.12 9.81452 16.1223 9.7822 16.2284 9.69883C16.3345 9.61545 16.167 9.72663 16.1011 9.74136C16.0352 9.7561 16.0162 9.74421 16.1557 9.63644C16.2951 9.5287 16.5709 9.33814 16.533 9.18161C16.533 9.18161 16.5981 9.2644 16.7694 9.2043C16.9406 9.1442 17.0679 9.12263 17.1195 9.03417C17.171 8.94569 17.3059 8.85609 17.3407 8.8368C17.3756 8.81752 17.4226 8.80392 17.3695 8.88785C17.3165 8.97179 17.2301 9.11584 16.9937 9.21337C16.7573 9.31092 16.6664 9.38238 16.6239 9.43341C16.5815 9.48446 16.3663 9.59901 16.5057 9.57972C16.6452 9.56044 16.8876 9.58313 16.774 9.55022C16.6603 9.51734 16.5315 9.57062 16.6361 9.47536C16.7406 9.38009 16.7588 9.34833 16.9103 9.2848C17.0619 9.22127 17.2301 9.0761 17.2134 9.23034C17.1967 9.38459 16.9149 9.54908 16.8452 9.59896C16.7755 9.64886 16.8012 9.64094 16.8028 9.66134C16.8043 9.68175 16.7921 9.72373 16.7634 9.74301C16.7346 9.7623 16.7436 9.78385 16.7512 9.82695C16.7588 9.87004 16.7436 9.88707 16.7649 9.89385C16.7861 9.90064 16.8073 9.90407 16.8134 9.93469C16.8194 9.96531 16.8353 9.96927 16.8763 9.96587C16.9172 9.96246 16.9429 9.96643 16.946 9.99026C16.949 10.0141 16.9876 10.0464 16.9922 9.97382C16.9967 9.90122 17.0232 9.88704 16.949 9.92051C16.8747 9.95398 16.8588 9.94206 16.8603 9.90747C16.8619 9.87289 16.8535 9.88082 16.8225 9.87797C16.7914 9.87512 16.7808 9.83147 16.8361 9.80255C16.8914 9.77363 16.8907 9.80311 16.9596 9.74583C17.0286 9.68856 17.0286 9.67267 17.0392 9.64602C17.0498 9.61936 16.9407 9.72373 16.8884 9.74754C16.8361 9.77135 16.8498 9.73109 16.8589 9.67153C16.868 9.61197 16.9983 9.53428 17.0581 9.53314C17.118 9.532 17.2529 9.56717 17.1945 9.64884C17.1362 9.73051 16.971 9.82748 17.0422 9.83485C17.1135 9.84222 17.1248 9.81444 17.1658 9.85073C17.2067 9.88702 17.1688 9.96076 17.1498 9.99989C17.1309 10.039 17.0915 10.0884 17.0741 10.0974C17.0741 10.0974 16.9991 9.96361 17.0013 10.0696C17.0036 10.1757 16.9854 10.2137 17.0013 10.2177C17.0173 10.2216 17.1006 10.2772 17.1271 10.2783C17.1536 10.2795 16.9831 10.3583 17.0544 10.3634C17.1256 10.3685 17.2385 10.3322 17.2779 10.2585C17.2779 10.2585 17.1332 10.2233 17.0748 10.1689C17.0748 10.1689 17.2438 10.1292 17.1969 9.96645C17.1969 9.96645 17.3651 10.0124 17.2923 10.0884C17.2196 10.1644 17.1756 10.153 17.2385 10.1746C17.3014 10.1961 17.3325 10.2143 17.3325 10.2143C17.3325 10.2143 17.3755 10.2358 17.3506 10.271C17.3257 10.3061 17.3249 10.3595 17.3461 10.3583C17.3673 10.3572 17.4386 10.3243 17.3787 10.288C17.3189 10.2517 17.4469 10.2579 17.3924 10.2273C17.3378 10.1967 17.3234 10.1893 17.309 10.1746C17.2946 10.1598 17.994 9.7498 17.6409 9.90348C17.6409 9.90348 17.7144 9.74413 17.8174 9.74354C17.9205 9.74296 17.928 9.82463 17.8697 9.88646C17.8114 9.94828 17.7735 10.0447 17.6363 10.0674C17.6363 10.0674 17.8323 10.1634 17.6007 10.3203C17.6007 10.3203 17.5505 10.3441 17.5686 10.3615C17.5868 10.3789 17.7242 10.301 17.7434 10.2572C17.7626 10.2133 17.7919 10.1793 17.8445 10.1536C17.897 10.1279 18.1556 9.95169 18.2334 9.81859C18.3112 9.6855 18.3324 9.68097 18.484 9.55924C18.6355 9.4375 18.6092 9.46168 18.6284 9.43221C18.6477 9.40273 18.6557 9.35431 18.7254 9.31499C18.7952 9.27568 19.0659 9.12521 19.1508 9.06394C19.2356 9.0027 19.4094 8.89004 19.4842 8.79474C19.5589 8.69948 19.7603 8.57777 19.8105 8.60041C19.8607 8.62305 19.8054 8.69418 19.6872 8.78416C19.569 8.87413 19.276 9.11082 19.2286 9.1471C19.1811 9.18339 18.9325 9.36488 18.8396 9.37698C18.7466 9.38908 18.7568 9.42159 18.7012 9.48209C18.6456 9.54258 18.5173 9.66961 18.4739 9.70441C18.4304 9.73918 18.3274 9.81027 18.3213 9.86017C18.3152 9.91008 18.3395 9.91612 18.2567 9.99401C18.1738 10.0719 17.9314 10.2481 17.8435 10.2761C17.8435 10.2761 17.999 10.3275 17.9061 10.4326C17.8131 10.5377 17.8192 10.5226 17.8121 10.5294C17.8121 10.5294 18.0484 10.4946 17.8808 10.6783C17.8808 10.6783 17.8485 10.7313 17.9233 10.6761C18.0032 10.6171 17.9687 10.5362 17.9596 10.5248C17.9596 10.5248 18.0849 10.4469 18.2294 10.4447C18.3739 10.4424 18.3688 10.4326 18.2395 10.3955C18.2395 10.3955 18.3314 10.2836 18.4092 10.3388C18.487 10.394 18.4618 10.4258 18.3799 10.4696C18.2981 10.5135 18.1769 10.5316 18.0869 10.5815C18.0869 10.5815 18.2577 10.6148 18.3496 10.5452C18.4416 10.4757 18.4456 10.5105 18.4577 10.5225C18.4698 10.5346 18.4799 10.5573 18.4395 10.6155C18.3991 10.6738 18.3951 10.6768 18.3971 10.6897C18.3991 10.7025 18.394 10.7426 18.3112 10.7562C18.2284 10.7698 18.191 10.8046 18.2193 10.8439C18.2475 10.8832 18.2486 10.9808 18.1778 10.9717C18.1071 10.9626 18.1263 10.9067 18.099 10.8847C18.0718 10.8628 18.0334 10.8288 17.9101 10.8931C17.7869 10.9573 17.7767 10.881 17.7828 10.8409C17.7828 10.8409 17.703 10.9105 17.6363 10.8462C17.5696 10.7819 17.6302 10.757 17.6686 10.7245C17.707 10.6919 17.8636 10.6239 17.7697 10.636C17.6757 10.6481 17.5353 10.6541 17.5029 10.5815C17.4706 10.5089 17.5726 10.5173 17.5888 10.5241C17.605 10.5309 17.6717 10.5846 17.6737 10.5142C17.6757 10.4439 17.7798 10.4363 17.7444 10.422C17.709 10.4076 17.6595 10.4522 17.6454 10.4696C17.6454 10.4696 17.5726 10.3683 17.4555 10.4016C17.3383 10.4349 17.4928 10.4212 17.5241 10.4265C17.5555 10.4318 17.5373 10.4901 17.4322 10.5846C17.3271 10.6791 17.3746 10.6504 17.4524 10.6504C17.5302 10.6504 17.7212 10.6511 17.61 10.7419C17.4989 10.8326 17.4545 10.878 17.3969 10.8621C17.3393 10.8462 17.4039 10.8084 17.4292 10.7925C17.4544 10.7766 17.4696 10.7486 17.415 10.7691C17.3605 10.7895 17.3413 10.7933 17.2978 10.7161C17.2544 10.639 17.2726 10.6617 17.2908 10.611C17.309 10.5604 17.3514 10.5067 17.3009 10.5256C17.2504 10.5445 17.2554 10.546 17.2594 10.4878C17.2635 10.4295 17.2019 10.4167 17.2019 10.4167C17.2019 10.4167 17.2261 10.4749 17.2039 10.512C17.1817 10.549 17.1807 10.5619 17.217 10.5717C17.2534 10.5815 17.2877 10.6125 17.2382 10.6465C17.1887 10.6806 17.1948 10.676 17.2261 10.6964C17.2574 10.7168 17.3029 10.7403 17.2544 10.7879C17.2059 10.8356 17.2463 10.8212 17.2705 10.8212C17.2948 10.8212 17.3497 10.8416 17.3505 10.8885C17.3514 10.9354 17.3473 10.9468 17.4261 10.9029C17.5049 10.859 17.6625 10.8643 17.6605 10.9256C17.6585 10.9868 17.6403 11.002 17.7242 10.9498C17.808 10.8976 17.8454 10.9989 17.903 10.9498C17.9606 10.9006 17.9969 10.853 18.0636 10.9369C18.1303 11.0209 18.1095 11.0462 18.0283 11.1055C17.947 11.1648 18.0677 11.1192 18.1293 11.0874C18.1909 11.0556 18.3637 11.0345 18.4627 11.0783C18.5617 11.1222 18.59 11.1124 18.6627 11.0821C18.7354 11.0519 18.7728 11.0451 18.883 11.1184C18.9931 11.1917 19.0789 11.2054 19.1365 11.2038C19.1365 11.2038 19.0143 11.2515 18.8769 11.2606C18.7395 11.2696 18.6708 11.2953 18.6435 11.3165C18.6435 11.3165 18.7262 11.3664 18.7424 11.4277C18.7424 11.4277 18.8325 11.4156 18.8769 11.4337C18.8769 11.4337 18.8537 11.4987 18.9092 11.5335C18.9648 11.5683 19.0032 11.5812 18.9618 11.6288C18.9204 11.6764 19.0254 11.656 18.9658 11.7233C18.9062 11.7906 18.8901 11.8246 18.888 11.8791C18.886 11.9335 18.9012 11.9418 18.8476 11.9471C18.7941 11.9524 18.8567 12.0121 18.8325 12.0832C18.8082 12.1543 18.6587 12.1467 18.6648 12.3373C18.6648 12.3373 18.7062 12.2443 18.7951 12.1626C18.884 12.0809 18.887 12.0734 18.885 12.0242C18.883 11.975 18.8789 11.9864 18.9264 11.9493C18.9739 11.9123 18.9052 11.8775 18.9527 11.8246C19.0002 11.7716 18.9588 11.7822 19.0143 11.7285C19.0699 11.6749 18.9658 11.668 19.0224 11.6128C19.079 11.5576 18.886 11.4949 18.9416 11.4593C18.9972 11.4238 19.0931 11.3747 18.7698 11.38C18.7698 11.38 18.8476 11.2514 19.1204 11.2794C19.1204 11.2794 19.0487 11.33 19.0426 11.38C19.0426 11.38 19.0739 11.3958 19.0932 11.4004C19.0932 11.4004 19.0826 11.4369 19.0305 11.4813C19.0305 11.4813 19.175 11.5622 19.1982 11.6098C19.1982 11.6098 19.1103 11.637 19.0881 11.6756C19.0881 11.6756 19.1265 11.7195 19.1397 11.7762C19.1397 11.7762 19.0416 11.7641 19.0285 11.8374C19.0154 11.9107 18.9861 11.8608 18.9861 11.9039C18.9861 11.947 18.9891 11.9644 18.9548 11.9712C18.9204 11.978 18.9487 12.0143 18.9548 12.0385C18.9609 12.0628 18.972 12.1179 18.9669 12.1353C18.9669 12.1353 18.9174 12.1361 18.8942 12.1429C18.8942 12.1429 18.9093 12.248 18.8507 12.2631C18.7921 12.2782 18.8821 12.2994 18.8194 12.3107C18.7568 12.3221 18.7649 12.3259 18.6881 12.4635C18.6881 12.4635 18.7537 12.4264 18.8215 12.3818C18.8891 12.3372 18.8164 12.3508 18.9285 12.2404C19.0407 12.13 19.0205 12.1217 19.0114 12.0658C19.0023 12.0098 19.0003 11.9644 19.0407 11.9115C19.0811 11.8586 19.0942 11.7981 19.2377 11.8057C19.2377 11.8057 19.1952 11.7102 19.1427 11.6854C19.1427 11.6854 19.2114 11.6378 19.2841 11.631C19.2841 11.631 19.2205 11.5546 19.0902 11.4805C19.0902 11.4805 19.1972 11.3883 19.2225 11.3444C19.2225 11.3444 19.173 11.352 19.1336 11.3429C19.1336 11.3429 19.1522 11.2988 19.2488 11.2356C19.2488 11.2356 19.3003 11.2855 19.2983 11.3376C19.2983 11.3376 19.464 11.2424 19.5579 11.253C19.5579 11.253 19.6054 11.3724 19.3751 11.5962C19.3751 11.5962 19.5175 11.6099 19.5781 11.6015C19.5781 11.6015 19.5438 11.7119 19.371 11.777C19.1983 11.842 19.4084 11.918 19.2316 11.9048C19.0548 11.8915 19.1094 11.9524 19.1144 12.0424C19.1195 12.1323 19.1255 12.2246 19.1215 12.2496C19.1215 12.2496 18.98 12.2034 18.9831 12.3403C18.9861 12.4772 18.9103 12.5059 18.8952 12.5188C18.8952 12.5188 18.8541 12.4821 18.7921 12.4605C18.792 12.4607 18.7042 12.6272 18.5626 12.7246Z" fill="#5A3719"/>
<path d="M18.3625 11.0093C18.3625 11.0093 18.411 11.0013 18.4929 11.0524C18.5747 11.1034 18.655 10.9979 18.5641 10.9707C18.4731 10.9434 18.5656 10.9117 18.6474 10.9775C18.7293 11.0433 18.7611 11.0104 18.7914 10.9877C18.8217 10.9651 18.8581 10.9525 18.802 10.914C18.7459 10.8754 18.8399 10.8936 18.8823 10.9208C18.9248 10.948 18.9081 10.9764 18.902 10.9843C18.896 10.9923 18.8914 11.0807 18.9748 10.998C19.0581 10.9152 19.099 10.8324 19.0975 10.7915C19.0975 10.7915 19.143 10.8199 19.149 10.872C19.1551 10.9242 19.2187 10.8437 19.24 10.8153C19.2612 10.787 19.2976 10.7154 19.293 10.6616C19.293 10.6616 19.3491 10.7483 19.4325 10.6616C19.5158 10.5749 19.4794 10.6293 19.5795 10.6032C19.6795 10.5771 19.8053 10.5034 19.8735 10.4206C19.9416 10.3378 19.9462 10.3934 20.0341 10.373C20.122 10.3526 20.2993 10.2301 20.3159 10.1631C20.3326 10.0962 20.3296 10.0554 20.3038 10.078C20.278 10.1007 20.2886 10.0826 20.2508 10.0588C20.2129 10.035 20.1568 10.0894 20.1568 10.0894C20.1568 10.0894 20.2129 10.1325 20.1705 10.1506C20.128 10.1688 20.0871 10.2289 20.0068 10.2062C19.9265 10.1835 19.8431 10.2799 19.8431 10.2799C19.8431 10.2799 19.9128 10.3377 19.8189 10.3741C19.7249 10.4103 19.7401 10.4228 19.6825 10.3831C19.6825 10.3831 19.5825 10.5102 19.5249 10.5363C19.5249 10.5363 19.4976 10.534 19.4794 10.5102C19.4794 10.5102 19.4143 10.5839 19.3809 10.5986C19.3809 10.5986 19.34 10.559 19.3021 10.5465C19.3021 10.5465 19.2233 10.644 19.1566 10.6747C19.1566 10.6747 19.1369 10.6384 19.0945 10.6134C19.0945 10.6134 19.0735 10.741 18.9339 10.8164C18.9339 10.8164 18.943 10.7824 18.8732 10.7359C18.8732 10.7359 18.7005 10.8856 18.6323 10.9004C18.5641 10.9151 18.6277 10.8686 18.6368 10.8493C18.6459 10.83 18.6884 10.7665 18.605 10.7404C18.5217 10.7143 18.5353 10.7586 18.5171 10.7665C18.4989 10.7745 18.4974 10.7518 18.4414 10.7597C18.3853 10.7677 18.3944 10.7926 18.3701 10.8017C18.3459 10.8108 18.2489 10.7858 18.2535 10.8505C18.258 10.9151 18.3035 10.9594 18.2186 10.9968C18.1337 11.0342 18.2504 11.0263 18.3625 11.0093Z" fill="#7B3C20"/>
<path d="M18.7136 10.8262C18.7136 10.8262 18.7334 10.7446 18.6621 10.7049C18.6621 10.7049 19.1198 10.6346 18.7742 10.4599C18.7742 10.4599 19.1849 10.3748 19.0879 10.2433C18.991 10.1117 18.8967 10.1412 18.8824 10.1434C18.8682 10.1457 18.9697 10.0674 18.997 10.0776C19.0243 10.0879 19.3547 10.2149 19.2698 10.106C19.1849 9.99712 19.1925 10.0039 19.1789 9.97217C19.1789 9.97217 19.288 9.97217 19.4532 10.1332C19.4532 10.1332 19.488 10.0969 19.4835 10.0311C19.4835 10.0311 19.6017 10.064 19.638 10.0992C19.638 10.0992 19.6578 10.0584 19.6502 10.0357C19.6502 10.0357 19.7517 10.0901 19.7866 10.148C19.7866 10.148 19.8336 10.1071 19.8411 10.0606C19.8411 10.0606 19.9427 10.1026 19.9684 10.1343C19.9684 10.1343 20.0018 10.0901 19.9896 10.0266C19.9896 10.0266 20.1578 10.0765 20.1806 9.97217C20.1806 9.97217 20.3498 10.0089 20.2398 10.0747C20.0985 10.1594 20.2255 10.0538 20.0805 10.1548C19.9681 10.233 19.9052 10.3249 19.8512 10.306C19.8115 10.2921 19.7638 10.4077 19.7092 10.351C19.6547 10.2943 19.6547 10.3204 19.6168 10.3794C19.5789 10.4383 19.5198 10.4985 19.5198 10.4985C19.5198 10.4985 19.4903 10.4814 19.4679 10.4588C19.4679 10.4588 19.4349 10.5132 19.3925 10.554C19.3925 10.554 19.3592 10.5098 19.3061 10.4826C19.3061 10.4826 19.2228 10.579 19.1712 10.6119C19.1712 10.6119 19.1227 10.5642 19.0712 10.5483C19.0712 10.5483 19.0636 10.6788 18.9621 10.7457C18.9621 10.7457 18.9409 10.7026 18.8757 10.6765C18.8758 10.6765 18.8243 10.759 18.7136 10.8262Z" fill="#5A3719"/>
<path fill-rule="evenodd" clip-rule="evenodd" d="M18.453 10.7145C18.4171 10.6688 18.4727 10.6261 18.4727 10.6261C18.4727 10.6261 18.5151 10.5886 18.6424 10.5931C18.7697 10.5977 18.6137 10.5569 18.5561 10.5682C18.5156 10.5762 18.5073 10.5539 18.4944 10.519C18.4889 10.5043 18.4826 10.4874 18.4727 10.4695C18.4532 10.4343 18.5251 10.3754 18.5859 10.3256C18.629 10.2903 18.6665 10.2595 18.6621 10.2449C18.6583 10.2323 18.6461 10.2444 18.627 10.2634C18.5927 10.2973 18.5361 10.3533 18.4651 10.33C18.3545 10.2937 18.4485 10.2245 18.5136 10.1882C18.5788 10.152 18.8743 9.95459 18.8743 9.95459C18.8743 9.95459 18.9546 10.0079 18.8546 10.1168C18.816 10.1588 18.8011 10.1734 18.8033 10.1768C18.8082 10.1843 18.8989 10.1359 19.0016 10.2143C19.1501 10.3278 18.8319 10.414 18.744 10.4219C18.6561 10.4298 18.6349 10.4491 18.6349 10.4491C19.1425 10.6011 18.5818 10.6975 18.5363 10.7021C18.518 10.7039 18.5068 10.7137 18.4975 10.7218C18.4838 10.7337 18.4744 10.7418 18.453 10.7145ZM18.6924 10.3618C18.6242 10.3799 18.6757 10.3437 18.6757 10.3437C18.7545 10.286 18.8454 10.2438 18.8712 10.279C18.894 10.3101 18.7897 10.3368 18.7181 10.3551C18.7089 10.3575 18.7002 10.3597 18.6924 10.3618Z" fill="#5A3719"/>
<path d="M19.5761 9.75964C19.5761 9.75964 19.8367 9.75283 19.9443 9.82543C20.0519 9.89803 20.1034 9.94565 20.1352 9.95586C20.1352 9.95586 20.1307 10.0545 19.964 9.98422C19.964 9.98422 19.9731 10.0319 19.9549 10.0784C19.9549 10.0784 19.8928 10.0375 19.8215 10.0194C19.8215 10.0194 19.8094 10.0568 19.7867 10.0784C19.7867 10.0784 19.7124 10.0035 19.6291 9.98082C19.6291 9.98082 19.6124 10.0182 19.5973 10.0319C19.5973 10.0319 19.5079 9.98082 19.4397 9.98196C19.4397 9.98196 19.4533 10.0364 19.4397 10.058C19.4397 10.058 19.2502 9.90939 19.082 9.92867C19.082 9.92867 19.1639 10.0478 19.2169 10.1068C19.2169 10.1068 18.8759 10.0795 18.932 9.89579C18.9881 9.71204 18.9275 9.7582 19.1502 9.7595C19.373 9.76081 19.5761 9.75964 19.5761 9.75964Z" fill="#7B3C20"/>
<path d="M17.9745 10.2669C17.9745 10.2669 17.9351 10.2991 17.9745 10.3263C18.0139 10.3535 18.1488 10.256 18.167 10.2424C18.1852 10.2287 18.2337 10.231 18.167 10.2809C18.1003 10.3308 18.0321 10.3853 17.9897 10.4397C17.9897 10.4397 18.2155 10.3785 18.3625 10.2515C18.5095 10.1244 18.3556 10.2067 18.6064 10.0859C18.8573 9.965 18.9883 9.77053 18.8535 9.79096C18.7186 9.81137 18.5973 9.96564 18.4928 10.0246C18.3882 10.0836 18.3291 10.0915 18.3458 10.0575C18.3625 10.0235 18.4398 10.0371 18.5837 9.9214C18.7277 9.8057 18.6958 9.81366 18.6973 9.77282C18.6989 9.73198 18.6428 9.63105 18.8595 9.51762C19.0762 9.40418 19.7506 9.00947 19.8081 8.87451C19.8081 8.87451 19.6111 8.89606 19.352 9.08774C19.0929 9.27941 18.9541 9.36904 18.8826 9.39285C18.811 9.41666 18.8201 9.40078 18.7731 9.45638C18.7261 9.51195 18.47 9.75923 18.423 9.79551C18.3761 9.8318 18.3624 9.85564 18.3584 9.92962C18.3566 9.96333 18.064 10.1838 17.9745 10.2669Z" fill="#5A3719"/>
<path d="M18.8672 9.75424C18.8672 9.75424 18.8169 9.77758 18.7682 9.75424C18.7195 9.73091 18.7347 9.62605 18.852 9.56337C18.9692 9.50069 19.1824 9.40724 19.2905 9.39355C19.2905 9.39355 19.2753 9.52918 18.9388 9.64313C18.9388 9.64313 18.9601 9.71375 18.8672 9.75424Z" fill="#5A3719"/>
<path d="M17.7887 10.0215C17.7887 10.0215 17.7084 10.0782 17.7417 10.1066C17.7751 10.135 17.8325 10.1406 17.9546 10.0385C18.0767 9.93647 18.3722 9.68239 18.1854 9.6722C18.1854 9.6722 17.9463 9.65746 17.9546 9.80378C17.9629 9.95153 17.8007 10.0122 17.7887 10.0215ZM17.2371 9.9353C17.2371 9.9353 17.3947 10.0272 17.3356 10.1032C17.3356 10.1032 17.8191 9.69258 17.6827 9.60409C17.5463 9.51561 17.4387 9.68236 17.472 9.69936C17.5053 9.71639 17.5766 9.68462 17.5508 9.71639C17.5251 9.74815 17.2674 9.92171 17.2371 9.9353ZM17.1113 9.80261C17.1113 9.80261 17.2174 9.83437 17.2219 9.87973C17.2265 9.92509 17.5417 9.65741 17.4583 9.54514C17.4201 9.49366 17.2447 9.47254 17.2371 9.5735C17.2295 9.67446 17.3947 9.56328 17.3371 9.63588C17.2616 9.73107 17.1341 9.78672 17.1113 9.80261ZM18.2457 9.57893C18.2457 9.57893 18.1782 9.62793 18.2388 9.65743C18.2995 9.68694 18.3389 9.64041 18.3692 9.61319C18.3995 9.58598 18.5495 9.47595 18.5843 9.40563C18.6192 9.33532 18.6707 9.31377 18.7253 9.27746C18.7799 9.24117 19.1648 9.04947 19.4012 8.83736C19.6376 8.62526 19.5391 8.67971 19.7846 8.54359C20.0301 8.40748 20.1907 8.28272 20.2422 8.13525C20.2422 8.13525 20.1286 8.17268 20.0286 8.23733C19.9285 8.30198 19.7027 8.44377 19.6573 8.46303C19.6118 8.48229 19.5482 8.48572 19.5148 8.52087C19.4815 8.55604 19.4845 8.59799 19.3663 8.69554C19.2481 8.7931 18.6374 9.22409 18.5631 9.28533C18.4889 9.34665 18.2457 9.57893 18.2457 9.57893Z" fill="#5A3719"/>
<path d="M18.9789 9.66432C18.9789 9.66432 18.9886 9.69752 18.9789 9.72785C18.9789 9.72785 19.6017 9.78797 19.923 9.40912C19.923 9.40912 19.482 9.44995 19.3063 9.55544C19.3063 9.55544 19.4169 9.41705 19.7473 9.30249C20.0776 9.18794 20.2125 9.04614 20.2413 8.9679C20.2413 8.9679 19.8235 9.11422 19.6245 9.11422C19.6245 9.11422 19.5851 9.11308 19.5472 9.13463C19.5093 9.15618 19.2426 9.35014 19.1714 9.38302C19.1714 9.38302 19.3214 9.37054 19.3745 9.32178C19.3745 9.32178 19.2702 9.60215 18.9789 9.66432Z" fill="#AA5323"/>
<path d="M17.752 9.72045C17.752 9.72045 17.8186 9.68369 17.9439 9.69226C18.0692 9.70079 18.5642 9.22141 18.7077 9.12462C18.8512 9.02784 19.2997 8.70419 19.3603 8.64521C19.421 8.58623 19.4311 8.5227 19.4836 8.48793C19.5361 8.45316 19.5846 8.45768 19.7059 8.38812C19.8271 8.31855 20.409 7.97071 20.3747 7.76808C20.3747 7.76808 19.5079 8.2883 19.3078 8.45768C19.1078 8.62707 18.5521 9.01119 18.4531 9.0732C18.3541 9.13521 18.2753 9.24258 18.1096 9.37717C17.9439 9.51175 17.7803 9.62516 17.752 9.72045Z" fill="#AA5323"/>
<path d="M17.57 9.53609C17.57 9.53609 17.7304 9.51968 17.7519 9.59811C17.7519 9.59811 18.0954 9.36219 18.1742 9.26541C18.253 9.16863 18.1479 9.22457 18.3439 9.09603C18.5399 8.96748 19.1905 8.51227 19.2835 8.4306C19.3764 8.34893 19.5522 8.24156 19.6936 8.14629C19.8351 8.05103 20.3887 7.78031 20.3261 7.55799C20.3261 7.55799 19.9199 7.83019 19.829 7.8892C19.7381 7.94818 19.6997 7.9149 19.6067 7.9875C19.5138 8.0601 19.3097 8.20527 19.2733 8.25063C19.237 8.29599 18.9258 8.53494 18.7743 8.63627C18.6227 8.7376 18.2833 8.9342 18.1196 9.07637C17.9559 9.21851 17.6387 9.48166 17.57 9.53609Z" fill="#AA5323"/>
<path d="M17.0701 9.48954C17.0701 9.48954 17.1513 9.49071 17.1755 9.52247C17.1755 9.52247 17.3256 9.39087 17.4852 9.52093C17.4852 9.52093 18.0712 9.1247 18.1298 9.02489C18.1884 8.92507 18.2833 8.92356 18.5116 8.75721C18.74 8.59086 18.8834 8.52129 19.035 8.40333C19.1865 8.28537 19.3138 8.15228 19.4229 8.08122C19.532 8.01014 19.8068 7.83017 19.7604 7.67441C19.7604 7.67441 19.5381 7.80144 19.3926 7.96023C19.2472 8.11903 19.2593 7.98292 19.1118 8.11599C18.9643 8.24909 18.736 8.43055 18.546 8.52432C18.3561 8.6181 18.4713 8.60751 18.3339 8.69522C18.1965 8.78293 18.2066 8.76934 18.156 8.78142C18.1055 8.79352 18.0287 8.82981 17.9782 8.88879C17.9277 8.94777 17.7923 9.02792 17.6448 9.11111C17.4973 9.19427 17.1346 9.41016 17.0701 9.48954Z" fill="#AA5323"/>
<path d="M17.2468 9.18547C17.2468 9.18547 17.215 9.11968 17.271 9.07317C17.3271 9.02667 17.4286 8.90416 17.4453 8.82704C17.462 8.74992 17.4498 8.7624 17.612 8.69546C17.7741 8.62856 18.1424 8.45614 18.35 8.32797C18.5576 8.19979 18.8728 7.99338 18.938 7.94347C19.0031 7.89356 19.1613 7.78242 19.2254 7.73025C19.2254 7.73025 19.2562 7.81758 19.1865 7.87771C19.1168 7.93783 18.8486 8.1261 18.8046 8.1556C18.7607 8.18511 18.5137 8.35069 18.4379 8.39267C18.3621 8.43464 18.1742 8.52991 18.1075 8.58548C18.0409 8.64106 18.0494 8.65808 17.7519 8.80326C17.4544 8.94843 17.4407 8.9632 17.4498 8.97453C17.4589 8.98586 17.5923 8.92803 17.6559 8.8906C17.7196 8.85317 17.9636 8.74202 18.0363 8.68416C18.109 8.62632 18.2318 8.53558 18.2848 8.50607C18.3379 8.47657 18.7773 8.21344 18.9031 8.12043C19.0289 8.02743 19.0637 7.99681 19.091 8.01269C19.1183 8.02857 19.1623 8.02972 19.1062 8.083C19.0501 8.13632 18.8713 8.29285 18.8031 8.33821C18.7349 8.38357 18.5213 8.51062 18.4621 8.54124C18.403 8.57186 18.3803 8.62858 18.347 8.65239C18.3136 8.6762 18.2166 8.7454 18.0984 8.77261C17.9802 8.79983 17.959 8.88831 17.8817 8.93822C17.8045 8.98812 17.2545 9.28416 17.2378 9.2989C17.2378 9.2989 17.271 9.26485 17.2468 9.18547Z" fill="#AA5323"/>
<path d="M19.15 7.95039C19.15 7.95039 19.1197 7.97723 19.1363 7.99237C19.1583 8.01232 19.2348 8.06608 19.3303 7.97138C19.4258 7.87667 19.6822 7.67023 19.7654 7.62147C19.8486 7.5727 19.888 7.5262 19.8849 7.45927C19.8849 7.45927 19.4909 7.66911 19.15 7.95039ZM19.6925 7.9141C19.6925 7.9141 19.7531 7.81314 19.9016 7.71788C20.0501 7.62261 20.2731 7.4839 20.3032 7.4502C20.3032 7.4502 20.3562 7.51032 20.2395 7.58404C20.1229 7.65775 19.8955 7.80862 19.8683 7.83017C19.841 7.85172 19.7955 7.8846 19.6925 7.9141Z" fill="#AA5323"/>
<path d="M16.6754 9.01426C16.6754 9.01426 16.5103 9.10274 16.5694 9.15832C16.6285 9.21389 16.7164 9.19689 16.7528 9.18101C16.7891 9.16513 16.8588 9.14813 16.8694 9.14472C16.8801 9.14132 17.024 9.10048 17.0604 9.03358C17.0967 8.96667 17.1937 8.88952 17.271 8.83395C17.3483 8.77837 17.3756 8.7228 17.365 8.68311C17.3649 8.68308 16.7144 8.99037 16.6754 9.01426ZM15.6934 9.77761C15.6934 9.77761 15.8076 9.70975 15.9677 9.75266C15.9677 9.75266 15.9602 9.71363 15.9359 9.69344C15.9359 9.69344 16.1299 9.64263 16.1723 9.55643C16.2148 9.47024 16.2239 9.48838 16.2617 9.46343C16.2996 9.43848 16.5618 9.22751 16.5315 9.18213C16.5012 9.13674 16.4951 9.07779 16.4724 9.05395C16.4724 9.05395 16.4178 9.12881 16.1632 9.25244C15.9086 9.37606 15.6253 9.46907 15.4192 9.74697C15.2131 10.0249 15.2343 10.1859 15.4858 10.2562C15.4858 10.2562 15.6631 10.1451 16.095 10.1836C16.5269 10.2222 16.6739 10.3844 16.7012 10.4139C16.7285 10.4434 16.8164 10.55 16.7315 10.7303C16.7315 10.7303 16.8179 10.7678 16.8255 10.685C16.8331 10.6022 16.8376 10.6214 16.8573 10.6339C16.877 10.6464 16.9013 10.6487 16.8922 10.5852C16.8831 10.5216 16.8528 10.3799 16.8134 10.3311C16.774 10.2823 16.8179 10.3039 16.8437 10.3141C16.8694 10.3243 16.9603 10.398 16.9058 10.2619C16.8512 10.1258 16.8376 10.1927 16.8361 10.1995C16.8346 10.2063 16.824 10.2403 16.7058 10.1519C16.5876 10.0634 16.48 10.0203 16.3997 9.99762C16.3193 9.97495 16.3754 9.97493 16.4224 9.95793C16.4694 9.9409 16.533 9.93071 16.5542 9.87854C16.5542 9.87854 16.5072 9.88988 16.4209 9.85926C16.3345 9.82864 16.1617 9.82523 16.0223 9.92957C16.0223 9.92957 16.0662 9.76851 15.9389 9.77759C15.8116 9.78666 15.7222 9.78325 15.5874 9.88988C15.5874 9.88988 15.5798 9.72768 15.7071 9.64375C15.8344 9.55981 15.8177 9.61086 15.8889 9.58932C15.9602 9.56777 15.9662 9.49631 15.9359 9.47362C15.9359 9.47362 16.1026 9.50198 16.3829 9.26947C16.3829 9.26947 16.2323 9.46683 16.0492 9.50653C16.0492 9.50653 16.0202 9.61158 15.854 9.6347C15.6879 9.65782 15.6919 9.7538 15.6934 9.77761Z" fill="#7B3C20"/>
<path d="M15.2146 10.7386C15.2146 10.7386 15.2964 10.2498 15.7541 10.2144C16.1552 10.1834 16.2824 10.2333 16.3623 10.259C16.4421 10.2847 16.6371 10.3422 16.5613 10.405C16.4855 10.4677 16.4421 10.4564 16.4421 10.4564C16.4421 10.4564 16.53 10.3588 16.4502 10.3422C16.3704 10.3256 16.3633 10.374 16.3522 10.4148C16.3411 10.4557 16.336 10.5048 16.2966 10.5366C16.2966 10.5366 16.2562 10.4897 16.1986 10.5305C16.141 10.5714 16.1905 10.5729 16.2138 10.5661C16.237 10.5593 16.2673 10.5471 16.2612 10.5827C16.2552 10.6182 16.2229 10.6795 16.1279 10.7294C16.0329 10.7793 16.038 10.7763 15.9248 10.7944C15.8117 10.8125 15.7066 10.8572 15.5621 10.9812C15.4177 11.1052 15.2596 11.0638 15.2277 10.9252C15.2005 10.8064 15.2146 10.7386 15.2146 10.7386Z" fill="#5A3719"/>
<path d="M15.7396 10.7228C15.7396 10.7228 15.7836 10.6264 15.7048 10.5822C15.7048 10.5822 15.4638 10.6235 15.3926 10.5504C15.3926 10.5504 15.6548 10.5368 15.8169 10.4733C15.979 10.4098 15.9305 10.3655 15.8745 10.3553C15.8184 10.3451 15.7154 10.3701 15.7048 10.4211C15.7048 10.4211 15.6729 10.3667 15.7139 10.3304C15.7548 10.2941 15.8184 10.2873 15.876 10.3043C15.9336 10.3213 15.9851 10.3463 16.1746 10.2476C16.1746 10.2476 16.2836 10.2725 16.2867 10.3462C16.2897 10.4199 16.2791 10.4506 16.27 10.4619C16.2609 10.4733 16.2473 10.4948 16.2245 10.4925C16.2018 10.4903 16.173 10.4846 16.1442 10.5356C16.1154 10.5867 16.0981 10.6309 16.05 10.6649C16.05 10.6649 16.1063 10.5061 15.9669 10.4687C15.9669 10.4687 15.8517 10.5368 15.7639 10.5402C15.7639 10.5402 15.876 10.6446 15.7396 10.7228Z" fill="black"/>
<path d="M15.9943 10.433C15.9943 10.433 15.9403 10.3736 16.0112 10.3672C16.0821 10.3609 16.1761 10.4128 16.1577 10.4566C16.1391 10.5005 16.0559 10.4987 15.9943 10.433Z" fill="#5A3719"/>
<path d="M19.9285 9.65697C19.9285 9.65697 19.8012 9.69325 19.9194 9.77152C20.0376 9.84979 20.0952 9.91784 20.1816 9.94053C20.268 9.96322 20.3574 9.99496 20.3559 10.0812C20.3543 10.1674 20.3377 10.2014 20.2907 10.2604C20.2437 10.3194 20.3165 10.3455 20.3786 10.3114C20.4408 10.2774 20.4938 10.2593 20.5347 10.2354C20.5756 10.2116 20.6438 10.215 20.5817 10.2468C20.5195 10.2785 20.4544 10.2978 20.5347 10.3001C20.615 10.3023 21.0984 10.3114 21.2 10.2785C21.3015 10.2456 21.4333 10.2354 21.4454 10.1038C21.4454 10.1038 21.45 10.0454 21.4879 10.0211C21.5258 9.99666 21.5515 9.94053 21.4962 9.97852C21.4409 10.0165 21.3985 10.0358 21.3879 10.0245C21.3772 10.0131 21.3742 10.0052 21.4144 9.98647C21.4545 9.96777 21.4773 9.98533 21.5144 9.93034C21.5515 9.87532 21.5479 9.8844 21.5281 9.86343C21.5083 9.84244 21.4667 9.82715 21.4871 9.80049C21.5076 9.77383 21.5281 9.69445 21.4394 9.74095C21.3508 9.78745 21.1762 9.9073 21.0954 9.92622C21.0146 9.94513 20.9529 9.96971 20.8438 9.99182C20.7347 10.0139 20.667 10.0374 20.5509 10.1016C20.4347 10.1659 20.4428 10.0661 20.463 10.0525C20.463 10.0525 20.5074 10.1304 20.6256 10.029C20.7438 9.92771 20.7054 10.0227 20.9944 9.92771C21.2834 9.83271 21.2126 9.8173 21.3257 9.75832C21.4389 9.69934 21.546 9.69708 21.4672 9.61844C21.3884 9.53981 21.3793 9.53299 21.2773 9.61844C21.1752 9.70389 20.8934 9.84151 20.7246 9.84529C20.7246 9.84529 21.3763 9.56399 21.3096 9.52318C21.2429 9.48234 21.1712 9.44606 21.1257 9.43621C21.0802 9.42637 21.0681 9.41504 20.9631 9.46191C20.858 9.50879 20.8408 9.52015 20.8105 9.52315C20.7802 9.52616 20.6923 9.54356 20.5681 9.60783C20.4438 9.6721 20.3771 9.6978 20.2943 9.74848C20.2943 9.74848 20.3518 9.63204 20.6085 9.55492C20.8651 9.47779 20.9964 9.40671 20.9681 9.39386C20.9398 9.38101 20.8762 9.37042 20.8277 9.37798C20.7792 9.38553 20.7933 9.3742 20.6367 9.43621C20.4802 9.49822 20.5468 9.4846 20.4205 9.51182C20.2943 9.53903 20.2427 9.56702 20.1801 9.59349C20.1801 9.59349 20.2056 9.55944 20.2907 9.52826C20.3344 9.51227 20.2429 9.49578 20.3642 9.49086C20.3741 9.49046 20.3862 9.49333 20.3983 9.4899C20.5551 9.44491 20.7266 9.38327 20.7004 9.37875C20.6741 9.3742 20.5215 9.35835 20.367 9.4294C20.2124 9.50049 20.2831 9.47628 20.2286 9.48764C20.174 9.49897 20.0588 9.57157 20.0205 9.60256C19.982 9.63353 19.9285 9.65697 19.9285 9.65697Z" fill="white"/>
<path d="M16.1172 10.3624C16.1172 10.3624 16.1789 10.3808 16.1943 10.4241C16.2096 10.4673 16.2482 10.4051 16.2467 10.3854C16.2451 10.3658 16.2073 10.2793 16.1403 10.3197C16.0733 10.3601 16.1069 10.3586 16.1172 10.3624Z" fill="#5A3719"/>
<path d="M15.9468 11.2013C15.9468 11.2013 16.0762 11.1405 16.1847 11.148C16.1847 11.148 16.1423 10.9949 16.218 11.021C16.2938 11.0471 16.2726 11.0368 16.2877 11.0357C16.2877 11.0357 16.2923 10.9347 16.2726 10.895C16.2726 10.895 16.3499 10.9132 16.4287 10.9143C16.4287 10.9143 16.3544 10.7692 16.4362 10.6693C16.4362 10.6693 16.4812 10.7646 16.5822 10.7884C16.5822 10.7884 16.5827 10.7476 16.5822 10.7045C16.5822 10.7045 16.6423 10.6977 16.6893 10.7227C16.7363 10.7476 16.7757 10.4595 16.6363 10.396C16.6363 10.396 16.6029 10.4504 16.4726 10.4777C16.3423 10.5049 16.3433 10.5311 16.2898 10.6291C16.2362 10.7272 16.1892 10.7283 16.0801 10.7987C15.971 10.869 15.9047 11.0119 15.8984 11.0244C15.8985 11.0244 15.9559 11.0947 15.9468 11.2013Z" fill="#7B3C20"/>
<path d="M20.2907 9.52826C20.3381 9.51996 20.2429 9.49578 20.3642 9.49086C20.3741 9.49046 20.3862 9.49333 20.3983 9.4899C20.5551 9.44491 20.7266 9.38327 20.7004 9.37875C20.6741 9.3742 20.5215 9.35835 20.367 9.4294C20.2124 9.50049 20.2831 9.47628 20.2286 9.48764C20.174 9.49897 20.0588 9.57157 20.0205 9.60256C19.9821 9.63355 19.9285 9.65699 19.9285 9.65699C19.9285 9.65699 19.8012 9.69328 19.9194 9.77155C20.0376 9.84981 20.0952 9.91786 20.1816 9.94055C20.268 9.96325 20.3574 9.99499 20.3559 10.0812C20.3543 10.1674 20.3377 10.2014 20.2907 10.2604C20.2437 10.3194 20.3165 10.3455 20.3786 10.3115C20.4408 10.2774 20.4938 10.2593 20.5347 10.2355C20.5756 10.2116 20.6438 10.215 20.5817 10.2468C20.5195 10.2785 20.4544 10.2978 20.5347 10.3001C20.615 10.3024 21.0984 10.3114 21.2 10.2785C21.3015 10.2457 21.4333 10.2355 21.4454 10.1039C21.4454 10.1039 21.45 10.0455 21.4879 10.0211C21.5258 9.99669 21.5515 9.94056 21.4962 9.97854C21.4409 10.0165 21.3985 10.0358 21.3879 10.0245C21.3772 10.0132 21.3742 10.0052 21.4144 9.9865C21.4545 9.9678 21.4773 9.98535 21.5144 9.93037C21.5515 9.87535 21.5479 9.88442 21.5281 9.86346C21.518 9.85268 21.5021 9.84343 21.4917 9.83334C21.4917 9.83334 21.4626 9.80789 21.4288 9.82943C21.395 9.85098 21.2464 9.91374 21.1868 9.92092C21.1272 9.9281 21.0656 9.95343 20.9585 10.0056C20.8514 10.0578 20.6736 10.164 20.6453 10.0653C20.6453 10.0653 20.5678 10.093 20.5508 10.1016C20.4314 10.1625 20.4418 10.0761 20.4629 10.0525C20.4629 10.0525 20.4003 10.1228 20.4028 10.0589C20.4053 9.99498 20.4458 10.0059 20.5155 9.98554C20.5852 9.96514 20.6953 9.91975 20.6498 9.88195C20.6044 9.84415 20.5564 9.91949 20.5059 9.9425C20.4553 9.96551 20.3543 9.98591 20.3387 9.91257C20.323 9.83922 20.3235 9.78817 20.1866 9.78024C20.0497 9.77232 20.0548 9.68687 20.0921 9.65018C20.1295 9.6135 20.1624 9.55074 20.2907 9.52826Z" fill="#999999"/>
<path d="M20.7289 10.1923C20.7289 10.1923 20.9431 10.0935 21.14 10.0472C21.3369 10.0008 21.1827 10.0532 21.1492 10.0639C21.1157 10.0745 20.8091 10.1755 20.737 10.209C20.665 10.2424 20.6798 10.2138 20.7289 10.1923ZM20.7787 10.2356C20.7787 10.2356 21.0192 10.1558 21.0639 10.1892C21.1086 10.2227 21.072 10.2059 21.0192 10.2136C20.9664 10.2211 20.8213 10.2455 20.7827 10.2447C20.7441 10.2439 20.7787 10.2356 20.7787 10.2356ZM21.1644 10.152C21.1644 10.152 21.2101 10.1437 21.2152 10.1604C21.2202 10.1771 21.1948 10.1794 21.1695 10.1763C21.1441 10.1733 21.1218 10.1588 21.1644 10.152Z" fill="black"/>
<path d="M14.8323 12.2371C14.8323 12.2371 14.8233 12.0269 14.9294 11.9203C15.0355 11.8137 15.5507 11.2775 15.6295 11.1276C15.6295 11.1276 15.6962 11.1739 15.6992 11.259C15.6992 11.259 15.7856 11.1103 15.8538 11.0542C15.8538 11.0542 15.9144 11.1161 15.9038 11.2397C15.9038 11.2397 16.0281 11.1739 16.2205 11.1728C16.2205 11.1728 16.1493 11.2568 16.1463 11.3055C16.1463 11.3055 16.413 11.276 16.5524 11.2987C16.5524 11.2987 16.1857 11.504 16.2887 11.5221C16.3918 11.5403 16.4994 11.521 16.4994 11.521C16.4994 11.521 16.3827 11.6401 16.1963 11.6639C16.1963 11.6639 16.4327 11.6605 16.4797 11.7138C16.4797 11.7138 16.2493 11.749 16.0644 11.8896C16.0644 11.8896 16.0472 11.8817 16.0459 11.8295C16.0459 11.8295 16.0402 11.876 15.9871 11.9202C15.9341 11.9645 15.8068 12.0586 15.7598 12.1062C15.7128 12.1539 15.6249 12.248 15.531 12.2435C15.531 12.2435 15.5522 12.1709 15.4825 12.1482C15.4128 12.1255 15.3325 12.1414 15.2764 12.2015C15.2764 12.2015 15.0279 12.2049 14.9491 12.2163C14.9491 12.2163 15.0051 12.1267 15.0566 12.1289C15.1082 12.1312 15.3158 12.1596 15.334 12.0178C15.3522 11.876 15.2006 11.9135 15.2582 11.8295C15.3158 11.7456 15.3021 11.749 15.3037 11.741C15.3037 11.741 15.2567 11.7671 15.2294 11.842C15.2021 11.9169 15.1824 11.9747 15.0839 12.0496C14.9854 12.1244 14.9446 12.1697 14.9174 12.2219C14.9174 12.222 14.8725 12.2282 14.8323 12.2371Z" fill="white"/>
<path d="M15.0723 12.1112C15.0723 12.1112 15.0804 12.0823 15.1535 12.0701C15.2265 12.058 15.2296 12.023 15.2205 12.0078C15.2113 11.9926 15.1677 11.9926 15.2387 11.9121C15.2387 11.9121 15.2641 11.919 15.2814 11.9387C15.2986 11.9585 15.3788 12.1302 15.0723 12.1112Z" fill="white"/>
<path d="M14.8967 11.9616C14.9004 12.1016 15.084 12.0496 15.084 12.0496C15.0186 12.0993 14.9786 12.136 14.9512 12.1703C14.9633 12.1023 14.8477 12.0852 14.8477 12.0852C14.8572 12.0436 14.8724 11.9996 14.8967 11.9616ZM15.5716 11.213C15.5982 11.1782 15.6183 11.149 15.6296 11.1276C15.6296 11.1276 15.6962 11.1739 15.6993 11.259C15.6993 11.259 15.7857 11.1103 15.8538 11.0542C15.8538 11.0542 15.9145 11.1161 15.9039 11.2397C15.9039 11.2397 16.0281 11.1739 16.2206 11.1728C16.2206 11.1728 16.1493 11.2568 16.1463 11.3055C16.1463 11.3055 16.413 11.276 16.5524 11.2987C16.5524 11.2987 16.1857 11.504 16.2887 11.5221C16.3918 11.5403 16.4994 11.521 16.4994 11.521C16.4994 11.521 16.3827 11.6401 16.1963 11.6639C16.1963 11.6639 16.4327 11.6605 16.4797 11.7138C16.4797 11.7138 16.4124 11.7241 16.3213 11.7558C16.3213 11.7558 16.2534 11.6919 16.0564 11.701C16.0564 11.701 16.2096 11.6152 16.3312 11.5875C16.3312 11.5875 16.2776 11.5172 16.1937 11.5815C16.1937 11.5815 16.0271 11.4666 16.1645 11.369C16.1645 11.369 16.0675 11.3486 16.0038 11.394C16.0038 11.394 16.0069 11.3153 16.0776 11.2798C16.0776 11.2798 15.8907 11.2495 15.8442 11.3872C15.8442 11.3872 15.8089 11.3304 15.825 11.2662C15.825 11.2662 15.7119 11.3312 15.6603 11.405C15.6604 11.405 15.6433 11.2652 15.5716 11.213ZM15.2094 12.102C15.1758 12.1102 15.1309 12.1138 15.0714 12.1101C15.0714 12.1101 15.0765 12.092 15.115 12.0784C15.115 12.0784 15.126 12.1014 15.2094 12.102Z" fill="#999999"/>
<path d="M15.5547 11.5722C15.5547 11.5722 15.6396 11.6391 15.6699 11.6799C15.6699 11.6799 15.7471 11.6255 15.7759 11.5812C15.7759 11.5812 15.8365 11.6209 15.8578 11.6799C15.8578 11.6799 15.9002 11.6504 15.9093 11.6096C15.9093 11.6096 16.0163 11.6323 16.0514 11.6674C16.0514 11.6674 16.0678 11.5642 16.0514 11.4996C16.0514 11.4996 16.126 11.5052 16.1715 11.5245C16.1715 11.5245 16.1292 11.4565 16.345 11.3691C16.345 11.3691 16.1818 11.4042 16.1199 11.4758C16.1199 11.4758 16.0502 11.4792 16.0199 11.4576C16.0199 11.4576 16.0244 11.562 16.0214 11.6119C16.0214 11.6119 15.9794 11.5948 15.8973 11.5756C15.8973 11.5756 15.8775 11.6096 15.8638 11.6175C15.8638 11.6175 15.8123 11.5767 15.7896 11.5245C15.7896 11.5245 15.7107 11.5961 15.6805 11.6266C15.6805 11.6266 15.6062 11.5744 15.5547 11.5722Z" fill="black"/>
<path d="M15.0645 12.6357C15.0645 12.6357 15.0979 12.6517 15.1771 12.5879C15.2563 12.524 15.4801 12.3816 15.5014 12.2676C15.5227 12.1536 15.4299 12.1468 15.3568 12.1799C15.2837 12.2129 15.3141 12.2767 15.3172 12.2972C15.3202 12.3177 15.3218 12.3975 15.203 12.5081C15.0842 12.6187 15.0645 12.6357 15.0645 12.6357Z" fill="#FFC221"/>
<path d="M15.0381 12.6716C15.0381 12.6716 14.8584 12.5964 15.0198 12.5155C15.1812 12.4346 15.2528 12.4129 15.2711 12.3457C15.2894 12.2784 15.2787 12.2898 15.2193 12.3183C15.1599 12.3468 14.9315 12.4494 14.8965 12.3537C14.8965 12.3537 14.9909 12.3901 15.1082 12.3332C15.2254 12.2762 15.3213 12.2591 15.2467 12.2351C15.1721 12.2112 14.9026 12.2408 14.8584 12.2534C14.8143 12.2659 14.825 12.2636 14.8173 12.3081C14.8097 12.3525 14.7595 12.4459 14.7412 12.4733C14.7229 12.5006 14.6788 12.6146 14.761 12.6648C14.8432 12.7149 14.9735 12.7115 15.0381 12.6716Z" fill="#FFC221"/>
<path d="M14.9705 12.2799C14.9705 12.2799 14.9288 12.2857 14.9365 12.3019C14.9442 12.3181 14.9551 12.3158 14.9705 12.3169C14.986 12.3181 15.0091 12.3088 15.0122 12.2984C15.0153 12.288 14.986 12.2765 14.9705 12.2799Z" fill="black"/>
<path d="M15.0271 12.6312C15.0271 12.6312 14.9418 12.5902 15.0378 12.5378C15.1337 12.4854 15.2372 12.4352 15.2509 12.4136C15.2509 12.4135 15.2053 12.4785 15.0271 12.6312Z" fill="white"/>
</g>
<defs>
<clipPath id="clip0_1692_54169">
<rect x="2.07227" y="5.3501" width="19.9509" height="13.2997" rx="1" fill="white"/>
</clipPath>
</defs>
</svg>
