<svg width="25" height="24" viewBox="0 0 25 24" fill="none" xmlns="http://www.w3.org/2000/svg">
<g clip-path="url(#clip0_1692_54149)">
<path d="M2.0957 5.3501H22.0452V18.6498H2.0957V5.3501Z" fill="black"/>
<path d="M2.0957 5.3501H22.0452V11.9999H2.0957V5.3501Z" fill="#CC092F"/>
<path fill-rule="evenodd" clip-rule="evenodd" d="M10.761 9.91148H11.5732L11.8195 9.14593L12.0724 9.91148H12.8846L12.2322 10.3975L12.4851 11.1763L11.8195 10.7036L11.1605 11.1763L11.4134 10.3975L10.761 9.91148Z" fill="#FFCB00"/>
<path fill-rule="evenodd" clip-rule="evenodd" d="M13.73 14.0989L13.091 13.5995C13.7366 13.0736 14.1561 12.2681 14.1561 11.3694C14.1561 9.9981 13.1776 8.8464 11.886 8.57346L11.9859 8.10742C12.1657 8.14739 12.3765 8.22306 12.5496 8.28289L12.7161 8.00342C12.8956 8.08987 13.0955 8.17638 13.2618 8.28289L13.1354 8.58253C13.3019 8.68911 13.5028 8.85409 13.6146 8.984L13.8645 8.78874C13.9977 8.93513 14.1575 9.08814 14.2707 9.24805L14.0443 9.48106C14.1905 9.69562 14.247 9.79437 14.3548 10.0416L14.6723 9.96709C14.7323 10.1535 14.8234 10.3816 14.8568 10.5746L14.556 10.6928C14.592 10.8428 14.6385 11.1047 14.6355 11.3251C14.6352 11.3384 14.6342 11.3534 14.6342 11.3667L14.9483 11.4115C14.935 11.6046 14.9284 11.8244 14.8883 12.0174H14.5622C14.5156 12.217 14.4555 12.4612 14.3824 12.6475L14.6552 12.8074C14.5688 12.9804 14.4823 13.1868 14.3691 13.3532L14.0695 13.2268C13.9563 13.3932 13.8299 13.5529 13.6901 13.6994L13.8831 13.9523C13.8299 13.9989 13.7833 14.0455 13.73 14.0988V14.0989ZM12.3255 14.0389L12.8081 14.3297C12.7631 14.3709 12.6283 14.4407 12.5925 14.4548L12.6714 14.7577C12.4851 14.8178 12.2853 14.9042 12.0791 14.9442L11.9593 14.6447C11.7662 14.6846 11.5732 14.7112 11.3735 14.7112L11.3334 15.024C11.1471 15.0108 10.9208 15.024 10.7144 14.9774V14.6647C10.5279 14.6313 10.3482 14.5847 10.1752 14.5248L10.022 14.7979C9.86228 14.7312 9.64929 14.6513 9.47613 14.5448L9.58935 14.2453C9.44948 14.172 9.32302 14.0788 9.20322 13.9855L9.50279 13.6061C9.99546 13.9989 10.6145 14.2318 11.2935 14.2318C11.6531 14.2318 12.0058 14.172 12.3255 14.0389" fill="#FFCB00"/>
<path fill-rule="evenodd" clip-rule="evenodd" d="M14.3371 14.8105L11.1512 12.3859L11.1221 12.4273L14.2999 14.8561L14.1113 15.0921L11.0135 13.1052C10.1747 12.5792 10.208 12.1665 10.3811 11.7205L10.5276 11.3611C10.6075 11.8271 11.0867 12.18 11.586 12.5726L14.3992 14.7337L14.3371 14.8105ZM15.137 15.5331C15.1305 15.5331 15.124 15.5318 15.118 15.5293C15.112 15.5268 15.1065 15.5232 15.1019 15.5186C15.0973 15.514 15.0937 15.5085 15.0912 15.5025C15.0888 15.4965 15.0875 15.49 15.0875 15.4835C15.0875 15.477 15.0888 15.4706 15.0913 15.4646C15.0938 15.4586 15.0974 15.4531 15.102 15.4485C15.1066 15.4439 15.112 15.4403 15.118 15.4378C15.124 15.4353 15.1305 15.434 15.137 15.434C15.1644 15.434 15.1866 15.4562 15.1866 15.4835C15.1866 15.49 15.1853 15.4965 15.1828 15.5025C15.1803 15.5085 15.1767 15.514 15.1721 15.5186C15.1675 15.5232 15.162 15.5269 15.156 15.5294C15.1499 15.5319 15.1435 15.5331 15.137 15.5331ZM14.9465 15.3933C14.9334 15.3933 14.9208 15.3881 14.9115 15.3788C14.9022 15.3695 14.897 15.3569 14.897 15.3438C14.897 15.334 14.8999 15.3244 14.9053 15.3162C14.9107 15.3081 14.9185 15.3017 14.9275 15.298C14.9366 15.2942 14.9466 15.2932 14.9562 15.2951C14.9658 15.297 14.9746 15.3018 14.9816 15.3087C14.9885 15.3156 14.9932 15.3244 14.9951 15.3341C14.9971 15.3437 14.9961 15.3536 14.9923 15.3627C14.9886 15.3718 14.9822 15.3795 14.9741 15.385C14.9659 15.3904 14.9564 15.3933 14.9465 15.3933ZM14.7517 15.238C14.7244 15.238 14.7021 15.2159 14.7021 15.1886C14.7025 15.1757 14.7079 15.1635 14.7172 15.1545C14.7264 15.1455 14.7388 15.1405 14.7517 15.1405C14.7646 15.1405 14.777 15.1455 14.7862 15.1545C14.7955 15.1635 14.8008 15.1757 14.8012 15.1886C14.8012 15.2159 14.7791 15.238 14.7517 15.238ZM15.4068 15.5129L14.4522 14.7733L14.1748 15.1308L15.0041 15.7123C15.0707 15.7589 15.0772 15.9721 15.3234 16.0054C15.4235 16.0186 15.4898 15.9453 15.4898 15.9453C15.5971 15.8147 15.5679 15.635 15.4068 15.5129Z" fill="#FFCB00"/>
</g>
<defs>
<clipPath id="clip0_1692_54149">
<rect x="2.0957" y="5.3501" width="19.9495" height="13.2997" rx="1" fill="white"/>
</clipPath>
</defs>
</svg>
