<svg width="25" height="24" viewBox="0 0 25 24" fill="none" xmlns="http://www.w3.org/2000/svg">
<g clip-path="url(#clip0_1692_54166)">
<path d="M2.60742 5.3501H22.5569V18.6498H2.60742V5.3501Z" fill="#012169"/>
<path fill-rule="evenodd" clip-rule="evenodd" d="M6.47959 7.84378L2.60742 5.9077L2.60743 5.3501H3.72264L7.5948 7.28618L11.467 5.3501L12.5822 5.3501V5.9077L8.71001 7.84378L12.5822 9.77986V10.3375L11.4683 10.3381L7.5948 8.40139L3.72264 10.3375H2.60743L2.60742 9.77987L6.47959 7.84378Z" fill="white"/>
<path fill-rule="evenodd" clip-rule="evenodd" d="M6.85134 7.84378L2.60742 5.72183L2.60744 5.3501H3.35091L7.59481 7.47205L11.8387 5.3501L12.5822 5.3501V5.72183L8.33828 7.84378L12.5822 9.96572L12.5822 10.3375H11.8387L7.59481 8.21552L3.35091 10.3375H2.60744L2.60742 9.96574L6.85134 7.84378Z" fill="#C8102E"/>
<path fill-rule="evenodd" clip-rule="evenodd" d="M6.76356 7.01255V5.3501H8.42602V7.01255H12.5822V8.67501H8.42602V10.3375H6.76356V8.67501H2.60742V7.01255H6.76356Z" fill="white"/>
<path fill-rule="evenodd" clip-rule="evenodd" d="M7.09606 7.34505V5.3501H8.09353V7.34505H12.5822V8.34252H8.09353V10.3375H7.09606V8.34252H2.60742V7.34505H7.09606Z" fill="#C8102E"/>
<path d="M15.3338 9.21289C15.3338 12.1422 15.6734 13.1516 16.3534 13.8316C16.759 14.2342 16.9387 14.3857 17.5684 14.7996C18.1981 14.3857 18.3779 14.2342 18.7834 13.8316C19.4634 13.1516 19.8031 12.1422 19.8031 9.21289C19.3085 9.42465 19.0267 9.52731 18.6188 9.52103C18.254 9.51542 17.8674 9.34597 17.5684 9.21289C17.2695 9.34597 16.8829 9.51541 16.5181 9.52103C16.1102 9.52731 15.8284 9.42465 15.3338 9.21289Z" fill="white"/>
<path fill-rule="evenodd" clip-rule="evenodd" d="M18.0069 11.1297C17.873 10.9986 17.7048 10.8338 17.636 10.6795C17.5849 10.5599 17.904 10.7074 18.009 10.7853C18.1108 10.8515 18.144 10.8526 18.2123 10.8547C18.257 10.8561 18.3169 10.858 18.4212 10.879C18.7304 10.9414 18.8783 11.1629 19.0218 11.3778C19.0392 11.4038 19.0565 11.4297 19.074 11.4552C19.0962 11.4858 19.1379 11.5061 19.1869 11.5299C19.2887 11.5793 19.4216 11.6439 19.4735 11.8474C19.3191 11.7648 19.1922 11.7257 19.0652 11.7825C19.0494 11.9479 18.8826 12.0929 18.7106 12.2424C18.548 12.3837 18.3808 12.529 18.3321 12.6994C18.3233 12.7256 18.3182 12.7645 18.3126 12.8074C18.2976 12.9209 18.279 13.0625 18.1795 13.0716C18.1474 12.9914 18.1609 12.9087 18.1731 12.8341C18.1858 12.7564 18.197 12.6873 18.154 12.6387C18.0921 12.6224 18.0247 12.6369 17.9556 12.6519C17.8515 12.6743 17.7436 12.6976 17.6451 12.6173C17.8331 12.5272 17.9103 12.5236 17.9759 12.5205C18.035 12.5178 18.0847 12.5155 18.1977 12.4507C18.4363 12.3224 18.6732 11.7327 18.3846 11.4581C18.2656 11.4301 18.2511 11.4448 18.0986 11.5983C18.0822 11.6148 18.0642 11.6329 18.0443 11.6528C18.0309 11.4471 18.0469 11.4306 18.1286 11.3462C18.1409 11.3335 18.1548 11.3192 18.1702 11.3025C18.1383 11.2585 18.0773 11.1988 18.0069 11.1297ZM18.393 10.9473C18.393 10.9762 18.3684 10.9996 18.3381 10.9996C18.3078 10.9996 18.2833 10.9762 18.2833 10.9473C18.2833 10.9185 18.3078 10.8951 18.3381 10.8951C18.3684 10.8951 18.393 10.9185 18.393 10.9473Z" fill="#FF9900"/>
<path fill-rule="evenodd" clip-rule="evenodd" d="M17.0387 11.1556C16.9796 11.3297 16.9054 11.5485 16.7945 11.6785C16.7074 11.7774 16.6951 11.4396 16.7183 11.3147C16.7322 11.1979 16.7176 11.1694 16.6877 11.1109C16.6681 11.0725 16.6419 11.0212 16.6127 10.9235C16.5261 10.6336 16.6624 10.4055 16.7946 10.1841C16.8107 10.1573 16.8266 10.1306 16.8421 10.104C16.8601 10.071 16.8594 10.0263 16.8586 9.97398C16.8569 9.86504 16.8547 9.72284 17.0192 9.58398C17.0147 9.75277 17.0377 9.87801 17.1498 9.95851C17.3105 9.89454 17.5228 9.96744 17.7418 10.0426C17.9488 10.1137 18.1617 10.1867 18.3425 10.1482C18.3709 10.1433 18.4094 10.1294 18.4518 10.1142C18.5641 10.0737 18.704 10.0233 18.759 10.1029C18.6996 10.1675 18.6166 10.1947 18.5417 10.2193C18.4637 10.2449 18.3944 10.2676 18.3694 10.3266C18.3832 10.3864 18.4282 10.4365 18.4743 10.4877C18.5438 10.565 18.6158 10.645 18.5874 10.7656C18.4159 10.6492 18.3765 10.5859 18.3431 10.532C18.3129 10.4835 18.2875 10.4426 18.1746 10.3776C17.9443 10.2364 17.2866 10.3122 17.1668 10.6838C17.1964 10.7971 17.2168 10.8025 17.4304 10.8593C17.4534 10.8655 17.4786 10.8722 17.5063 10.8797C17.3218 10.9871 17.299 10.9813 17.1827 10.9518C17.1651 10.9474 17.1454 10.9424 17.1226 10.9372C17.0968 10.9846 17.0699 11.0639 17.0387 11.1556ZM16.6892 10.9153C16.716 10.9018 16.7492 10.9116 16.7634 10.9371C16.7775 10.9626 16.7673 10.9943 16.7405 11.0078C16.7137 11.0213 16.6805 11.0115 16.6664 10.986C16.6522 10.9604 16.6624 10.9288 16.6892 10.9153Z" fill="#FF9900"/>
<path fill-rule="evenodd" clip-rule="evenodd" d="M17.5744 11.8893C17.7613 11.8475 17.9961 11.7949 18.1702 11.8181C18.304 11.838 18.0072 12.0228 17.883 12.0685C17.771 12.1176 17.753 12.1441 17.7159 12.1988C17.6916 12.2347 17.6591 12.2827 17.5865 12.357C17.3711 12.5776 17.0958 12.5844 16.8286 12.591C16.7963 12.5918 16.7641 12.5926 16.7321 12.5938C16.6933 12.5961 16.6535 12.6198 16.6069 12.6475C16.51 12.7053 16.3835 12.7806 16.1738 12.7182C16.3276 12.6346 16.4281 12.551 16.4424 12.418C16.3019 12.3199 16.2575 12.1089 16.2116 11.8914C16.1684 11.6857 16.1238 11.4742 15.9957 11.3467C15.9766 11.326 15.9443 11.3018 15.9086 11.2751C15.8143 11.2044 15.6966 11.1163 15.7396 11.0303C15.8283 11.0453 15.8957 11.0989 15.9565 11.1474C16.0198 11.1977 16.0761 11.2425 16.1419 11.2324C16.1885 11.1902 16.2102 11.1276 16.2323 11.0635C16.2657 10.9668 16.3003 10.8667 16.4233 10.8275C16.4075 11.0276 16.371 11.0925 16.3399 11.1477C16.312 11.1974 16.2884 11.2392 16.2885 11.365C16.2809 11.6259 16.6891 12.1233 17.0846 12.0289C17.1711 11.9461 17.1654 11.9266 17.1059 11.723C17.0995 11.7011 17.0925 11.677 17.0849 11.6506C17.2767 11.7455 17.2833 11.7671 17.3171 11.8773C17.3222 11.8939 17.3279 11.9126 17.335 11.9339C17.3909 11.9304 17.476 11.9114 17.5744 11.8893ZM17.5395 12.2988C17.5136 12.2839 17.5052 12.2518 17.5208 12.227C17.5364 12.2023 17.5701 12.1943 17.596 12.2091C17.622 12.224 17.6304 12.2561 17.6148 12.2809C17.5992 12.3057 17.5655 12.3137 17.5395 12.2988Z" fill="#FF9900"/>
<path d="M15.8906 13.21C16.021 13.4574 16.1739 13.6557 16.3497 13.8316C16.7553 14.2341 16.935 14.3856 17.5647 14.7995C18.1944 14.3856 18.3742 14.2341 18.7797 13.8316C18.9556 13.6557 19.1085 13.4574 19.2388 13.21H15.8906Z" fill="#99CCFF"/>
<path d="M15.2383 9.09668C15.2383 12.1481 15.5921 13.1995 16.3004 13.9078C16.7229 14.3272 16.9101 14.485 17.5661 14.9161C18.222 14.485 18.4092 14.3272 18.8317 13.9078C19.54 13.1995 19.8938 12.1481 19.8938 9.09668C19.3786 9.31726 19.085 9.4242 18.6602 9.41766C18.2802 9.41181 17.8775 9.23531 17.5661 9.09668C17.2546 9.23531 16.852 9.4118 16.4719 9.41766C16.0471 9.4242 15.7535 9.31726 15.2383 9.09668ZM15.3779 9.25962C15.8622 9.46785 16.1382 9.56882 16.5376 9.56264C16.8948 9.55712 17.2733 9.39049 17.5661 9.25962C17.8588 9.39049 18.2373 9.55713 18.5946 9.56264C18.9939 9.56882 19.2699 9.46785 19.7542 9.25962C19.7542 12.1401 19.4216 13.1327 18.7558 13.8013C18.3587 14.1972 18.1826 14.3462 17.5661 14.7532C16.9495 14.3462 16.7734 14.1972 16.3763 13.8013C15.7105 13.1327 15.3779 12.1401 15.3779 9.25962Z" fill="#FDC301"/>
</g>
<defs>
<clipPath id="clip0_1692_54166">
<rect x="2.60742" y="5.3501" width="19.9498" height="13.2997" rx="1" fill="white"/>
</clipPath>
</defs>
</svg>
