<svg width="25" height="24" viewBox="0 0 25 24" fill="none" xmlns="http://www.w3.org/2000/svg">
<g clip-path="url(#clip0_1692_54151)">
<path fill-rule="evenodd" clip-rule="evenodd" d="M22.5804 5.3501V9.8106H2.63086V5.3501H22.5804ZM22.5804 18.6498H2.63086V14.4687H22.5325C22.5374 14.4496 22.5611 14.464 22.5804 14.4592V18.6498Z" fill="#ADC7E9"/>
<path fill-rule="evenodd" clip-rule="evenodd" d="M12.6517 10.0814C12.6325 10.0528 12.6706 9.98535 12.6135 9.98535C12.5659 10.1441 12.6135 10.3415 12.5707 10.5007C12.5707 10.6305 12.547 10.751 12.5518 10.8813C12.5374 10.9486 12.5565 11.0351 12.5232 11.0932C12.4755 11.0979 12.5136 11.0403 12.485 11.0258C12.4755 10.915 12.485 10.7803 12.4564 10.6838C12.4233 10.497 12.2959 10.3624 12.285 10.1668L12.2804 10.1646L12.2878 10.1243L12.297 10.0822L12.308 10.0602L12.3117 10.0327L12.3134 10.0305V10.0141H12.28C12.2372 10.0528 12.2275 10.1249 12.199 10.1829C12.199 10.2745 12.199 10.3704 12.2275 10.443C12.2324 10.4671 12.242 10.4959 12.2514 10.5103C12.2563 10.5584 12.2848 10.6017 12.28 10.6547C12.2991 10.7076 12.2944 10.78 12.2848 10.8332C12.2706 10.8812 12.2991 10.9485 12.2658 10.9776C12.2181 10.9296 12.2087 10.8619 12.1704 10.8138C12.0655 10.5919 11.9512 10.351 11.8272 10.1248C11.8178 10.1248 11.8083 10.12 11.7986 10.1295C11.813 10.1777 11.8178 10.2404 11.8417 10.2786C11.8558 10.3173 11.8655 10.351 11.8797 10.3897C11.8892 10.438 11.9035 10.4765 11.9275 10.515C11.9345 10.5684 11.9571 10.6084 11.9744 10.6547L11.9728 10.6554L12.0796 11.02C12.077 11.0226 12.0739 11.0244 12.0704 11.0255C12.0562 11.0109 12.0322 10.987 12.0132 10.987C11.9895 10.9438 11.9275 10.9246 11.9035 10.8857C11.9035 10.8521 11.8607 10.8521 11.8558 10.8183C11.837 10.7798 11.7986 10.7462 11.7891 10.7025C11.7417 10.6253 11.7084 10.5388 11.6415 10.4762C11.6178 10.4571 11.5939 10.4378 11.5652 10.428C11.5652 10.428 11.5557 10.4232 11.5606 10.4185H11.5415C11.5415 10.4137 11.5368 10.4137 11.5368 10.4089H11.5225C11.5178 10.4042 11.5129 10.3993 11.5129 10.3945C11.4796 10.3896 11.4415 10.3751 11.4082 10.3896C11.4033 10.4233 11.4272 10.4089 11.4463 10.4281C11.4654 10.4428 11.4844 10.4572 11.4987 10.4764H11.5082C11.5176 10.5101 11.5558 10.5247 11.5653 10.5582C11.6321 10.6352 11.6416 10.7799 11.6941 10.8714C11.6988 10.9099 11.7273 10.9295 11.732 10.9679C11.7559 11.0015 11.7798 11.016 11.7892 11.0546L11.937 11.1991C11.937 11.2377 11.9942 11.2424 11.9705 11.2858C11.937 11.281 11.9324 11.2473 11.899 11.2473C11.8847 11.2281 11.8704 11.204 11.8513 11.204C11.7704 11.1315 11.6845 11.0594 11.6082 10.9872C11.5463 10.9296 11.4987 10.8812 11.4273 10.8332C11.4083 10.8139 11.3939 10.7802 11.3605 10.7753C11.313 10.7125 11.2461 10.6691 11.189 10.6161C11.1558 10.6161 11.1558 10.5584 11.1128 10.5825V10.6116C11.2079 10.727 11.2985 10.8186 11.3988 10.9344L11.4014 10.9375L11.7685 11.3528L11.7799 11.3631L11.7798 11.3654L11.8228 11.4141L11.8264 11.4324L11.8182 11.4401C11.799 11.4401 11.7848 11.4206 11.7656 11.4206C11.7562 11.3968 11.7276 11.3968 11.7134 11.3679C11.6665 11.3208 11.6154 11.2781 11.5641 11.231L11.5646 11.2309C11.5646 11.2309 11.5701 11.2236 11.5554 11.218C11.543 11.2122 11.5313 11.2048 11.5206 11.196C11.5206 11.196 11.5114 11.1906 11.5078 11.185C11.5041 11.1794 11.4803 11.1794 11.4747 11.1722C11.4692 11.1649 11.4729 11.1685 11.4619 11.1612C11.4509 11.1539 11.4362 11.1557 11.4344 11.1502C11.4326 11.1447 11.4143 11.1482 11.407 11.1429C11.3997 11.1373 11.3466 11.1209 11.3466 11.1209L11.2982 11.1135L11.2986 11.1123H11.2907L11.2751 11.11L11.2817 11.1123H11.2787L11.1671 11.0605L11.1672 11.0628C11.1109 11.0339 11.0504 10.9961 11.0128 10.9441L11.0134 10.9425L10.995 10.9145C10.9927 10.9133 10.9906 10.9119 10.9888 10.9102C10.9794 10.8861 10.9601 10.8717 10.965 10.8333H10.9366C10.9413 10.915 10.9413 11.0067 10.9986 11.0596C11.0376 11.1168 11.1003 11.1737 11.1651 11.2015V11.2017L11.2851 11.2756L11.2845 11.2765L11.2862 11.2763L11.3305 11.3036C11.3331 11.306 11.3361 11.3078 11.3393 11.3091L11.3869 11.3427L11.4217 11.3738L11.4466 11.4018L11.5275 11.4789C11.5323 11.5025 11.556 11.5122 11.5656 11.5415V11.5557L11.5506 11.5507C11.5492 11.5507 11.5478 11.5508 11.5464 11.5509L11.4922 11.5327C11.4922 11.5322 11.4923 11.5317 11.4926 11.5312L11.4871 11.5293C11.4861 11.5296 11.4851 11.5298 11.4842 11.53L11.4484 11.5181C11.4428 11.5145 11.4363 11.5124 11.4297 11.5119L11.3798 11.4952V11.4935L11.3785 11.4929H11.3733L11.3082 11.471L11.308 11.4692L11.3068 11.4688H11.3017L11.2745 11.4597V11.4594C11.2704 11.4577 11.2662 11.4564 11.2619 11.4554L11.2094 11.4378L11.2079 11.4356L11.2065 11.4351H11.2014L11.1122 11.4051L11.1032 11.4016L11.1019 11.4017L11.0484 11.3837L11.0416 11.3796L11.0208 11.3727C11.0187 11.3725 11.0165 11.3723 11.0143 11.3722L11.0116 11.3713C11.0073 11.3678 11.0018 11.366 10.9962 11.3662L10.9657 11.3559L10.9651 11.3539L10.9623 11.353H10.957L10.9316 11.3445V11.3436H10.9292L10.8643 11.3219C10.8644 11.3214 10.8646 11.3208 10.8649 11.3203L10.8584 11.3182L10.8582 11.3181L10.8452 11.3156L10.6633 11.2546L10.6591 11.2672L10.6554 11.2667V11.2859C10.6569 11.2874 10.6581 11.289 10.6591 11.2908L10.6576 11.2948L11.4694 11.707L11.4664 11.7081L11.4696 11.7097C11.4744 11.7176 11.4803 11.7257 11.4704 11.729L11.3704 11.7387C11.3181 11.7576 11.2512 11.7435 11.1893 11.7481C11.1885 11.7472 11.1877 11.7462 11.1869 11.7455H11.1799L11.158 11.74L11.1323 11.7382L11.1293 11.7374C11.1274 11.7371 11.1255 11.7366 11.1237 11.7361L11.1103 11.7327L11.0846 11.729L11.0646 11.7217L11.0407 11.7106L11.0132 11.7014L10.9875 11.696L10.9473 11.6832L10.929 11.6794L10.912 11.6723L10.8973 11.6686H10.87L10.8666 11.6666H10.7026C10.6685 11.6799 10.6336 11.6911 10.5981 11.7001C10.5742 11.7244 10.5265 11.7244 10.541 11.7722H10.5599C10.5998 11.7499 10.6679 11.7442 10.7232 11.7512L10.7161 11.7509L10.7362 11.7576V11.7578L10.7369 11.7579L10.8773 11.8042L10.9433 11.8261L10.9928 11.8554L11.0295 11.8738L11.0808 11.894L11.1366 11.9122L11.2175 11.9313C11.3223 11.9461 11.4323 11.9413 11.5369 11.951V11.9557C11.5559 11.9603 11.5845 11.9461 11.594 11.9749C11.6035 11.9939 11.5796 11.9891 11.5702 11.9988C11.2175 12.0421 10.8554 12.0566 10.498 12.0903V12.1145C10.6171 12.1338 10.7458 12.1434 10.8746 12.1482C10.9315 12.1626 10.9985 12.1434 11.0508 12.1626C11.189 12.1531 11.3032 12.1914 11.4416 12.177C11.4988 12.2011 11.5797 12.1722 11.637 12.2062V12.2158C11.513 12.2591 11.3748 12.2591 11.2413 12.2636C11.1511 12.2784 11.0795 12.3023 11.0128 12.3457C10.9748 12.3554 10.9413 12.3942 10.9031 12.3942C10.8365 12.4471 10.7269 12.4471 10.6411 12.4423C10.622 12.4277 10.5935 12.423 10.5792 12.4086H10.5412C10.522 12.4423 10.5745 12.4567 10.5792 12.476C10.5931 12.4865 10.6093 12.4942 10.6226 12.5015L10.6211 12.5023L10.6318 12.5067L10.6364 12.5098H10.6393L10.6696 12.5221L10.6697 12.5242L10.679 12.5261L10.6836 12.528L10.6839 12.5271C10.8274 12.5551 10.9734 12.5133 11.0797 12.4713C11.0986 12.4569 11.1273 12.4762 11.1415 12.452C11.213 12.4666 11.2653 12.4278 11.337 12.4424C11.382 12.4673 11.4448 12.4456 11.4887 12.4606L10.9272 12.7643L10.8851 12.7863L10.8944 12.783L10.8796 12.7893C10.851 12.7942 10.8271 12.8279 10.7984 12.8373C10.746 12.8616 10.6697 12.876 10.6506 12.934C10.6585 12.9388 10.6676 12.9413 10.6768 12.9413C10.686 12.9413 10.6951 12.9388 10.703 12.934C10.7287 12.9299 10.7513 12.9199 10.7732 12.9098L10.859 12.8813C10.8626 12.881 10.8662 12.8809 10.8699 12.8809C10.8881 12.8746 10.9055 12.8675 10.9225 12.86L11.0454 12.8192C11.0538 12.8194 11.062 12.8166 11.0688 12.8115L11.5464 12.6528L11.5525 12.6505C11.5553 12.6514 11.5581 12.6528 11.561 12.6544C11.4847 12.741 11.4276 12.8326 11.337 12.8953C11.3194 12.9095 11.2942 12.9184 11.2745 12.9337L11.2624 12.9366C11.2624 12.9366 11.246 12.9513 11.2258 12.9549C11.2056 12.9585 11.1947 12.9715 11.1947 12.9715C11.1947 12.9715 11.1782 12.9806 11.1727 12.9825C11.1661 12.986 11.16 12.9903 11.1544 12.9953L11.1324 13.008L11.1013 13.0301L11.0885 13.0355C11.0885 13.0355 11.0831 13.0373 11.0739 13.0411C11.0647 13.0447 11.061 13.0502 11.0537 13.0557C11.0464 13.0612 11.0354 13.0704 11.0354 13.0704L11.0115 13.0906L10.9896 13.1144L10.9712 13.1401L10.9566 13.1603L10.9434 13.2052C10.9429 13.2049 10.9421 13.2044 10.9415 13.2038V13.2119L10.9364 13.2296C10.9347 13.2296 10.9331 13.2289 10.932 13.2277C10.9272 13.2712 10.913 13.3096 10.9225 13.3578C10.9604 13.3722 10.9463 13.329 10.9653 13.3146C10.9939 13.2469 11.0655 13.1892 11.1322 13.1456C11.1846 13.1263 11.2321 13.1023 11.2847 13.0831C11.3275 13.059 11.3799 13.0687 11.4182 13.0301L11.4232 13.0289L11.4201 13.0263L11.5264 12.9732L11.5612 12.9457C11.5612 12.9457 11.6015 12.9164 11.6053 12.911C11.6089 12.9054 11.629 12.887 11.629 12.887C11.629 12.887 11.6328 12.8834 11.6474 12.8706C11.6621 12.8577 11.6621 12.8595 11.6712 12.8504C11.6804 12.8412 11.6895 12.8339 11.6969 12.8265C11.7042 12.8192 11.7097 12.8119 11.7153 12.8082C11.7207 12.8046 11.7263 12.799 11.7372 12.7917C11.7481 12.7843 11.7464 12.7826 11.761 12.777L11.7635 12.776C11.7867 12.7611 11.8126 12.75 11.8389 12.7427L11.3211 13.3561C11.3071 13.3696 11.2945 13.3845 11.2835 13.4006L11.1656 13.5403L11.1637 13.5446L11.1647 13.5443C11.1574 13.5703 11.1236 13.5808 11.137 13.6177C11.1846 13.6033 11.2178 13.5743 11.2512 13.5455C11.2989 13.5018 11.3226 13.4732 11.3609 13.4345C11.3991 13.42 11.4228 13.3768 11.4562 13.3575C11.499 13.3286 11.5229 13.2804 11.5657 13.2611C11.6561 13.1596 11.7754 13.0875 11.8755 12.9865C11.9183 12.9718 11.9517 12.8949 11.9995 12.8996C11.978 12.9644 11.9061 13.0211 11.8531 13.0777C11.8522 13.0781 11.8512 13.0785 11.8504 13.0791C11.8428 13.0848 11.8359 13.0916 11.8302 13.0992C11.8247 13.1066 11.8174 13.112 11.8119 13.1158C11.8065 13.1195 11.8009 13.1286 11.7973 13.136C11.7936 13.1434 11.7624 13.1817 11.7624 13.1817C11.7624 13.1817 11.7514 13.2 11.7404 13.2128C11.7294 13.2257 11.7037 13.2696 11.7037 13.2696L11.6836 13.3246L11.6514 13.4343C11.6323 13.5501 11.5656 13.6609 11.4943 13.7333C11.4512 13.7571 11.3892 13.7666 11.3703 13.8102C11.5131 13.8343 11.6275 13.7428 11.6943 13.6465C11.7229 13.6273 11.7276 13.5886 11.7562 13.5642L11.7775 13.5162L11.7782 13.5161L11.7801 13.512V13.5104L11.7882 13.4922L11.7892 13.4921L11.7895 13.4913V13.4891L11.7974 13.4715L11.7983 13.4723L11.8144 13.437C11.8163 13.4318 11.8187 13.4269 11.8213 13.4221L11.8249 13.4142C11.8249 13.4142 11.8431 13.3831 11.8487 13.3795C11.8541 13.3758 11.8834 13.3447 11.8834 13.3447L11.9091 13.3025L11.966 13.2513C11.966 13.2513 11.975 13.242 11.9823 13.2384C11.9897 13.2348 11.9951 13.2274 12.0007 13.2237C12.0059 13.2203 12.0228 13.205 12.0244 13.2037V13.2035C12.0431 13.1838 12.0622 13.1666 12.0945 13.169L11.8989 13.7958L11.8984 13.7969L11.8108 14.0894L11.8178 14.0973L11.8174 14.0993L11.8204 14.1003L11.8228 14.1029L11.8238 14.1012L11.8356 14.1047L11.8548 14.0619L11.8562 14.0603V14.0589L11.8657 14.0375C11.8672 14.0368 11.8688 14.0364 11.8705 14.0363C11.8753 14.017 11.8942 13.9881 11.9038 13.9687L11.9847 13.8197L12.0768 13.6269L12.0755 13.6265L12.2551 13.251L12.2518 13.2602L12.2559 13.2518C12.2626 13.247 12.2691 13.2411 12.2756 13.2511C12.2708 13.3331 12.3088 13.4003 12.285 13.4821H12.2845L12.282 13.5057C12.2842 13.5476 12.2785 13.5867 12.2698 13.6236L12.2695 13.6264L12.2459 13.7285L12.2458 13.7292L12.2373 13.7662L12.2187 13.8306C12.1927 13.9435 12.1951 14.0787 12.2707 14.147C12.2659 14.171 12.2992 14.1807 12.323 14.1758C12.2992 14.1082 12.2849 14.0362 12.2992 13.9545C12.3059 13.9501 12.3053 13.9402 12.3047 13.931C12.3064 13.9248 12.3076 13.9185 12.3084 13.9122C12.3096 13.9113 12.3112 13.9109 12.3134 13.9109C12.3118 13.906 12.3111 13.9008 12.3113 13.8956C12.3137 13.8864 12.3154 13.8883 12.3154 13.8883L12.3356 13.8462L12.3495 13.8185L12.3515 13.8195V13.8145L12.361 13.7954L12.4087 13.7036C12.4659 13.5783 12.4802 13.4291 12.4802 13.2752C12.485 13.2124 12.4898 13.1498 12.5232 13.0871C12.547 13.2799 12.5659 13.4436 12.5659 13.6171C12.5897 13.6557 12.5659 13.7233 12.5897 13.7662C12.599 13.9205 12.5945 14.0891 12.6276 14.2383C12.6847 14.2336 12.642 14.1566 12.6659 14.1179C12.6847 13.8482 12.6847 13.5689 12.7087 13.299C12.728 13.241 12.6943 13.1639 12.7373 13.111C12.7994 13.2316 12.7659 13.3906 12.7898 13.506C12.804 13.5496 12.804 13.5977 12.828 13.6362C12.828 13.6748 12.8566 13.6891 12.8661 13.718C12.9089 13.8 12.9613 13.8723 12.9708 13.9927C12.9899 14.0553 12.9422 14.1082 12.9517 14.1757C12.9899 14.1757 12.9994 14.1421 13.0234 14.1178V14.1123L13.0352 14.0938L13.0378 14.0937V14.0897L13.0389 14.0878L13.0498 14.053L13.0591 14.0016L13.058 13.9924C13.0742 13.7598 12.924 13.6117 12.9708 13.3663C12.9852 13.3279 12.9659 13.27 12.9899 13.2314L13.028 13.2845C13.1139 13.4382 13.1567 13.5976 13.2569 13.747C13.2711 13.7951 13.3044 13.8287 13.3141 13.8627C13.3427 13.9156 13.3665 13.9636 13.3904 14.007C13.4095 14.0312 13.4095 14.0793 13.4569 14.0696L13.3485 13.7419L13.3462 13.739L13.3307 13.695L13.3314 13.6905L13.3099 13.6251C13.2939 13.5874 13.2773 13.5505 13.2711 13.5154C13.2715 13.5136 13.2718 13.5119 13.272 13.5102L13.2552 13.4592C13.2464 13.447 13.2415 13.4323 13.2412 13.4172L13.2113 13.3264V13.3263C13.1895 13.2708 13.1744 13.213 13.1663 13.154H13.171C13.3093 13.2604 13.4618 13.4145 13.5237 13.5734C13.5335 13.6121 13.5621 13.6505 13.5858 13.6843C13.639 13.7266 13.6619 13.7596 13.7128 13.7836L13.7131 13.7837L13.7607 13.8056L13.8002 13.8192L13.8044 13.8184L13.8056 13.8182H13.8058C13.8277 13.8156 13.8495 13.8226 13.867 13.8094C13.874 13.7881 13.8524 13.7929 13.8426 13.7854L13.8377 13.7836L13.7754 13.7451L13.7763 13.7431C13.7177 13.7074 13.6891 13.6441 13.6572 13.5877C13.6332 13.5297 13.6237 13.4625 13.5953 13.4047C13.5953 13.383 13.5893 13.3633 13.5809 13.3445L13.5793 13.344C13.5723 13.3397 13.5672 13.3221 13.5654 13.3143C13.5619 13.3081 13.5583 13.3018 13.5547 13.2956L13.5445 13.2797L13.528 13.2522L13.4931 13.201L13.4399 13.1331L13.3426 13.0238C13.3187 12.9759 13.2568 12.9423 13.2663 12.8795C13.271 12.8804 13.2755 12.8823 13.2794 12.885L13.6723 13.2318C13.6751 13.2348 13.6781 13.2377 13.6807 13.2407H13.6823L13.7007 13.2569C13.7058 13.2656 13.7136 13.2724 13.7228 13.2764L13.7809 13.3277C13.8333 13.3566 13.8858 13.4335 13.9333 13.4626C13.9954 13.5202 14.0526 13.5831 14.1287 13.607V13.5926C14.0477 13.4912 13.9621 13.3854 13.8714 13.2891C13.871 13.2878 13.8701 13.2865 13.8694 13.2853L13.9036 13.3218L13.8633 13.2745C13.8565 13.2636 13.8482 13.2538 13.8386 13.2454L13.5725 12.9319C13.5676 12.9209 13.5597 12.9116 13.5497 12.905L13.4164 12.7479C13.4134 12.7387 13.4069 12.731 13.3982 12.7266L13.3964 12.7243C13.484 12.7222 13.5265 12.8038 13.5998 12.8407C13.6758 12.9422 13.7665 13.0094 13.8812 13.0429C13.9573 13.0672 14.0335 13.1054 14.1096 13.1396C14.1431 13.1633 14.1764 13.173 14.1957 13.2022C14.2194 13.2164 14.2431 13.2552 14.2668 13.2746C14.2764 13.3081 14.2859 13.3518 14.3241 13.3661C14.3385 13.3033 14.3148 13.2407 14.2955 13.1879C14.2645 13.1563 14.2433 13.1161 14.2054 13.0841L14.2059 13.0837L14.0959 12.9975L14.0947 12.9999C14.0734 12.985 14.0475 12.9791 14.0291 12.9647L13.94 12.9107C13.9244 12.8962 13.909 12.8757 13.8914 12.8624L13.7509 12.7181C13.7383 12.6972 13.7127 12.6866 13.7001 12.6675C13.6826 12.6501 13.7043 12.6406 13.7192 12.6388L13.7185 12.6403L13.7187 12.6404L13.7216 12.6348L14.0843 12.7711L14.1422 12.7919L14.1431 12.7929H14.1449L14.1966 12.8114L14.2063 12.8172L14.2068 12.8173L14.2184 12.8217C14.2215 12.8218 14.2246 12.8221 14.2277 12.8225L14.2984 12.8479C14.314 12.8552 14.3296 12.8627 14.3463 12.8683L14.3303 12.8603L14.5503 12.9207H14.5741L14.598 12.908L14.6018 12.9054L14.4831 12.8459H14.4815C14.4809 12.8453 14.4802 12.8446 14.4795 12.8441L14.3713 12.7897C14.3699 12.7893 14.3685 12.7888 14.3671 12.7882L14.3655 12.7869L14.3602 12.7843L14.3597 12.7854L14.2706 12.74H14.2668C14.2633 12.74 14.2596 12.737 14.2582 12.7335L14.2517 12.7304C14.2376 12.7289 14.2298 12.722 14.2211 12.7147L14.2013 12.7046L14.1185 12.663H14.1145C14.1145 12.6622 14.1143 12.6614 14.114 12.6606L14.1105 12.6588L14.111 12.6583L14.0731 12.6388H14.0715C14.071 12.6382 14.0705 12.6377 14.0699 12.6374L14.0257 12.6148H14.0239L14.0237 12.6136L13.7984 12.4988V12.4986L13.7977 12.4983L13.7968 12.498L13.7962 12.4975L13.7804 12.4894H13.7713C13.7713 12.4876 13.7704 12.4858 13.7695 12.4839L13.7566 12.4774L13.7644 12.4764C13.7606 12.4711 13.7586 12.4658 13.7664 12.4605C13.8695 12.4507 13.9732 12.4507 14.0762 12.4605V12.4654H14.0953C14.1193 12.47 14.1525 12.4749 14.1669 12.4893L14.2607 12.5176L14.3217 12.5381L14.4071 12.5414L14.4694 12.5434L14.5355 12.5286C14.5355 12.5286 14.5427 12.5268 14.5592 12.5213C14.5758 12.5159 14.5995 12.5049 14.5995 12.5049L14.649 12.4829L14.6709 12.4738C14.6877 12.4648 14.7055 12.4582 14.6909 12.4315C14.6337 12.4363 14.5813 12.4606 14.5148 12.4508C14.5101 12.4363 14.4911 12.4461 14.4766 12.4413C14.4669 12.435 14.4563 12.4302 14.4452 12.4269L14.4468 12.4225L14.2173 12.3296L14.2164 12.3322C14.2046 12.3271 14.1929 12.3216 14.1814 12.3157C14.1476 12.3013 14.1144 12.2918 14.0809 12.2774L14.0352 12.2649L13.9931 12.2594H13.9657L13.8998 12.2539V12.2549C13.8561 12.2527 13.8089 12.2574 13.769 12.2488L13.7666 12.2482C13.7618 12.2463 13.7569 12.2502 13.7422 12.2502H13.7294L13.691 12.241L13.638 12.2101L13.6522 12.1905C13.7102 12.1776 13.7696 12.1723 13.829 12.1749L13.8285 12.1715L14.4274 12.1183L14.6032 12.1055L14.6675 12.0964L14.7023 12.0891L14.7242 12.0836L14.7315 12.0525L14.426 12.0382C14.4254 12.0376 14.4248 12.0371 14.4242 12.0365H14.3912L14.186 12.0269C14.0285 12.0269 13.8857 11.998 13.7284 12.0029C13.7044 11.9787 13.657 12.0029 13.6379 11.9787L13.6521 11.9594C13.8 11.916 13.9999 11.9836 14.1239 11.9014C14.2146 11.8919 14.2763 11.8149 14.3574 11.7956C14.3814 11.7616 14.4291 11.7568 14.4626 11.7523C14.4814 11.7379 14.5149 11.7568 14.5291 11.7379C14.5956 11.7235 14.6482 11.7568 14.7103 11.7523C14.7054 11.7379 14.7054 11.7235 14.691 11.7138L14.6821 11.7172L14.6509 11.6971L14.5906 11.6898L14.5485 11.6825L14.4862 11.6733L14.3982 11.6715L14.31 11.6803C14.2765 11.685 14.2386 11.6898 14.21 11.6993C14.1816 11.7284 14.1383 11.738 14.0955 11.7474L13.9241 11.757C13.8715 11.7332 13.8001 11.7617 13.7524 11.738C13.7715 11.7236 13.7762 11.6944 13.8097 11.6993C13.8525 11.6706 13.8953 11.6706 13.9334 11.632C14.0478 11.5789 14.2004 11.5213 14.3052 11.4538L14.3117 11.4503L14.5906 11.2997L14.5886 11.2887L14.586 11.2772C14.5824 11.2749 14.5784 11.2737 14.5742 11.2737L14.5721 11.2749L14.5512 11.2807C14.5423 11.2853 14.5326 11.288 14.5226 11.2887L14.4854 11.299C14.4312 11.3278 14.3512 11.3248 14.3051 11.3631C14.2146 11.3823 14.1193 11.4352 14.0239 11.4496C13.9811 11.4832 13.9095 11.4881 13.8667 11.5173C13.8094 11.5221 13.7569 11.5556 13.7043 11.5507C13.7329 11.5024 13.7713 11.4788 13.795 11.4255C13.8141 11.4205 13.8429 11.3921 13.8476 11.3723C13.9571 11.2954 14.0572 11.2185 14.1716 11.1702C14.2144 11.1231 14.2598 11.0924 14.296 11.0456L14.2991 11.0401L14.3472 10.9247L14.3432 10.8331H14.3321C14.3301 10.8386 14.3284 10.8386 14.3249 10.8459C14.3211 10.8532 14.3176 10.8569 14.3137 10.8624C14.3102 10.8678 14.3051 10.8811 14.3051 10.8811L14.2863 10.9192C14.2863 10.9192 14.2754 10.9393 14.2698 10.9485C14.2642 10.9577 14.2349 10.9834 14.2349 10.9834L14.1668 11.0256C14.0998 11.0641 14.0284 11.0929 13.9619 11.1173C13.9238 11.1267 13.8998 11.1506 13.8665 11.1604C13.8235 11.1651 13.7856 11.1942 13.7568 11.2038C13.7204 11.2409 13.6721 11.2776 13.6297 11.3145L13.6248 11.3149L13.6029 11.3369L13.5313 11.4009L13.4297 11.4614L13.4232 11.4641L13.4212 11.4664L13.3974 11.4806L13.7338 11.0785H13.7376C13.7384 11.0757 13.7395 11.0729 13.7409 11.0702L13.8214 10.9741C13.8874 10.9043 13.9501 10.8314 14.0091 10.7556C14.0424 10.6835 14.114 10.6546 14.1378 10.5727H14.1045C14.065 10.6052 14.0256 10.6487 13.9843 10.6847C13.9672 10.6937 13.9482 10.7014 13.9345 10.7158L13.9308 10.7197C13.9236 10.7236 13.9177 10.7296 13.9138 10.7368C13.9024 10.7483 13.8887 10.7617 13.8743 10.7758L13.871 10.7753C13.8608 10.7858 13.8521 10.7963 13.8437 10.8062C13.8395 10.8105 13.8351 10.8147 13.8307 10.819L13.8298 10.8168L13.5478 11.0641L13.55 11.0677C13.4995 11.1237 13.4383 11.1654 13.3851 11.2281C13.3327 11.2378 13.3279 11.3099 13.2706 11.2955C13.2611 11.2522 13.3088 11.2571 13.3088 11.2234L13.4516 11.0829L13.4507 11.0825L13.5021 11.0052L13.5045 11.0015L13.5457 10.9397L13.5615 10.9028V10.9006L13.5635 10.898L13.5708 10.8804V10.8764C13.5718 10.8755 13.5728 10.8745 13.5736 10.8735L13.5806 10.857L13.6045 10.7911L13.6071 10.7816C13.6058 10.7702 13.6055 10.7587 13.6142 10.7562L13.6184 10.7418V10.7369C13.6139 10.7279 13.6172 10.7192 13.6253 10.7176L13.6281 10.7069L13.6647 10.6355L13.6661 10.6329V10.621C13.6661 10.6166 13.6698 10.6124 13.674 10.615L13.6868 10.586L13.6906 10.5863C13.7208 10.5297 13.7582 10.4766 13.8232 10.4478C13.8425 10.4187 13.909 10.4381 13.8853 10.3899C13.8507 10.386 13.8159 10.3927 13.7853 10.4092C13.7837 10.409 13.7824 10.4087 13.7811 10.4087L13.6487 10.475C13.6187 10.5015 13.5903 10.5278 13.5659 10.568C13.5468 10.5875 13.5327 10.6161 13.5134 10.6404C13.5078 10.6546 13.5018 10.6687 13.4954 10.6825L13.4908 10.6831L13.4482 10.7643C13.4475 10.7646 13.4471 10.7652 13.4466 10.7656L13.445 10.7702L13.432 10.7949L13.435 10.7932C13.4071 10.85 13.3583 10.9018 13.3133 10.9393C13.2491 10.9763 13.2247 11.0398 13.1679 11.0575L13.2076 10.9293L13.2085 10.9298L13.2083 10.9274L13.2974 10.6398C13.298 10.6399 13.2986 10.6402 13.299 10.6405V10.6348L13.3197 10.5685C13.3207 10.5683 13.3217 10.5682 13.3227 10.5682C13.3227 10.5682 13.3334 10.5252 13.3447 10.4935C13.344 10.498 13.3469 10.4906 13.3521 10.475C13.3533 10.4723 13.3546 10.4698 13.3561 10.4673L13.3554 10.4648C13.3608 10.4488 13.3674 10.4273 13.375 10.4034C13.377 10.4005 13.3785 10.3978 13.3801 10.395L13.3785 10.3919C13.3898 10.3557 13.4022 10.3152 13.4131 10.279L13.4136 10.2789V10.2777L13.4313 10.2171C13.4328 10.2138 13.4338 10.2103 13.4341 10.2067C13.4394 10.1873 13.4423 10.1757 13.441 10.1772L13.4466 10.1586C13.4419 10.1442 13.4515 10.1298 13.4419 10.1201C13.4324 10.1177 13.4254 10.1186 13.4203 10.1215L13.4119 10.1208L13.3917 10.1622L13.3896 10.1636C13.3887 10.166 13.388 10.1685 13.3872 10.171L13.1671 10.6207L13.1647 10.6191L13.0075 10.9397L13.0035 10.936L13.0017 10.9426C12.999 10.9418 12.9964 10.9407 12.994 10.9393C12.9816 10.8539 12.9764 10.7677 12.9784 10.6814H12.976L12.98 10.6454L12.9851 10.5973C12.9851 10.5973 12.9865 10.5941 12.9882 10.589C12.992 10.5702 12.9982 10.5519 13.0066 10.5346C13.0076 10.5311 13.0084 10.5276 13.009 10.524C13.0108 10.5075 13.0271 10.4525 13.0271 10.4525L13.0546 10.317L13.0564 10.1997L13.0362 10.1245L13.0197 10.0732L13.0069 10.0472L13.0023 10.0435L12.9923 10.042L12.9951 10.0387C12.9851 10.0331 12.9742 10.0316 12.9651 10.0383C12.9844 10.1106 12.9798 10.183 12.97 10.2551H12.9651C12.9749 10.2887 12.9509 10.308 12.9414 10.3272C12.9414 10.3465 12.9328 10.3628 12.923 10.379L12.9246 10.3846L12.8988 10.4231L12.8977 10.4254C12.8958 10.4311 12.8945 10.4371 12.8937 10.4431H12.89L12.8851 10.4556V10.4574C12.8851 10.4602 12.8833 10.4631 12.8811 10.4649L12.8756 10.4772V10.4816C12.8733 10.4839 12.8723 10.4861 12.8711 10.4873L12.8704 10.4888L12.8662 10.4971V10.5055C12.8639 10.5079 12.8616 10.5103 12.8592 10.5114L12.8522 10.5257V10.5295C12.8513 10.5295 12.8504 10.5297 12.8499 10.5302L12.8466 10.5365L12.8264 10.6025L12.8099 10.6612L12.8009 10.6905L12.7971 10.7747V10.8077L12.788 10.8479L12.7854 10.9478C12.7854 10.9567 12.7852 10.9656 12.7847 10.9742L12.7843 10.9835L12.7829 10.991C12.7822 10.9962 12.7816 11.0014 12.7805 11.0065H12.7801L12.7587 11.1209V11.0831L12.7432 11.115C12.7414 11.1159 12.7397 11.1168 12.7374 11.1175L12.723 11.0883C12.723 10.9825 12.6992 10.8813 12.6992 10.7753C12.6753 10.549 12.6753 10.3127 12.6517 10.0814Z" fill="black"/>
<path fill-rule="evenodd" clip-rule="evenodd" d="M11.662 10.5868C11.6858 10.601 11.7001 10.606 11.7096 10.6251C11.7335 10.7167 11.7907 10.7795 11.8335 10.8421C11.8526 10.8806 11.8955 10.929 11.9289 10.9578C11.967 11.0105 12.0433 11.0204 12.0625 11.0877C12.1053 11.1262 12.153 11.1843 12.1671 11.2372C12.1812 11.2519 12.1911 11.2702 12.1957 11.2901C12.1957 11.3048 12.2148 11.3288 12.2004 11.3478C12.1622 11.3574 12.148 11.3915 12.1097 11.3962C12.0766 11.3144 12.0338 11.2614 11.9956 11.1938C11.9145 11.1218 11.8478 11.03 11.7763 10.9479C11.7379 10.8662 11.7048 10.7844 11.6857 10.6975C11.676 10.659 11.6572 10.6251 11.6524 10.5868H11.662ZM13.0344 10.3408C13.0249 10.3649 13.0107 10.394 13.0153 10.4229C12.9916 10.4276 13.0107 10.4566 12.9963 10.4712C13.0009 10.5144 12.963 10.5483 12.9677 10.5914C12.939 10.6541 12.9439 10.7262 12.9439 10.7988L12.9581 10.8132V11.0011H12.9486L12.9344 11.1169C12.9153 11.1311 12.92 11.1647 12.9104 11.189C12.8962 11.2082 12.8914 11.2179 12.8867 11.2468C12.8818 11.242 12.8772 11.2468 12.8772 11.2515V11.2613C12.8344 11.2565 12.7962 11.2565 12.7627 11.2371V11.208C12.7723 11.1937 12.7913 11.1697 12.7913 11.1404C12.7962 11.1168 12.8011 11.0924 12.8058 11.0731H12.8153C12.8439 10.9288 12.82 10.789 12.8532 10.649C12.8772 10.5912 12.8914 10.5194 12.9344 10.4712V10.4567C12.939 10.4615 12.939 10.4567 12.9439 10.4519V10.4375C12.9486 10.4375 12.9535 10.4325 12.9581 10.4278V10.4135C12.9677 10.3893 12.9821 10.3602 12.9916 10.3314C13.0058 10.317 13.0009 10.2644 13.0344 10.2688V10.3408ZM14.3686 12.0753V12.0995C14.0637 12.0995 13.8016 12.1476 13.5065 12.1476C13.5158 12.1041 13.4823 12.0319 13.5348 12.0175C13.8112 12.0416 14.0923 12.0511 14.3686 12.0753ZM11.4572 11.5549C11.4762 11.5644 11.5002 11.5839 11.5287 11.5839C11.5668 11.613 11.6192 11.5983 11.662 11.6225C11.6762 11.6418 11.7145 11.6466 11.7429 11.6562C11.7811 11.6562 11.7952 11.6899 11.8334 11.685C11.8334 11.6897 11.8384 11.6945 11.8432 11.6945H11.8573C11.8573 11.7053 11.8573 11.7158 11.8569 11.7264C11.8437 11.7537 11.832 11.7817 11.8217 11.8104H11.7714C11.7159 11.7801 11.6575 11.7473 11.5984 11.7182L11.5979 11.7193L11.5374 11.6954L11.3616 11.6057L11.1344 11.4885L11.1354 11.4886C11.1286 11.4853 11.1227 11.4805 11.1181 11.4745C11.1136 11.4684 11.1106 11.4614 11.1093 11.4539C11.2331 11.4681 11.3378 11.531 11.4572 11.5549ZM13.6539 11.131C13.6475 11.1347 13.6409 11.1389 13.6349 11.1437L13.5869 11.1992C13.5834 11.2054 13.5803 11.2117 13.5776 11.218C13.5703 11.2233 13.5632 11.2289 13.5563 11.2347L13.4556 11.3513C13.4539 11.3553 13.4511 11.3587 13.4474 11.361L13.3297 11.4972L13.3255 11.5033L13.3248 11.5016C13.2632 11.555 13.2665 11.4636 13.2155 11.4543C13.2155 11.4014 13.282 11.3917 13.3013 11.3528C13.3967 11.2999 13.492 11.17 13.5872 11.107C13.5921 11.0782 13.6253 11.0782 13.6253 11.0444C13.6586 11.0541 13.6491 11.0253 13.6586 11.0156V11.0061C13.6921 11.0061 13.6777 10.982 13.7016 10.9721L13.7109 10.9626C13.7444 10.9721 13.7491 10.9436 13.7635 10.9292H13.8016L13.797 10.958L13.7916 10.9624L13.6932 11.0763C13.679 11.0955 13.6659 11.1144 13.6539 11.131ZM14.1495 11.4636C14.1351 11.5066 14.0778 11.5214 14.0446 11.5501C13.9588 11.5693 13.8876 11.6178 13.8064 11.6611C13.692 11.6946 13.5871 11.7816 13.4585 11.8054C13.4444 11.7619 13.4157 11.743 13.4206 11.6946C13.4776 11.6994 13.5204 11.6466 13.5776 11.6515C13.6204 11.6225 13.6683 11.6176 13.7158 11.6035C13.7874 11.5645 13.8779 11.5596 13.9493 11.5166C14.016 11.497 14.0732 11.4539 14.1495 11.4636ZM10.909 11.709C10.9234 11.7285 10.9662 11.709 10.9901 11.7285C10.9901 11.7525 11.0187 11.7381 11.033 11.7429C11.033 11.7525 11.0427 11.7571 11.0521 11.7525H11.0712V11.7571C11.2569 11.8151 11.4762 11.7429 11.662 11.8008C11.7001 11.8197 11.7429 11.8294 11.7715 11.8586C11.7907 11.8487 11.7907 11.873 11.8001 11.873L11.8007 11.8781C11.7927 11.9082 11.7863 11.9388 11.7815 11.97C11.7536 11.9707 11.7353 11.9546 11.7095 11.9503C11.6953 11.9306 11.6619 11.9406 11.6429 11.9211C11.4715 11.8682 11.2663 11.9067 11.1044 11.8439C11.0901 11.8391 11.0759 11.8151 11.052 11.8247C11.0239 11.8022 10.9914 11.7858 10.9566 11.7766C10.9425 11.7619 10.9089 11.7619 10.8853 11.7526C10.871 11.7382 10.8138 11.743 10.8233 11.6995L10.909 11.709ZM14.1879 11.0828C14.1734 11.131 14.116 11.1356 14.0923 11.1743C14.059 11.1743 14.0304 11.2179 13.9922 11.2228C13.9064 11.2949 13.7824 11.3527 13.7348 11.4588C13.6634 11.5115 13.6061 11.584 13.5203 11.6131C13.487 11.6466 13.4252 11.6466 13.387 11.6611C13.368 11.6274 13.3345 11.6035 13.3345 11.5549C13.3966 11.5451 13.4252 11.5214 13.4822 11.4922C13.6443 11.3767 13.7301 11.2371 13.9207 11.1742C13.9635 11.1404 14.0303 11.155 14.0731 11.1168C14.1113 11.1168 14.1399 11.0779 14.1879 11.0828ZM12.9104 13.0195C12.92 13.0582 12.939 13.0967 12.939 13.1402C12.9677 13.3376 12.8962 13.5783 13.0009 13.7472C13.0058 13.7857 13.0153 13.8338 13.0153 13.8677H13.0009C12.9772 13.8677 12.9821 13.8483 12.9677 13.8338C12.9486 13.7662 12.9104 13.7037 12.8772 13.6508C12.863 13.593 12.8344 13.5397 12.8295 13.4772C12.8058 13.3234 12.8344 13.1592 12.7627 13.0196C12.7676 12.9958 12.7485 12.9811 12.7579 12.9571C12.8011 12.9715 12.82 12.9284 12.863 12.938L12.9104 13.0195ZM12.7006 12.9667C12.6769 13.2364 12.6723 13.5061 12.6532 13.7758C12.651 13.7803 12.6476 13.784 12.6433 13.7866C12.6391 13.7892 12.6342 13.7906 12.6292 13.7905C12.6054 13.7133 12.634 13.6364 12.6054 13.5593C12.6007 13.3667 12.577 13.1592 12.577 12.9667C12.6198 12.9764 12.6579 12.9523 12.7006 12.9667ZM14.0911 12.3165L14.1546 12.3438C14.1604 12.344 14.1657 12.3454 14.1686 12.3498C14.2402 12.3786 14.3018 12.4319 14.3784 12.4609C14.407 12.4464 14.4116 12.485 14.4356 12.4705V12.4947C14.3925 12.4994 14.3497 12.4898 14.3116 12.4802C14.2495 12.4561 14.1827 12.4464 14.116 12.4223L14.1065 12.4127C13.9685 12.3786 13.8397 12.4319 13.7016 12.4127C13.6777 12.3935 13.6395 12.403 13.6158 12.3883C13.5921 12.3691 13.5634 12.3786 13.5397 12.3642C13.5253 12.3498 13.492 12.345 13.4776 12.3306C13.4823 12.2921 13.4776 12.2485 13.5065 12.2197C13.53 12.2343 13.5683 12.2197 13.5872 12.2391C13.6062 12.2485 13.6444 12.2629 13.673 12.2728C13.8063 12.3086 13.9639 12.2735 14.0925 12.3189L14.0911 12.3165ZM12.241 11.3254L12.2685 11.3142C12.2799 11.3136 12.291 11.3075 12.3028 11.3001L12.3711 11.2723L12.362 11.254C12.3621 11.25 12.3615 11.2471 12.3583 11.2468L12.3571 11.2441C12.3511 11.2169 12.3373 11.199 12.3252 11.18L12.3075 11.1443L12.3052 11.1356C12.2984 11.123 12.2915 11.1105 12.2844 11.098L12.1437 10.8144L12.1432 10.8131C12.1381 10.8018 12.1326 10.7907 12.1265 10.7799L12.0536 10.6332L12.0527 10.6298C12.0518 10.6286 12.0508 10.6274 12.05 10.6261L11.9679 10.4607H11.9625L11.957 10.4679L11.9498 10.4734L12.1698 11.1169C12.1736 11.131 12.1785 11.1447 12.184 11.1581L12.241 11.3254ZM13.419 12.4759L13.4115 12.4722L13.4085 12.4691C13.4229 12.4388 13.4356 12.4078 13.4464 12.376L13.4557 12.355L13.4627 12.3586L13.4639 12.3613L13.4557 12.3549L13.4704 12.3659L13.5717 12.4168C13.5787 12.4186 13.5855 12.4203 13.5922 12.4222C13.604 12.4312 13.6152 12.4383 13.6266 12.4444L13.6479 12.455C13.6654 12.4633 13.6832 12.4706 13.7018 12.4801C13.7021 12.481 13.7023 12.4819 13.7027 12.4826L13.7335 12.4982C13.7391 12.4991 13.7445 12.5011 13.7493 12.5041C13.864 12.5619 13.9831 12.6244 14.102 12.6822V12.6836L14.3663 12.813L14.3698 12.8441L13.6414 12.5647C13.6361 12.5635 13.6308 12.5626 13.6254 12.5619C13.5922 12.552 13.5587 12.5378 13.5205 12.5281C13.4873 12.5185 13.4538 12.4993 13.4207 12.4801C13.42 12.4788 13.4195 12.4773 13.419 12.4759ZM13.4681 12.3715L13.4655 12.3785C13.4671 12.3779 13.4688 12.3775 13.4706 12.3772L13.4681 12.3715ZM11.7733 12.1523C11.5264 12.1427 11.2559 12.1282 11.0141 12.0995C11.1806 12.0803 11.3238 12.056 11.4762 12.056C11.5287 12.0319 11.581 12.0511 11.643 12.0367C11.6805 12.0273 11.7319 12.0318 11.7746 12.0319C11.7728 12.0545 11.7718 12.0771 11.7719 12.0998V12.1006C11.7717 12.1179 11.7723 12.1351 11.7733 12.1523ZM11.4514 13.2892L11.4568 13.2825V13.2763L11.4858 13.2473L11.5086 13.2196C11.5067 13.1885 11.552 13.1905 11.5475 13.1541C11.5904 13.1301 11.6046 13.082 11.6475 13.0433C11.6569 13.0302 11.6692 13.0198 11.6817 13.0096L11.7284 12.9531C11.7285 12.9528 11.7286 12.9524 11.7286 12.9521C11.7296 12.9512 11.7306 12.9502 11.7314 12.9492L11.8243 12.8366L11.8286 12.8268L11.8317 12.8276L11.8483 12.8077C11.8493 12.8036 11.8513 12.8 11.8559 12.7983L11.9678 12.6627L11.9913 12.6779L11.9939 12.6774C12.0168 12.7029 12.0413 12.7269 12.0673 12.7493C12.075 12.7866 12.0279 12.7818 12.0194 12.8123C11.8744 12.9315 11.7552 13.0373 11.6211 13.1466L11.6051 13.1645L11.5756 13.1882C11.5627 13.2038 11.5497 13.2199 11.5296 13.2251L11.4567 13.2836V13.283L11.4514 13.2892ZM12.6484 10.4374C12.6388 10.5817 12.6864 10.7213 12.6723 10.8564C12.696 10.9865 12.6864 11.0827 12.7055 11.2227C12.6769 11.2419 12.6246 11.2322 12.5865 11.2322C12.5826 10.9635 12.5952 10.6947 12.6245 10.4275L12.6484 10.4374ZM11.9914 12.9937L11.977 13.0119C11.9754 13.0129 11.9737 13.0139 11.9719 13.0147L11.9718 13.0185L11.9663 13.0254L11.9317 13.0587C11.9262 13.0625 11.9214 13.0673 11.9175 13.0729L11.9003 13.0928C11.8828 13.1099 11.8608 13.1284 11.8482 13.1531L11.8311 13.1729C11.8082 13.1936 11.801 13.2253 11.7766 13.2461C11.7733 13.2536 11.7703 13.2613 11.7679 13.2691L11.7431 13.3138L11.7427 13.315C11.7339 13.3369 11.7217 13.3626 11.7161 13.3886L11.7136 13.3964C11.7099 13.3996 11.709 13.4048 11.709 13.4107L11.7044 13.4249L11.7092 13.4179C11.7099 13.4292 11.7109 13.4408 11.7003 13.4436C11.6956 13.5013 11.6622 13.545 11.6431 13.5978C11.6431 13.6075 11.6336 13.6316 11.6479 13.6316C11.6812 13.6269 11.6764 13.5784 11.7098 13.569C11.7908 13.3039 12.0054 13.2169 12.1482 13.0148C12.1758 12.9685 12.2079 12.913 12.2144 12.8527C12.183 12.8353 12.1528 12.8159 12.1239 12.7946C12.1193 12.7937 12.1146 12.7932 12.1099 12.7932C12.1099 12.8124 12.091 12.8029 12.1005 12.822C12.0863 12.8413 12.0768 12.8703 12.0626 12.8847L12.0507 12.9122C12.0385 12.921 12.0323 12.9393 12.0323 12.9393L11.9974 12.9815L11.9914 12.9937ZM13.7635 12.7593L13.8207 12.8174C13.8207 12.8414 13.8351 12.856 13.8589 12.856L13.8828 12.8801C13.8923 12.9233 13.9256 12.9137 13.9493 12.938C13.9638 12.9765 14.0114 12.9571 14.0305 12.9861C14.0591 13.0054 14.1019 13.0294 14.1352 13.0437C14.1447 13.0727 14.1591 13.0775 14.1687 13.1016C14.0875 13.0824 14.0019 13.0487 13.9161 13.0196C13.8016 12.991 13.7207 12.8896 13.6204 12.8272C13.5348 12.745 13.4444 12.6585 13.3346 12.6246L13.339 12.5896C13.3476 12.5772 13.3558 12.5645 13.3639 12.5516L13.3871 12.5284C13.492 12.5236 13.5823 12.6101 13.6586 12.6777C13.6872 12.6965 13.7158 12.7593 13.7635 12.7593ZM12.1574 13.136L11.9424 13.7931L11.9545 13.8003L11.9717 13.7955L12.2558 13.1703C12.271 13.141 12.2859 13.1118 12.3007 13.0822C12.3016 13.0754 12.3029 13.0691 12.3045 13.0633L12.3136 13.0432L12.3125 13.0428C12.3193 13.0289 12.3284 13.0161 12.3387 13.0003C12.348 12.9809 12.3721 12.9568 12.3624 12.9231C12.3615 12.9205 12.36 12.9181 12.358 12.9162C12.3515 12.9139 12.345 12.9116 12.3386 12.9093C12.3284 12.9086 12.3183 12.909 12.3152 12.9004L12.3117 12.8989H12.3006C12.2982 12.8965 12.2957 12.894 12.2939 12.8917L12.2779 12.8846H12.248C12.233 12.9075 12.2248 12.9342 12.2243 12.9616L12.2069 13.0092L12.206 13.0089L12.1574 13.136ZM11.8014 12.3248C11.7391 12.3937 11.6363 12.403 11.5381 12.4078C11.3189 12.3882 11.1093 12.4029 10.9137 12.4801H10.8472C10.8472 12.4608 10.8567 12.4608 10.8757 12.4511C10.9361 12.4347 10.9828 12.4011 11.042 12.3707L11.041 12.3695L11.0849 12.3493L11.1124 12.3347L11.1234 12.3302C11.1273 12.3268 11.1322 12.3248 11.1374 12.3244L11.1435 12.3219C11.1435 12.3219 11.1545 12.3091 11.1746 12.3091L11.1881 12.3088C11.3577 12.2525 11.5889 12.3264 11.7428 12.2197C11.7594 12.2129 11.7712 12.2126 11.7795 12.2168C11.7847 12.2535 11.792 12.2897 11.8014 12.3248ZM11.3581 10.829L11.5933 11.0963C11.5937 11.0992 11.5959 11.1011 11.5987 11.1026L11.9626 11.516L11.965 11.5139C11.9657 11.5148 11.9663 11.5158 11.9671 11.5166C12.0148 11.5261 12.0148 11.4825 12.0528 11.4636V11.4386L12.0651 11.4281L12.0706 11.4207L12.0742 11.4134L11.3763 10.8253L11.3581 10.829ZM13.2052 12.7412C13.2058 12.753 13.2063 12.7656 13.2171 12.7686L13.2197 12.7689L13.2266 12.7753C13.2275 12.7814 13.2326 12.7836 13.2382 12.7856L13.599 13.1107V13.111L13.5994 13.1111L13.789 13.282L13.8019 13.2874L13.8072 13.2464L13.8183 13.2215L13.6806 13.0756C13.6589 13.0483 13.6364 13.0217 13.6132 12.9957L13.5799 12.9569H13.5704C13.5696 12.9568 13.5688 12.9566 13.5681 12.9564L13.5278 12.9136C13.5266 12.9089 13.5265 12.9039 13.5276 12.8992L13.4941 12.8656C13.4655 12.8559 13.4464 12.8364 13.4464 12.8077L13.4131 12.7785L13.3845 12.7256H13.3799C13.3262 12.73 13.3259 12.6578 13.2868 12.6575C13.2615 12.6872 13.2343 12.7152 13.2052 12.7412ZM11.8923 12.5397C11.8873 12.5386 11.8833 12.5368 11.8833 12.5281C11.7213 12.5571 11.6166 12.6582 11.5069 12.7832C11.4689 12.8124 11.445 12.8656 11.3974 12.8847C11.3496 12.9427 11.2781 12.9667 11.2161 13.0004C11.2065 13.0339 11.1591 13.0148 11.1686 13.0582C11.3402 13.0436 11.5069 12.9667 11.6117 12.856C11.626 12.8414 11.6591 12.8125 11.6783 12.7933C11.7354 12.7549 11.7831 12.6728 11.8738 12.668C11.8913 12.6416 11.9533 12.6597 11.9445 12.6178C11.9258 12.5927 11.9084 12.5666 11.8923 12.5397ZM11.8125 12.3722L11.8141 12.3714L11.8031 12.3586L11.7994 12.3495L11.0428 12.7323L11.0629 12.7543L11.0648 12.7525L11.062 12.7498L11.0703 12.7634L11.8617 12.4977L11.858 12.4776L11.8542 12.4734L11.8556 12.4712C11.8424 12.4435 11.8307 12.4151 11.8205 12.3862C11.8194 12.3853 11.8184 12.3845 11.8173 12.3836L11.8191 12.3825L11.8186 12.3811L11.8125 12.3722ZM13.2443 10.6961C13.2441 10.6982 13.2441 10.7001 13.2441 10.7022C13.2432 10.7028 13.2423 10.7035 13.2415 10.7043L13.2257 10.7504C13.2243 10.7574 13.2231 10.7643 13.2201 10.7698C13.2198 10.7698 13.2194 10.7699 13.219 10.77L13.2064 10.8066C13.2061 10.8093 13.2052 10.8119 13.2038 10.8143L13.1547 10.9584C13.1475 10.9855 13.1406 11.0127 13.1326 11.0393L13.1331 11.0397L13.0508 11.2927C13.0509 11.294 13.0507 11.2952 13.0503 11.2964C13.05 11.2976 13.0493 11.2987 13.0485 11.2997L13.0396 11.3274L12.9993 11.3219L12.9879 11.3117C12.9672 11.299 12.9287 11.2936 12.9153 11.2757L12.9155 11.273L12.9078 11.2705L12.9183 11.2487L12.9201 11.2323C12.9296 11.2129 12.9487 11.1842 12.9582 11.1647H12.9585L12.9678 11.1453V11.1405H12.97L13.0326 11.0096C13.0335 11.0052 13.0344 11.0007 13.0346 10.9963C13.037 10.9918 13.0403 10.988 13.0444 10.985L13.0779 10.915C13.0788 10.9114 13.0803 10.9079 13.0823 10.9047L13.0883 10.8932L13.2193 10.6189C13.2217 10.6109 13.2253 10.6034 13.23 10.5965L13.2617 10.5304L13.2927 10.4754L13.3055 10.4774L13.3146 10.5121L13.2818 10.5873L13.2443 10.6961ZM11.4496 11.2044C11.4568 11.2055 11.4641 11.2066 11.4716 11.208C11.4858 11.2322 11.5287 11.2419 11.5381 11.2613L11.5436 11.2653L11.5613 11.2741L11.5513 11.2708L11.6047 11.3092V11.319C11.6858 11.4198 11.8048 11.5065 11.9431 11.5548L11.9398 11.5892C11.9239 11.6106 11.9091 11.6327 11.8953 11.6556C11.89 11.6597 11.8837 11.6623 11.877 11.6633C11.8704 11.6642 11.8636 11.6634 11.8573 11.6609C11.8334 11.6416 11.7858 11.6464 11.7668 11.6129H11.7573C11.7287 11.5886 11.6906 11.5789 11.6762 11.5499C11.6714 11.5404 11.662 11.5499 11.6525 11.545C11.5764 11.478 11.5002 11.3524 11.4144 11.2947C11.3571 11.2321 11.276 11.2127 11.2046 11.1741C11.2093 11.1696 11.2046 11.1696 11.1998 11.1644H11.1854C11.1571 11.1403 11.1286 11.1307 11.1047 11.1067L11.0999 11.0778C11.1048 11.0764 11.11 11.0762 11.115 11.0773C11.12 11.0784 11.1247 11.0808 11.1285 11.0842L11.3745 11.1786L11.4441 11.2007L11.4496 11.2044ZM14.3544 11.714C14.3735 11.7475 14.3304 11.7571 14.3065 11.7571C14.2544 11.7814 14.2162 11.8295 14.159 11.839C14.116 11.873 14.0446 11.8874 13.9778 11.8922L13.9685 11.9016C13.8494 11.9115 13.7394 11.8826 13.6349 11.9259C13.5872 11.9359 13.5397 11.9596 13.492 11.9503C13.4967 11.9162 13.4776 11.8923 13.4776 11.8586C13.5111 11.8487 13.5397 11.8295 13.5683 11.8104C13.7395 11.7429 13.9685 11.8246 14.1399 11.7667C14.1781 11.7667 14.2162 11.7525 14.2448 11.7285C14.2781 11.7237 14.3211 11.7188 14.3544 11.714ZM13.6198 13.5842L13.6224 13.5893L13.6203 13.588C13.6202 13.5868 13.62 13.5855 13.6198 13.5842ZM13.6497 13.6411L13.6453 13.6285C13.6436 13.6204 13.6409 13.6126 13.6371 13.6052L13.6076 13.5224C13.5872 13.4406 13.5527 13.3639 13.53 13.2991C13.5013 13.2606 13.492 13.2316 13.4585 13.2027C13.3823 13.0917 13.2727 13.0004 13.2155 12.8847C13.1915 12.8559 13.1866 12.827 13.1725 12.7884C13.1651 12.7861 13.1574 12.7856 13.1499 12.7868C13.1383 12.7954 13.1266 12.8038 13.1148 12.812C13.103 12.8252 13.0917 12.8391 13.0724 12.8413C13.0724 12.9714 13.1915 13.0917 13.2774 13.1736C13.3967 13.2847 13.5158 13.405 13.5634 13.5637C13.5872 13.593 13.6016 13.6461 13.6349 13.6557L13.6491 13.6461C13.6484 13.6427 13.6477 13.639 13.6468 13.6357L13.6497 13.6411ZM12.2666 13.9561L12.2758 13.9212L12.2905 13.8829L12.3053 13.8481L12.3235 13.8058L12.3436 13.76L12.3625 13.7231V13.723C12.3631 13.7223 12.3804 13.6975 12.3839 13.6831C12.3875 13.6684 12.4077 13.6282 12.4077 13.6282L12.4224 13.5897L12.4293 13.5448L12.437 13.5145L12.4362 13.5125C12.4592 13.3896 12.4416 13.25 12.4722 13.1301C12.4769 13.1255 12.4774 13.1184 12.477 13.1108L12.4937 13.0476V13.0474V13.0473C12.5032 13.0182 12.5149 12.9907 12.5149 12.9567C12.5089 12.9538 12.5026 12.9515 12.4962 12.9499C12.4886 12.9487 12.4809 12.9474 12.4734 12.946C12.4577 12.9441 12.4417 12.9433 12.4275 12.9398L12.4277 12.9373L12.3984 12.9337L12.391 12.9447L12.3623 13.0387C12.3479 13.1012 12.3386 13.1638 12.3289 13.2266C12.3338 13.3999 12.3479 13.5687 12.2908 13.7229C12.2623 13.7806 12.2574 13.8431 12.2527 13.9107V13.9543L12.2666 13.9561ZM13.673 10.5288C13.673 10.5627 13.6491 10.5769 13.6444 10.6109C13.6253 10.6154 13.63 10.6445 13.6204 10.6589C13.6016 10.683 13.6016 10.7166 13.5872 10.741C13.5823 10.7987 13.5493 10.8421 13.5397 10.8902C13.5111 10.9093 13.5065 10.9433 13.492 10.9674C13.4823 10.9769 13.4727 11.0058 13.4585 11.0154C13.4013 11.0731 13.3585 11.1308 13.3013 11.1792C13.306 11.1936 13.282 11.2033 13.282 11.208C13.2632 11.2371 13.2534 11.2757 13.225 11.29C13.1915 11.3287 13.1962 11.4102 13.1343 11.396C13.1059 11.3914 13.082 11.3526 13.0724 11.3431C13.0678 11.2997 13.0915 11.2661 13.1059 11.2323C13.1297 11.2082 13.1487 11.1743 13.1678 11.1405C13.2059 11.1021 13.2346 11.078 13.2534 11.0443C13.2964 11.0105 13.3585 10.9434 13.3967 10.9193C13.4253 10.8759 13.4727 10.8326 13.492 10.7747C13.5013 10.7651 13.5253 10.7552 13.5158 10.7363C13.53 10.7216 13.5397 10.6927 13.5493 10.6735C13.5586 10.6591 13.5776 10.6348 13.5776 10.611C13.6204 10.5963 13.6158 10.5144 13.673 10.5288ZM13.0537 12.9331C13.1298 13.1736 13.2156 13.4147 13.2775 13.6556C13.2442 13.6556 13.2442 13.622 13.23 13.5977C13.1916 13.5396 13.1679 13.4771 13.1393 13.4147C13.1156 13.3762 13.0916 13.3085 13.0726 13.2752C13.0632 13.2364 13.0298 13.2027 13.0202 13.164C12.9963 13.1403 13.0009 13.1015 12.9677 13.0774C12.963 13.0148 12.9058 12.9909 12.9104 12.9233C12.9486 12.904 13.0584 12.8317 13.0537 12.9331ZM12.3006 10.3795C12.31 10.4133 12.3387 10.4423 12.348 10.4855C12.4292 10.5868 12.434 10.6974 12.4529 10.8277C12.4579 10.895 12.4435 10.972 12.4626 11.0299C12.4626 11.1069 12.5054 11.1647 12.5149 11.2323C12.4769 11.2419 12.4481 11.2661 12.4052 11.2565C12.386 11.1986 12.3479 11.1647 12.3432 11.0925C12.2908 10.9095 12.3766 10.6926 12.2908 10.5244C12.2766 10.4521 12.2527 10.3699 12.248 10.2927C12.2861 10.2925 12.2815 10.3504 12.3006 10.3795ZM12.1498 12.7701C12.1589 12.7748 12.1685 12.7793 12.1787 12.7832C12.1901 12.7941 12.2019 12.8036 12.2139 12.8121C12.2455 12.8306 12.2783 12.8473 12.3125 12.8616C12.3544 12.8768 12.3991 12.8883 12.4456 12.904C12.524 12.9194 12.6038 12.9261 12.6836 12.924C12.74 12.9205 12.7959 12.9112 12.8504 12.8962L12.8557 12.8944C12.9362 12.8638 13.0049 12.838 13.0719 12.7982C13.2092 12.7113 13.3179 12.5859 13.3845 12.4377V12.4365C13.3856 12.4337 13.3869 12.431 13.3885 12.4285C13.432 12.3279 13.4564 12.2173 13.4564 12.1007V12.1C13.4565 11.9916 13.4352 11.8843 13.3938 11.7841C13.3523 11.684 13.2914 11.593 13.2147 11.5165C13.1383 11.4398 13.0475 11.379 12.9475 11.3376C12.8476 11.2961 12.7404 11.2748 12.6322 11.2749H12.6314C12.5231 11.2748 12.4158 11.2961 12.3157 11.3375C12.2156 11.379 12.1248 11.4399 12.0483 11.5166C12.0139 11.551 11.9826 11.5883 11.9549 11.6282V11.632C11.9529 11.6332 11.9512 11.6346 11.9495 11.6359C11.8564 11.7727 11.8067 11.9343 11.8068 12.0997V12.1005C11.8067 12.2313 11.8377 12.3603 11.8973 12.4768C11.957 12.5932 12.0435 12.6938 12.1498 12.7701ZM12.8439 12.345L12.8153 12.3594V12.3835C12.7867 12.3982 12.7485 12.3835 12.7151 12.3739C12.7104 12.3547 12.7292 12.3594 12.739 12.3498L12.8153 12.3594C12.8153 12.3498 12.8295 12.345 12.8439 12.345ZM12.458 11.979C12.4669 11.9971 12.4573 11.9963 12.4453 11.9956L12.4316 11.9887L12.4041 11.9648L12.3876 11.9465L12.3656 11.9319L12.3473 11.9227L12.3236 11.9171L12.3052 11.9081H12.2814L12.2722 11.9044L12.2245 11.9018L12.2026 11.9044L12.1787 11.9081L12.1458 11.9135L12.1292 11.9171L12.1073 11.9263L12.0817 11.9429L12.0524 11.9594L12.0231 11.9813L12.0085 11.9997L11.992 12.0235L11.9736 12.0382L11.9644 12.051L11.9863 12.0528L12.045 11.985L12.0707 11.9704L12.0944 11.9612L12.1201 11.9557L12.1585 11.9447L12.1823 11.9411L12.2208 11.9393L12.239 11.9373L12.25 11.9337H12.2665L12.305 11.9465L12.3306 11.9557L12.3417 11.9649L12.3746 11.9759L12.4313 12.011C12.4512 12.0424 12.4796 12.048 12.4626 12.0997L12.4244 12.1043C12.3387 12.1622 12.21 12.1962 12.1052 12.1478C12.0839 12.1309 12.0517 12.1288 12.0447 12.1017L12.0413 12.1042L11.9906 12.0657C11.9511 12.0664 11.907 12.0917 11.8718 12.0755C11.8765 12.0467 11.9241 12.0513 11.9336 12.0128C12.0003 11.9505 12.0812 11.8733 12.1766 11.8637C12.2295 11.8563 12.2834 11.8631 12.3329 11.8834C12.3823 11.9036 12.4255 11.9366 12.458 11.979ZM12.0687 12.0838L12.0404 12.0581C12.0409 12.0486 12.0432 12.0391 12.0432 12.0319C12.0624 12.0224 12.0812 11.9982 12.1097 12.008C12.1097 12.0464 12.1479 12.0753 12.1669 12.0945L12.1717 12.1236C12.1174 12.1403 12.1035 12.0946 12.0657 12.086L12.0687 12.0838ZM12.4292 12.0464L12.4244 12.0848C12.3721 12.0945 12.3387 12.1428 12.2767 12.1236C12.2767 12.1139 12.2767 12.0897 12.2909 12.0945C12.3291 12.0704 12.31 11.9982 12.3721 12.0126L12.4292 12.0464ZM12.197 12.0069C12.197 12.0232 12.2113 12.0363 12.2292 12.0363C12.2467 12.0363 12.2612 12.0232 12.2612 12.0069C12.2612 11.9907 12.2467 11.9776 12.2292 11.9776C12.2113 11.9776 12.197 11.9907 12.197 12.0069ZM13.1916 11.8923C13.2347 11.9017 13.2633 11.9259 13.2919 11.9503C13.3107 11.9789 13.3442 11.9838 13.3682 12.008C13.3777 12.0175 13.3682 12.0367 13.3873 12.0416H13.4207V12.0656C13.3824 12.0897 13.3298 12.0704 13.287 12.0609C13.2156 12.1428 13.0679 12.1958 12.944 12.1476C12.944 12.1236 12.9105 12.1428 12.901 12.1283C12.868 12.1139 12.844 12.0848 12.8059 12.0897C12.8154 12.0656 12.7868 12.056 12.7963 12.0319C12.8052 12.0184 12.8312 12.026 12.8343 12.007L12.8764 11.983L12.9232 11.9679L12.9448 11.9578L12.9599 11.9546H13.06L13.0883 11.9578H13.1318L13.1569 11.9647L13.1904 11.9796L13.2221 11.9947L13.2372 12.0014L13.2505 11.9914L13.2323 11.9747L13.207 11.9629L13.1904 11.953L13.1738 11.9446L13.157 11.9412L13.137 11.9364L13.1219 11.9313L13.1003 11.9263H13.0737L13.0504 11.9279L13.0118 11.9329L12.9918 11.9345L12.9734 11.9364L12.9418 11.9446L12.9167 11.9462L12.8899 11.9579L12.8699 11.9663L12.8439 11.9793L12.8271 11.9856C12.8204 11.9514 12.862 11.9267 12.8821 11.9017L12.9428 11.8713L13.0049 11.8586L13.0544 11.853L13.1167 11.864L13.1719 11.8821C13.1773 11.8822 13.1825 11.8842 13.1865 11.8878L13.1916 11.8923ZM13.2346 12.0319C13.2534 12.0897 13.1866 12.0897 13.1583 12.1139H13.1201C13.1343 12.0753 13.1629 12.0511 13.1678 12.008C13.1963 11.9982 13.2106 12.0271 13.2346 12.0319ZM13.0122 12.0086C13.0122 12.0228 13.0245 12.0344 13.0396 12.0344C13.0547 12.0344 13.0671 12.0228 13.0671 12.0086C13.0671 11.9944 13.0547 11.983 13.0396 11.983C13.0245 11.983 13.0122 11.9944 13.0122 12.0086ZM12.9439 12.0367C12.9486 12.0656 12.9723 12.0704 12.9723 12.0995L12.92 12.1041C12.92 12.0848 12.8867 12.0803 12.8772 12.0656H12.8532C12.839 12.0367 12.8772 12.0367 12.8867 12.0175C12.9153 12.0271 12.9104 11.9982 12.939 12.008L12.9439 12.0367ZM13.2869 11.7285C13.3013 11.7667 13.3632 11.7715 13.3632 11.8247H13.3346C13.3297 11.8054 13.3013 11.8105 13.3013 11.7959C13.1629 11.709 12.9821 11.7285 12.8439 11.7959C12.7867 11.8198 12.7723 11.8875 12.7055 11.8875V11.8587C12.7104 11.8391 12.7437 11.8296 12.739 11.8009C12.8153 11.7043 12.9677 11.6418 13.1201 11.6611C13.1821 11.6851 13.2346 11.6995 13.2869 11.7285ZM12.7962 12.5619C12.8104 12.5763 12.8295 12.581 12.8486 12.5859C12.8583 12.6195 12.8104 12.6341 12.7772 12.6631C12.8058 12.6244 12.7627 12.615 12.739 12.6053C12.6626 12.6195 12.558 12.5666 12.5008 12.6244L12.5055 12.6679C12.4913 12.6535 12.4436 12.6582 12.458 12.6195C12.4341 12.615 12.4293 12.6099 12.4245 12.5859C12.4818 12.6099 12.5102 12.5137 12.5721 12.5041C12.6532 12.5281 12.739 12.4802 12.7962 12.5619ZM12.7344 12.6775C12.7246 12.7208 12.6579 12.692 12.6198 12.6965C12.6435 12.6679 12.6864 12.6871 12.7344 12.6775ZM12.615 12.5472C12.6198 12.5619 12.6007 12.5666 12.5913 12.5619H12.5722V12.5378C12.5865 12.5429 12.6007 12.5331 12.615 12.5472ZM12.6198 12.6965C12.5913 12.7113 12.5343 12.7113 12.5343 12.6775L12.6198 12.6965ZM12.4436 11.6946C12.453 11.709 12.4818 11.7187 12.4865 11.7382C12.6435 11.8634 12.5486 12.1041 12.5486 12.2921C12.5676 12.3257 12.5722 12.3594 12.6007 12.3786C12.6198 12.3642 12.6292 12.3982 12.6435 12.3935V12.4127C12.6104 12.4127 12.5818 12.4175 12.558 12.403V12.3935C12.515 12.3883 12.4341 12.4175 12.4245 12.3498C12.4293 12.3306 12.415 12.3065 12.4341 12.2969C12.458 12.3161 12.453 12.3691 12.5055 12.3642C12.539 12.3498 12.5247 12.3161 12.5486 12.2921C12.5151 12.1236 12.6198 11.9115 12.4771 11.8247C12.4484 11.7959 12.4199 11.7862 12.3912 11.7668C12.3102 11.7238 12.2293 11.7476 12.1386 11.743C12.1244 11.7668 12.0911 11.743 12.0768 11.7572C12.0245 11.7766 11.9815 11.8247 11.929 11.8296C11.9004 11.7767 11.9862 11.7668 12.0005 11.7286C12.0577 11.7092 12.1005 11.6805 12.1624 11.6611C12.2575 11.6466 12.3577 11.6562 12.4436 11.6946Z" fill="#ECC637"/>
</g>
<defs>
<clipPath id="clip0_1692_54151">
<rect x="2.63086" y="5.3501" width="19.9495" height="13.2997" rx="1" fill="white"/>
</clipPath>
</defs>
</svg>
