<svg width="25" height="24" viewBox="0 0 25 24" fill="none" xmlns="http://www.w3.org/2000/svg">
<g clip-path="url(#clip0_1692_54139)">
<path d="M2.6543 5.3501H22.6038V18.6498H2.6543V5.3501Z" fill="#418FDE"/>
<path d="M2.6543 14.2158H22.6038V14.9547H2.6543V15.6936H22.6038V16.4324H2.6543V14.2158Z" fill="#FFD100"/>
<path d="M6.07473 7.84437L5.61287 6.34766L5.15101 7.84437L3.6543 8.30623L5.15101 8.76809L5.61287 10.2648L6.07473 8.76809L7.57145 8.30623L6.07473 7.84437Z" fill="#EF3340"/>
<path fill-rule="evenodd" clip-rule="evenodd" d="M5.61154 6.09668L6.1325 7.78491L7.82073 8.30587L6.1325 8.82683L5.61154 10.5151L5.09058 8.82683L3.40234 8.30587L5.09058 7.78491L5.61154 6.09668ZM5.61154 6.59791L5.20878 7.90311L3.90358 8.30587L5.20878 8.70863L5.61154 10.0138L6.0143 8.70863L7.3195 8.30587L6.0143 7.90311L5.61154 6.59791Z" fill="white"/>
</g>
<defs>
<clipPath id="clip0_1692_54139">
<rect x="2.6543" y="5.3501" width="19.9495" height="13.2997" rx="1" fill="white"/>
</clipPath>
</defs>
</svg>
