<svg width="25" height="24" viewBox="0 0 25 24" fill="none" xmlns="http://www.w3.org/2000/svg">
<g clip-path="url(#clip0_1692_54095)">
<mask id="mask0_1692_54095" style="mask-type:alpha" maskUnits="userSpaceOnUse" x="2" y="5" width="21" height="14">
<path d="M22.1155 5.3501H2.16602V18.6498H22.1155V5.3501Z" fill="#012169"/>
</mask>
<g mask="url(#mask0_1692_54095)">
<path d="M22.1155 5.3501H2.16602V18.6498H22.1155V5.3501Z" fill="#012169"/>
<path fill-rule="evenodd" clip-rule="evenodd" d="M6.19037 7.93163L1.93945 5.80876L2.4025 4.88379L7.34799 7.35353L12.2935 4.88379L12.7565 5.80876L8.5056 7.93163L12.7565 10.0545L12.2935 10.9795L7.34799 8.50974L2.4025 10.9795L1.93945 10.0545L6.19037 7.93163Z" fill="white"/>
<path fill-rule="evenodd" clip-rule="evenodd" d="M6.57265 7.93125L2.00391 5.655L2.31322 5.03857L7.34594 7.54598L12.3787 5.03857L12.688 5.655L8.11923 7.93125L12.688 10.2075L12.3787 10.8239L7.34594 8.31652L2.31322 10.8239L2.00391 10.2075L6.57265 7.93125Z" fill="#E4002B"/>
<path fill-rule="evenodd" clip-rule="evenodd" d="M8.21151 8.79177V10.5133H6.48255V8.79177H2.16016V7.0702H6.48255V5.34863H8.21151V7.0702H12.5339V8.79177H8.21151Z" fill="white"/>
<path fill-rule="evenodd" clip-rule="evenodd" d="M7.86572 8.44746V10.5133H6.82834V8.44746H2.16016V7.41452H6.82834V5.34863H7.86572V7.41452H12.5339V8.44746H7.86572Z" fill="#E4002B"/>
<path d="M7.15792 12.9968L7.44644 13.8939L8.32771 13.5601L7.80623 14.345L8.61662 14.8259L7.67782 14.9076L7.8071 15.841L7.15792 15.158L6.50874 15.841L6.63801 14.9076L5.69922 14.8259L6.50961 14.345L5.98813 13.5601L6.86939 13.8939L7.15792 12.9968Z" fill="white"/>
<path d="M17.1327 14.6118L17.2701 15.0389L17.6897 14.88L17.4414 15.2538L17.8273 15.4828L17.3803 15.5217L17.4418 15.9662L17.1327 15.6409L16.8235 15.9662L16.8851 15.5217L16.4381 15.4828L16.824 15.2538L16.5756 14.88L16.9953 15.0389L17.1327 14.6118Z" fill="white"/>
<path d="M14.639 10.6634L14.7764 11.0906L15.196 10.9317L14.9477 11.3054L15.3336 11.5344L14.8866 11.5733L14.9481 12.0178L14.639 11.6926L14.3299 12.0178L14.3914 11.5733L13.9444 11.5344L14.3303 11.3054L14.0819 10.9317L14.5016 11.0906L14.639 10.6634Z" fill="white"/>
<path d="M17.1327 7.96191L17.2701 8.3891L17.6897 8.23017L17.4414 8.60393L17.8273 8.83294L17.3803 8.87183L17.4418 9.31632L17.1327 8.99106L16.8235 9.31632L16.8851 8.87183L16.4381 8.83294L16.824 8.60393L16.5756 8.23017L16.9953 8.3891L17.1327 7.96191Z" fill="white"/>
<path d="M19.3493 9.99843L19.4867 10.4256L19.9063 10.2667L19.658 10.6404L20.0439 10.8695L19.5969 10.9083L19.6584 11.3528L19.3493 11.0276L19.0402 11.3528L19.1017 10.9083L18.6547 10.8695L19.0406 10.6404L18.7923 10.2667L19.2119 10.4256L19.3493 9.99843Z" fill="white"/>
<path d="M18.1302 11.9993L18.2387 12.2655L18.5254 12.2865L18.3058 12.472L18.3744 12.7512L18.1302 12.5996L17.8859 12.7512L17.9545 12.472L17.7349 12.2865L18.0216 12.2655L18.1302 11.9993Z" fill="white"/>
</g>
</g>
<defs>
<clipPath id="clip0_1692_54095">
<rect x="2.16602" y="5.3501" width="19.9495" height="13.2997" rx="1" fill="white"/>
</clipPath>
</defs>
</svg>
