<svg width="25" height="24" viewBox="0 0 25 24" fill="none" xmlns="http://www.w3.org/2000/svg">
<g clip-path="url(#clip0_1692_54137)">
<path d="M22.139 5.3501H2.18945V18.6498H22.139V5.3501Z" fill="#509E2F"/>
<path d="M22.139 5.3501H2.18945V14.2165H22.139V5.3501Z" fill="#EF3340"/>
<path d="M22.139 5.3501H2.18945V9.78332H22.139V5.3501Z" fill="#00B5E2"/>
<path d="M13.097 13.2005C12.7328 13.6833 12.1544 13.9954 11.503 13.9954C10.4011 13.9954 9.50781 13.1021 9.50781 12.0001C9.50781 10.8982 10.4011 10.0049 11.503 10.0049C12.1544 10.0049 12.7328 10.317 13.097 10.7998C12.7983 10.5134 12.3929 10.3374 11.9464 10.3374C11.0282 10.3374 10.2837 11.0818 10.2837 12.0001C10.2837 12.9184 11.0282 13.6628 11.9464 13.6628C12.3929 13.6628 12.7983 13.4868 13.097 13.2005Z" fill="white"/>
<path d="M13.72 10.8917L13.9321 11.4881L14.5038 11.2163L14.232 11.788L14.8284 12.0001L14.232 12.2122L14.5038 12.7839L13.9321 12.5122L13.72 13.1086L13.5079 12.5122L12.9362 12.7839L13.2079 12.2122L12.6115 12.0001L13.2079 11.788L12.9362 11.2163L13.5079 11.4881L13.72 10.8917Z" fill="white"/>
</g>
<defs>
<clipPath id="clip0_1692_54137">
<rect x="2.18945" y="5.3501" width="19.9495" height="13.2997" rx="1" fill="white"/>
</clipPath>
</defs>
</svg>
