<svg width="24" height="24" viewBox="0 0 24 24" fill="none" xmlns="http://www.w3.org/2000/svg">
<path d="M16 4.99909L16 18.9991M10 3.99909L10 19.9991M3 11.9991H21M3 5.98826L3 18.0099C3 19.374 3 20.056 3.28134 20.5287C3.52803 20.9432 3.9162 21.2546 4.37434 21.4055C4.89685 21.5776 5.56262 21.4296 6.89418 21.1337L18.4942 18.5559C19.3883 18.3572 19.8354 18.2579 20.1691 18.0175C20.4634 17.8054 20.6945 17.5173 20.8377 17.184C21 16.806 21 16.3481 21 15.4321V8.56604C21 7.65011 21 7.19214 20.8377 6.81423C20.6945 6.48088 20.4634 6.19276 20.1691 5.9807C19.8354 5.74028 19.3883 5.64094 18.4942 5.44224L6.89418 2.86446C5.56262 2.56856 4.89685 2.42061 4.37434 2.5927C3.9162 2.7436 3.52803 3.05498 3.28134 3.46948C3 3.94221 3 4.62423 3 5.98826Z" stroke="#1C1D20" stroke-width="1.5" stroke-linecap="round" stroke-linejoin="round"/>
</svg>
