<svg width="161" height="161" viewBox="0 0 161 161" fill="none" xmlns="http://www.w3.org/2000/svg">
<circle cx="80.5" cy="80.7053" r="80" fill="#8FE6A4"/>
<circle cx="63.8348" cy="64.147" r="8.53333" transform="rotate(180 63.8348 64.147)" fill="#34C759"/>
<circle cx="97.3026" cy="64.147" r="8.53333" transform="rotate(180 97.3026 64.147)" fill="#34C759"/>
<path d="M52.7663 84.1116C52.7663 87.7806 53.489 91.4138 54.8931 94.8036C56.2972 98.1934 58.3552 101.273 60.9497 103.868C63.5441 106.462 66.6241 108.52 70.0139 109.924C73.4037 111.328 77.0368 112.051 80.7059 112.051C84.375 112.051 88.0082 111.328 91.3979 109.924C94.7877 108.52 97.8678 106.462 100.462 103.868C103.057 101.273 105.115 98.1934 106.519 94.8036C107.923 91.4138 108.646 87.7806 108.646 84.1116L80.7059 84.1116H52.7663Z" fill="#34C759"/>
<path d="M91.9757 20.9362C106.991 23.7299 120.415 32.0456 129.603 44.2448C138.792 56.4441 143.079 71.6423 141.619 86.845C140.159 102.048 133.058 116.152 121.716 126.38C110.374 136.608 95.6124 142.217 80.3402 142.102C65.068 141.987 50.3926 136.157 39.2053 125.76C28.0181 115.363 21.1303 101.153 19.8991 85.9302C18.6678 70.7073 23.1824 55.5752 32.5533 43.5154C41.9243 31.4557 55.472 23.3427 70.5272 20.775L72.5816 32.8209C60.5375 34.8751 49.6993 41.3654 42.2026 51.0133C34.7058 60.6611 31.0941 72.7667 32.0791 84.945C33.0641 97.1234 38.5743 108.491 47.5241 116.809C56.4739 125.126 68.2143 129.791 80.432 129.882C92.6498 129.974 104.459 125.487 113.533 117.305C122.607 109.123 128.287 97.839 129.455 85.6769C130.623 73.5147 127.194 61.3562 119.843 51.5968C112.492 41.8374 101.752 35.1848 89.7404 32.9499L91.9757 20.9362Z" fill="white"/>
<path d="M91.9684 20.9349C101.914 22.7841 111.245 27.0738 119.123 33.419C127.002 39.7642 133.182 47.9664 137.108 57.2893L125.847 62.0323C122.705 54.574 117.761 48.0123 111.459 42.9361C105.156 37.86 97.6911 34.4282 89.7346 32.9488L91.9684 20.9349Z" fill="#34C759"/>
</svg>
