<svg width="24" height="24" viewBox="0 0 24 24" fill="none" xmlns="http://www.w3.org/2000/svg">
<path d="M9.75 20.7506L11.223 21.5689C11.5066 21.7264 11.6484 21.8052 11.7986 21.8361C11.9315 21.8634 12.0685 21.8634 12.2015 21.8361C12.3516 21.8052 12.4934 21.7264 12.777 21.5689L14.25 20.7506M5.25 18.2506L3.82297 17.4578C3.52346 17.2914 3.37368 17.2082 3.26463 17.0898C3.16816 16.9851 3.09515 16.8611 3.05048 16.7259C3 16.5731 3 16.4018 3 16.0591V14.5006M3 9.50057V7.94202C3 7.59938 3 7.42806 3.05048 7.27526C3.09515 7.14008 3.16816 7.016 3.26463 6.91131C3.37368 6.79297 3.52345 6.70977 3.82297 6.54337L5.25 5.75057M9.75 3.25057L11.223 2.43226C11.5066 2.2747 11.6484 2.19592 11.7986 2.16503C11.9315 2.1377 12.0685 2.1377 12.2015 2.16503C12.3516 2.19592 12.4934 2.2747 12.777 2.43225L14.25 3.25057M18.75 5.75057L20.177 6.54337C20.4766 6.70977 20.6263 6.79297 20.7354 6.91131C20.8318 7.016 20.9049 7.14008 20.9495 7.27526C21 7.42805 21 7.59937 21 7.94202V9.50057M21 14.5006V16.0591C21 16.4018 21 16.5731 20.9495 16.7259C20.9049 16.8611 20.8318 16.9851 20.7354 17.0898C20.6263 17.2082 20.4766 17.2914 20.177 17.4578L18.75 18.2506M9.75 10.7506L12 12.0006M12 12.0006L14.25 10.7506M12 12.0006V14.5006M3 7.00057L5.25 8.25057M18.75 8.25057L21 7.00057M12 19.5006V22.0006" stroke="#1C1D20" stroke-width="1.5" stroke-linecap="round" stroke-linejoin="round"/>
</svg>
