<svg width="24" height="24" viewBox="0 0 24 24" fill="none" xmlns="http://www.w3.org/2000/svg">
<path d="M11.0596 2.93276C11.3973 2.68762 11.5662 2.56505 11.7508 2.51769C11.9139 2.47587 12.0848 2.47587 12.2478 2.51769C12.4324 2.56505 12.6013 2.68762 12.9391 2.93276L21.0577 8.82469C21.3961 9.07029 21.5653 9.19309 21.6676 9.35424C21.758 9.49653 21.8109 9.65935 21.8215 9.82757C21.8334 10.0181 21.7688 10.2169 21.6394 10.6145L18.5391 20.1457C18.4099 20.5428 18.3453 20.7414 18.2237 20.8883C18.1164 21.0181 17.978 21.1186 17.8214 21.1805C17.6441 21.2507 17.4353 21.2507 17.0176 21.2507H6.98105C6.5634 21.2507 6.35457 21.2507 6.17724 21.1805C6.02067 21.1186 5.88228 21.0181 5.77491 20.8883C5.65331 20.7414 5.58872 20.5428 5.45952 20.1457L2.35923 10.6145C2.22989 10.2169 2.16522 10.0181 2.17719 9.82757C2.18776 9.65935 2.24068 9.49653 2.33104 9.35424C2.43337 9.19309 2.60257 9.07029 2.94099 8.82469L11.0596 2.93276Z" stroke="#1C1D20" stroke-width="1.5" stroke-linecap="round" stroke-linejoin="round"/>
</svg>
