<svg width="24" height="24" viewBox="0 0 24 24" fill="none" xmlns="http://www.w3.org/2000/svg">
<path d="M11.3074 3.20742C11.5349 2.81156 11.6486 2.61363 11.7973 2.5473C11.927 2.48944 12.0751 2.48944 12.2048 2.5473C12.3535 2.61363 12.4672 2.81156 12.6947 3.20742L14.6498 6.60974C14.7341 6.75628 14.7762 6.82955 14.8352 6.8828C14.8874 6.92991 14.949 6.96547 15.0159 6.98715C15.0916 7.01166 15.1761 7.01149 15.3451 7.01114L19.2692 7.0032C19.7257 7.00228 19.954 7.00182 20.0858 7.0974C20.2007 7.18077 20.2748 7.30906 20.2895 7.45029C20.3064 7.6122 20.1919 7.80967 19.9628 8.2046L17.9939 11.599C17.9091 11.7452 17.8667 11.8183 17.8501 11.896C17.8354 11.9648 17.8354 12.0359 17.8501 12.1047C17.8667 12.1825 17.9091 12.2556 17.9939 12.4018L19.9628 15.7962C20.1919 16.1911 20.3064 16.3886 20.2895 16.5505C20.2748 16.6917 20.2007 16.82 20.0858 16.9034C19.954 16.999 19.7257 16.9985 19.2692 16.9976L15.3451 16.9896C15.1761 16.9893 15.0916 16.9891 15.0159 17.0136C14.949 17.0353 14.8874 17.0709 14.8352 17.118C14.7762 17.1712 14.7341 17.2445 14.6498 17.391L12.6947 20.7934C12.4672 21.1892 12.3535 21.3871 12.2048 21.4535C12.0751 21.5113 11.927 21.5113 11.7973 21.4535C11.6486 21.3871 11.5349 21.1892 11.3074 20.7934L9.35226 17.391C9.26805 17.2445 9.22595 17.1712 9.16691 17.118C9.11467 17.0709 9.05308 17.0353 8.98616 17.0136C8.91053 16.9891 8.82603 16.9893 8.65701 16.9896L4.73293 16.9976C4.27637 16.9985 4.04809 16.999 3.91631 16.9034C3.80137 16.82 3.7273 16.6917 3.71257 16.5505C3.69568 16.3886 3.81022 16.1911 4.03931 15.7962L6.00822 12.4018C6.09302 12.2556 6.13542 12.1825 6.15202 12.1047C6.1667 12.0359 6.1667 11.9648 6.15202 11.896C6.13542 11.8183 6.09302 11.7452 6.00822 11.599L4.03931 8.2046C3.81022 7.80967 3.69568 7.6122 3.71257 7.45029C3.7273 7.30906 3.80137 7.18077 3.91631 7.0974C4.04809 7.00182 4.27637 7.00228 4.73293 7.0032L8.65701 7.01114C8.82603 7.01149 8.91053 7.01166 8.98616 6.98715C9.05308 6.96547 9.11467 6.92991 9.16691 6.8828C9.22595 6.82955 9.26805 6.75628 9.35226 6.60974L11.3074 3.20742Z" stroke="#1C1D20" stroke-width="1.5" stroke-linecap="round" stroke-linejoin="round"/>
</svg>
