<svg width="25" height="25" viewBox="0 0 25 25" fill="none" xmlns="http://www.w3.org/2000/svg">
<g clip-path="url(#clip0_1692_54075)">
<path d="M2.04883 6.02783H21.9983V19.3275H2.04883V6.02783Z" fill="#ED1C24"/>
<path d="M2.04883 9.35254H21.9983V16.0024H2.04883V9.35254Z" fill="white"/>
<path d="M11.9326 9.35254C11.7899 9.65315 11.521 9.86325 11.2641 10.0621C11.2218 10.099 11.1167 10.1705 11.1929 10.2249C11.2583 10.1519 11.4375 10.2486 11.3334 10.3271C11.24 10.4145 11.1115 10.4465 11.0079 10.5186C10.9161 10.5684 10.823 10.6205 10.7502 10.6968C10.7452 10.8161 10.8981 10.7501 10.9602 10.7998C11.041 10.8861 10.9259 11.0318 10.8199 10.9985C10.6843 11.0026 10.5907 11.1219 10.5394 11.2358C10.4333 11.3998 10.2323 11.4484 10.0723 11.5417C9.98072 11.5951 9.89188 11.6541 9.80667 11.7164C9.69677 11.7915 9.79237 11.9403 9.90931 11.9038C10.0355 11.8912 10.1491 11.792 10.2798 11.8206C10.3983 11.8622 10.4315 12.0171 10.3911 12.1253C10.3612 12.2118 10.2887 12.2728 10.2307 12.3404C10.1364 12.436 10.0131 12.498 9.88304 12.5275C9.7574 12.5697 9.64445 12.6467 9.56203 12.7506C9.46639 12.8469 9.37111 12.9448 9.26115 13.0251C9.22641 13.1137 9.32444 13.1892 9.40613 13.1869C9.57834 13.176 9.69766 13.0351 9.84431 12.9627C9.96602 12.908 10.1092 13.0391 10.0795 13.1659C10.07 13.2893 9.95456 13.3518 9.85189 13.3898C9.55006 13.5415 9.28797 13.7616 9.05528 14.0043C9.00715 14.1025 8.87482 14.0736 8.80359 14.142C8.75719 14.2286 8.87365 14.2743 8.94315 14.2654C9.24177 14.2295 9.52044 14.1033 9.78441 13.9644C9.88257 13.9175 9.97475 13.8557 10.0768 13.8183C10.1727 13.7946 10.3064 13.8363 10.3235 13.9454C10.3234 14.0606 10.2093 14.1243 10.1189 14.1693C9.84023 14.3158 9.5344 14.3967 9.23656 14.4935C9.12505 14.4623 9.04103 14.6607 9.16336 14.6964C9.29269 14.7407 9.43021 14.7052 9.56252 14.6994C9.97165 14.6367 10.3295 14.4153 10.7119 14.2722C10.8709 14.2204 11.0585 14.2927 11.137 14.4417C11.2158 14.5744 11.2086 14.7491 11.1255 14.8781C10.9941 15.1593 10.7943 15.4177 10.5261 15.5793C10.3577 15.6627 10.1612 15.6946 10.0169 15.8222C9.88344 15.8661 10.0838 16.0465 10.1128 15.9033C10.1929 15.794 10.3344 15.7613 10.4627 15.7568C10.6555 15.7358 10.8602 15.7002 11.01 15.5668C11.1443 15.4625 11.2767 15.3186 11.459 15.3163C11.5598 15.3283 11.6595 15.4093 11.7619 15.3599C11.8514 15.3188 11.9919 15.3429 12.0153 15.453C12.0581 15.5818 12.1908 15.6404 12.2961 15.7094C12.3343 15.7629 12.4609 15.9009 12.4901 15.7792C12.4665 15.6924 12.5002 15.5596 12.6141 15.5886C12.7135 15.593 12.8083 15.6297 12.9076 15.6357C13.0397 15.6631 13.15 15.7536 13.2251 15.8629C13.2767 15.9342 13.3898 16.0567 13.4738 15.9622C13.526 15.8644 13.4264 15.7828 13.3454 15.7479C13.2272 15.6747 13.1262 15.5771 13.0229 15.4848C12.8706 15.3426 12.7391 15.1617 12.7149 14.9492C12.6821 14.7374 12.6994 14.5213 12.727 14.31C12.7618 14.174 12.9358 14.0997 13.0574 14.172C13.2285 14.2501 13.3984 14.3618 13.5946 14.3497C13.8781 14.3558 14.1695 14.3015 14.4465 14.3837C14.7161 14.4686 14.9089 14.6961 15.1715 14.7946C15.2303 14.8303 15.3055 14.7963 15.3271 14.7335C15.3531 14.6771 15.3347 14.6049 15.2804 14.5727C14.976 14.2655 14.56 14.1163 14.2078 13.8762C14.097 13.848 14.0768 13.6696 14.1793 13.6181C14.314 13.5202 14.5047 13.5658 14.6243 13.6668C14.7252 13.7259 14.839 13.7702 14.9574 13.7703C15.0787 13.7323 15.0199 13.5568 14.9113 13.5436C14.7144 13.4324 14.5735 13.25 14.4029 13.1055C14.3047 13.0224 14.1973 12.9382 14.0653 12.9221C13.9932 12.9089 13.9194 12.9061 13.8463 12.911C13.7778 12.8365 13.8691 12.7224 13.9578 12.7317C14.0487 12.7379 14.1391 12.7446 14.2299 12.732C14.3314 12.7245 14.4328 12.714 14.5347 12.7133C14.6169 12.7693 14.7812 12.6726 14.707 12.5761C14.6259 12.505 14.5087 12.5112 14.4119 12.4748C14.2418 12.4191 14.0686 12.3736 13.8932 12.3384C13.7705 12.3311 13.7856 12.1697 13.8934 12.1518C13.964 12.1255 14.0253 12.1797 14.0931 12.1881C14.2088 12.213 14.3282 12.2127 14.4438 12.2379C14.5418 12.1895 14.4661 12.0463 14.3774 12.0379C14.1681 11.9631 13.9873 11.8281 13.8105 11.6967C13.6153 11.5499 13.4383 11.3801 13.2407 11.2367C13.169 11.1923 13.0515 11.1795 13.0327 11.0811C13.026 10.9905 13.1326 10.9493 13.2082 10.9704C13.3154 11.0021 13.4153 11.0572 13.5246 11.0843C13.6103 11.0989 13.6987 11.1242 13.7814 11.1134C13.8863 11.0475 13.7363 11.0054 13.6821 10.9825C13.5423 10.9071 13.418 10.8066 13.2921 10.7107C13.1857 10.62 13.3823 10.5799 13.4499 10.6148C13.563 10.6621 13.5759 10.4974 13.4914 10.4559C13.3918 10.4136 13.3062 10.3433 13.2159 10.282C13.0527 10.1658 12.868 10.0739 12.6674 10.0484C12.4425 10.0258 12.2327 9.89648 12.1134 9.70419C12.0394 9.59461 11.9851 9.47341 11.9326 9.35254ZM11.1942 10.614C11.3101 10.6174 11.2923 10.8263 11.1782 10.8124C11.0674 10.8052 11.0742 10.5916 11.1942 10.614ZM12.2874 10.7265C12.4001 10.7063 12.424 10.9121 12.3114 10.9217C12.1939 10.9428 12.1504 10.7134 12.2874 10.7265ZM11.9672 10.7533C12.0815 10.7758 12.0612 10.975 11.9458 10.9767C11.8614 10.9955 11.7704 11.0531 11.685 11.0099C11.6155 10.9365 11.7159 10.8279 11.7935 10.804C11.8529 10.792 11.9076 10.765 11.9672 10.7533ZM12.7041 10.7542C12.8142 10.7943 12.7754 10.9888 12.6592 10.9863C12.5493 11.0011 12.4981 10.8178 12.6006 10.7743C12.6337 10.7625 12.6685 10.7526 12.7041 10.7542ZM11.461 10.9748C11.5421 11.0519 11.4942 11.2007 11.3943 11.2362C11.3223 11.2763 11.2241 11.371 11.1457 11.2931C11.1032 11.1978 11.21 11.1261 11.2728 11.0733C11.3289 11.0297 11.3907 10.9901 11.461 10.9748ZM12.3862 11.4048C12.5022 11.4596 12.4433 11.6686 12.3161 11.6556C12.2115 11.6291 12.2252 11.4498 12.3305 11.4355C12.3504 11.4279 12.3686 11.4166 12.3862 11.4048ZM12.0182 11.4255C12.1267 11.4763 12.0439 11.6574 11.9346 11.6313C11.8213 11.618 11.8234 11.4188 11.9483 11.4368C11.9719 11.4356 11.9962 11.435 12.0182 11.4255ZM12.8116 11.5294C12.9305 11.4925 13.0736 11.615 13.035 11.7392C12.982 11.8355 12.851 11.8477 12.7571 11.8117C12.6494 11.8064 12.5769 11.6443 12.6729 11.5757C12.7126 11.5457 12.7627 11.5334 12.8116 11.5294ZM11.0553 11.5605C11.1536 11.507 11.258 11.6678 11.1744 11.7387C11.119 11.8201 10.9768 11.8534 10.9141 11.7629C10.862 11.6744 10.9463 11.5258 11.0554 11.5605H11.0553ZM10.6017 11.6367C10.7133 11.6519 10.7859 11.7532 10.8272 11.8497C10.8372 11.9672 10.6638 12.0317 10.5881 11.9462C10.503 11.8928 10.4286 11.783 10.4732 11.6812C10.5007 11.6407 10.5554 11.624 10.6018 11.6367H10.6017ZM13.3154 12.0615C13.4364 12.0296 13.5243 12.223 13.4203 12.293C13.3253 12.3793 13.1405 12.2649 13.1901 12.1418C13.2147 12.0961 13.264 12.0658 13.3154 12.0615H13.3154ZM11.7749 12.2821C11.8764 12.295 11.8435 12.4709 11.7497 12.465C11.649 12.4463 11.6721 12.2722 11.7749 12.2821ZM11.2602 12.3755C11.3429 12.317 11.4497 12.4599 11.3808 12.5265C11.2983 12.5846 11.1913 12.444 11.2602 12.3755ZM12.0786 12.3928C12.1746 12.4511 12.2315 12.5598 12.2434 12.6695C12.1975 12.772 12.0199 12.7473 11.9999 12.6382C11.9648 12.5519 11.9971 12.4409 12.0786 12.3929L12.0786 12.3928ZM12.3643 12.5624C12.4879 12.5314 12.4435 12.7898 12.3403 12.7002C12.306 12.6594 12.3244 12.5924 12.3642 12.5624H12.3643ZM10.5704 12.7424C10.6522 12.7184 10.7716 12.7436 10.7942 12.8376C10.8037 12.9259 10.7066 12.9718 10.6354 12.9937C10.5214 13.0289 10.4099 13.0867 10.2873 13.0789C10.1953 13.0264 10.1623 12.9188 10.1296 12.8251C10.2183 12.7419 10.3489 12.7663 10.4589 12.7455C10.496 12.7436 10.5332 12.7427 10.5704 12.7424ZM13.353 13.1473C13.4574 13.0961 13.5698 13.2619 13.4824 13.3393C13.373 13.4652 13.1625 13.4886 13.0317 13.3828C13.016 13.2714 13.1272 13.1905 13.2261 13.1745C13.2676 13.1628 13.309 13.1452 13.353 13.1473ZM13.94 13.2745C14.0587 13.2541 14.1521 13.4233 14.0674 13.5109C13.9872 13.6319 13.7959 13.6636 13.6866 13.5645C13.644 13.4642 13.7305 13.3597 13.8225 13.3276C13.862 13.3107 13.8995 13.2892 13.94 13.2745ZM10.9886 13.4545C11.0985 13.4436 11.1992 13.5526 11.1848 13.661C11.2643 13.7392 11.1235 13.8851 11.0442 13.804C10.9744 13.7194 10.9747 13.6046 10.9477 13.5033C10.9465 13.4808 10.9631 13.4517 10.9886 13.4545ZM11.8322 13.5176C11.9458 13.4685 12.0928 13.6044 12.031 13.7195C11.9868 13.8132 11.8145 13.7818 11.8202 13.6732C11.8199 13.6213 11.8158 13.568 11.8322 13.5176V13.5176ZM11.4218 13.5912C11.5357 13.565 11.6402 13.7127 11.5769 13.8112C11.4634 13.8213 11.4044 13.6865 11.4218 13.5912Z" fill="#00A651"/>
</g>
<defs>
<clipPath id="clip0_1692_54075">
<rect x="2.04883" y="6.02783" width="19.9495" height="13.2997" rx="1" fill="white"/>
</clipPath>
</defs>
</svg>
