<svg width="25" height="25" viewBox="0 0 25 25" fill="none" xmlns="http://www.w3.org/2000/svg">
<g clip-path="url(#clip0_1692_54051)">
<path d="M22.8655 7.1377H2.02344V18.1377H22.8655V7.1377Z" fill="#009543"/>
<path d="M22.8655 7.1377H2.02344V12.6377H22.8655V7.1377Z" fill="#D21034"/>
<path d="M2.02344 7.1377L11.7498 11.6535H22.8655V13.6219H11.7498L2.02344 18.1377" fill="black"/>
<path fill-rule="evenodd" clip-rule="evenodd" d="M10.845 12.6377L2.02344 8.54195L2.02346 7.1377H5.04804L12.031 10.3798H22.9183V14.8956H12.031L5.04804 18.1377H2.02346L2.02344 16.7334L10.845 12.6377Z" fill="#FDCE12"/>
<path fill-rule="evenodd" clip-rule="evenodd" d="M3.6432 7.1377H2.02344V7.90364L11.5964 12.3482H22.8656L22.8655 10.9745L16.3782 10.9587H11.9032L7.98754 9.14076L3.6432 7.1377ZM11.5964 12.9272H22.8656V14.3166H11.9032L3.67322 18.1377H2.02345L2.02344 17.3717L11.5964 12.9272Z" fill="black"/>
<path d="M4.50018 13.6905V14.3174C5.04549 14.3174 6.11568 13.8995 6.11568 12.5541C6.11568 11.2087 4.97414 10.959 4.63268 10.959C4.29124 10.959 3.23633 11.2036 3.23633 12.3044C3.23633 13.4052 4.27086 13.5071 4.4747 13.5071C4.67854 13.5071 5.44297 13.3236 5.35635 12.498C5.35635 12.7325 5.09135 13.2268 4.53584 13.2268C3.98036 13.2268 3.63383 12.814 3.63383 12.4063C3.63383 11.9986 3.97017 11.4533 4.55623 11.4533C5.14228 11.4533 5.57036 11.9731 5.57036 12.498C5.57036 13.0229 5.15759 13.6905 4.50018 13.6905Z" fill="#FDCE12"/>
<path d="M4.02241 12.8745L4.05489 12.8955C4.05489 12.8955 4.31289 12.3069 5.00661 11.8884C4.91869 11.9362 4.45431 12.1674 4.02241 12.8745Z" fill="#FDCE12"/>
<path d="M4.08929 12.7732C4.08929 12.7732 4.00904 12.6089 4.07974 12.5363C4.15046 12.4636 4.11797 12.7293 4.11797 12.7293L4.14855 12.6853C4.14855 12.6853 4.10076 12.4847 4.15428 12.4426C4.20778 12.4006 4.18103 12.6356 4.18103 12.6356L4.21351 12.5936C4.21351 12.5936 4.17912 12.3987 4.23071 12.3624C4.28232 12.326 4.24984 12.5458 4.24984 12.5458L4.28805 12.5019C4.28805 12.5019 4.25939 12.3165 4.32245 12.2725C4.38552 12.2286 4.33009 12.4484 4.33009 12.4484L4.37213 12.4025C4.37213 12.4025 4.35302 12.2324 4.40654 12.1942C4.46004 12.156 4.41419 12.3547 4.41419 12.3547L4.4524 12.3146C4.4524 12.3146 4.44094 12.156 4.49253 12.1197C4.54414 12.0833 4.49635 12.2706 4.49635 12.2706L4.5365 12.2324C4.5365 12.2324 4.52694 12.0738 4.59191 12.0432C4.65688 12.0126 4.58044 12.1923 4.58044 12.1923L4.62439 12.1541C4.62439 12.1541 4.63777 11.9687 4.6932 11.9515C4.74861 11.9343 4.66836 12.1158 4.66836 12.1158L4.70849 12.0833C4.70849 12.0833 4.72951 11.9247 4.79065 11.9056C4.85182 11.8865 4.75244 12.0509 4.75244 12.0509L4.79256 12.0203C4.79256 12.0203 4.83653 11.8617 4.89385 11.8445C4.9512 11.8273 4.83462 11.9935 4.83462 11.9935L4.87283 11.9668C4.87283 11.9668 4.93589 11.8234 4.9875 11.8139C5.03909 11.8043 4.93016 11.9324 4.93016 11.9324L4.97795 11.9037C4.97795 11.9037 5.06011 11.7546 5.08879 11.8005C5.11746 11.8464 4.97413 11.9133 4.97413 11.9133L4.92634 11.94C4.92634 11.94 5.10026 11.8578 5.12128 11.8999C5.1423 11.9419 4.88239 11.9687 4.88239 11.9687L4.84035 11.9974C4.84035 11.9974 5.01425 11.9496 4.99323 11.9935C4.97221 12.0375 4.80022 12.0279 4.80022 12.0279L4.76008 12.0566C4.76008 12.0566 4.93398 12.0146 4.91105 12.0547C4.88812 12.0948 4.71804 12.091 4.71804 12.091L4.676 12.1254C4.676 12.1254 4.84609 12.0814 4.82124 12.133C4.79638 12.1846 4.60337 12.1827 4.60337 12.1827L4.5556 12.2267C4.5556 12.2267 4.73524 12.1655 4.71995 12.2133C4.70467 12.2611 4.50017 12.2859 4.50017 12.2859L4.45431 12.3318C4.45431 12.3318 4.64732 12.2668 4.59 12.326C4.53268 12.3853 4.39317 12.4006 4.39317 12.4006L4.33774 12.4675C4.33774 12.4675 4.52885 12.3528 4.50208 12.4178C4.47533 12.4828 4.28806 12.5267 4.28806 12.5267L4.24984 12.5726C4.24984 12.5726 4.42183 12.4732 4.40463 12.5286C4.38744 12.584 4.20396 12.6433 4.20396 12.6433L4.17339 12.6853C4.17339 12.6853 4.37595 12.5649 4.35875 12.6261C4.34156 12.6872 4.14855 12.7312 4.14855 12.7312L4.1237 12.7694C4.1237 12.7694 4.31098 12.6624 4.31289 12.714C4.3148 12.7656 4.09311 12.8172 4.09311 12.8172L4.08929 12.7732Z" fill="#FDCE12"/>
</g>
<defs>
<clipPath id="clip0_1692_54051">
<rect x="2.02344" y="7.1377" width="20" height="11" rx="1" fill="white"/>
</clipPath>
</defs>
</svg>
