<svg width="25" height="25" viewBox="0 0 25 25" fill="none" xmlns="http://www.w3.org/2000/svg">
<g clip-path="url(#clip0_1692_54083)">
<rect x="2.06055" y="6.06787" width="19.9495" height="13.2997" fill="white"/>
<path d="M16.9992 6.06787H21.9866V19.3675H16.9992V6.06787Z" fill="#D52B1E"/>
<path d="M2.03711 6.06787H7.02449V19.3675H2.03711V6.06787Z" fill="#D52B1E"/>
<path d="M12.1959 16.9359L12.1024 15.1425C12.101 15.113 12.1063 15.0836 12.1178 15.0564C12.1293 15.0292 12.1468 15.0049 12.1689 14.9854C12.1911 14.9659 12.2173 14.9515 12.2457 14.9435C12.2741 14.9354 12.3039 14.9338 12.333 14.9388L14.1181 15.2526L13.8771 14.5876C13.8673 14.5612 13.866 14.5323 13.8735 14.5051C13.8809 14.4779 13.8967 14.4537 13.9186 14.4359L15.8741 12.8524L15.4335 12.6467C15.4038 12.6326 15.3802 12.6082 15.3672 12.578C15.3542 12.5477 15.3526 12.5138 15.3629 12.4825L15.7494 11.2939L14.6231 11.5329C14.5926 11.5392 14.5608 11.5348 14.5331 11.5204C14.5055 11.506 14.4837 11.4825 14.4714 11.4539L14.2532 10.9406L13.3742 11.8841C13.3541 11.9053 13.3276 11.9194 13.2988 11.9243C13.27 11.9292 13.2404 11.9246 13.2144 11.9113C13.1884 11.8979 13.1675 11.8765 13.1547 11.8503C13.1419 11.824 13.138 11.7943 13.1435 11.7656L13.5674 9.57947L12.8879 9.97222C12.8719 9.98157 12.8542 9.98755 12.8359 9.98978C12.8175 9.99201 12.7989 9.99044 12.7812 9.98518C12.7634 9.97992 12.747 9.97108 12.7328 9.9592C12.7186 9.94732 12.7071 9.93265 12.6988 9.91612L12.0089 8.56121L11.3189 9.91612C11.3107 9.93265 11.2991 9.94732 11.2849 9.9592C11.2707 9.97108 11.2543 9.97992 11.2366 9.98518C11.2188 9.99044 11.2002 9.99201 11.1819 9.98978C11.1635 9.98755 11.1458 9.98157 11.1298 9.97222L10.4503 9.57947L10.8742 11.7656C10.8798 11.7943 10.8758 11.824 10.863 11.8503C10.8502 11.8765 10.8293 11.8979 10.8033 11.9113C10.7773 11.9246 10.7477 11.9292 10.7189 11.9243C10.6901 11.9194 10.6637 11.9053 10.6436 11.8841L9.76454 10.9406L9.54634 11.4539C9.53405 11.4825 9.51223 11.506 9.48458 11.5204C9.45694 11.5348 9.42516 11.5392 9.39465 11.5329L8.26833 11.2939L8.65485 12.4825C8.66509 12.5138 8.66357 12.5477 8.65056 12.578C8.63755 12.6082 8.61395 12.6326 8.5842 12.6467L8.14364 12.8524L10.0991 14.4359C10.121 14.4537 10.1368 14.4779 10.1443 14.5051C10.1517 14.5323 10.1505 14.5612 10.1407 14.5876L9.89962 15.2526L11.6847 14.9388C11.7138 14.9338 11.7436 14.9354 11.772 14.9435C11.8004 14.9515 11.8267 14.9659 11.8488 14.9854C11.8709 15.0049 11.8884 15.0292 11.8999 15.0564C11.9114 15.0836 11.9167 15.113 11.9153 15.1425L11.8218 16.9359H12.1959Z" fill="#D52B1E"/>
</g>
<defs>
<clipPath id="clip0_1692_54083">
<rect x="2.04883" y="6.06787" width="19.9495" height="13.2997" rx="1" fill="white"/>
</clipPath>
</defs>
</svg>
