<svg width="25" height="25" viewBox="0 0 25 25" fill="none" xmlns="http://www.w3.org/2000/svg">
<g clip-path="url(#clip0_1692_54013)">
<path d="M2.60547 19.3677L2.60547 6.068L22.555 6.068V19.3677H2.60547Z" fill="#D71718"/>
<path d="M5.92765 8.06357L6.22694 8.98138H7.1913L6.41316 9.55335L6.71244 10.4712L5.92765 9.89919L5.14951 10.4712L5.44214 9.55335L4.664 8.98138H5.62837L5.92765 8.06357ZM9.49247 11.4355L9.46587 11.9144L9.91812 12.0939L9.45257 12.2137L9.41931 12.6992L9.15993 12.2868L8.69438 12.4132L9.00031 12.0407L8.74093 11.635L9.18654 11.808L9.49247 11.4355ZM8.75423 6.95954L9.19319 7.15241L9.51242 6.78662L9.47252 7.26548L9.91812 7.45835L9.44592 7.56476L9.40601 8.04362L9.15328 7.63127L8.68108 7.73768L9.00031 7.37854L8.75423 6.95954ZM10.2972 8.13008L10.6298 8.47592L11.0687 8.26975L10.8359 8.6954L11.1685 9.04789L10.6896 8.95478L10.4635 9.38043L10.397 8.90157L9.92477 8.81511L10.3637 8.60894L10.2972 8.13008ZM10.5366 10.0588L10.7162 10.5111L11.2017 10.4778L10.8293 10.7837L11.0089 11.236L10.6032 10.9766L10.2307 11.2892L10.3504 10.817L9.93808 10.5643L10.4236 10.531L10.5366 10.0588Z" fill="#F5E929"/>
</g>
<defs>
<clipPath id="clip0_1692_54013">
<rect x="2.60547" y="6.06787" width="19.9495" height="13.2997" rx="1" fill="white"/>
</clipPath>
</defs>
</svg>
