<svg width="25" height="25" viewBox="0 0 25 25" fill="none" xmlns="http://www.w3.org/2000/svg">
<g clip-path="url(#clip0_1692_54061)">
<path d="M22.0706 6.06787H2.12109V19.3675H22.0706V6.06787Z" fill="#008000"/>
<path d="M13.8444 15.0541C13.4135 15.4466 12.8406 15.686 12.2119 15.686C10.8727 15.686 9.78711 14.6004 9.78711 13.2612C9.78711 11.922 10.8727 10.8364 12.2119 10.8364C12.8406 10.8364 13.4135 11.0757 13.8443 11.4682C13.5798 11.3387 13.2823 11.266 12.9679 11.266C11.866 11.266 10.9727 12.1592 10.9727 13.2612C10.9727 14.3631 11.866 15.2564 12.9679 15.2564C13.2823 15.2564 13.5798 15.1837 13.8444 15.0541Z" fill="#FFE000"/>
<path d="M5.67304 12.2685C7.07597 12.2685 8.21327 11.1312 8.21327 9.72822C8.21327 8.32529 7.07597 7.18799 5.67304 7.18799C4.27011 7.18799 3.13281 8.32529 3.13281 9.72822C3.13281 11.1312 4.27011 12.2685 5.67304 12.2685Z" fill="#FFE000"/>
<path d="M5.49609 11.6426H6.13039C6.13039 11.6426 6.15902 11.5845 6.124 11.5554C6.08898 11.5263 5.95259 11.5199 5.98944 11.4171C6.0652 11.2057 6.07577 11.2709 6.12334 10.7687C6.17091 10.2666 6.19382 9.479 6.19382 9.479H6.1022C6.1022 9.479 6.11982 9.72391 6.06696 10.0428C6.0141 10.3617 5.99825 10.3899 5.9401 10.6348C5.88196 10.8797 5.87315 10.9009 5.82029 11.0436C5.76744 11.1863 5.76215 11.1933 5.67934 11.3255C5.59653 11.4576 5.62648 11.4083 5.58067 11.4876C5.55777 11.5272 5.52958 11.5166 5.51416 11.5455C5.49875 11.5743 5.4961 11.6426 5.4961 11.6426L5.49609 11.6426Z" fill="#802000"/>
<path fill-rule="evenodd" clip-rule="evenodd" d="M6.07391 9.45166H6.22222L6.22141 9.47938L6.19448 9.4786C6.22141 9.47938 6.22141 9.47938 6.22141 9.47938L6.22114 9.48839C6.22096 9.49429 6.22069 9.50301 6.22033 9.51428C6.21961 9.53683 6.21853 9.56958 6.21708 9.61046C6.21419 9.69221 6.20984 9.80643 6.204 9.93637C6.19232 10.1961 6.17468 10.5191 6.15083 10.7709C6.12708 11.0215 6.1124 11.1328 6.09378 11.208C6.08434 11.2461 6.07396 11.2747 6.06136 11.3067C6.05847 11.314 6.05548 11.3215 6.05235 11.3293C6.04187 11.3556 6.0299 11.3855 6.01546 11.4258C6.0082 11.4461 6.01061 11.4577 6.01451 11.4651C6.01901 11.4737 6.0282 11.4818 6.04312 11.4898C6.0568 11.4971 6.07233 11.5027 6.0886 11.5087C6.09005 11.5092 6.09151 11.5098 6.09298 11.5103C6.10152 11.5134 6.1104 11.5168 6.11839 11.5204C6.12618 11.5239 6.13472 11.5283 6.14188 11.5343C6.17036 11.5579 6.17091 11.5921 6.16762 11.6136C6.16589 11.6249 6.16285 11.6349 6.16031 11.6419C6.15903 11.6454 6.15784 11.6483 6.15693 11.6504C6.15648 11.6514 6.15609 11.6523 6.1558 11.6529L6.15543 11.6537L6.15531 11.654L6.15526 11.6541L6.15524 11.6541C6.15524 11.6541 6.15522 11.6541 6.13105 11.6422L6.15522 11.6541L6.14782 11.6692H5.45105L5.47019 11.6346C5.47028 11.633 5.4704 11.6312 5.47055 11.6292C5.47106 11.622 5.47191 11.6121 5.47328 11.6011C5.47583 11.5807 5.48072 11.5518 5.49106 11.5324C5.50245 11.5111 5.51967 11.5027 5.53051 11.4974C5.53147 11.4969 5.53238 11.4965 5.53323 11.4961C5.54279 11.4913 5.55029 11.487 5.55801 11.4737C5.57698 11.4409 5.58309 11.4299 5.5895 11.4191C5.59866 11.4036 5.60844 11.3885 5.65718 11.3108L5.66224 11.3027C5.70063 11.2415 5.72082 11.2092 5.73768 11.1759C5.75516 11.1414 5.7692 11.1054 5.79569 11.0338C5.79734 11.0294 5.79895 11.025 5.80051 11.0208C5.84872 10.8907 5.85846 10.8645 5.91455 10.6282C5.9291 10.5669 5.94098 10.5193 5.95144 10.4773C5.98292 10.3511 6.00152 10.2765 6.04105 10.038C6.06722 9.88008 6.07595 9.74044 6.07813 9.64033C6.07922 9.59029 6.07867 9.55018 6.07786 9.52265C6.07745 9.50888 6.07698 9.49827 6.07661 9.49114C6.07643 9.48757 6.07627 9.48488 6.07616 9.4831L6.07603 9.48112L6.076 9.48065L6.07599 9.48055L6.07391 9.45166ZM6.13119 9.50554C6.13137 9.51019 6.13155 9.51537 6.13172 9.52105C6.13256 9.54941 6.13311 9.59045 6.132 9.6415C6.12978 9.74357 6.12089 9.88584 6.0942 10.0468C6.05431 10.2875 6.03526 10.3639 6.00362 10.4908C5.99318 10.5327 5.98137 10.58 5.96698 10.6406C5.91015 10.88 5.90001 10.9074 5.85033 11.0414C5.84899 11.0451 5.84762 11.0488 5.84622 11.0525C5.81986 11.1237 5.80483 11.1626 5.78575 11.2003C5.76775 11.2358 5.74626 11.2701 5.70897 11.3296C5.70697 11.3328 5.70493 11.336 5.70283 11.3394C5.65408 11.4172 5.64451 11.4319 5.63557 11.447C5.62933 11.4575 5.62339 11.4682 5.60467 11.5006C5.58948 11.5269 5.57144 11.5372 5.55732 11.5443L5.55727 11.5443C5.54412 11.5509 5.54161 11.5521 5.53859 11.5578C5.53352 11.5673 5.52937 11.5869 5.52675 11.6078C5.52643 11.6104 5.52614 11.6129 5.52588 11.6153H6.11225C6.11309 11.6122 6.11383 11.6089 6.11436 11.6054C6.11663 11.5906 6.11399 11.5812 6.10746 11.5757C6.10585 11.5744 6.10248 11.5723 6.09625 11.5695C6.09022 11.5668 6.08299 11.564 6.0744 11.5609C6.07287 11.5603 6.0713 11.5598 6.06969 11.5592C6.05404 11.5535 6.03495 11.5465 6.01774 11.5373C5.9988 11.5272 5.97861 11.5126 5.96681 11.4901C5.9544 11.4665 5.95358 11.4388 5.96474 11.4076C5.97954 11.3663 5.99197 11.3352 6.00249 11.3089C6.00556 11.3012 6.00847 11.294 6.01123 11.2869C6.02341 11.256 6.03285 11.2299 6.04147 11.1951C6.05896 11.1244 6.07336 11.0173 6.09718 10.7658C6.1209 10.5154 6.1385 10.1935 6.15017 9.93395C6.156 9.80422 6.16035 9.69017 6.16323 9.60855C6.16468 9.56775 6.16576 9.53505 6.16648 9.51256C6.16656 9.5101 6.16663 9.50776 6.1667 9.50554H6.13119Z" fill="#7B3100"/>
<path d="M5.98575 7.87747C5.99102 7.97599 5.98112 8.10641 5.94029 8.21255C5.89889 8.33082 5.85387 8.44872 5.8561 8.57121C5.79028 8.59359 5.72244 8.42877 5.65908 8.52574C5.70671 8.65972 5.81667 8.76579 5.892 8.8865C5.90471 8.92392 6.0131 9.02164 5.95038 9.04436C5.79209 8.99018 5.75372 8.78962 5.65553 8.66783C5.5415 8.46286 5.3289 8.31799 5.09206 8.30799C5.0031 8.31032 4.71384 8.28594 4.7891 8.43828C4.89994 8.51364 5.03652 8.56277 5.14596 8.64736C5.2275 8.65499 5.3753 8.79111 5.36668 8.84254C5.22327 8.78445 5.15614 8.71484 5.00163 8.65374C4.79227 8.57288 4.50268 8.62151 4.38677 8.82929C4.36517 8.88341 4.33326 9.04113 4.40122 9.05615C4.48062 8.93218 4.5942 8.79358 4.76251 8.83076C4.8947 8.84109 4.615 9.07703 4.72199 9.02956C4.7559 9.01451 4.83419 8.96312 4.8885 8.95776C4.94281 8.95239 4.97314 8.99305 5.01435 8.99867C5.09676 9.00992 5.11946 9.04447 5.11182 9.06457C5.10281 9.08829 5.07662 9.06804 4.99284 9.0946C4.95095 9.10788 4.92907 9.1447 4.88021 9.16155C4.83135 9.1784 4.72971 9.17959 4.69172 9.16465C4.55883 9.10693 4.34096 9.11697 4.29953 9.2835C4.2995 9.35673 4.23433 9.27541 4.20421 9.30705C4.18163 9.38696 4.17578 9.46901 4.05726 9.46175C3.98532 9.53723 3.91164 9.61538 3.82028 9.66908C3.87389 9.79213 4.08631 9.5455 4.07638 9.64949C3.98353 9.77611 4.12416 9.80276 4.18572 9.7053C4.28985 9.59528 4.4188 9.46136 4.57417 9.57224C4.64817 9.64191 4.69117 9.5354 4.74473 9.54111C4.77847 9.62765 4.82093 9.54537 4.85923 9.5209C4.92193 9.51309 4.90429 9.59921 4.97879 9.54616C5.12726 9.4479 5.30992 9.53047 5.45496 9.43486C5.60935 9.36452 5.47664 9.49151 5.43403 9.54115C5.3662 9.67271 5.42502 9.84542 5.27789 9.92713C5.21879 10.0839 5.34772 10.2906 5.21622 10.4066C5.19709 10.4793 5.38533 10.471 5.43817 10.5009C5.53075 10.5046 5.43419 10.289 5.52605 10.2601C5.64923 10.3364 5.64347 10.1237 5.61803 10.0582C5.62997 9.9091 5.63838 9.74611 5.71246 9.61109C5.79121 9.4456 5.8641 9.67849 5.77595 9.74401C5.72587 9.89618 5.65298 10.0866 5.76684 10.2281C5.79966 10.2355 5.8266 10.315 5.8691 10.3395C5.91159 10.3639 5.96962 10.3333 5.98021 10.2609C6.03472 10.043 6.00726 9.80862 6.08509 9.59667C6.14003 9.53102 6.21581 9.58609 6.24987 9.64646C6.35894 9.77309 6.43561 9.93138 6.56765 10.0357C6.68788 10.092 6.79421 10.1771 6.84962 10.3008C6.84888 10.3963 7.12085 10.411 7.03958 10.3048C6.9616 10.2015 7.01305 10.0981 7.09203 10.0294C7.13434 10.0399 7.12183 9.9641 7.08867 9.99407C7.03556 9.98154 7.03217 9.88435 7.10598 9.93055C7.2303 9.97068 7.09629 9.84057 7.05135 9.83658C6.94623 9.77142 6.82546 9.69646 6.77377 9.5832C6.91061 9.5846 7.05267 9.6584 7.1925 9.61262C7.30459 9.55504 7.41827 9.61743 7.45742 9.71623C7.54406 9.7024 7.50713 9.61551 7.45742 9.58657C7.52079 9.56042 7.56462 9.5062 7.48778 9.45837C7.4472 9.40541 7.5422 9.31507 7.42543 9.31884C7.42924 9.22964 7.39412 9.14801 7.29689 9.11719C7.19949 9.03471 6.91366 9.23871 6.92195 9.05279C6.89315 8.9516 7.03806 9.03927 7.07855 8.9888C7.12039 8.88213 6.87917 8.89254 6.95877 8.80983C7.01075 8.77636 7.2547 8.72828 7.06339 8.69247C6.96791 8.71871 6.88597 8.69928 6.81083 8.65203C6.74234 8.76658 6.54678 8.58982 6.58162 8.79348C6.55487 8.87021 6.38007 9.0696 6.33277 8.91685C6.373 8.79712 6.5801 8.75797 6.51588 8.59655C6.50602 8.49578 6.42248 8.61407 6.38312 8.60656C6.36319 8.54383 6.4434 8.4699 6.4993 8.45501C6.61024 8.54033 6.6136 8.34736 6.7191 8.36306C6.79612 8.34595 6.69422 8.31291 6.67274 8.29841C6.69385 8.24203 6.8121 8.21322 6.69615 8.16425C6.59384 8.08834 6.51801 8.23981 6.43363 8.24789C6.35263 8.15646 6.50716 8.1125 6.54981 8.06435C6.5521 8.02846 6.45971 8.05352 6.48751 8.02226C6.51165 7.97909 6.67526 7.97588 6.59864 7.91112C6.48326 7.87151 6.33437 7.88139 6.22366 7.9327C6.15391 7.95528 6.13339 8.11299 6.07327 8.10645C6.04501 8.03625 6.08248 7.89775 5.98571 7.87744L5.98575 7.87747ZM6.53133 9.41821C6.61925 9.40332 6.53319 9.55173 6.49091 9.54955C6.49465 9.49623 6.36375 9.50136 6.44496 9.4549C6.4713 9.43789 6.50065 9.42492 6.53133 9.41821Z" fill="#008000"/>
<path d="M18.0283 16.3094L18.1886 16.8078L18.6782 16.6224L18.3885 17.0584L18.8387 17.3256L18.3171 17.371L18.3889 17.8896L18.0283 17.5101L17.6676 17.8896L17.7395 17.371L17.2179 17.3256L17.6681 17.0584L17.3784 16.6224L17.868 16.8078L18.0283 16.3094Z" fill="#FFE000"/>
<path d="M15.119 11.703L15.2793 12.2014L15.7689 12.016L15.4792 12.452L15.9294 12.7192L15.4078 12.7646L15.4796 13.2832L15.119 12.9037L14.7583 13.2832L14.8301 12.7646L14.3086 12.7192L14.7588 12.452L14.4691 12.016L14.9587 12.2014L15.119 11.703Z" fill="#FFE000"/>
<path d="M18.0283 8.55127L18.1886 9.04965L18.6782 8.86424L18.3885 9.30029L18.8387 9.56747L18.3171 9.61284L18.3889 10.1314L18.0283 9.75193L17.6676 10.1314L17.7395 9.61284L17.2179 9.56747L17.6681 9.30029L17.3784 8.86424L17.868 9.04965L18.0283 8.55127Z" fill="#FFE000"/>
<path d="M20.6143 10.9272L20.7746 11.4256L21.2642 11.2402L20.9745 11.6762L21.4247 11.9434L20.9032 11.9888L20.975 12.5073L20.6143 12.1279L20.2537 12.5073L20.3255 11.9888L19.8039 11.9434L20.2542 11.6762L19.9645 11.2402L20.454 11.4256L20.6143 10.9272Z" fill="#FFE000"/>
<path d="M19.192 13.2616L19.3187 13.5721L19.6532 13.5966L19.397 13.813L19.477 14.1387L19.192 13.962L18.907 14.1387L18.9871 13.813L18.7309 13.5966L19.0653 13.5721L19.192 13.2616Z" fill="#FFE000"/>
</g>
<defs>
<clipPath id="clip0_1692_54061">
<rect x="2.12109" y="6.06787" width="19.9495" height="13.2997" rx="1" fill="white"/>
</clipPath>
</defs>
</svg>
