<svg width="25" height="25" viewBox="0 0 25 25" fill="none" xmlns="http://www.w3.org/2000/svg">
<g clip-path="url(#clip0_1692_53999)">
<path d="M2.14258 6.06787H24.3087V19.3675H2.14258V6.06787Z" fill="white"/>
<path d="M2.14258 6.06787H24.3087V9.39279H2.14258V6.06787Z" fill="#FFD100"/>
<path d="M2.14258 12.7178H24.3087V19.3676H2.14258V12.7178Z" fill="#EF3340"/>
<path d="M2.14258 16.0425H24.3087V19.3674H2.14258V16.0425Z" fill="#003DA5"/>
<path d="M13.2256 12.7177L2.14258 19.3675V6.06787L13.2256 12.7177Z" fill="#009639"/>
<path d="M6.76687 9.69132C6.02677 9.78031 5.34493 10.1374 4.85029 10.6951C4.35565 11.2528 4.0825 11.9724 4.0825 12.7178C4.0825 13.4632 4.35565 14.1828 4.85029 14.7405C5.34493 15.2982 6.02677 15.6553 6.76687 15.7443C6.30043 15.8736 5.81042 15.8934 5.33508 15.802C4.85974 15.7107 4.41195 15.5107 4.02666 15.2177C3.64138 14.9247 3.32903 14.5466 3.11401 14.113C2.89899 13.6793 2.78711 13.2018 2.78711 12.7178C2.78711 12.2338 2.89899 11.7563 3.11401 11.3226C3.32903 10.889 3.64138 10.5109 4.02666 10.2179C4.41195 9.9249 4.85974 9.72492 5.33508 9.63358C5.81042 9.54224 6.30043 9.562 6.76687 9.69132Z" fill="white"/>
<path d="M6.91391 10.4857L6.76872 10.039L6.62367 10.4857H6.15389L6.53399 10.7619L6.38889 11.2088L6.7689 10.9327L7.14892 11.2088L7.00371 10.762L7.38392 10.4857H6.91391Z" fill="white"/>
<path d="M6.91391 11.8772L6.76872 11.4305L6.62367 11.8772H6.15389L6.53399 12.1534L6.38889 12.6003L6.7689 12.3241L7.14892 12.6003L7.00371 12.1535L7.38392 11.8772H6.91391Z" fill="white"/>
<path d="M6.91391 13.2687L6.76872 12.822L6.62367 13.2687H6.15389L6.53399 13.5449L6.38889 13.9918L6.7689 13.7156L7.14892 13.9918L7.00371 13.545L7.38392 13.2687H6.91391Z" fill="white"/>
<path d="M6.91391 14.6602L6.76872 14.2135L6.62367 14.6602H6.15389L6.53399 14.9364L6.38889 15.3833L6.7689 15.1071L7.14892 15.3833L7.00371 14.9365L7.38392 14.6602H6.91391Z" fill="white"/>
</g>
<defs>
<clipPath id="clip0_1692_53999">
<rect x="2.14258" y="6.06787" width="19.9495" height="13.2997" rx="1" fill="white"/>
</clipPath>
</defs>
</svg>
