<svg width="25" height="25" viewBox="0 0 25 25" fill="none" xmlns="http://www.w3.org/2000/svg">
<g clip-path="url(#clip0_1692_54086)">
<path d="M22.139 6.06738H2.18945V19.3671H22.139V6.06738Z" fill="white"/>
<path d="M12.4637 17.3006C12.4607 17.2993 12.4581 17.2975 12.456 17.2951L12.4532 17.2925C12.4409 17.281 12.4292 17.2689 12.4181 17.2561C12.3886 17.2226 12.349 17.1735 12.3142 17.1301C12.2451 17.044 12.188 16.9698 12.1773 16.9559L12.1597 16.933L11.9875 16.8799L11.8618 16.8213L11.929 16.7458L12.1597 16.8446L12.3319 16.8799L12.6503 17.1141L12.6501 17.1143C12.6494 17.1148 12.6038 17.1528 12.5584 17.1941C12.5381 17.2125 12.5126 17.2362 12.4946 17.2558C12.4872 17.2638 12.4803 17.2722 12.474 17.2811C12.4702 17.2874 12.4668 17.2939 12.4637 17.3006V17.3006ZM11.2812 16.9454C11.1258 16.944 10.9736 16.9014 10.8401 16.822H10.8399V16.8218C10.8562 16.7947 10.8779 16.7713 10.9038 16.7531C10.9468 16.7215 11.0244 16.6838 11.1498 16.6833H11.1524C11.301 16.6833 11.4827 16.7338 11.6928 16.8334C11.5683 16.9074 11.426 16.9461 11.2812 16.9454L11.2814 16.9457L11.2812 16.9454ZM10.63 16.8011C10.6035 16.8016 10.578 16.7909 10.5598 16.7716C10.5441 16.7533 10.5332 16.7313 10.5283 16.7077C10.5212 16.6771 10.5186 16.6456 10.5205 16.6142C10.5315 16.6095 10.5432 16.6068 10.5551 16.6064H10.5576C10.6133 16.6064 10.6572 16.6547 10.676 16.7025C10.6862 16.7237 10.6884 16.7479 10.682 16.7705C10.6726 16.7903 10.652 16.8024 10.6302 16.8009L10.63 16.8011ZM11.7758 16.6683C11.3909 16.6134 11.2278 16.4742 11.1587 16.3672C11.115 16.3022 11.0944 16.2245 11.1003 16.1464V16.1461H11.1006C11.1199 16.1416 11.1397 16.1394 11.1595 16.1396C11.2619 16.1396 11.5238 16.1911 11.7758 16.6681L11.776 16.6684L11.7756 16.6682L11.7758 16.6683ZM10.987 16.5921C10.8226 16.5921 10.6974 16.5637 10.6149 16.5078C10.5799 16.4854 10.5516 16.4537 10.5332 16.4164C10.5265 16.4022 10.5221 16.3871 10.52 16.3715C10.5748 16.3493 10.6331 16.3369 10.6922 16.3349C10.7007 16.3345 10.7092 16.3343 10.7182 16.3343C10.8453 16.3343 11.0385 16.3757 11.2424 16.5733L11.2426 16.5735H11.2424C11.1577 16.5851 11.0723 16.5913 10.9868 16.5921L10.987 16.5921ZM10.1909 16.5615C10.0175 16.5615 9.77935 16.5085 9.63081 16.36L9.63066 16.3598H9.6311C9.74401 16.3332 9.85929 16.3178 9.97523 16.3141C9.98605 16.3139 9.99696 16.3137 10.0079 16.3137C10.1705 16.3137 10.2949 16.3452 10.3778 16.4074C10.4009 16.4213 10.4181 16.4433 10.426 16.4691C10.4279 16.4881 10.4188 16.5065 10.4026 16.5167C10.3653 16.5449 10.2986 16.5599 10.2043 16.5614L10.191 16.5619L10.1909 16.5615ZM9.6291 16.2733C9.60784 16.2733 9.58767 16.2638 9.57415 16.2474C9.56164 16.231 9.55322 16.2118 9.54958 16.1915C9.54393 16.1647 9.54176 16.1373 9.54313 16.11V16.1096C9.5516 16.1057 9.5608 16.1036 9.57011 16.1035C9.59186 16.1043 9.61243 16.1135 9.62751 16.1292C9.64429 16.1457 9.65708 16.1657 9.66493 16.1878C9.67278 16.2063 9.6742 16.2269 9.66892 16.2463C9.66245 16.2626 9.6466 16.2733 9.62902 16.2731L9.6291 16.2733ZM10.9267 16.244C10.9001 16.2445 10.8746 16.2338 10.8564 16.2144C10.8407 16.1962 10.8298 16.1742 10.8249 16.1506C10.8178 16.12 10.8151 16.0885 10.8171 16.0572C10.828 16.0524 10.8398 16.0497 10.8517 16.0493H10.8542C10.9099 16.0493 10.9537 16.0976 10.9725 16.1455C10.9828 16.1666 10.985 16.1908 10.9786 16.2134C10.9692 16.2332 10.9486 16.2453 10.9267 16.2438L10.9267 16.244ZM10.2946 16.2178C9.94575 16.2056 9.76478 16.1064 9.67424 16.0253C9.63553 15.9914 9.60363 15.9504 9.58024 15.9046C9.57153 15.8874 9.56479 15.8692 9.56011 15.8505L9.56058 15.8503C9.58851 15.8419 9.61753 15.8375 9.64671 15.8375H9.65487C9.77252 15.8375 10.012 15.8869 10.2945 16.2178V16.218L10.2946 16.2178ZM10.6735 16.1826C10.3928 16.1398 10.2338 16.0194 10.1498 15.9258C10.098 15.8701 10.0586 15.8041 10.0342 15.732C10.0626 15.7255 10.0916 15.722 10.1207 15.7216C10.1245 15.7216 10.1284 15.7215 10.1323 15.7215C10.1363 15.7215 10.1404 15.7215 10.1446 15.7216C10.2858 15.7247 10.5422 15.7887 10.6734 16.1824H10.6737L10.6735 16.1826ZM9.2325 16.0478C9.14315 16.0481 9.0541 16.0374 8.96735 16.016C8.82039 15.9793 8.75734 15.9232 8.73034 15.8826C8.7187 15.8657 8.71092 15.8466 8.70748 15.8264C8.70626 15.8185 8.70602 15.8105 8.7068 15.8026L8.70748 15.8024C8.78339 15.7835 8.86125 15.7737 8.93946 15.7729C8.94476 15.7729 8.9501 15.7728 8.95554 15.7728C9.01927 15.7727 9.08288 15.7788 9.14539 15.7912C9.28721 15.8208 9.41358 15.9007 9.50128 16.016V16.0162H9.50099C9.41307 16.0377 9.32281 16.0483 9.2323 16.0477L9.2325 16.0478ZM9.88405 15.811C9.8576 15.8117 9.83206 15.8013 9.81373 15.7822C9.79797 15.7637 9.78713 15.7415 9.78225 15.7177C9.77513 15.6874 9.77252 15.6561 9.77447 15.625C9.78542 15.6202 9.79717 15.6176 9.8091 15.6171H9.81158C9.86714 15.6171 9.91108 15.6654 9.92994 15.7133C9.93999 15.7343 9.94189 15.7582 9.93533 15.7805C9.92633 15.8005 9.90591 15.8126 9.88412 15.8111L9.88405 15.811ZM9.39411 15.7439C9.30082 15.7175 9.21159 15.6785 9.12881 15.628C9.0059 15.5524 8.85555 15.4185 8.83722 15.2106H8.83753C8.84686 15.2086 8.85633 15.2074 8.86586 15.2072C8.86808 15.2072 8.87067 15.207 8.87327 15.207C8.90998 15.207 8.98513 15.2174 9.07605 15.2865C9.19177 15.3747 9.29863 15.5286 9.39418 15.7443L9.39411 15.7439ZM9.71401 15.7321C9.63788 15.6975 9.56719 15.6521 9.50409 15.5972C9.34104 15.4569 9.21396 15.2795 9.13351 15.08C9.1536 15.0706 9.17532 15.0652 9.19749 15.0641C9.19971 15.0639 9.20192 15.0639 9.20427 15.0639C9.2076 15.0639 9.21104 15.0639 9.21454 15.0641C9.26799 15.0656 9.3494 15.0878 9.43965 15.1852C9.54331 15.2971 9.63584 15.4809 9.71455 15.7317L9.71477 15.7324L9.7141 15.7322L9.71401 15.7321ZM8.8851 15.7079C8.77823 15.7079 8.74165 15.65 8.73087 15.625C8.72014 15.599 8.71593 15.5708 8.71859 15.5428V15.5424C8.73599 15.5381 8.75386 15.5357 8.7718 15.5354H8.77545C8.84533 15.5337 8.91186 15.5653 8.95467 15.6206C8.96032 15.629 8.97766 15.6581 8.96332 15.6809C8.95179 15.6989 8.92563 15.708 8.88506 15.708L8.8851 15.7079ZM8.64834 15.4093C8.56556 15.4095 8.48291 15.4024 8.40135 15.3882C8.30615 15.3709 8.25219 15.2899 8.22371 15.2251C8.20455 15.1808 8.19114 15.1342 8.1838 15.0865H8.18407C8.47852 15.0951 8.61759 15.1812 8.68239 15.2518C8.72254 15.2936 8.74757 15.3476 8.75346 15.4052H8.75326C8.75282 15.4052 8.71136 15.4092 8.64818 15.4092L8.64834 15.4093ZM8.95494 15.1029C8.95454 15.1024 8.92091 15.0608 8.8877 15.0092C8.85283 14.955 8.82057 14.8983 8.82057 14.8521C8.82057 14.8074 8.81006 14.7132 8.80379 14.6611C8.79585 14.5949 8.78782 14.5382 8.78716 14.5334H8.78745C8.79492 14.5362 8.97163 14.6025 8.97163 14.7682C8.97163 14.934 8.95527 15.1011 8.95511 15.1027V15.103H8.95489L8.95494 15.1029ZM8.72593 15.0872C8.72407 15.0872 8.72223 15.087 8.72039 15.0867C8.66816 15.078 8.57629 15.0381 8.47491 14.9799C8.36224 14.9153 8.27075 14.8461 8.2173 14.785C8.16853 14.7293 8.13971 14.6419 8.13128 14.5251C8.12756 14.4722 8.12822 14.419 8.13321 14.3663C8.14263 14.3632 8.15248 14.3617 8.16236 14.3618C8.20147 14.3625 8.24321 14.3801 8.29957 14.4189C8.35093 14.4554 8.39906 14.4963 8.44345 14.5411C8.4998 14.5971 8.55307 14.6561 8.60307 14.7178L8.60378 14.7187C8.60965 14.7293 8.66002 14.8201 8.69926 14.9084C8.71888 14.9491 8.73393 14.9919 8.74413 15.0358C8.74799 15.0487 8.74799 15.0624 8.74413 15.0753C8.74249 15.0795 8.73947 15.083 8.73559 15.0853C8.73251 15.0866 8.72919 15.0873 8.72584 15.0872L8.72593 15.0872Z" fill="#4E5B31"/>
<path d="M18.3067 8.37129L18.2545 8.39208L18.234 8.40024L18.1708 8.39676L18.1115 8.4252L18.0065 8.497L18.0018 8.50032L17.9627 8.51054L17.9263 8.49485L17.9056 8.50425L17.8985 8.5468L17.8788 8.57737L17.8546 8.59437L17.7708 8.60295L17.7001 8.63941L17.6081 8.61479L17.5654 8.63152L17.4745 8.71336L17.428 8.73535L17.4118 8.73442L17.3502 8.73125L17.3242 8.73976L17.2854 8.77729L17.2119 8.78301L17.189 8.79886L17.1531 8.87112L17.1143 8.91119L17.0921 8.91589L17.068 8.90703L17.0499 8.91022L17.0417 8.95646L17.0241 8.97583L16.975 8.99276L16.9357 9.0255L16.9012 9.04324L16.855 9.04208H16.8444L16.7983 9.06749L16.7119 9.07507L16.6759 9.1094L16.668 9.11674L16.6512 9.12689L16.6237 9.14329L16.617 9.14737L16.5838 9.14145L16.545 9.15682L16.5293 9.13268L16.5024 9.14879L16.467 9.15032L16.4226 9.13062L16.3889 9.11559L16.3642 9.11916L16.3557 9.16216L16.3548 9.16672L16.3289 9.20124L16.2804 9.23056L16.2738 9.23914L16.2187 9.31025L16.114 9.42033L16.0255 9.46528L15.9338 9.49319L15.8695 9.54594L15.701 9.62944L15.4352 9.76184L15.3808 9.77926L15.3028 9.79172L15.1636 9.84297L15.0408 9.88001L15.034 9.88209L15.0096 9.88945L14.8365 9.94183L14.7559 9.93332L14.7082 9.95065L14.584 9.93686L14.4975 9.93857L14.4428 9.94994L14.34 9.99924L14.1666 10.0826L14.1092 10.1351L14.02 10.1816L13.9155 10.2147L13.9157 10.1708L13.9151 10.1689L13.8788 10.1804L13.8526 10.1887L13.7678 10.2017H13.7207L13.6914 10.1932L13.687 10.1948L13.5137 10.2517L13.3204 10.2704L13.2237 10.3014L13.1514 10.3003L13.1063 10.3137L13.0176 10.3245L12.9859 10.3161L12.9788 10.3141L12.7183 10.3254L12.5993 10.312L12.5424 10.3249L12.4471 10.2929L12.3082 10.2767L12.2757 10.267L12.2025 10.2453L12.1695 10.2644L12.1448 10.267L12.0856 10.2456L12.0644 10.245L12.0156 10.2628L11.9875 10.2556L11.9614 10.2348L11.9002 10.2257L11.8629 10.1943L11.6546 10.2219L11.598 10.2053L11.4084 10.1501L11.3783 10.1516L11.3406 10.1798L11.2841 10.2004L11.2351 10.2131L11.1683 10.2153L11.0907 10.195L11.0108 10.1562L10.9812 10.1492L10.9153 10.1559L10.8951 10.1577L10.774 10.0927L10.6179 9.99516L10.512 9.94418L10.4722 9.93773L10.4669 9.95664L10.4866 10.0187L10.4932 10.0802L10.4912 10.137L10.4901 10.1722L10.5 10.2038L10.5383 10.2461L10.5542 10.2887L10.5659 10.4058L10.5657 10.5247L10.5471 10.7142L10.5409 10.743L10.5187 10.8412L10.4984 10.9314L10.4198 11.1716L10.3982 11.2013L10.3452 11.2375L10.2251 11.3192L10.1367 11.3702L10.1087 11.3818L10.0369 11.3872L9.99216 11.385L9.93646 11.3549L9.88177 11.3408L9.81013 11.2893L9.73033 11.2728L9.64298 11.2223L9.62023 11.1949L9.57267 11.1905L9.5067 11.1707V11.1706L9.48247 11.1634L9.46574 11.1585L9.38151 11.1563L9.30304 11.12L9.26172 11.1101L9.20526 11.1072L9.14617 11.1347L9.11622 11.1486L9.07838 11.1336L9.05101 11.1353L9.01998 11.1822L9.01616 11.1893L8.9948 11.2006L8.9682 11.2003L8.94738 11.1997L8.92486 11.2096L8.89454 11.2227L8.86776 11.2344L8.85468 11.24L8.85446 11.2398L8.84642 11.2414L8.83212 11.2439L8.81438 11.2473L8.78313 11.229L8.76651 11.2192L8.73864 11.2136L8.72364 11.2244L8.72069 11.2754L8.70699 11.3059L8.66352 11.3444L8.61934 11.3833L8.58856 11.4286L8.50707 11.6146L8.45609 11.6897L8.44024 11.7071L8.38665 11.7661L8.3393 11.8028L8.2302 11.8874L8.12692 11.926L8.03797 11.9442L7.99473 11.9443L7.91271 11.9334L7.83905 11.9108L7.75815 11.8602L7.66948 11.7889L7.54105 11.6621L7.52288 11.6511L7.51909 11.6486L7.47863 11.6227L7.44862 11.6235L7.43687 11.6429L7.43044 11.6709L7.42501 11.6957L7.41029 11.8368L7.41138 11.845L7.41912 11.9031L7.51665 12.0395L7.54675 12.1119L7.55169 12.1201L7.57182 12.1539L7.58714 12.1797L7.58866 12.1823L7.62191 12.2818L7.59848 12.338L7.61032 12.3757L7.58071 12.3987L7.57528 12.4311L7.66285 12.5409L7.68196 12.5894L7.66062 12.6565L7.62657 12.6935L7.61706 12.7037L7.62185 12.732L7.66215 12.7683L7.73062 12.8292L7.76712 12.9198L7.7949 12.9442L7.82717 12.9373L7.84513 12.951L7.87235 12.9505L7.89912 12.9773L7.91646 12.9857L7.94385 12.9994L7.96551 13.0276L7.9703 13.1143L8.01069 13.222L8.01131 13.2804L8.01153 13.2887L8.03666 13.3319L8.04456 13.366L8.03126 13.4562L8.06329 13.4851L8.09802 13.478L8.12045 13.4816L8.15649 13.5116L8.20014 13.5781L8.24283 13.5718L8.26992 13.5849L8.4007 13.7031L8.43038 13.7181L8.43202 13.719L8.45336 13.7297L8.47996 13.7565L8.5211 13.7292L8.52567 13.7287L8.5704 13.7248L8.59004 13.7381L8.62772 13.7636L8.67724 13.7629L8.78462 13.7958L8.83159 13.8079L8.92604 13.8666L8.96618 13.8914L8.98994 13.9107L9.02151 13.9364L9.08457 13.9636L9.13865 13.9765L9.16796 13.9835L9.19012 13.992L9.19068 13.9906H9.19099L9.19046 13.992L9.30758 14.0368L9.37102 14.0517L9.42972 14.0733L9.47243 14.0888L9.50377 14.0893L9.54811 14.052L9.59104 14.0495L9.62671 14.0584L9.66151 14.0526L9.71659 14.0186L9.72734 14.0027L9.7664 13.9841L9.89815 13.9677L9.93666 13.9802L10.0355 13.9372L10.1017 13.9556L10.1604 13.9349L10.2885 13.9633L10.3225 13.9873L10.3606 14.0308L10.3652 14.031L10.4076 14.0319L10.3899 14.0614L10.4458 14.12L10.4963 14.1964L10.4997 14.2065L10.5365 14.3143L10.5638 14.3525L10.5829 14.4058L10.5838 14.4406L10.5541 14.4632L10.5492 14.4761L10.5476 14.4809L10.5536 14.4954L10.5648 14.4893L10.5861 14.4775L10.6121 14.4735L10.6579 14.4783L10.6882 14.4815L10.7359 14.4578L10.7675 14.4421L10.8184 14.464L10.8742 14.4633L10.8977 14.4738L10.9642 14.5039L10.9981 14.5071L11.0106 14.4989L11.0186 14.4799L11.0145 14.4577L10.9889 14.4285L10.9328 14.3634L10.9099 14.3299L10.8924 14.2814L10.887 14.2194L10.8831 14.1777L10.8901 14.1228L10.9052 14.1032L10.9162 14.0595H10.9164L10.9193 14.0481L10.9505 14.0068L11.033 13.9537L11.1217 13.8743L11.1918 13.8281L11.264 13.7968L11.266 13.7879L11.274 13.7912L11.4578 13.7287L11.4608 13.7283L11.5427 13.7141L12.0951 13.753L12.1155 13.7468V13.7467L12.1339 13.695L12.1438 13.6854L12.1505 13.6792L12.2112 13.6525L12.2396 13.6484L12.3185 13.6679L12.3507 13.6758L12.4024 13.6469L12.4391 13.6475L12.5148 13.6061L12.5616 13.6073L12.5793 13.6002L12.6705 13.5347L12.7583 13.5095L12.7811 13.4974L12.7892 13.4929L12.8792 13.4454L12.9363 13.4015L12.9857 13.3753L13.0397 13.3613L13.1811 13.3514L13.2096 13.304L13.2704 13.2959L13.3071 13.2544L13.3492 13.2373L13.3794 13.1939L13.4046 13.1576L13.4399 13.1371L13.5529 13.1301L13.6869 13.1467L13.7047 13.1359L13.7349 13.0278L13.7666 13.0076L13.852 12.8832L13.8523 12.8378V12.8L13.8663 12.7461L13.8568 12.6487L13.8681 12.5502L13.9212 12.4249L13.9679 12.3744L14.0433 12.3234L14.0816 12.3068L14.1359 12.2976V12.2976L14.1439 12.2963L14.1577 12.2939L14.3446 12.2914C14.3472 12.2894 14.4126 12.2904 14.4126 12.2904L14.4749 12.2896L14.6327 12.3176L14.6439 12.3195L14.6971 12.3368L14.7586 12.3846L14.8237 12.4482L14.8359 12.4601L14.878 12.4778L14.8908 12.4834L14.9256 12.4778L14.9752 12.452L15.0126 12.4204L15.0636 12.3925L15.0648 12.3907L15.0935 12.3475L15.0944 12.3467L15.095 12.3468V12.3466H15.0945L15.1058 12.3294L15.2044 12.291L15.3203 12.2843L15.3334 12.2773L15.3406 12.2734L15.3713 12.2374L15.4 12.2372L15.4695 12.2623L15.5182 12.2526L15.557 12.2681L15.5872 12.2646L15.644 12.2579L15.7051 12.3009L15.7406 12.3053L15.8661 12.3787L15.8726 12.3797L15.8759 12.3803L15.8831 12.3815L15.898 12.3771L15.9202 12.3707L15.9231 12.3698L15.9259 12.3737L15.9401 12.3938L15.9597 12.3966L15.9828 12.3657L15.9736 12.3517L15.9701 12.3466L15.9253 12.3375L15.8851 12.2688L15.9234 12.2276L15.8633 12.1538L15.8534 12.1416L15.85 12.1364L15.8292 12.1049L15.724 11.9445L15.587 11.8351L15.539 11.7967L15.5387 11.7965L15.5219 11.7832L15.4487 11.7088L15.3964 11.6394L15.3896 11.6245L15.3788 11.6009L15.3475 11.5327L15.2929 11.4906L15.2484 11.442L15.2462 11.4392L15.1545 11.3144L15.1394 11.2935L15.1177 11.281L15.0719 11.2807L15.0675 11.2763L15.0649 11.2736L15.0665 11.272L15.0884 11.2501L15.1129 11.244L15.1235 11.2198L15.0767 11.0846L15.0764 11.0799L15.0729 11.0367L15.111 10.8404L15.1159 10.8165L15.1808 10.6844L15.221 10.6515L15.2649 10.5652L15.3026 10.51L15.3386 10.475L15.3449 10.4712L15.4099 10.4319L15.4646 10.4242L15.5166 10.4168L15.6075 10.4449L15.694 10.4432L15.7108 10.4414L15.7501 10.437L15.8146 10.4166L15.845 10.3978L15.8608 10.3736L15.8938 10.2631L15.9044 10.2279L15.9247 10.1897L16.0423 10.0543L16.1312 9.97204L16.3312 9.82546L16.429 9.76696L16.479 9.7371L16.9251 9.5388L17.041 9.42132L17.1014 9.36019L17.2083 9.28848L17.3333 9.23726L17.4409 9.15209L17.4644 9.12253L17.494 9.02721L17.5187 9.02125L17.5409 8.97306L17.5472 8.95936L17.635 8.89747L17.6449 8.89253L17.986 8.72163L18.0356 8.72843L18.0622 8.68869L18.1614 8.67204L18.1797 8.66894L18.2041 8.65673L18.2249 8.62126V8.61426L18.2278 8.51954L18.249 8.49394L18.2605 8.43152L18.2714 8.41711L18.2828 8.40213L18.3109 8.38238L18.306 8.37061L18.3067 8.37129Z" fill="#D57800"/>
</g>
<defs>
<clipPath id="clip0_1692_54086">
<rect x="2.1875" y="6.06738" width="19.9534" height="13.3001" rx="1" fill="white"/>
</clipPath>
</defs>
</svg>
