<svg width="25" height="25" viewBox="0 0 25 25" fill="none" xmlns="http://www.w3.org/2000/svg">
<g clip-path="url(#clip0_1692_54153)">
<path d="M2.04883 5.77051H21.9983V19.0693H2.04883V5.77051Z" fill="black"/>
<path d="M2.04883 7.98682H21.9983V11.3115H2.04883V7.98682ZM2.04883 14.6362H21.9983V19.0692H2.04883V14.6362Z" fill="#FCDC04"/>
<path d="M2.04883 10.2031H21.9983V12.4196H2.04883V10.2031ZM2.04883 16.8525H21.9983V19.069H2.04883V16.8525Z" fill="#D90000"/>
<path d="M12.0278 14.493C13.1725 14.493 14.1005 13.5651 14.1005 12.4203C14.1005 11.2756 13.1725 10.3477 12.0278 10.3477C10.8831 10.3477 9.95508 11.2756 9.95508 12.4203C9.95508 13.5651 10.8831 14.493 12.0278 14.493Z" fill="white"/>
<path d="M11.6546 10.8334L11.5195 10.5846C11.5716 10.5325 11.6593 10.4922 11.7991 10.4922C11.7991 10.5017 11.7849 10.7647 11.7849 10.7647L11.6546 10.8334Z" fill="#D90000"/>
<path fill-rule="evenodd" clip-rule="evenodd" d="M11.5318 10.5861L11.6576 10.8178L11.7726 10.7572L11.7745 10.7223C11.7758 10.6975 11.7776 10.6643 11.7793 10.6308C11.7811 10.5974 11.7829 10.5636 11.7842 10.5376C11.7849 10.5246 11.7855 10.5136 11.7858 10.5055C11.7859 10.5046 11.7859 10.5037 11.786 10.5028C11.6604 10.5049 11.5806 10.5407 11.5318 10.5861ZM11.7834 10.7641C11.7945 10.7647 11.7945 10.7647 11.7945 10.7647L11.7967 10.7235C11.798 10.6986 11.7998 10.6655 11.8016 10.632C11.8051 10.5654 11.8087 10.4967 11.8087 10.4916V10.4805H11.7976C11.6556 10.4805 11.5648 10.5214 11.5101 10.5761L11.5042 10.582L11.6485 10.8478L11.7941 10.771L11.7945 10.7647L11.7834 10.7641Z" fill="black"/>
<path d="M11.7872 10.7674L11.8061 10.4926C11.8061 10.4926 12.0857 10.476 12.2374 10.6584C12.2398 10.6561 12.0881 10.8717 12.0881 10.8717L11.7872 10.7674Z" fill="#FCDC04"/>
<path fill-rule="evenodd" clip-rule="evenodd" d="M11.8165 10.5028L11.7988 10.7591L12.0837 10.8578L12.1026 10.8311C12.1168 10.8109 12.1356 10.784 12.1544 10.7572C12.1732 10.7304 12.192 10.7037 12.2058 10.6838C12.2128 10.6739 12.2185 10.6657 12.2224 10.66C12.2227 10.6595 12.223 10.6591 12.2233 10.6586C12.1501 10.5745 12.048 10.5354 11.9625 10.5174C11.9188 10.5082 11.8797 10.5047 11.8516 10.5034C11.8375 10.5027 11.8262 10.5027 11.8185 10.5028C11.8178 10.5028 11.8171 10.5028 11.8165 10.5028ZM12.088 10.8711L12.0971 10.8775L12.0923 10.8844L11.7754 10.7746L11.7956 10.4815L11.8054 10.4809L11.806 10.492C11.8054 10.4809 11.8054 10.4809 11.8054 10.4809L11.8054 10.4809L11.8055 10.4809L11.8057 10.4809L11.8063 10.4808C11.8069 10.4808 11.8077 10.4808 11.8088 10.4807C11.811 10.4806 11.8142 10.4806 11.8182 10.4805C11.8264 10.4804 11.8381 10.4805 11.8526 10.4811C11.8816 10.4825 11.922 10.4861 11.9671 10.4956C12.0572 10.5145 12.1678 10.5568 12.2459 10.6507L12.2451 10.6514C12.247 10.6538 12.2483 10.6566 12.2485 10.658C12.2484 10.6591 12.2481 10.6608 12.2479 10.6613C12.2478 10.6617 12.2476 10.6622 12.2475 10.6624C12.2473 10.6628 12.2471 10.6631 12.2471 10.6632C12.2468 10.6637 12.2465 10.6641 12.2465 10.6643C12.2462 10.6647 12.2457 10.6654 12.2452 10.6661C12.2442 10.6676 12.2427 10.6698 12.2407 10.6727C12.2368 10.6784 12.2311 10.6866 12.2241 10.6966C12.2102 10.7165 12.1915 10.7432 12.1727 10.77C12.1539 10.7968 12.135 10.8237 12.1208 10.8439L12.0971 10.8775C12.0971 10.8775 12.0971 10.8775 12.088 10.8711Z" fill="black"/>
<path d="M12.088 10.8671L12.2254 10.6538C12.3178 10.751 12.3557 10.8197 12.3699 10.924C12.3723 10.9263 12.1519 10.9785 12.1519 10.9761C12.1519 10.9737 12.0903 10.8694 12.088 10.8671Z" fill="#D90000"/>
<path fill-rule="evenodd" clip-rule="evenodd" d="M12.2262 10.6367L12.236 10.647C12.3293 10.7451 12.3687 10.8158 12.3834 10.9228C12.3838 10.925 12.3835 10.927 12.383 10.9285C12.382 10.9313 12.3802 10.9329 12.3797 10.9333C12.3785 10.9344 12.3772 10.935 12.3769 10.9352L12.3769 10.9352C12.3759 10.9356 12.3748 10.936 12.374 10.9363C12.3722 10.9369 12.3697 10.9377 12.3668 10.9385C12.3608 10.9402 12.3523 10.9425 12.3421 10.9451C12.3217 10.9503 12.2943 10.9569 12.2669 10.9635C12.2395 10.97 12.2119 10.9764 12.1912 10.981C12.1809 10.9833 12.1722 10.9851 12.1661 10.9864C12.163 10.987 12.1605 10.9874 12.1586 10.9877C12.1578 10.9879 12.1568 10.988 12.1558 10.9881C12.1555 10.9881 12.1546 10.9882 12.1535 10.9881C12.153 10.988 12.1516 10.9879 12.1499 10.9871C12.1488 10.9866 12.1452 10.9846 12.1438 10.9804C12.1438 10.9804 12.1438 10.9803 12.1438 10.9803C12.1434 10.9796 12.1428 10.9785 12.142 10.977C12.1404 10.974 12.138 10.9698 12.1351 10.9647C12.1293 10.9547 12.1216 10.9414 12.1137 10.9281C12.1059 10.9147 12.098 10.9015 12.0919 10.8913C12.0889 10.8863 12.0863 10.8821 12.0844 10.879C12.0835 10.8775 12.0828 10.8764 12.0822 10.8756C12.0821 10.8754 12.082 10.8753 12.082 10.8752L12.0762 10.8694L12.2262 10.6367ZM12.2295 10.6727L12.1037 10.8679C12.1056 10.871 12.1081 10.8751 12.111 10.8799C12.1171 10.89 12.1251 10.9034 12.1329 10.9168C12.1408 10.9301 12.1486 10.9435 12.1544 10.9537C12.1569 10.958 12.159 10.9617 12.1607 10.9647C12.161 10.9647 12.1614 10.9646 12.1617 10.9645C12.1676 10.9633 12.1761 10.9615 12.1864 10.9592C12.207 10.9546 12.2344 10.9483 12.2617 10.9418C12.2891 10.9353 12.3164 10.9286 12.3366 10.9235C12.3464 10.921 12.3545 10.9188 12.3601 10.9173C12.3459 10.8246 12.3111 10.7604 12.2295 10.6727ZM12.1647 10.9726C12.1648 10.9727 12.1649 10.9729 12.1649 10.9731C12.165 10.9732 12.1656 10.9748 12.1656 10.9769C12.1656 10.9752 12.1652 10.9738 12.1647 10.9726Z" fill="black"/>
<path d="M11.7207 14.3716C11.7207 14.3716 11.9777 14.0769 12.4777 14.1405C12.4022 14.0179 12.1593 14.0321 12.1593 14.0321C12.1593 14.0321 12.0838 13.459 12.1428 13.4307C12.2017 13.4024 12.4517 13.433 12.4517 13.433C12.4847 13.433 12.5413 13.3434 12.4965 13.2868C12.4517 13.2302 12.3197 13.0133 12.3739 12.9708C12.4282 12.9284 12.7229 12.9944 12.7229 12.9944L12.0202 12.0946L11.8905 11.9284C11.8905 11.9284 11.8056 11.5275 11.9754 11.3341C12.096 11.2343 12.1384 11.1295 12.1514 11.0606C12.1605 11.0124 12.1551 10.9818 12.1522 10.9828C12.1239 10.7964 11.8409 10.662 11.6499 10.8342C11.5367 10.971 11.6122 11.0747 11.6122 11.0747C11.6122 11.0747 11.315 11.1549 11.3032 11.2068C11.2914 11.2587 11.6381 11.1974 11.6381 11.1974L11.6051 11.4356C11.6051 11.4356 10.9306 12.0487 11.4471 12.5793C11.451 12.5774 11.46 12.5621 11.4628 12.5572C11.4633 12.5563 11.4636 12.5557 11.4636 12.5557C11.4636 12.5557 11.4653 12.5579 11.4686 12.5618C11.4969 12.5952 11.6398 12.7573 11.7974 12.8169C11.8102 12.8218 11.8232 12.8259 11.8362 12.8293C11.866 12.8599 11.8904 12.8846 11.9103 12.9046C11.9123 12.9066 11.9143 12.9085 11.9162 12.9104C11.9587 12.9528 11.9797 12.972 11.9899 12.9805C12.0022 12.9906 11.9989 12.985 11.9989 12.985C11.9989 12.985 12.0343 13.275 12.0013 13.3316C11.9874 13.3272 11.9336 13.3226 11.8641 13.3191C11.7723 13.3145 11.653 13.3118 11.5615 13.3141C11.4991 13.3157 11.4497 13.3197 11.4306 13.3269C11.3693 13.3458 11.1334 13.334 11.1924 13.7184C11.2372 13.6146 11.2773 13.5227 11.2773 13.5227C11.2773 13.5227 11.2702 13.6618 11.3268 13.7113C11.3213 13.6262 11.3406 13.5571 11.3577 13.5142C11.3699 13.4834 11.3811 13.4661 11.3811 13.4661C11.3811 13.4661 11.3824 13.4849 11.3857 13.5105C11.3919 13.5598 11.405 13.6345 11.4282 13.65C11.4493 13.6641 11.4578 13.5692 11.5027 13.4952C11.5332 13.4451 11.5803 13.4046 11.6593 13.4142C11.7318 13.4229 11.7969 13.4274 11.85 13.4297C11.9405 13.4335 11.9966 13.4307 11.9966 13.4307C11.9966 13.4307 12.0626 13.9849 12.0414 14.0368C11.9954 14.026 11.9287 14.0238 11.8589 14.0285C11.8302 14.0305 11.801 14.0336 11.7725 14.0379C11.657 14.055 11.5529 14.0899 11.5414 14.1358C11.6398 14.13 11.7121 14.1328 11.7598 14.1372C11.8082 14.1416 11.8315 14.1476 11.8315 14.1476C11.8315 14.1476 11.7816 14.1916 11.7461 14.2449C11.7179 14.2871 11.6987 14.3351 11.7207 14.3716Z" fill="black"/>
<path d="M11.9103 12.9046C11.8904 12.8846 11.866 12.8599 11.8362 12.8293C11.8232 12.8259 11.8102 12.8218 11.7974 12.8169L11.8238 12.8374C11.826 12.838 11.8282 12.8387 11.8304 12.8392C11.8349 12.8439 11.8394 12.8484 11.8436 12.8528L11.9103 12.9046Z" fill="black"/>
<path d="M11.9883 12.9862C11.9882 12.9847 11.9885 12.9828 11.9897 12.9807C11.9898 12.9806 11.9898 12.9805 11.9899 12.9805C11.9797 12.972 11.9587 12.9528 11.9162 12.9104L11.9145 12.9243C11.9472 12.9568 11.9663 12.9748 11.9775 12.9845C11.9802 12.9868 11.9825 12.9887 11.9844 12.9903L11.991 12.9853L11.9883 12.9862Z" fill="black"/>
<path d="M11.5615 13.3141C11.653 13.3118 11.7723 13.3145 11.8641 13.3191L11.8655 13.3081C11.8228 13.3059 11.7741 13.3042 11.725 13.3032C11.6739 13.3021 11.6223 13.3018 11.5764 13.3027L11.5615 13.3141Z" fill="black"/>
<path d="M11.3811 13.4661C11.3811 13.4661 11.3699 13.4834 11.3577 13.5142L11.3703 13.5125C11.3715 13.5097 11.3726 13.507 11.3738 13.5045C11.3741 13.5069 11.3744 13.5094 11.3747 13.5119L11.3857 13.5105C11.3824 13.4849 11.3811 13.4661 11.3811 13.4661Z" fill="black"/>
<path d="M11.6593 13.4142C11.5803 13.4046 11.5332 13.4451 11.5027 13.4952L11.517 13.4933C11.5271 13.4781 11.5388 13.4642 11.5526 13.453C11.5784 13.432 11.6121 13.4196 11.658 13.4252C11.7304 13.4339 11.7954 13.4384 11.8486 13.4407L11.85 13.4297C11.7969 13.4274 11.7318 13.4229 11.6593 13.4142Z" fill="black"/>
<path d="M11.7725 14.0379C11.801 14.0336 11.8302 14.0305 11.8589 14.0285L11.8615 14.0172C11.8324 14.0191 11.8028 14.0222 11.7739 14.0264L11.7725 14.0379Z" fill="black"/>
<path d="M11.8315 14.1476C11.8315 14.1476 11.8082 14.1416 11.7598 14.1372L11.7584 14.1482L11.7597 14.1483C11.7807 14.1503 11.7968 14.1525 11.8082 14.1544C11.8055 14.157 11.8025 14.16 11.7993 14.1632C11.785 14.1779 11.7663 14.1983 11.7491 14.2214L11.7461 14.2449C11.7816 14.1916 11.8315 14.1476 11.8315 14.1476Z" fill="black"/>
<path fill-rule="evenodd" clip-rule="evenodd" d="M12.0202 12.0946L11.8905 11.9284C11.8905 11.9284 11.8056 11.5275 11.9754 11.3341C12.096 11.2343 12.1384 11.1295 12.1514 11.0606C12.1605 11.0124 12.1551 10.9818 12.1522 10.9828C12.1239 10.7964 11.8409 10.662 11.6499 10.8342C11.5367 10.971 11.6122 11.0747 11.6122 11.0747C11.6122 11.0747 11.315 11.1549 11.3032 11.2068C11.2914 11.2587 11.6381 11.1974 11.6381 11.1974L11.6051 11.4356C11.6051 11.4356 10.9306 12.0487 11.4471 12.5793C11.451 12.5774 11.46 12.5621 11.4628 12.5572L11.4539 12.5504L11.4619 12.536L11.4722 12.5488L11.4723 12.5489L11.4727 12.5494C11.473 12.5498 11.4735 12.5504 11.4742 12.5512C11.4755 12.5528 11.4776 12.5552 11.4802 12.5582C11.4855 12.5644 11.4932 12.5732 11.5031 12.584C11.5078 12.5891 11.513 12.5947 11.5186 12.6006L11.4686 12.5618C11.4969 12.5952 11.6398 12.7573 11.7974 12.8169L11.762 12.7895C11.7873 12.8018 11.8131 12.8119 11.839 12.8186L11.842 12.8194L11.8441 12.8216C11.8738 12.8521 11.8981 12.8767 11.918 12.8965L11.9164 12.9092L11.9103 12.9046L11.8436 12.8528C11.8394 12.8484 11.8349 12.8439 11.8304 12.8392C11.8282 12.8387 11.826 12.838 11.8238 12.8374L11.8436 12.8528C11.8724 12.8822 11.8957 12.9057 11.9145 12.9243L11.9162 12.9104L11.9164 12.9092L11.9947 12.9701C11.9977 12.9726 11.9998 12.9742 12.0012 12.9752C12.002 12.9758 12.0025 12.9761 12.0027 12.9762C12.0024 12.9761 12.0017 12.9758 12.0006 12.9756C11.9992 12.9753 11.9934 12.9749 11.9899 12.9805L11.9897 12.9807C11.9885 12.9828 11.9882 12.9847 11.9883 12.9862L11.991 12.9853L11.9844 12.9903C11.9859 12.9915 11.9871 12.9924 11.9882 12.9932L11.9888 12.9936C11.989 12.9951 11.9892 12.9968 11.9894 12.9988C11.9903 13.0068 11.9915 13.0183 11.9929 13.0323C11.9957 13.0603 11.9991 13.0981 12.0014 13.1377C12.0038 13.1774 12.0051 13.2185 12.0038 13.2532C12.0031 13.2705 12.0018 13.286 11.9997 13.2987C11.9984 13.307 11.9967 13.3137 11.9949 13.3188C11.9878 13.3176 11.9786 13.3164 11.9679 13.3153C11.9507 13.3135 11.9287 13.3118 11.9035 13.3102C11.8915 13.3095 11.8788 13.3088 11.8655 13.3081L11.8641 13.3191L11.8627 13.3301C11.8207 13.328 11.7728 13.3263 11.7246 13.3253C11.6619 13.324 11.5986 13.3239 11.5464 13.3257L11.5615 13.3141L11.5764 13.3027C11.5645 13.3029 11.5529 13.3033 11.5419 13.3036C11.5152 13.3046 11.4912 13.306 11.4717 13.3081C11.4528 13.31 11.4371 13.3127 11.427 13.3164C11.4202 13.3185 11.4107 13.3202 11.3985 13.3224L11.3983 13.3225C11.3861 13.3247 11.3718 13.3274 11.3565 13.3312C11.3259 13.339 11.2908 13.3518 11.2595 13.3769C11.1959 13.4278 11.1516 13.5258 11.1814 13.7201L11.1873 13.7582L11.2026 13.7228C11.225 13.6709 11.2462 13.622 11.2618 13.586L11.2672 13.5736C11.2678 13.5818 11.2686 13.5907 11.2698 13.5998C11.2725 13.6208 11.2771 13.6437 11.2848 13.6647C11.2924 13.6857 11.3034 13.7056 11.3195 13.7197L11.3396 13.7372L11.3379 13.7106C11.3333 13.6393 11.3465 13.5794 11.3609 13.5375C11.364 13.5283 11.3672 13.5199 11.3703 13.5125L11.3577 13.5142L11.3451 13.5158C11.351 13.5005 11.3567 13.4881 11.3614 13.4788C11.3644 13.4729 11.3669 13.4682 11.3687 13.4651C11.3696 13.4635 11.3704 13.4623 11.3709 13.4614C11.3711 13.461 11.3713 13.4607 11.3715 13.4605L11.3717 13.4602L11.3717 13.4601L11.3717 13.4601L11.3726 13.4587L11.3906 13.4449L11.3921 13.4653L11.3921 13.4653L11.3921 13.4657L11.3922 13.467C11.3923 13.4681 11.3925 13.4698 11.3927 13.472C11.3931 13.4764 11.3937 13.4827 11.3945 13.4903C11.3951 13.4959 11.3958 13.5023 11.3967 13.5091L11.3857 13.5105L11.3747 13.5119C11.3762 13.5239 11.3781 13.5373 11.3804 13.5511C11.3842 13.5728 11.3891 13.5957 11.3954 13.6148C11.3986 13.6244 11.4022 13.6333 11.4064 13.6407C11.4104 13.648 11.4155 13.6549 11.4221 13.6592C11.4267 13.6623 11.4325 13.6636 11.4385 13.6613C11.4436 13.6594 11.447 13.6554 11.4494 13.652C11.4541 13.6451 11.4582 13.6347 11.4622 13.6235C11.4644 13.6172 11.4667 13.6103 11.4691 13.6031C11.4757 13.5831 11.4833 13.56 11.4938 13.5366C11.5004 13.5216 11.5081 13.5069 11.517 13.4933L11.5027 13.4952L11.4888 13.497C11.5017 13.4743 11.5178 13.4527 11.5386 13.4358C11.569 13.411 11.6087 13.3969 11.6607 13.4032C11.7332 13.4119 11.7983 13.4164 11.8514 13.4186L11.85 13.4297L11.8486 13.4407C11.8677 13.4415 11.8853 13.442 11.9011 13.4424C11.903 13.4424 11.9047 13.4424 11.9065 13.4425L11.9966 13.4307L11.9892 13.4629C11.9909 13.4775 11.993 13.4967 11.9955 13.5193C12.0014 13.572 12.009 13.6429 12.0159 13.7153C12.0228 13.7878 12.0291 13.8617 12.0323 13.9208C12.0339 13.9503 12.0347 13.9759 12.0345 13.9957C12.0344 14.0056 12.034 14.0139 12.0333 14.0203C12.0332 14.0215 12.0331 14.0226 12.033 14.0236C11.9872 14.0148 11.9256 14.0131 11.8615 14.0172L11.8589 14.0285L11.8563 14.0398C11.828 14.0418 11.7992 14.045 11.771 14.0493L11.7725 14.0379L11.7739 14.0264C11.764 14.0279 11.7541 14.0295 11.7444 14.0312C11.6916 14.0404 11.6421 14.0534 11.6042 14.0697C11.5853 14.0779 11.5688 14.087 11.5562 14.0972C11.5437 14.1074 11.5341 14.1193 11.5307 14.1331L11.527 14.1478L11.5421 14.1469C11.6397 14.1411 11.7112 14.1439 11.7584 14.1482L11.7598 14.1372L11.7612 14.1262L11.7618 14.1262C11.7859 14.1285 11.8039 14.1311 11.8159 14.1332C11.8219 14.1342 11.8264 14.1351 11.8295 14.1358L11.8302 14.1359C11.8306 14.136 11.8309 14.1361 11.8312 14.1362C11.8319 14.1363 11.8325 14.1364 11.833 14.1365L11.8339 14.1368L11.834 14.1368L11.8315 14.1476L11.8394 14.1554L11.8388 14.1559L11.8384 14.1563L11.8377 14.1569L11.8372 14.1574C11.836 14.1584 11.8344 14.1599 11.8323 14.1619C11.8281 14.1659 11.8221 14.1716 11.8151 14.1788C11.8011 14.1931 11.783 14.213 11.7664 14.2353C11.7577 14.247 11.7496 14.2592 11.7427 14.2716L11.7461 14.2449L11.7491 14.2214L11.7486 14.2221C11.7313 14.2453 11.7151 14.2719 11.7065 14.2984C11.6979 14.3249 11.6965 14.3529 11.7111 14.3774L11.719 14.3904L11.729 14.3789L11.7336 14.3428C11.741 14.3358 11.7503 14.3274 11.7615 14.3181C11.794 14.291 11.8424 14.2557 11.9066 14.2224L11.8394 14.1554L11.8545 14.1421L11.8343 14.1369L11.8342 14.1368L11.834 14.1368L11.8563 14.0398C11.9265 14.0348 11.9935 14.037 12.0389 14.0476L12.0481 14.0497L12.0516 14.041C12.0536 14.0361 12.0547 14.0296 12.0554 14.0225C12.0561 14.0151 12.0565 14.0062 12.0566 13.996C12.0569 13.9755 12.056 13.9493 12.0544 13.9196C12.0512 13.8601 12.0449 13.7858 12.038 13.7132C12.031 13.6406 12.0234 13.5697 12.0176 13.5169C12.0147 13.4905 12.0122 13.4686 12.0104 13.4533C12.0095 13.4457 12.0088 13.4397 12.0083 13.4356L12.0076 13.4294L12.0064 13.4191L11.996 13.4196L11.9959 13.4196L11.9957 13.4196L11.9945 13.4197C11.9934 13.4197 11.9918 13.4198 11.9897 13.4199C11.9855 13.42 11.9793 13.4202 11.9712 13.4203C11.955 13.4206 11.9313 13.4208 11.9016 13.4202C11.8864 13.4199 11.8696 13.4194 11.8514 13.4186L11.8627 13.3301C11.8765 13.3308 11.8898 13.3316 11.9021 13.3323C11.9272 13.3339 11.9488 13.3356 11.9656 13.3373C11.9827 13.3391 11.9936 13.3408 11.998 13.3422L12.0064 13.3449L12.0109 13.3372C12.016 13.3283 12.0194 13.316 12.0216 13.3023C12.0239 13.2883 12.0253 13.2718 12.0259 13.254C12.0273 13.2183 12.0259 13.1764 12.0236 13.1364C12.0212 13.0964 12.0178 13.0582 12.015 13.0301C12.0136 13.016 12.0123 13.0044 12.0114 12.9963C12.011 12.9924 12.0106 12.9894 12.0104 12.9872C12.0106 12.9852 12.0102 12.9836 12.0101 12.9832L12.0101 12.9832C12.0098 12.9819 12.0093 12.9809 12.0091 12.9805C12.009 12.9802 12.0088 12.98 12.0087 12.9798L12.0086 12.9795L12.0086 12.9795L12.0085 12.9794L12.0085 12.9794L11.991 12.9853L12.0028 12.9763L12.0027 12.9762L12.0027 12.9762L11.9947 12.9701C11.9939 12.9694 11.993 12.9686 11.9921 12.9678C11.9801 12.9573 11.9581 12.9366 11.918 12.8965L12.0202 12.0946ZM12.0085 12.9794C12.0084 12.9795 12.0074 12.98 11.9989 12.985L12.0085 12.9794ZM11.7336 14.3428C11.7303 14.3459 11.7274 14.3487 11.7249 14.3512L11.7242 14.3519C11.7206 14.3381 11.7221 14.3223 11.7276 14.3052C11.7312 14.2942 11.7364 14.2828 11.7427 14.2716L11.7336 14.3428ZM11.7612 14.1262C11.7161 14.1221 11.6497 14.1192 11.5605 14.1237C11.5631 14.1207 11.5663 14.1176 11.5702 14.1144C11.5806 14.106 11.5951 14.0978 11.613 14.0901C11.6487 14.0747 11.6963 14.0621 11.7482 14.053C11.7557 14.0517 11.7634 14.0504 11.771 14.0493L11.7612 14.1262ZM11.4888 13.497C11.4831 13.5071 11.4781 13.5174 11.4735 13.5276C11.4626 13.5521 11.4544 13.5769 11.4477 13.597C11.4454 13.604 11.4433 13.6104 11.4413 13.6161C11.4375 13.6269 11.4344 13.6343 11.4317 13.6385C11.4299 13.6366 11.4279 13.6338 11.4257 13.6299C11.4225 13.6241 11.4194 13.6166 11.4164 13.6078C11.4106 13.5902 11.4059 13.5686 11.4023 13.5473C11.4 13.5339 11.3981 13.5208 11.3967 13.5091L11.4888 13.497ZM11.2884 13.5232L11.3451 13.5158C11.3434 13.5204 11.3417 13.5252 11.3399 13.5303C11.3272 13.5675 11.3153 13.618 11.3148 13.6778C11.3114 13.6715 11.3083 13.6645 11.3056 13.6572C11.2987 13.6382 11.2944 13.617 11.2918 13.597C11.2892 13.577 11.2884 13.5585 11.2881 13.545C11.288 13.5382 11.2881 13.5327 11.2882 13.529C11.2882 13.5271 11.2883 13.5256 11.2883 13.5246L11.2883 13.5235L11.2884 13.5233L11.2884 13.5232ZM11.2884 13.5232L11.3726 13.4587L11.3897 13.4322L11.3906 13.4449L11.5464 13.3257L11.5427 13.3258C11.5162 13.3267 11.4928 13.3281 11.4741 13.3301C11.4549 13.3321 11.4416 13.3346 11.4345 13.3373L11.4342 13.3374L11.4338 13.3375C11.4257 13.34 11.4151 13.342 11.4036 13.344L11.4023 13.3443C11.3901 13.3465 11.3764 13.3491 11.3619 13.3527C11.3329 13.3601 11.3012 13.3719 11.2733 13.3942C11.2223 13.4351 11.1806 13.5141 11.1982 13.6771C11.2145 13.6393 11.2296 13.6045 11.2415 13.5772C11.2493 13.5592 11.2557 13.5445 11.2602 13.5342L11.2671 13.5182L11.2884 13.5232ZM11.762 12.7895C11.6968 12.7576 11.6354 12.7103 11.5857 12.6657C11.5595 12.6422 11.5367 12.6196 11.5186 12.6006L11.762 12.7895ZM11.615 11.0854L11.6306 11.0812L11.6212 11.0682L11.6211 11.0682L11.6211 11.0681C11.621 11.068 11.6208 11.0677 11.6206 11.0674C11.6202 11.0668 11.6195 11.0657 11.6187 11.0644C11.617 11.0616 11.6147 11.0574 11.6123 11.0519C11.6073 11.0408 11.6018 11.0247 11.5996 11.0045C11.5952 10.9647 11.6036 10.9078 11.6579 10.8419C11.7499 10.7594 11.8637 10.7504 11.9583 10.7845C12.0537 10.8188 12.1279 10.8963 12.1413 10.9844L12.1432 10.9974L12.1448 10.9969C12.1452 11.001 12.1454 11.0063 12.1453 11.0127C12.1451 11.0312 12.1422 11.0583 12.1327 11.0908C12.1139 11.1556 12.0691 11.2422 11.9683 11.3256L11.9676 11.3262L11.967 11.3268C11.8793 11.4267 11.8581 11.5789 11.8581 11.7038C11.8581 11.7666 11.8635 11.8233 11.8688 11.8642C11.8715 11.8847 11.8742 11.9013 11.8762 11.9128C11.8772 11.9185 11.8781 11.923 11.8787 11.926C11.879 11.9275 11.8792 11.9287 11.8794 11.9295L11.8795 11.9304L11.8796 11.9306L11.8796 11.9307L11.6381 11.1974C11.6362 11.1865 11.6362 11.1865 11.6362 11.1865L11.6359 11.1865L11.6352 11.1866L11.6323 11.1871C11.6298 11.1876 11.6261 11.1882 11.6214 11.189C11.612 11.1905 11.5986 11.1927 11.5825 11.1952C11.5502 11.2001 11.5075 11.2061 11.4651 11.2105C11.4226 11.2149 11.3811 11.2176 11.3511 11.2161C11.336 11.2154 11.3249 11.2136 11.3183 11.211C11.316 11.2101 11.3147 11.2092 11.3142 11.2088C11.315 11.2062 11.3183 11.2015 11.3267 11.195C11.3351 11.1885 11.347 11.1814 11.3615 11.1742C11.3903 11.1597 11.4281 11.145 11.4658 11.1318C11.5034 11.1186 11.5408 11.107 11.5687 11.0987C11.5827 11.0946 11.5943 11.0912 11.6024 11.0889C11.6064 11.0878 11.6096 11.0869 11.6118 11.0863L11.6142 11.0857L11.615 11.0854ZM11.615 11.0854C11.615 11.0854 11.6151 11.0854 11.6122 11.0747L11.615 11.0854Z" fill="black"/>
<path fill-rule="evenodd" clip-rule="evenodd" d="M12.1514 11.0606C12.1605 11.0124 12.1551 10.9818 12.1522 10.9828C12.1239 10.7964 11.8409 10.662 11.6499 10.8342C11.5367 10.971 11.6122 11.0747 11.6122 11.0747C11.6122 11.0747 11.315 11.1549 11.3032 11.2068C11.2914 11.2587 11.6381 11.1974 11.6381 11.1974L11.6051 11.4356C11.6051 11.4356 10.9306 12.0487 11.4471 12.5793C11.451 12.5774 11.46 12.5621 11.4628 12.5572L11.4686 12.5618C11.4969 12.5952 11.6398 12.7573 11.7974 12.8169L11.8238 12.8374C11.7291 12.81 11.6382 12.7427 11.5709 12.6822C11.5359 12.6508 11.507 12.621 11.4868 12.599C11.4777 12.5892 11.4704 12.5809 11.4651 12.5747C11.4636 12.577 11.462 12.5793 11.4605 12.5814C11.4594 12.5827 11.4583 12.5841 11.4571 12.5853C11.4562 12.5863 11.4544 12.5881 11.452 12.5892L11.4448 12.5929L11.4391 12.5871C11.3083 12.4526 11.2524 12.3124 11.2428 12.1775C11.2333 12.043 11.2698 11.9146 11.3224 11.8037C11.375 11.6928 11.4437 11.5988 11.4993 11.5325C11.5271 11.4994 11.5516 11.4732 11.5692 11.4552C11.578 11.4462 11.5851 11.4393 11.59 11.4346C11.5919 11.4328 11.5934 11.4313 11.5947 11.4301L11.6251 11.2108C11.6156 11.2124 11.602 11.2146 11.5858 11.2171C11.5534 11.2221 11.5102 11.2281 11.4674 11.2326C11.4247 11.237 11.3818 11.2399 11.35 11.2383C11.3344 11.2375 11.3203 11.2356 11.3102 11.2316C11.3051 11.2296 11.3 11.2267 11.2963 11.2221C11.2923 11.217 11.291 11.2108 11.2924 11.2043C11.2948 11.1938 11.3036 11.1848 11.3131 11.1775C11.3232 11.1697 11.3365 11.1619 11.3515 11.1544C11.3817 11.1392 11.4204 11.1242 11.4585 11.1108C11.4966 11.0975 11.5343 11.0858 11.5624 11.0774C11.5759 11.0734 11.5872 11.0702 11.5954 11.0679C11.5943 11.0658 11.5932 11.0635 11.592 11.0609C11.5863 11.0482 11.5801 11.0298 11.5776 11.007C11.5725 10.9609 11.5829 10.8978 11.6414 10.8271L11.6419 10.8265L11.6425 10.826C11.7415 10.7368 11.8644 10.7271 11.9658 10.7636C12.0656 10.7996 12.1464 10.881 12.1626 10.9777L12.1522 11.0593L12.1514 11.0606Z" fill="black"/>
<path d="M11.8022 11.3468C11.8022 11.3468 11.3114 11.8877 11.5232 12.3017C11.5288 12.2726 11.5304 12.249 11.5315 12.233C11.5324 12.2188 11.533 12.2106 11.5357 12.21C11.535 12.2093 11.5352 12.2092 11.5366 12.2101C11.5363 12.2099 11.5359 12.2099 11.5357 12.21C11.536 12.2103 11.5365 12.2108 11.5373 12.2115L11.5423 12.2006C11.5418 12.2003 11.5412 12.1999 11.5405 12.1996C11.5402 12.1994 11.5396 12.1992 11.5389 12.1989L11.5389 12.1989C11.5386 12.1988 11.5361 12.1979 11.533 12.1986C11.5309 12.1991 11.5277 12.2005 11.5257 12.204C11.5255 12.2042 11.5254 12.2044 11.5253 12.2047L11.5251 12.205C11.5233 12.2078 11.5226 12.2112 11.5222 12.2133C11.5214 12.2178 11.5209 12.2244 11.5205 12.2317L11.5204 12.2326C11.5198 12.2411 11.5191 12.2515 11.5178 12.2636C11.4371 12.0695 11.5024 11.8503 11.5931 11.6741C11.6409 11.5813 11.6953 11.5013 11.7377 11.4444C11.7519 11.4254 11.7648 11.4089 11.7757 11.3955L11.7506 11.5022C11.753 11.4953 11.7554 11.4884 11.7578 11.4816C11.7735 11.4369 11.7893 11.3922 11.8022 11.3468Z" fill="#9CA69C"/>
<path d="M11.6854 11.7793C11.6887 11.6844 11.7186 11.5933 11.7506 11.5022L11.6854 11.7793Z" fill="#9CA69C"/>
<path d="M11.5869 12.1704L11.593 12.172L11.5956 12.1612L11.5698 12.1547C11.5698 12.1547 11.5788 12.1791 11.5853 12.2047L11.5906 12.1824C11.5893 12.1781 11.588 12.1741 11.5869 12.1704Z" fill="#9CA69C"/>
<path fill-rule="evenodd" clip-rule="evenodd" d="M11.6003 12.1738L11.593 12.172L11.5956 12.1612L11.5698 12.1547C11.5698 12.1547 11.5788 12.1791 11.5853 12.2047L11.5906 12.1824C11.5911 12.184 11.5916 12.1857 11.5921 12.1874C11.5975 12.2063 11.6034 12.2303 11.6031 12.2473C11.6031 12.2477 11.6032 12.248 11.6032 12.2484C11.6035 12.2506 11.6033 12.2551 11.5993 12.2585C11.5959 12.2614 11.5921 12.2614 11.5908 12.2613C11.5892 12.2612 11.5879 12.2608 11.5871 12.2605C11.5843 12.2596 11.5809 12.2576 11.5781 12.2558C11.5718 12.2519 11.5633 12.2458 11.5553 12.2398C11.5509 12.2366 11.5466 12.2333 11.5428 12.2302L11.5425 12.2341C11.5414 12.2501 11.5398 12.2742 11.534 12.3038L11.5279 12.3353L11.5133 12.3067C11.4049 12.0947 11.4768 11.8516 11.5734 11.6639C11.6219 11.5698 11.677 11.4887 11.7199 11.4312C11.7414 11.4024 11.7599 11.3795 11.773 11.3638C11.7796 11.3559 11.7848 11.3498 11.7884 11.3457C11.7902 11.3436 11.7916 11.3421 11.7925 11.341L11.7936 11.3398L11.7939 11.3395L11.794 11.3394L11.8022 11.3468C11.8022 11.3468 11.3114 11.8877 11.5232 12.3017C11.5288 12.2726 11.5304 12.249 11.5315 12.233C11.5324 12.2188 11.533 12.2106 11.5357 12.21C11.536 12.2103 11.5365 12.2108 11.5373 12.2115L11.5332 12.2203C11.5334 12.2203 11.5335 12.2204 11.5337 12.2204C11.5343 12.2205 11.5358 12.2207 11.5377 12.2203C11.5393 12.2199 11.5417 12.219 11.5436 12.2168C11.5409 12.2146 11.5387 12.2128 11.5373 12.2115L11.5423 12.2006C11.5418 12.2003 11.5412 12.1999 11.5405 12.1996C11.5402 12.1994 11.5396 12.1992 11.5389 12.1989L11.5389 12.1989C11.5386 12.1988 11.5361 12.1979 11.533 12.1986C11.5309 12.1991 11.5277 12.2005 11.5257 12.204C11.5255 12.2042 11.5254 12.2044 11.5253 12.2047L11.5251 12.205C11.5233 12.2078 11.5226 12.2112 11.5222 12.2133C11.5214 12.2178 11.5209 12.2244 11.5205 12.2317L11.5204 12.2326C11.5198 12.2411 11.5191 12.2515 11.5178 12.2636C11.4371 12.0695 11.5024 11.8503 11.5931 11.6741C11.6409 11.5813 11.6953 11.5013 11.7377 11.4444C11.7519 11.4254 11.7648 11.4089 11.7757 11.3955L11.7506 11.5022C11.7186 11.5933 11.6887 11.6844 11.6854 11.7793L11.7506 11.5022C11.753 11.4953 11.7554 11.4884 11.7578 11.4816C11.7735 11.4369 11.7893 11.3922 11.8022 11.3468L11.795 11.3403C11.7942 11.3395 11.794 11.3394 11.794 11.3394L11.8129 11.3498C11.7999 11.3955 11.784 11.4407 11.7682 11.4854L11.7682 11.4854L11.7682 11.4855C11.7647 11.4954 11.7612 11.5054 11.7577 11.5153C11.7387 11.5699 11.7209 11.624 11.7093 11.6788C11.6864 11.7879 11.6884 11.8997 11.7566 12.022L11.7667 12.0402L11.7459 12.0385L11.7354 12.0376C11.729 12.0371 11.7204 12.0364 11.7114 12.0357C11.6995 12.0348 11.6874 12.0339 11.679 12.0334L11.6791 12.0337C11.6805 12.0413 11.6835 12.0519 11.6869 12.0629C11.6903 12.0738 11.6941 12.0847 11.697 12.0929C11.6984 12.097 11.6997 12.1004 11.7005 12.1028C11.701 12.104 11.7013 12.105 11.7016 12.1056L11.7018 12.1063L11.7019 12.1065L11.7083 12.1236L11.6902 12.1215C11.6747 12.1196 11.6591 12.1178 11.6435 12.116L11.6173 12.1129L11.6267 12.1303C11.6331 12.1422 11.6395 12.154 11.646 12.1661L11.6579 12.1882L11.6335 12.1821L11.6003 12.1738ZM11.5357 12.21C11.535 12.2093 11.5352 12.2092 11.5366 12.2101C11.5363 12.2099 11.5359 12.2099 11.5357 12.21ZM11.6098 12.1008L11.6063 12.1157L11.5975 12.0994L11.6098 12.1008Z" fill="#9CA69C"/>
<path d="M11.6063 12.1157L11.6098 12.1008L11.5975 12.0994L11.6063 12.1157Z" fill="#9CA69C"/>
<path d="M11.5332 12.2203C11.5334 12.2203 11.5335 12.2204 11.5337 12.2204C11.5343 12.2205 11.5358 12.2207 11.5377 12.2203C11.5393 12.2199 11.5417 12.219 11.5436 12.2168C11.5409 12.2146 11.5387 12.2128 11.5373 12.2115L11.5332 12.2203Z" fill="#9CA69C"/>
<path fill-rule="evenodd" clip-rule="evenodd" d="M11.9754 10.875L11.9553 10.8628L11.9586 10.8861L11.9586 10.8861L11.9586 10.8865C11.9587 10.8868 11.9587 10.8873 11.9588 10.888C11.959 10.8893 11.9592 10.8912 11.9594 10.8938C11.9599 10.8988 11.9605 10.9061 11.961 10.9151C11.9618 10.9331 11.9619 10.9576 11.9588 10.9836C11.9527 11.0366 11.9343 11.0919 11.8885 11.1164L11.8879 11.1167L11.8873 11.1171C11.8844 11.1192 11.8795 11.1218 11.8725 11.1254L11.8692 11.1271C11.861 11.1314 11.8512 11.1366 11.8422 11.1428C11.8332 11.1489 11.8242 11.1565 11.8182 11.1658C11.8119 11.1753 11.8087 11.1869 11.8119 11.1999C11.815 11.2137 11.8195 11.2246 11.8259 11.2327C11.8325 11.2411 11.8407 11.2459 11.85 11.2479C11.8588 11.2498 11.8681 11.2491 11.8772 11.2476C11.8845 11.2464 11.8925 11.2445 11.9004 11.2426L11.9005 11.2426C11.9021 11.2422 11.9038 11.2418 11.9055 11.2414C11.9353 11.236 11.9649 11.2165 11.9897 11.19C12.0148 11.1633 12.0359 11.1286 12.0483 11.0912C12.0607 11.0538 12.0644 11.0132 12.0539 10.9749C12.0434 10.9365 12.0186 10.9013 11.9754 10.875ZM11.9638 10.894L11.9696 10.8845C11.9696 10.8845 11.9703 10.8897 11.9711 10.8987C11.9687 10.8971 11.9663 10.8955 11.9638 10.894ZM11.9696 10.8845C11.9738 10.8871 11.9779 10.8897 11.9817 10.8925L11.9816 10.8916C11.9813 10.8889 11.9811 10.8868 11.9809 10.8853C11.9808 10.8846 11.9808 10.884 11.9807 10.8836L11.9807 10.8832L11.9806 10.883L11.9806 10.883C11.9806 10.883 11.9806 10.883 11.9696 10.8845ZM11.8938 11.1262C11.9787 11.0808 11.9747 10.9433 11.9711 10.8987C11.9752 10.9014 11.9791 10.9043 11.9828 10.9073C11.983 10.9094 11.9831 10.9117 11.9832 10.9141C11.9841 10.9329 11.9842 10.9586 11.981 10.9862C11.9747 11.0403 11.9553 11.1055 11.8996 11.1357C11.8998 11.1356 11.9001 11.1354 11.9003 11.1353L11.8938 11.1262Z" fill="#9CA69C"/>
<path d="M11.9832 10.9141C11.9831 10.9117 11.983 10.9094 11.9828 10.9073C11.9791 10.9043 11.9752 10.9014 11.9711 10.8987C11.9747 10.9433 11.9787 11.0808 11.8938 11.1262L11.9003 11.1353C11.9001 11.1354 11.8998 11.1356 11.8996 11.1357C11.9553 11.1055 11.9747 11.0403 11.981 10.9862C11.9842 10.9586 11.9841 10.9329 11.9832 10.9141Z" fill="#9CA69C"/>
<path d="M11.9816 10.8916C11.9813 10.8889 11.9811 10.8868 11.9809 10.8853C11.9808 10.8846 11.9808 10.884 11.9807 10.8836L11.9807 10.8832L11.9806 10.883L11.9806 10.883C11.9806 10.883 11.9806 10.883 11.9696 10.8845C11.9738 10.8871 11.9779 10.8897 11.9817 10.8925L11.9816 10.8916Z" fill="#9CA69C"/>
<path d="M11.9696 10.8845L11.9638 10.894C11.9663 10.8955 11.9687 10.8971 11.9711 10.8987C11.9703 10.8897 11.9696 10.8845 11.9696 10.8845Z" fill="#9CA69C"/>
<path d="M11.7556 11.0863C11.7781 11.0863 11.7963 11.068 11.7963 11.0456C11.7963 11.0231 11.7781 11.0049 11.7556 11.0049C11.7331 11.0049 11.7149 11.0231 11.7149 11.0456C11.7149 11.068 11.7331 11.0863 11.7556 11.0863Z" fill="white"/>
<path d="M11.6339 11.2002C11.6078 11.2215 11.4704 11.3637 11.6055 11.4158C11.7453 11.3779 11.7074 11.3519 11.7382 11.3211C11.739 11.2571 11.6687 11.2405 11.6339 11.2002Z" fill="#D90000"/>
<path fill-rule="evenodd" clip-rule="evenodd" d="M11.6347 11.1841L11.6418 11.1923C11.6496 11.2013 11.6596 11.2093 11.6709 11.2174C11.6744 11.2199 11.6782 11.2225 11.682 11.2252C11.6899 11.2307 11.6982 11.2364 11.7057 11.2424C11.7286 11.2604 11.7492 11.2834 11.7487 11.3206L11.7487 11.3251L11.7455 11.3283C11.7393 11.3344 11.7366 11.3402 11.7339 11.3471C11.7335 11.3478 11.7332 11.3487 11.7329 11.3495C11.7303 11.356 11.7272 11.364 11.7209 11.372C11.7066 11.3903 11.6778 11.407 11.6078 11.426L11.6043 11.4269L11.6009 11.4256C11.5648 11.4117 11.5448 11.3908 11.5379 11.3655C11.5312 11.3408 11.5377 11.3146 11.5486 11.2912C11.5703 11.2444 11.6125 11.2023 11.6263 11.191L11.6347 11.1841ZM11.6055 11.4035C11.6725 11.385 11.6941 11.3701 11.7034 11.3583C11.7076 11.3529 11.7095 11.3479 11.7122 11.3413C11.7125 11.3405 11.7128 11.3396 11.7132 11.3388C11.716 11.3319 11.7194 11.3241 11.7264 11.3161C11.7253 11.2916 11.7116 11.2754 11.6919 11.2599C11.6849 11.2543 11.6776 11.2493 11.67 11.244C11.6661 11.2413 11.662 11.2385 11.6579 11.2355C11.6493 11.2293 11.6405 11.2226 11.6327 11.2151C11.6161 11.2308 11.5854 11.2646 11.5688 11.3005C11.5589 11.3219 11.5547 11.3423 11.5594 11.3596C11.5638 11.3756 11.5764 11.3915 11.6055 11.4035Z" fill="black"/>
<path fill-rule="evenodd" clip-rule="evenodd" d="M11.9236 12.5098L11.9379 12.5291C12.0202 12.6395 12.0574 12.672 12.154 12.7498L12.141 12.7678C12.1222 12.7557 12.1005 12.7464 12.0695 12.7459C12.0381 12.7453 11.9965 12.7537 11.938 12.7782L11.9283 12.7823L11.9237 12.7728C11.9012 12.7264 11.8983 12.6738 11.9016 12.6297C11.9046 12.5903 11.9126 12.5566 11.9168 12.539C11.9173 12.5368 11.9178 12.5349 11.9181 12.5332L11.9236 12.5098Z" fill="#9CA69C"/>
<path d="M12.1402 13.0617L12.1229 13.0518L12.1308 13.3461L12.1397 13.3477L12.1398 13.3477L12.1398 13.3477L12.14 13.3478L12.1409 13.3479C12.1416 13.348 12.1426 13.3482 12.144 13.3484C12.1467 13.3488 12.1505 13.3494 12.1553 13.3501C12.1648 13.3514 12.1779 13.353 12.1924 13.3541C12.2069 13.3551 12.223 13.3557 12.2383 13.3549C12.2534 13.3541 12.2685 13.3519 12.2808 13.3471C12.2897 13.3437 12.2956 13.3364 12.299 13.3281C12.3023 13.3198 12.3036 13.31 12.3033 13.2994C12.3029 13.2781 12.2964 13.2516 12.2843 13.2236C12.2601 13.1676 12.2124 13.1033 12.1402 13.0617Z" fill="white"/>
<path d="M12.7976 13.1059C12.7976 13.1059 12.6279 12.6956 12.1939 12.5918C11.76 12.488 11.8166 12.0258 11.852 11.9975C11.8708 11.9574 11.885 11.8961 12.01 11.9551C12.135 12.014 12.7104 12.3041 12.7929 12.3183C12.8755 12.3324 12.8047 13.1154 12.7976 13.1059Z" fill="#9CA69C"/>
<path fill-rule="evenodd" clip-rule="evenodd" d="M11.8662 11.9899C11.8647 11.9934 11.8631 11.997 11.8614 12.0006L11.8603 12.003L11.8583 12.0046C11.8583 12.0046 11.8583 12.0046 11.8583 12.0046C11.8583 12.0046 11.8579 12.0049 11.8572 12.0059C11.8565 12.007 11.8556 12.0086 11.8547 12.0107C11.8528 12.0149 11.8507 12.0208 11.8488 12.0281C11.8449 12.0429 11.8416 12.063 11.8399 12.0869C11.8364 12.1348 11.8395 12.1972 11.857 12.2619C11.8918 12.3908 11.9835 12.5287 12.1959 12.5794C12.4158 12.632 12.5687 12.7623 12.6664 12.8791C12.7152 12.9375 12.7504 12.9926 12.7733 13.0331C12.7807 13.0462 12.7869 13.0578 12.7918 13.0674C12.7941 13.0473 12.7969 13.0195 12.7998 12.9863C12.8062 12.9141 12.8131 12.8168 12.8172 12.7189C12.8213 12.6208 12.8226 12.5224 12.8178 12.4477C12.8154 12.4103 12.8114 12.3795 12.8058 12.3577C12.8029 12.3468 12.7998 12.3389 12.7966 12.3337C12.7933 12.3284 12.791 12.3277 12.7904 12.3276C12.7788 12.3256 12.7598 12.3191 12.736 12.3097C12.7119 12.3002 12.682 12.2874 12.6482 12.2723C12.5805 12.2422 12.4969 12.2027 12.4119 12.1619C12.32 12.1176 12.2268 12.0719 12.1506 12.0346C12.0858 12.0028 12.0334 11.9771 12.0046 11.9635C11.9429 11.9344 11.9128 11.9371 11.8963 11.947C11.8878 11.9522 11.8815 11.96 11.876 11.9695C11.8723 11.9762 11.8693 11.9829 11.8662 11.9899ZM12.7871 13.1001C12.7871 13.1001 12.7872 13.1 12.7872 13.1C12.7871 13.1001 12.7871 13.1001 12.7871 13.1001ZM12.0141 11.9435C11.9508 11.9136 11.9114 11.9121 11.8848 11.9281C11.8718 11.9359 11.8632 11.9473 11.8568 11.9586C11.8524 11.9662 11.8487 11.9747 11.8454 11.9822C11.8442 11.9847 11.8432 11.9871 11.8422 11.9893C11.839 11.9927 11.8365 11.9972 11.8345 12.0015C11.8319 12.0073 11.8295 12.0144 11.8273 12.0225C11.823 12.0389 11.8195 12.0603 11.8178 12.0853C11.8142 12.1353 11.8174 12.2003 11.8356 12.2677C11.8721 12.4029 11.9691 12.548 12.1907 12.601C12.4047 12.6522 12.5537 12.7789 12.6494 12.8933C12.6972 12.9505 12.7316 13.0044 12.7541 13.0441C12.7653 13.0639 12.7735 13.0801 12.7789 13.0913C12.7816 13.0969 12.7836 13.1013 12.7849 13.1042C12.7855 13.1057 12.786 13.1068 12.7863 13.1075L12.7867 13.1083L12.7868 13.1085L12.7868 13.1086L12.7873 13.1099L12.7881 13.111C12.7889 13.1119 12.7903 13.1135 12.7927 13.1146C12.7954 13.1157 12.7983 13.1158 12.8009 13.1149C12.8048 13.1135 12.8065 13.1105 12.8069 13.11L12.8069 13.1099C12.8079 13.1083 12.8083 13.1066 12.8085 13.1059C12.809 13.1041 12.8095 13.1017 12.81 13.099C12.8109 13.0936 12.812 13.0854 12.8132 13.0751C12.8157 13.0544 12.8187 13.0244 12.8219 12.9882C12.8283 12.9158 12.8352 12.8182 12.8393 12.7198C12.8435 12.6215 12.8448 12.5221 12.8399 12.4463C12.8375 12.4085 12.8334 12.3759 12.8272 12.3521C12.8241 12.3403 12.8203 12.33 12.8155 12.3221C12.8107 12.3144 12.8039 12.3074 12.7942 12.3057C12.7851 12.3042 12.7681 12.2985 12.7441 12.2891C12.7205 12.2798 12.6909 12.2671 12.6572 12.2521C12.5899 12.2221 12.5064 12.1827 12.4215 12.1419C12.3301 12.0979 12.2368 12.0522 12.1606 12.0148C12.0955 11.9829 12.0428 11.957 12.0141 11.9435Z" fill="black"/>
<path d="M12.3788 12.5883C12.3718 12.5931 12.959 12.935 12.7821 13.2298C12.9496 13.1189 12.8953 12.9256 12.8953 12.9256C12.8953 12.9256 13.0321 13.2817 12.6996 13.4562C12.735 13.4869 12.7585 13.4798 12.7585 13.4798L12.7019 13.5364C12.7019 13.5364 12.676 13.5788 12.9 13.4703C12.8387 13.5199 12.834 13.5552 12.834 13.5552C12.834 13.5552 12.8505 13.6024 12.9967 13.4751C12.8788 13.6024 12.8529 13.6684 12.8529 13.6661C13.1712 13.6378 13.8646 12.6025 12.6335 12.2959C12.6996 12.3643 12.6901 12.3549 12.6901 12.3549L12.3788 12.5883Z" fill="#D90000"/>
<path fill-rule="evenodd" clip-rule="evenodd" d="M12.6022 12.2769L12.6397 12.2862C12.949 12.3632 13.1391 12.4864 13.2443 12.6298C13.3496 12.7734 13.3687 12.9358 13.3386 13.0885C13.3085 13.2411 13.2294 13.3844 13.1379 13.4914C13.0921 13.545 13.043 13.5896 12.995 13.6219C12.9476 13.6538 12.9006 13.674 12.8586 13.6781C12.8571 13.6783 12.8554 13.6784 12.8534 13.6779C12.848 13.6764 12.8462 13.6719 12.8458 13.6705C12.8452 13.6689 12.8452 13.6676 12.8452 13.6671V13.657L12.8494 13.6566C12.8502 13.655 12.8513 13.6531 12.8525 13.6509C12.8569 13.6428 12.864 13.6305 12.8748 13.6141C12.886 13.5971 12.9013 13.5757 12.9217 13.5501C12.8972 13.5653 12.8793 13.5724 12.866 13.5749C12.8528 13.5773 12.8431 13.5753 12.8364 13.571C12.8331 13.5689 12.8309 13.5665 12.8294 13.5645C12.8287 13.5634 12.8281 13.5625 12.8278 13.5617C12.8276 13.5613 12.8274 13.561 12.8273 13.5607C12.8272 13.5605 12.8272 13.5604 12.8271 13.5603L12.8271 13.5601L12.827 13.56L12.827 13.56C12.827 13.56 12.827 13.5599 12.8375 13.5563C12.8265 13.5548 12.8265 13.5548 12.8265 13.5548L12.8265 13.5547L12.8265 13.5547L12.8265 13.5545C12.8265 13.5543 12.8266 13.5542 12.8266 13.5541C12.8266 13.554 12.8266 13.554 12.8266 13.5539C12.8267 13.5534 12.8268 13.5529 12.827 13.5521C12.8273 13.5507 12.8278 13.5488 12.8287 13.5464C12.8303 13.5416 12.8331 13.5349 12.8379 13.5268C12.8411 13.5214 12.8452 13.5153 12.8503 13.5087C12.7779 13.5416 12.7409 13.5535 12.7219 13.5561C12.7159 13.5569 12.7107 13.557 12.7064 13.5559C12.7018 13.5548 12.6972 13.5522 12.6948 13.5471C12.6926 13.5424 12.6934 13.5381 12.6941 13.536C12.6944 13.5348 12.6948 13.5338 12.6951 13.5331C12.6953 13.5328 12.6955 13.5325 12.6956 13.5322L12.6958 13.5319L12.6959 13.5318L12.6959 13.5317L12.6959 13.5317C12.6959 13.5317 12.6959 13.5316 12.7054 13.5374L12.6959 13.5316L12.6966 13.5305L12.7373 13.4898C12.7258 13.4865 12.7117 13.4794 12.6958 13.4656L12.6835 13.455L12.6979 13.4474C12.86 13.3623 12.9074 13.2336 12.9145 13.1258C12.9162 13.1002 12.9157 13.0758 12.9138 13.0535C12.9035 13.115 12.8721 13.1868 12.7917 13.2401L12.7761 13.2251C12.8181 13.1551 12.815 13.0823 12.7859 13.0111C12.7567 12.9395 12.7013 12.8702 12.6398 12.8092C12.5785 12.7483 12.5117 12.6963 12.4607 12.6591C12.4365 12.6415 12.4159 12.6273 12.401 12.6171C12.4002 12.6165 12.3994 12.6159 12.3986 12.6153C12.3911 12.6102 12.3851 12.606 12.3811 12.6031C12.3791 12.6016 12.3773 12.6003 12.376 12.5991C12.3755 12.5986 12.3744 12.5977 12.3735 12.5964C12.3731 12.596 12.3719 12.5943 12.3714 12.5919C12.3711 12.5905 12.3709 12.5884 12.3717 12.5859C12.3725 12.5836 12.374 12.5817 12.3757 12.5805L12.677 12.3545C12.6693 12.3464 12.655 12.3315 12.629 12.3046L12.6022 12.2769ZM12.6974 12.3669L12.4004 12.5896C12.4034 12.5918 12.407 12.5942 12.4111 12.5971C12.412 12.5977 12.4128 12.5982 12.4137 12.5988C12.4286 12.6091 12.4493 12.6234 12.4737 12.6412C12.5252 12.6787 12.593 12.7314 12.6554 12.7935C12.7178 12.8554 12.7756 12.9271 12.8064 13.0027C12.8317 13.0645 12.8391 13.1293 12.8159 13.193C12.8684 13.1441 12.8881 13.0855 12.894 13.0359C12.8975 13.0059 12.896 12.9791 12.8936 12.9599C12.8924 12.9503 12.891 12.9427 12.8899 12.9374C12.8894 12.9348 12.8889 12.9328 12.8886 12.9315C12.8885 12.9311 12.8884 12.9308 12.8884 12.9306C12.8883 12.9303 12.8882 12.9302 12.8882 12.93L12.8881 12.9297L12.8881 12.9296C12.8881 12.9296 12.8881 12.9296 12.8882 12.9296L12.9091 12.9226L12.8988 12.9266C12.9091 12.9226 12.9091 12.9226 12.9091 12.9226L12.9091 12.9227L12.9092 12.9228L12.9092 12.923L12.9096 12.9238C12.9098 12.9246 12.9102 12.9256 12.9107 12.927C12.9117 12.9298 12.913 12.9338 12.9146 12.939C12.9178 12.9494 12.9219 12.9643 12.9258 12.9827C12.9336 13.0195 12.9404 13.0705 12.9367 13.1272C12.9293 13.2376 12.8816 13.3694 12.7233 13.4588C12.7337 13.4656 12.742 13.4685 12.748 13.4697C12.7521 13.4705 12.7552 13.4705 12.757 13.4704C12.7579 13.4703 12.7586 13.4702 12.7589 13.4702C12.759 13.4701 12.7591 13.4701 12.7591 13.4701L12.759 13.4701L12.7589 13.4702L12.7589 13.4702L12.7588 13.4702C12.7588 13.4702 12.7588 13.4702 12.7588 13.4702L12.7698 13.4887L12.7256 13.5329C12.7486 13.5279 12.7975 13.5104 12.8987 13.4614L12.9105 13.48C12.8807 13.504 12.8651 13.5243 12.857 13.538C12.8532 13.5445 12.851 13.5496 12.8498 13.553C12.8518 13.5537 12.8555 13.5542 12.862 13.553C12.8812 13.5495 12.9199 13.5313 12.9929 13.4677L13.0083 13.4836C12.9497 13.5469 12.9141 13.5948 12.8933 13.6264C12.8863 13.637 12.8809 13.6458 12.8769 13.6527C12.9091 13.6455 12.9451 13.6287 12.9826 13.6035C13.0287 13.5725 13.0763 13.5293 13.121 13.477C13.2106 13.3724 13.2876 13.2324 13.3168 13.0843C13.346 12.9363 13.3274 12.7806 13.2264 12.643C13.1296 12.5109 12.9559 12.3942 12.6723 12.3175C12.6866 12.3324 12.6942 12.3403 12.6981 12.3444C12.7007 12.3472 12.7022 12.3487 12.7027 12.3494C12.7028 12.3495 12.7031 12.3499 12.7034 12.3504C12.7035 12.3506 12.704 12.3514 12.7044 12.3524C12.7046 12.3529 12.7051 12.3543 12.7051 12.3562C12.7052 12.3582 12.7046 12.3626 12.7003 12.3655C12.6993 12.3662 12.6983 12.3666 12.6974 12.3669ZM12.8484 13.5579C12.8484 13.5579 12.8484 13.5579 12.8484 13.5579L12.8484 13.5579ZM12.8375 13.5563L12.8265 13.5548L12.8261 13.5574L12.827 13.5599L12.8375 13.5563Z" fill="black"/>
<path d="M12.4138 12.4872C12.494 12.5438 12.5223 12.5627 12.5317 12.591C12.4586 12.5745 12.3926 12.5792 12.3926 12.5792C12.3926 12.5792 12.2346 12.4283 12.2063 12.4165C12.185 12.4165 12.0624 12.3386 12.0624 12.3386C12.0011 12.308 11.9445 12.0957 12.1709 12.1571C12.4044 12.2679 12.4374 12.2773 12.4374 12.2773C12.5302 12.3064 12.6229 12.3355 12.7157 12.3646C12.7691 12.4243 12.8226 12.4841 12.876 12.5438C12.876 12.5438 12.5907 12.4023 12.5553 12.4C12.6331 12.4636 12.6779 12.5509 12.6779 12.5509C12.5875 12.5249 12.5089 12.5014 12.4138 12.4872Z" fill="white"/>
<path fill-rule="evenodd" clip-rule="evenodd" d="M12.0351 12.2836C12.045 12.3058 12.0586 12.3221 12.0707 12.3281L12.0712 12.3284L12.0716 12.3287L12.0657 12.338C12.0716 12.3287 12.0716 12.3287 12.0716 12.3287L12.073 12.3295C12.0739 12.3301 12.0752 12.3309 12.0769 12.332C12.0803 12.3341 12.0851 12.3371 12.091 12.3407C12.1028 12.348 12.1187 12.3577 12.1353 12.3674C12.1518 12.377 12.1689 12.3866 12.1831 12.3938C12.1902 12.3974 12.1964 12.4002 12.2013 12.4022C12.2038 12.4032 12.2058 12.4038 12.2074 12.4043C12.2087 12.4046 12.2094 12.4047 12.2095 12.4047C12.2096 12.4047 12.2096 12.4047 12.2095 12.4047L12.2118 12.4048L12.2138 12.4056C12.2188 12.4077 12.2254 12.4121 12.2323 12.4173C12.2396 12.4228 12.2483 12.4298 12.2577 12.4378C12.2767 12.4537 12.2992 12.4738 12.3208 12.4934C12.3424 12.5131 12.363 12.5324 12.3783 12.5467C12.386 12.5539 12.3923 12.5598 12.3966 12.564C12.3979 12.5652 12.3991 12.5663 12.4 12.5672C12.4019 12.5672 12.4042 12.5671 12.407 12.567C12.4146 12.5668 12.4253 12.5667 12.4384 12.5672C12.4588 12.5679 12.485 12.5699 12.5133 12.5748C12.5089 12.5696 12.5031 12.564 12.4954 12.5576C12.4793 12.544 12.4559 12.5275 12.4216 12.5033C12.4181 12.5008 12.4144 12.4983 12.4107 12.4956L12.4187 12.4756C12.5052 12.4885 12.5782 12.5091 12.6578 12.532C12.6531 12.5243 12.6471 12.5152 12.64 12.505C12.6194 12.4758 12.5894 12.4389 12.5516 12.4079L12.5247 12.386L12.5593 12.3883C12.5656 12.3887 12.5754 12.3918 12.5863 12.3958C12.5978 12.4 12.612 12.4058 12.628 12.4126C12.6599 12.4263 12.699 12.4443 12.7369 12.4621C12.7722 12.4787 12.8065 12.4953 12.8331 12.5082C12.8189 12.4923 12.8046 12.4764 12.7904 12.4604C12.7645 12.4315 12.7386 12.4025 12.7127 12.3736C12.667 12.3593 12.6213 12.345 12.5756 12.3306C12.5295 12.3162 12.4834 12.3017 12.4374 12.2873L12.4373 12.2873L12.4368 12.2871C12.4364 12.287 12.4359 12.2868 12.4351 12.2865C12.4336 12.286 12.4313 12.2852 12.4278 12.2838C12.4209 12.2811 12.4094 12.2764 12.3906 12.2683C12.3531 12.252 12.2866 12.222 12.1703 12.1669C12.1154 12.1521 12.0798 12.1546 12.0577 12.1647C12.0363 12.1745 12.0259 12.1925 12.023 12.2142C12.0201 12.2363 12.0253 12.2617 12.0351 12.2836ZM12.8793 12.5432L12.8744 12.5531L12.8876 12.5358C12.8607 12.5058 12.8338 12.4757 12.807 12.4457C12.7804 12.416 12.7538 12.3863 12.7272 12.3566L12.7252 12.3543L12.7223 12.3534C12.6756 12.3388 12.629 12.3241 12.5824 12.3095C12.5362 12.2951 12.4901 12.2806 12.444 12.2661L12.4438 12.2661L12.4436 12.266C12.4434 12.266 12.443 12.2658 12.4424 12.2656C12.4412 12.2652 12.4391 12.2644 12.4359 12.2632C12.4293 12.2606 12.418 12.256 12.3994 12.2479C12.3621 12.2318 12.2956 12.2018 12.1789 12.1464L12.178 12.146L12.1771 12.1457C12.1194 12.1301 12.0775 12.1312 12.0485 12.1445C12.0187 12.1582 12.0047 12.1837 12.0011 12.2113C11.9975 12.2384 12.0038 12.268 12.0148 12.2926C12.0256 12.3166 12.0418 12.3382 12.0602 12.3477L12.0612 12.3483C12.0621 12.3488 12.0634 12.3497 12.0651 12.3507C12.0685 12.3529 12.0734 12.3559 12.0794 12.3596C12.0912 12.3669 12.1073 12.3767 12.1241 12.3865C12.1408 12.3963 12.1583 12.4061 12.1731 12.4136C12.1805 12.4173 12.1874 12.4205 12.1932 12.4228C12.1975 12.4245 12.2023 12.4262 12.2066 12.4267C12.2091 12.428 12.2132 12.4307 12.219 12.4351C12.2258 12.4402 12.2341 12.4469 12.2435 12.4547C12.2621 12.4704 12.2844 12.4902 12.3059 12.5098C12.3273 12.5294 12.3479 12.5486 12.3631 12.5629C12.3707 12.57 12.377 12.576 12.3814 12.5801C12.3836 12.5822 12.3853 12.5838 12.3864 12.5849L12.3882 12.5866C12.3882 12.5866 12.3882 12.5866 12.3959 12.5786L12.3882 12.5866L12.3917 12.59L12.3966 12.5896L12.3967 12.5896L12.3968 12.5896L12.3973 12.5896C12.3977 12.5895 12.3985 12.5895 12.3994 12.5895C12.4012 12.5894 12.404 12.5892 12.4076 12.5892C12.4147 12.589 12.4251 12.5889 12.4376 12.5893C12.4628 12.5902 12.4969 12.5931 12.5326 12.6012L12.5517 12.6055L12.5455 12.5868C12.5398 12.5699 12.5286 12.5564 12.5097 12.5406C12.498 12.5308 12.4828 12.5196 12.4633 12.5057C12.5312 12.5186 12.5926 12.5363 12.6602 12.5557C12.6661 12.5574 12.6721 12.5592 12.6782 12.5609L12.7028 12.568L12.6911 12.5452L12.6812 12.5503C12.6911 12.5452 12.6911 12.5452 12.6911 12.5452L12.691 12.5451L12.6909 12.5449L12.6905 12.5441C12.6901 12.5434 12.6896 12.5423 12.6889 12.541C12.6874 12.5384 12.6853 12.5347 12.6825 12.53C12.677 12.5206 12.6688 12.5075 12.6581 12.4923C12.6443 12.4726 12.6263 12.4495 12.6044 12.4267C12.6091 12.4287 12.6141 12.4308 12.6193 12.433C12.6508 12.4465 12.6896 12.4644 12.7275 12.4822C12.7653 12.5 12.802 12.5177 12.8293 12.531C12.8429 12.5377 12.8542 12.5432 12.8621 12.5471C12.866 12.549 12.8691 12.5505 12.8712 12.5515L12.8744 12.5531C12.8744 12.5531 12.8744 12.5531 12.8793 12.5432Z" fill="black"/>
<path fill-rule="evenodd" clip-rule="evenodd" d="M11.3061 11.2331C11.3061 11.2331 11.3061 11.2331 11.3035 11.2223C11.3008 11.2114 11.3008 11.2114 11.3008 11.2114L11.304 11.2107C11.306 11.2102 11.309 11.2095 11.3128 11.2086C11.3204 11.2068 11.3312 11.2042 11.3444 11.2012C11.3707 11.1951 11.4062 11.1871 11.4427 11.1794C11.4792 11.1717 11.5169 11.1642 11.5476 11.1593C11.5629 11.1568 11.5767 11.1549 11.5878 11.154C11.5933 11.1535 11.5984 11.1533 11.6027 11.1533C11.6068 11.1534 11.611 11.1537 11.6146 11.1547L11.6084 11.1761C11.6078 11.1759 11.606 11.1756 11.6025 11.1756C11.5991 11.1756 11.5948 11.1758 11.5897 11.1762C11.5794 11.1771 11.5662 11.1788 11.5511 11.1813C11.521 11.1861 11.4837 11.1935 11.4473 11.2012C11.411 11.2088 11.3757 11.2168 11.3494 11.2229C11.3363 11.2259 11.3255 11.2285 11.3179 11.2303C11.3141 11.2312 11.3112 11.2319 11.3091 11.2323L11.3061 11.2331Z" fill="white"/>
</g>
<defs>
<clipPath id="clip0_1692_54153">
<rect x="2.04883" y="5.77002" width="19.9504" height="13.2997" rx="1" fill="white"/>
</clipPath>
</defs>
</svg>
