<svg width="25" height="25" viewBox="0 0 25 25" fill="none" xmlns="http://www.w3.org/2000/svg">
<g clip-path="url(#clip0_1692_54049)">
<path d="M2.04883 5.77002H21.9983V19.0697H2.04883V5.77002Z" fill="white"/>
<path d="M2.04883 5.77002H21.9983V6.79307H2.04883V5.77002Z" fill="#BF0A30"/>
<path d="M2.04883 7.81612H21.9983V8.83917H2.04883V7.81612Z" fill="#BF0A30"/>
<path d="M2.04883 9.86223H21.9983V10.8853H2.04883V9.86223Z" fill="#BF0A30"/>
<path d="M2.04883 11.9083H21.9983V12.9314H2.04883V11.9083Z" fill="#BF0A30"/>
<path d="M2.04883 13.9544H21.9983V14.9775H2.04883V13.9544Z" fill="#BF0A30"/>
<path d="M2.04883 16.0005H21.9983V17.0236H2.04883V16.0005Z" fill="#BF0A30"/>
<path d="M2.04883 18.0466H21.9983V19.0697H2.04883V18.0466Z" fill="#BF0A30"/>
<path d="M2.04883 5.77002H12.1552V12.9301H2.04883V5.77002Z" fill="#002868"/>
<path d="M3.0065 6.43535L2.91452 6.15234L2.82356 6.43535H2.52539L2.76696 6.61021L2.67397 6.89321L2.91452 6.71734L3.15609 6.89321L3.0631 6.61021L3.30467 6.43535H3.0065Z" fill="white"/>
<path d="M4.6823 6.43535L4.59032 6.15234L4.49834 6.43535H4.20119L4.44174 6.61021L4.34976 6.89321L4.59032 6.71734L4.83087 6.89321L4.7389 6.61021L4.97945 6.43535H4.6823Z" fill="white"/>
<path d="M6.35809 6.43535L6.26612 6.15234L6.17414 6.43535H5.87597L6.11754 6.61021L6.02556 6.89321L6.26612 6.71734L6.50667 6.89321L6.41469 6.61021L6.65525 6.43535H6.35809Z" fill="white"/>
<path d="M8.03288 6.43535L7.9409 6.15234L7.84993 6.43535H7.55177L7.79333 6.61021L7.70035 6.89321L7.9409 6.71734L8.18247 6.89321L8.08948 6.61021L8.33104 6.43535H8.03288Z" fill="white"/>
<path d="M9.76527 6.61021L10.0068 6.43535H9.70867L9.6167 6.15234L9.52472 6.43535H9.22756L9.46812 6.61021L9.37614 6.89321L9.6167 6.71734L9.85725 6.89321L9.76527 6.61021Z" fill="white"/>
<path d="M11.4411 6.61021L11.6816 6.43535H11.3845L11.2925 6.15234L11.2005 6.43535H10.9023L11.1439 6.61021L11.0519 6.89321L11.2925 6.71734L11.533 6.89321L11.4411 6.61021Z" fill="white"/>
<path d="M3.75242 6.86996L3.66044 7.15297H3.36329L3.60384 7.32783L3.51187 7.61083L3.75242 7.43598L3.99298 7.61083L3.901 7.32783L4.14256 7.15297H3.8444L3.75242 6.86996Z" fill="white"/>
<path d="M5.52019 7.15297L5.42822 6.86996L5.33624 7.15297H5.03908L5.27964 7.32783L5.18766 7.61083L5.42822 7.43598L5.66877 7.61083L5.5768 7.32783L5.81735 7.15297H5.52019Z" fill="white"/>
<path d="M7.19498 7.15297L7.10401 6.86996L7.01204 7.15297H6.71387L6.95544 7.32783L6.86245 7.61083L7.10401 7.43598L7.34457 7.61083L7.25259 7.32783L7.49315 7.15297H7.19498Z" fill="white"/>
<path d="M8.87078 7.15297L8.7788 6.86996L8.68783 7.15297H8.38967L8.63022 7.32783L8.53824 7.61083L8.7788 7.43598L9.01935 7.61083L8.92738 7.32783L9.16894 7.15297H8.87078Z" fill="white"/>
<path d="M10.5466 7.15297L10.4546 6.86996L10.3626 7.15297H10.0655L10.306 7.32783L10.214 7.61083L10.4546 7.43598L10.6951 7.61083L10.6032 7.32783L10.8437 7.15297H10.5466Z" fill="white"/>
<path d="M3.0065 7.8716L2.91452 7.58758L2.82356 7.8716L2.52539 7.87059L2.76696 8.04545L2.67397 8.32946L2.91452 8.1536L3.15609 8.32946L3.0631 8.04545L3.30467 7.87059L3.0065 7.8716Z" fill="white"/>
<path d="M4.6823 7.8716L4.59032 7.58758L4.49834 7.8716L4.20119 7.87059L4.44174 8.04545L4.34976 8.32946L4.59032 8.1536L4.83087 8.32946L4.7389 8.04545L4.97945 7.87059L4.6823 7.8716Z" fill="white"/>
<path d="M6.35809 7.8716L6.26612 7.58758L6.17414 7.8716L5.87597 7.87059L6.11754 8.04545L6.02556 8.32946L6.26612 8.1536L6.50667 8.32946L6.41469 8.04545L6.65525 7.87059L6.35809 7.8716Z" fill="white"/>
<path d="M8.03288 7.8716L7.9409 7.58758L7.84993 7.8716L7.55177 7.87059L7.79333 8.04545L7.70035 8.32946L7.9409 8.1536L8.18247 8.32946L8.08948 8.04545L8.33104 7.87059L8.03288 7.8716Z" fill="white"/>
<path d="M9.70867 7.8716L9.6167 7.58758L9.52472 7.8716L9.22756 7.87059L9.46812 8.04545L9.37614 8.32946L9.6167 8.1536L9.85725 8.32946L9.76527 8.04545L10.0068 7.87059L9.70867 7.8716Z" fill="white"/>
<path d="M11.4411 8.04545L11.6816 7.87059L11.3845 7.8716L11.2925 7.58758L11.2005 7.8716L10.9023 7.87059L11.1439 8.04545L11.0519 8.32946L11.2925 8.1536L11.533 8.32946L11.4411 8.04545Z" fill="white"/>
<path d="M3.75242 8.26983L3.66044 8.55284H3.36329L3.60384 8.72769L3.51187 9.0107L3.75242 8.83584L3.99298 9.0107L3.901 8.72769L4.14256 8.55284H3.8444L3.75242 8.26983Z" fill="white"/>
<path d="M5.52019 8.55284L5.42822 8.26983L5.33624 8.55284H5.03908L5.27964 8.72769L5.18766 9.0107L5.42822 8.83584L5.66877 9.0107L5.5768 8.72769L5.81735 8.55284H5.52019Z" fill="white"/>
<path d="M7.19498 8.55284L7.10401 8.26983L7.01204 8.55284H6.71387L6.95544 8.72769L6.86245 9.0107L7.10401 8.83584L7.34457 9.0107L7.25259 8.72769L7.49315 8.55284H7.19498Z" fill="white"/>
<path d="M8.87078 8.55284L8.7788 8.26983L8.68783 8.55284H8.38967L8.63022 8.72769L8.53824 9.0107L8.7788 8.83584L9.01935 9.0107L8.92738 8.72769L9.16894 8.55284H8.87078Z" fill="white"/>
<path d="M10.5466 8.55284L10.4546 8.26983L10.3626 8.55284H10.0655L10.306 8.72769L10.214 9.0107L10.4546 8.83584L10.6951 9.0107L10.6032 8.72769L10.8437 8.55284H10.5466Z" fill="white"/>
<path d="M3.0065 9.27147L2.91452 8.98745L2.82356 9.27147L2.52539 9.27046L2.76696 9.44531L2.67397 9.72832L2.91452 9.55346L3.15609 9.72832L3.0631 9.44531L3.30467 9.27046L3.0065 9.27147Z" fill="white"/>
<path d="M4.6823 9.27147L4.59032 8.98745L4.49834 9.27147L4.20119 9.27046L4.44174 9.44531L4.34976 9.72832L4.59032 9.55346L4.83087 9.72832L4.7389 9.44531L4.97945 9.27046L4.6823 9.27147Z" fill="white"/>
<path d="M6.35809 9.27147L6.26612 8.98745L6.17414 9.27147L5.87597 9.27046L6.11754 9.44531L6.02556 9.72832L6.26612 9.55346L6.50667 9.72832L6.41469 9.44531L6.65525 9.27046L6.35809 9.27147Z" fill="white"/>
<path d="M8.03288 9.27147L7.9409 8.98745L7.84993 9.27147L7.55177 9.27046L7.79333 9.44531L7.70035 9.72832L7.9409 9.55346L8.18247 9.72832L8.08948 9.44531L8.33104 9.27046L8.03288 9.27147Z" fill="white"/>
<path d="M9.70867 9.27147L9.6167 8.98745L9.52472 9.27147L9.22756 9.27046L9.46812 9.44531L9.37614 9.72832L9.6167 9.55346L9.85725 9.72832L9.76527 9.44531L10.0068 9.27046L9.70867 9.27147Z" fill="white"/>
<path d="M11.4411 9.44531L11.6816 9.27046L11.3845 9.27147L11.2925 8.98745L11.2005 9.27147L10.9023 9.27046L11.1439 9.44531L11.0519 9.72832L11.2925 9.55346L11.533 9.72832L11.4411 9.44531Z" fill="white"/>
<path d="M3.75242 9.68991L3.66044 9.97292H3.36329L3.60384 10.1478L3.51187 10.4308L3.75242 10.2559L3.99298 10.4308L3.901 10.1478L4.14256 9.97292H3.8444L3.75242 9.68991Z" fill="white"/>
<path d="M5.52019 9.97292L5.42822 9.68991L5.33624 9.97292H5.03908L5.27964 10.1478L5.18766 10.4308L5.42822 10.2559L5.66877 10.4308L5.5768 10.1478L5.81735 9.97292H5.52019Z" fill="white"/>
<path d="M7.19498 9.97292L7.10401 9.68991L7.01204 9.97292H6.71387L6.95544 10.1478L6.86245 10.4308L7.10401 10.2559L7.34457 10.4308L7.25259 10.1478L7.49315 9.97292H7.19498Z" fill="white"/>
<path d="M8.87078 9.97292L8.7788 9.68991L8.68783 9.97292H8.38967L8.63022 10.1478L8.53824 10.4308L8.7788 10.2559L9.01935 10.4308L8.92738 10.1478L9.16894 9.97292H8.87078Z" fill="white"/>
<path d="M10.5466 9.97292L10.4546 9.68991L10.3626 9.97292H10.0655L10.306 10.1478L10.214 10.4308L10.4546 10.2559L10.6951 10.4308L10.6032 10.1478L10.8437 9.97292H10.5466Z" fill="white"/>
<path d="M3.0065 10.6915L2.91452 10.4075L2.82356 10.6915L2.52539 10.6905L2.76696 10.8654L2.67397 11.1494L2.91452 10.9735L3.15609 11.1494L3.0631 10.8654L3.30467 10.6905L3.0065 10.6915Z" fill="white"/>
<path d="M4.6823 10.6915L4.59032 10.4075L4.49834 10.6915L4.20119 10.6905L4.44174 10.8654L4.34976 11.1494L4.59032 10.9735L4.83087 11.1494L4.7389 10.8654L4.97945 10.6905L4.6823 10.6915Z" fill="white"/>
<path d="M6.35809 10.6915L6.26612 10.4075L6.17414 10.6915L5.87597 10.6905L6.11754 10.8654L6.02556 11.1494L6.26612 10.9735L6.50667 11.1494L6.41469 10.8654L6.65525 10.6905L6.35809 10.6915Z" fill="white"/>
<path d="M8.03288 10.6915L7.9409 10.4075L7.84993 10.6915L7.55177 10.6905L7.79333 10.8654L7.70035 11.1494L7.9409 10.9735L8.18247 11.1494L8.08948 10.8654L8.33104 10.6905L8.03288 10.6915Z" fill="white"/>
<path d="M9.70867 10.6915L9.6167 10.4075L9.52472 10.6915L9.22756 10.6905L9.46812 10.8654L9.37614 11.1494L9.6167 10.9735L9.85725 11.1494L9.76527 10.8654L10.0068 10.6905L9.70867 10.6915Z" fill="white"/>
<path d="M11.4411 10.8654L11.6816 10.6905L11.3845 10.6915L11.2925 10.4075L11.2005 10.6915L10.9023 10.6905L11.1439 10.8654L11.0519 11.1494L11.2925 10.9735L11.533 11.1494L11.4411 10.8654Z" fill="white"/>
<path d="M3.75242 11.0898L3.66044 11.3728H3.36329L3.60384 11.5476L3.51187 11.8306L3.75242 11.6558L3.99298 11.8306L3.901 11.5476L4.14256 11.3728H3.8444L3.75242 11.0898Z" fill="white"/>
<path d="M5.52019 11.3728L5.42822 11.0898L5.33624 11.3728H5.03908L5.27964 11.5476L5.18766 11.8306L5.42822 11.6558L5.66877 11.8306L5.5768 11.5476L5.81735 11.3728H5.52019Z" fill="white"/>
<path d="M7.19498 11.3728L7.10401 11.0898L7.01204 11.3728H6.71387L6.95544 11.5476L6.86245 11.8306L7.10401 11.6558L7.34457 11.8306L7.25259 11.5476L7.49315 11.3728H7.19498Z" fill="white"/>
<path d="M8.87078 11.3728L8.7788 11.0898L8.68783 11.3728H8.38967L8.63022 11.5476L8.53824 11.8306L8.7788 11.6558L9.01935 11.8306L8.92738 11.5476L9.16894 11.3728H8.87078Z" fill="white"/>
<path d="M10.5466 11.3728L10.4546 11.0898L10.3626 11.3728H10.0655L10.306 11.5476L10.214 11.8306L10.4546 11.6558L10.6951 11.8306L10.6032 11.5476L10.8437 11.3728H10.5466Z" fill="white"/>
<path d="M3.0065 12.0914L2.91452 11.8074L2.82356 12.0914L2.52539 12.0904L2.76696 12.2653L2.67397 12.5483L2.91452 12.3734L3.15609 12.5483L3.0631 12.2653L3.30467 12.0904L3.0065 12.0914Z" fill="white"/>
<path d="M4.6823 12.0914L4.59032 11.8074L4.49834 12.0914L4.20119 12.0904L4.44174 12.2653L4.34976 12.5483L4.59032 12.3734L4.83087 12.5483L4.7389 12.2653L4.97945 12.0904L4.6823 12.0914Z" fill="white"/>
<path d="M6.35809 12.0914L6.26612 11.8074L6.17414 12.0914L5.87597 12.0904L6.11754 12.2653L6.02556 12.5483L6.26612 12.3734L6.50667 12.5483L6.41469 12.2653L6.65525 12.0904L6.35809 12.0914Z" fill="white"/>
<path d="M8.03288 12.0914L7.9409 11.8074L7.84993 12.0914L7.55177 12.0904L7.79333 12.2653L7.70035 12.5483L7.9409 12.3734L8.18247 12.5483L8.08948 12.2653L8.33104 12.0904L8.03288 12.0914Z" fill="white"/>
<path d="M9.70867 12.0914L9.6167 11.8074L9.52472 12.0914L9.22756 12.0904L9.46812 12.2653L9.37614 12.5483L9.6167 12.3734L9.85725 12.5483L9.76527 12.2653L10.0068 12.0904L9.70867 12.0914Z" fill="white"/>
<path d="M11.4411 12.2653L11.6816 12.0904L11.3845 12.0914L11.2925 11.8074L11.2005 12.0914L10.9023 12.0904L11.1439 12.2653L11.0519 12.5483L11.2925 12.3734L11.533 12.5483L11.4411 12.2653Z" fill="white"/>
</g>
<defs>
<clipPath id="clip0_1692_54049">
<rect x="2.04688" y="5.77002" width="19.9551" height="13.2998" rx="1" fill="white"/>
</clipPath>
</defs>
</svg>
