<svg width="25" height="25" viewBox="0 0 25 25" fill="none" xmlns="http://www.w3.org/2000/svg">
<g clip-path="url(#clip0_1692_54027)">
<path d="M2.04883 5.77002H21.9983V19.0697H2.04883V5.77002Z" fill="white"/>
<path d="M9.43754 7.24902H21.9983V8.72677H9.43754V7.24902Z" fill="#0038A8"/>
<path d="M9.43754 10.2045H21.9983V11.6822H9.43754V10.2045Z" fill="#0038A8"/>
<path d="M2.04883 13.16H21.9983V14.6377H2.04883V13.16Z" fill="#0038A8"/>
<path d="M2.04883 16.1155H21.9983V17.5932H2.04883V16.1155Z" fill="#0038A8"/>
<path d="M5.34738 8.83685L4.91611 8.75153C5.11251 7.52638 4.3744 7.65614 4.71346 6.98779C4.70591 7.60681 5.13415 7.36276 5.50744 8.26396" fill="#FCD116"/>
<path d="M5.11076 9.8587L5.02544 10.29C3.80028 10.0936 3.93005 10.8317 3.2617 10.4926C3.88072 10.5002 3.58717 10.0928 4.48836 9.71955" fill="#FCD116"/>
<path d="M6.13259 10.0953L6.56387 10.1806C6.36746 11.4058 7.10558 11.276 6.76652 11.9444C6.77407 11.3254 6.36651 11.6121 5.99322 10.7109" fill="#FCD116"/>
<path d="M5.90732 8.74353L5.66269 8.37824C6.66788 7.65081 6.0542 7.22064 6.76654 6.98779C6.32349 7.42017 6.82254 7.49147 6.44926 8.39267" fill="#FCD116"/>
<path d="M5.01742 9.29877L4.65214 9.5434C3.9247 8.53821 3.49454 9.15189 3.26169 8.43955C3.69406 8.8826 3.76489 8.38181 4.66609 8.7551" fill="#FCD116"/>
<path d="M6.36924 9.07347L6.45456 8.6422C7.67971 8.8386 7.54995 8.10049 8.2183 8.43954C7.59928 8.432 7.87506 8.84137 6.97386 9.21466" fill="#FCD116"/>
<path d="M6.46254 9.6334L6.82782 9.38877C7.55526 10.394 7.98542 9.78028 8.21827 10.4926C7.78589 10.0496 7.70473 10.5453 6.80353 10.1721" fill="#FCD116"/>
<path d="M5.57266 10.1886L5.81729 10.5539C4.8121 11.2814 5.42578 11.7115 4.71344 11.9444C5.15649 11.512 4.65488 11.4453 5.02816 10.5441" fill="#FCD116"/>
<path fill-rule="evenodd" clip-rule="evenodd" d="M6.55444 11.3125C6.39317 11.095 6.18096 10.8088 6.05556 10.2965L6.10294 10.2849C6.226 10.7877 6.43345 11.0674 6.59376 11.2836C6.59745 11.2886 6.60111 11.2935 6.60475 11.2984C6.68536 11.4072 6.75511 11.5031 6.79229 11.605C6.80642 11.6436 6.81581 11.6831 6.81956 11.7242C6.82225 11.7538 6.82203 11.7842 6.81858 11.8159C6.81397 11.8583 6.80357 11.9031 6.7866 11.951L6.74062 11.9348C6.78444 11.8109 6.78018 11.714 6.74647 11.6217C6.71215 11.5277 6.64708 11.4375 6.56556 11.3275C6.56189 11.3225 6.55818 11.3175 6.55444 11.3125Z" fill="#7B3F00"/>
<path fill-rule="evenodd" clip-rule="evenodd" d="M6.58876 10.1598L6.11049 10.0652L6.10103 10.113L6.12543 10.1179L6.09498 10.2868L6.10295 10.2848C6.22619 10.7877 6.43266 11.0662 6.59337 11.2829L6.60489 11.2984C6.68599 11.408 6.75497 11.5025 6.79232 11.605C6.80673 11.6439 6.81577 11.6844 6.8193 11.7254C6.81209 11.7597 6.80084 11.7967 6.78477 11.8374C6.77673 11.7371 6.75431 11.6635 6.71957 11.6035C6.67395 11.5247 6.60834 11.4717 6.53503 11.4129L6.53111 11.4098C6.4583 11.3514 6.37575 11.2852 6.28847 11.1797C6.19964 11.0723 6.10536 10.9234 6.01284 10.7L6.00351 10.6775L5.95845 10.6962L5.96778 10.7187C6.0619 10.9459 6.15855 11.0992 6.25089 11.2108C6.34137 11.3202 6.42718 11.389 6.50008 11.4474L6.50452 11.451C6.57881 11.5105 6.63701 11.5583 6.67736 11.628C6.71738 11.6971 6.74108 11.7904 6.73923 11.9426L6.73795 12.0474L6.78536 11.9539C6.87162 11.7839 6.89107 11.6612 6.87135 11.5533C6.85414 11.459 6.80706 11.3782 6.7563 11.2911C6.74988 11.2801 6.7434 11.2689 6.73691 11.2577C6.67859 11.1564 6.61679 11.0394 6.5813 10.8725C6.54576 10.7055 6.5363 10.487 6.58503 10.183L6.58876 10.1598ZM6.12543 10.1179L6.53324 10.1985C6.48789 10.4952 6.4975 10.713 6.53359 10.8827C6.57065 11.0569 6.63537 11.179 6.69464 11.282C6.7012 11.2934 6.70765 11.3045 6.71396 11.3153L6.71398 11.3154L6.71399 11.3154C6.76534 11.4037 6.80779 11.4767 6.82338 11.562C6.83214 11.61 6.83242 11.6625 6.81956 11.7242C6.82225 11.7538 6.82203 11.7842 6.81858 11.8159C6.89954 11.5864 6.82764 11.4626 6.73505 11.3033C6.61396 11.0949 6.45748 10.8256 6.56111 10.1791L6.12976 10.0938L6.12543 10.1179Z" fill="#7B3F00"/>
<path d="M6.71399 11.3154C6.76534 11.4037 6.80779 11.4767 6.82338 11.562C6.83214 11.61 6.83242 11.6625 6.81956 11.7242C6.82225 11.7538 6.82203 11.7842 6.81858 11.8159C6.89954 11.5864 6.82764 11.4626 6.73505 11.3033C6.61396 11.0949 6.45748 10.8256 6.56111 10.1791L6.12976 10.0938L6.12543 10.1179L6.53324 10.1985C6.48789 10.4952 6.4975 10.713 6.53359 10.8827C6.57065 11.0569 6.63537 11.179 6.69464 11.282C6.7012 11.2934 6.70765 11.3045 6.71396 11.3153L6.71398 11.3154L6.71399 11.3154Z" fill="#7B3F00"/>
<path fill-rule="evenodd" clip-rule="evenodd" d="M3.88923 10.282C4.10671 10.1207 4.39286 9.90851 4.90518 9.7831L4.91678 9.83048C4.41403 9.95354 4.13427 10.161 3.91809 10.3213C3.91311 10.325 3.90817 10.3287 3.90326 10.3323C3.79448 10.4129 3.69857 10.4827 3.59673 10.5198C3.55804 10.534 3.51863 10.5433 3.47746 10.5471C3.44792 10.5498 3.41748 10.5496 3.38574 10.5461C3.34333 10.5415 3.29861 10.5311 3.25065 10.5141L3.26692 10.4682C3.39074 10.512 3.48769 10.5077 3.58001 10.474C3.67401 10.4397 3.76421 10.3746 3.87423 10.2931C3.87919 10.2894 3.88419 10.2857 3.88923 10.282Z" fill="#7B3F00"/>
<path fill-rule="evenodd" clip-rule="evenodd" d="M5.04188 10.3163L5.1365 9.83804L5.08865 9.82857L5.08382 9.85297L4.91485 9.82252L4.91684 9.8305C4.41397 9.95373 4.13553 10.1602 3.91879 10.3209L3.90325 10.3324C3.79369 10.4135 3.69918 10.4825 3.59666 10.5199C3.55779 10.5343 3.51728 10.5433 3.47625 10.5468C3.44203 10.5396 3.40497 10.5284 3.36431 10.5123C3.46444 10.5043 3.53761 10.4819 3.59716 10.4471C3.67537 10.4015 3.72752 10.3358 3.78543 10.2626L3.78789 10.2594C3.84556 10.1865 3.91098 10.1037 4.01623 10.0162C4.12298 9.92738 4.27142 9.83313 4.49478 9.74061L4.51731 9.73128L4.49865 9.68622L4.47612 9.69555C4.24888 9.78967 4.09607 9.88632 3.98505 9.97867C3.87586 10.0695 3.80781 10.1556 3.75006 10.2286L3.74717 10.2323C3.68844 10.3066 3.64159 10.3647 3.57258 10.405C3.50413 10.4449 3.41128 10.4686 3.25908 10.4668L3.1543 10.4655L3.24775 10.5129C3.4178 10.5992 3.54053 10.6186 3.64843 10.5989C3.74265 10.5817 3.82346 10.5346 3.91061 10.4838L3.91065 10.4838C3.92166 10.4774 3.93277 10.4709 3.94402 10.4645C4.04532 10.4061 4.16225 10.3443 4.32914 10.3088C4.49618 10.2733 4.71469 10.2638 5.01866 10.3126L5.04188 10.3163ZM3.47746 10.5471C3.53919 10.56 3.59172 10.5597 3.63966 10.5509C3.72494 10.5353 3.79796 10.4929 3.88629 10.4415C3.89717 10.4352 3.90829 10.4287 3.91968 10.4222C4.02264 10.3629 4.14475 10.2982 4.31899 10.2611C4.48868 10.225 4.70646 10.2154 5.00315 10.2608L5.08382 9.85297L5.10787 9.8573L5.02259 10.2886C4.37606 10.185 4.10677 10.3415 3.89839 10.4626C3.73904 10.5552 3.61531 10.6271 3.38574 10.5461C3.41748 10.5496 3.44792 10.5498 3.47746 10.5471Z" fill="#7B3F00"/>
<path d="M3.88629 10.4415C3.79796 10.4929 3.72494 10.5353 3.63966 10.5509C3.59172 10.5597 3.53919 10.56 3.47746 10.5471C3.44792 10.5498 3.41748 10.5496 3.38574 10.5461C3.61531 10.6271 3.73904 10.5552 3.89839 10.4626C4.10677 10.3415 4.37606 10.185 5.02259 10.2886L5.10787 9.8573L5.08382 9.85297L5.00315 10.2608C4.70646 10.2154 4.48868 10.225 4.31899 10.2611C4.14475 10.2982 4.02264 10.3629 3.91968 10.4222C3.90829 10.4287 3.89717 10.4352 3.88629 10.4415Z" fill="#7B3F00"/>
<path fill-rule="evenodd" clip-rule="evenodd" d="M7.62166 10.1933C7.35384 10.1535 7.00145 10.1012 6.55051 9.82764L6.57581 9.78594C7.01832 10.0544 7.36283 10.1055 7.62906 10.1451C7.63518 10.146 7.64127 10.1469 7.64731 10.1478C7.78123 10.1677 7.89837 10.1862 7.99667 10.2319C8.03402 10.2493 8.06852 10.2705 8.10029 10.297C8.12307 10.3159 8.14445 10.3376 8.16445 10.3625C8.19118 10.3958 8.21545 10.4347 8.23736 10.4806L8.19335 10.5017C8.13678 10.3831 8.06521 10.3176 7.9761 10.2761C7.88536 10.2339 7.77556 10.2162 7.64013 10.196C7.63402 10.1951 7.62786 10.1942 7.62166 10.1933Z" fill="#7B3F00"/>
<path fill-rule="evenodd" clip-rule="evenodd" d="M6.83087 9.35395L6.42579 9.62523L6.45293 9.66576L6.47359 9.65192L6.57154 9.79293L6.57578 9.78589C7.0185 10.0543 7.36139 10.1052 7.62829 10.1448L7.64741 10.1477C7.78223 10.1678 7.89784 10.1859 7.99674 10.2319C8.03442 10.2492 8.06945 10.2715 8.10096 10.298C8.12007 10.3273 8.13831 10.3615 8.1557 10.4016C8.07919 10.3365 8.01156 10.3006 7.94482 10.2831C7.85718 10.26 7.77379 10.2696 7.68096 10.2805L7.67703 10.2809C7.58457 10.2918 7.47969 10.3041 7.34329 10.2916C7.20496 10.2789 7.03331 10.2406 6.80995 10.148L6.78742 10.1387L6.76876 10.1838L6.79129 10.1931C7.01853 10.2872 7.19497 10.3269 7.33884 10.3401C7.48033 10.3531 7.58943 10.3403 7.68201 10.3295L7.68663 10.3289C7.78079 10.3179 7.85508 10.3099 7.93243 10.3302C8.00915 10.3504 8.0916 10.3993 8.1979 10.5082L8.27109 10.5832L8.23853 10.4836C8.17929 10.3023 8.10626 10.2018 8.01602 10.1394C7.93722 10.085 7.84679 10.0611 7.74927 10.0354L7.74925 10.0354L7.74916 10.0354L7.7491 10.0354C7.73682 10.0321 7.72443 10.0289 7.71194 10.0255C7.59907 9.99511 7.47269 9.95612 7.32958 9.86321C7.18634 9.77022 7.02515 9.6224 6.84466 9.373L6.83087 9.35395ZM6.47359 9.65192L6.81901 9.4206C6.99673 9.66246 7.15752 9.80966 7.30303 9.90412C7.45244 10.0011 7.58455 10.0417 7.69926 10.0726C7.71196 10.076 7.72439 10.0793 7.73655 10.0825C7.83532 10.1087 7.91698 10.1303 7.9883 10.1796C8.02839 10.2073 8.06574 10.2442 8.10029 10.297C8.12307 10.3159 8.14445 10.3376 8.16445 10.3625C8.05937 10.1429 7.92104 10.1063 7.74289 10.0591C7.50992 9.99736 7.20886 9.91758 6.82497 9.38715L6.45965 9.63185L6.47359 9.65192Z" fill="#7B3F00"/>
<path d="M7.73655 10.0825C7.83532 10.1087 7.91698 10.1303 7.9883 10.1796C8.02839 10.2073 8.06574 10.2442 8.10029 10.297C8.12307 10.3159 8.14445 10.3376 8.16445 10.3625C8.05937 10.1429 7.92104 10.1063 7.74289 10.0591C7.50992 9.99736 7.20886 9.91758 6.82497 9.38715L6.45965 9.63185L6.47359 9.65192L6.81901 9.4206C6.99673 9.66246 7.15752 9.80966 7.30303 9.90412C7.45244 10.0011 7.58455 10.0417 7.69926 10.0726C7.71196 10.076 7.72439 10.0793 7.73655 10.0825Z" fill="#7B3F00"/>
<path fill-rule="evenodd" clip-rule="evenodd" d="M5.00841 11.3492C5.04815 11.0814 5.10044 10.729 5.37404 10.2781L5.41572 10.3034C5.14724 10.7459 5.09611 11.0904 5.05661 11.3566C5.0557 11.3627 5.0548 11.3688 5.0539 11.3749C5.03397 11.5088 5.01547 11.6259 4.96975 11.7242C4.95237 11.7616 4.93114 11.7961 4.90466 11.8279C4.88568 11.8507 4.86401 11.872 4.83913 11.892C4.80589 11.9187 4.76692 11.943 4.72102 11.9649L4.70002 11.9209C4.81856 11.8643 4.8841 11.7928 4.92554 11.7037C4.96775 11.6129 4.98552 11.5031 5.00567 11.3677C5.00658 11.3616 5.00749 11.3554 5.00841 11.3492Z" fill="#7B3F00"/>
<path fill-rule="evenodd" clip-rule="evenodd" d="M5.84771 10.5584L5.57643 10.1533L5.53592 10.1805L5.54976 10.2011L5.40874 10.2991L5.41578 10.3033C5.14734 10.746 5.09645 11.0889 5.05683 11.3558L5.05399 11.375C5.03387 11.5098 5.01581 11.6254 4.96974 11.7243C4.95243 11.762 4.93017 11.797 4.90365 11.8285C4.87437 11.8476 4.84025 11.8658 4.80017 11.8832C4.86505 11.8071 4.90061 11.7403 4.91771 11.6746C4.94019 11.5882 4.92982 11.5065 4.91823 11.4155L4.91791 11.4131C4.90632 11.3221 4.89314 11.2187 4.90517 11.083C4.91731 10.9461 4.95525 10.7753 5.04777 10.552L5.0571 10.5294L5.01205 10.5108L5.00272 10.5333C4.9086 10.7605 4.86925 10.9361 4.85661 11.0787C4.84411 11.2196 4.85784 11.3274 4.86946 11.4185L4.86986 11.4217C4.88163 11.5141 4.89026 11.5864 4.87052 11.6623C4.85094 11.7376 4.80248 11.8191 4.69349 11.9255L4.61852 11.9986L4.71809 11.9661C4.89933 11.9068 4.99986 11.8338 5.06222 11.7436C5.11667 11.6648 5.14052 11.5743 5.16625 11.4768C5.1695 11.4645 5.17279 11.452 5.17617 11.4395C5.20655 11.3266 5.24554 11.2002 5.33845 11.0571C5.43144 10.9139 5.57926 10.7527 5.82866 10.5722L5.84771 10.5584ZM4.90466 11.8279C4.95743 11.7933 4.99439 11.756 5.0221 11.7159C5.07139 11.6445 5.09301 11.5629 5.11915 11.4641C5.12238 11.4519 5.12567 11.4395 5.12908 11.4268C5.15997 11.3121 5.20055 11.18 5.29755 11.0306C5.39202 10.8851 5.53922 10.7243 5.78108 10.5466L5.54976 10.2011L5.56982 10.1872L5.81452 10.5525C5.28408 10.9364 5.20431 11.2375 5.14259 11.4704C5.09538 11.6486 5.05873 11.7869 4.83913 11.892C4.86401 11.872 4.88568 11.8507 4.90466 11.8279Z" fill="#7B3F00"/>
<path d="M5.11915 11.4641C5.09301 11.5629 5.07139 11.6445 5.0221 11.7159C4.99439 11.756 4.95743 11.7933 4.90466 11.8279C4.88568 11.8507 4.86401 11.872 4.83913 11.892C5.05873 11.7869 5.09538 11.6486 5.14259 11.4704C5.20431 11.2375 5.28408 10.9364 5.81452 10.5525L5.56982 10.1872L5.54976 10.2011L5.78108 10.5466C5.53922 10.7243 5.39202 10.8851 5.29755 11.0306C5.20055 11.18 5.15997 11.3121 5.12908 11.4268C5.12567 11.4395 5.12238 11.4519 5.11915 11.4641Z" fill="#7B3F00"/>
<path fill-rule="evenodd" clip-rule="evenodd" d="M3.85247 8.73596C4.12029 8.7757 4.47268 8.82798 4.92362 9.10158L4.89832 9.14328C4.45581 8.87479 4.1113 8.82367 3.84508 8.78416C3.83895 8.78325 3.83287 8.78235 3.82682 8.78145C3.69291 8.76153 3.57576 8.74303 3.47746 8.69731C3.44011 8.67994 3.40561 8.65871 3.37384 8.63225C3.35106 8.61327 3.32968 8.59159 3.30968 8.5667C3.28296 8.53346 3.25868 8.49449 3.23677 8.44857L3.28078 8.42756C3.33736 8.5461 3.40892 8.61164 3.49803 8.65309C3.58877 8.69529 3.69857 8.71306 3.834 8.73321C3.84011 8.73412 3.84627 8.73503 3.85247 8.73596Z" fill="#7B3F00"/>
<path fill-rule="evenodd" clip-rule="evenodd" d="M4.64326 9.57527L5.04834 9.30399L5.0212 9.26346L5.00054 9.2773L4.90259 9.13629L4.89835 9.14333C4.45563 8.87489 4.11275 8.824 3.84585 8.78438L3.82672 8.78154C3.6919 8.76142 3.57629 8.74336 3.47739 8.69729C3.43971 8.67999 3.40468 8.65774 3.37317 8.63122C3.35408 8.60193 3.33584 8.5678 3.31846 8.5277C3.39467 8.59263 3.46174 8.62824 3.52776 8.64539C3.61452 8.66794 3.69671 8.65769 3.78821 8.6462L3.79091 8.64586C3.88234 8.63438 3.98623 8.62133 4.12219 8.63343C4.2595 8.64564 4.43049 8.68363 4.65384 8.77615L4.67637 8.78548L4.69504 8.74042L4.67251 8.73109C4.44527 8.63696 4.26945 8.59756 4.12651 8.58485C3.98532 8.57228 3.87713 8.58587 3.78554 8.59738L3.78213 8.59781C3.68923 8.60947 3.61631 8.61802 3.54003 8.59819C3.46436 8.57852 3.38258 8.53001 3.27623 8.42104L3.20304 8.34604L3.2356 8.44565C3.29484 8.62688 3.36787 8.72742 3.45811 8.78977C3.53691 8.84423 3.62734 8.86808 3.72486 8.89381C3.73719 8.89706 3.74964 8.90034 3.76219 8.90372C3.87506 8.93411 4.00144 8.9731 4.14455 9.06601C4.28779 9.159 4.44899 9.30682 4.62947 9.55622L4.64326 9.57527ZM3.37384 8.63225C3.40839 8.685 3.44574 8.72194 3.48583 8.74965C3.55715 8.79893 3.63881 8.82055 3.73758 8.8467C3.74975 8.84992 3.76217 8.85321 3.77487 8.85663C3.88958 8.88751 4.02169 8.9281 4.1711 9.0251C4.31661 9.11956 4.4774 9.26676 4.65513 9.50862L5.00054 9.2773L5.01448 9.29737L4.64917 9.54207C4.26528 9.01163 3.96421 8.93186 3.73124 8.87014C3.55309 8.82293 3.41476 8.78628 3.30968 8.5667C3.32968 8.59159 3.35106 8.61327 3.37384 8.63225Z" fill="#7B3F00"/>
<path d="M3.73758 8.8467C3.63881 8.82055 3.55715 8.79893 3.48583 8.74965C3.44574 8.72194 3.40839 8.685 3.37384 8.63225C3.35106 8.61327 3.32968 8.59159 3.30968 8.5667C3.41476 8.78628 3.55309 8.82293 3.73124 8.87014C3.96421 8.93186 4.26528 9.01163 4.64917 9.54207L5.01448 9.29737L5.00054 9.2773L4.65513 9.50862C4.4774 9.26676 4.31661 9.11956 4.1711 9.0251C4.02169 8.9281 3.88958 8.88751 3.77487 8.85663C3.76217 8.85321 3.74975 8.84992 3.73758 8.8467Z" fill="#7B3F00"/>
<path fill-rule="evenodd" clip-rule="evenodd" d="M4.9197 7.61677C5.08097 7.83425 5.29317 8.1204 5.41858 8.63272L5.3712 8.64432C5.24814 8.14156 5.04069 7.86181 4.88038 7.64563C4.87669 7.64065 4.87302 7.63571 4.86939 7.6308C4.78878 7.52202 4.71903 7.42611 4.68185 7.32427C4.66772 7.28558 4.65833 7.24617 4.65458 7.205C4.65189 7.17546 4.65211 7.14502 4.65556 7.11328C4.66017 7.07087 4.67057 7.02615 4.68754 6.97819L4.73352 6.99446C4.6897 7.11828 4.69396 7.21523 4.72767 7.30754C4.76199 7.40155 4.82706 7.49175 4.90857 7.60177C4.91225 7.60673 4.91596 7.61173 4.9197 7.61677Z" fill="#7B3F00"/>
<path fill-rule="evenodd" clip-rule="evenodd" d="M4.88538 8.76942L5.36364 8.86403L5.37311 8.81619L5.34871 8.81136L5.37916 8.64239L5.37119 8.64438C5.24795 8.14151 5.04148 7.86306 4.88077 7.64632L4.86925 7.63079C4.78815 7.52123 4.71917 7.42671 4.68181 7.3242C4.6674 7.28533 4.65837 7.24482 4.65483 7.20379C4.66207 7.16946 4.67336 7.13229 4.68952 7.09148C4.69796 7.19326 4.72155 7.26919 4.75776 7.33228C4.80513 7.4148 4.87298 7.47305 4.94897 7.53722L4.95684 7.54387C5.10707 7.67063 5.30061 7.83396 5.48198 8.27182L5.49131 8.29435L5.53637 8.27569L5.52704 8.25316C5.34116 7.80441 5.14086 7.63536 4.98748 7.5059L4.98044 7.49996C4.90365 7.43512 4.84253 7.38199 4.80006 7.308C4.75796 7.23467 4.73306 7.13854 4.73491 6.98662L4.73619 6.88184L4.68878 6.97529C4.60252 7.14534 4.58307 7.26807 4.60278 7.37596C4.62 7.47019 4.66708 7.551 4.71784 7.63815C4.72426 7.64917 4.73074 7.66029 4.73723 7.67156C4.79555 7.77285 4.85735 7.88979 4.89284 8.05668C4.92838 8.22372 4.93783 8.44223 4.8891 8.7462L4.88538 8.76942ZM4.65458 7.205C4.64172 7.26673 4.642 7.31925 4.65076 7.3672C4.66635 7.45248 4.7088 7.5255 4.76015 7.61383L4.76016 7.61386C4.76648 7.62473 4.77294 7.63584 4.7795 7.64722C4.83877 7.75017 4.90349 7.87228 4.94055 8.04653C4.97664 8.21622 4.98625 8.434 4.9409 8.73069L5.34871 8.81136L5.34438 8.83541L4.91303 8.75012C5.01666 8.1036 4.86018 7.83431 4.73909 7.62593C4.6465 7.46657 4.5746 7.34285 4.65556 7.11328C4.65211 7.14502 4.65189 7.17546 4.65458 7.205Z" fill="#7B3F00"/>
<path d="M4.76015 7.61383C4.7088 7.5255 4.66635 7.45248 4.65076 7.3672C4.642 7.31925 4.64172 7.26673 4.65458 7.205C4.65189 7.17546 4.65211 7.14502 4.65556 7.11328C4.5746 7.34285 4.6465 7.46657 4.73909 7.62593C4.86018 7.83431 5.01666 8.1036 4.91303 8.75012L5.34438 8.83541L5.34871 8.81136L4.9409 8.73069C4.98625 8.434 4.97664 8.21622 4.94055 8.04653C4.90349 7.87228 4.83877 7.75017 4.7795 7.64722C4.77294 7.63584 4.76648 7.62473 4.76016 7.61386L4.76015 7.61383Z" fill="#7B3F00"/>
<path fill-rule="evenodd" clip-rule="evenodd" d="M6.46573 7.58002C6.42598 7.84784 6.3737 8.20022 6.1001 8.65116L6.0584 8.62586C6.32689 8.18335 6.37801 7.83884 6.41752 7.57262C6.41843 7.56649 6.41933 7.56041 6.42023 7.55436C6.44016 7.42045 6.45865 7.3033 6.50437 7.205C6.52174 7.16766 6.54297 7.13315 6.56943 7.10138C6.58841 7.0786 6.61009 7.05722 6.63498 7.03722C6.66822 7.0105 6.70719 6.98622 6.75311 6.96431L6.77412 7.00833C6.65558 7.0649 6.59004 7.13647 6.54859 7.22557C6.50639 7.31631 6.48862 7.42611 6.46847 7.56154C6.46756 7.56765 6.46665 7.57381 6.46573 7.58002Z" fill="#7B3F00"/>
<path fill-rule="evenodd" clip-rule="evenodd" d="M5.62641 8.3708L5.89769 8.77588L5.93822 8.74874L5.92438 8.72808L6.06539 8.63013L6.05835 8.62589C6.32679 8.18317 6.37768 7.84029 6.4173 7.57339L6.42014 7.55426C6.44026 7.41944 6.45832 7.30383 6.50439 7.20493C6.52169 7.16725 6.54394 7.13222 6.57046 7.10071C6.59974 7.08162 6.63387 7.06339 6.67396 7.04601C6.609 7.12223 6.57331 7.1893 6.55603 7.25533C6.53331 7.34213 6.54333 7.42436 6.5546 7.51593L6.55498 7.51897C6.56624 7.61038 6.57903 7.71425 6.56679 7.85011C6.55441 7.98748 6.51632 8.1585 6.4238 8.38186L6.41446 8.40439L6.45952 8.42306L6.46886 8.40053C6.56298 8.17329 6.60248 7.99746 6.61537 7.85448C6.62808 7.71343 6.61475 7.60528 6.60347 7.51371L6.60301 7.50997C6.59157 7.41702 6.58323 7.34403 6.60321 7.26768C6.62303 7.19195 6.67167 7.11012 6.78065 7.00377L6.85564 6.93058L6.75604 6.96314C6.5748 7.02238 6.47426 7.09541 6.41191 7.18565C6.35746 7.26445 6.3336 7.35488 6.30787 7.4524C6.30462 7.46473 6.30134 7.47718 6.29796 7.48973C6.26757 7.6026 6.22858 7.72898 6.13568 7.87209C6.04268 8.01533 5.89486 8.17653 5.64546 8.35701L5.62641 8.3708ZM5.92438 8.72808L5.69306 8.38267C5.93492 8.20494 6.08212 8.04416 6.17658 7.89865C6.27358 7.74923 6.31417 7.61712 6.34505 7.50241C6.34847 7.48973 6.35175 7.47733 6.35497 7.46518L6.35498 7.46512C6.38113 7.36635 6.40275 7.2847 6.45203 7.21338C6.47974 7.17328 6.51668 7.13594 6.56943 7.10138C6.58841 7.0786 6.61009 7.05722 6.63498 7.03722C6.4154 7.1423 6.37875 7.28063 6.33154 7.45879C6.26982 7.69175 6.19005 7.99282 5.65961 8.37671L5.90431 8.74202L5.92438 8.72808Z" fill="#7B3F00"/>
<path d="M6.35498 7.46512C6.38113 7.36635 6.40275 7.2847 6.45203 7.21338C6.47974 7.17328 6.51668 7.13594 6.56943 7.10138C6.58841 7.0786 6.61009 7.05722 6.63498 7.03722C6.4154 7.1423 6.37875 7.28063 6.33154 7.45879C6.26982 7.69175 6.19005 7.99282 5.65961 8.37671L5.90431 8.74202L5.92438 8.72808L5.69306 8.38267C5.93492 8.20494 6.08212 8.04416 6.17658 7.89865C6.27358 7.74923 6.31417 7.61712 6.34505 7.50241C6.34847 7.48973 6.35175 7.47733 6.35497 7.46518L6.35498 7.46512Z" fill="#7B3F00"/>
<path fill-rule="evenodd" clip-rule="evenodd" d="M7.5849 8.64723C7.36742 8.80851 7.08127 9.02071 6.56895 9.14611L6.55735 9.09874C7.06011 8.97568 7.33986 8.76823 7.55604 8.60791C7.56102 8.60422 7.56596 8.60056 7.57087 8.59692C7.67965 8.51632 7.77556 8.44657 7.8774 8.40939C7.91609 8.39526 7.9555 8.38587 7.99667 8.38212C8.02621 8.37943 8.05665 8.37964 8.08839 8.3831C8.13079 8.38771 8.17552 8.3981 8.22348 8.41507L8.20721 8.46105C8.08339 8.41724 7.98644 8.4215 7.89413 8.4552C7.80012 8.48952 7.70992 8.5546 7.5999 8.63611C7.59494 8.63979 7.58994 8.6435 7.5849 8.64723Z" fill="#7B3F00"/>
<path fill-rule="evenodd" clip-rule="evenodd" d="M6.43225 8.61292L6.33764 9.09118L6.38548 9.10065L6.39031 9.07625L6.55928 9.1067L6.55729 9.09872C7.06016 8.97549 7.33861 8.76902 7.55535 8.60831L7.57088 8.59679C7.68044 8.51569 7.77496 8.44671 7.87747 8.40935C7.91634 8.39494 7.95685 8.3859 7.99788 8.38237C8.03211 8.38959 8.06917 8.40083 8.10983 8.41691C8.00922 8.42498 7.93513 8.44751 7.87436 8.48234C7.7946 8.52806 7.74024 8.59379 7.68007 8.66737L7.67592 8.67244C7.61642 8.74523 7.54904 8.82764 7.44302 8.91468C7.33456 9.00372 7.18495 9.09812 6.96158 9.19065L6.93905 9.19998L6.95771 9.24504L6.98024 9.23571C7.20747 9.14159 7.36134 9.04484 7.47397 8.95237C7.58377 8.86223 7.65372 8.77666 7.71327 8.70381L7.71782 8.69825C7.77873 8.62377 7.82782 8.56523 7.89861 8.52466C7.96884 8.4844 8.06291 8.46059 8.21505 8.46245L8.31983 8.46373L8.22638 8.41632C8.05633 8.33005 7.9336 8.3106 7.82571 8.33032C7.73148 8.34754 7.65067 8.39461 7.56352 8.44538L7.5635 8.44539C7.55249 8.45181 7.54137 8.45828 7.53011 8.46476C7.42882 8.52309 7.31188 8.58488 7.14499 8.62038C6.97795 8.65591 6.75944 8.66537 6.45547 8.61664L6.43225 8.61292ZM6.39031 9.07625L6.47098 8.66844C6.76767 8.71379 6.98545 8.70418 7.15514 8.66809C7.32939 8.63102 7.4515 8.56631 7.55445 8.50703C7.56584 8.50047 7.57696 8.49401 7.58784 8.48768C7.67617 8.43634 7.74919 8.39388 7.83447 8.3783C7.88242 8.36954 7.93495 8.36926 7.99667 8.38212C8.02621 8.37943 8.05665 8.37964 8.08839 8.3831C7.85882 8.30214 7.7351 8.37403 7.57574 8.46663C7.36736 8.58771 7.09807 8.7442 6.45155 8.64057L6.36626 9.07192L6.39031 9.07625Z" fill="#7B3F00"/>
<path d="M7.58784 8.48768C7.67617 8.43634 7.74919 8.39388 7.83447 8.3783C7.88242 8.36954 7.93495 8.36926 7.99667 8.38212C8.02621 8.37943 8.05665 8.37964 8.08839 8.3831C7.85882 8.30214 7.7351 8.37403 7.57574 8.46663C7.36736 8.58771 7.09807 8.7442 6.45155 8.64057L6.36626 9.07192L6.39031 9.07625L6.47098 8.66844C6.76767 8.71379 6.98545 8.70418 7.15514 8.66809C7.32939 8.63102 7.4515 8.56631 7.55445 8.50703C7.56584 8.50047 7.57696 8.49401 7.58784 8.48768Z" fill="#7B3F00"/>
<path d="M5.73327 9.46569L5.3884 9.12081L3.83647 11.3625L6.07815 9.81056L5.73327 9.46569L3.83647 11.3625L5.73327 9.46569Z" fill="#FCD116"/>
<path d="M5.73327 9.46569L5.24554 9.46568L5.73326 12.1482L6.22099 9.46568L5.73327 9.46569Z" fill="#FCD116"/>
<path d="M5.73327 9.46569L5.73327 8.97796L3.05078 9.46569L5.73327 9.95341L5.73327 9.46569Z" fill="#FCD116"/>
<path d="M5.73327 9.46569L6.07815 9.12082L3.83648 7.56889L5.38841 9.81056L5.73327 9.46569Z" fill="#FCD116"/>
<path d="M5.73327 9.46569L6.22099 9.46568L5.73328 6.7832L5.24554 9.46568L5.73327 9.46569Z" fill="#FCD116"/>
<path d="M5.73327 9.46569L6.07815 9.81056L7.63008 7.56888L5.3884 9.12081L5.73327 9.46569Z" fill="#FCD116"/>
<path d="M5.73327 9.46569L5.73327 9.95341L8.41575 9.46569L5.73327 8.97796L5.73327 9.46569Z" fill="#FCD116"/>
<path d="M5.73327 9.46569L5.38841 9.81056L7.63007 11.3625L6.07815 9.12082L5.73327 9.46569Z" fill="#FCD116"/>
<path fill-rule="evenodd" clip-rule="evenodd" d="M5.38849 9.08252L5.71239 9.40641L6.11955 9.81358L3.74362 11.4585L5.38849 9.08252ZM5.70231 9.46529L5.39533 9.15831L4.01392 11.1537L5.70231 9.46529Z" fill="#7B3F00"/>
<path fill-rule="evenodd" clip-rule="evenodd" d="M6.25372 9.48968H5.21984L5.2938 9.0829L5.30312 9.03163L5.73678 6.64648L6.25372 9.48968ZM6.19528 9.44091L5.76117 7.05325L5.76116 9.40644L5.76117 9.44091H6.19528Z" fill="#7B3F00"/>
<path fill-rule="evenodd" clip-rule="evenodd" d="M6.08506 9.84806L5.35399 9.11699L7.72996 7.47208L6.08506 9.84806ZM6.07822 9.77225L7.45958 7.77696L5.77125 9.46528L6.07822 9.77225Z" fill="#7B3F00"/>
<path fill-rule="evenodd" clip-rule="evenodd" d="M5.7124 9.98223L5.71239 9.40641L5.7124 8.94834L8.55559 9.46529L5.7124 9.98223ZM5.76117 9.92379L8.14882 9.48967H5.76117V9.92379Z" fill="#7B3F00"/>
<path fill-rule="evenodd" clip-rule="evenodd" d="M5.354 9.81358L5.76116 9.40644L6.08507 9.08251L7.72998 11.4585L5.354 9.81358ZM5.42981 9.80675L7.4251 11.1881L5.73678 9.49978L5.42981 9.80675Z" fill="#7B3F00"/>
<path fill-rule="evenodd" clip-rule="evenodd" d="M5.21984 9.44091H6.25371L5.73678 12.2841L5.21984 9.44091ZM5.27827 9.48967L5.7124 11.8774V9.48967H5.27827Z" fill="#7B3F00"/>
<path fill-rule="evenodd" clip-rule="evenodd" d="M5.76116 9.47541L6.11957 9.11701L3.74359 7.4721L4.87691 9.10912L2.91797 9.46529L5.76116 9.98224V9.47541ZM4.9074 9.15315L4.87691 9.10912L5.30312 9.03163L5.2938 9.0829L4.9074 9.15315ZM4.9074 9.15315L5.10661 9.44091H3.32474L4.9074 9.15315ZM5.76116 9.40644L6.04376 9.12384L4.04847 7.74249L5.3323 9.02632L5.76116 8.94835V9.40644ZM5.37425 9.06827L5.71239 9.00679V9.40641L5.37425 9.06827Z" fill="#7B3F00"/>
<path d="M4.87691 9.10912L4.9074 9.15315L5.2938 9.0829L5.30312 9.03163L4.87691 9.10912Z" fill="#7B3F00"/>
<path d="M5.734 10.3596C6.22782 10.3596 6.62815 9.95927 6.62815 9.46544C6.62815 8.97161 6.22782 8.57129 5.734 8.57129C5.24017 8.57129 4.83984 8.97161 4.83984 9.46544C4.83984 9.95927 5.24017 10.3596 5.734 10.3596Z" fill="#FCD116"/>
<path fill-rule="evenodd" clip-rule="evenodd" d="M5.73494 8.59466C5.25457 8.59466 4.86516 8.98407 4.86516 9.46443C4.86516 9.94479 5.25457 10.3342 5.73494 10.3342C6.2153 10.3342 6.60471 9.94479 6.60471 9.46443C6.60471 8.98407 6.2153 8.59466 5.73494 8.59466ZM4.81641 9.46443C4.81641 8.95714 5.22765 8.5459 5.73494 8.5459C6.24223 8.5459 6.65347 8.95714 6.65347 9.46443C6.65347 9.97172 6.24223 10.383 5.73494 10.383C5.22765 10.383 4.81641 9.97172 4.81641 9.46443Z" fill="#7B3F00"/>
<path d="M6.39338 9.10679C6.33648 9.17182 6.30397 9.05802 6.10075 9.05802C5.89753 9.05802 5.86501 9.17995 5.8325 9.15557C5.79998 9.13118 6.0032 8.98486 6.06823 8.97673C6.13326 8.9686 6.32022 9.03363 6.39338 9.10679ZM6.15765 9.17995C6.21455 9.22872 6.16578 9.3344 6.10888 9.3344C6.05198 9.3344 5.9463 9.23685 5.99507 9.17182" fill="#7B3F00"/>
<path d="M5.88942 9.25311C5.89754 9.15557 5.97883 9.13931 6.10889 9.13931C6.23895 9.13931 6.29585 9.23685 6.34463 9.26124C6.28772 9.26124 6.23895 9.17995 6.10889 9.17995C5.97883 9.17995 5.97883 9.17995 5.88942 9.26124V9.25311ZM5.9138 9.2775C5.94632 9.22872 5.98696 9.32627 6.07638 9.32627C6.16579 9.32627 6.21457 9.30188 6.27147 9.26124C6.32837 9.2206 6.19018 9.35878 6.10076 9.35878C6.01135 9.35878 5.88942 9.31001 5.9138 9.2775Z" fill="#7B3F00"/>
<path d="M5.27976 9.17184C5.23911 9.18809 5.17408 9.26937 5.27976 9.32627C5.19847 9.26937 5.2635 9.18809 5.27976 9.17184Z" fill="#7B3F00"/>
<path d="M6.1902 9.17184C6.20646 9.18809 6.27149 9.26937 6.1902 9.32627C6.29587 9.26937 6.23084 9.18809 6.1902 9.17184Z" fill="#7B3F00"/>
<path d="M5.60492 9.52137C5.53176 9.53762 5.55613 9.6433 5.4911 9.65143C5.42607 9.65956 5.39357 9.73271 5.4017 9.72458C5.44234 9.69207 5.53176 9.66768 5.59679 9.66768C5.66182 9.66768 5.67808 9.70834 5.73498 9.70834C5.79188 9.70834 5.80814 9.66768 5.87317 9.66768C5.9382 9.66768 6.02762 9.69207 6.06826 9.72458C6.07639 9.73271 6.04389 9.65956 5.97886 9.65143C5.91383 9.6433 5.9382 9.53762 5.86504 9.52137C5.86504 9.55388 5.88941 9.54575 5.89754 9.59452C5.89754 9.63516 5.82439 9.63516 5.80814 9.59452C5.82439 9.65955 5.77563 9.65955 5.73498 9.65955C5.69434 9.65955 5.64557 9.65955 5.66183 9.59452C5.64557 9.63516 5.57242 9.63516 5.57242 9.59452C5.58055 9.54575 5.60492 9.55388 5.60492 9.52137Z" fill="#7B3F00"/>
<path d="M5.35293 9.79774C5.2879 9.84651 5.27165 9.8709 5.26352 9.9278C5.28302 9.89368 5.2926 9.87966 5.3074 9.8596C5.30348 9.85791 5.30012 9.85636 5.29606 9.85465C5.30079 9.85521 5.30503 9.85595 5.30959 9.85659C5.31942 9.84331 5.32815 9.83181 5.35293 9.79774Z" fill="#7B3F00"/>
<path d="M5.30959 9.85659C5.30936 9.85691 5.30879 9.85768 5.30856 9.85799C5.31872 9.86035 5.3295 9.86145 5.3408 9.86149C5.33087 9.85974 5.32044 9.8581 5.30959 9.85659Z" fill="#7B3F00"/>
<path d="M5.3408 9.86149C5.3915 9.87044 5.43129 9.8821 5.46777 9.8939C5.51327 9.89054 5.57603 9.87902 5.73499 9.87902C5.89396 9.87902 5.95671 9.89054 6.00221 9.8939C6.03869 9.8821 6.07849 9.87044 6.12918 9.86149C6.03961 9.86181 5.92022 9.79774 5.86506 9.79774C5.80003 9.79774 5.78377 9.81399 5.73499 9.81399C5.68622 9.81399 5.66996 9.79774 5.60493 9.79774C5.54977 9.79774 5.43038 9.86182 5.3408 9.86149Z" fill="#7B3F00"/>
<path d="M6.12918 9.86149C6.14049 9.86145 6.15127 9.86035 6.16143 9.85799C6.1612 9.85767 6.16063 9.8569 6.1604 9.85658C6.14955 9.8581 6.13911 9.85974 6.12918 9.86149Z" fill="#7B3F00"/>
<path d="M6.1604 9.85658C6.16496 9.85595 6.16919 9.85524 6.17393 9.85465C6.16987 9.85636 6.1665 9.85791 6.16259 9.85959C6.17739 9.87966 6.18697 9.89368 6.20646 9.9278C6.19833 9.8709 6.18209 9.84651 6.11706 9.79774C6.14183 9.8318 6.15057 9.84331 6.1604 9.85658Z" fill="#7B3F00"/>
<path d="M6.16259 9.85959C6.1625 9.85943 6.16227 9.85912 6.16217 9.85904C6.07733 9.89172 6.04747 9.89725 6.00221 9.8939C5.92514 9.91883 5.86161 9.94407 5.73499 9.94407C5.60837 9.94407 5.54485 9.91883 5.46777 9.8939C5.42252 9.89726 5.39265 9.89172 5.30781 9.85904C5.30772 9.8592 5.3075 9.85952 5.3074 9.8596C5.56276 9.96951 5.53484 10.0091 5.73499 10.0091C5.93514 10.0091 5.90722 9.9695 6.16259 9.85959Z" fill="#7B3F00"/>
<path d="M5.30781 9.85904C5.30798 9.8588 5.30839 9.85821 5.30856 9.85799C5.30432 9.85701 5.30005 9.85611 5.29606 9.85465C5.3007 9.85647 5.30348 9.85737 5.30781 9.85904Z" fill="#7B3F00"/>
<path d="M6.16217 9.85904C6.1665 9.85737 6.16929 9.85646 6.17393 9.85465C6.16993 9.8561 6.16567 9.85701 6.16143 9.85799C6.1616 9.85823 6.16201 9.85879 6.16217 9.85901L6.16217 9.85904Z" fill="#7B3F00"/>
<path fill-rule="evenodd" clip-rule="evenodd" d="M5.16548 9.10806C5.12644 9.12761 5.10443 9.13862 5.07657 9.10679C5.14973 9.03363 5.33669 8.9686 5.40172 8.97673C5.46675 8.98486 5.66997 9.13118 5.63746 9.15556C5.62593 9.16421 5.6144 9.15446 5.59525 9.13827C5.56042 9.10881 5.50036 9.05802 5.36921 9.05802C5.26546 9.05802 5.20621 9.08768 5.16548 9.10806ZM5.39404 9.32627C5.44411 9.30413 5.50156 9.241 5.48424 9.18946C5.45718 9.17995 5.42468 9.17995 5.36108 9.17995C5.34125 9.17995 5.3233 9.18184 5.30693 9.18504C5.26984 9.22399 5.28928 9.29133 5.32525 9.32039C5.27539 9.31086 5.23901 9.29017 5.1985 9.26124C5.1416 9.22059 5.27979 9.35878 5.36921 9.35878C5.45862 9.35878 5.58056 9.31001 5.55617 9.2775C5.53945 9.25242 5.52058 9.26602 5.49404 9.28516C5.46905 9.30318 5.43725 9.32611 5.39404 9.32627Z" fill="#7B3F00"/>
<path d="M5.58056 9.25311C5.57243 9.15556 5.49114 9.13931 5.36108 9.13931C5.23102 9.13931 5.17412 9.23685 5.12535 9.26124C5.17357 9.26124 5.21596 9.20285 5.30693 9.18504C5.3233 9.18184 5.34125 9.17995 5.36108 9.17995C5.42468 9.17995 5.45718 9.17995 5.48424 9.18946C5.51252 9.19939 5.53486 9.2197 5.58056 9.26124V9.25311Z" fill="#7B3F00"/>
<path d="M5.73499 10.0822C5.69435 10.0822 5.58868 10.1066 5.73499 10.1066C5.88131 10.1066 5.77564 10.0822 5.73499 10.0822Z" fill="#7B3F00"/>
<path d="M5.3408 9.86149C5.3295 9.86145 5.31872 9.86035 5.30856 9.85799C5.30839 9.85821 5.30798 9.8588 5.30781 9.85904C5.39265 9.89172 5.42252 9.89726 5.46777 9.8939C5.43129 9.8821 5.3915 9.87044 5.3408 9.86149Z" fill="#7B3F00"/>
<path d="M6.12918 9.86149C6.07849 9.87044 6.03869 9.8821 6.00221 9.8939C6.04747 9.89725 6.07733 9.89172 6.16217 9.85904L6.16217 9.85901C6.16201 9.85879 6.1616 9.85823 6.16143 9.85799C6.15127 9.86035 6.14049 9.86145 6.12918 9.86149Z" fill="#7B3F00"/>
</g>
<defs>
<clipPath id="clip0_1692_54027">
<rect x="2.04883" y="5.77002" width="19.9495" height="13.2997" rx="1" fill="white"/>
</clipPath>
</defs>
</svg>
