<svg width="25" height="25" viewBox="0 0 25 25" fill="none" xmlns="http://www.w3.org/2000/svg">
<g clip-path="url(#clip0_1692_54110)">
<path fill-rule="evenodd" clip-rule="evenodd" d="M2.04883 5.55225H21.9983V18.8519H2.04883V5.55225Z" fill="#FE0000"/>
<path fill-rule="evenodd" clip-rule="evenodd" d="M2.04883 5.55225H12.0236V12.2021H2.04883V5.55225Z" fill="#000095"/>
<path d="M6.7429 7.49553L7.04092 6.3833L7.33894 7.49553C7.24286 7.47491 7.14316 7.46405 7.04092 7.46405C6.93868 7.46405 6.83898 7.47491 6.7429 7.49553Z" fill="white"/>
<path d="M6.60804 7.53158L5.7939 6.71744L6.092 7.82998C6.23913 7.6966 6.41449 7.59379 6.60804 7.53158Z" fill="white"/>
<path d="M5.99355 7.92843L4.88101 7.63032L5.69515 8.44447C5.75736 8.25091 5.86017 8.07556 5.99355 7.92843Z" fill="white"/>
<path d="M5.65911 8.57932L4.54688 8.87735L5.65911 9.17537C5.63848 9.07929 5.62763 8.97959 5.62763 8.87735C5.62763 8.77511 5.63848 8.6754 5.65911 8.57932Z" fill="white"/>
<path d="M5.69515 9.31023L4.88101 10.1244L5.99355 9.82626C5.86017 9.67914 5.75736 9.50378 5.69515 9.31023Z" fill="white"/>
<path d="M6.092 9.92471L5.7939 11.0373L6.60804 10.2231C6.41449 10.1609 6.23913 10.0581 6.092 9.92471Z" fill="white"/>
<path d="M6.7429 10.2592L7.04092 11.3714L7.33894 10.2592C7.24286 10.2798 7.14316 10.2906 7.04092 10.2906C6.93868 10.2906 6.83898 10.2798 6.7429 10.2592Z" fill="white"/>
<path d="M7.4738 10.2231L8.28794 11.0373L7.98984 9.92471C7.84271 10.0581 7.66736 10.1609 7.4738 10.2231Z" fill="white"/>
<path d="M8.08829 9.82626L9.20083 10.1244L8.38669 9.31023C8.32448 9.50378 8.22167 9.67914 8.08829 9.82626Z" fill="white"/>
<path d="M8.42273 9.17537L9.53497 8.87735L8.42273 8.57932C8.44336 8.6754 8.45421 8.77511 8.45421 8.87735C8.45421 8.97959 8.44336 9.07929 8.42273 9.17537Z" fill="white"/>
<path d="M8.38669 8.44447L9.20083 7.63032L8.08829 7.92843C8.22167 8.07556 8.32448 8.25091 8.38669 8.44447Z" fill="white"/>
<path d="M7.98984 7.82998L8.28794 6.71744L7.4738 7.53158C7.66736 7.59379 7.84271 7.6966 7.98984 7.82998Z" fill="white"/>
<path d="M7.33917 7.66621C7.2436 7.64276 7.14371 7.63032 7.04092 7.63032C6.93813 7.63032 6.83824 7.64276 6.74268 7.66621C6.7262 7.67026 6.70986 7.67463 6.69365 7.67932C6.49731 7.73613 6.3209 7.83991 6.17739 7.97769C6.1651 7.98948 6.15306 8.00153 6.14126 8.01382C6.00348 8.15733 5.8997 8.33373 5.84289 8.53008C5.8382 8.54629 5.83383 8.56263 5.82979 8.5791C5.80634 8.67466 5.7939 8.77455 5.7939 8.87735C5.7939 8.98014 5.80634 9.08003 5.82979 9.17559C5.83383 9.19206 5.8382 9.20841 5.84289 9.22461C5.8997 9.42096 6.00348 9.59737 6.14126 9.74088C6.15306 9.75316 6.1651 9.76521 6.17739 9.77701C6.3209 9.91479 6.49731 10.0186 6.69365 10.0754C6.70986 10.0801 6.7262 10.0844 6.74268 10.0885C6.83824 10.1119 6.93813 10.1244 7.04092 10.1244C7.14371 10.1244 7.2436 10.1119 7.33917 10.0885C7.35564 10.0844 7.37198 10.0801 7.38819 10.0754C7.58453 10.0186 7.76094 9.91479 7.90445 9.77701C7.91674 9.76521 7.92878 9.75316 7.94058 9.74088C8.07836 9.59737 8.18214 9.42096 8.23895 9.22461C8.24364 9.20841 8.24801 9.19206 8.25205 9.17559C8.27551 9.08003 8.28794 8.98014 8.28794 8.87735C8.28794 8.77455 8.27551 8.67466 8.25205 8.5791C8.24801 8.56263 8.24364 8.54629 8.23895 8.53008C8.18214 8.33373 8.07836 8.15733 7.94058 8.01382C7.92878 8.00153 7.91674 7.98948 7.90445 7.97769C7.76094 7.83991 7.58453 7.73613 7.38819 7.67932C7.37198 7.67463 7.35564 7.67026 7.33917 7.66621Z" fill="white"/>
</g>
<defs>
<clipPath id="clip0_1692_54110">
<rect x="2.04883" y="5.55225" width="19.9504" height="13.2997" rx="1" fill="white"/>
</clipPath>
</defs>
</svg>
