<svg width="24" height="24" viewBox="0 0 24 24" fill="none" xmlns="http://www.w3.org/2000/svg">
<path d="M9.35493 21C10.0601 21.6224 10.9863 22 12.0008 22C13.0152 22 13.9414 21.6224 14.6466 21M15.0008 5H21.0008M13.0008 2.08389C12.6725 2.02841 12.3381 2 12.0008 2C10.4095 2 8.88333 2.63214 7.75811 3.75736C6.63289 4.88258 6.00075 6.4087 6.00075 8C6.00075 11.0902 5.22122 13.206 4.35042 14.6054C3.61588 15.7859 3.24861 16.3761 3.26208 16.5408C3.27699 16.7231 3.31561 16.7926 3.46253 16.9016C3.59521 17 4.19334 17 5.38961 17H18.6119C19.8082 17 20.4064 17 20.5391 16.9016C20.686 16.7926 20.7246 16.7231 20.7395 16.5407C20.753 16.3761 20.3857 15.786 19.6512 14.6057C18.8777 13.3626 18.1762 11.5544 18.029 9" stroke="#1C1D20" stroke-width="1.5" stroke-linecap="round" stroke-linejoin="round"/>
</svg>
