<svg width="24" height="24" viewBox="0 0 24 24" fill="none" xmlns="http://www.w3.org/2000/svg">
<path d="M13.9993 21H9.99932M2.29316 5.81989C2.27882 4.36854 3.0613 3.01325 4.32538 2.3M21.7015 5.8199C21.7159 4.36855 20.9334 3.01325 19.6693 2.3M17.9993 8C17.9993 6.4087 17.3672 4.88258 16.242 3.75736C15.1167 2.63214 13.5906 2 11.9993 2C10.408 2 8.8819 2.63214 7.75668 3.75736C6.63146 4.88258 5.99932 6.4087 5.99932 8C5.99932 11.0902 5.21979 13.206 4.34899 14.6054C3.61445 15.7859 3.24718 16.3761 3.26065 16.5408C3.27556 16.7231 3.31418 16.7926 3.4611 16.9016C3.59378 17 4.19191 17 5.38818 17H18.6105C19.8067 17 20.4049 17 20.5375 16.9016C20.6845 16.7926 20.7231 16.7231 20.738 16.5408C20.7515 16.3761 20.3842 15.7859 19.6497 14.6054C18.7789 13.206 17.9993 11.0902 17.9993 8Z" stroke="#1C1D20" stroke-width="1.5" stroke-linecap="round" stroke-linejoin="round"/>
</svg>
