<svg width="24" height="24" viewBox="0 0 24 24" fill="none" xmlns="http://www.w3.org/2000/svg">
<path d="M9.35493 21C10.0601 21.6224 10.9863 22 12.0008 22C13.0152 22 13.9414 21.6224 14.6466 21M18.0008 8V2M15.0008 5H21.0008M13.0008 2.08389C12.6725 2.02841 12.3381 2 12.0008 2C10.4095 2 8.88333 2.63214 7.75811 3.75736C6.63289 4.88258 6.00075 6.4087 6.00075 8C6.00075 11.0902 5.22122 13.206 4.35042 14.6054C3.61588 15.7859 3.24861 16.3761 3.26208 16.5408C3.27699 16.7231 3.31561 16.7926 3.46253 16.9016C3.59521 17 4.19334 17 5.38961 17H18.6119C19.8081 17 20.4062 17 20.5389 16.9016C20.6858 16.7926 20.7244 16.7231 20.7394 16.5408C20.7528 16.3761 20.3855 15.7858 19.6509 14.6052C19.1589 13.8144 18.696 12.7948 18.3864 11.5" stroke="#1C1D20" stroke-width="1.5" stroke-linecap="round" stroke-linejoin="round"/>
</svg>
