<svg width="24" height="24" viewBox="0 0 24 24" fill="none" xmlns="http://www.w3.org/2000/svg">
<path d="M9.35345 21C10.0586 21.6224 10.9848 22 11.9993 22C13.0137 22 13.94 21.6224 14.6451 21M2.29316 5.81989C2.27882 4.36854 3.0613 3.01325 4.32538 2.3M21.7014 5.8199C21.7158 4.36855 20.9333 3.01325 19.6692 2.3M17.9993 8C17.9993 6.4087 17.3671 4.88258 16.2419 3.75736C15.1167 2.63214 13.5906 2 11.9993 2C10.408 2 8.88185 2.63214 7.75663 3.75736C6.63141 4.88258 5.99927 6.4087 5.99927 8C5.99927 11.0902 5.21974 13.206 4.34894 14.6054C3.6144 15.7859 3.24713 16.3761 3.2606 16.5408C3.27551 16.7231 3.31413 16.7926 3.46105 16.9016C3.59373 17 4.19186 17 5.38813 17H18.6104C19.8067 17 20.4048 17 20.5375 16.9016C20.6844 16.7926 20.723 16.7231 20.7379 16.5408C20.7514 16.3761 20.3841 15.7859 19.6496 14.6054C18.7788 13.206 17.9993 11.0902 17.9993 8Z" stroke="#1C1D20" stroke-width="1.5" stroke-linecap="round" stroke-linejoin="round"/>
</svg>
