<svg width="24" height="24" viewBox="0 0 24 24" fill="none" xmlns="http://www.w3.org/2000/svg">
<path d="M14.3928 18.0143C14.8216 19.6147 13.8719 21.2597 12.2715 21.6885C10.6711 22.1174 9.02609 21.1676 8.59726 19.5672M10.8934 5.74036C11.1976 5.19306 11.2978 4.53156 11.1229 3.87896C10.7656 2.5453 9.39471 1.75384 8.06104 2.1112C6.72738 2.46855 5.93592 3.83939 6.29328 5.17306C6.46814 5.82566 6.88567 6.34843 7.42277 6.6703M16.2377 9.4448C15.8808 8.11267 14.9279 6.9987 13.5886 6.34797C12.2493 5.69724 10.6334 5.56304 9.09632 5.9749C7.55924 6.38676 6.22692 7.31094 5.39244 8.54412C4.55796 9.77731 4.28968 11.2185 4.64662 12.5506C5.2372 14.7547 5.12252 16.5131 4.74957 17.8492C4.3245 19.3721 4.11197 20.1335 4.16939 20.2864C4.23508 20.4613 4.2826 20.5093 4.45683 20.5768C4.60912 20.6358 5.24889 20.4644 6.52843 20.1216L18.3935 16.9423C19.673 16.5995 20.3128 16.428 20.4152 16.3008C20.5323 16.1552 20.5495 16.0899 20.5189 15.9055C20.4922 15.7444 19.9274 15.1913 18.7979 14.085C17.8068 13.1143 16.8283 11.6489 16.2377 9.4448Z" stroke="#1C1D20" stroke-width="1.5" stroke-linecap="round" stroke-linejoin="round"/>
</svg>
