<svg width="24" height="24" viewBox="0 0 24 24" fill="none" xmlns="http://www.w3.org/2000/svg">
<path d="M15.6449 18.0143C16.0738 19.6147 15.124 21.2597 13.5236 21.6885C11.9232 22.1173 10.2782 21.1676 9.84938 19.5672M2.05586 11.6128C1.66636 10.2146 2.0714 8.703 3.10781 7.68689M12.1453 5.74036C12.4495 5.19306 12.5498 4.53156 12.3749 3.87896C12.0175 2.5453 10.6467 1.75384 9.31303 2.1112C7.97936 2.46855 7.1879 3.83939 7.54526 5.17306C7.72012 5.82566 8.13765 6.34843 8.67476 6.6703M20.318 6.71951C19.9563 5.3139 18.8497 4.20731 17.4441 3.84553M17.4897 9.44479C17.1327 8.11266 16.1798 6.9987 14.8405 6.34797C13.5012 5.69723 11.8853 5.56304 10.3482 5.97489C8.81116 6.38675 7.47884 7.31093 6.64436 8.54412C5.80988 9.77731 5.5416 11.2185 5.89855 12.5506C6.48912 14.7547 6.37444 16.513 6.00149 17.8492C5.57642 19.3721 5.36389 20.1335 5.42131 20.2864C5.487 20.4613 5.53452 20.5093 5.70875 20.5768C5.86104 20.6358 6.50081 20.4644 7.78035 20.1215L19.6454 16.9423C20.925 16.5995 21.5647 16.428 21.6671 16.3008C21.7843 16.1552 21.8014 16.0899 21.7708 15.9055C21.7441 15.7444 21.1793 15.1913 20.0498 14.085C19.0587 13.1143 18.0802 11.6488 17.4897 9.44479Z" stroke="#1C1D20" stroke-width="1.5" stroke-linecap="round" stroke-linejoin="round"/>
</svg>
