<svg width="24" height="24" viewBox="0 0 24 24" fill="none" xmlns="http://www.w3.org/2000/svg">
<path d="M17.001 2V13M22.001 9.8V5.2C22.001 4.07989 22.001 3.51984 21.783 3.09202C21.5913 2.71569 21.2853 2.40973 20.909 2.21799C20.4812 2 19.9211 2 18.801 2H8.11904C6.65756 2 5.92682 2 5.33661 2.26743C4.81643 2.50314 4.37433 2.88242 4.06227 3.36072C3.7082 3.90339 3.59709 4.62564 3.37486 6.07012L2.85178 9.47012C2.55867 11.3753 2.41212 12.3279 2.69483 13.0691C2.94297 13.7197 3.40968 14.2637 4.01495 14.6079C4.70456 15 5.66836 15 7.59596 15H8.40103C8.96108 15 9.24111 15 9.45502 15.109C9.64318 15.2049 9.79616 15.3578 9.89204 15.546C10.001 15.7599 10.001 16.0399 10.001 16.6V19.5342C10.001 20.896 11.105 22 12.4669 22C12.7917 22 13.086 21.8087 13.218 21.5119L16.5787 13.9502C16.7316 13.6062 16.808 13.4343 16.9288 13.3082C17.0356 13.1967 17.1668 13.1115 17.312 13.0592C17.4763 13 17.6645 13 18.0408 13H18.801C19.9211 13 20.4812 13 20.909 12.782C21.2853 12.5903 21.5913 12.2843 21.783 11.908C22.001 11.4802 22.001 10.9201 22.001 9.8Z" stroke="#1C1D20" stroke-width="1.5" stroke-linecap="round" stroke-linejoin="round"/>
</svg>
