<svg width="47" height="32" viewBox="0 0 47 32" fill="none" xmlns="http://www.w3.org/2000/svg">
<path d="M39.8376 23.808C39.8376 25.1673 38.8758 26.1449 37.586 26.1449C36.2963 26.1449 35.3357 25.1634 35.3357 23.808C35.3357 22.4527 36.2976 21.4712 37.586 21.4712C38.8745 21.4712 39.8376 22.4695 39.8376 23.808ZM27.8707 21.4712C26.6328 21.4712 25.7396 22.4527 25.7396 23.808C25.7396 25.1634 26.6328 26.1449 27.8707 26.1449C29.0554 26.1449 29.9149 25.1634 29.9149 23.808C29.9149 22.4527 29.0554 21.4712 27.8707 21.4712ZM8.83789 21.4712C7.60127 21.4712 6.70686 22.4695 6.70686 23.808C6.70686 25.1465 7.60127 26.1449 8.83789 26.1449C10.024 26.1449 10.8834 25.1803 10.8834 23.808C10.8834 22.4643 10.024 21.4712 8.83789 21.4712ZM38.8278 32H7.73738C1.0332 32 -2.48611 24.0313 2.02353 19.0629L16.6711 2.92695C17.5082 2.00502 18.5283 1.26843 19.6662 0.764399C20.8041 0.260363 22.0345 0 23.2787 0C24.5229 0 25.7534 0.260363 26.8912 0.764399C28.0291 1.26843 29.0493 2.00502 29.8863 2.92695L44.5339 19.0629C49.0448 24.0313 45.5255 32 38.8214 32H38.8278ZM13.1816 19.5043H10.9352V20.5546C10.3169 19.7276 9.2501 19.3317 8.25458 19.3317C5.88245 19.3317 4.36584 21.3284 4.36584 23.808C4.36584 26.2877 5.87856 28.2831 8.25458 28.2831C9.25139 28.2831 10.3286 27.904 10.9352 27.0783V28.1169H13.1816V19.5043ZM16.6957 19.5043H14.3975V28.1117H16.7009L16.6957 19.5043ZM16.907 17.0974C16.906 16.7324 16.7608 16.3826 16.5031 16.1245C16.2454 15.8664 15.8961 15.721 15.5317 15.7199C15.1701 15.7247 14.8249 15.8719 14.5709 16.1297C14.3169 16.3875 14.1745 16.7352 14.1745 17.0974C14.1782 17.4567 14.3224 17.8003 14.5761 18.0544C14.8299 18.3085 15.1729 18.4529 15.5317 18.4566C15.8933 18.4567 16.2404 18.314 16.4978 18.0596C16.7552 17.8052 16.9023 17.4595 16.907 17.0974ZM22.9851 19.342C21.2313 19.4173 20.4056 20.4793 20.1736 21.1596V19.5082H17.9038V28.1143H20.2073V24.8103C20.2073 22.8304 21.125 21.9152 22.9851 21.8542V19.342ZM32.2183 19.5069H30.0328V20.5455C29.3964 19.7185 28.314 19.3394 27.2835 19.3394C24.9113 19.3394 23.3947 21.3362 23.3947 23.7976C23.3947 26.2942 24.9425 28.2909 27.3133 28.2909C28.3101 28.2909 29.2901 27.9014 29.9058 27.138V30.3019L32.2092 29.7255L32.2183 19.5069ZM42.1929 23.8106C42.1929 21.3141 40.1643 19.3343 37.586 19.3343C35.1232 19.3343 32.9973 21.3141 32.9973 23.8106C32.9973 26.3072 35.0259 28.2857 37.586 28.2857C40.1461 28.2857 42.1929 26.3059 42.1929 23.8106Z" fill="#145DFF"/>
</svg>
