<svg width="24" height="24" viewBox="0 0 24 24" fill="none" xmlns="http://www.w3.org/2000/svg">
<path d="M16.3803 20.9921C15.0575 21.6377 13.5711 22 12 22C6.47715 22 2 17.5228 2 12C2 6.47715 6.47715 2 12 2C13.5711 2 15.0575 2.36229 16.3803 3.00789M20.0017 6.00022C22.6667 9.54505 22.6661 14.4578 20 18.0021M12 8L11.3822 9.23558C11.1167 9.76656 10.984 10.0321 10.8066 10.2621C10.6493 10.4663 10.4663 10.6493 10.2621 10.8066C10.0321 10.984 9.76656 11.1167 9.23558 11.3822L8 12L9.23558 12.6178C9.76656 12.8833 10.0321 13.016 10.2621 13.1934C10.4663 13.3507 10.6493 13.5337 10.8066 13.7379C10.984 13.9679 11.1167 14.2334 11.3822 14.7644L12 16L12.6178 14.7644C12.8833 14.2334 13.016 13.9679 13.1934 13.7379C13.3507 13.5337 13.5337 13.3507 13.7379 13.1934C13.9679 13.016 14.2334 12.8833 14.7644 12.6178L16 12L14.7644 11.3822C14.2334 11.1167 13.9679 10.984 13.7379 10.8066C13.5337 10.6493 13.3507 10.4663 13.1934 10.2621C13.016 10.0321 12.8833 9.76656 12.6178 9.23558L12 8Z" stroke="#1C1D20" stroke-width="1.5" stroke-linecap="round" stroke-linejoin="round"/>
</svg>
