<svg width="22" height="21" viewBox="0 0 22 21" fill="none" xmlns="http://www.w3.org/2000/svg">
<path d="M7.89459 10.8446L7.14459 10.842V10.8446H7.89459ZM20.7563 10.8883L20.0063 10.8857V10.8883H20.7563ZM20.7563 10.9611L21.5062 10.9753C21.5063 10.9706 21.5063 10.9658 21.5063 10.9611H20.7563ZM17.8431 17.0715L18.3834 17.5918L18.3875 17.5874L17.8431 17.0715ZM14.8353 19.5477L14.4285 18.9176C14.3991 18.9366 14.3711 18.9576 14.3446 18.9805L14.8353 19.5477ZM13.8157 19.5477L14.3063 18.9805C14.2806 18.9582 14.2533 18.9377 14.2248 18.9192L13.8157 19.5477ZM9.58424 15.5858L10.1846 15.1362L10.1798 15.1299L9.58424 15.5858ZM7.89459 10.8664H7.14459C7.14459 10.875 7.14473 10.8836 7.14503 10.8922L7.89459 10.8664ZM4.02751 2.09581L3.87657 1.36116L4.02751 2.09581ZM10.1293 0.842175L10.2803 1.57683L10.1293 0.842175ZM3.27492 13.9093L4.00958 13.7584L3.27492 13.9093ZM1.60341 5.77355L2.33806 5.62261L1.60341 5.77355ZM13.8071 3.26628L13.0724 3.41721V3.41721L13.8071 3.26628ZM6.95266 16.3334L6.80172 15.5988L6.95266 16.3334ZM8.64458 10.8471C8.65524 7.70965 11.2073 5.17488 14.3448 5.18554L14.3499 3.68555C10.384 3.67207 7.15806 6.87613 7.14459 10.842L8.64458 10.8471ZM14.3448 5.18554C17.4822 5.1962 20.017 7.74825 20.0063 10.8857L21.5063 10.8908C21.5198 6.92493 18.3157 3.69902 14.3499 3.68555L14.3448 5.18554ZM20.0063 10.8883V10.9611H21.5063V10.8883H20.0063ZM20.0065 10.9469C19.9678 12.9895 18.8179 14.9524 17.2987 16.5556L18.3875 17.5874C20.0292 15.855 21.4575 13.5501 21.5062 10.9753L20.0065 10.9469ZM17.3029 16.5513C16.4392 17.4482 15.4746 18.2423 14.4285 18.9176L15.242 20.1778C16.3853 19.4398 17.4394 18.572 18.3834 17.5918L17.3029 16.5513ZM14.3446 18.9805C14.3336 18.99 14.3173 18.99 14.3063 18.9805L13.325 20.115C13.8994 20.6119 14.7515 20.6119 15.3259 20.115L14.3446 18.9805ZM14.2248 18.9192C12.6666 17.9049 11.299 16.6244 10.1846 15.1362L8.9839 16.0353C10.2038 17.6644 11.7008 19.0661 13.4065 20.1763L14.2248 18.9192ZM10.1798 15.1299C9.23435 13.8947 8.69756 12.3953 8.64414 10.8407L7.14503 10.8922C7.20915 12.7586 7.8536 14.5586 8.98866 16.0416L10.1798 15.1299ZM8.64459 10.8664V10.8446H7.14459V10.8664H8.64459ZM15.7139 10.9292C15.7139 11.6937 15.0942 12.3134 14.3296 12.3134V13.8134C15.9226 13.8134 17.2139 12.5221 17.2139 10.9292H15.7139ZM14.3296 12.3134C13.5651 12.3134 12.9454 11.6937 12.9454 10.9292H11.4454C11.4454 12.5221 12.7367 13.8134 14.3296 13.8134V12.3134ZM12.9454 10.9292C12.9454 10.1646 13.5651 9.54488 14.3296 9.54488V8.04488C12.7367 8.04488 11.4454 9.33622 11.4454 10.9292H12.9454ZM14.3296 9.54488C15.0942 9.54488 15.7139 10.1646 15.7139 10.9292H17.2139C17.2139 9.33622 15.9226 8.04488 14.3296 8.04488V9.54488ZM4.17844 2.83047L10.2803 1.57683L9.97841 0.10752L3.87657 1.36116L4.17844 2.83047ZM4.00958 13.7584L2.33806 5.62261L0.86875 5.92449L2.54027 14.0603L4.00958 13.7584ZM13.0724 3.41721L13.3152 4.59863L14.7845 4.29676L14.5417 3.11534L13.0724 3.41721ZM9.60806 15.0222L6.80172 15.5988L7.1036 17.0681L9.90993 16.4915L9.60806 15.0222ZM2.54027 14.0603C2.96981 16.151 5.01288 17.4976 7.1036 17.0681L6.80172 15.5988C5.52249 15.8616 4.2724 15.0376 4.00958 13.7584L2.54027 14.0603ZM10.2803 1.57683C11.5595 1.31401 12.8096 2.13797 13.0724 3.41721L14.5417 3.11534C14.1122 1.02462 12.0691 -0.322023 9.97841 0.10752L10.2803 1.57683ZM3.87657 1.36116C1.78585 1.7907 0.439208 3.83377 0.86875 5.92449L2.33806 5.62261C2.07524 4.34338 2.89921 3.09329 4.17844 2.83047L3.87657 1.36116Z" fill="#1C1D20"/>
</svg>
