<svg width="161" height="161" viewBox="0 0 161 161" fill="none" xmlns="http://www.w3.org/2000/svg">
<circle cx="80.5" cy="80.7053" r="80" fill="#F0B1D8"/>
<path d="M52.7663 61.5054C52.7663 62.9062 53.0422 64.2932 53.5782 65.5873C54.1143 66.8815 54.9 68.0574 55.8905 69.0479C56.881 70.0384 58.0568 70.8241 59.351 71.3601C60.6451 71.8962 62.0322 72.1721 63.4329 72.1721C64.8337 72.1721 66.2208 71.8962 67.5149 71.3601C68.809 70.8241 69.9849 70.0384 70.9754 69.0479C71.9659 68.0574 72.7516 66.8815 73.2877 65.5873C73.8237 64.2932 74.0996 62.9062 74.0996 61.5054L63.4329 61.5054H52.7663Z" fill="#D95BA3"/>
<path d="M86.235 62.0137C86.235 63.4145 86.5109 64.8015 87.047 66.0957C87.583 67.3898 88.3687 68.5657 89.3592 69.5562C90.3497 70.5467 91.5256 71.3324 92.8197 71.8684C94.1139 72.4045 95.5009 72.6804 96.9017 72.6804C98.3025 72.6804 99.6895 72.4045 100.984 71.8684C102.278 71.3324 103.454 70.5467 104.444 69.5562C105.435 68.5657 106.22 67.3898 106.756 66.0957C107.292 64.8015 107.568 63.4145 107.568 62.0137L96.9017 62.0137H86.235Z" fill="#D95BA3"/>
<path d="M106.1 106.718C106.1 103.356 105.438 100.027 104.152 96.9212C102.865 93.8153 100.98 90.9931 98.6023 88.616C96.2251 86.2388 93.403 84.3531 90.2971 83.0666C87.1912 81.7801 83.8622 81.1179 80.5004 81.1179C77.1386 81.1179 73.8096 81.7801 70.7037 83.0666C67.5978 84.3531 64.7756 86.2388 62.3985 88.616C60.0213 90.9931 58.1356 93.8153 56.8491 96.9212C55.5626 100.027 54.9004 103.356 54.9004 106.718L65.1404 106.718C65.1404 104.701 65.5377 102.703 66.3096 100.84C67.0815 98.9763 68.2129 97.283 69.6392 95.8567C71.0655 94.4304 72.7588 93.299 74.6224 92.5271C76.4859 91.7552 78.4833 91.3579 80.5004 91.3579C82.5175 91.3579 84.5148 91.7552 86.3784 92.5271C88.242 93.299 89.9352 94.4304 91.3616 95.8567C92.7879 97.283 93.9193 98.9763 94.6912 100.84C95.4631 102.703 95.8604 104.701 95.8604 106.718L106.1 106.718Z" fill="#D95BA3"/>
<path d="M91.9757 20.9362C106.991 23.7299 120.415 32.0456 129.603 44.2448C138.792 56.4441 143.079 71.6423 141.619 86.845C140.159 102.048 133.058 116.152 121.716 126.38C110.374 136.608 95.6124 142.217 80.3402 142.102C65.068 141.987 50.3926 136.157 39.2053 125.76C28.0181 115.363 21.1303 101.153 19.8991 85.9302C18.6678 70.7073 23.1824 55.5752 32.5533 43.5154C41.9243 31.4557 55.472 23.3427 70.5272 20.775L72.5816 32.8209C60.5375 34.8751 49.6993 41.3654 42.2026 51.0133C34.7058 60.6611 31.0941 72.7667 32.0791 84.945C33.0641 97.1234 38.5743 108.491 47.5241 116.809C56.4739 125.126 68.2143 129.791 80.432 129.882C92.6498 129.974 104.459 125.487 113.533 117.305C122.607 109.123 128.287 97.839 129.455 85.6769C130.623 73.5147 127.194 61.3562 119.843 51.5968C112.492 41.8374 101.752 35.1848 89.7404 32.9499L91.9757 20.9362Z" fill="white"/>
<path d="M91.9684 20.9349C106.983 23.7266 120.408 32.0401 129.598 44.2375C138.788 56.4349 143.077 71.6318 141.62 86.8341C140.163 102.036 133.065 116.142 121.725 126.372C110.386 136.601 95.6263 142.213 80.3547 142.102C65.0831 141.991 50.4068 136.165 39.2173 125.771C28.0277 115.377 21.1362 101.17 19.9005 85.9482C18.6648 70.7263 23.1745 55.5935 32.5412 43.5311C41.9078 31.4688 55.4522 23.3516 70.5059 20.7787L72.5646 32.8238C60.5216 34.8822 49.6861 41.3759 42.1928 51.0258C34.6995 60.6757 31.0917 72.7819 32.0803 84.9595C33.0688 97.137 38.582 108.503 47.5337 116.818C56.4853 125.133 68.2264 129.794 80.4436 129.883C92.6609 129.971 104.469 125.482 113.54 117.298C122.612 109.114 128.29 97.83 129.456 85.6682C130.621 73.5063 127.19 61.3488 119.838 51.5909C112.486 41.833 101.746 35.1822 89.7346 32.9488L91.9684 20.9349Z" fill="#D95BA3"/>
</svg>
