<svg width="161" height="161" viewBox="0 0 161 161" fill="none" xmlns="http://www.w3.org/2000/svg">
<circle cx="80.5" cy="80.7053" r="80" fill="#FFC170"/>
<circle cx="63.4332" cy="63.6387" r="9.6" transform="rotate(180 63.4332 63.6387)" fill="#FF851F"/>
<rect x="57.0332" y="89.2387" width="46.9333" height="12.8" fill="#FF851F"/>
<circle cx="96.901" cy="63.6387" r="9.6" transform="rotate(180 96.901 63.6387)" fill="#FF851F"/>
<path d="M91.9757 20.9362C106.991 23.7299 120.415 32.0456 129.603 44.2448C138.792 56.4441 143.079 71.6423 141.619 86.845C140.159 102.048 133.058 116.152 121.716 126.38C110.374 136.608 95.6124 142.217 80.3402 142.102C65.068 141.987 50.3926 136.157 39.2053 125.76C28.0181 115.363 21.1303 101.153 19.8991 85.9302C18.6678 70.7073 23.1824 55.5752 32.5533 43.5154C41.9243 31.4557 55.472 23.3427 70.5272 20.775L72.5816 32.8209C60.5375 34.8751 49.6993 41.3654 42.2026 51.0133C34.7058 60.6611 31.0941 72.7667 32.0791 84.945C33.0641 97.1234 38.5743 108.491 47.5241 116.809C56.4739 125.126 68.2143 129.791 80.432 129.882C92.6498 129.974 104.459 125.487 113.533 117.305C122.607 109.123 128.287 97.839 129.455 85.6769C130.623 73.5147 127.194 61.3562 119.843 51.5968C112.492 41.8374 101.752 35.1848 89.7404 32.9499L91.9757 20.9362Z" fill="white"/>
<path d="M91.9684 20.9349C106.983 23.7266 120.408 32.0401 129.598 44.2375C138.788 56.4349 143.077 71.6318 141.62 86.8341C140.163 102.036 133.065 116.142 121.725 126.372C110.386 136.601 95.6263 142.213 80.3547 142.102L80.4436 129.883C92.6609 129.971 104.469 125.482 113.54 117.298C122.612 109.114 128.29 97.83 129.456 85.6682C130.621 73.5063 127.19 61.3488 119.838 51.5909C112.486 41.833 101.746 35.1822 89.7346 32.9488L91.9684 20.9349Z" fill="#FF851F"/>
</svg>
