<svg width="161" height="161" viewBox="0 0 161 161" fill="none" xmlns="http://www.w3.org/2000/svg">
<circle cx="80.5" cy="80.7053" r="80" fill="#FFA6A1"/>
<rect x="58.0996" y="89.2386" width="44.8" height="12.8" fill="#F7453C"/>
<path d="M52.7663 62.572C52.7663 63.9727 53.0422 65.3598 53.5782 66.6539C54.1143 67.9481 54.9 69.124 55.8905 70.1145C56.881 71.1049 58.0568 71.8906 59.351 72.4267C60.6451 72.9627 62.0322 73.2386 63.4329 73.2386C64.8337 73.2386 66.2208 72.9627 67.5149 72.4267C68.809 71.8906 69.9849 71.1049 70.9754 70.1145C71.9659 69.124 72.7516 67.9481 73.2877 66.6539C73.8237 65.3598 74.0996 63.9727 74.0996 62.572L63.4329 62.572H52.7663Z" fill="#F7453C"/>
<path d="M86.235 62.572C86.235 63.9727 86.5109 65.3598 87.047 66.6539C87.583 67.9481 88.3687 69.124 89.3592 70.1145C90.3497 71.1049 91.5256 71.8906 92.8197 72.4267C94.1139 72.9627 95.5009 73.2386 96.9017 73.2386C98.3025 73.2386 99.6895 72.9627 100.984 72.4267C102.278 71.8906 103.454 71.1049 104.444 70.1145C105.435 69.124 106.22 67.9481 106.756 66.6539C107.292 65.3598 107.568 63.9727 107.568 62.572L96.9017 62.572H86.235Z" fill="#F7453C"/>
<path d="M91.9757 20.9362C106.991 23.7299 120.415 32.0456 129.603 44.2448C138.792 56.4441 143.079 71.6423 141.619 86.845C140.159 102.048 133.058 116.152 121.716 126.38C110.374 136.608 95.6124 142.217 80.3402 142.102C65.068 141.987 50.3926 136.157 39.2053 125.76C28.0181 115.363 21.1303 101.153 19.8991 85.9302C18.6678 70.7073 23.1824 55.5752 32.5533 43.5154C41.9243 31.4557 55.472 23.3427 70.5272 20.775L72.5816 32.8209C60.5375 34.8751 49.6993 41.3654 42.2026 51.0133C34.7058 60.6611 31.0941 72.7667 32.0791 84.945C33.0641 97.1234 38.5743 108.491 47.5241 116.809C56.4739 125.126 68.2143 129.791 80.432 129.882C92.6498 129.974 104.459 125.487 113.533 117.305C122.607 109.123 128.287 97.839 129.455 85.6769C130.623 73.5147 127.194 61.3562 119.843 51.5968C112.492 41.8374 101.752 35.1848 89.7404 32.9499L91.9757 20.9362Z" fill="white"/>
<path d="M91.9684 20.9349C101.914 22.7841 111.245 27.0738 119.123 33.419C127.002 39.7642 133.182 47.9664 137.108 57.2893C141.035 66.6122 142.585 76.7642 141.62 86.8341C140.655 96.9039 137.204 106.577 131.578 114.984C125.952 123.391 118.327 130.27 109.387 135.003C100.446 139.736 90.4705 142.176 80.3547 142.102C70.2389 142.028 60.2997 139.444 51.4291 134.582C42.5585 129.719 35.0341 122.73 29.5312 114.241L39.7848 107.594C44.1872 114.385 50.2067 119.976 57.3032 123.866C64.3997 127.756 72.351 129.824 80.4436 129.883C88.5363 129.941 96.5169 127.99 103.669 124.204C110.822 120.417 116.922 114.914 121.423 108.188C125.923 101.462 128.684 93.7241 129.456 85.6682C130.228 77.6123 128.988 69.4907 125.847 62.0323C122.705 54.574 117.761 48.0123 111.459 42.9361C105.156 37.86 97.6911 34.4282 89.7346 32.9488L91.9684 20.9349Z" fill="#F7453C"/>
</svg>
