<svg width="161" height="161" viewBox="0 0 161 161" fill="none" xmlns="http://www.w3.org/2000/svg">
<circle cx="80.5" cy="80.7053" r="80" fill="#DBB6F1"/>
<circle cx="63.8348" cy="64.1471" r="8.53333" transform="rotate(180 63.8348 64.1471)" fill="#AC5CD9"/>
<circle cx="97.3026" cy="64.1471" r="8.53333" transform="rotate(180 97.3026 64.1471)" fill="#AC5CD9"/>
<path d="M106.099 106.718C106.099 103.356 105.437 100.027 104.151 96.9212C102.864 93.8153 100.979 90.9931 98.6014 88.616C96.2242 86.2388 93.402 84.3531 90.2961 83.0666C87.1902 81.7801 83.8613 81.1179 80.4994 81.1179C77.1376 81.1179 73.8087 81.7801 70.7027 83.0666C67.5968 84.3531 64.7747 86.2388 62.3975 88.616C60.0203 90.9931 58.1346 93.8153 56.8481 96.9212C55.5616 100.027 54.8994 103.356 54.8994 106.718L65.1394 106.718C65.1394 104.701 65.5367 102.703 66.3086 100.84C67.0805 98.9763 68.2119 97.283 69.6383 95.8567C71.0646 94.4304 72.7578 93.299 74.6214 92.5271C76.485 91.7552 78.4823 91.3579 80.4994 91.3579C82.5165 91.3579 84.5139 91.7552 86.3774 92.5271C88.241 93.299 89.9343 94.4304 91.3606 95.8567C92.7869 97.283 93.9183 98.9763 94.6902 100.84C95.4621 102.703 95.8594 104.701 95.8594 106.718L106.099 106.718Z" fill="#AC5CD9"/>
<path d="M91.9757 20.9362C106.991 23.7299 120.415 32.0456 129.603 44.2448C138.792 56.4441 143.079 71.6423 141.619 86.845C140.159 102.048 133.058 116.152 121.716 126.38C110.374 136.608 95.6124 142.217 80.3402 142.102C65.068 141.987 50.3926 136.157 39.2053 125.76C28.0181 115.363 21.1303 101.153 19.8991 85.9302C18.6678 70.7073 23.1824 55.5752 32.5533 43.5154C41.9243 31.4557 55.472 23.3427 70.5272 20.775L72.5816 32.8209C60.5375 34.8751 49.6993 41.3654 42.2026 51.0133C34.7058 60.6611 31.0941 72.7667 32.0791 84.945C33.0641 97.1234 38.5743 108.491 47.5241 116.809C56.4739 125.126 68.2143 129.791 80.432 129.882C92.6498 129.974 104.459 125.487 113.533 117.305C122.607 109.123 128.287 97.839 129.455 85.6769C130.623 73.5147 127.194 61.3562 119.843 51.5968C112.492 41.8374 101.752 35.1848 89.7404 32.9499L91.9757 20.9362Z" fill="white"/>
<path d="M91.9684 20.9349C104.436 23.2531 115.874 29.3934 124.695 38.5043C133.516 47.6153 139.284 59.2453 141.198 71.7816C143.113 84.3179 141.079 97.1392 135.379 108.468C129.678 119.796 120.595 129.07 109.387 135.003C98.1788 140.937 85.4024 143.236 72.8291 141.582C60.2559 139.927 48.5089 134.402 39.2173 125.771C29.9256 117.14 23.5498 105.832 20.9739 93.415C18.398 80.9978 19.7497 68.0867 24.8416 56.4722L36.0331 61.3787C31.9596 70.6703 30.8783 80.9991 32.939 90.9329C34.9997 100.867 40.1004 109.913 47.5337 116.818C54.967 123.722 64.3646 128.143 74.4232 129.466C84.4818 130.79 94.7029 128.95 103.669 124.204C112.636 119.457 119.903 112.038 124.463 102.975C129.023 93.9123 130.65 83.6552 129.119 73.6262C127.587 63.5971 122.973 54.2931 115.916 47.0044C108.859 39.7156 99.7089 34.8034 89.7346 32.9488L91.9684 20.9349Z" fill="#AC5CD9"/>
</svg>
