<svg width="25" height="25" viewBox="0 0 25 25" fill="none" xmlns="http://www.w3.org/2000/svg">
<g clip-path="url(#clip0_1692_54047)">
<path d="M21.9983 6.33447H2.04883V19.6341H21.9983V6.33447Z" fill="#CE1126"/>
<path d="M14.2382 6.33447H2.04688V12.4302H14.2382V6.33447Z" fill="#002B7F"/>
<path fill-rule="evenodd" clip-rule="evenodd" d="M8.30366 7.08151L8.14375 6.58936L7.98384 7.08151H7.46635L7.885 7.38568L7.72509 7.87784L8.14375 7.57367L8.5624 7.87784L8.40249 7.38568L8.82114 7.08151H8.30366ZM8.30366 7.08151L8.40249 7.38568L8.14375 7.57367L7.885 7.38568L7.98384 7.08151H8.30366Z" fill="white"/>
<path d="M8.40249 7.38568L8.30366 7.08151H7.98384L7.885 7.38568L8.14375 7.57367L8.40249 7.38568Z" fill="white"/>
<path fill-rule="evenodd" clip-rule="evenodd" d="M6.44082 8.60565L6.28091 8.11349L6.121 8.60565H5.60352L6.02217 8.90982L5.86226 9.40198L6.28091 9.09781L6.69956 9.40198L6.53965 8.90982L6.95831 8.60565H6.44082ZM6.44082 8.60565L6.53965 8.90982L6.28091 9.09781L6.02217 8.90982L6.121 8.60565H6.44082Z" fill="white"/>
<path d="M6.53965 8.90982L6.44082 8.60565H6.121L6.02217 8.90982L6.28091 9.09781L6.53965 8.90982Z" fill="white"/>
<path fill-rule="evenodd" clip-rule="evenodd" d="M9.17511 9.73265L9.07516 9.42505L8.97522 9.73265H8.65179L8.91345 9.92276L8.81351 10.2304L9.07516 10.0402L9.33682 10.2304L9.23688 9.92276L9.49854 9.73265H9.17511ZM9.17511 9.73265L9.23688 9.92276L9.07516 10.0402L8.91345 9.92276L8.97522 9.73265H9.17511Z" fill="white"/>
<path d="M9.23688 9.92276L9.17511 9.73265H8.97522L8.91345 9.92276L9.07516 10.0402L9.23688 9.92276Z" fill="white"/>
<path fill-rule="evenodd" clip-rule="evenodd" d="M10.1988 8.32087L10.0489 7.85947L9.899 8.32087H9.41386L9.80635 8.60603L9.65643 9.06742L10.0489 8.78226L10.4414 9.06742L10.2915 8.60603L10.684 8.32087H10.1988ZM10.1988 8.32087L10.2915 8.60603L10.0489 8.78226L9.80635 8.60603L9.899 8.32087H10.1988Z" fill="white"/>
<path d="M10.2915 8.60603L10.1988 8.32087H9.899L9.80635 8.60603L10.0489 8.78226L10.2915 8.60603Z" fill="white"/>
<path fill-rule="evenodd" clip-rule="evenodd" d="M8.34364 11.1825L8.14375 10.5673L7.94386 11.1825H7.297L7.82032 11.5627L7.62043 12.1779L8.14375 11.7977L8.66706 12.1779L8.46717 11.5627L8.99049 11.1825H8.34364ZM8.34364 11.1825L8.46717 11.5627L8.14375 11.7977L7.82032 11.5627L7.94386 11.1825H8.34364Z" fill="white"/>
<path d="M8.46717 11.5627L8.34364 11.1825H7.94386L7.82032 11.5627L8.14375 11.7977L8.46717 11.5627Z" fill="white"/>
</g>
<defs>
<clipPath id="clip0_1692_54047">
<rect x="2.04688" y="6.33447" width="19.9551" height="13.2998" rx="1" fill="white"/>
</clipPath>
</defs>
</svg>
