<svg width="25" height="25" viewBox="0 0 25 25" fill="none" xmlns="http://www.w3.org/2000/svg">
<g clip-path="url(#clip0_1692_54132)">
<path d="M2.56055 6.06787H22.5101V19.3675H2.56055V6.06787Z" fill="#003893"/>
<path d="M2.56055 12.7114H22.5101V15.6452H2.56055V12.7114Z" fill="white"/>
<path d="M2.56055 13.6899H22.5101V14.6679H2.56055V13.6899Z" fill="#CF2027"/>
<path d="M7.11768 13.4014L7.03434 13.3409L6.9026 13.7463L7.24749 13.4958L7.16414 13.4352L7.11768 13.4014Z" fill="#F7D116"/>
<path d="M7.06617 13.2429L7.08392 13.1883L7.11575 13.0903H6.68945L7.03434 13.3409L7.06617 13.2429Z" fill="#F7D116"/>
<path d="M7.4288 13.2429L7.46064 13.3409L7.80552 13.0903H7.37922L7.41105 13.1883L7.4288 13.2429Z" fill="#F7D116"/>
<path d="M7.33083 13.4352L7.24749 13.4958L7.59237 13.7463L7.46064 13.3409L7.37729 13.4014L7.33083 13.4352Z" fill="#F7D116"/>
<path d="M7.21877 13.0903H7.2762H7.37922L7.24749 12.6849L7.11575 13.0903H7.21877Z" fill="#F7D116"/>
<path d="M7.11575 13.0903L7.08392 13.1883L7.1723 13.217L7.15839 13.1979L7.19006 13.1926L7.20485 13.1641L7.21877 13.1833V13.0903H7.11575Z" fill="#F7D116"/>
<path fill-rule="evenodd" clip-rule="evenodd" d="M7.20485 13.1641L7.21877 13.1833V13.0903H7.2762V13.1833L7.29012 13.1641L7.30491 13.1926L7.33659 13.1979L7.32267 13.217L7.41105 13.1883L7.4288 13.2429L7.46064 13.3409L7.37729 13.4014L7.33083 13.4352L7.2762 13.36V13.3837L7.24749 13.3693L7.21877 13.3837V13.36L7.16414 13.4352L7.11768 13.4014L7.03434 13.3409L7.06617 13.2429L7.15455 13.2716L7.20102 13.2565L7.1723 13.217L7.15839 13.1979L7.19006 13.1926L7.20485 13.1641Z" fill="#F7D116"/>
<path d="M7.16414 13.4352L7.24749 13.4958L7.33083 13.4352L7.2762 13.36V13.3837L7.24749 13.3693L7.21877 13.3837V13.36L7.16414 13.4352Z" fill="#F7D116"/>
<path d="M7.37922 13.0903H7.2762V13.1833L7.29012 13.1641L7.30491 13.1926L7.33659 13.1979L7.32267 13.217L7.41105 13.1883L7.37922 13.0903Z" fill="#F7D116"/>
<path d="M7.08392 13.1883L7.06617 13.2429L7.15455 13.2716L7.20102 13.2565L7.1723 13.217L7.08392 13.1883Z" fill="#F7D116"/>
<path d="M7.2762 14.9035H7.37922L7.24749 14.498L7.11575 14.9035H7.21877H7.2762Z" fill="#F7D116"/>
<path d="M7.08392 15.0015L7.11575 14.9035H6.68945L7.03434 15.1541L7.06617 15.0561L7.08392 15.0015Z" fill="#F7D116"/>
<path d="M7.41105 15.0015L7.4288 15.0561L7.46064 15.1541L7.80552 14.9035H7.37922L7.41105 15.0015Z" fill="#F7D116"/>
<path d="M7.37729 15.2146L7.33083 15.2484L7.24749 15.3089L7.59237 15.5595L7.46064 15.1541L7.37729 15.2146Z" fill="#F7D116"/>
<path d="M7.11768 15.2146L7.03434 15.1541L6.9026 15.5595L7.24749 15.3089L7.16414 15.2484L7.11768 15.2146Z" fill="#F7D116"/>
<path fill-rule="evenodd" clip-rule="evenodd" d="M7.11768 15.2146L7.16414 15.2484L7.21877 15.1732V15.1969L7.24749 15.1825L7.2762 15.1969V15.1732L7.33083 15.2484L7.37729 15.2146L7.46064 15.1541L7.4288 15.0561L7.41105 15.0015L7.32267 15.0302L7.33659 15.011L7.30491 15.0058L7.29012 14.9773L7.2762 14.9964V14.9035H7.21877V14.9964L7.20485 14.9773L7.19006 15.0058L7.15839 15.011L7.1723 15.0302L7.08392 15.0015L7.06617 15.0561L7.15455 15.0848L7.13204 15.0921L7.15457 15.115L7.14979 15.1467L7.1723 15.1394L7.11768 15.2146Z" fill="#F7D116"/>
<path d="M7.21877 14.9035H7.11575L7.08392 15.0015L7.1723 15.0302L7.15839 15.011L7.19006 15.0058L7.20485 14.9773L7.21877 14.9964V14.9035Z" fill="#F7D116"/>
<path d="M7.37922 14.9035H7.2762V14.9964L7.29012 14.9773L7.30491 15.0058L7.33659 15.011L7.32267 15.0302L7.41105 15.0015L7.37922 14.9035Z" fill="#F7D116"/>
<path d="M7.16414 15.2484L7.24749 15.3089L7.33083 15.2484L7.2762 15.1732V15.1969L7.24749 15.1825L7.21877 15.1969V15.1732L7.16414 15.2484Z" fill="#F7D116"/>
<path d="M7.03434 15.1541L7.11768 15.2146L7.1723 15.1394L7.14979 15.1467L7.15457 15.115L7.13204 15.0921L7.15455 15.0848L7.06617 15.0561L7.03434 15.1541Z" fill="#F7D116"/>
<path d="M8.4768 16.4683L8.49455 16.523L8.52638 16.6209L8.87127 16.3704H8.44497L8.4768 16.4683Z" fill="#F7D116"/>
<path d="M8.25217 16.3704H8.28452H8.34195H8.3743H8.44497L8.31323 15.9649L8.1815 16.3704H8.25217Z" fill="#F7D116"/>
<path d="M8.10008 16.6209L8.13192 16.523L8.14967 16.4683L8.1815 16.3704H7.7552L8.10008 16.6209Z" fill="#F7D116"/>
<path d="M8.22989 16.7152L8.18343 16.6815L8.10008 16.6209L7.96835 17.0264L8.31323 16.7758L8.22989 16.7152Z" fill="#F7D116"/>
<path d="M8.44304 16.6815L8.39658 16.7152L8.31323 16.7758L8.65812 17.0264L8.52638 16.6209L8.44304 16.6815Z" fill="#F7D116"/>
<path d="M8.22989 16.7152L8.31323 16.7758L8.39658 16.7152L8.34195 16.6401V16.6637L8.31323 16.6494L8.28452 16.6637V16.6401L8.22989 16.7152Z" fill="#F7D116"/>
<path d="M8.44304 16.6815L8.52638 16.6209L8.49455 16.523L8.40617 16.5517L8.42868 16.559L8.40615 16.5819L8.41093 16.6136L8.38842 16.6063L8.44304 16.6815Z" fill="#F7D116"/>
<path d="M8.4768 16.4683L8.44497 16.3704H8.3743L8.39019 16.4759L8.40233 16.4779L8.39253 16.4914L8.39315 16.4955L8.4768 16.4683Z" fill="#F7D116"/>
<path d="M8.1815 16.3704L8.14967 16.4683L8.23332 16.4955L8.23394 16.4914L8.22413 16.4779L8.23628 16.4759L8.25217 16.3704H8.1815Z" fill="#F7D116"/>
<path fill-rule="evenodd" clip-rule="evenodd" d="M8.39019 16.4759L8.3743 16.3704H8.34195V16.4633L8.31323 16.5028L8.28452 16.4633V16.3704H8.25217L8.23628 16.4759L8.22413 16.4779L8.23394 16.4914L8.23332 16.4955L8.14967 16.4683L8.13192 16.523L8.10008 16.6209L8.18343 16.6815L8.22989 16.7152L8.28452 16.6401V16.6637L8.31323 16.6494L8.34195 16.6637V16.6401L8.39658 16.7152L8.44304 16.6815L8.38842 16.6063L8.41093 16.6136L8.40615 16.5819L8.42868 16.559L8.40617 16.5517L8.49455 16.523L8.4768 16.4683L8.39315 16.4955L8.39253 16.4914L8.40233 16.4779L8.39019 16.4759Z" fill="#F7D116"/>
<path d="M8.34195 16.3704H8.28452V16.4633L8.31323 16.5028L8.34195 16.4633V16.3704Z" fill="#F7D116"/>
<path d="M10.0664 16.9307H10.1694L10.0377 16.5252L9.90592 16.9307H10.0089H10.0664Z" fill="#F7D116"/>
<path d="M10.2012 17.0286L10.219 17.0833L10.2508 17.1812L10.5957 16.9307H10.1694L10.2012 17.0286Z" fill="#F7D116"/>
<path d="M10.1675 17.2418L10.121 17.2755L10.0377 17.3361L10.3825 17.5867L10.2508 17.1812L10.1675 17.2418Z" fill="#F7D116"/>
<path d="M9.95431 17.2755L9.90784 17.2418L9.8245 17.1812L9.69277 17.5867L10.0377 17.3361L9.95431 17.2755Z" fill="#F7D116"/>
<path d="M9.87408 17.0286L9.90592 16.9307H9.47962L9.8245 17.1812L9.85633 17.0833L9.87408 17.0286Z" fill="#F7D116"/>
<path d="M10.0089 16.9307H9.90592L9.87408 17.0286L9.96247 17.0573L9.94855 17.0382L9.98022 17.0329L9.99502 17.0044L10.0089 17.0236V16.9307Z" fill="#F7D116"/>
<path d="M10.219 17.0833L10.2012 17.0286L10.1128 17.0573L10.0841 17.0969L10.1306 17.112L10.219 17.0833Z" fill="#F7D116"/>
<path d="M10.1694 16.9307H10.0664V17.0236L10.0803 17.0044L10.0951 17.0329L10.1268 17.0382L10.1128 17.0573L10.2012 17.0286L10.1694 16.9307Z" fill="#F7D116"/>
<path fill-rule="evenodd" clip-rule="evenodd" d="M9.99502 17.0044L10.0089 17.0236V16.9307H10.0664V17.0236L10.0803 17.0044L10.0951 17.0329L10.1268 17.0382L10.1128 17.0573L10.0841 17.0969L10.1306 17.112L10.219 17.0833L10.2508 17.1812L10.1675 17.2418L10.121 17.2755L10.0664 17.2004V17.224L10.0377 17.2097L10.0089 17.224V17.2004L9.95431 17.2755L9.90784 17.2418L9.8245 17.1812L9.85633 17.0833L9.87408 17.0286L9.96247 17.0573L9.94855 17.0382L9.98022 17.0329L9.99502 17.0044Z" fill="#F7D116"/>
<path d="M9.95431 17.2755L10.0377 17.3361L10.121 17.2755L10.0664 17.2004V17.224L10.0377 17.2097L10.0089 17.224V17.2004L9.95431 17.2755Z" fill="#F7D116"/>
<path d="M11.9434 16.523L11.9752 16.6209L12.3201 16.3704H11.8938L11.9256 16.4683L11.9434 16.523Z" fill="#F7D116"/>
<path d="M11.8454 16.7152L11.7621 16.7758L12.1069 17.0264L11.9752 16.6209L11.8919 16.6815L11.8454 16.7152Z" fill="#F7D116"/>
<path d="M11.6323 16.6815L11.5489 16.6209L11.4172 17.0264L11.7621 16.7758L11.6787 16.7152L11.6323 16.6815Z" fill="#F7D116"/>
<path d="M11.5808 16.523L11.5985 16.4683L11.6303 16.3704H11.204L11.5489 16.6209L11.5808 16.523Z" fill="#F7D116"/>
<path d="M11.8938 16.3704L11.7621 15.9649L11.6303 16.3704H11.701H11.7333H11.7908H11.8231H11.8938Z" fill="#F7D116"/>
<path d="M11.6303 16.3704L11.5985 16.4683L11.6822 16.4955L11.6828 16.4914L11.673 16.4779L11.6851 16.4759L11.701 16.3704H11.6303Z" fill="#F7D116"/>
<path fill-rule="evenodd" clip-rule="evenodd" d="M11.701 16.3704L11.6851 16.4759L11.673 16.4779L11.6828 16.4914L11.6822 16.4955L11.5985 16.4683L11.5808 16.523L11.6691 16.5517L11.6466 16.559L11.6691 16.5819L11.6644 16.6136L11.6869 16.6063L11.6323 16.6815L11.6787 16.7152L11.7333 16.6401V16.6637L11.7621 16.6494L11.7908 16.6637V16.6401L11.8454 16.7152L11.8919 16.6815L11.8373 16.6063L11.8598 16.6136L11.855 16.5819L11.8775 16.559L11.855 16.5517L11.9434 16.523L11.9256 16.4683L11.842 16.4955L11.8414 16.4914L11.8512 16.4779L11.839 16.4759L11.8231 16.3704H11.7908H11.7333H11.701Z" fill="#F7D116"/>
<path d="M11.9752 16.6209L11.9434 16.523L11.855 16.5517L11.8775 16.559L11.855 16.5819L11.8598 16.6136L11.8373 16.6063L11.8919 16.6815L11.9752 16.6209Z" fill="#F7D116"/>
<path d="M11.6787 16.7152L11.7621 16.7758L11.8454 16.7152L11.7908 16.6401V16.6637L11.7621 16.6494L11.7333 16.6637V16.6401L11.6787 16.7152Z" fill="#F7D116"/>
<path d="M11.5489 16.6209L11.6323 16.6815L11.6869 16.6063L11.6644 16.6136L11.6691 16.5819L11.6466 16.559L11.6691 16.5517L11.5808 16.523L11.5489 16.6209Z" fill="#F7D116"/>
<path d="M11.9256 16.4683L11.8938 16.3704H11.8231L11.839 16.4759L11.8512 16.4779L11.8414 16.4914L11.842 16.4955L11.9256 16.4683Z" fill="#F7D116"/>
<path d="M12.8565 14.9035H12.9595L12.8278 14.498L12.6961 14.9035H12.7991H12.8565Z" fill="#F7D116"/>
<path d="M12.6642 15.0015L12.6961 14.9035H12.2698L12.6147 15.1541L12.6465 15.0561L12.6642 15.0015Z" fill="#F7D116"/>
<path d="M12.9914 15.0015L13.0091 15.0561L13.041 15.1541L13.3858 14.9035H12.9595L12.9914 15.0015Z" fill="#F7D116"/>
<path d="M12.9112 15.2484L12.8278 15.3089L13.1727 15.5595L13.041 15.1541L12.9576 15.2146L12.9112 15.2484Z" fill="#F7D116"/>
<path d="M12.698 15.2146L12.6147 15.1541L12.4829 15.5595L12.8278 15.3089L12.7445 15.2484L12.698 15.2146Z" fill="#F7D116"/>
<path fill-rule="evenodd" clip-rule="evenodd" d="M12.698 15.2146L12.6147 15.1541L12.6465 15.0561L12.6642 15.0015L12.7526 15.0302L12.7387 15.011L12.7704 15.0058L12.7852 14.9773L12.7991 14.9964V14.9035H12.8565V14.9964L12.8704 14.9773L12.8852 15.0058L12.9169 15.011L12.903 15.0302L12.9914 15.0015L13.0091 15.0561L12.9207 15.0848L12.9433 15.0921L12.9207 15.115L12.9255 15.1467L12.903 15.1394L12.9576 15.2146L12.9112 15.2484L12.8565 15.1732V15.1969L12.8278 15.1825L12.7991 15.1969V15.1732L12.7445 15.2484L12.698 15.2146Z" fill="#F7D116"/>
<path d="M12.7991 14.9035H12.6961L12.6642 15.0015L12.7526 15.0302L12.7387 15.011L12.7704 15.0058L12.7852 14.9773L12.7991 14.9964V14.9035Z" fill="#F7D116"/>
<path d="M12.9595 14.9035H12.8565V14.9964L12.8704 14.9773L12.8852 15.0058L12.9169 15.011L12.903 15.0302L12.9914 15.0015L12.9595 14.9035Z" fill="#F7D116"/>
<path d="M12.9576 15.2146L13.041 15.1541L13.0091 15.0561L12.9207 15.0848L12.9433 15.0921L12.9207 15.115L12.9255 15.1467L12.903 15.1394L12.9576 15.2146Z" fill="#F7D116"/>
<path d="M12.7445 15.2484L12.8278 15.3089L12.9112 15.2484L12.8565 15.1732V15.1969L12.8278 15.1825L12.7991 15.1969V15.1732L12.7445 15.2484Z" fill="#F7D116"/>
<path d="M12.698 13.4014L12.6147 13.3409L12.4829 13.7463L12.8278 13.4958L12.7445 13.4352L12.698 13.4014Z" fill="#F7D116"/>
<path d="M12.9112 13.4352L12.8278 13.4958L13.1727 13.7463L13.041 13.3409L12.9576 13.4014L12.9112 13.4352Z" fill="#F7D116"/>
<path d="M12.9914 13.1883L13.0091 13.2429L13.041 13.3409L13.3858 13.0903H12.9595L12.9914 13.1883Z" fill="#F7D116"/>
<path d="M12.8565 13.0903H12.9595L12.8278 12.6849L12.6961 13.0903H12.7991H12.8565Z" fill="#F7D116"/>
<path d="M12.6465 13.2429L12.6642 13.1883L12.6961 13.0903H12.2698L12.6147 13.3409L12.6465 13.2429Z" fill="#F7D116"/>
<path fill-rule="evenodd" clip-rule="evenodd" d="M12.7852 13.1641L12.7991 13.1833V13.0903H12.8565V13.1833L12.8704 13.1641L12.8852 13.1926L12.9169 13.1979L12.903 13.217L12.9914 13.1883L13.0091 13.2429L12.9207 13.2716L12.9433 13.279L12.9207 13.3018L12.9255 13.3336L12.903 13.3263L12.9576 13.4014L12.9112 13.4352L12.8565 13.36V13.3837L12.8278 13.3693L12.7991 13.3837V13.36L12.7445 13.4352L12.698 13.4014L12.6147 13.3409L12.6465 13.2429L12.6642 13.1883L12.7526 13.217L12.7387 13.1979L12.7704 13.1926L12.7852 13.1641Z" fill="#F7D116"/>
<path d="M12.7991 13.0903H12.6961L12.6642 13.1883L12.7526 13.217L12.7387 13.1979L12.7704 13.1926L12.7852 13.1641L12.7991 13.1833V13.0903Z" fill="#F7D116"/>
<path d="M12.9595 13.0903H12.8565V13.1833L12.8704 13.1641L12.8852 13.1926L12.9169 13.1979L12.903 13.217L12.9914 13.1883L12.9595 13.0903Z" fill="#F7D116"/>
<path d="M12.9576 13.4014L13.041 13.3409L13.0091 13.2429L12.9207 13.2716L12.9433 13.279L12.9207 13.3018L12.9255 13.3336L12.903 13.3263L12.9576 13.4014Z" fill="#F7D116"/>
<path d="M12.7445 13.4352L12.8278 13.4958L12.9112 13.4352L12.8565 13.36V13.3837L12.8278 13.3693L12.7991 13.3837V13.36L12.7445 13.4352Z" fill="#F7D116"/>
<path d="M11.7908 11.6234L11.8938 11.6234L11.7621 11.218L11.6303 11.6234L11.7333 11.6234L11.7908 11.6234Z" fill="#F7D116"/>
<path d="M11.5985 11.7214L11.6303 11.6234H11.204L11.5489 11.874L11.5808 11.776L11.5985 11.7214Z" fill="#F7D116"/>
<path d="M11.9256 11.7214L11.9434 11.776L11.9752 11.874L12.3201 11.6234H11.8938L11.9256 11.7214Z" fill="#F7D116"/>
<path d="M11.8454 11.9683L11.7621 12.0289L12.1069 12.2795L11.9752 11.874L11.8919 11.9346L11.8454 11.9683Z" fill="#F7D116"/>
<path d="M11.6323 11.9346L11.5489 11.874L11.4172 12.2795L11.7621 12.0289L11.6787 11.9683L11.6323 11.9346Z" fill="#F7D116"/>
<path d="M11.5808 11.776L11.5489 11.874L11.6323 11.9346L11.6869 11.8594L11.6644 11.8667L11.6691 11.835L11.6466 11.8121L11.6691 11.8048L11.5808 11.776Z" fill="#F7D116"/>
<path d="M11.7333 11.6234L11.6303 11.6234L11.5985 11.7214L11.6869 11.7501L11.673 11.731L11.7046 11.7257L11.7194 11.6972L11.7333 11.7164V11.6234Z" fill="#F7D116"/>
<path d="M11.8938 11.6234L11.7908 11.6234V11.7164L11.8047 11.6972L11.8195 11.7257L11.8512 11.731L11.8373 11.7501L11.9256 11.7214L11.8938 11.6234Z" fill="#F7D116"/>
<path fill-rule="evenodd" clip-rule="evenodd" d="M11.7333 11.6234L11.7908 11.6234V11.7164L11.8047 11.6972L11.8195 11.7257L11.8512 11.731L11.8373 11.7501L11.9256 11.7214L11.9434 11.776L11.855 11.8048L11.8775 11.8121L11.855 11.835L11.8598 11.8667L11.8373 11.8594L11.8919 11.9346L11.8454 11.9683L11.7621 12.0289L11.6787 11.9683L11.6323 11.9346L11.6869 11.8594L11.6644 11.8667L11.6691 11.835L11.6466 11.8121L11.6691 11.8048L11.5808 11.776L11.5985 11.7214L11.6869 11.7501L11.673 11.731L11.7046 11.7257L11.7194 11.6972L11.7333 11.7164V11.6234Z" fill="#F7D116"/>
<path d="M11.8919 11.9346L11.9752 11.874L11.9434 11.776L11.855 11.8048L11.8775 11.8121L11.855 11.835L11.8598 11.8667L11.8373 11.8594L11.8919 11.9346Z" fill="#F7D116"/>
<path d="M10.2508 11.3137L10.1675 11.3743L10.121 11.408L10.0377 11.4686L10.3825 11.7192L10.2508 11.3137Z" fill="#F7D116"/>
<path d="M10.0377 11.4686L9.95431 11.408L9.90784 11.3743L9.8245 11.3137L9.69277 11.7192L10.0377 11.4686Z" fill="#F7D116"/>
<path d="M9.8245 11.3137L9.85633 11.2157L9.87408 11.1611L9.90592 11.0631L9.47962 11.0631L9.8245 11.3137Z" fill="#F7D116"/>
<path d="M10.2012 11.1611L10.219 11.2157L10.2508 11.3137L10.5957 11.0631H10.1694L10.2012 11.1611Z" fill="#F7D116"/>
<path d="M10.0377 10.6577L9.90592 11.0631H9.97659H10.0089H10.0664H10.0987H10.1694L10.0377 10.6577Z" fill="#F7D116"/>
<path d="M10.2012 11.1611L10.1694 11.0631H10.0987L10.1146 11.1687L10.1268 11.1707L10.1169 11.1842L10.1176 11.1883L10.2012 11.1611Z" fill="#F7D116"/>
<path fill-rule="evenodd" clip-rule="evenodd" d="M9.97659 11.0631L9.96069 11.1687L9.94855 11.1707L9.95836 11.1842L9.95774 11.1883L9.87408 11.1611L9.85633 11.2157L9.94472 11.2445L9.9222 11.2518L9.94473 11.2747L9.93995 11.3064L9.96247 11.2991L9.90784 11.3743L9.95431 11.408L10.0089 11.3328V11.3565L10.0377 11.3422L10.0664 11.3565V11.3328L10.121 11.408L10.1675 11.3743L10.1128 11.2991L10.1354 11.3064L10.1306 11.2747L10.1531 11.2518L10.1306 11.2445L10.219 11.2157L10.2012 11.1611L10.1176 11.1883L10.1169 11.1842L10.1268 11.1707L10.1146 11.1687L10.0987 11.0631H10.0664H10.0089H9.97659Z" fill="#F7D116"/>
<path d="M9.85633 11.2157L9.8245 11.3137L9.90784 11.3743L9.96247 11.2991L9.93995 11.3064L9.94473 11.2747L9.9222 11.2518L9.94472 11.2445L9.85633 11.2157Z" fill="#F7D116"/>
<path d="M10.0377 11.4686L10.121 11.408L10.0664 11.3328V11.3565L10.0377 11.3422L10.0089 11.3565V11.3328L9.95431 11.408L10.0377 11.4686Z" fill="#F7D116"/>
<path d="M10.1675 11.3743L10.2508 11.3137L10.219 11.2157L10.1306 11.2445L10.1531 11.2518L10.1306 11.2747L10.1354 11.3064L10.1128 11.2991L10.1675 11.3743Z" fill="#F7D116"/>
<path d="M9.90592 11.0631L9.87408 11.1611L9.95774 11.1883L9.95836 11.1842L9.94855 11.1707L9.96069 11.1687L9.97659 11.0631H9.90592Z" fill="#F7D116"/>
<path d="M8.14967 11.7214L8.1815 11.6234H7.7552L8.10008 11.874L8.13192 11.776L8.14967 11.7214Z" fill="#F7D116"/>
<path d="M8.44304 11.9346L8.39658 11.9683L8.31323 12.0289L8.65812 12.2795L8.52638 11.874L8.44304 11.9346Z" fill="#F7D116"/>
<path d="M8.4768 11.7214L8.49455 11.776L8.52638 11.874L8.87127 11.6234H8.44497L8.4768 11.7214Z" fill="#F7D116"/>
<path d="M8.28452 11.6234H8.34195H8.44497L8.31323 11.218L8.1815 11.6234H8.28452Z" fill="#F7D116"/>
<path d="M8.18343 11.9346L8.10008 11.874L7.96835 12.2795L8.31323 12.0289L8.22989 11.9683L8.18343 11.9346Z" fill="#F7D116"/>
<path fill-rule="evenodd" clip-rule="evenodd" d="M8.14967 11.7214L8.13192 11.776L8.2203 11.8048L8.19779 11.8121L8.22032 11.835L8.21553 11.8667L8.23805 11.8594L8.18343 11.9346L8.22989 11.9683L8.28452 11.8931V11.9168L8.31323 11.9025L8.34195 11.9168V11.8931L8.39658 11.9683L8.44304 11.9346L8.52638 11.874L8.49455 11.776L8.4768 11.7214L8.38842 11.7501L8.40233 11.731L8.37066 11.7257L8.35587 11.6972L8.34195 11.7164V11.6234H8.28452V11.7164L8.2706 11.6972L8.25581 11.7257L8.22413 11.731L8.23805 11.7501L8.14967 11.7214Z" fill="#F7D116"/>
<path d="M8.44497 11.6234H8.34195V11.7164L8.35587 11.6972L8.37066 11.7257L8.40233 11.731L8.38842 11.7501L8.4768 11.7214L8.44497 11.6234Z" fill="#F7D116"/>
<path d="M8.1815 11.6234L8.14967 11.7214L8.23805 11.7501L8.22413 11.731L8.25581 11.7257L8.2706 11.6972L8.28452 11.7164V11.6234H8.1815Z" fill="#F7D116"/>
<path d="M8.13192 11.776L8.10008 11.874L8.18343 11.9346L8.23805 11.8594L8.21553 11.8667L8.22032 11.835L8.19779 11.8121L8.2203 11.8048L8.13192 11.776Z" fill="#F7D116"/>
<path d="M8.22989 11.9683L8.31323 12.0289L8.39658 11.9683L8.34195 11.8931V11.9168L8.31323 11.9025L8.28452 11.9168V11.8931L8.22989 11.9683Z" fill="#F7D116"/>
</g>
<defs>
<clipPath id="clip0_1692_54132">
<rect x="2.56055" y="6.06787" width="19.9495" height="13.2997" rx="1" fill="white"/>
</clipPath>
</defs>
</svg>
