<svg width="25" height="25" viewBox="0 0 25 25" fill="none" xmlns="http://www.w3.org/2000/svg">
<g clip-path="url(#clip0_1692_54060)">
<path d="M2.04883 5.68115H21.9983V18.9808H2.04883V5.68115Z" fill="black"/>
<path d="M2.04883 5.68115H21.9983V18.9808L2.04883 5.68115Z" fill="#CE1126"/>
<path d="M14.4045 10.0301C14.2572 10.2204 13.9085 9.83868 13.4908 9.82996C13.0731 9.82124 12.7772 10.2302 12.6554 10.3695C12.5336 10.5087 12.142 11.2397 12.1507 11.318C12.1594 11.3963 12.3944 11.1005 12.4814 11.0482C12.4901 11.1527 12.3857 11.2745 12.4118 11.3093C12.4379 11.3441 12.7163 11.1005 12.8121 11.0918C12.8382 11.1614 12.7598 11.231 12.7859 11.3354C12.8208 11.3702 12.9774 11.1614 13.0818 11.1179C13.0992 11.1962 12.9861 11.3441 13.047 11.4398C13.0905 11.4485 13.3516 11.144 13.4386 11.1091C13.5256 11.0743 13.3951 11.3963 13.4386 11.4224C13.5169 11.3702 13.7606 11.0917 13.8389 11.0569C13.9172 11.0221 13.8302 11.4137 13.865 11.4137C13.9607 11.3441 14.2044 11.0134 14.2305 10.9612C14.2566 10.909 14.2044 11.4659 14.4741 11.7618C14.7439 12.0577 15.1529 12.397 15.1964 12.397C15.2486 12.3013 15.179 12.1012 15.2225 12.1099C15.3443 12.2404 15.5706 12.4318 15.6228 12.4318C15.675 12.4318 15.588 12.223 15.6576 12.223C15.7968 12.3535 16.1971 12.867 16.9803 13.1019C16.9281 12.954 16.8149 12.8234 16.8062 12.7538C16.8585 12.7625 17.0412 12.8496 17.076 12.8408C17.1108 12.8321 16.6931 12.3187 16.7192 12.2491C16.815 12.2404 16.8585 12.3013 16.8933 12.2578C16.8498 12.1882 16.4843 11.7792 16.4843 11.6835C16.4843 11.5877 16.5974 11.7009 16.6322 11.6835C16.667 11.6661 16.493 11.3006 16.5278 11.2571C16.5626 11.2136 16.9455 11.492 17.0412 11.492C17.1369 11.492 17.0673 11.1527 17.1108 11.1353C17.1543 11.1178 17.4763 11.318 17.5459 11.318C17.6155 11.318 17.6068 11.17 17.6329 11.1875C17.659 11.2049 18.4161 11.9619 18.1551 12.8495C17.894 13.4848 17.3719 13.8242 16.6061 13.5457C16.6496 13.6153 17.0586 13.9547 17.5024 13.8329C17.9462 13.711 18.4857 13.363 18.4248 12.4928C18.3639 11.6226 18.0767 11.5008 18.0332 11.3702C17.9897 11.2397 18.1029 11.405 18.1986 11.4399C18.2943 11.4747 18.1812 11.2571 18.1551 11.1614C18.1289 11.0656 18.4422 11.3615 18.5205 11.3876C18.5989 11.4137 18.3378 10.6741 18.2595 10.6219C18.1812 10.5696 18.3378 10.6392 18.39 10.6567C18.4422 10.6741 17.9114 9.84737 17.7983 9.84737C17.6851 9.84737 17.894 9.80385 17.9549 9.80385C18.0158 9.80385 17.3458 9.26432 17.2327 9.26432C17.1195 9.26432 17.4763 9.12508 17.5111 9.11638C17.572 9.12508 16.7366 8.67258 15.9883 9.12508C15.9448 9.0903 16.3407 8.81619 16.3538 8.69872C16.3581 8.66825 16.2232 8.60299 16.2145 8.56819C16.2058 8.53339 16.4234 8.42897 16.4321 8.35065C16.3799 8.28102 16.2841 8.30713 16.2319 8.28974C16.2189 8.22448 16.4147 8.06348 16.3973 7.99389C16.3842 7.95473 16.2406 7.94167 16.2058 7.96778C16.171 7.99389 16.2972 7.78504 16.2754 7.72413C16.258 7.69803 16.1884 7.71544 16.1188 7.73283C16.0753 7.72413 16.3451 7.34993 16.2928 7.29772C16.2406 7.24551 15.5096 7.68059 15.2399 8.16791C14.9701 8.65522 15.179 9.04681 15.1442 9.21214C15.1094 9.37747 15.0658 9.54282 14.9527 9.54282C14.8396 9.54282 14.5786 9.36877 14.4915 9.28176C14.4045 9.19475 14.3871 9.13382 14.2653 9.09902C14.1435 9.06422 13.865 9.16865 13.7606 9.17734C13.6562 9.18603 13.2472 9.09902 13.2211 9.12513C13.1949 9.15123 13.6213 9.30787 13.7171 9.36008C13.8128 9.41229 13.8215 9.48192 13.8911 9.52541C13.9607 9.5689 14.6134 9.76036 14.4045 10.0301ZM16.9542 11.2571C17.163 11.4659 18.5727 12.4057 18.5727 13.5544C18.5727 14.7031 17.5459 14.6683 17.25 14.6335C17.5807 14.9119 18.8338 14.8597 18.8338 13.5544C18.8338 12.4057 17.2152 11.2571 17.0064 11.1527C16.7976 11.0482 16.7453 11.0482 16.9542 11.2571Z" fill="#FCD116"/>
<path d="M7.0307 10.2695L7.26525 10.9443L7.97949 10.9589L7.41022 11.3905L7.61709 12.0742L7.0307 11.6662L6.44432 12.0742L6.65118 11.3905L6.08191 10.9589L6.79615 10.9443L7.0307 10.2695Z" fill="white"/>
</g>
<defs>
<clipPath id="clip0_1692_54060">
<rect x="2.04883" y="5.68115" width="19.9495" height="13.2997" rx="1" fill="white"/>
</clipPath>
</defs>
</svg>
