<svg width="25" height="25" viewBox="0 0 25 25" fill="none" xmlns="http://www.w3.org/2000/svg">
<g clip-path="url(#clip0_1692_54019)">
<path d="M2.05078 5.68115H22.0003V12.331L5.15404 18.8331L2.05078 5.68115Z" fill="#0038A8"/>
<path d="M5.15404 12.3311H22.0003V18.9809H2.05078L5.15404 12.3311Z" fill="#CE1126"/>
<path d="M13.5686 12.331L2.05078 18.9808V5.68115L13.5686 12.331Z" fill="white"/>
<path d="M6.19305 12.33L5.7255 9.97908L5.86514 9.83928L6.19305 12.33ZM6.19305 12.33L6.02031 9.69506L6.19305 9.52231L6.3658 9.69506L6.19305 12.33ZM6.19305 12.33L6.52097 9.83928L6.66061 9.97908L6.19305 12.33Z" fill="#FCD116"/>
<path d="M6.19305 12.33L6.66061 14.681L6.52097 14.8208L6.19305 12.33ZM6.19305 12.33L6.3658 14.965L6.19305 15.1377L6.02031 14.965L6.19305 12.33ZM6.19305 12.33L5.86514 14.8208L5.7255 14.681L6.19305 12.33Z" fill="#FCD116"/>
<path d="M6.19305 12.33L8.54399 11.8625L8.68379 12.0021L6.19305 12.33ZM6.19305 12.33L8.82802 12.1573L9.00076 12.33L8.82802 12.5028L6.19305 12.33ZM6.19305 12.33L8.68379 12.6579L8.54399 12.7976L6.19305 12.33Z" fill="#FCD116"/>
<path d="M6.19305 12.33L3.84211 12.7976L3.70232 12.6579L6.19305 12.33ZM6.19305 12.33L3.55809 12.5028L3.38534 12.33L3.55809 12.1573L6.19305 12.33ZM6.19305 12.33L3.70232 12.0021L3.84211 11.8625L6.19305 12.33Z" fill="#FCD116"/>
<path d="M6.19305 12.33L7.52481 10.337L7.7224 10.3369L6.19305 12.33ZM6.19305 12.33L7.9341 10.3447H8.17841V10.589L6.19305 12.33ZM6.19305 12.33L8.18614 10.8007L8.18603 10.9983L6.19305 12.33Z" fill="#FCD116"/>
<path d="M6.19305 12.33L4.8613 14.323L4.66371 14.3231L6.19305 12.33ZM6.19305 12.33L4.45201 14.3154H4.2077V14.0711L6.19305 12.33ZM6.19305 12.33L4.19997 13.8594L4.20008 13.6618L6.19305 12.33Z" fill="#FCD116"/>
<path d="M6.19305 12.33L8.18603 13.6618L8.18614 13.8594L6.19305 12.33ZM6.19305 12.33L8.17841 14.0711V14.3154H7.9341L6.19305 12.33ZM6.19305 12.33L7.7224 14.3231L7.52481 14.323L6.19305 12.33Z" fill="#FCD116"/>
<path d="M12.2432 12.33L11.7435 12.5038L11.7327 13.0327L11.413 12.6111L10.9066 12.7643L11.2088 12.33L10.9066 11.8957L11.413 12.049L11.7327 11.6274L11.7435 12.1562L12.2432 12.33Z" fill="#FCD116"/>
<path d="M2.72043 17.828L2.81982 17.3083L2.36719 17.0345L2.89212 16.9685L3.01262 16.4533L3.23764 16.9322L3.76487 16.8876L3.37894 17.2496L3.58424 17.7372L3.12082 17.4821L2.72043 17.828Z" fill="#FCD116"/>
<path d="M2.72043 6.83203L3.12082 7.17796L3.58424 6.92286L3.37894 7.41047L3.76487 7.77242L3.23764 7.72786L3.01262 8.20673L2.89212 7.69153L2.36719 7.62552L2.81982 7.35174L2.72043 6.83203Z" fill="#FCD116"/>
<path fill-rule="evenodd" clip-rule="evenodd" d="M5.13787 11.5203C5.15556 11.4973 5.17398 11.4749 5.1931 11.4531L4.2077 10.589V10.3447H4.45201L5.31615 11.3301C5.33794 11.3109 5.36036 11.2925 5.38338 11.2748L4.66371 10.3369L4.8613 10.337L5.45405 11.2241C5.66541 11.0826 5.91959 11 6.19305 11C6.92758 11 7.52302 11.5955 7.52302 12.33C7.52302 13.0645 6.92758 13.66 6.19305 13.66C5.45853 13.66 4.86309 13.0645 4.86309 12.33C4.86309 12.0566 4.94562 11.8024 5.08713 11.591L6.19305 12.33L5.13787 11.5203ZM5.13787 11.5203C5.12021 11.5433 5.10329 11.5669 5.08713 11.591L4.20008 10.9983L4.19997 10.8007L5.13787 11.5203Z" fill="#FCD116"/>
<path d="M5.08713 11.591L6.19305 12.33L5.13787 11.5203C5.12021 11.5433 5.10329 11.5669 5.08713 11.591Z" fill="#FCD116"/>
</g>
<defs>
<clipPath id="clip0_1692_54019">
<rect x="2.05078" y="5.68115" width="19.9495" height="13.2997" rx="1" fill="white"/>
</clipPath>
</defs>
</svg>
