<svg width="24" height="24" viewBox="0 0 24 24" fill="none" xmlns="http://www.w3.org/2000/svg">
<path d="M13.0006 10.9994L3.50062 20.4994M14.019 3.53789C15.2371 4.34609 16.4078 5.29892 17.5018 6.39291C18.6052 7.49634 19.565 8.67782 20.3777 9.90717M9.25558 7.89556L6.38071 6.93727C6.04963 6.82691 5.68496 6.89714 5.41854 7.12257L2.56138 9.54016C1.97646 10.0351 2.14263 10.977 2.86162 11.2419L5.56881 12.2393M11.6817 18.3519L12.6791 21.0591C12.9439 21.7781 13.8858 21.9443 14.3808 21.3594L16.7984 18.5022C17.0238 18.2358 17.094 17.8711 16.9837 17.5401L16.0254 14.6652M19.3492 2.27015L14.4427 3.08789C13.9129 3.17619 13.427 3.4366 13.06 3.82884L6.44698 10.898C4.73282 12.7304 4.7805 15.5919 6.55475 17.3662C8.329 19.1404 11.1906 19.1881 13.023 17.474L20.0921 10.8609C20.4843 10.494 20.7447 10.008 20.833 9.4782L21.6508 4.57173C21.8764 3.21809 20.7028 2.04454 19.3492 2.27015Z" stroke="#1C1D20" stroke-width="1.5" stroke-linecap="round" stroke-linejoin="round"/>
</svg>
