<svg width="24" height="24" viewBox="0 0 24 24" fill="none" xmlns="http://www.w3.org/2000/svg">
<path d="M16.9983 19.4C16.9983 20.8359 15.879 22 14.4983 22C13.1175 22 11.9983 20.8359 11.9983 19.4V12M2.12456 10.4063C2.88777 5.64091 7.01782 2 11.9983 2C16.9787 2 21.1087 5.64091 21.872 10.4063C21.9464 10.8714 21.9837 11.1039 21.8902 11.3523C21.8158 11.55 21.6336 11.7636 21.4502 11.8684C21.2197 12 20.9459 12 20.3983 12H3.59826C3.05061 12 2.77679 12 2.54631 11.8684C2.36292 11.7636 2.18075 11.55 2.10634 11.3523C2.01282 11.1039 2.05007 10.8714 2.12456 10.4063Z" stroke="#1C1D20" stroke-width="1.5" stroke-linecap="round" stroke-linejoin="round"/>
</svg>
