<svg width="25" height="25" viewBox="0 0 25 25" fill="none" xmlns="http://www.w3.org/2000/svg">
<g clip-path="url(#clip0_1692_54108)">
<path d="M2.04688 5.55225H21.9964V18.8519H2.04688V5.55225Z" fill="#006600"/>
<path d="M2.04688 5.55225H21.9964V15.052H2.04688V5.55225Z" fill="white"/>
<path d="M2.04688 5.55225H21.9964V9.35215H2.04688V5.55225Z" fill="#CC0000"/>
<path fill-rule="evenodd" clip-rule="evenodd" d="M11.5995 11.9189C11.552 11.9389 11.5122 11.9738 11.4863 12.0184C11.4583 11.9342 11.4508 11.8445 11.4643 11.7568C11.4778 11.6691 11.5119 11.5858 11.5638 11.5139C11.6158 11.4419 11.6841 11.3833 11.7631 11.3429C11.8421 11.3025 11.9296 11.2814 12.0183 11.2814C12.1071 11.2814 12.1946 11.3025 12.2736 11.3429C12.3526 11.3833 12.4209 11.4419 12.4728 11.5139C12.5248 11.5858 12.5589 11.6691 12.5724 11.7568C12.5859 11.8445 12.5783 11.9342 12.5504 12.0184C12.5245 11.9738 12.4847 11.9389 12.4371 11.9189C12.3896 11.8989 12.3368 11.8949 12.2868 11.9076C12.2367 11.9203 12.1922 11.9489 12.1599 11.9891C12.1276 12.0293 12.1092 12.079 12.1076 12.1306V13.0807H11.929V12.1306C11.9274 12.079 11.9091 12.0293 11.8768 11.9891C11.8445 11.9489 11.7999 11.9203 11.7499 11.9076C11.6999 11.8949 11.6471 11.8989 11.5995 11.9189ZM11.8452 11.796C11.7726 11.7635 11.6916 11.7545 11.6136 11.7705C11.627 11.6727 11.6754 11.583 11.7498 11.5182C11.8242 11.4533 11.9196 11.4175 12.0183 11.4175C12.1171 11.4175 12.2124 11.4533 12.2868 11.5182C12.3612 11.583 12.4096 11.6727 12.4231 11.7705C12.3451 11.7545 12.2641 11.7635 12.1915 11.796C12.1189 11.8286 12.0583 11.8831 12.0183 11.9519C11.9784 11.8831 11.9178 11.8286 11.8452 11.796Z" fill="#F8C300"/>
<path d="M11.929 12.7011C11.9169 12.836 11.8672 12.9646 11.7854 13.0725C11.7037 13.1804 11.5933 13.2632 11.4668 13.3114C11.3403 13.3595 11.2029 13.3712 11.0701 13.345C10.9373 13.3188 10.8145 13.2558 10.7158 13.1632C10.6736 13.2691 10.6079 13.364 10.5236 13.4407C10.4393 13.5174 10.3386 13.5739 10.2292 13.6058C10.1198 13.6378 10.0045 13.6445 9.89218 13.6253C9.77983 13.6061 9.67332 13.5616 9.58074 13.4951C9.65009 14.1873 10.6877 14.046 10.765 13.373C11.0909 13.9452 11.8077 13.7813 12.0174 13.0803L11.929 12.7011Z" fill="#F8C300"/>
<path d="M12.1058 12.7011C12.1179 12.8359 12.1676 12.9646 12.2494 13.0725C12.3311 13.1804 12.4415 13.2632 12.568 13.3113C12.6945 13.3595 12.8319 13.3712 12.9647 13.345C13.0975 13.3188 13.2203 13.2558 13.319 13.1632C13.3612 13.2691 13.4269 13.364 13.5112 13.4407C13.5955 13.5174 13.6962 13.5738 13.8056 13.6058C13.915 13.6378 14.0303 13.6445 14.1426 13.6253C14.255 13.6061 14.3615 13.5616 14.4541 13.4951C14.3847 14.1873 13.3471 14.046 13.2698 13.373C12.9439 13.9452 12.2271 13.7813 12.0174 13.0803L12.1058 12.7011Z" fill="#F8C300"/>
<path d="M11.2362 13.9303C11.0914 14.2428 10.8021 14.2965 10.549 14.0442C10.549 14.0442 10.6507 13.9723 10.7597 13.9525C10.7392 13.8656 10.7811 13.7453 10.8401 13.6803C10.902 13.7226 10.9884 13.8074 11.0104 13.9059C11.163 13.8862 11.2362 13.9303 11.2362 13.9303Z" fill="#F8C300"/>
<path d="M12.3644 13.8511C12.1726 14.1372 11.8784 14.1449 11.6679 13.8562C11.6679 13.8562 11.7796 13.8011 11.8903 13.7985C11.8837 13.7095 11.9439 13.5973 12.0123 13.5423C12.0669 13.5938 12.1389 13.691 12.1452 13.7918C12.299 13.7961 12.3644 13.8511 12.3644 13.8511Z" fill="#F8C300"/>
<path d="M12.8103 13.9302C12.955 14.2427 13.2444 14.2964 13.4975 14.0441C13.4975 14.0441 13.3957 13.9722 13.2868 13.9524C13.3072 13.8655 13.2653 13.7452 13.2063 13.6802C13.1444 13.7225 13.058 13.8073 13.0361 13.9058C12.8835 13.8861 12.8103 13.9302 12.8103 13.9302Z" fill="#F8C300"/>
<path fill-rule="evenodd" clip-rule="evenodd" d="M13.8182 14.7732C12.6437 14.4236 11.3929 14.4236 10.2185 14.7732L10.1317 14.4818C11.3628 14.1153 12.6739 14.1153 13.9049 14.4818L13.8182 14.7732Z" fill="#F8C300"/>
<path d="M12.1909 10.161L12.4701 9.95814H12.125L12.0183 9.62988L11.9117 9.95814H11.5665L11.8458 10.161L11.7391 10.4893L12.0183 10.2864L12.2976 10.4893L12.1909 10.161Z" fill="#F8C300"/>
<path d="M13.3299 10.6709L13.6092 10.468H13.264L13.1574 10.1398L13.0507 10.468H12.7056L12.9848 10.6709L12.8781 10.9992L13.1574 10.7963L13.4366 10.9992L13.3299 10.6709Z" fill="#F8C300"/>
<path d="M14.3497 11.5355L14.629 11.3326H14.2838L14.1772 11.0044L14.0705 11.3326H13.7254L14.0046 11.5355L13.8979 11.8638L14.1772 11.6609L14.4564 11.8638L14.3497 11.5355Z" fill="#F8C300"/>
<path d="M14.7931 12.7548L15.0724 12.5519H14.7272L14.6205 12.2237L14.5139 12.5519H14.1687L14.448 12.7548L14.3413 13.0831L14.6205 12.8802L14.8998 13.0831L14.7931 12.7548Z" fill="#F8C300"/>
<path d="M10.7014 10.6709L10.4222 10.468H10.7673L10.874 10.1398L10.9806 10.468H11.3258L11.0465 10.6709L11.1532 10.9992L10.874 10.7963L10.5947 10.9992L10.7014 10.6709Z" fill="#F8C300"/>
<path d="M9.6816 11.5355L9.40237 11.3326H9.74752L9.85418 11.0044L9.96083 11.3326H10.306L10.0267 11.5355L10.1334 11.8638L9.85418 11.6609L9.57494 11.8638L9.6816 11.5355Z" fill="#F8C300"/>
<path d="M9.23822 12.7548L8.95898 12.5519H9.30413L9.41079 12.2237L9.51745 12.5519H9.86259L9.58336 12.7548L9.69002 13.0831L9.41079 12.8802L9.13156 13.0831L9.23822 12.7548Z" fill="#F8C300"/>
</g>
<defs>
<clipPath id="clip0_1692_54108">
<rect x="2.04688" y="5.55225" width="19.9495" height="13.2997" rx="1" fill="white"/>
</clipPath>
</defs>
</svg>
