<svg width="25" height="25" viewBox="0 0 25 25" fill="none" xmlns="http://www.w3.org/2000/svg">
<g clip-path="url(#clip0_1692_54020)">
<path d="M2.05078 5.55225H22.0003V18.8519H2.05078V5.55225Z" fill="#E30A17"/>
<path d="M11.3065 12.2028L14.314 11.2258L12.4551 13.784V10.6217L14.314 13.1799L11.3065 12.2028ZM11.5115 13.9808C11.1263 14.5895 10.5538 15.0567 9.88017 15.312C9.20654 15.5673 8.46822 15.5969 7.77632 15.3963C7.08441 15.1958 6.47635 14.776 6.04363 14.2001C5.61091 13.6241 5.37695 12.9232 5.37695 12.2028C5.37695 11.4825 5.61091 10.7816 6.04363 10.2056C6.47635 9.6297 7.08441 9.20988 7.77632 9.00935C8.46822 8.80882 9.20654 8.83843 9.88017 9.09372C10.5538 9.34901 11.1263 9.81617 11.5115 10.4249C11.1518 10.0246 10.6791 9.74287 10.1559 9.61686C9.63268 9.49085 9.08355 9.52651 8.58103 9.71913C8.07851 9.91175 7.64624 10.2523 7.34131 10.6957C7.03638 11.1392 6.87314 11.6647 6.87314 12.2028C6.87314 12.741 7.03638 13.2665 7.34131 13.71C7.64624 14.1534 8.07851 14.4939 8.58103 14.6866C9.08355 14.8792 9.63268 14.9149 10.1559 14.7888C10.6791 14.6628 11.1518 14.3811 11.5115 13.9808Z" fill="white"/>
</g>
<defs>
<clipPath id="clip0_1692_54020">
<rect x="2.05078" y="5.55225" width="19.9495" height="13.2997" rx="1" fill="white"/>
</clipPath>
</defs>
</svg>
