<svg width="25" height="25" viewBox="0 0 25 25" fill="none" xmlns="http://www.w3.org/2000/svg">
<g clip-path="url(#clip0_1692_54043)">
<path d="M21.9983 5.55225H2.04883V18.8519H21.9983V5.55225Z" fill="#00843D"/>
<path d="M11.9529 7.02845C12.5426 7.28163 12.9558 7.86758 12.9558 8.54988C12.9558 9.46379 12.2147 10.2049 11.3008 10.2049C10.8916 10.2049 10.5172 10.0563 10.2283 9.81021C10.407 9.88685 10.6023 9.93316 10.808 9.94213C11.721 9.982 12.4938 9.2739 12.5337 8.36087C12.5568 7.83077 12.3278 7.348 11.9529 7.02845Z" fill="white"/>
<path d="M10.3744 8.24505L10.5619 7.66792L10.0709 8.0246H10.6778L10.1868 7.66792L10.3744 8.24505Z" fill="white"/>
<path d="M10.3744 9.06531L10.5619 8.48818L10.0709 8.84486H10.6778L10.1868 8.48818L10.3744 9.06531Z" fill="white"/>
<path d="M10.3744 7.42478L10.5619 6.84766L10.0709 7.20434H10.6778L10.1868 6.84766L10.3744 7.42478Z" fill="white"/>
<path d="M11.2168 7.86817L11.4043 7.29104L10.9134 7.64772H11.5202L11.0293 7.29104L11.2168 7.86817Z" fill="white"/>
<path d="M9.53194 8.68843L9.71945 8.11131L9.22852 8.46799H9.83535L9.34441 8.11131L9.53194 8.68843Z" fill="white"/>
<path d="M8.03427 5.55225H4.44336V18.8519H8.03427V5.55225Z" fill="#D22630"/>
<path d="M4.44336 14.6484V14.7788L4.64533 14.9678L4.57722 15.0312L4.72165 15.1651L4.65824 15.2226V15.1393H4.53494V15.2391L4.81324 15.4997H4.95414L4.96941 15.4082H4.88839L4.97645 15.326L5.1972 15.5268L4.97645 15.7287L4.88839 15.6465H4.96941L4.95414 15.5538H4.81324L4.53494 15.8144V15.9143H4.65824V15.8309L4.72165 15.8884L4.57722 16.0223L4.64533 16.0869L4.44336 16.2747V16.4051L4.78505 16.0869L4.71695 16.0223L4.8602 15.8884L4.73691 15.7733L4.81911 15.6982L4.97645 15.8438L5.32168 15.5268L4.97645 15.2097L4.81911 15.3565L4.73691 15.2802L4.8602 15.1651L4.71695 15.0312L4.78505 14.9678L4.44336 14.6484ZM4.44336 15.2813V15.7722L4.52321 15.6911V15.596H4.60775L4.67585 15.5268L4.60775 15.4587H4.52321V15.3624L4.44336 15.2813ZM5.02577 15.4551L5.01403 15.5221L5.02577 15.5902L5.09857 15.5221L5.02577 15.4551Z" fill="#383739"/>
<path d="M8.03478 14.6484V14.7788L7.83282 14.9678L7.90093 15.0312L7.7565 15.1651L7.8199 15.2226V15.1393H7.9432V15.2391L7.66491 15.4997H7.524L7.50873 15.4082H7.58976L7.50169 15.326L7.28094 15.5268L7.50169 15.7287L7.58976 15.6465H7.50873L7.524 15.5538H7.66491L7.9432 15.8144V15.9143H7.8199V15.8309L7.7565 15.8884L7.90093 16.0223L7.83282 16.0869L8.03478 16.2747V16.4051L7.69309 16.0869L7.76119 16.0223L7.61794 15.8884L7.74123 15.7733L7.65904 15.6982L7.50169 15.8438L7.15647 15.5268L7.50169 15.2097L7.65904 15.3565L7.74123 15.2802L7.61794 15.1651L7.76119 15.0312L7.69309 14.9678L8.03478 14.6484ZM8.03478 15.2813V15.7722L7.95494 15.6911V15.596H7.87039L7.80229 15.5268L7.87039 15.4587H7.95494V15.3624L8.03478 15.2813ZM7.45237 15.4551L7.46412 15.5221L7.45237 15.5902L7.37957 15.5221L7.45237 15.4551Z" fill="#383739"/>
<path d="M4.44339 14.6636V14.7669L4.65945 14.9689L4.59134 15.0323L4.73577 15.1661L4.64888 15.2472V15.1497H4.54437V15.2366L4.81797 15.4914H4.94478L4.9577 15.4186H4.86376L4.97648 15.3129L5.21133 15.5278L4.97648 15.7427L4.86376 15.6382H4.9577L4.94475 15.5642H4.81793L4.54434 15.819V15.9059H4.64885V15.8084L4.73574 15.8895L4.59131 16.0233L4.65942 16.0879L4.44336 16.2887V16.392L4.77096 16.0879L4.70286 16.0233L4.84611 15.8895L4.72282 15.7744L4.81911 15.6851L4.97645 15.8319L5.30641 15.5278L4.97645 15.2237L4.81911 15.3705L4.72282 15.2812L4.84611 15.1661L4.70286 15.0323L4.77096 14.9689L4.44336 14.6636L4.44339 14.6636ZM4.44339 15.2965V15.7591L4.51384 15.6887V15.5865H4.60426L4.66297 15.5278L4.60426 15.4691H4.51384V15.3669L4.44339 15.2965ZM5.03285 15.475L5.02463 15.5231L5.03285 15.5713L5.08451 15.5231L5.03285 15.475Z" fill="#FFC72C"/>
<path d="M8.03482 14.6636V14.7669L7.81876 14.9689L7.88687 15.0323L7.74244 15.1661L7.82933 15.2472V15.1497H7.93384V15.2366L7.66024 15.4914H7.53343L7.52051 15.4186H7.61445L7.50172 15.3129L7.26688 15.5278L7.50172 15.7427L7.61445 15.6382H7.52051L7.53346 15.5642H7.66027L7.93387 15.819V15.9059H7.82936V15.8084L7.74247 15.8895L7.8869 16.0233L7.81879 16.0879L8.03485 16.2887V16.392L7.70724 16.0879L7.77535 16.0233L7.63209 15.8895L7.75539 15.7744L7.6591 15.6851L7.50176 15.8319L7.1718 15.5278L7.50176 15.2237L7.6591 15.3705L7.75539 15.2812L7.63209 15.1661L7.77535 15.0323L7.70724 14.9689L8.03485 14.6636L8.03482 14.6636ZM8.03482 15.2965V15.7591L7.96436 15.6887V15.5865H7.87395L7.81524 15.5278L7.87395 15.4691H7.96436V15.3669L8.03482 15.2965ZM7.44536 15.475L7.45358 15.5231L7.44536 15.5712L7.3937 15.5231L7.44536 15.475Z" fill="#FFC72C"/>
<path d="M4.44336 11.9888V12.1191L4.64533 12.3082L4.57722 12.3716L4.72165 12.5054L4.65824 12.563V12.4796H4.53494V12.5794L4.81324 12.8401H4.95414L4.96941 12.7485H4.88839L4.97645 12.6663L5.1972 12.8671L4.97645 13.0691L4.88839 12.9869H4.96941L4.95414 12.8941H4.81324L4.53494 13.1548V13.2546H4.65824V13.1712L4.72165 13.2288L4.57722 13.3626L4.64533 13.4272L4.44336 13.6151V13.7454L4.78505 13.4272L4.71695 13.3626L4.8602 13.2288L4.73691 13.1137L4.81911 13.0385L4.97645 13.1841L5.32168 12.8671L4.97645 12.5501L4.81911 12.6968L4.73691 12.6205L4.8602 12.5054L4.71695 12.3716L4.78505 12.3082L4.44336 11.9888ZM4.44336 12.6217V13.1125L4.52321 13.0315V12.9364H4.60775L4.67585 12.8671L4.60775 12.799H4.52321V12.7027L4.44336 12.6217ZM5.02577 12.7955L5.01403 12.8624L5.02577 12.9305L5.09857 12.8624L5.02577 12.7955Z" fill="#383739"/>
<path d="M8.03478 11.9888V12.1191L7.83282 12.3082L7.90093 12.3716L7.7565 12.5054L7.8199 12.563V12.4796H7.9432V12.5794L7.66491 12.8401H7.524L7.50873 12.7485H7.58976L7.50169 12.6663L7.28094 12.8671L7.50169 13.0691L7.58976 12.9869H7.50873L7.524 12.8941H7.66491L7.9432 13.1548V13.2546H7.8199V13.1712L7.7565 13.2288L7.90093 13.3626L7.83282 13.4272L8.03478 13.6151V13.7454L7.69309 13.4272L7.76119 13.3626L7.61794 13.2288L7.74123 13.1137L7.65904 13.0385L7.50169 13.1841L7.15647 12.8671L7.50169 12.5501L7.65904 12.6968L7.74123 12.6205L7.61794 12.5054L7.76119 12.3716L7.69309 12.3082L8.03478 11.9888ZM8.03478 12.6217V13.1125L7.95494 13.0315V12.9364H7.87039L7.80229 12.8671L7.87039 12.799H7.95494V12.7027L8.03478 12.6217ZM7.45237 12.7955L7.46412 12.8624L7.45237 12.9305L7.37957 12.8624L7.45237 12.7955Z" fill="#383739"/>
<path d="M4.44339 12.0024V12.1058L4.65945 12.3077L4.59134 12.3711L4.73577 12.505L4.64888 12.586V12.4886H4.54437V12.5755L4.81797 12.8303H4.94478L4.9577 12.7575H4.86376L4.97648 12.6518L5.21133 12.8667L4.97648 13.0816L4.86376 12.977H4.9577L4.94475 12.9031H4.81793L4.54434 13.1579V13.2448H4.64885V13.1473L4.73574 13.2283L4.59131 13.3622L4.65942 13.4268L4.44336 13.6276V13.7309L4.77096 13.4268L4.70286 13.3622L4.84611 13.2283L4.72282 13.1133L4.81911 13.024L4.97645 13.1708L5.30641 12.8667L4.97645 12.5625L4.81911 12.7093L4.72282 12.6201L4.84611 12.505L4.70286 12.3711L4.77096 12.3077L4.44336 12.0024L4.44339 12.0024ZM4.44339 12.6353V13.098L4.51384 13.0275V12.9254H4.60426L4.66297 12.8667L4.60426 12.808H4.51384V12.7058L4.44339 12.6353ZM5.03285 12.8138L5.02463 12.862L5.03285 12.9101L5.08451 12.862L5.03285 12.8138Z" fill="#FFC72C"/>
<path d="M8.03482 12.0024V12.1058L7.81876 12.3077L7.88687 12.3711L7.74244 12.505L7.82933 12.586V12.4886H7.93384V12.5755L7.66024 12.8303H7.53343L7.52051 12.7575H7.61445L7.50172 12.6518L7.26688 12.8667L7.50172 13.0816L7.61445 12.977H7.52051L7.53346 12.9031H7.66027L7.93387 13.1579V13.2448H7.82936V13.1473L7.74247 13.2283L7.8869 13.3622L7.81879 13.4268L8.03485 13.6276V13.7309L7.70724 13.4268L7.77535 13.3622L7.63209 13.2283L7.75539 13.1133L7.6591 13.024L7.50176 13.1708L7.1718 12.8667L7.50176 12.5625L7.6591 12.7093L7.75539 12.6201L7.63209 12.505L7.77535 12.3711L7.70724 12.3077L8.03485 12.0024L8.03482 12.0024ZM8.03482 12.6353V13.098L7.96436 13.0275V12.9254H7.87395L7.81524 12.8667L7.87395 12.808H7.96436V12.7058L8.03482 12.6353ZM7.44536 12.8138L7.45358 12.862L7.44536 12.9101L7.3937 12.862L7.44536 12.8138Z" fill="#FFC72C"/>
<path d="M4.44336 9.55029V9.68063L4.64533 9.86968L4.57722 9.93309L4.72165 10.067L4.65824 10.1245V10.0411H4.53494V10.1409L4.81324 10.4016H4.95414L4.96941 10.31H4.88839L4.97645 10.2278L5.1972 10.4286L4.97645 10.6306L4.88839 10.5484H4.96941L4.95414 10.4556H4.81324L4.53494 10.7163V10.8161H4.65824V10.7327L4.72165 10.7903L4.57722 10.9241L4.64533 10.9887L4.44336 11.1766V11.3069L4.78505 10.9887L4.71695 10.9241L4.8602 10.7903L4.73691 10.6752L4.81911 10.6L4.97645 10.7457L5.32168 10.4286L4.97645 10.1116L4.81911 10.2584L4.73691 10.182L4.8602 10.067L4.71695 9.93309L4.78505 9.86969L4.44336 9.55029ZM4.44336 10.1832V10.674L4.52321 10.593V10.4979H4.60775L4.67585 10.4286L4.60775 10.3605H4.52321V10.2642L4.44336 10.1832ZM5.02577 10.357L5.01403 10.4239L5.02577 10.492L5.09857 10.4239L5.02577 10.357Z" fill="#383739"/>
<path d="M8.03478 9.55029V9.68063L7.83282 9.86968L7.90093 9.93309L7.7565 10.067L7.8199 10.1245V10.0411H7.9432V10.1409L7.66491 10.4016H7.524L7.50873 10.31H7.58976L7.50169 10.2278L7.28094 10.4286L7.50169 10.6306L7.58976 10.5484H7.50873L7.524 10.4556H7.66491L7.9432 10.7163V10.8161H7.8199V10.7327L7.7565 10.7903L7.90093 10.9241L7.83282 10.9887L8.03478 11.1766V11.3069L7.69309 10.9887L7.76119 10.9241L7.61794 10.7903L7.74123 10.6752L7.65904 10.6L7.50169 10.7457L7.15647 10.4286L7.50169 10.1116L7.65904 10.2584L7.74123 10.182L7.61794 10.067L7.76119 9.93309L7.69309 9.86969L8.03478 9.55029ZM8.03478 10.1832V10.674L7.95494 10.593V10.4979H7.87039L7.80229 10.4286L7.87039 10.3605H7.95494V10.2642L8.03478 10.1832ZM7.45237 10.357L7.46412 10.4239L7.45237 10.492L7.37957 10.4239L7.45237 10.357Z" fill="#383739"/>
<path d="M4.44339 9.56494V9.66827L4.65945 9.87024L4.59134 9.93365L4.73577 10.0675L4.64888 10.1485V10.0511H4.54437V10.138L4.81797 10.3928H4.94478L4.9577 10.32H4.86376L4.97648 10.2143L5.21133 10.4292L4.97648 10.6441L4.86376 10.5395H4.9577L4.94475 10.4656H4.81793L4.54434 10.7204V10.8073H4.64885V10.7098L4.73574 10.7908L4.59131 10.9247L4.65942 10.9893L4.44336 11.1901V11.2934L4.77096 10.9893L4.70286 10.9247L4.84611 10.7908L4.72282 10.6758L4.81911 10.5865L4.97645 10.7333L5.30641 10.4292L4.97645 10.125L4.81911 10.2718L4.72282 10.1826L4.84611 10.0675L4.70286 9.93365L4.77096 9.87024L4.44336 9.56494L4.44339 9.56494ZM4.44339 10.1978V10.6605L4.51384 10.59V10.4879H4.60426L4.66297 10.4292L4.60426 10.3705H4.51384V10.2683L4.44339 10.1978ZM5.03285 10.3763L5.02463 10.4245L5.03285 10.4726L5.08451 10.4245L5.03285 10.3763Z" fill="#FFC72C"/>
<path d="M8.03482 9.56494V9.66827L7.81876 9.87024L7.88687 9.93365L7.74244 10.0675L7.82933 10.1485V10.0511H7.93384V10.138L7.66024 10.3928H7.53343L7.52051 10.32H7.61445L7.50172 10.2143L7.26688 10.4292L7.50172 10.6441L7.61445 10.5395H7.52051L7.53346 10.4656H7.66027L7.93387 10.7204V10.8073H7.82936V10.7098L7.74247 10.7908L7.8869 10.9247L7.81879 10.9893L8.03485 11.1901V11.2934L7.70724 10.9893L7.77535 10.9247L7.63209 10.7908L7.75539 10.6758L7.6591 10.5865L7.50176 10.7333L7.1718 10.4292L7.50176 10.125L7.6591 10.2718L7.75539 10.1826L7.63209 10.0675L7.77535 9.93365L7.70724 9.87024L8.03485 9.56494L8.03482 9.56494ZM8.03482 10.1978V10.6605L7.96436 10.59V10.4879H7.87395L7.81524 10.4292L7.87395 10.3705H7.96436V10.2683L8.03482 10.1978ZM7.44536 10.3763L7.45358 10.4245L7.44536 10.4726L7.3937 10.4245L7.44536 10.3763Z" fill="#FFC72C"/>
<path d="M4.44336 7.1123V7.24265L4.64533 7.43169L4.57722 7.4951L4.72165 7.62896L4.65824 7.6865V7.60313H4.53494V7.70294L4.81324 7.96362H4.95414L4.96941 7.87203H4.88839L4.97645 7.78983L5.1972 7.99062L4.97645 8.19259L4.88839 8.11039H4.96941L4.95414 8.01763H4.81324L4.53494 8.27831V8.37812H4.65824V8.29475L4.72165 8.35229L4.57722 8.48615L4.64533 8.55073L4.44336 8.7386V8.86894L4.78505 8.55073L4.71695 8.48615L4.8602 8.35229L4.73691 8.23721L4.81911 8.16206L4.97645 8.30767L5.32168 7.99063L4.97645 7.67359L4.81911 7.82037L4.73691 7.74404L4.8602 7.62897L4.71695 7.49511L4.78505 7.4317L4.44336 7.1123ZM4.44336 7.74521V8.23603L4.52321 8.15501V8.0599H4.60775L4.67585 7.99062L4.60775 7.92252H4.52321V7.82623L4.44336 7.74521ZM5.02577 7.919L5.01403 7.98593L5.02577 8.05403L5.09857 7.98593L5.02577 7.919Z" fill="#383739"/>
<path d="M8.03478 7.1123V7.24265L7.83282 7.43169L7.90093 7.4951L7.7565 7.62896L7.8199 7.6865V7.60313H7.9432V7.70294L7.66491 7.96362H7.524L7.50873 7.87203H7.58976L7.50169 7.78983L7.28094 7.99062L7.50169 8.19259L7.58976 8.11039H7.50873L7.524 8.01763H7.66491L7.9432 8.27831V8.37812H7.8199V8.29475L7.7565 8.35229L7.90093 8.48615L7.83282 8.55073L8.03478 8.7386V8.86894L7.69309 8.55073L7.76119 8.48615L7.61794 8.35229L7.74123 8.23721L7.65904 8.16206L7.50169 8.30767L7.15647 7.99063L7.50169 7.67359L7.65904 7.82037L7.74123 7.74404L7.61794 7.62897L7.76119 7.49511L7.69309 7.4317L8.03478 7.1123ZM8.03478 7.74521V8.23603L7.95494 8.15501V8.0599H7.87039L7.80229 7.99062L7.87039 7.92252H7.95494V7.82623L8.03478 7.74521ZM7.45237 7.919L7.46412 7.98593L7.45237 8.05403L7.37957 7.98593L7.45237 7.919Z" fill="#383739"/>
<path d="M4.44339 7.12598V7.22931L4.65945 7.43128L4.59134 7.49468L4.73577 7.62854L4.64888 7.70957V7.61211H4.54437V7.699L4.81797 7.9538H4.94478L4.9577 7.881H4.86376L4.97648 7.77532L5.21133 7.9902L4.97648 8.20509L4.86376 8.10058H4.9577L4.94475 8.0266H4.81793L4.54434 8.28141V8.3683H4.64885V8.27084L4.73574 8.35186L4.59131 8.48572L4.65942 8.5503L4.44336 8.7511V8.85443L4.77096 8.5503L4.70286 8.48572L4.84611 8.35186L4.72282 8.23679L4.81911 8.14755L4.97645 8.29433L5.30641 7.9902L4.97645 7.68608L4.81911 7.83286L4.72282 7.74362L4.84611 7.62854L4.70286 7.49468L4.77096 7.43127L4.44336 7.12598L4.44339 7.12598ZM4.44339 7.75888V8.22153L4.51384 8.15107V8.04892H4.60426L4.66297 7.99021L4.60426 7.9315H4.51384V7.82934L4.44339 7.75888ZM5.03285 7.93737L5.02463 7.98551L5.03285 8.03365L5.08451 7.98551L5.03285 7.93737Z" fill="#FFC72C"/>
<path d="M8.03482 7.12598V7.22931L7.81876 7.43128L7.88687 7.49468L7.74244 7.62854L7.82933 7.70957V7.61211H7.93384V7.699L7.66024 7.9538H7.53343L7.52051 7.881H7.61445L7.50172 7.77532L7.26688 7.9902L7.50172 8.20509L7.61445 8.10058H7.52051L7.53346 8.0266H7.66027L7.93387 8.28141V8.3683H7.82936V8.27084L7.74247 8.35186L7.8869 8.48572L7.81879 8.5503L8.03485 8.7511V8.85443L7.70724 8.5503L7.77535 8.48572L7.63209 8.35186L7.75539 8.23679L7.6591 8.14755L7.50176 8.29433L7.1718 7.9902L7.50176 7.68608L7.6591 7.83286L7.75539 7.74362L7.63209 7.62854L7.77535 7.49468L7.70724 7.43127L8.03485 7.12598L8.03482 7.12598ZM8.03482 7.75888V8.22153L7.96436 8.15107V8.04892H7.87395L7.81524 7.99021L7.87395 7.9315H7.96436V7.82934L8.03482 7.75888ZM7.44536 7.93737L7.45358 7.98551L7.44536 8.03365L7.3937 7.98551L7.44536 7.93737Z" fill="#FFC72C"/>
<path fill-rule="evenodd" clip-rule="evenodd" d="M5.32168 5.55225L4.97645 5.86929L4.81911 5.72369L4.73691 5.79884L4.8602 5.91391L4.71695 6.04777L4.78505 6.11235L4.44336 6.43057V6.30023L4.64533 6.11235L4.57722 6.04777L4.72165 5.91391L4.65824 5.85637V5.93974H4.53494V5.83993L4.81324 5.57925H4.95414L4.96941 5.67202H4.88839L4.97645 5.75421L5.1972 5.55225L5.32168 5.55225ZM4.44336 5.79766V5.55225L4.67585 5.55225L4.60775 5.62153H4.52321V5.71664L4.44336 5.79766ZM5.09355 5.55225H5.01484L5.02577 5.61565L5.09355 5.55225Z" fill="#383739"/>
<path fill-rule="evenodd" clip-rule="evenodd" d="M7.15647 5.55225L7.50169 5.86929L7.65903 5.72369L7.74123 5.79884L7.61794 5.91391L7.76119 6.04777L7.69309 6.11235L8.03478 6.43057V6.30023L7.83282 6.11235L7.90093 6.04777L7.75649 5.91391L7.8199 5.85638V5.93975H7.9432V5.83994L7.66491 5.57926H7.524L7.50873 5.67202H7.58976L7.50169 5.75422L7.28094 5.55225L7.15647 5.55225ZM8.03478 5.79766V5.55225L7.80229 5.55225L7.87039 5.62153H7.95494V5.71664L8.03478 5.79766ZM7.38459 5.55225H7.4633L7.45237 5.61566L7.38459 5.55225Z" fill="#383739"/>
<path fill-rule="evenodd" clip-rule="evenodd" d="M5.21133 5.55225L5.30641 5.55225L4.97645 5.85637L4.81911 5.70959L4.72282 5.79883L4.84611 5.91391L4.70286 6.04777L4.77096 6.11235L4.44336 6.41647V6.31314L4.65942 6.11235L4.59131 6.04777L4.73574 5.91391L4.64885 5.83288V5.93034H4.54434V5.84345L4.81793 5.58865H4.94475L4.9577 5.66262H4.86376L4.97648 5.76713L5.21133 5.55225ZM4.44339 5.78357V5.55225L4.66297 5.55225L4.60426 5.61096H4.51384V5.71312L4.44339 5.78357ZM5.07947 5.55225H5.02543L5.03285 5.5957L5.07947 5.55225Z" fill="#FFC72C"/>
<path fill-rule="evenodd" clip-rule="evenodd" d="M7.1718 5.55225L7.26688 5.55225L7.50172 5.76713L7.61445 5.66263H7.52051L7.53346 5.58865H7.66027L7.93387 5.84346V5.93035H7.82936V5.83289L7.74247 5.91391L7.8869 6.04777L7.81879 6.11235L8.03485 6.31314V6.41648L7.70724 6.11235L7.77535 6.04777L7.63209 5.91391L7.75539 5.79884L7.6591 5.7096L7.50176 5.85637L7.1718 5.55225ZM8.03482 5.78357V5.55225L7.81524 5.55225L7.87395 5.61096H7.96436V5.71312L8.03482 5.78357ZM7.39873 5.55225L7.44536 5.5957L7.45278 5.55225L7.39873 5.55225Z" fill="#FFC72C"/>
<path d="M4.89535 7.11227L4.60757 6.9358V6.51158L4.89535 6.33511V6.11065L5.1673 5.94688H5.38457L5.79797 5.71436H6.68548L7.09889 5.94688H7.31616L7.58811 6.11065V6.33511L7.87589 6.51158L7.87588 6.9358L7.58811 7.11227V7.33673L7.31616 7.5005H7.09889L6.68548 7.73303H5.79797L5.38457 7.5005H5.1673L4.89535 7.33673V7.11227Z" fill="#383739"/>
<path d="M5.79767 5.72461L5.38435 5.95711H5.16829L4.90292 6.1168V6.34107L4.61523 6.51721V6.93053L4.90292 7.10667V7.33212L5.16712 7.49181H5.38435L5.79767 7.72431H6.68069L7.09401 7.49181H7.31124L7.57662 7.33212V7.10667L7.8643 6.93053V6.51721L7.57662 6.34107V6.1168L7.31124 5.95711H7.09401L6.68069 5.72461H5.79767H5.79767ZM5.82233 5.81033H6.6572L7.07053 6.04282H7.28659L7.48738 6.16377V6.38804L7.77623 6.56418V6.88357L7.48738 7.0597V7.28398L7.28659 7.40492H7.07053L6.6572 7.63742H5.82233L5.40901 7.40492H5.19295L4.99099 7.28398V7.0597L4.7033 6.88357V6.56418L4.99099 6.38804V6.16377L5.19295 6.04282H5.40901L5.82233 5.81033Z" fill="#00843D"/>
<path d="M6.23683 6.72944V5.82031H5.82657L5.41314 6.05284H5.19761L5.00264 6.17025V6.39417L4.71487 6.57063V6.71995L6.24634 6.71994V7.62909H6.6566L7.07002 7.39656H7.28556L7.48052 7.27915V7.05524L7.7683 6.87877V6.72945L6.23683 6.72944Z" fill="#FFC72C"/>
<path d="M4.71489 6.72945L4.71487 6.87877L5.00265 7.05524V7.27915L5.19761 7.39656H5.41315L5.82657 7.62909H6.23684V6.71994L7.76831 6.71995V6.57063L7.48053 6.39417V6.17025L7.28557 6.05284H7.07003L6.65662 5.82031H6.24636V6.72944L4.71489 6.72945Z" fill="white"/>
<path d="M5.34234 6.13576L5.2715 6.06973L5.20131 6.11302L5.27227 6.17918L5.18116 6.23563H5.37999L5.55134 6.39726L5.60615 6.33937L5.43955 6.18221V6.07553L5.34234 6.13576Z" fill="#383739"/>
<path d="M7.14075 6.13576L7.2116 6.06973L7.28179 6.11301L7.21083 6.17917L7.30194 6.23562H7.10311L6.93176 6.39725L6.87694 6.33936L7.04355 6.18221V6.07553L7.14075 6.13576Z" fill="#383739"/>
<path d="M5.34235 7.31208L5.2715 7.37811L5.20131 7.33482L5.27227 7.26866L5.18116 7.21221H5.37999L5.55134 7.05058L5.60616 7.10847L5.43955 7.26563V7.37231L5.34235 7.31208Z" fill="#383739"/>
<path d="M7.14076 7.31208L7.2116 7.37811L7.28179 7.33483L7.21083 7.26867L7.30194 7.21221H7.10311L6.93176 7.05059L6.87695 7.10847L7.04355 7.26563V7.37231L7.14076 7.31208Z" fill="#383739"/>
<path d="M5.67766 6.10675L5.60681 6.04072L5.53662 6.08401L5.60758 6.15017L5.51647 6.20662H5.7153L5.88665 6.36825L5.94146 6.31036L5.77486 6.1532V6.04652L5.67766 6.10675Z" fill="#383739"/>
<path d="M6.80544 6.10676L6.87629 6.04073L6.94648 6.08401L6.87552 6.15017L6.96663 6.20662H6.7678L6.59645 6.36825L6.54163 6.31036L6.70824 6.15321V6.04653L6.80544 6.10676Z" fill="#383739"/>
<path d="M5.67766 7.34108L5.60681 7.40711L5.53662 7.36383L5.60758 7.29767L5.51647 7.24121H5.7153L5.88665 7.07959L5.94147 7.13747L5.77487 7.29463V7.40131L5.67766 7.34108Z" fill="#383739"/>
<path d="M6.80545 7.34108L6.87629 7.40711L6.94648 7.36382L6.87552 7.29766L6.96663 7.24121H6.7678L6.59645 7.07958L6.54164 7.13747L6.70824 7.29463V7.40131L6.80545 7.34108Z" fill="#383739"/>
<path d="M5.31776 6.32543L5.24692 6.2594L5.17674 6.30268L5.24769 6.36884L5.15658 6.4253H5.35542L5.52675 6.58692L5.58157 6.52903L5.41497 6.37188V6.2652L5.31776 6.32543Z" fill="#383739"/>
<path d="M7.16534 6.32543L7.23618 6.2594L7.30636 6.30268L7.23541 6.36884L7.32651 6.4253H7.12768L6.95634 6.58692L6.90153 6.52904L7.06813 6.37188V6.2652L7.16534 6.32543Z" fill="#383739"/>
<path d="M5.31776 7.12241L5.24692 7.18843L5.17674 7.14515L5.24769 7.07899L5.15659 7.02254H5.35542L5.52675 6.86091L5.58157 6.9188L5.41497 7.07596V7.18264L5.31776 7.12241Z" fill="#383739"/>
<path d="M7.16534 7.1224L7.23618 7.18843L7.30636 7.14515L7.23541 7.07899L7.32651 7.02254H7.12768L6.95635 6.86091L6.90153 6.9188L7.06813 7.07596V7.18263L7.16534 7.1224Z" fill="#383739"/>
<path d="M6.24129 5.81006H6.06187L5.96799 5.90054H5.78497L5.64973 5.97073L5.68127 6.04757L5.80188 5.98423H5.8547L6.03962 6.19809L6.24129 6.07528L6.24129 5.81006Z" fill="#383739"/>
<path d="M6.2418 5.81006H6.42122L6.5151 5.90054H6.69812L6.83336 5.97073L6.80182 6.04757L6.68121 5.98423H6.62839L6.44348 6.19809L6.2418 6.07528L6.2418 5.81006Z" fill="#383739"/>
<path d="M6.24129 7.63778H6.06187L5.96799 7.5473H5.78497L5.64973 7.47711L5.68127 7.40027L5.80188 7.46361H5.8547L6.03962 7.24975L6.24129 7.37256L6.24129 7.63778Z" fill="#383739"/>
<path d="M6.2418 7.63778H6.42122L6.5151 7.5473H6.69812L6.83336 7.47711L6.80182 7.40027L6.68121 7.46361H6.62839L6.44348 7.24975L6.2418 7.37256L6.2418 7.63778Z" fill="#383739"/>
<path d="M5.22277 6.43351L5.13722 6.40154L5.02472 6.47961V6.50022L4.84781 6.72393L5.02472 6.94765V6.96827L5.13722 7.04632L5.22277 7.01436L5.17056 6.97979V6.91401L5.19131 6.88919H5.28401V6.55868H5.19131L5.17056 6.53386V6.46808L5.22277 6.43351Z" fill="#383739"/>
<path d="M7.26031 6.43351L7.34585 6.40154L7.45836 6.47961V6.50022L7.63527 6.72393L7.45836 6.94765V6.96827L7.34585 7.04632L7.26031 7.01436L7.31252 6.97979V6.91401L7.29177 6.88919H7.19907V6.55868H7.29177L7.31252 6.53386V6.46808L7.26031 6.43351Z" fill="#383739"/>
<path d="M5.26993 6.08238L5.3336 6.14172L5.28026 6.17476L5.2165 6.11533L5.26993 6.08238ZM5.42967 6.09335V6.18706L5.59234 6.34051L5.55057 6.38462L5.38338 6.2269H5.21411L5.42967 6.09335Z" fill="#D22630"/>
<path d="M7.2124 6.08238L7.14874 6.14172L7.20208 6.17476L7.26583 6.11533L7.2124 6.08238ZM7.05266 6.09336V6.18707L6.89 6.34051L6.93176 6.38462L7.09895 6.22691H7.26823L7.05266 6.09336Z" fill="#D22630"/>
<path d="M5.26993 7.367L5.33359 7.30766L5.28025 7.27462L5.2165 7.33405L5.26993 7.367ZM5.42967 7.35602V7.26231L5.59233 7.10887L5.55057 7.06476L5.38338 7.22247H5.2141L5.42967 7.35602Z" fill="#D22630"/>
<path d="M7.2124 7.36699L7.14873 7.30765L7.20207 7.27461L7.26583 7.33404L7.2124 7.36699ZM7.05266 7.35602V7.26231L6.88999 7.10886L6.93176 7.06475L7.09895 7.22247H7.26822L7.05266 7.35602Z" fill="#D22630"/>
<path d="M5.60524 6.05337L5.66891 6.11271L5.61557 6.14575L5.55183 6.08632L5.60524 6.05337ZM5.76498 6.06435V6.15806L5.92765 6.3115L5.88588 6.35561L5.71869 6.19791H5.54942L5.76498 6.06435Z" fill="#D22630"/>
<path d="M6.87709 6.05337L6.81343 6.11271L6.86677 6.14575L6.93051 6.08632L6.87709 6.05337ZM6.71735 6.06435V6.15806L6.55468 6.3115L6.59645 6.35561L6.76364 6.19791H6.93291L6.71735 6.06435Z" fill="#D22630"/>
<path d="M5.60524 7.396L5.6689 7.33667L5.61556 7.30362L5.55182 7.36306L5.60524 7.396ZM5.76498 7.38503V7.29132L5.92765 7.13787L5.88588 7.09377L5.71869 7.25147H5.54942L5.76498 7.38503Z" fill="#D22630"/>
<path d="M6.87708 7.396L6.81342 7.33666L6.86676 7.30362L6.9305 7.36305L6.87708 7.396ZM6.71735 7.38503V7.29132L6.55468 7.13787L6.59645 7.09377L6.76364 7.25147H6.93291L6.71735 7.38503Z" fill="#D22630"/>
<path d="M5.24537 6.27205L5.30902 6.33139L5.25568 6.36443L5.19194 6.305L5.24537 6.27205ZM5.4051 6.28302V6.37673L5.56776 6.53018L5.52601 6.57429L5.35882 6.41658H5.18953L5.4051 6.28302Z" fill="#D22630"/>
<path d="M7.23696 6.27205L7.17331 6.33138L7.22665 6.36443L7.29039 6.30499L7.23696 6.27205ZM7.07723 6.28302V6.37673L6.91457 6.53018L6.95632 6.57428L7.12351 6.41658H7.2928L7.07723 6.28302Z" fill="#D22630"/>
<path d="M5.24537 7.17733L5.30902 7.11799L5.25568 7.08495L5.19194 7.14438L5.24537 7.17733ZM5.4051 7.16636V7.07265L5.56776 6.9192L5.52601 6.87509L5.35882 7.0328H5.18953L5.4051 7.16636Z" fill="#D22630"/>
<path d="M7.23696 7.17733L7.17331 7.11799L7.22665 7.08495L7.29039 7.14438L7.23696 7.17733ZM7.07723 7.16636V7.07265L6.91457 6.9192L6.95632 6.87509L7.12351 7.0328H7.2928L7.07723 7.16636Z" fill="#D22630"/>
<path d="M6.23616 5.82031H6.06532L5.97144 5.91079H5.78691L5.66142 5.97591L5.6857 6.03508L5.79913 5.97552H5.85866L6.04115 6.18658L6.23616 6.06784L6.23616 5.82031Z" fill="#D22630"/>
<path d="M6.24617 5.82031H6.417L6.51089 5.91079H6.69542L6.82091 5.97592L6.79663 6.03508L6.68319 5.97552H6.62367L6.44117 6.18659L6.24617 6.06784L6.24617 5.82031Z" fill="#D22630"/>
<path d="M6.23616 7.62907H6.06532L5.97144 7.53859H5.78691L5.66142 7.47347L5.6857 7.4143L5.79913 7.47386H5.85866L6.04115 7.2628L6.23616 7.38154L6.23616 7.62907Z" fill="#D22630"/>
<path d="M6.24616 7.62907H6.417L6.51088 7.53859H6.69542L6.8209 7.47346L6.79663 7.4143L6.68319 7.47386H6.62367L6.44117 7.26279L6.24616 7.38154L6.24616 7.62907Z" fill="#D22630"/>
<path d="M5.03383 6.48533L5.13817 6.41295L5.20162 6.43665L5.16068 6.46376V6.53808L5.18648 6.56893H5.27411V6.88048H5.18648L5.16068 6.91134V6.98566L5.20162 7.01277L5.13817 7.03647L5.03383 6.96408L5.03385 6.94513L4.85953 6.72471L5.03385 6.50428L5.03383 6.48533Z" fill="#D22630"/>
<path d="M7.44848 6.48533L7.34414 6.41295L7.28069 6.43665L7.32164 6.46376V6.53808L7.29583 6.56893H7.2082V6.88048H7.29583L7.32164 6.91134V6.98566L7.28069 7.01277L7.34414 7.03647L7.44848 6.96408L7.44847 6.94513L7.62279 6.72471L7.44847 6.50428L7.44848 6.48533Z" fill="#D22630"/>
<path d="M5.07547 6.91172L5.02731 6.87005V6.84996L4.92398 6.72393L5.02732 6.59788V6.57781L5.07549 6.53614L5.162 6.60649L5.11207 6.6061L5.18585 6.68099H5.35445L5.48704 6.57731V6.30387H5.81866L6.20379 6.06752V6.00554L6.14489 5.96629H6.12623L6.06209 6.00921L6.05215 6.04123L6.00198 5.97272L6.09949 5.8908H6.11508L6.22513 5.81006H6.26662L6.37665 5.8908H6.39225L6.48976 5.97272L6.43959 6.04123L6.42965 6.00921L6.36551 5.96629H6.34685L6.28795 6.00554V6.06752L6.67309 6.30387H7.00471V6.57731L7.1373 6.68099H7.30589L7.37968 6.6061L7.32974 6.60649L7.41626 6.53614L7.46442 6.57781V6.59788L7.56776 6.72393L7.46442 6.84996V6.87005L7.41626 6.91172L7.32974 6.84137L7.37968 6.84176L7.30589 6.76685H7.1373L7.00471 6.87055V7.14399H6.67309L6.28795 7.38034V7.44232L6.34685 7.48157H6.36551L6.42965 7.43865L6.43959 7.40663L6.48976 7.47512L6.39225 7.55706H6.37665L6.26662 7.6378H6.22513L6.11508 7.55706H6.09949L6.00197 7.47512L6.05215 7.40663L6.06209 7.43865L6.12622 7.48157H6.14488L6.20379 7.44232V7.38034L5.81866 7.14399H5.48704V6.87055L5.35443 6.76685H5.18585L5.11207 6.84176L5.162 6.84137L5.07547 6.91172Z" fill="#383739"/>
<path d="M6.25009 7.48971L6.29224 7.52194L6.25009 7.55417V7.48971V7.48971ZM6.1161 7.54833H6.11766L6.2277 7.62909H6.24055V7.56609L6.18282 7.52194L6.24057 7.4778V7.35946L5.82846 7.10656H5.52381V6.85245L5.36652 6.72944H5.12927L5.06964 6.79686L5.01001 6.72944L4.93961 6.72945L5.03626 6.84733V6.86647L5.07454 6.89972L5.13604 6.85184L5.09994 6.85212V6.84014L5.18039 6.75814H5.35717L5.496 6.86671V7.13528H5.82081L6.21274 7.3758V7.44816L6.14722 7.49183H6.12278L6.05347 7.44543L6.04813 7.42822L6.01433 7.47435L6.10242 7.54833H6.1161V7.54833ZM5.0697 6.66688L5.11665 6.71995H5.02273L5.0697 6.66688ZM6.24058 5.89523L6.19845 5.92746L6.24058 5.95967V5.89523ZM7.37403 6.72945L7.42099 6.78252L7.46794 6.72945H7.37403ZM6.373 5.90105L6.26295 5.82031H6.2501V5.88328L6.30786 5.92746L6.25009 5.97163V6.08994L6.6622 6.34284H6.96685V6.59695L7.12414 6.71996H7.36134L7.42099 6.65255L7.48063 6.71995H7.55105L7.4544 6.60207V6.58293L7.41612 6.54968L7.35461 6.59756L7.39071 6.59727V6.60926L7.31027 6.69125H7.13349L6.99467 6.58268V6.31412H6.66985L6.27792 6.0736V6.00123L6.34344 5.95757H6.36788L6.43719 6.00397L6.44252 6.02118L6.47632 5.97505L6.38824 5.90105H6.373L6.373 5.90105Z" fill="#FFC72C"/>
<path d="M6.24055 7.55416L6.19843 7.52194L6.24055 7.48973V7.55416ZM5.11662 6.72945L5.06967 6.78252L5.02271 6.72945H5.11662ZM6.37453 7.54833H6.37297L6.26293 7.62909H6.25008V7.61259V7.56612L6.30783 7.52194L6.25006 7.47777V7.35946L6.66217 7.10656H6.96682V6.85245L7.12411 6.72943H7.36133L7.42096 6.79686L7.48059 6.72943L7.55102 6.72945L7.45438 6.84733V6.86647L7.41609 6.89972L7.35459 6.85184L7.39069 6.85212V6.84014L7.31024 6.75814H7.13346L6.99465 6.86671V7.13528H6.66982L6.27789 7.3758V7.44816L6.34341 7.49183H6.36785L6.43716 7.44543L6.4425 7.42822L6.4763 7.47435L6.38821 7.54833H6.37453V7.54833ZM7.42096 6.66688L7.37401 6.71995H7.46793L7.42096 6.66688ZM6.11766 5.90105L6.2277 5.82031H6.24057V5.88328L6.1828 5.92746L6.24057 5.97163L6.24058 6.08994L5.82846 6.34284H5.52382V6.59695L5.36652 6.71996H5.12925L5.06962 6.65255L5.00997 6.71995H4.93961L5.03627 6.60207V6.58293L5.07455 6.54968L5.13604 6.59756L5.09994 6.59727V6.60926L5.1804 6.69125H5.35717L5.496 6.58268V6.31412H5.82081L6.21275 6.0736V6.00123L6.14723 5.95757H6.12278L6.05347 6.00397L6.04813 6.02118L6.01435 5.97505L6.10243 5.90105H6.11766L6.11766 5.90105ZM6.25006 5.95969L6.29222 5.92746L6.25006 5.89523V5.95969Z" fill="white"/>
<path d="M6.23786 6.72848V6.1001L5.82842 6.35136H5.53058V6.60061L5.37921 6.71899L6.24737 6.71898V7.34737L6.65677 7.09612H6.95461V6.84688L7.10598 6.72849L6.23786 6.72848Z" fill="#00843D"/>
<path d="M5.37921 6.72848L5.5306 6.84686V7.09611H5.82842L6.23787 7.34737V6.71897L7.106 6.71898L6.95462 6.6006V6.35135H6.65679L6.24738 6.1001V6.72847L5.37921 6.72848Z" fill="#D22630"/>
<path d="M5.80391 6.41906L5.73308 6.35303L5.66288 6.3963L5.73385 6.46246L5.64273 6.51891H5.84156L6.01291 6.68055L6.06773 6.62265L5.90113 6.46549V6.35883L5.80391 6.41906Z" fill="#383739"/>
<path d="M6.68525 7.02862L6.75609 7.09465L6.82627 7.05136L6.75532 6.9852L6.84643 6.92876H6.64759L6.47625 6.76712L6.42144 6.82501L6.58804 6.98218V7.08885L6.68525 7.02862Z" fill="#383739"/>
<path d="M5.80391 7.02862L5.73306 7.09465L5.66288 7.05136L5.73383 6.9852L5.64273 6.92876H5.84156L6.0129 6.76712L6.06772 6.82501L5.90111 6.98218V7.08885L5.80391 7.02862Z" fill="#383739"/>
<path d="M6.68525 6.41906L6.75609 6.35303L6.82627 6.3963L6.75532 6.46246L6.84643 6.51891H6.64759L6.47625 6.68055L6.42144 6.62265L6.58804 6.46549V6.35883L6.68525 6.41906Z" fill="#383739"/>
<path d="M6.75908 7.08262L6.69543 7.02328L6.74877 6.99024L6.81251 7.04967L6.75908 7.08262ZM6.59935 7.07165V6.97795L6.43669 6.8245L6.47846 6.78038L6.64564 6.9381H6.81492L6.59935 7.07165L6.59935 7.07165ZM5.73371 6.36475L5.79738 6.42408L5.74402 6.45714L5.68028 6.39771L5.73371 6.36475ZM5.89345 6.37573V6.46943L6.05612 6.62288L6.01435 6.667L5.84716 6.50928H5.67789L5.89345 6.37573L5.89345 6.37573Z" fill="#D22630"/>
<path d="M6.75909 6.36475L6.69544 6.42408L6.74878 6.45714L6.81252 6.39771L6.75909 6.36475ZM6.59937 6.37573V6.46943L6.4367 6.62288L6.47847 6.667L6.64566 6.50928H6.81493L6.59937 6.37573L6.59937 6.37573ZM5.73373 7.08262L5.79737 7.02328L5.74404 6.99024L5.68029 7.04967L5.73373 7.08262ZM5.89345 7.07165V6.97795L6.05612 6.8245L6.01436 6.78038L5.84718 6.9381H5.67789L5.89345 7.07165L5.89345 7.07165Z" fill="#00843D"/>
<path d="M6.68341 6.72361L6.24315 7.01702L5.80289 6.72361L6.24315 6.43018L6.68341 6.72361Z" fill="#383739"/>
<path d="M6.23352 6.44531L5.82225 6.71942H6.6543L6.24303 6.44531V7.00302L6.65432 6.72892H5.82224L6.23352 7.00302V6.44531Z" fill="white"/>
<path d="M6.35663 6.82582V6.90688H6.12006V6.82582H5.96695V6.62305H6.12006V6.54199H6.35663V6.62305H6.50972V6.82582H6.35663Z" fill="#383739"/>
<path d="M6.12786 6.55078V6.63184H5.97476V6.71892H6.23182V6.55078H6.12786L6.12786 6.55078ZM6.24138 6.71892H6.49843V6.63184H6.34534V6.55078H6.24138V6.71892L6.24138 6.71892ZM5.97476 6.72847V6.81555H6.12786V6.89661H6.23182V6.72847H5.97476V6.72847ZM6.24138 6.89661H6.34534V6.81555H6.49843V6.72847H6.24138V6.89661V6.89661Z" fill="#D22630"/>
<path d="M6.99052 10.0661V9.93686H7.34496V9.80761H7.69941V8.63971H7.34496V8.51046H6.99052V8.3812H6.63607V8.25195H5.8428V8.3812H5.48836V8.51046H5.1339V8.63971H4.77945V9.80761H5.1339V9.93686H5.48836V10.0661H5.8428V10.1954H6.63607V10.0661H6.99052Z" fill="#383739"/>
<path d="M5.85097 8.26172V8.39088H5.49634V8.52005H5.14173V8.64921H4.78711V9.79877H5.14173V9.92795H5.49634V10.0571H5.85097V10.1862H6.62475V10.0571H6.97938V9.92795H7.33402V9.79877H7.68861V8.64921H7.33402V8.52005H6.97938V8.39088H6.62475V8.26172H5.85097ZM5.9449 8.35566H6.53081V8.48482H6.88544V8.61398H7.24008V8.74315H7.59467V9.70483H7.24008V9.83402H6.88544V9.96316H6.53081V10.0923H5.9449V9.96316H5.59028V9.83402H5.23566V9.70483H4.88105V8.74315H5.23566V8.61398H5.59028V8.48482H5.9449V8.35566Z" fill="#FFC72C"/>
<path d="M5.60359 9.9527V9.82344H5.24914V9.6942H4.89468V8.752H5.24914V8.62275H5.60359V8.4935H5.95804V8.36426H6.52559V8.4935H6.88005V8.62275H7.23448V8.752H7.58894V9.6942H7.23448V9.82344H6.88005V9.9527H6.52559V10.0819H5.95804V9.9527H5.60359Z" fill="#D22630"/>
<path d="M5.68366 8.58971L5.59185 8.52031V8.65357L5.50394 8.70944L5.50372 8.62602L5.4194 8.70176L5.33508 8.62602L5.33485 8.70944L5.23743 8.64753V8.77107L5.1587 8.82807L5.15848 8.75232L5.06494 8.82006L4.97141 8.75232L4.97118 8.82807L4.88296 8.7642V9.13845H4.7796V9.3088H4.88296V9.68306L4.97118 9.61917L4.97141 9.69494L5.06494 9.62719L5.15847 9.69494L5.15869 9.61917L5.23742 9.67617V9.79973L5.33485 9.73782L5.33507 9.82123L5.41939 9.74549L5.50371 9.82123L5.50393 9.73782L5.59185 9.79367V9.92694L5.68365 9.85755L5.68385 9.95062L5.77382 9.87016L5.86381 9.95062L5.86401 9.85755L5.94632 9.91976V10.0619L6.06939 9.94971V10.0815L6.23959 9.9721L6.40981 10.0815V9.94971L6.53288 10.0619V9.91976L6.61518 9.85755L6.61537 9.95062L6.70536 9.87016L6.79534 9.95062L6.79554 9.85755L6.88733 9.92694V9.79367L6.97526 9.73782L6.97548 9.82123L7.05982 9.74549L7.14413 9.82123L7.14436 9.73782L7.24179 9.79973V9.67617L7.32052 9.61917L7.32074 9.69494L7.41427 9.62719L7.5078 9.69494L7.50803 9.61917L7.59626 9.68304V9.3088H7.69961V9.13845H7.59626V8.7642L7.50803 8.82807L7.5078 8.75232L7.41427 8.82006L7.32073 8.75232L7.32053 8.82807L7.2418 8.77107V8.64753L7.14437 8.70944L7.14414 8.62602L7.05982 8.70176L6.97549 8.62602L6.97527 8.70944L6.88733 8.65356V8.52031L6.79555 8.58969L6.79535 8.49662L6.70537 8.5771L6.61538 8.49662L6.61518 8.58971L6.53289 8.52747V8.38537L6.40982 8.49754V8.36572L6.2396 8.47515L6.06939 8.36572V8.49754L5.94633 8.38537V8.52748L5.86402 8.58971L5.86382 8.49662L5.77383 8.5771L5.68386 8.49662L5.68366 8.58971Z" fill="#383739"/>
<path d="M4.97877 8.84639L4.979 8.77063L5.06308 8.83154L5.06591 8.82947L5.14715 8.77063L5.14738 8.84639L5.23557 8.78256V9.66419L5.14738 9.60035L5.14715 9.67612L5.06308 9.61521L4.979 9.67612L4.97877 9.60035L4.89058 9.66419V9.29905H4.78723V9.1477H4.89058V8.78256L4.97877 8.84639Z" fill="#00843D"/>
<path d="M5.69143 8.51758L5.77196 8.58959L5.85248 8.51758L5.85268 8.60852L5.94444 8.53915V9.90761L5.85268 9.83824L5.85248 9.92918L5.77196 9.85717L5.69143 9.92918L5.69125 9.83824L5.5995 9.90761V8.53915L5.69125 8.60852L5.69143 8.51758Z" fill="#00843D"/>
<path d="M6.78402 8.51758L6.70349 8.58959L6.62296 8.51758L6.62276 8.60852L6.53102 8.53915V9.90761L6.62276 9.83824L6.62296 9.92918L6.70349 9.85717L6.78402 9.92918L6.78422 9.83824L6.87597 9.90761V8.53915L6.78422 8.60852L6.78402 8.51758Z" fill="#00843D"/>
<path d="M7.49667 8.84639L7.49645 8.77063L7.41237 8.83154L7.32828 8.77063L7.32806 8.84639L7.23988 8.78256V9.66419L7.32806 9.60035L7.32828 9.67612L7.41237 9.61521L7.49645 9.67612L7.49667 9.60035L7.58485 9.66419V9.29905H7.6882V9.1477H7.58485V8.78256L7.49667 8.84639Z" fill="#00843D"/>
<path d="M5.34776 8.64697L5.42263 8.71423L5.4975 8.64697L5.49773 8.72641L5.59511 8.66451V9.78212L5.49773 9.72025L5.4975 9.79967L5.42263 9.73242L5.34776 9.79967L5.34753 9.72025L5.25015 9.78212V8.66451L5.34753 8.72641L5.34776 8.64697Z" fill="#FFC72C"/>
<path d="M6.08211 8.51874L5.95905 8.40657V10.0401L6.08211 9.92788V10.0638L6.24281 9.9605H6.24284L6.40353 10.0638V9.92788L6.5266 10.0401V8.40657L6.40353 8.51874V8.38281L6.24284 8.48613H6.24281L6.08211 8.38281V8.51874Z" fill="#FFC72C"/>
<path d="M7.13793 8.64697L7.06305 8.71423L6.98816 8.64697L6.98796 8.72641L6.89057 8.66451V9.78212L6.98796 9.72025L6.98816 9.79967L7.06305 9.73242L7.13793 9.79967L7.13815 9.72025L7.23553 9.78212V8.66451L7.13815 8.72641L7.13793 8.64697Z" fill="#FFC72C"/>
<path d="M5.01514 9.06324C5.0259 9.0741 5.03876 9.07959 5.05337 9.07959C5.06796 9.07959 5.08082 9.0741 5.0916 9.06324C5.12526 9.02932 5.12639 8.96798 5.12606 8.92383C5.12606 8.92383 5.08714 8.96496 5.08012 8.97238C5.07522 8.96392 5.05337 8.92618 5.05337 8.92618C5.05337 8.92618 5.03151 8.96392 5.02661 8.97238C5.01958 8.96496 4.98066 8.92383 4.98066 8.92383C4.98033 8.96798 4.98147 9.02932 5.01514 9.06324Z" fill="#383739"/>
<path d="M7.44034 9.06324C7.42958 9.0741 7.41671 9.07959 7.40211 9.07959C7.38752 9.07959 7.37466 9.0741 7.36388 9.06324C7.33021 9.02932 7.32908 8.96798 7.32942 8.92383C7.32942 8.92383 7.36834 8.96496 7.37536 8.97238C7.38026 8.96392 7.40211 8.92618 7.40211 8.92618C7.40211 8.92618 7.42396 8.96392 7.42887 8.97238C7.4359 8.96496 7.47482 8.92383 7.47482 8.92383C7.47515 8.96798 7.474 9.02932 7.44034 9.06324Z" fill="#383739"/>
<path d="M5.01514 9.3727C5.0259 9.36184 5.03876 9.35635 5.05337 9.35635C5.06796 9.35635 5.08082 9.36184 5.09159 9.3727C5.12526 9.40662 5.12639 9.46796 5.12606 9.51211C5.12606 9.51211 5.08714 9.47098 5.08011 9.46356C5.07522 9.47202 5.05337 9.50976 5.05337 9.50976C5.05337 9.50976 5.03151 9.47202 5.0266 9.46356C5.01958 9.47098 4.98066 9.51211 4.98066 9.51211C4.98033 9.46796 4.98147 9.40662 5.01514 9.3727Z" fill="#383739"/>
<path d="M7.44034 9.3727C7.42957 9.36184 7.41671 9.35635 7.40211 9.35635C7.38751 9.35635 7.37465 9.36184 7.36388 9.3727C7.33021 9.40662 7.32908 9.46796 7.32941 9.51211C7.32941 9.51211 7.36833 9.47098 7.37536 9.46356C7.38025 9.47202 7.40211 9.50975 7.40211 9.50975C7.40211 9.50975 7.42396 9.47202 7.42887 9.46356C7.43589 9.47098 7.47481 9.51211 7.47481 9.51211C7.47514 9.46796 7.474 9.40661 7.44034 9.3727Z" fill="#383739"/>
<path d="M5.39051 8.96963L5.36216 8.9413V8.88484L5.29703 8.94521L5.41345 9.06162L5.52986 8.94521L5.46474 8.88484V8.9413L5.43639 8.96963V8.86961L5.4866 8.8265L5.41345 8.76368L5.34029 8.8265L5.39051 8.86961V8.96963Z" fill="#383739"/>
<path d="M7.07623 8.96962L7.10459 8.94129V8.88484L7.16972 8.9452L7.0533 9.06161L6.93689 8.9452L7.00201 8.88484V8.94129L7.03036 8.96962V8.86961L6.98014 8.8265L7.0533 8.76367L7.12646 8.8265L7.07623 8.86961V8.96962Z" fill="#383739"/>
<path d="M5.39051 9.46912L5.36215 9.49745V9.5539L5.29703 9.49354L5.41344 9.37712L5.52986 9.49354L5.46473 9.5539V9.49745L5.43639 9.46912V9.56913L5.4866 9.61224L5.41344 9.67507L5.34028 9.61224L5.39051 9.56913V9.46912Z" fill="#383739"/>
<path d="M7.07623 9.46913L7.10459 9.49746V9.55391L7.16971 9.49355L7.0533 9.37713L6.93688 9.49355L7.00201 9.55391V9.49746L7.03035 9.46913V9.56914L6.98014 9.61225L7.0533 9.67507L7.12646 9.61225L7.07623 9.56914V9.46913Z" fill="#383739"/>
<path d="M5.74206 8.85683L5.71372 8.82848V8.77203L5.64859 8.83239L5.76501 8.94881L5.88142 8.83239L5.8163 8.77203V8.82848L5.78794 8.85683V8.7568L5.83817 8.71369L5.76501 8.65088L5.69185 8.71369L5.74206 8.7568V8.85683Z" fill="#383739"/>
<path d="M6.71895 8.85683L6.74729 8.82848V8.77203L6.81242 8.83239L6.696 8.94881L6.57959 8.83239L6.64471 8.77203V8.82848L6.67307 8.85683V8.7568L6.62285 8.71369L6.696 8.65088L6.76916 8.71369L6.71895 8.7568V8.85683Z" fill="#383739"/>
<path d="M5.74206 9.58067L5.71371 9.60902V9.66547L5.64859 9.60511L5.76501 9.48869L5.88142 9.60511L5.8163 9.66547V9.60902L5.78794 9.58067V9.6807L5.83816 9.72381L5.76501 9.78662L5.69185 9.72381L5.74206 9.6807V9.58067Z" fill="#383739"/>
<path d="M6.71895 9.58067L6.74729 9.60901V9.66547L6.81242 9.6051L6.696 9.48869L6.57959 9.6051L6.64471 9.66547V9.60901L6.67307 9.58067V9.6807L6.62284 9.72381L6.696 9.78662L6.76916 9.72381L6.71895 9.6807V9.58067Z" fill="#383739"/>
<path d="M5.05513 8.94629C5.06094 8.95632 5.08003 8.9893 5.08003 8.9893C5.08003 8.9893 5.10692 8.96086 5.11791 8.94927C5.11659 8.99913 5.10565 9.03851 5.08661 9.05768C5.07769 9.06667 5.0671 9.07123 5.05513 9.07123C5.04314 9.07123 5.03255 9.06667 5.02364 9.05769C5.00461 9.03851 4.99366 8.99913 4.99234 8.94927C5.00332 8.96087 5.03021 8.9893 5.03021 8.9893C5.03851 8.97496 5.04683 8.96062 5.05513 8.94629Z" fill="white"/>
<path d="M7.40384 8.94629C7.39803 8.95632 7.37894 8.98929 7.37894 8.98929C7.37894 8.98929 7.35205 8.96085 7.34106 8.94927C7.34238 8.99912 7.35333 9.03851 7.37236 9.05768C7.38129 9.06667 7.39187 9.07123 7.40384 9.07123C7.41583 9.07123 7.42642 9.06667 7.43533 9.05769C7.45436 9.03851 7.46531 8.99912 7.46663 8.94927C7.45565 8.96087 7.42876 8.98929 7.42876 8.98929C7.42046 8.97495 7.41214 8.96061 7.40384 8.94629Z" fill="white"/>
<path d="M5.05512 9.49194C5.06094 9.48191 5.08002 9.44893 5.08002 9.44893C5.08002 9.44893 5.10692 9.47737 5.11791 9.48896C5.11659 9.4391 5.10564 9.39972 5.08661 9.38055C5.07768 9.37156 5.0671 9.367 5.05512 9.367C5.04314 9.367 5.03255 9.37156 5.02364 9.38054C5.0046 9.39972 4.99366 9.4391 4.99234 9.48896C5.00331 9.47736 5.03021 9.44893 5.03021 9.44893C5.03851 9.46327 5.04682 9.47761 5.05512 9.49194Z" fill="white"/>
<path d="M7.40384 9.49194C7.39803 9.48191 7.37894 9.44894 7.37894 9.44894C7.37894 9.44894 7.35205 9.47738 7.34106 9.48896C7.34238 9.43911 7.35332 9.39972 7.37236 9.38055C7.38128 9.37156 7.39187 9.367 7.40384 9.367C7.41583 9.367 7.42641 9.37156 7.43533 9.38054C7.45436 9.39972 7.46531 9.43911 7.46662 9.48896C7.45565 9.47736 7.42876 9.44894 7.42876 9.44894C7.42045 9.46328 7.41214 9.47762 7.40384 9.49194Z" fill="white"/>
<path d="M5.7766 8.75262V8.87994L5.82395 8.8326V8.79397L5.86588 8.83284L5.76316 8.93555L5.66043 8.83284L5.70236 8.79397V8.8326L5.74971 8.87994V8.75262L5.70458 8.71387L5.76316 8.66357L5.82173 8.71387L5.7766 8.75262Z" fill="white"/>
<path d="M6.68067 8.75262V8.87994L6.63332 8.8326V8.79397L6.59139 8.83284L6.69411 8.93555L6.79683 8.83284L6.75491 8.79397V8.8326L6.70755 8.87994V8.75262L6.75269 8.71387L6.69411 8.66358L6.63554 8.71387L6.68067 8.75262Z" fill="white"/>
<path d="M5.77659 9.6852V9.55788L5.82395 9.60522V9.64385L5.86587 9.60498L5.76316 9.50227L5.66043 9.60498L5.70236 9.64385V9.60522L5.74971 9.55788V9.6852L5.70458 9.72395L5.76316 9.77425L5.82173 9.72395L5.77659 9.6852Z" fill="white"/>
<path d="M6.68067 9.6852V9.55788L6.63331 9.60522V9.64385L6.59139 9.60498L6.6941 9.50227L6.79683 9.60498L6.7549 9.64385V9.60522L6.70755 9.55788V9.6852L6.75268 9.72395L6.6941 9.77424L6.63554 9.72395L6.68067 9.6852Z" fill="white"/>
<path d="M5.42101 8.86493V8.99225L5.46836 8.9449V8.90628L5.51029 8.94514L5.40756 9.04786L5.30484 8.94514L5.34677 8.90628V8.9449L5.39412 8.99225V8.86493L5.34899 8.82618L5.40756 8.77589L5.46614 8.82618L5.42101 8.86493Z" fill="#D22630"/>
<path d="M7.03397 8.86492V8.99224L6.98662 8.94489V8.90627L6.94469 8.94513L7.04742 9.04786L7.15014 8.94513L7.10821 8.90627V8.94489L7.06085 8.99224V8.86492L7.10599 8.82617L7.04742 8.77588L6.98884 8.82617L7.03397 8.86492Z" fill="#D22630"/>
<path d="M5.421 9.57316V9.44584L5.46836 9.49319V9.53181L5.51028 9.49295L5.40756 9.39023L5.30484 9.49295L5.34677 9.53181V9.49319L5.39412 9.44584V9.57316L5.34899 9.61191L5.40756 9.6622L5.46614 9.61191L5.421 9.57316Z" fill="#D22630"/>
<path d="M7.03397 9.57317V9.44585L6.98662 9.4932V9.53182L6.94469 9.49296L7.04742 9.39023L7.15013 9.49296L7.1082 9.53182V9.4932L7.06085 9.44585V9.57317L7.10598 9.61192L7.04742 9.66221L6.98884 9.61192L7.03397 9.57317Z" fill="#D22630"/>
<path d="M6.37363 8.89997L6.3355 8.84727L6.43329 8.75699L6.34211 8.68207V8.73515L6.30397 8.76777V8.67151L6.39012 8.60802L6.23429 8.49316L6.07846 8.60802L6.16461 8.67151V8.76777L6.12648 8.73515V8.68207L6.03528 8.75699L6.13309 8.84727L6.09495 8.89997H6.37363Z" fill="#383739"/>
<path d="M6.37363 9.53881L6.3355 9.59151L6.43329 9.68179L6.34211 9.7567V9.70363L6.30397 9.671V9.76727L6.39011 9.83075L6.23428 9.94561L6.07846 9.83075L6.16461 9.76727V9.671L6.12647 9.70363V9.7567L6.03528 9.68179L6.13308 9.59151L6.09495 9.53881H6.37363Z" fill="#383739"/>
<path d="M6.11474 8.89038L6.14691 8.84591L6.05094 8.75732L6.11815 8.70209V8.73943L6.17529 8.78833V8.66662L6.09566 8.60793L6.23547 8.50488L6.37528 8.60793L6.29566 8.66662V8.78833L6.35279 8.73943V8.70209L6.42002 8.75732L6.32405 8.84591L6.35622 8.89038H6.11474Z" fill="#D22630"/>
<path d="M6.11474 9.5482L6.1469 9.59267L6.05093 9.68125L6.11815 9.73648V9.69914L6.17529 9.65025V9.77196L6.09565 9.83064L6.23547 9.93369L6.37528 9.83064L6.29566 9.77196V9.65025L6.35279 9.69914V9.73648L6.42001 9.68125L6.32404 9.59267L6.35622 9.5482H6.11474Z" fill="#D22630"/>
<path d="M6.16227 8.60718L6.23347 8.65965L6.30469 8.60718L6.23347 8.55469L6.23065 8.55678L6.16227 8.60718Z" fill="#383739"/>
<path d="M6.16226 9.82987L6.23347 9.7774L6.30468 9.82987L6.23347 9.88236L6.23065 9.88027L6.16226 9.82987Z" fill="#383739"/>
<path d="M6.23113 8.56641C6.23583 8.56986 6.278 8.60095 6.28633 8.60708C6.278 8.61321 6.23583 8.6443 6.23113 8.64776C6.22643 8.6443 6.18425 8.61321 6.17594 8.60708C6.18425 8.60095 6.22643 8.56986 6.23113 8.56641Z" fill="#00843D"/>
<path d="M6.23112 9.87046C6.23583 9.86701 6.278 9.83592 6.28632 9.82979C6.278 9.82366 6.23583 9.79257 6.23112 9.78911C6.22643 9.79257 6.18425 9.82366 6.17593 9.82979C6.18425 9.83592 6.22643 9.86701 6.23112 9.87046Z" fill="#00843D"/>
<path d="M7.50174 9.16891H7.34572V9.10672H6.86885L6.53688 8.88867H6.53547H5.94352L5.61157 9.10672H5.13468V9.16891H4.97867V9.27793H5.13468V9.34011H5.61157L5.94352 9.55818H6.53688L6.86885 9.34011H7.34572V9.27793H7.50174V9.16891Z" fill="#383739"/>
<path d="M5.94464 8.89941L5.61234 9.11664H5.14265V9.17888H4.98648V9.26929H5.14265V9.33153H5.61234L5.94464 9.54993H6.53293L6.86405 9.33153H7.33492V9.26929H7.49109V9.17888H7.33492V9.11664H6.86405L6.53293 8.89941H5.94464ZM5.95169 8.93112H6.52471L6.82883 9.13074V9.16127H7.16818V9.28808H6.82883V9.31861L6.52471 9.51705H5.95169L5.64874 9.31861V9.28808H5.30822V9.16127H5.64874V9.13074L5.95169 8.93112Z" fill="#D22630"/>
<path d="M6.52654 8.94043L6.82314 9.13515V9.16971H7.16304V9.2779H6.82314V9.31247L6.52654 9.5072H5.95891L5.66231 9.31247V9.2779H5.32242V9.16971H5.66231V9.13515L5.95891 8.94043H6.52654Z" fill="#D22630"/>
<path d="M5.81079 9.3343L5.93922 9.43071L6.0237 9.36727L5.97459 9.3304L5.93922 9.35696L5.90902 9.3343L6.39266 8.97119H6.29444L5.81079 9.3343ZM6.09112 9.4762H6.18934L6.67299 9.11309L6.54457 9.0167L6.46008 9.08012L6.50919 9.11698L6.54457 9.09041L6.57477 9.11309L6.09112 9.4762ZM6.29444 9.4762H6.39264L5.90902 9.11309L5.93922 9.09041L5.97459 9.11698L6.0237 9.08012L5.93922 9.0167L5.81079 9.11309L6.29444 9.4762ZM6.57477 9.3343L6.54457 9.35696L6.50919 9.3304L6.46008 9.36727L6.54457 9.43071L6.67299 9.3343L6.18934 8.97119H6.09112L6.57477 9.3343Z" fill="#383739"/>
<path d="M5.715 9.22335L5.80131 9.28068L5.88762 9.22335L5.80131 9.16602L5.715 9.22335Z" fill="#383739"/>
<path d="M6.15705 9.22335L6.24337 9.28068L6.32968 9.22335L6.24337 9.16602L6.15705 9.22335Z" fill="#383739"/>
<path d="M6.77176 9.22335L6.68545 9.28068L6.59913 9.22335L6.68545 9.16602L6.77176 9.22335Z" fill="#383739"/>
<path d="M6.66077 9.33455L6.54818 9.41908L6.47951 9.36753L6.5128 9.34253L6.54818 9.3691L6.59419 9.33455L6.12321 8.98096H6.18979L6.66077 9.33455ZM6.36777 9.46694H6.30121L5.83023 9.11335L5.94283 9.02882L6.01148 9.08037L5.9782 9.10535L5.94283 9.07879L5.89681 9.11335L6.36777 9.46694ZM6.18979 9.46694H6.12321L6.59419 9.11335L6.54818 9.07879L6.5128 9.10535L6.47951 9.08037L6.54818 9.02882L6.66077 9.11335L6.18979 9.46694ZM6.30121 8.98096H6.36777L5.89681 9.33455L5.94283 9.3691L5.9782 9.34253L6.01148 9.36753L5.94283 9.41908L5.83023 9.33455L6.30121 8.98096Z" fill="#FFC72C"/>
<path d="M5.79973 9.17773L5.86887 9.22365L5.79973 9.26957L5.73059 9.22365L5.79973 9.17773Z" fill="#00843D"/>
<path d="M6.24181 9.17773L6.31095 9.22365L6.24181 9.26957L6.17268 9.22365L6.24181 9.17773Z" fill="#00843D"/>
<path d="M6.68389 9.17773L6.61475 9.22365L6.68389 9.26957L6.75302 9.22365L6.68389 9.17773Z" fill="#00843D"/>
<path d="M4.71943 11.6298L4.68556 11.6777L4.74627 11.7241L4.68555 11.7706L4.71941 11.8185L4.78995 11.8267L4.85825 11.7739L5.02855 11.8821V11.7922L4.92137 11.7241L5.02855 11.6561V11.5662L4.85825 11.6744L4.78995 11.6216L4.71943 11.6298Z" fill="#383739"/>
<path d="M4.71943 11.3177L4.68556 11.3656L4.74627 11.4121L4.68555 11.4585L4.71941 11.5064L4.78995 11.5146L4.85825 11.4618L5.02855 11.57V11.4801L4.92137 11.4121L5.02855 11.344V11.2541L4.85825 11.3623L4.78995 11.3095L4.71943 11.3177Z" fill="#383739"/>
<path d="M4.71943 12.1306L4.68556 12.0827L4.74627 12.0363L4.68555 11.9898L4.71941 11.9419L4.78995 11.9337L4.85825 11.9865L5.02855 11.8783V11.9682L4.92137 12.0363L5.02855 12.1043V12.1942L4.85825 12.086L4.78995 12.1388L4.71943 12.1306Z" fill="#383739"/>
<path d="M7.75591 11.6298L7.78978 11.6777L7.72907 11.7241L7.78978 11.7706L7.75591 11.8185L7.68538 11.8267L7.61708 11.7739L7.44677 11.8821V11.7922L7.55396 11.7241L7.44677 11.6561V11.5662L7.61708 11.6744L7.68538 11.6216L7.75591 11.6298Z" fill="#383739"/>
<path d="M7.75591 11.3177L7.78978 11.3656L7.72907 11.4121L7.78978 11.4585L7.75591 11.5064L7.68538 11.5146L7.61708 11.4618L7.44677 11.57V11.4801L7.55396 11.4121L7.44677 11.344V11.2541L7.61708 11.3623L7.68538 11.3095L7.75591 11.3177Z" fill="#383739"/>
<path d="M7.75591 12.1306L7.78978 12.0827L7.72907 12.0363L7.78978 11.9898L7.75591 11.9419L7.68538 11.9337L7.61708 11.9865L7.44677 11.8783V11.9682L7.55396 12.0363L7.44677 12.1043V12.1942L7.61708 12.086L7.68538 12.1388L7.75591 12.1306Z" fill="#383739"/>
<path d="M7.07409 10.7781V10.9079H7.16852V10.9653H7.26129V10.8608H7.17855V10.7781H7.07409Z" fill="#383739"/>
<path d="M7.35245 10.9828V11.1126H7.44679V11.17H7.53964V11.0655H7.45692V10.9828H7.35245Z" fill="#383739"/>
<path d="M5.40124 10.7781V10.9079H5.30679V10.9653H5.21405V10.8608H5.29677V10.7781H5.40124Z" fill="#383739"/>
<path d="M7.07409 12.6703V12.5405H7.16852V12.4831H7.26129V12.5875H7.17855V12.6703H7.07409Z" fill="#383739"/>
<path d="M5.40124 12.6703V12.5405H5.30679V12.4831H5.21405V12.5875H5.29677V12.6703H5.40124Z" fill="#383739"/>
<path d="M7.35245 12.4655V12.3357H7.44679V12.2783H7.53964V12.3828H7.45692V12.4655H7.35245Z" fill="#383739"/>
<path d="M5.12291 10.9828V11.1126H5.02855V11.17H4.93571V11.0655H5.01844V10.9828H5.12291Z" fill="#383739"/>
<path d="M5.12291 12.4655V12.3357H5.02855V12.2783H4.93571V12.3828H5.01844V12.4655H5.12291Z" fill="#383739"/>
<path d="M6.58694 10.775C6.58092 10.7692 6.51488 10.7051 6.51488 10.7051L6.44409 10.7707C6.44409 10.7707 6.49955 10.8245 6.50579 10.8306L6.42614 10.9079H6.54439L6.58694 10.8666L6.6295 10.9079H6.74773L6.66808 10.8306C6.67432 10.8245 6.72978 10.7707 6.72978 10.7707L6.659 10.7051C6.63495 10.7284 6.61095 10.7517 6.58694 10.775Z" fill="#383739"/>
<path d="M6.23767 10.775C6.23166 10.7692 6.16561 10.7051 6.16561 10.7051L6.09482 10.7707C6.09482 10.7707 6.15028 10.8245 6.15653 10.8306L6.07688 10.9079H6.19512L6.23767 10.8666L6.28022 10.9079H6.39846L6.31882 10.8306C6.32506 10.8245 6.38051 10.7707 6.38051 10.7707L6.30974 10.7051C6.28569 10.7284 6.26169 10.7517 6.23767 10.775Z" fill="#383739"/>
<path d="M5.88841 10.775C5.89444 10.7692 5.96048 10.7051 5.96048 10.7051L6.03127 10.7707C6.03127 10.7707 5.9758 10.8245 5.96957 10.8306L6.04922 10.9079H5.93096L5.88841 10.8666L5.84586 10.9079H5.72762L5.80727 10.8306C5.80103 10.8245 5.74557 10.7707 5.74557 10.7707L5.81636 10.7051C5.84041 10.7284 5.8644 10.7517 5.88841 10.775Z" fill="#383739"/>
<path d="M6.58694 12.6733C6.58092 12.6791 6.51488 12.7432 6.51488 12.7432L6.44409 12.6777C6.44409 12.6777 6.49955 12.6238 6.50579 12.6178L6.42614 12.5404H6.54439L6.58694 12.5818L6.6295 12.5404H6.74773L6.66808 12.6178C6.67432 12.6238 6.72978 12.6777 6.72978 12.6777L6.659 12.7432C6.63495 12.72 6.61095 12.6966 6.58694 12.6733Z" fill="#383739"/>
<path d="M6.23767 12.6733C6.23166 12.6791 6.16561 12.7432 6.16561 12.7432L6.09482 12.6777C6.09482 12.6777 6.15028 12.6238 6.15653 12.6178L6.07688 12.5404H6.19512L6.23767 12.5818L6.28022 12.5404H6.39846L6.31882 12.6178C6.32506 12.6238 6.38051 12.6777 6.38051 12.6777L6.30974 12.7432C6.28569 12.72 6.26169 12.6966 6.23767 12.6733Z" fill="#383739"/>
<path d="M5.88841 12.6733C5.89444 12.6791 5.96048 12.7432 5.96048 12.7432L6.03127 12.6777C6.03127 12.6777 5.9758 12.6238 5.96957 12.6178L6.04922 12.5404H5.93096L5.88841 12.5818L5.84586 12.5404H5.72762L5.80727 12.6178C5.80103 12.6238 5.74557 12.6777 5.74557 12.6777L5.81636 12.7432C5.84041 12.72 5.8644 12.6966 5.88841 12.6733Z" fill="#383739"/>
<path d="M5.01773 11.798V11.8654L4.85638 11.7629L4.78587 11.8174L4.72339 11.8101L4.69727 11.7732L4.76058 11.7247L4.69727 11.6763L4.7234 11.6394L4.78587 11.6321L4.85638 11.6866L5.01773 11.5841V11.6514L4.90231 11.7247L5.01773 11.798Z" fill="#00843D"/>
<path d="M5.01773 11.4859V11.5533L4.85638 11.4508L4.78587 11.5053L4.72339 11.498L4.69727 11.4611L4.76058 11.4126L4.69727 11.3642L4.7234 11.3273L4.78587 11.32L4.85638 11.3745L5.01773 11.272V11.3393L4.90231 11.4126L5.01773 11.4859Z" fill="#00843D"/>
<path d="M5.01773 11.9635V11.8962L4.85638 11.9987L4.78587 11.9442L4.72339 11.9515L4.69727 11.9884L4.76058 12.0368L4.69727 12.0853L4.7234 12.1222L4.78587 12.1295L4.85638 12.075L5.01773 12.1775V12.1102L4.90231 12.0368L5.01773 11.9635Z" fill="#00843D"/>
<path d="M7.45497 11.798V11.8654L7.61632 11.7629L7.68682 11.8174L7.7493 11.8101L7.77542 11.7732L7.71211 11.7247L7.77542 11.6763L7.7493 11.6394L7.68682 11.6321L7.61632 11.6866L7.45497 11.5841V11.6514L7.57038 11.7247L7.45497 11.798Z" fill="#00843D"/>
<path d="M7.45497 11.4859V11.5533L7.61632 11.4508L7.68682 11.5053L7.7493 11.498L7.77542 11.4611L7.71211 11.4126L7.77542 11.3642L7.7493 11.3273L7.68682 11.32L7.61632 11.3745L7.45497 11.272V11.3393L7.57038 11.4126L7.45497 11.4859Z" fill="#00843D"/>
<path d="M7.45497 11.9635V11.8962L7.61632 11.9987L7.68682 11.9442L7.7493 11.9515L7.77542 11.9884L7.71211 12.0368L7.77542 12.0853L7.7493 12.1222L7.68682 12.1295L7.61632 12.075L7.45497 12.1775V12.1102L7.57038 12.0368L7.45497 11.9635Z" fill="#00843D"/>
<path d="M7.16775 10.7881V10.8709H7.25047V10.9563H7.17673V10.899H7.08229V10.7881H7.16775Z" fill="#00843D"/>
<path d="M7.44608 10.9929V11.0756H7.52881V11.161H7.45505V11.1037H7.36062V10.9929H7.44608Z" fill="#00843D"/>
<path d="M5.30495 10.7881V10.8709H5.22223V10.9563H5.29599V10.899H5.39042V10.7881H5.30495Z" fill="#00843D"/>
<path d="M7.16775 12.6613V12.5786H7.25047V12.4931H7.17673V12.5505H7.08229V12.6613H7.16775Z" fill="#00843D"/>
<path d="M5.30495 12.6613V12.5786H5.22222V12.4931H5.29597V12.5505H5.39042V12.6613H5.30495Z" fill="#00843D"/>
<path d="M7.44608 12.4566V12.3739H7.52881V12.2884H7.45505V12.3458H7.36062V12.4566H7.44608Z" fill="#00843D"/>
<path d="M5.02662 10.9929V11.0756H4.94389V11.161H5.01765V11.1037H5.11208V10.9929H5.02662Z" fill="#00843D"/>
<path d="M5.02664 12.4566V12.3739H4.9439V12.2884H5.01766V12.3458H5.1121V12.4566H5.02664Z" fill="#00843D"/>
<path d="M6.51342 10.7188C6.51932 10.7245 6.58564 10.7888 6.58564 10.7888C6.58564 10.7888 6.65195 10.7245 6.65784 10.7188C6.66342 10.7239 6.7085 10.7657 6.71468 10.7714C6.70829 10.7776 6.65313 10.8311 6.65313 10.8311L6.72299 10.899H6.63205L6.58564 10.8539L6.53921 10.899H6.44827L6.51813 10.8311C6.51813 10.8311 6.46297 10.7776 6.45658 10.7714C6.46276 10.7657 6.50784 10.7239 6.51342 10.7188Z" fill="#00843D"/>
<path d="M6.16415 10.7188C6.17004 10.7245 6.23635 10.7888 6.23635 10.7888C6.23635 10.7888 6.30265 10.7245 6.30856 10.7188C6.31415 10.7239 6.35921 10.7657 6.36539 10.7714C6.35901 10.7776 6.30385 10.8311 6.30385 10.8311L6.37371 10.899H6.28276L6.23635 10.8539L6.18994 10.899H6.09898L6.16884 10.8311C6.16884 10.8311 6.11368 10.7776 6.10731 10.7714C6.11348 10.7657 6.15856 10.7239 6.16415 10.7188Z" fill="#00843D"/>
<path d="M5.95932 10.7188C5.95342 10.7245 5.88711 10.7888 5.88711 10.7888C5.88711 10.7888 5.8208 10.7245 5.81491 10.7188C5.80932 10.7239 5.76424 10.7657 5.75807 10.7714C5.76446 10.7776 5.81962 10.8311 5.81962 10.8311L5.74976 10.899H5.8407L5.88711 10.8539L5.93353 10.899H6.02447L5.95461 10.8311C5.95461 10.8311 6.00978 10.7776 6.01616 10.7714C6.00999 10.7657 5.96491 10.7239 5.95932 10.7188Z" fill="#00843D"/>
<path d="M6.51342 12.7307C6.51932 12.725 6.58564 12.6606 6.58564 12.6606C6.58564 12.6606 6.65195 12.725 6.65784 12.7307C6.66342 12.7255 6.7085 12.6838 6.71468 12.6781C6.70829 12.6719 6.65313 12.6183 6.65313 12.6183L6.72299 12.5505H6.63205L6.58564 12.5956L6.53921 12.5505H6.44827L6.51813 12.6183C6.51813 12.6183 6.46297 12.6719 6.45658 12.6781C6.46276 12.6838 6.50784 12.7255 6.51342 12.7307Z" fill="#00843D"/>
<path d="M6.16415 12.7307C6.17004 12.725 6.23635 12.6606 6.23635 12.6606C6.23635 12.6606 6.30265 12.725 6.30856 12.7307C6.31415 12.7255 6.35921 12.6838 6.36539 12.6781C6.35901 12.6719 6.30385 12.6183 6.30385 12.6183L6.37371 12.5505H6.28276L6.23635 12.5956L6.18994 12.5505H6.09898L6.16884 12.6183C6.16884 12.6183 6.11368 12.6719 6.10731 12.6781C6.11348 12.6838 6.15856 12.7255 6.16415 12.7307Z" fill="#00843D"/>
<path d="M5.95932 12.7307C5.95342 12.725 5.88711 12.6606 5.88711 12.6606C5.88711 12.6606 5.8208 12.725 5.81491 12.7307C5.80932 12.7255 5.76424 12.6838 5.75807 12.6781C5.76446 12.6719 5.81962 12.6183 5.81962 12.6183L5.74976 12.5505H5.8407L5.88711 12.5956L5.93353 12.5505H6.02447L5.95461 12.6183C5.95461 12.6183 6.00978 12.6719 6.01616 12.6781C6.00999 12.6838 5.96491 12.7255 5.95932 12.7307Z" fill="#00843D"/>
<path d="M5.29988 12.3453V12.55H7.18063V12.3453H7.45887V11.1031H7.18063V10.8984H5.29988V11.1031H5.02164V12.3453H5.29988Z" fill="#383739"/>
<path d="M5.31137 10.9072V11.1116H5.03308V12.3351H5.31137V12.5394H7.1725V12.3351H7.45081V11.1116H7.1725V10.9072H5.31137L5.31137 10.9072ZM5.43114 10.9859H7.05275V11.1832L7.11967 11.2325H7.37214V12.2153H7.11851L7.05275 12.2635V12.4619H5.43114V12.2646L5.36421 12.2153H5.11058V11.2325H5.36304L5.43114 11.1832V10.9859H5.43114Z" fill="#FFC72C"/>
<path d="M5.43652 10.9951V11.176L5.68076 10.9951H5.43652ZM6.7939 10.9951L7.03814 11.176V10.9951H6.7939ZM5.11713 11.2417V11.4108L5.34728 11.2417H5.11715H5.11713ZM7.12742 11.2417L7.35873 11.412V11.2417H7.12742ZM7.35873 12.0343L7.12742 12.2057H7.35873V12.0343ZM5.11713 12.0355V12.2057H5.34727L5.11713 12.0355ZM5.43651 12.2715V12.4511H5.67958L5.43651 12.2715ZM7.03813 12.2715L6.7951 12.4511H7.03813V12.2715Z" fill="#D22630"/>
<path d="M6.77864 10.9956C6.78114 10.9974 7.35538 11.4216 7.3592 11.4244V12.0232C7.35538 12.026 6.78114 12.4501 6.77864 12.452H5.69767C5.69519 12.4501 5.12094 12.026 5.11713 12.0232V11.4244C5.12094 11.4216 5.69519 10.9974 5.69767 10.9956H6.77864Z" fill="#00843D"/>
<path d="M5.25641 12.0921L5.18967 12.0146L5.25233 11.9419L5.18967 11.8692L5.25233 11.7965L5.18967 11.7237L5.25233 11.651L5.18967 11.5783L5.25232 11.5056L5.18967 11.4329L5.25641 11.3554H7.22197L7.28872 11.4329L7.22606 11.5056L7.28872 11.5783L7.22606 11.651L7.28872 11.7237L7.22606 11.7965L7.28872 11.8692L7.22606 11.9419L7.28872 12.0146L7.22197 12.0921H5.25641ZM6.60753 11.0892L6.53007 11.0225L6.45733 11.0851L6.38463 11.0225L6.31191 11.0851L6.23919 11.0225L6.16647 11.0851L6.09375 11.0225L6.02104 11.0851L5.94832 11.0225L5.87085 11.0892V12.3582L5.94832 12.425L6.02104 12.3623L6.09375 12.425L6.16647 12.3623L6.23919 12.425L6.31191 12.3623L6.38463 12.425L6.45733 12.3623L6.53007 12.425L6.60753 12.3582V11.0892Z" fill="#383739"/>
<path d="M6.45152 11.0942L6.38356 11.0356L6.31559 11.0942V12.3545L6.38356 12.4131L6.45152 12.3545V11.0942Z" fill="#FFC72C"/>
<path d="M6.16065 11.0942L6.09268 11.0356L6.02473 11.0942V12.3545L6.09268 12.4131L6.16065 12.3545V11.0942Z" fill="#FFC72C"/>
<path d="M5.25969 12.0832L5.20114 12.0153L5.25969 11.9473H7.21656L7.27511 12.0153L7.21656 12.0832H5.25969Z" fill="#FFC72C"/>
<path d="M7.21656 11.6564L7.27512 11.7244L7.21656 11.7923H5.25972L5.20115 11.7244L5.25972 11.6564H7.21656Z" fill="#FFC72C"/>
<path d="M7.21656 11.5015L7.27511 11.4335L7.21656 11.3656H5.25969L5.20114 11.4335L5.25969 11.5015H7.21656Z" fill="#FFC72C"/>
<path d="M6.59696 11.0942L6.529 11.0356L6.46103 11.0942V12.3545L6.529 12.4131L6.59694 12.3545L6.59696 11.0942Z" fill="#D22630"/>
<path d="M6.01522 11.0942L5.94724 11.0356L5.87927 11.0942V12.3545L5.94724 12.4131L6.01522 12.3545V11.0942Z" fill="#D22630"/>
<path d="M5.25971 11.9378L5.20114 11.8698L5.25971 11.8018H7.21654L7.27511 11.8698L7.21654 11.9378H5.25971Z" fill="#D22630"/>
<path d="M5.25971 11.6469L5.20114 11.5789L5.25971 11.511H7.21654L7.27511 11.5789L7.21654 11.6469H5.25971Z" fill="#D22630"/>
<path d="M6.3061 12.3545L6.23813 12.4131L6.17016 12.3545V11.0942L6.23813 11.0356L6.3061 11.0942V12.3545Z" fill="#D22630"/>
<path d="M6.89927 11.1182H5.58063V11.2229H5.41211V12.2246H5.58063V12.3293H6.90401V12.2246H7.07253V11.2229H6.90401V11.1182H6.89927Z" fill="#383739"/>
<path d="M5.58706 11.1289V11.2334H5.41797V12.2163H5.58706V12.3208H5.72562L5.44968 12.0894V11.3602L5.72562 11.1289H5.58706ZM6.75308 11.1289L7.02783 11.3602V12.0894L6.75308 12.3207H6.89162V12.2163H7.05954V11.2334H6.89162V11.1289H6.75308V11.1289Z" fill="#D22630"/>
<path d="M5.74266 11.1289C5.74005 11.1311 5.46418 11.3621 5.46085 11.3649V12.0847C5.46418 12.0875 5.74005 12.3185 5.74266 12.3207H6.73957C6.74219 12.3185 7.01687 12.0875 7.02021 12.0847V11.3649C7.01687 11.3621 6.74219 11.1311 6.73957 11.1289H5.74266ZM5.75675 11.1688H6.72431L6.98029 11.3837V12.0659L6.72431 12.2796H5.75675L5.50195 12.0659V11.3837L5.75675 11.1688Z" fill="#00843D"/>
<path d="M6.01302 12.0767L6.05633 12.0954L6.06429 12.146L6.00977 12.194L6.08897 12.2706H6.01276L5.95828 12.2181L5.90378 12.2706H5.82758L5.90679 12.194L5.85225 12.146L5.86023 12.0954L5.90353 12.0767L5.95828 12.1205L6.01302 12.0767Z" fill="#00843D"/>
<path d="M6.29563 12.0767L6.33893 12.0954L6.34691 12.146L6.29239 12.194L6.37158 12.2706H6.29538L6.24088 12.2181L6.1864 12.2706H6.11018L6.18939 12.194L6.13487 12.146L6.14285 12.0954L6.18615 12.0767L6.24088 12.1205L6.29563 12.0767Z" fill="#00843D"/>
<path d="M6.46875 12.0767L6.42545 12.0954L6.41747 12.146L6.472 12.194L6.3928 12.2706H6.469L6.5235 12.2181L6.57798 12.2706H6.65419L6.57499 12.194L6.62951 12.146L6.62153 12.0954L6.57824 12.0767L6.5235 12.1205L6.52052 12.1181L6.46875 12.0767Z" fill="#00843D"/>
<path d="M6.01302 11.3725L6.05633 11.3538L6.06429 11.3032L6.00977 11.2552L6.08897 11.1787H6.01276L5.95828 11.2311L5.90378 11.1787H5.82758L5.90679 11.2552L5.85225 11.3032L5.86023 11.3538L5.90353 11.3725L5.95828 11.3287L6.01302 11.3725Z" fill="#00843D"/>
<path d="M6.29563 11.3725L6.33893 11.3538L6.34691 11.3032L6.29239 11.2552L6.37158 11.1787H6.29538L6.24088 11.2311L6.1864 11.1787H6.11018L6.18939 11.2552L6.13487 11.3032L6.14285 11.3538L6.18615 11.3725L6.24088 11.3287L6.29563 11.3725Z" fill="#00843D"/>
<path d="M6.46875 11.3725L6.42545 11.3538L6.41747 11.3032L6.472 11.2552L6.3928 11.1787H6.469L6.5235 11.2311L6.57798 11.1787H6.65419L6.57499 11.2552L6.62951 11.3032L6.62153 11.3538L6.57824 11.3725L6.5235 11.3287L6.52052 11.3311L6.46875 11.3725Z" fill="#00843D"/>
<path d="M6.97031 11.4533L6.92708 11.4891L6.97031 11.5249V11.5842L6.90383 11.5294C6.90383 11.5294 6.85912 11.5699 6.85611 11.5726C6.85228 11.5722 6.80921 11.5667 6.80496 11.5662C6.80305 11.5627 6.78961 11.5379 6.78693 11.533C6.79139 11.5285 6.83096 11.4891 6.83096 11.4891C6.83096 11.4891 6.79139 11.4496 6.78693 11.4452C6.78961 11.4402 6.80305 11.4154 6.80496 11.4119C6.80921 11.4114 6.85228 11.406 6.85611 11.4055C6.85912 11.4082 6.90383 11.4487 6.90383 11.4487L6.97031 11.394V11.4533Z" fill="#00843D"/>
<path d="M6.97031 11.6888L6.92708 11.7246L6.97031 11.7604V11.8197L6.90383 11.765C6.90383 11.765 6.85912 11.8055 6.85611 11.8082C6.85228 11.8077 6.80921 11.8023 6.80496 11.8018C6.80305 11.7983 6.78961 11.7735 6.78693 11.7685C6.79139 11.7641 6.83096 11.7246 6.83096 11.7246C6.83096 11.7246 6.79139 11.6852 6.78693 11.6807C6.78961 11.6758 6.80305 11.651 6.80496 11.6475C6.80921 11.6469 6.85228 11.6415 6.85611 11.641C6.85912 11.6438 6.90383 11.6843 6.90383 11.6843L6.97031 11.6295V11.6888Z" fill="#00843D"/>
<path d="M6.97031 11.996L6.92708 11.9602L6.97031 11.9244V11.8651L6.90383 11.9198C6.90383 11.9198 6.85912 11.8793 6.85611 11.8766C6.85228 11.8771 6.80921 11.8825 6.80496 11.883C6.80305 11.8865 6.78961 11.9113 6.78693 11.9163C6.79139 11.9207 6.83096 11.9602 6.83096 11.9602C6.83096 11.9602 6.79139 11.9996 6.78693 12.0041C6.78961 12.009 6.80305 12.0338 6.80496 12.0373C6.80921 12.0379 6.85228 12.0433 6.85611 12.0437C6.85912 12.041 6.90383 12.0005 6.90383 12.0005L6.97031 12.0553V11.996Z" fill="#00843D"/>
<path d="M5.51148 11.4533L5.5547 11.4891L5.51148 11.5249V11.5842L5.57796 11.5294C5.57796 11.5294 5.62267 11.5699 5.62567 11.5726C5.62949 11.5722 5.67258 11.5667 5.67683 11.5662C5.67873 11.5627 5.69217 11.5379 5.69486 11.533C5.6904 11.5285 5.65083 11.4891 5.65083 11.4891C5.65083 11.4891 5.6904 11.4496 5.69486 11.4452C5.69217 11.4402 5.67873 11.4154 5.67683 11.4119C5.67258 11.4114 5.62949 11.406 5.62567 11.4055C5.62267 11.4082 5.57796 11.4487 5.57796 11.4487L5.51148 11.394V11.4533Z" fill="#00843D"/>
<path d="M5.51148 11.6888L5.5547 11.7246L5.51148 11.7604V11.8197L5.57796 11.765C5.57796 11.765 5.62267 11.8055 5.62567 11.8082C5.62949 11.8077 5.67258 11.8023 5.67683 11.8018C5.67873 11.7983 5.69217 11.7735 5.69486 11.7685C5.6904 11.7641 5.65083 11.7246 5.65083 11.7246C5.65083 11.7246 5.6904 11.6852 5.69486 11.6807C5.69217 11.6758 5.67873 11.651 5.67683 11.6475C5.67258 11.6469 5.62949 11.6415 5.62567 11.641C5.62267 11.6438 5.57796 11.6843 5.57796 11.6843L5.51148 11.6295V11.6888Z" fill="#00843D"/>
<path d="M5.51148 11.996L5.5547 11.9602L5.51148 11.9244V11.8651L5.57796 11.9198C5.57796 11.9198 5.62267 11.8793 5.62567 11.8766C5.62949 11.8771 5.67258 11.8825 5.67683 11.883C5.67873 11.8865 5.69217 11.9113 5.69486 11.9163C5.6904 11.9207 5.65083 11.9602 5.65083 11.9602C5.65083 11.9602 5.6904 11.9996 5.69486 12.0041C5.69217 12.009 5.67873 12.0338 5.67683 12.0373C5.67258 12.0379 5.62949 12.0433 5.62567 12.0437C5.62267 12.041 5.57796 12.0005 5.57796 12.0005L5.51148 12.0553V11.996Z" fill="#00843D"/>
<path d="M5.76261 11.1773C5.76004 11.1794 5.52757 11.374 5.5172 11.3827C5.53815 11.4001 5.55842 11.4183 5.57943 11.4356C5.58475 11.4308 5.62522 11.3945 5.62522 11.3945L5.68511 11.4027L5.70859 11.4461C5.70859 11.4461 5.67207 11.4827 5.66632 11.4884C5.67207 11.4941 5.70859 11.5307 5.70859 11.5307L5.68511 11.5741L5.62522 11.5812C5.62522 11.5812 5.58475 11.5461 5.57943 11.5413L5.51367 11.5964V11.6152C5.53579 11.6335 5.55723 11.6521 5.57943 11.6704C5.58475 11.6656 5.62522 11.6305 5.62522 11.6305L5.68511 11.6375L5.70859 11.681C5.70859 11.681 5.67207 11.7175 5.66632 11.7233C5.67207 11.729 5.70859 11.7655 5.70859 11.7655L5.68511 11.8102L5.62522 11.8172C5.62522 11.8172 5.58475 11.7809 5.57943 11.7761L5.51367 11.8313V11.8512L5.57943 11.9064C5.58475 11.9016 5.62522 11.8653 5.62522 11.8653L5.68511 11.8736L5.70859 11.917C5.70859 11.917 5.67207 11.9536 5.66632 11.9593C5.67207 11.965 5.70859 12.0015 5.70859 12.0015L5.68511 12.045L5.62522 12.0532C5.62522 12.0532 5.58475 12.0169 5.57943 12.0121C5.5585 12.0294 5.53807 12.0466 5.51719 12.0638C5.52757 12.0725 5.76004 12.2671 5.76261 12.2693H5.81662L5.89529 12.1929L5.8448 12.1483L5.8542 12.0873L5.90704 12.065L5.96105 12.1072L6.01389 12.065L6.06673 12.0873L6.0773 12.1483L6.02563 12.1929L6.10196 12.2657L6.17828 12.1929L6.12661 12.1483L6.13601 12.0873L6.19002 12.065L6.24286 12.1072L6.29688 12.065L6.34972 12.0873L6.35911 12.1483L6.30862 12.1929L6.38377 12.2669L6.46009 12.1929L6.4096 12.1483L6.419 12.0873L6.47301 12.065L6.52585 12.1072L6.57869 12.065L6.6327 12.0873L6.6421 12.1483L6.59161 12.1929L6.67028 12.2693H6.72312C6.72569 12.2671 6.95815 12.0725 6.96853 12.0638C6.94761 12.0466 6.92725 12.0294 6.9063 12.0121C6.90098 12.0169 6.86168 12.0532 6.86168 12.0532L6.80179 12.045L6.77713 12.0015C6.77713 12.0015 6.81367 11.965 6.8194 11.9593C6.81367 11.9536 6.77713 11.917 6.77713 11.917L6.80179 11.8736L6.86168 11.8653C6.86168 11.8653 6.90098 11.9016 6.9063 11.9064L6.97205 11.8512V11.8313L6.9063 11.7761C6.90098 11.7809 6.86168 11.8172 6.86168 11.8172L6.80179 11.8102L6.77713 11.7655C6.77713 11.7655 6.81367 11.729 6.8194 11.7233C6.81367 11.7175 6.77713 11.681 6.77713 11.681L6.80179 11.6375L6.86168 11.6305C6.86168 11.6305 6.90098 11.6656 6.9063 11.6704C6.92834 11.6523 6.95005 11.6345 6.97205 11.6164V11.5953L6.9063 11.5413C6.90098 11.5461 6.86168 11.5812 6.86168 11.5812L6.80179 11.5741L6.77713 11.5307C6.77713 11.5307 6.81367 11.4941 6.8194 11.4884C6.81367 11.4827 6.77713 11.4461 6.77713 11.4461L6.80179 11.4027L6.86168 11.3945C6.86168 11.3945 6.90098 11.4308 6.9063 11.4356C6.92734 11.4182 6.94867 11.4012 6.9697 11.3839C6.96162 11.3771 6.7257 11.1794 6.72312 11.1772H6.67028L6.59161 11.2536L6.6421 11.2982L6.6327 11.3593L6.57869 11.3827L6.52585 11.3405L6.47301 11.3827L6.41899 11.3593L6.4096 11.2982L6.46009 11.2536L6.38494 11.1808L6.30862 11.2536L6.35911 11.2982L6.34972 11.3593L6.29688 11.3827L6.24286 11.3405L6.19002 11.3827L6.13601 11.3593L6.12661 11.2982L6.17828 11.2536L6.10195 11.1808L6.02563 11.2536L6.0773 11.2982L6.06673 11.3593L6.01389 11.3827L5.96105 11.3405L5.90703 11.3827L5.85419 11.3593L5.8448 11.2982L5.89529 11.2536L5.81545 11.1772L5.76261 11.1773ZM5.51367 11.6998V11.7479L5.54186 11.7233L5.51367 11.6998Z" fill="#D22630"/>
<path d="M5.96105 12.2305L5.91994 12.2692H6.00095L5.96105 12.2305Z" fill="white"/>
<path d="M6.24286 12.2305L6.20296 12.2692H6.28397L6.24286 12.2305Z" fill="white"/>
<path d="M6.52583 12.2305L6.48476 12.2692H6.56694L6.52583 12.2305Z" fill="white"/>
<path d="M5.91877 11.1772L5.96104 11.2172L6.00215 11.1772H5.91877Z" fill="white"/>
<path d="M6.20176 11.1772L6.24287 11.2172L6.28514 11.1772H6.20176Z" fill="white"/>
<path d="M6.48478 11.1772L6.52584 11.2172L6.56695 11.1772H6.48478Z" fill="white"/>
<path d="M6.97206 11.4649L6.94387 11.4884L6.97206 11.5107V11.4649Z" fill="white"/>
<path d="M6.97206 11.6998L6.94387 11.7232L6.97206 11.7467V11.6998Z" fill="white"/>
<path d="M6.97206 11.9358L6.94387 11.9593L6.97206 11.9827V11.9358Z" fill="white"/>
<path d="M5.51367 11.4638V11.5119L5.54185 11.4884L5.51367 11.4638Z" fill="white"/>
<path d="M5.51367 11.6998V11.7479L5.54185 11.7232L5.51367 11.6998Z" fill="white"/>
<path d="M5.51367 11.9346V11.9827L5.54185 11.9593L5.51367 11.9346Z" fill="white"/>
<path d="M6.48185 11.6449V11.5609H6.39679V11.4688H6.08349V11.5609H5.99843V11.6449H5.88095V11.8023H5.99843V11.8863H6.08349V11.9785H6.39679V11.8863H6.48185V11.8023H6.59932V11.6449H6.48185Z" fill="#383739"/>
<path d="M6.22969 11.478V11.573L6.09502 11.6496V11.7187H5.88477V11.6542H6.00223V11.5702H6.0873V11.478H6.22969Z" fill="#FFC72C"/>
<path d="M6.2392 11.9688V11.8738L6.37385 11.7972V11.7282H6.58412V11.7926H6.46666V11.8766H6.38159V11.9688H6.2392Z" fill="#FFC72C"/>
<path d="M6.37384 11.7187V11.6496L6.23919 11.573V11.478H6.38158V11.5702H6.46665V11.6542H6.58411V11.7187H6.37384Z" fill="white"/>
<path d="M5.88477 11.7282H6.09502V11.7972L6.22969 11.8738V11.9688H6.0873V11.8766H6.00223V11.7926H5.88477V11.7282Z" fill="white"/>
<path d="M6.10547 11.7294V11.7937L6.23122 11.8652V11.7294H6.10547Z" fill="#D22630"/>
<path d="M6.36653 11.7198V11.6555L6.24078 11.584V11.7198H6.36653Z" fill="#D22630"/>
<path d="M6.23122 11.584L6.10547 11.6555V11.7198H6.23122V11.584Z" fill="#00843D"/>
<path d="M6.24077 11.8652L6.36652 11.7937V11.7294H6.24077V11.8652Z" fill="#00843D"/>
<path d="M6.48254 15.045H7.37611V14.7855H7.6227V14.5495H7.87398V13.8978H7.6227V13.663H7.37611V13.4035H6.48254L6.11148 13.1792H5.72751L5.55725 13.3565H5.94709L6.0105 13.2931H5.72047L5.76509 13.2426H6.09387L6.51424 13.4962H7.28218V13.7557H7.52994V13.9918H7.78122V14.4568H7.52994V14.6928H7.28218V14.9523H6.51424L6.09387 15.2047H5.76509L5.72047 15.1554H6.0105L5.94709 15.092H5.55725L5.72751 15.2693H6.11148L6.48254 15.045ZM5.9788 14.9523H5.21086V14.6928H4.96427V14.4568H4.71298V13.9918H4.96427V13.7557H5.21086V13.4962H5.9788L6.40034 13.2426H6.72795L6.77257 13.2931H6.48371L6.54712 13.3565H6.93696L6.7667 13.1792H6.38273L6.01167 13.4035H5.11809V13.663H4.87033V13.8978H4.61905V14.5495H4.87033V14.7855H5.11809V15.045H6.01167L6.38273 15.2693H6.7667L6.93696 15.092H6.54712L6.48371 15.1554H6.77257L6.72795 15.2047H6.40034L5.9788 14.9523Z" fill="#FFC72C"/>
<path d="M7.20722 14.6171V14.8769H6.49337L6.2463 15.0253L5.99924 14.8769H5.2854V14.6171H5.03785V14.3815H4.78699V14.0657H5.03785V13.8301H5.2854V13.5703H5.99792H5.99924L6.2463 13.4219L6.49337 13.5703H7.20722V13.8301H7.45475V14.0657H7.70562V14.3815H7.45475V14.6171H7.20722Z" fill="#00843D"/>
<path d="M5.38278 14.7778H5.77518L5.38278 14.5175V14.7778Z" fill="#383739"/>
<path d="M5.38278 13.6699H5.77518L5.38278 13.9302V13.6699Z" fill="#383739"/>
<path d="M7.11771 14.7778H6.72531L7.11771 14.5175V14.7778Z" fill="#383739"/>
<path d="M7.11771 13.6699H6.72531L7.11771 13.9302V13.6699Z" fill="#383739"/>
<path d="M5.39041 14.5345L5.74179 14.7675H5.39041V14.5345Z" fill="#D22630"/>
<path d="M5.39041 13.9118C5.40407 13.9027 5.71784 13.6946 5.74179 13.6787H5.39041V13.9118Z" fill="#D22630"/>
<path d="M7.10631 14.5345C7.09264 14.5436 6.77887 14.7517 6.75494 14.7675H7.10631V14.5345Z" fill="#D22630"/>
<path d="M7.10631 13.9118C7.09264 13.9027 6.77887 13.6946 6.75494 13.6787H7.10631V13.9118Z" fill="#D22630"/>
<path d="M5.87594 14.1552V14.0269H5.83215L5.62206 13.8955L5.61955 13.8971L5.41199 14.0269H5.3682V14.1552H5.26944V14.2931H5.3682V14.4215H5.41199L5.62206 14.5529L5.83215 14.4215H5.87594V14.2931H6.02629V14.1552H5.87594Z" fill="#383739"/>
<path d="M6.60967 14.1553V14.0269H6.65346L6.86354 13.8955L6.86606 13.8971L7.07362 14.0269H7.11741V14.1553H7.21617V14.2931H7.11741V14.4215H7.07362L6.86354 14.5529L6.65346 14.4215H6.60967V14.2931H6.45932V14.1553H6.60967Z" fill="#383739"/>
<path d="M5.6218 13.9067L5.81397 14.0269H5.42966L5.6218 13.9067ZM5.81394 14.4215L5.6218 14.5417L5.42967 14.4215H5.81394Z" fill="#D22630"/>
<path d="M6.86326 13.9067L6.67109 14.0269H7.0554L6.86326 13.9067ZM6.67112 14.4215L6.86326 14.5417L7.05539 14.4215H6.67112Z" fill="#D22630"/>
<path d="M5.76877 14.1646V14.2834H5.52914V14.1646H5.76877Z" fill="#D22630"/>
<path d="M6.71902 14.1646V14.2834H6.95864V14.1646H6.71902Z" fill="#D22630"/>
<path d="M5.86458 14.2929V14.4118H5.62495V14.2929H5.86458Z" fill="#FFC72C"/>
<path d="M5.61546 14.2929V14.4118H5.37583V14.2929H5.61546Z" fill="#FFC72C"/>
<path d="M6.01493 14.1645V14.2834H5.7753V14.1645H6.01493Z" fill="#FFC72C"/>
<path d="M5.5167 14.1645V14.2834H5.27707V14.1645H5.5167Z" fill="#FFC72C"/>
<path d="M5.86458 14.0361V14.155H5.62495V14.0361H5.86458Z" fill="#FFC72C"/>
<path d="M5.61546 14.0361V14.155H5.37583V14.0361H5.61546Z" fill="#FFC72C"/>
<path d="M6.6173 14.2929V14.4118H6.85693V14.2929H6.6173Z" fill="#FFC72C"/>
<path d="M6.86641 14.2929V14.4118H7.10604V14.2929H6.86641Z" fill="#FFC72C"/>
<path d="M6.46695 14.1645V14.2834H6.70657V14.1645H6.46695Z" fill="#FFC72C"/>
<path d="M6.96518 14.1645V14.2834H7.20481V14.1645H6.96518Z" fill="#FFC72C"/>
<path d="M6.6173 14.0361V14.155H6.85693V14.0361H6.6173Z" fill="#FFC72C"/>
<path d="M6.86641 14.0361V14.155H7.10604V14.0361H6.86641Z" fill="#FFC72C"/>
<path d="M5.45346 14.1904V14.2564H5.34583V14.1904H5.45346Z" fill="#383739"/>
<path d="M5.55223 14.062V14.1281H5.44459V14.062H5.55223Z" fill="#383739"/>
<path d="M5.80132 14.062V14.1281H5.69368V14.062H5.80132Z" fill="#383739"/>
<path d="M5.70256 14.1904V14.2564H5.59492V14.1904H5.70256Z" fill="#383739"/>
<path d="M5.95167 14.1904V14.2564H5.84404V14.1904H5.95167Z" fill="#383739"/>
<path d="M5.80132 14.3188V14.3848H5.69368V14.3188H5.80132Z" fill="#383739"/>
<path d="M5.55223 14.3188V14.3848H5.44459V14.3188H5.55223Z" fill="#383739"/>
<path d="M7.03388 14.1904V14.2565H7.14152V14.1904H7.03388Z" fill="#383739"/>
<path d="M6.93512 14.062V14.1281H7.04275V14.062H6.93512Z" fill="#383739"/>
<path d="M6.68602 14.062V14.1281H6.79366V14.062H6.68602Z" fill="#383739"/>
<path d="M6.78479 14.1904V14.2565H6.89242V14.1904H6.78479Z" fill="#383739"/>
<path d="M6.53567 14.1904V14.2565H6.64331V14.1904H6.53567Z" fill="#383739"/>
<path d="M6.68602 14.3188V14.3848H6.79366V14.3188H6.68602Z" fill="#383739"/>
<path d="M6.93512 14.3188V14.3848H7.04275V14.3188H6.93512Z" fill="#383739"/>
<path d="M5.44463 14.2011H5.35727V14.2469H5.44463V14.2011Z" fill="white"/>
<path d="M5.5434 14.0728H5.45603V14.1185H5.5434V14.0728Z" fill="white"/>
<path d="M5.79251 14.0728H5.70515V14.1185H5.79251V14.0728Z" fill="white"/>
<path d="M5.69375 14.2011H5.60639V14.2469H5.69375V14.2011Z" fill="white"/>
<path d="M5.94287 14.2011H5.8555V14.2469H5.94287V14.2011Z" fill="white"/>
<path d="M5.79251 14.3295H5.70515V14.3753H5.79251V14.3295Z" fill="white"/>
<path d="M5.5434 14.3295H5.45603V14.3753H5.5434V14.3295Z" fill="white"/>
<path d="M7.04536 14.2011H7.13273V14.2469H7.04536V14.2011Z" fill="white"/>
<path d="M6.9466 14.0728H7.03396V14.1185H6.9466V14.0728Z" fill="white"/>
<path d="M6.69748 14.0728H6.78485V14.1185H6.69748V14.0728Z" fill="white"/>
<path d="M6.79625 14.2011H6.88361V14.2469H6.79625V14.2011Z" fill="white"/>
<path d="M6.54713 14.2011H6.6345V14.2469H6.54713V14.2011Z" fill="white"/>
<path d="M6.69748 14.3295H6.78485V14.3753H6.69748V14.3295Z" fill="white"/>
<path d="M6.9466 14.3295H7.03396V14.3753H6.9466V14.3295Z" fill="white"/>
<path d="M6.49939 13.9416V14.0699H6.4556L6.24551 14.2013L6.03544 14.0699H5.99165V13.9416H5.8671V13.8037H5.99165V13.6753H6.03544L6.24551 13.5439L6.4556 13.6753H6.49939V13.8037H6.62394V13.9416H6.49939Z" fill="#383739"/>
<path d="M6.49939 14.6465V14.7748H6.4556L6.24551 14.9062L6.03544 14.7748H5.99165V14.6465H5.8671V14.5086H5.99165V14.3802H6.03544L6.24551 14.2488L6.4556 14.3802H6.49939V14.5086H6.62394V14.6465H6.49939Z" fill="#383739"/>
<path d="M6.24674 14.1906L6.43889 14.0704H6.0546L6.24674 14.1906ZM6.43888 13.6758L6.24674 13.5557L6.05461 13.6758H6.43888Z" fill="#FFC72C"/>
<path d="M6.24674 14.8955L6.4389 14.7753H6.0546L6.24674 14.8955ZM6.43888 14.3807L6.24674 14.2605L6.05461 14.3807H6.43888Z" fill="#FFC72C"/>
<path d="M6.48803 13.8034V13.6846H6.2484V13.8034H6.48803Z" fill="#D22630"/>
<path d="M6.23891 13.8034V13.6846H5.99928V13.8034H6.23891Z" fill="#D22630"/>
<path d="M6.61257 13.9318V13.8129H6.37294V13.9318H6.61257Z" fill="#D22630"/>
<path d="M6.36346 13.9318V13.8129H6.12383V13.9318H6.36346Z" fill="#D22630"/>
<path d="M6.11434 13.9318V13.8129H5.87473V13.9318H6.11434Z" fill="#D22630"/>
<path d="M6.48803 14.0602V13.9413H6.2484V14.0602H6.48803Z" fill="#D22630"/>
<path d="M6.23891 14.0602V13.9413H5.99928V14.0602H6.23891Z" fill="#D22630"/>
<path d="M6.48803 14.5083V14.3895H6.2484V14.5083H6.48803Z" fill="#D22630"/>
<path d="M6.23891 14.5083V14.3895H5.99928V14.5083H6.23891Z" fill="#D22630"/>
<path d="M6.61257 14.6367V14.5178H6.37294V14.6367H6.61257Z" fill="#D22630"/>
<path d="M6.36346 14.6367V14.5178H6.12383V14.6367H6.36346Z" fill="#D22630"/>
<path d="M6.11434 14.6367V14.5178H5.87473V14.6367H6.11434Z" fill="#D22630"/>
<path d="M6.48803 14.7651V14.6462H6.2484V14.7651H6.48803Z" fill="#D22630"/>
<path d="M6.23891 14.7651V14.6462H5.99928V14.7651H6.23891Z" fill="#D22630"/>
<path d="M6.17569 13.7104V13.7765H6.06805V13.7104H6.17569Z" fill="#383739"/>
<path d="M6.4248 13.7104V13.7765H6.31717V13.7104H6.4248Z" fill="#383739"/>
<path d="M6.05112 13.8388V13.9049H5.94348V13.8388H6.05112Z" fill="#383739"/>
<path d="M6.30026 13.8388V13.9049H6.19262V13.8388H6.30026Z" fill="#383739"/>
<path d="M6.54937 13.8388V13.9049H6.44174V13.8388H6.54937Z" fill="#383739"/>
<path d="M6.17569 13.9672V14.0333H6.06805V13.9672H6.17569Z" fill="#383739"/>
<path d="M6.4248 13.9672V14.0333H6.31717V13.9672H6.4248Z" fill="#383739"/>
<path d="M6.17569 14.4153V14.4814H6.06806V14.4153H6.17569Z" fill="#383739"/>
<path d="M6.42481 14.4153V14.4814H6.31717V14.4153H6.42481Z" fill="#383739"/>
<path d="M6.05112 14.5437V14.6098H5.94349V14.5437H6.05112Z" fill="#383739"/>
<path d="M6.30026 14.5437V14.6098H6.19263V14.5437H6.30026Z" fill="#383739"/>
<path d="M6.54938 14.5437V14.6098H6.44174V14.5437H6.54938Z" fill="#383739"/>
<path d="M6.17569 14.6721V14.7382H6.06806V14.6721H6.17569Z" fill="#383739"/>
<path d="M6.42481 14.6721V14.7382H6.31717V14.6721H6.42481Z" fill="#383739"/>
<path d="M6.16686 13.7212H6.07949V13.767H6.16686V13.7212Z" fill="white"/>
<path d="M6.41598 13.7212H6.32861V13.767H6.41598V13.7212Z" fill="white"/>
<path d="M6.04229 13.8496H5.95493V13.8954H6.04229V13.8496Z" fill="white"/>
<path d="M6.29143 13.8496H6.20406V13.8954H6.29143V13.8496Z" fill="white"/>
<path d="M6.54052 13.8496H6.45316V13.8954H6.54052V13.8496Z" fill="white"/>
<path d="M6.16686 13.978H6.07949V14.0237H6.16686V13.978Z" fill="white"/>
<path d="M6.41598 13.978H6.32861V14.0237H6.41598V13.978Z" fill="white"/>
<path d="M6.16686 14.4261H6.07949V14.4719H6.16686V14.4261Z" fill="white"/>
<path d="M6.41598 14.4261H6.32861V14.4719H6.41598V14.4261Z" fill="white"/>
<path d="M6.04229 14.5545H5.95493V14.6002H6.04229V14.5545Z" fill="white"/>
<path d="M6.29143 14.5545H6.20406V14.6002H6.29143V14.5545Z" fill="white"/>
<path d="M6.54052 14.5545H6.45316V14.6002H6.54052V14.5545Z" fill="white"/>
<path d="M6.16686 14.6828H6.07949V14.7286H6.16686V14.6828Z" fill="white"/>
<path d="M6.41598 14.6828H6.32861V14.7286H6.41598V14.6828Z" fill="white"/>
<path d="M4.88867 16.1785L5.82093 15.6768H5.82212H6.67531L7.60757 16.1785V17.0052L6.67531 17.5069H5.82093L4.88867 17.0052V16.1785Z" fill="#383739"/>
<path d="M5.82159 15.6865L4.8963 16.1844V16.9993L5.82159 17.4972H6.67053L7.59585 16.9993V16.1844L6.67053 15.6865H5.82159ZM5.83801 15.7534H6.65411L7.53009 16.2243V16.9605L6.65411 17.4314H5.83752L4.96156 16.9605V16.2243L5.83801 15.7534Z" fill="#00843D"/>
<path d="M6.25582 16.5876V17.4221H6.65698L7.52564 16.9546V16.5971L6.24632 16.5971V15.7627H5.84517L4.9765 16.2302V16.5876L6.25582 16.5876Z" fill="#FFC72C"/>
<path d="M6.24632 16.5876V17.4221H5.84517L4.9765 16.9546V16.5971L6.25582 16.5971V15.7627H6.65698L7.52564 16.2302V16.5876L6.24632 16.5876Z" fill="white"/>
<path d="M6.33077 17.3755V17.1343L6.25279 17.1838L6.17481 17.1343V17.3755H5.93224L6.09592 17.2555V17.0843L5.8463 16.9259H5.67188V16.2592H5.8463L6.09592 16.1008V15.9296L5.93224 15.8096H5.94675H6.17481V16.0508L6.25279 16.0013L6.33077 16.0508V15.8096H6.57335L6.40966 15.9296V16.1008L6.65928 16.2592H6.8337V16.9259H6.65928L6.40966 17.0843V17.2555L6.57335 17.3755H6.33077Z" fill="#383739"/>
<path d="M6.33844 15.8193V16.0683L6.25506 16.0154V16.0859L6.63667 16.3289H6.76232V16.5873H6.82222V16.2679H6.65429L6.39833 16.1058V15.925L6.54273 15.8193H6.33844H6.33844ZM5.67969 16.5967V16.9161H5.84643L6.10359 17.0793V17.2601L5.95915 17.3658H6.16349V17.1168L6.24566 17.1697V17.0969L5.86405 16.8562H5.73957V16.5967H5.67969L5.67969 16.5967Z" fill="#FFC72C"/>
<path d="M5.95915 15.8193L6.10359 15.925V16.1058L5.84643 16.2679H5.67969V16.5873H5.73957V16.3289H5.86405L6.24566 16.0871V16.0154L6.16349 16.0683V15.8193H5.95915L5.95915 15.8193ZM6.76232 16.5967V16.8562H6.63667L6.25505 17.0969V17.1697L6.33843 17.1168V17.3658H6.54273L6.39833 17.2601V17.0793L6.65429 16.9161H6.82221V16.5967H6.76232L6.76232 16.5967Z" fill="white"/>
<path d="M5.74417 16.8457H5.8625L6.2462 17.0891L6.62988 16.8457H6.74823V16.3377H6.63127H6.62988L6.2462 16.0942L5.8625 16.3377H5.74417V16.8457Z" fill="#D22630"/>
<path d="M6.51521 16.7118H6.59713V16.6731H6.53551V16.6026H6.66722V16.7823H6.54095L6.54096 16.9049H6.28104V16.7288H6.39543V16.7992H6.35112V16.8344H6.47088V16.7671L5.98401 16.4704H5.90209V16.5091H5.96373V16.5796H5.832V16.3999H5.95827V16.2773H5.96302H6.21819V16.4535H6.10379V16.383H6.1481V16.3478H6.02836V16.4151L6.51521 16.7118ZM6.47088 16.4151V16.3478H6.35112V16.383H6.39543V16.4535H6.28104V16.2773H6.54096V16.3999H6.66722V16.5796H6.53551V16.5091H6.59715V16.4704H6.51521L6.02836 16.7671V16.8344H6.1481V16.7992H6.10379V16.7287H6.21819V16.9049H5.95827V16.7823H5.832V16.6026H5.96373V16.6731H5.90209V16.7118H5.98401L6.47088 16.4151Z" fill="#383739"/>
<path d="M6.48261 16.762V16.8442H6.34385V16.79H6.38817V16.7385H6.29277V16.8957H6.53369V16.7731H6.65996V16.6124H6.54724V16.6638H6.60887V16.7216H6.51479L6.02109 16.4208V16.3386H6.15985V16.3928H6.11554V16.4443H6.21093V16.2871H5.97001V16.4097H5.84375V16.5704H5.95645V16.5189H5.89483V16.4612H5.98891L6.48261 16.762ZM6.51479 16.4612H6.60888V16.5189H6.54724V16.5704H6.65996V16.4097H6.5337V16.2871H6.29278V16.4443H6.38817V16.3928H6.34386V16.3386H6.48261V16.4208L5.98891 16.7216H5.89483V16.6638H5.95645V16.6124H5.84375V16.7731H5.97001V16.8957H6.21093V16.7385H6.11554V16.79H6.15985V16.8442H6.02109V16.762L6.51479 16.4612Z" fill="white"/>
<path d="M7.33666 16.6329V16.8936H7.2257V16.8015H7.11384V16.8936H7.00288V16.6329H7.11384V16.725H7.2257V16.6329H7.33666Z" fill="#383739"/>
<path d="M6.9396 16.9791V17.2398H6.82864V17.1477H6.71679V17.2398H6.60583V16.9791H6.71679V17.0712H6.82864V16.9791H6.9396Z" fill="#383739"/>
<path d="M7.33666 16.5493V16.2885H7.2257V16.3806H7.11384V16.2885H7.00288V16.5493H7.11384V16.4572H7.2257V16.5493H7.33666Z" fill="#383739"/>
<path d="M5.16209 16.6329V16.8936H5.27306V16.8015H5.38491V16.8936H5.49587V16.6329H5.38491V16.725H5.27306V16.6329H5.16209Z" fill="#383739"/>
<path d="M5.16209 16.5493V16.2885H5.27306V16.3806H5.38491V16.2885H5.49587V16.5493H5.38491V16.4572H5.27306V16.5493H5.16209Z" fill="#383739"/>
<path d="M6.9396 16.2031V15.9424H6.82864V16.0345H6.71679V15.9424H6.60583V16.2031H6.71679V16.111H6.82864V16.2031H6.9396Z" fill="#383739"/>
<path d="M5.55917 16.9791V17.2398H5.67013V17.1477H5.78198V17.2398H5.89294V16.9791H5.78198V17.0712H5.67013V16.9791H5.55917Z" fill="#383739"/>
<path d="M5.55917 16.2031V15.9424H5.67013V16.0345H5.78198V15.9424H5.89294V16.2031H5.78198V16.111H5.67013V16.2031H5.55917Z" fill="#383739"/>
<path d="M7.0058 16.0204V16.2184H7.37375L7.0058 16.0204Z" fill="#383739"/>
<path d="M5.49295 17.1618V16.9638H5.125L5.49295 17.1618Z" fill="#383739"/>
<path d="M5.49295 16.0204V16.2184H5.125L5.49295 16.0204Z" fill="#383739"/>
<path d="M7.0058 17.1618V16.9638H7.37375L7.0058 17.1618Z" fill="#383739"/>
<path d="M7.23545 16.7928V16.8849H7.32742V16.6432H7.23545V16.7352H7.10459V16.6432H7.01264V16.8849H7.10459V16.7928H7.23545Z" fill="#D22630"/>
<path d="M6.8384 17.139V17.2311H6.93036V16.9893H6.8384V17.0814H6.70754V16.9893H6.61559V17.2311H6.70754V17.139H6.8384Z" fill="#D22630"/>
<path d="M7.23545 16.3909V16.2988H7.32742V16.5405H7.23545V16.4484H7.10459V16.5405H7.01264V16.2988H7.10459V16.3909H7.23545Z" fill="#D22630"/>
<path d="M5.26383 16.7928V16.8849H5.17188V16.6432H5.26383V16.7352H5.39469V16.6432H5.48664V16.8849H5.39469V16.7928H5.26383Z" fill="#D22630"/>
<path d="M5.26383 16.3909V16.2988H5.17188V16.5405H5.26383V16.4484H5.39469V16.5405H5.48664V16.2988H5.39469V16.3909H5.26383Z" fill="#D22630"/>
<path d="M6.8384 16.0447V15.9526H6.93036V16.1944H6.8384V16.1023H6.70754V16.1944H6.61559V15.9526H6.70754V16.0447H6.8384Z" fill="#D22630"/>
<path d="M5.66088 17.139V17.2311H5.56893V16.9893H5.66088V17.0814H5.79174V16.9893H5.88371V17.2311H5.79174V17.139H5.66088Z" fill="#D22630"/>
<path d="M5.66088 16.0447V15.9526H5.56893V16.1944H5.66088V16.1023H5.79174V16.1944H5.88371V15.9526H5.79174V16.0447H5.66088Z" fill="#D22630"/>
<path d="M7.01699 16.0376V16.2102H7.33758L7.01699 16.0376ZM5.16408 16.9746L5.48464 17.1473V16.9746H5.16406H5.16408Z" fill="#FFC72C"/>
<path d="M5.48462 16.0376L5.16406 16.2102H5.48462V16.0376ZM7.01697 16.9746V17.1473L7.33756 16.9746H7.01697Z" fill="white"/>
<path d="M4.73776 17.319C4.75548 17.3946 4.81554 17.4516 4.82985 17.5299C4.8585 17.4483 4.88492 17.3798 4.86519 17.2904C4.85108 17.2265 4.79732 17.1809 4.79109 17.1152C4.73247 17.1679 4.71985 17.2427 4.73776 17.319ZM4.72291 17.6355C4.77263 17.7037 4.84174 17.756 4.91807 17.7909C4.90304 17.7312 4.93124 17.6862 4.96253 17.6388C5.00024 17.5817 5.01863 17.5257 4.98789 17.46C4.97356 17.4941 4.95431 17.5225 4.93173 17.5517C4.89833 17.5973 4.87637 17.6378 4.87122 17.6962C4.83259 17.6676 4.81562 17.6249 4.79496 17.5835C4.76348 17.5242 4.71266 17.4747 4.6543 17.4423C4.66981 17.5088 4.68175 17.5791 4.72291 17.6355ZM5.00176 17.8387C4.99113 17.8766 4.98197 17.9141 4.98402 17.9537C4.95116 17.9183 4.90753 17.8917 4.86861 17.8631C4.8156 17.8203 4.75382 17.79 4.71048 17.7354C4.71695 17.8158 4.75133 17.8813 4.81662 17.9302C4.88562 17.9818 4.96885 18.0096 5.03682 18.0638C5.02665 17.9908 5.05349 17.9322 5.07638 17.8651C5.09546 17.8009 5.07699 17.7357 5.03347 17.6868C5.03412 17.741 5.01702 17.7876 5.00176 17.8387ZM5.15663 18.0855C5.17093 18.141 5.21065 18.1861 5.23777 18.2355C5.16464 18.2128 5.10011 18.1732 5.034 18.1358C4.95526 18.093 4.86975 18.0657 4.79847 18.0091C4.83395 18.1404 4.92187 18.2165 5.0505 18.2554C5.13845 18.2819 5.21256 18.2687 5.31928 18.3118C5.30704 18.2396 5.28548 18.1616 5.25132 18.0965C5.22481 18.0493 5.19542 18.0029 5.17904 17.951C5.15533 17.9936 5.1441 18.037 5.15663 18.0855ZM5.42573 18.2865C5.45091 18.3297 5.48415 18.366 5.52538 18.3946C5.42156 18.4012 5.33801 18.3354 5.2368 18.3326C5.17428 18.3308 5.11493 18.3502 5.05117 18.3444C5.12683 18.3954 5.20604 18.44 5.29816 18.4519C5.4179 18.4674 5.52833 18.4373 5.66043 18.4491C5.59869 18.4055 5.56781 18.3472 5.52933 18.2845C5.47922 18.2062 5.43193 18.1504 5.33447 18.1378C5.37359 18.1817 5.39636 18.2362 5.42573 18.2865ZM5.79444 18.4588C5.61154 18.4899 5.43628 18.5302 5.24949 18.532C5.45858 18.6049 5.65559 18.6181 5.86296 18.5428C5.97502 18.5021 6.06095 18.4804 6.14559 18.4864C6.26928 18.4953 6.4196 18.5441 6.58596 18.7196L6.65135 18.6673C6.41291 18.4548 6.10094 18.4067 5.79445 18.4588L5.79444 18.4588Z" fill="#FFC72C"/>
<path d="M7.74739 17.319C7.72967 17.3946 7.66961 17.4516 7.6553 17.5299C7.62665 17.4483 7.60023 17.3798 7.61996 17.2904C7.63407 17.2265 7.68783 17.1809 7.69406 17.1152C7.75268 17.1679 7.7653 17.2427 7.74739 17.319ZM7.76224 17.6355C7.71252 17.7037 7.64341 17.756 7.56708 17.7909C7.58211 17.7312 7.55391 17.6862 7.52262 17.6388C7.48491 17.5817 7.46652 17.5257 7.49726 17.46C7.51159 17.4941 7.53084 17.5225 7.55342 17.5517C7.58682 17.5973 7.60878 17.6378 7.61393 17.6962C7.65256 17.6676 7.66953 17.6249 7.69019 17.5835C7.72167 17.5242 7.77249 17.4747 7.83085 17.4423C7.81534 17.5088 7.8034 17.5791 7.76224 17.6355ZM7.48339 17.8387C7.49402 17.8766 7.50318 17.9141 7.50113 17.9537C7.53399 17.9183 7.57762 17.8917 7.61654 17.8631C7.66955 17.8203 7.73133 17.79 7.77467 17.7354C7.7682 17.8158 7.73382 17.8813 7.66853 17.9302C7.59953 17.9818 7.5163 18.0096 7.44833 18.0638C7.4585 17.9908 7.43166 17.9322 7.40877 17.8651C7.38969 17.8009 7.40815 17.7357 7.45168 17.6868C7.45103 17.741 7.46813 17.7876 7.48339 17.8387ZM7.32852 18.0855C7.31422 18.141 7.2745 18.1861 7.24738 18.2355C7.32051 18.2128 7.38504 18.1732 7.45115 18.1358C7.52989 18.093 7.61539 18.0657 7.68668 18.0091C7.6512 18.1404 7.56328 18.2165 7.43465 18.2554C7.3467 18.2819 7.27259 18.2687 7.16587 18.3118C7.17811 18.2396 7.19967 18.1616 7.23383 18.0965C7.26034 18.0493 7.28973 18.0029 7.30611 17.951C7.32982 17.9936 7.34105 18.037 7.32852 18.0855ZM7.05942 18.2865C7.03424 18.3297 7.00099 18.366 6.95977 18.3946C7.06359 18.4012 7.14714 18.3354 7.24835 18.3326C7.31087 18.3308 7.37022 18.3502 7.43397 18.3444C7.35832 18.3954 7.2791 18.44 7.18699 18.4519C7.06725 18.4674 6.95682 18.4373 6.82472 18.4491C6.88646 18.4055 6.91734 18.3472 6.95582 18.2845C7.00593 18.2062 7.05322 18.1504 7.15068 18.1378C7.11156 18.1817 7.08879 18.2362 7.05942 18.2865ZM6.69071 18.4588C6.87361 18.4899 7.04887 18.5302 7.23566 18.532C7.02657 18.6049 6.82956 18.6181 6.62219 18.5428C6.51013 18.5021 6.4242 18.4804 6.33956 18.4864C6.21587 18.4953 6.06555 18.5441 5.89919 18.7196L5.8338 18.6673C6.07223 18.4548 6.38421 18.4067 6.6907 18.4588L6.69071 18.4588Z" fill="#FFC72C"/>
</g>
<defs>
<clipPath id="clip0_1692_54043">
<rect x="2.04883" y="5.55225" width="19.9495" height="13.2997" rx="1" fill="white"/>
</clipPath>
</defs>
</svg>
