<svg width="25" height="25" viewBox="0 0 25 25" fill="none" xmlns="http://www.w3.org/2000/svg">
<g clip-path="url(#clip0_1692_53998)">
<path d="M22.0234 7.20312H2.02734V17.2012H22.0234V7.20312Z" fill="#012169"/>
<path fill-rule="evenodd" clip-rule="evenodd" d="M5.90856 9.70264L2.02734 7.76203L2.02735 7.20312H3.14517L7.02638 9.14373L10.9076 7.20313L12.0254 7.20312L12.249 7.65025L8.14419 9.70264L12.249 11.755L11.8018 12.6493L7.02638 10.2615L2.25091 12.6493L2.02735 12.2021L2.02734 11.6432L5.90856 9.70264Z" fill="white"/>
<path fill-rule="evenodd" clip-rule="evenodd" d="M6.28117 9.70264L2.02734 7.57572L2.02736 7.20312H2.77257L7.02638 9.33003L11.2802 7.20313L12.0254 7.20312L12.1745 7.50121L7.7716 9.70264L12.1745 11.9041L11.8764 12.5002L7.02638 10.0752L2.1764 12.5002L2.02736 12.2021L2.02734 11.8296L6.28117 9.70264Z" fill="#C8102E"/>
<path fill-rule="evenodd" clip-rule="evenodd" d="M6.1932 8.86947V7.20312H7.85954V8.86947H12.8586V10.5358H7.85954V13.0353H6.1932V10.5358H2.02734V8.86947H6.1932Z" fill="white"/>
<path fill-rule="evenodd" clip-rule="evenodd" d="M6.52647 9.20273V7.20312H7.52627V9.20273H12.8586V10.2025H7.52627V13.0353H6.52647V10.2025H2.02734V9.20273H6.52647Z" fill="#C8102E"/>
<path d="M2.02734 12.2021H12.0254V7.20312H22.0234V17.2012H2.02734V12.2021Z" fill="#009CDE"/>
<path d="M12.7839 15.3836L13.2744 16.8933L11.9902 15.9603H13.5776L12.2934 16.8933L12.7839 15.3836Z" fill="#FEDD00"/>
<path d="M15.652 14.9352L15.1615 16.4448L14.671 14.9352L15.9552 15.8682L14.3678 15.8682L15.652 14.9352Z" fill="#FEDD00"/>
<path d="M15.652 12.9025L15.1615 14.4122L14.671 12.9025L15.9552 13.8355L14.3678 13.8355L15.652 12.9025Z" fill="#FEDD00"/>
<path d="M17.7517 14.4214L17.2612 15.9311L16.7707 14.4214L18.0549 15.3544L16.4675 15.3545L17.7517 14.4214Z" fill="#FEDD00"/>
<path d="M17.7517 9.99873L17.2612 11.5084L16.7707 9.99873L18.0549 10.9317L16.4675 10.9318L17.7517 9.99873Z" fill="#FEDD00"/>
<path d="M18.6344 12.8683L19.125 14.378L17.8408 13.445H19.4281L18.1439 14.378L18.6344 12.8683Z" fill="#FEDD00"/>
<path d="M19.5163 9.39562L19.0258 10.9053L18.5353 9.39562L19.8195 10.3286L18.2321 10.3287L19.5163 9.39562Z" fill="#FEDD00"/>
<path d="M20.4073 11.727L20.8978 13.2367L19.6137 12.3037H21.201L19.9168 13.2367L20.4073 11.727Z" fill="#FEDD00"/>
<path d="M20.4073 7.82666L20.8978 9.33632L19.6137 8.4033H21.201L19.9168 9.33633L20.4073 7.82666Z" fill="#FEDD00"/>
</g>
<defs>
<clipPath id="clip0_1692_53998">
<rect x="2.02344" y="7.20215" width="20" height="10" rx="1" fill="white"/>
</clipPath>
</defs>
</svg>
