<svg width="24" height="24" viewBox="0 0 24 24" fill="none" xmlns="http://www.w3.org/2000/svg">
<path d="M14.0008 21H10.0008M18.0008 8C18.0008 6.4087 17.3686 4.88258 16.2434 3.75736C15.1182 2.63214 13.5921 2 12.0008 2C10.4095 2 8.88333 2.63214 7.75811 3.75736C6.63289 4.88258 6.00075 6.4087 6.00075 8C6.00075 11.0902 5.22122 13.206 4.35042 14.6054C3.61588 15.7859 3.24861 16.3761 3.26208 16.5408C3.27699 16.7231 3.31561 16.7926 3.46253 16.9016C3.59521 17 4.19334 17 5.38961 17H18.6119C19.8082 17 20.4063 17 20.539 16.9016C20.6859 16.7926 20.7245 16.7231 20.7394 16.5408C20.7529 16.3761 20.3856 15.7859 19.6511 14.6054C18.7803 13.206 18.0008 11.0902 18.0008 8Z" stroke="#1C1D20" stroke-width="1.5" stroke-linecap="round" stroke-linejoin="round"/>
</svg>
