<svg width="25" height="25" viewBox="0 0 25 25" fill="none" xmlns="http://www.w3.org/2000/svg">
<g clip-path="url(#clip0_1692_54087)">
<path d="M22.0003 5.46338H2.05078V18.7631H22.0003V5.46338Z" fill="#012169"/>
<mask id="mask0_1692_54087" style="mask-type:alpha" maskUnits="userSpaceOnUse" x="2" y="5" width="11" height="6">
<path d="M2.04688 5.46387H12.0216V10.4512H2.04688V5.46387Z" fill="white"/>
</mask>
<g mask="url(#mask0_1692_54087)">
<path d="M2.04883 5.46387L12.0236 10.4512L2.04883 5.46387ZM2.04883 10.4512L12.0236 5.46387L2.04883 10.4512Z" fill="black"/>
<path fill-rule="evenodd" clip-rule="evenodd" d="M5.91748 7.95735L1.82227 5.90975L2.26835 5.01758L7.03269 7.39975L11.797 5.01758L12.2431 5.90975L8.1479 7.95735L12.2431 10.005L11.797 10.8971L7.03269 8.51496L2.26835 10.8971L1.82227 10.005L5.91748 7.95735Z" fill="white"/>
</g>
<mask id="mask1_1692_54087" style="mask-type:alpha" maskUnits="userSpaceOnUse" x="2" y="5" width="11" height="6">
<path d="M2.04688 5.46387L7.03425 7.95756H2.04688V5.46387ZM7.03425 5.46387H12.0216L7.03425 7.95756V5.46387ZM7.03425 7.95756H12.0216V10.4512L7.03425 7.95756ZM7.03425 7.95756V10.4512H2.04688L7.03425 7.95756Z" fill="white"/>
</mask>
<g mask="url(#mask1_1692_54087)">
<path fill-rule="evenodd" clip-rule="evenodd" d="M6.28713 7.95661L1.89453 5.76031L2.19192 5.16553L7.03061 7.58487L11.8693 5.16553L12.1667 5.76031L7.77408 7.95661L12.1667 10.1529L11.8693 10.7477L7.03061 8.32834L2.19192 10.7477L1.89453 10.1529L6.28713 7.95661Z" fill="#C8102E"/>
</g>
<path fill-rule="evenodd" clip-rule="evenodd" d="M7.86744 8.78879V10.4512H6.20498V8.78879H2.04883V7.12633H6.20498V5.46387H7.86744V7.12633H12.0236V8.78879H7.86744Z" fill="white"/>
<path fill-rule="evenodd" clip-rule="evenodd" d="M7.53495 8.45629V10.4512H6.53747V8.45629H2.04883V7.45882H6.53747V5.46387H7.53495V7.45882H12.0236V8.45629H7.53495Z" fill="#C8102E"/>
<path d="M16.8325 8.92344H16.2559L16.7224 9.26239L16.7775 9.09292L16.8325 8.92344Z" fill="white"/>
<path d="M17.0107 8.92344H17.1889L17.0107 8.375L16.8325 8.92344H17.0107Z" fill="white"/>
<path d="M17.1549 9.36714L17.2991 9.26239L17.244 9.09292L17.1889 8.92344H17.0107H16.8325L16.7775 9.09292L16.7224 9.26239L16.8666 9.36714L17.0107 9.47188L17.1549 9.36714Z" fill="white"/>
<path d="M16.7224 9.26239L16.5442 9.81084L17.0107 9.47188L16.8666 9.36714L16.7224 9.26239Z" fill="white"/>
<path d="M17.2991 9.26239L17.1549 9.36714L17.0107 9.47188L17.4773 9.81084L17.2991 9.26239Z" fill="white"/>
<path d="M17.1889 8.92344L17.244 9.09292L17.2991 9.26239L17.7656 8.92344H17.1889Z" fill="white"/>
<path d="M17.3227 9.59235L17.2049 9.22994L17.5132 9.00596H17.1321L17.0144 8.64355L16.8966 9.00596H16.5156L16.8238 9.22994L16.7061 9.59235L17.0144 9.36836L17.3227 9.59235Z" fill="#C8102E"/>
<path d="M18.8237 10.6667L18.3105 10.6667L18.7257 10.9684L18.7747 10.8176L18.8237 10.6667Z" fill="white"/>
<path d="M19.1409 10.6667L18.9823 10.6667L18.8237 10.6667L18.7747 10.8176L18.7257 10.9684L18.854 11.0616L18.9823 11.1548L19.1106 11.0616L19.2389 10.9684L19.1899 10.8176L19.1409 10.6667Z" fill="white"/>
<path d="M18.9823 10.1787L18.8237 10.6667L18.9823 10.6667L19.1409 10.6667L18.9823 10.1787Z" fill="white"/>
<path d="M19.1899 10.8176L19.2389 10.9684L19.654 10.6667L19.1409 10.6667L19.1899 10.8176Z" fill="white"/>
<path d="M18.7257 10.9684L18.5671 11.4564L18.9823 11.1548L18.854 11.0616L18.7257 10.9684Z" fill="white"/>
<path d="M19.1106 11.0616L18.9823 11.1548L19.3974 11.4564L19.2389 10.9684L19.1106 11.0616Z" fill="white"/>
<path d="M18.884 10.7502L18.5664 10.7502L18.8233 10.9369L18.8536 10.8436L18.884 10.7502Z" fill="#C8102E"/>
<path d="M19.0802 10.7502L18.9821 10.7502L18.884 10.7502L18.8536 10.8436L18.8233 10.9369L18.9027 10.9946L18.9821 11.0523L19.0615 10.9946L19.1409 10.9369L19.1105 10.8436L19.0802 10.7502Z" fill="#C8102E"/>
<path d="M18.9821 10.4482L18.884 10.7502L18.9821 10.7502L19.0802 10.7502L18.9821 10.4482Z" fill="#C8102E"/>
<path d="M19.1105 10.8436L19.1409 10.9369L19.3978 10.7502L19.0802 10.7502L19.1105 10.8436Z" fill="#C8102E"/>
<path d="M19.0615 10.9946L18.9821 11.0523L19.239 11.2389L19.1409 10.9369L19.0615 10.9946Z" fill="#C8102E"/>
<path d="M18.8233 10.9369L18.7252 11.2389L18.9821 11.0523L18.9027 10.9946L18.8233 10.9369Z" fill="#C8102E"/>
<path d="M14.5278 11.2433L13.9512 11.2433L14.4177 11.5822L14.4728 11.4127L14.5278 11.2433Z" fill="white"/>
<path d="M14.8842 11.2433L14.706 11.2433L14.5278 11.2433L14.4728 11.4127L14.4177 11.5822L14.5619 11.687L14.706 11.7917L14.8502 11.687L14.9944 11.5822L14.9393 11.4127L14.8842 11.2433Z" fill="white"/>
<path d="M14.4177 11.5822L14.2395 12.1307L14.706 11.7917L14.5619 11.687L14.4177 11.5822Z" fill="white"/>
<path d="M14.8502 11.687L14.706 11.7917L15.1726 12.1307L14.9944 11.5822L14.8502 11.687Z" fill="white"/>
<path d="M14.9393 11.4127L14.9944 11.5822L15.4609 11.2433L14.8842 11.2433L14.9393 11.4127Z" fill="white"/>
<path d="M14.706 10.6948L14.5278 11.2433L14.706 11.2433L14.8842 11.2433L14.706 10.6948Z" fill="white"/>
<path d="M14.8236 11.3268L14.7058 11.3268L14.5881 11.3268L14.5517 11.4388L14.5153 11.5507L14.6106 11.62L14.7058 11.6892L14.8011 11.62L14.8964 11.5507L14.86 11.4388L14.8236 11.3268Z" fill="#C8102E"/>
<path d="M14.5517 11.4388L14.5881 11.3268L14.207 11.3268L14.5153 11.5507L14.5517 11.4388Z" fill="#C8102E"/>
<path d="M14.7058 11.3268L14.8236 11.3268L14.7058 10.9644L14.5881 11.3268L14.7058 11.3268Z" fill="#C8102E"/>
<path d="M14.86 11.4388L14.8964 11.5507L15.2046 11.3268L14.8236 11.3268L14.86 11.4388Z" fill="#C8102E"/>
<path d="M14.6106 11.62L14.5153 11.5507L14.3976 11.9131L14.7058 11.6892L14.6106 11.62Z" fill="#C8102E"/>
<path d="M14.8011 11.62L14.7058 11.6892L15.0141 11.9131L14.8964 11.5507L14.8011 11.62Z" fill="#C8102E"/>
<path d="M17.5297 15.8664L17.3319 15.2576L17.8498 14.8813H17.2097L17.0118 14.2725L16.814 14.8813H16.1738L16.6917 15.2576L16.4939 15.8664L17.0118 15.4901L17.5297 15.8664Z" fill="white"/>
<path d="M16.6558 15.6479L16.7932 15.2251L16.4335 14.9638H16.8781L17.0155 14.541L17.1529 14.9638H17.5974L17.2378 15.2251L17.3751 15.6479L17.0155 15.3866L16.6558 15.6479Z" fill="#C8102E"/>
</g>
<defs>
<clipPath id="clip0_1692_54087">
<rect x="2.04883" y="5.46338" width="19.9495" height="13.2997" rx="1" fill="white"/>
</clipPath>
</defs>
</svg>
