<svg width="25" height="25" viewBox="0 0 25 25" fill="none" xmlns="http://www.w3.org/2000/svg">
<g clip-path="url(#clip0_1692_54018)">
<path d="M12.0255 5.46338H22.0003V18.7631H2.05078V12.1132V5.46338H12.0255Z" fill="#FEDD00"/>
<path d="M13.1358 5.46338H2.05273V11.0049H13.1358V5.46338Z" fill="#012169"/>
<path fill-rule="evenodd" clip-rule="evenodd" d="M6.35513 8.23415L2.05276 6.08297L2.05273 5.46339H3.29185L7.59424 7.61459L11.8967 5.46338L13.1358 5.46339V6.08295L8.83336 8.23415L13.1358 10.3853V11.0049L11.8966 11.0049L7.59424 8.85371L3.29185 11.0049H2.05273L2.05276 10.3853L6.35513 8.23415Z" fill="white"/>
<path fill-rule="evenodd" clip-rule="evenodd" d="M6.76816 8.23413L2.05275 5.87643L2.05273 5.46338H2.87881L7.59424 7.82109L12.3097 5.46338L13.1358 5.46338V5.87642L8.42032 8.23413L13.1358 10.5918V11.0049L12.3045 11.0023L7.59424 8.64717L2.87881 11.0049H2.05273L2.05275 10.5918L6.76816 8.23413Z" fill="#C8102E"/>
<path fill-rule="evenodd" clip-rule="evenodd" d="M6.67066 7.31055V5.46338H8.51783V7.31055H13.1358V9.15772H8.51783V11.0049H6.67066V9.15772H2.05273V7.31055H6.67066Z" fill="white"/>
<path fill-rule="evenodd" clip-rule="evenodd" d="M7.04009 7.67998V5.46338H8.1484V7.67998H13.1358V8.78829H8.1484V11.0049H7.04009V8.78829H2.05273V7.67998H7.04009Z" fill="#C8102E"/>
<path d="M7.59535 9.17684C8.1161 9.17684 8.53826 8.75468 8.53826 8.23393C8.53826 7.71317 8.1161 7.29102 7.59535 7.29102C7.07459 7.29102 6.65244 7.71317 6.65244 8.23393C6.65244 8.75468 7.07459 9.17684 7.59535 9.17684Z" fill="#012169"/>
<path d="M7.59412 7.29102L8.14835 8.99676L6.69736 7.94255H8.49088L7.03989 8.99676" fill="#FEDD00"/>
<path d="M4.36687 7.73389L4.69259 8.73636L3.83984 8.1168H4.8939L4.04115 8.73636" fill="#FEDD00"/>
<path d="M10.832 7.73389L11.1577 8.73636L10.3049 8.1168H11.359L10.5062 8.73636" fill="#FEDD00"/>
<path d="M7.59942 9.58106L7.92514 10.5835L7.07239 9.96397H8.12645L7.2737 10.5835" fill="#FEDD00"/>
<path d="M7.59942 5.88672L7.92514 6.88919L7.07239 6.26963H8.12645L7.2737 6.88919" fill="#FEDD00"/>
</g>
<defs>
<clipPath id="clip0_1692_54018">
<rect x="2.05078" y="5.46338" width="19.9495" height="13.2997" rx="1" fill="white"/>
</clipPath>
</defs>
</svg>
