<svg width="25" height="25" viewBox="0 0 25 25" fill="none" xmlns="http://www.w3.org/2000/svg">
<g clip-path="url(#clip0_1692_54057)">
<path d="M2.04883 5.46338H21.9983V18.7631H2.04883V5.46338Z" fill="#D82126"/>
<path d="M2.04883 11.1157V13.1107L10.2511 12.2905C10.2453 12.2322 10.2424 12.173 10.2424 12.1132C10.2424 12.0534 10.2453 11.9943 10.2511 11.936L2.04883 11.1157Z" fill="#F8E92E"/>
<path d="M10.4028 12.8531L2.04883 18.7631H5.04126L10.6097 13.1967C10.5285 13.0909 10.4589 12.9757 10.4028 12.8531Z" fill="#F8E92E"/>
<path d="M11.8445 13.8855C11.9034 13.8914 11.9631 13.8944 12.0236 13.8944C12.084 13.8944 12.1438 13.8914 12.2027 13.8855L13.0211 18.7631H11.0261L11.8445 13.8855Z" fill="#F8E92E"/>
<path d="M13.4374 13.1967C13.5187 13.0909 13.5883 12.9757 13.6443 12.8531L21.9983 18.7631H19.0059L13.4374 13.1967Z" fill="#F8E92E"/>
<path d="M13.7961 12.2905L21.9983 13.1107V11.1157L13.7961 11.936C13.8018 11.9943 13.8048 12.0534 13.8048 12.1132C13.8048 12.173 13.8018 12.2322 13.7961 12.2905Z" fill="#F8E92E"/>
<path d="M13.6443 11.3733L21.9983 5.46338H19.0059L13.4375 11.0297C13.5187 11.1355 13.5883 11.2507 13.6443 11.3733Z" fill="#F8E92E"/>
<path d="M10.6097 11.0297C10.5285 11.1355 10.4589 11.2507 10.4028 11.3733L2.04883 5.46338H5.04126L10.6097 11.0297Z" fill="#F8E92E"/>
<path d="M12.2027 10.3409C12.1438 10.335 12.084 10.332 12.0236 10.332C11.9631 10.332 11.9034 10.335 11.8445 10.3409L11.0261 5.46338H13.0211L12.2027 10.3409Z" fill="#F8E92E"/>
<path d="M12.0236 13.5382C12.8106 13.5382 13.4486 12.9002 13.4486 12.1132C13.4486 11.3262 12.8106 10.6882 12.0236 10.6882C11.2366 10.6882 10.5986 11.3262 10.5986 12.1132C10.5986 12.9002 11.2366 13.5382 12.0236 13.5382Z" fill="#F8E92E"/>
</g>
<defs>
<clipPath id="clip0_1692_54057">
<rect x="2.04883" y="5.46338" width="19.9495" height="13.2997" rx="1" fill="white"/>
</clipPath>
</defs>
</svg>
