<svg width="25" height="25" viewBox="0 0 25 25" fill="none" xmlns="http://www.w3.org/2000/svg">
<g clip-path="url(#clip0_1692_54104)">
<path d="M2.04688 5.42383H21.9964V18.7235H2.04688V5.42383Z" fill="#006400"/>
<path d="M2.04688 7.32422H21.9964V16.824H2.04688V7.32422Z" fill="#FFD200"/>
<path d="M2.04688 9.22363H21.9964V14.9235H2.04688V9.22363Z" fill="#D40000"/>
<path d="M2.04688 11.123H21.9964V13.023H2.04688V11.123Z" fill="black"/>
<path fill-rule="evenodd" clip-rule="evenodd" d="M11.4411 12.0737L2.58871 5.42383H2.04688V18.7235H2.57464L11.4411 12.0737Z" fill="black"/>
<path d="M2.04688 5.42383V18.7235L10.9133 12.0737L2.04688 5.42383Z" fill="white"/>
<path d="M5.42394 8.73047L7.18039 14.1361L2.58203 10.7953H8.26588L3.66755 14.1361L5.42394 8.73047Z" fill="#D40000"/>
<path fill-rule="evenodd" clip-rule="evenodd" d="M5.26786 9.98084C5.20507 9.90893 5.1121 9.87074 5.01688 9.87778C4.92166 9.8848 4.83531 9.93624 4.78376 10.0166C4.72909 10.0153 4.67441 10.0193 4.62052 10.0285C4.57011 10.0372 4.52639 10.0683 4.50166 10.1131C4.47691 10.1579 4.47389 10.2115 4.49339 10.2587L4.67759 10.2478C4.75305 10.2904 4.80069 10.3694 4.80316 10.456L4.82392 11.188C4.78833 11.2615 4.77035 11.3423 4.77138 11.424C4.77264 11.5223 4.78044 11.6204 4.79477 11.7178C4.80915 11.8155 4.77702 11.9143 4.70792 11.9848C4.60082 12.0942 4.5077 12.2164 4.43069 12.3487C4.37156 12.4503 4.38197 12.578 4.45678 12.6687L4.66666 13.4807H6.24188L6.3293 12.7917C6.36641 12.4992 6.5332 12.239 6.78347 12.0831L6.84546 12.1007C6.8871 12.1125 6.93127 12.0932 6.95088 12.0546C6.97048 12.016 6.96003 11.9689 6.92592 11.9422L5.43582 10.777L5.39665 10.2866C5.38762 10.1735 5.34246 10.0663 5.26786 9.98084Z" fill="#FFD200"/>
<path d="M5.24924 9.99396L5.24801 9.99256L5.27819 9.96587L5.27943 9.96727L5.24924 9.99396ZM5.24801 9.99256C5.23987 9.98334 5.23099 9.97458 5.22166 9.96643L5.24822 9.93607C5.25865 9.94518 5.26872 9.95516 5.27819 9.96587L5.24801 9.99256ZM5.24825 9.93601V9.93607L5.23497 9.95126L5.24825 9.93601ZM5.22169 9.96651C5.21234 9.95837 5.20256 9.95091 5.19259 9.94428L5.21488 9.91062C5.22662 9.91842 5.23779 9.92691 5.24825 9.93601L5.22169 9.96651ZM5.19259 9.94428C5.14083 9.90988 5.07839 9.8931 5.01481 9.89778L5.01196 9.85732C5.08432 9.85198 5.15562 9.87124 5.21488 9.91062L5.19259 9.94428ZM5.01481 9.89778L5.01295 9.89795L5.01011 9.85749L5.01196 9.85732L5.01481 9.89778ZM5.00995 9.85746H5.01012L5.01154 9.87768L5.00995 9.85746ZM5.01311 9.89792C5.00022 9.89892 4.98796 9.90071 4.97646 9.90317L4.96807 9.86367C4.98225 9.86065 4.99628 9.85853 5.00995 9.85746L5.01311 9.89792ZM4.97646 9.90317C4.96447 9.90571 4.95266 9.90908 4.9412 9.91314L4.92776 9.87507C4.94085 9.87044 4.95436 9.86661 4.96807 9.86367L4.97646 9.90317ZM4.9412 9.91314C4.88256 9.9339 4.83162 9.97373 4.79726 10.0273L4.76328 10.0055C4.80252 9.94431 4.86072 9.89878 4.92776 9.87507L4.9412 9.91314ZM4.79726 10.0273L4.77979 10.0366L4.78027 10.0164L4.79726 10.0273ZM4.77979 10.0366C4.77782 10.0366 4.77578 10.0365 4.77438 10.0365L4.77487 9.99606C4.77726 9.99608 4.77907 9.99614 4.78079 9.99614L4.77982 10.0366L4.77979 10.0366ZM4.77438 10.0365H4.7743L4.77462 10.0163L4.77438 10.0365ZM4.7743 10.0365C4.76687 10.0364 4.7594 10.0363 4.75206 10.0364L4.75174 9.99597C4.75949 9.99591 4.76731 9.99593 4.77495 9.99606L4.7743 10.0365ZM4.75206 10.0364C4.74504 10.0365 4.73756 10.0367 4.7299 10.0369L4.72849 9.99646C4.73591 9.99622 4.74369 9.99597 4.75174 9.99597L4.75206 10.0364ZM4.7299 10.0369C4.69305 10.0382 4.6564 10.042 4.62045 10.0482L4.61365 10.0084C4.65181 10.0018 4.69023 9.99783 4.72849 9.99646L4.7299 10.0369ZM4.62045 10.0482L4.61964 10.0484L4.61285 10.0086L4.61365 10.0084L4.62045 10.0482ZM4.61276 10.0085H4.61284L4.61624 10.0284L4.61276 10.0085ZM4.61973 10.0484C4.6134 10.0495 4.60727 10.051 4.60147 10.0528L4.58965 10.0142C4.5973 10.0118 4.60507 10.0099 4.61276 10.0085L4.61973 10.0484ZM4.60147 10.0528C4.59576 10.0545 4.58994 10.0568 4.58419 10.0594L4.56758 10.0226C4.57455 10.0194 4.58191 10.0166 4.58965 10.0142L4.60147 10.0528ZM4.56751 10.0226H4.56758L4.57587 10.041L4.56751 10.0226ZM4.58425 10.0594C4.55556 10.0724 4.5314 10.0945 4.51589 10.1226L4.48048 10.1031C4.50027 10.0672 4.53102 10.0391 4.56751 10.0226L4.58425 10.0594ZM4.48041 10.1033L4.48048 10.1031L4.49818 10.1129L4.48041 10.1033ZM4.51596 10.1224L4.51486 10.1245L4.47931 10.1053L4.48041 10.1033L4.51596 10.1224ZM4.47931 10.1054L4.47931 10.1053L4.49708 10.1149L4.47931 10.1054ZM4.51486 10.1244C4.51206 10.1296 4.50945 10.1353 4.50715 10.1414L4.46941 10.127C4.47206 10.12 4.47544 10.1127 4.47931 10.1054L4.51486 10.1244ZM4.46941 10.1271V10.127L4.48827 10.1342L4.46941 10.1271ZM4.50715 10.1413C4.50495 10.1471 4.50307 10.1531 4.5016 10.1591L4.46243 10.1494C4.46429 10.1419 4.46665 10.1344 4.46941 10.1271L4.50715 10.1413ZM4.46243 10.1495V10.1494L4.48202 10.1542L4.46243 10.1495ZM4.5016 10.159C4.4942 10.1892 4.49645 10.2214 4.50855 10.2508L4.47126 10.2661C4.45587 10.2288 4.45303 10.1879 4.46243 10.1495L4.5016 10.159ZM4.4911 10.2787L4.47126 10.2661L4.48991 10.2585L4.4911 10.2787ZM4.48871 10.2383L4.67291 10.2273L4.6753 10.2678L4.4911 10.2787L4.48871 10.2383ZM4.67291 10.2273L4.6839 10.23L4.67411 10.2476L4.67291 10.2273ZM4.6839 10.23C4.68665 10.2315 4.68785 10.2322 4.68855 10.2326L4.66796 10.2674C4.66591 10.2662 4.66426 10.2652 4.66426 10.2652L4.68385 10.23L4.6839 10.23ZM4.68855 10.2326C4.69967 10.2392 4.71032 10.2466 4.72031 10.2546L4.69505 10.2861C4.68662 10.2793 4.67757 10.273 4.66801 10.2674L4.68855 10.2326ZM4.72031 10.2546C4.73027 10.2626 4.73967 10.2714 4.7483 10.2807L4.71876 10.3082C4.71146 10.3003 4.70351 10.2929 4.69505 10.2861L4.72031 10.2546ZM4.7483 10.2807C4.79196 10.3276 4.81804 10.3894 4.81991 10.4552L4.77946 10.4563C4.77788 10.4004 4.75577 10.3479 4.71876 10.3082L4.7483 10.2807ZM4.81991 10.4552L4.84067 11.1872L4.80021 11.1883L4.77946 10.4563L4.81991 10.4552ZM4.84067 11.1872L4.83861 11.1965L4.82044 11.1877L4.84067 11.1872ZM4.83861 11.1965C4.83744 11.1989 4.83579 11.2024 4.83414 11.206L4.79749 11.1891C4.79881 11.1862 4.80031 11.183 4.80228 11.179L4.83861 11.1965ZM4.79749 11.1892V11.1891L4.81581 11.1976L4.79749 11.1892ZM4.83414 11.206C4.82969 11.2157 4.82546 11.2257 4.82152 11.236L4.78391 11.2214C4.78801 11.2108 4.79256 11.2 4.79749 11.1892L4.83414 11.206ZM4.78384 11.2215L4.78391 11.2214L4.8027 11.2287L4.78384 11.2215ZM4.82159 11.2359C4.81771 11.246 4.81416 11.2563 4.81095 11.2665L4.77237 11.2545C4.77584 11.2435 4.77966 11.2324 4.78384 11.2215L4.82159 11.2359ZM4.81095 11.2665C4.79521 11.3171 4.78746 11.3701 4.78813 11.4235L4.74767 11.424C4.74695 11.3665 4.75534 11.3093 4.77237 11.2546L4.81095 11.2666V11.2665ZM4.78813 11.4235C4.78815 11.4269 4.78821 11.4304 4.78829 11.4342L4.74784 11.4348C4.7478 11.4314 4.74776 11.4277 4.74767 11.424L4.78813 11.4235V11.4235ZM4.78829 11.4342C4.78854 11.4473 4.78886 11.4608 4.78939 11.4746L4.74894 11.476C4.74846 11.4627 4.74807 11.4489 4.74784 11.4348L4.78829 11.4342ZM4.78939 11.4746C4.7898 11.4875 4.79048 11.501 4.79125 11.5151L4.7508 11.5173C4.75007 11.5041 4.74944 11.4903 4.74894 11.476L4.78939 11.4746ZM4.79125 11.5151C4.79493 11.5822 4.80162 11.6488 4.81129 11.7146L4.7713 11.7204C4.76135 11.6527 4.75449 11.5849 4.7508 11.5173L4.79125 11.5151ZM4.81129 11.7146L4.81146 11.7156L4.77147 11.7214L4.7713 11.7204L4.81129 11.7146ZM4.81146 11.7156V11.7156L4.79147 11.7185L4.81146 11.7156ZM4.81146 11.7156C4.81357 11.7303 4.81472 11.7449 4.81491 11.7592L4.77445 11.7597C4.77428 11.7469 4.77328 11.734 4.77147 11.7213L4.81146 11.7156V11.7156ZM4.81491 11.7592C4.81508 11.7735 4.81434 11.788 4.81266 11.8024L4.77252 11.7978C4.77395 11.7854 4.77461 11.7726 4.77445 11.7597L4.81491 11.7592V11.7592ZM4.81266 11.8024C4.80413 11.8756 4.77161 11.9449 4.71886 11.9988L4.69011 11.9705C4.73645 11.9231 4.76502 11.8622 4.77252 11.7978L4.81266 11.8024ZM4.71886 11.9988L4.7188 11.9989L4.70449 11.9846L4.71886 11.9988ZM4.7188 11.9989C4.71823 11.9995 4.72221 11.9944 4.72114 11.996L4.68747 11.9736C4.68864 11.9718 4.68944 11.971 4.69017 11.9703L4.7188 11.9989ZM4.72114 11.996L4.71868 11.999L4.7043 11.9848L4.72114 11.996ZM4.71868 11.999C4.70481 12.0131 4.69025 12.0286 4.67509 12.0452L4.64522 12.0178C4.65891 12.0028 4.67382 11.9871 4.68992 11.9707L4.71868 11.999ZM4.64522 12.0179V12.0178L4.66015 12.0315L4.64522 12.0179ZM4.67509 12.0451C4.66048 12.0611 4.6464 12.077 4.633 12.0927L4.60236 12.0665C4.6167 12.0497 4.63103 12.0334 4.64522 12.0179L4.67509 12.0451ZM4.60227 12.0665H4.60236L4.61768 12.0796L4.60227 12.0665ZM4.6331 12.0927C4.56246 12.1757 4.49935 12.2647 4.4447 12.3586L4.4098 12.3384C4.46594 12.2419 4.5304 12.1509 4.60227 12.0665L4.6331 12.0927ZM4.4097 12.3384H4.4098L4.42724 12.3485L4.4097 12.3384ZM4.44479 12.3586L4.44398 12.36L4.40889 12.3397L4.4097 12.3384L4.44479 12.3586ZM4.44398 12.36C4.43625 12.3734 4.42989 12.3871 4.42492 12.4008L4.38699 12.387C4.39295 12.3706 4.40027 12.3547 4.40889 12.3397L4.44398 12.36ZM4.42492 12.4008C4.41983 12.4148 4.41595 12.4292 4.41339 12.4435L4.37371 12.4364C4.37672 12.4196 4.38117 12.4031 4.38699 12.387L4.42492 12.4008ZM4.41339 12.4435C4.40006 12.5175 4.41914 12.5954 4.46888 12.6557L4.43774 12.6813C4.38036 12.6117 4.35834 12.5218 4.37371 12.4364L4.41339 12.4435ZM4.46888 12.6557L4.47283 12.6634L4.45332 12.6685L4.46888 12.6557ZM4.47283 12.6634L4.68272 13.4755L4.64368 13.4856L4.43379 12.6735L4.47283 12.6634ZM4.66319 13.5007L4.64368 13.4856L4.66319 13.4805V13.5007ZM4.66319 13.4603H6.23841V13.5007H4.66319V13.4603ZM6.2584 13.483L6.23841 13.5007V13.4805L6.2584 13.483ZM6.21841 13.478L6.30583 12.789L6.34582 12.794L6.2584 13.483L6.21841 13.478ZM6.3459 12.794L6.34582 12.794L6.32583 12.7915L6.3459 12.794ZM6.30576 12.7891C6.30608 12.7866 6.3052 12.794 6.306 12.7878L6.346 12.7931C6.34527 12.7985 6.34633 12.7908 6.34594 12.794L6.3058 12.7891H6.30576ZM6.34596 12.793V12.793L6.32596 12.7904L6.34596 12.793ZM6.30596 12.7879C6.31134 12.7459 6.31929 12.7047 6.32959 12.6648L6.36876 12.6747C6.35871 12.7137 6.35103 12.7532 6.34596 12.793L6.30596 12.7879ZM6.32959 12.6648C6.34 12.6244 6.35289 12.5849 6.36805 12.5466L6.40566 12.5615C6.39107 12.5984 6.37869 12.6362 6.36876 12.6747L6.32959 12.6648ZM6.36805 12.5466C6.44606 12.3495 6.58569 12.1801 6.76933 12.0657L6.79066 12.1C6.61449 12.2098 6.48054 12.3723 6.40566 12.5615L6.36805 12.5466ZM6.76933 12.0657L6.78545 12.0634L6.78 12.0829L6.76933 12.0657ZM6.78545 12.0634L6.84744 12.081L6.83653 12.1199L6.77454 12.1023L6.78545 12.0634ZM6.84744 12.081H6.8475L6.84198 12.1005L6.84744 12.081ZM6.8475 12.081L6.84799 12.0812L6.83694 12.1201L6.83645 12.1199L6.8475 12.081ZM6.83709 12.1201H6.83692L6.84245 12.1006L6.83709 12.1201ZM6.84782 12.0812C6.85199 12.0823 6.8566 12.0831 6.86149 12.0834L6.85851 12.1239C6.85174 12.1234 6.84452 12.1221 6.83709 12.1201L6.84782 12.0812ZM6.86149 12.0834C6.86628 12.0837 6.87084 12.0837 6.87502 12.0832L6.87974 12.1233C6.87254 12.1242 6.86539 12.1244 6.85851 12.1239L6.86149 12.0834ZM6.87502 12.0832C6.89777 12.0805 6.9185 12.0667 6.92937 12.0453L6.96543 12.0634C6.94824 12.0973 6.91557 12.119 6.87974 12.1233L6.87502 12.0832ZM6.96549 12.0634L6.96543 12.0634L6.9474 12.0544L6.96549 12.0634ZM6.9293 12.0453L6.92955 12.0449L6.96574 12.0629L6.96549 12.0634L6.9293 12.0453ZM6.92955 12.0449C6.93171 12.0405 6.9334 12.0361 6.93457 12.0319L6.97347 12.0426C6.97154 12.0496 6.96895 12.0565 6.96574 12.0629L6.92955 12.0449ZM6.97353 12.0425L6.97347 12.0426L6.95402 12.0372L6.97353 12.0425ZM6.9345 12.0319C6.93562 12.0277 6.93641 12.0233 6.93675 12.0186L6.97721 12.0216C6.97672 12.0284 6.97544 12.0355 6.97353 12.0425L6.9345 12.0319ZM6.97721 12.0215V12.0216L6.95697 12.0201L6.97721 12.0215ZM6.93675 12.0187C6.93845 11.9957 6.92891 11.9727 6.91003 11.9579L6.93485 11.9261C6.96473 11.9495 6.97985 11.9856 6.97721 12.0215L6.93675 12.0187ZM6.91003 11.9579L5.41993 10.7927L5.44474 10.7609L6.93485 11.9261L6.91003 11.9579ZM5.41993 10.7927L5.4121 10.7784L5.43233 10.7768L5.41993 10.7927ZM5.4121 10.7784L5.37294 10.288L5.41339 10.2848L5.45256 10.7752L5.4121 10.7784ZM5.37294 10.288L5.37277 10.2863L5.41322 10.2831L5.41339 10.2848L5.37294 10.288ZM5.41325 10.283V10.2831L5.39303 10.2847L5.41325 10.283ZM5.3728 10.2863C5.37149 10.2704 5.36957 10.2553 5.36709 10.2411L5.4069 10.2343C5.40982 10.251 5.41197 10.2674 5.41325 10.283L5.3728 10.2863ZM5.36709 10.2411C5.36452 10.2262 5.36122 10.2114 5.3573 10.1968L5.39633 10.1864C5.40055 10.2021 5.40408 10.2181 5.4069 10.2343L5.36709 10.2411ZM5.3573 10.1968C5.3373 10.1222 5.30044 10.0526 5.24919 9.9939L5.27955 9.96734C5.33494 10.0308 5.37475 10.1059 5.39633 10.1864" fill="black"/>
<path d="M5.2603 11.3114C5.26013 11.3118 5.26063 11.3106 5.26006 11.3122L5.22135 11.3005C5.22152 11.2999 5.22167 11.2996 5.2222 11.2982L5.26027 11.3114L5.2603 11.3114ZM5.26006 11.3122L5.25989 11.3127L5.2407 11.3064L5.26006 11.3122ZM5.25989 11.3127C5.25627 11.3236 5.25334 11.3344 5.25113 11.3449L5.21164 11.3367C5.21428 11.3241 5.21758 11.3118 5.2215 11.3L5.25989 11.3127ZM5.25113 11.3449C5.24884 11.3559 5.24717 11.3669 5.24615 11.3777L5.20603 11.374C5.20719 11.3614 5.2091 11.3489 5.21164 11.3367L5.25113 11.3449ZM5.24615 11.3777C5.24088 11.4337 5.25189 11.4907 5.27856 11.5414L5.24283 11.5602C5.21251 11.5026 5.20004 11.4378 5.20603 11.374L5.24615 11.3777ZM5.27856 11.5414L5.27881 11.5418L5.24308 11.5606L5.24283 11.5602L5.27856 11.5414ZM5.27881 11.5418C5.28403 11.5517 5.28984 11.5613 5.2961 11.5704L5.26276 11.5932C5.25562 11.5828 5.24902 11.5719 5.24308 11.5606L5.27881 11.5418ZM5.2961 11.5704C5.30241 11.5797 5.30922 11.5885 5.31633 11.5967L5.28582 11.6231C5.27757 11.6135 5.26979 11.6035 5.26276 11.5932L5.2961 11.5704ZM5.31633 11.5967C5.35334 11.6395 5.40239 11.6711 5.4578 11.6868L5.44688 11.7257C5.38387 11.7078 5.32802 11.6719 5.28582 11.6231" fill="black"/>
<path d="M5.44367 10.7935L4.83198 11.2115L4.80923 11.1781L5.42093 10.7601" fill="black"/>
<path d="M5.08688 10.1305V10.1303H5.12733V10.1305H5.08688ZM5.08688 10.1303C5.08686 10.1138 5.08014 10.0988 5.06934 10.088L5.09778 10.0594C5.11598 10.0776 5.12729 10.1027 5.12733 10.1303H5.08688ZM5.06934 10.088C5.05856 10.0772 5.04358 10.0705 5.02712 10.0705L5.02729 10.03C5.05476 10.0301 5.07971 10.0413 5.09781 10.0594L5.06937 10.088H5.06934ZM5.02718 10.03H5.02724L5.02718 10.0502V10.03ZM5.02718 10.0705H5.02686V10.03H5.02718V10.0705ZM5.02686 10.0705H5.02669V10.03H5.02686V10.0705ZM5.02669 10.0705C5.01015 10.0705 4.99514 10.0772 4.98435 10.088L4.95574 10.0596C4.97392 10.0414 4.99904 10.03 5.02669 10.03V10.0705ZM4.98435 10.088C4.9736 10.0988 4.96686 10.1138 4.96681 10.1302L4.92636 10.1301C4.92645 10.1026 4.93769 10.0776 4.95574 10.0595L4.98435 10.088V10.088ZM4.92636 10.1302V10.1301L4.94659 10.1302H4.92636ZM4.96681 10.1302V10.1305H4.92636V10.1302H4.96681ZM4.96681 10.1305V10.1306H4.92636V10.1305H4.96681ZM4.96681 10.1306C4.96683 10.1472 4.97355 10.1622 4.98435 10.173L4.95592 10.2016C4.93771 10.1834 4.9264 10.1583 4.92636 10.1306H4.96681ZM4.98435 10.173C4.99514 10.1837 5.01011 10.1905 5.02658 10.1905L5.02641 10.231C4.99891 10.2309 4.97396 10.2197 4.95588 10.2016L4.98432 10.173H4.98435ZM5.0265 10.231H5.02644L5.0265 10.2108V10.231ZM5.0265 10.1905H5.02683V10.231H5.0265V10.1905ZM5.02683 10.1905H5.02699V10.231H5.02683V10.1905ZM5.02699 10.1905C5.04355 10.1905 5.05855 10.1838 5.06933 10.173L5.09795 10.2014C5.07976 10.2196 5.05463 10.2309 5.02699 10.231V10.1905ZM5.06933 10.173C5.08008 10.1622 5.08682 10.1472 5.08687 10.1308L5.12732 10.1309C5.12724 10.1584 5.116 10.1834 5.09795 10.2014L5.06933 10.173V10.173ZM5.12732 10.1308V10.1309L5.1071 10.1308H5.12732ZM5.08687 10.1308L5.08688 10.1305H5.12733L5.12732 10.1308" fill="black"/>
<path d="M4.94476 12.0465L4.94619 12.0458L4.96421 12.082L4.96279 12.0827L4.94476 12.0465ZM4.96428 12.0819L4.96421 12.082L4.9552 12.0639L4.96428 12.0819ZM4.94612 12.0459C4.96268 12.0375 4.97832 12.0279 4.99277 12.0172L5.01679 12.0496C5.00038 12.0617 4.98279 12.0726 4.96428 12.0819L4.94612 12.0459ZM4.99277 12.0172C5.00725 12.0064 5.02081 11.9945 5.03319 11.9816L5.06227 12.0096C5.04842 12.024 5.03319 12.0374 5.01679 12.0496L4.99277 12.0172ZM5.03319 11.9816C5.09652 11.9158 5.13024 11.8244 5.12202 11.7298L5.16247 11.7263C5.17173 11.8326 5.13369 11.9353 5.06227 12.0096" fill="black"/>
<path d="M5.22232 11.6195L5.2209 11.6202L5.20288 11.584L5.20429 11.5833L5.22232 11.6195ZM5.20272 11.5841L5.20288 11.584L5.2119 11.6021L5.20272 11.5841ZM5.22107 11.6201C5.21531 11.6231 5.21003 11.6263 5.20542 11.6298L5.18125 11.5976C5.18815 11.5924 5.19535 11.5878 5.20272 11.5841L5.22107 11.6201ZM5.20542 11.6298C5.2006 11.6334 5.19604 11.6375 5.19189 11.6418L5.16268 11.6141C5.16829 11.6082 5.17455 11.6026 5.18125 11.5976L5.20542 11.6298ZM5.19189 11.6418C5.17088 11.6639 5.15972 11.6945 5.16247 11.7263L5.12202 11.7298C5.11825 11.6865 5.13369 11.6445 5.16268 11.6141" fill="black"/>
<path d="M5.44945 12.2131L5.44913 12.2132L5.43413 12.1758L5.43446 12.1756L5.44945 12.2131ZM5.44913 12.2132C5.42829 12.2216 5.40664 12.2305 5.38451 12.2397L5.36901 12.2024C5.38999 12.1937 5.41171 12.1848 5.43413 12.1758L5.44913 12.2132ZM5.38451 12.2397C5.36293 12.2486 5.34142 12.2577 5.32007 12.2668L5.30424 12.2296C5.32582 12.2204 5.34747 12.2113 5.36901 12.2024L5.38451 12.2397ZM5.32007 12.2668C5.21014 12.3137 5.10124 12.3636 4.99354 12.4163L4.97584 12.38C5.08379 12.3271 5.19332 12.277 5.30424 12.2296" fill="black"/>
<path d="M5.43468 12.1755L5.43541 12.1753L5.44995 12.2129L5.44922 12.2131L5.43468 12.1755ZM5.45026 12.2128L5.44993 12.2129L5.44267 12.1941L5.45026 12.2128ZM5.43507 12.1753C5.45808 12.166 5.48007 12.1552 5.50082 12.1431L5.52105 12.178C5.49832 12.1913 5.47463 12.2029 5.45026 12.2128L5.43507 12.1753ZM5.50082 12.1431C5.52135 12.1312 5.5413 12.1175 5.56045 12.1024L5.58558 12.1342C5.56558 12.15 5.54401 12.1647 5.52105 12.178L5.50082 12.1431ZM5.56045 12.1024C5.65723 12.026 5.72472 11.9162 5.74747 11.792L5.78714 11.7992C5.76258 11.9334 5.68984 12.0519 5.58558 12.1342" fill="black"/>
<path d="M5.23574 12.2611H6.55025V12.3016H5.23574" fill="black"/>
<path d="M5.51848 12.5278V12.5277H5.55893V12.5278H5.51848ZM5.51848 12.5277C5.51846 12.4913 5.50359 12.4582 5.4797 12.4343L5.50832 12.4057C5.53951 12.4369 5.55889 12.48 5.55893 12.5277H5.51848ZM5.50823 12.4057H5.50832L5.49401 12.42L5.50823 12.4057ZM5.47979 12.4343C5.45594 12.4105 5.42299 12.3957 5.38664 12.3956V12.3552C5.43409 12.3553 5.47709 12.3746 5.50823 12.4057L5.47979 12.4343ZM5.38664 12.3956H5.38632V12.3552H5.38664V12.3956ZM5.38632 12.3956H5.38615V12.3552H5.38632V12.3956ZM5.38615 12.3956C5.34966 12.3956 5.31662 12.4104 5.2928 12.4343L5.26417 12.4059C5.29541 12.3746 5.33859 12.3552 5.38615 12.3552V12.3956ZM5.2928 12.4343C5.26899 12.4582 5.2542 12.4911 5.25412 12.5275H5.21367C5.21376 12.48 5.23307 12.437 5.26417 12.4059L5.2928 12.4343ZM5.25412 12.5275V12.5278H5.21367V12.5275H5.25412ZM5.25412 12.5278V12.528H5.21367V12.5278H5.25412ZM5.25412 12.528C5.25414 12.5645 5.26896 12.5975 5.29281 12.6214L5.26437 12.65C5.2331 12.6187 5.21372 12.5755 5.21367 12.528H5.25412ZM5.29281 12.6214C5.31665 12.6452 5.34962 12.6599 5.38597 12.66V12.7005C5.33852 12.7004 5.2955 12.6811 5.26437 12.65L5.29281 12.6214ZM5.38597 12.66H5.38629V12.7005H5.38597V12.66ZM5.38629 12.66H5.38646V12.7005H5.38629V12.66ZM5.38646 12.66C5.42286 12.66 5.45593 12.6451 5.47983 12.6212L5.50845 12.6499C5.47725 12.681 5.43407 12.7004 5.38646 12.7005V12.66ZM5.50845 12.6498V12.6499L5.49414 12.6355L5.50845 12.6498ZM5.47983 12.6213C5.50363 12.5975 5.51842 12.5645 5.51849 12.5282H5.55894C5.55886 12.5756 5.53954 12.6186 5.50845 12.6498L5.47983 12.6213ZM5.51849 12.5282L5.51848 12.5278H5.55893L5.55894 12.5282" fill="black"/>
<path d="M6.12491 12.5278V12.5277H6.16536V12.5278H6.12491ZM6.12491 12.5277C6.12489 12.4913 6.11002 12.4582 6.08612 12.4343L6.11475 12.4057C6.14593 12.4369 6.16531 12.48 6.16536 12.5277H6.12491ZM6.11466 12.4057H6.11475L6.10043 12.42L6.11466 12.4057ZM6.08622 12.4343C6.06237 12.4105 6.02941 12.3957 5.99306 12.3956V12.3552C6.04051 12.3553 6.08351 12.3746 6.11466 12.4057L6.08622 12.4343ZM5.99306 12.3956H5.99274V12.3552H5.99306V12.3956ZM5.99274 12.3956H5.99257V12.3552H5.99274V12.3956ZM5.99257 12.3956C5.95608 12.3956 5.92301 12.4105 5.89918 12.4343L5.87057 12.4059C5.90182 12.3746 5.94498 12.3552 5.99257 12.3552V12.3956ZM5.89918 12.4343C5.87538 12.4582 5.86058 12.4911 5.86052 12.5275H5.82007C5.82015 12.48 5.83947 12.437 5.87057 12.4059L5.89918 12.4343ZM5.86052 12.5275V12.5278H5.82007V12.5275H5.86052ZM5.86052 12.5278V12.528H5.82007V12.5278H5.86052ZM5.86052 12.528C5.86054 12.5645 5.87535 12.5975 5.8992 12.6214L5.87077 12.65C5.83949 12.6187 5.82011 12.5755 5.82007 12.528H5.86052ZM5.8992 12.6214C5.92305 12.6452 5.95601 12.6599 5.99238 12.66V12.7005C5.94491 12.7004 5.90191 12.6811 5.87077 12.65L5.8992 12.6214ZM5.99238 12.66H5.9927V12.7005H5.99238V12.66ZM5.9927 12.66H5.99287V12.7005H5.9927V12.66ZM5.99287 12.66C6.02926 12.66 6.06234 12.6451 6.08623 12.6212L6.11485 12.6499C6.08366 12.681 6.04048 12.7004 5.99287 12.7005V12.66ZM6.11485 12.6498V12.6499L6.10054 12.6355L6.11485 12.6498ZM6.08623 12.6213C6.11004 12.5975 6.12483 12.5645 6.1249 12.5282H6.16535C6.16527 12.5756 6.14595 12.6186 6.11485 12.6498L6.08623 12.6213ZM6.1249 12.5282L6.12491 12.5278H6.16536L6.16535 12.5282" fill="black"/>
<path d="M5.68323 11.9891C5.69037 11.9912 5.6975 11.9933 5.70456 11.9952L5.69415 12.0342C5.68663 12.0322 5.67906 12.03 5.67168 12.0278L5.68323 11.9891ZM5.70456 11.9952C5.71578 11.9982 5.72658 12.0009 5.73685 12.0032L5.728 12.0425C5.71621 12.0399 5.70488 12.0371 5.69415 12.0342L5.70456 11.9952ZM5.73685 12.0032C5.74772 12.0056 5.75859 12.0079 5.76942 12.0099L5.76217 12.0495C5.75071 12.0474 5.73926 12.0451 5.728 12.0425L5.73685 12.0032ZM5.76942 12.0099C5.82012 12.0192 5.87197 12.0237 5.92408 12.0234L5.92425 12.0639C5.8701 12.0642 5.8158 12.0594 5.7622 12.0495" fill="black"/>
<path d="M5.92408 12.0234C5.93123 12.0234 5.93809 12.023 5.9444 12.0224L5.94852 12.0625C5.94013 12.0634 5.93199 12.0638 5.92422 12.0639L5.92405 12.0234L5.92408 12.0234ZM5.9444 12.0224H5.94448L5.94645 12.0425L5.9444 12.0224ZM5.94448 12.0224C5.95588 12.0213 5.96723 12.0192 5.97831 12.0163L5.98858 12.0553C5.97563 12.0587 5.96217 12.0612 5.94843 12.0625L5.94448 12.0224ZM5.97831 12.0163C5.9892 12.0134 5.99998 12.0096 6.01035 12.005L6.02663 12.042C6.01448 12.0474 6.0017 12.0518 5.98858 12.0553L5.97831 12.0163ZM6.01035 12.005C6.05924 11.9835 6.09958 11.9442 6.12183 11.8934L6.15879 11.9095C6.13238 11.9698 6.08456 12.0164 6.02663 12.042" fill="black"/>
<path d="M6.77449 12.1023L5.44691 11.7257L5.45782 11.6868L6.7854 12.0634" fill="black"/>
<path d="M4.47998 12.7516H6.32848V12.7921H4.47998" fill="black"/>
<path d="M4.90669 13.1533H6.2773V13.1938H4.90669" fill="black"/>
<path d="M4.85229 10.2573L4.67525 10.2678L4.67287 10.2273L4.84991 10.2168" fill="black"/>
<path d="M4.96247 12.0829L4.9619 12.0831L4.94452 12.0466L4.94509 12.0464L4.96247 12.0829ZM4.94419 12.0468L4.94451 12.0466L4.9532 12.0649L4.94419 12.0468ZM4.96222 12.083C4.92784 12.1002 4.89575 12.1203 4.86629 12.1428L4.84179 12.1108C4.87347 12.0866 4.9077 12.065 4.94419 12.0468L4.96222 12.083ZM4.86629 12.1428C4.83679 12.1654 4.80964 12.1906 4.7851 12.2179L4.75506 12.1909C4.78111 12.1619 4.81014 12.135 4.84179 12.1108L4.86629 12.1428ZM4.7851 12.2179C4.65929 12.358 4.60368 12.5534 4.64601 12.7459L4.60653 12.7545C4.56132 12.5491 4.62074 12.3405 4.75506 12.1909" fill="black"/>
<path d="M4.99352 12.4163L4.99104 12.4175L4.97334 12.3812L4.97582 12.38L4.99352 12.4163ZM4.97318 12.3813L4.97334 12.3812L4.9822 12.3994L4.97318 12.3813ZM4.9912 12.4175C4.97395 12.4261 4.95765 12.436 4.94249 12.447L4.91878 12.4143C4.93579 12.402 4.954 12.3909 4.97318 12.3813L4.9912 12.4175ZM4.94249 12.447C4.92722 12.4581 4.913 12.4704 4.90004 12.4835L4.87129 12.4552C4.88594 12.4403 4.90185 12.4266 4.91878 12.4143L4.94249 12.447ZM4.90004 12.4835C4.83333 12.551 4.79607 12.6447 4.80098 12.7431L4.76052 12.745C4.75504 12.6353 4.7967 12.5307 4.87129 12.4552" fill="black"/>
<path d="M4.51911 12.5566C4.52196 12.5664 4.5253 12.5761 4.52904 12.5856L4.49144 12.6003C4.48735 12.5899 4.48434 12.5648 4.4811 12.5538L4.51911 12.5566ZM4.52904 12.5856C4.53276 12.5952 4.53691 12.6046 4.54136 12.6136L4.50517 12.6314C4.50015 12.6212 4.49551 12.6108 4.49144 12.6003L4.52904 12.5856ZM4.54136 12.6136C4.5644 12.6603 4.59766 12.7017 4.63887 12.7344L4.61374 12.766C4.56789 12.7296 4.53085 12.6835 4.50517 12.6314" fill="black"/>
<path d="M4.51807 12.5699L4.47174 12.6765L4.43478 12.6604L4.4811 12.5538" fill="black"/>
<path d="M4.64436 12.7591L4.6085 12.7405L4.61374 12.766L4.64436 12.7591ZM4.6085 12.7405C4.6135 12.7309 4.61822 12.7216 4.62267 12.7126L4.659 12.7303C4.65411 12.7402 4.64921 12.7499 4.64436 12.7591L4.6085 12.7405ZM4.62267 12.7126C4.62795 12.7018 4.63251 12.6923 4.63618 12.6843L4.67283 12.701C4.66769 12.7122 4.66306 12.722 4.659 12.7303L4.62267 12.7126ZM4.63618 12.6843C4.65847 12.6358 4.67762 12.5856 4.69345 12.5343L4.73201 12.5461C4.71576 12.5989 4.69596 12.6507 4.67283 12.701" fill="black"/>
<path d="M4.69429 12.5483L4.69345 12.5343L4.73125 12.5321L4.69429 12.5483ZM4.76093 12.748L4.80028 12.7389L4.80101 12.7431L4.76093 12.748ZM4.76093 12.748C4.75845 12.7375 4.75604 12.7278 4.75384 12.7193L4.79288 12.7091C4.79572 12.72 4.7982 12.7299 4.80028 12.7389L4.76093 12.748ZM4.75384 12.7193C4.75174 12.7112 4.74908 12.7017 4.74593 12.6907L4.78483 12.6797C4.78721 12.6879 4.78992 12.6978 4.79288 12.7091L4.75384 12.7193ZM4.78474 12.6796L4.78483 12.6797L4.76537 12.6852L4.78474 12.6796ZM4.74603 12.6908C4.73204 12.6425 4.71472 12.5948 4.69429 12.5483L4.73125 12.5321C4.75224 12.5798 4.77013 12.6291 4.78474 12.6796" fill="black"/>
<path d="M4.88647 13.4805V13.1736H4.92692V13.4805" fill="black"/>
<path d="M4.88757 13.1801L4.7501 12.7783L4.78836 12.7653L4.92582 13.1671" fill="black"/>
<path d="M5.54744 13.0164L5.38372 13.1775L5.35542 13.1487L5.51914 12.9877" fill="black"/>
<path d="M5.24828 12.9877L5.41202 13.1487L5.38372 13.1775L5.21998 13.0164" fill="black"/>
<path d="M5.27658 13.0164L5.11284 13.1775L5.08454 13.1487L5.24828 12.9877" fill="black"/>
<path d="M4.97739 12.9877L5.14114 13.1487L5.11284 13.1775L4.94909 13.0164" fill="black"/>
<path d="M5.81833 13.0164L5.65459 13.1775L5.62629 13.1487L5.79003 12.9877" fill="black"/>
<path d="M5.51914 12.9877L5.68289 13.1487L5.65459 13.1775L5.49084 13.0164" fill="black"/>
<path d="M6.08922 13.0164L5.92548 13.1775L5.89718 13.1487L6.06092 12.9877" fill="black"/>
<path d="M5.79003 12.9877L5.95378 13.1487L5.92548 13.1775L5.76173 13.0164" fill="black"/>
<path d="M6.30651 13.0691L6.19636 13.1775L6.16806 13.1487L6.27821 13.0404" fill="black"/>
<path d="M6.06092 12.9877L6.22466 13.1487L6.19636 13.1775L6.03262 13.0164" fill="black"/>
<path d="M5.54744 12.8112L5.38373 12.9722L5.35543 12.9435L5.51914 12.7824" fill="black"/>
<path d="M5.24828 12.7824L5.41203 12.9435L5.38373 12.9722L5.21998 12.8112" fill="black"/>
<path d="M5.27658 12.8112L5.11284 12.9722L5.08454 12.9435L5.24828 12.7824" fill="black"/>
<path d="M4.97763 12.7822L5.14114 12.9435L5.11284 12.9722L4.94933 12.811" fill="black"/>
<path d="M5.81833 12.8112L5.65459 12.9722L5.62629 12.9435L5.79003 12.7824" fill="black"/>
<path d="M5.51914 12.7824L5.68289 12.9435L5.65459 12.9722L5.49084 12.8112" fill="black"/>
<path d="M6.08922 12.8112L5.92548 12.9722L5.89718 12.9435L6.06092 12.7824" fill="black"/>
<path d="M5.79003 12.7824L5.95378 12.9435L5.92548 12.9722L5.76173 12.8112" fill="black"/>
<path d="M6.33628 12.8346L6.19636 12.9722L6.16806 12.9435L6.30798 12.8059" fill="black"/>
<path d="M6.06092 12.7824L6.22466 12.9435L6.19636 12.9722L6.03262 12.8112" fill="black"/>
<path d="M5.00569 13.0164L4.8983 13.122L4.87 13.0933L4.97739 12.9877" fill="black"/>
<path d="M5.00593 12.811L4.84576 12.9685L4.81746 12.9397L4.97763 12.7822" fill="black"/>
</g>
<defs>
<clipPath id="clip0_1692_54104">
<rect x="2.04688" y="5.42383" width="19.9495" height="13.2997" rx="1" fill="white"/>
</clipPath>
</defs>
</svg>
