<svg width="24" height="25" viewBox="0 0 24 25" fill="none" xmlns="http://www.w3.org/2000/svg">
<g clip-path="url(#clip0_1692_54035)">
<path d="M2.02539 5.72119H21.9749V19.0209H2.02539V5.72119Z" fill="#CE1126"/>
<path d="M2.02539 9.0459H21.9749V15.6957H2.02539V9.0459Z" fill="white"/>
<path d="M10.7582 12.039V11.847L11.2437 12.053L10.7582 12.039Z" fill="#FF9C10"/>
<path d="M10.7582 11.7511V11.4312C10.7582 11.4312 10.7015 11.4392 10.7096 11.3752C10.7123 11.2419 11.0649 11.6185 11.2457 11.7411L11.2417 11.997L10.7582 11.7511Z" fill="#FF9C10"/>
<path d="M10.1672 12.8388V12.207L9.00195 12.1514L9.14765 12.831L10.1672 12.8388Z" fill="#FF9C10"/>
<path d="M10.1834 12.063L10.1753 11.6151L9.11524 11.1993L9.09902 11.959L10.1834 12.063Z" fill="#FF9C10"/>
<path d="M10.1511 11.4634L10.2701 11.3406C10.2701 11.3406 10.1934 11.2884 10.1972 11.2404C10.1987 11.1918 10.2743 11.1845 10.2758 11.1318C10.2772 11.0832 10.1901 11.0773 10.1891 11.0287C10.1834 10.9761 10.2563 10.9196 10.2563 10.9196L9.5037 10.2718L9.31755 11.0636L10.1511 11.4634Z" fill="#FF9C10"/>
<path d="M13.7116 12.8388L13.7035 12.223L14.8849 12.135L14.7878 12.8388L13.7116 12.8388Z" fill="#FF9C10"/>
<path d="M14.8141 11.9494C14.8005 11.8494 14.7863 11.7497 14.7631 11.6516C14.7321 11.5204 14.6925 11.3912 14.6444 11.2654C14.6409 11.2561 14.6356 11.2476 14.6319 11.2383L13.7117 11.6235L13.72 12.0795L14.8141 11.9494Z" fill="#FF9C10"/>
<path d="M14.1852 10.469C14.0016 10.6078 13.818 10.7466 13.6345 10.8854C13.6354 10.9252 13.6751 10.9558 13.6861 10.994C13.7115 11.0475 13.6609 11.0948 13.6297 11.1326C13.6043 11.1675 13.659 11.1853 13.6771 11.2059C13.7171 11.2469 13.6823 11.3112 13.6397 11.3351C13.691 11.3658 13.7169 11.4232 13.7282 11.4798C14.003 11.3368 14.2778 11.1938 14.5527 11.0509C14.454 10.8432 14.3311 10.6467 14.1852 10.469Z" fill="#FF9C10"/>
<path d="M13.113 12.047L13.1211 11.863L12.6518 12.067L13.113 12.047Z" fill="#FF9C10"/>
<path d="M12.6495 11.7591C12.6495 11.7591 13.0864 11.3693 13.1795 11.2973C13.1795 11.3773 13.1289 11.4392 13.1289 11.4392V11.7431L12.6515 11.967L12.6495 11.7591Z" fill="#FF9C10"/>
<path d="M9.81957 10.2158L10.3099 10.7535C10.3234 10.7033 10.4346 10.6956 10.5478 10.7036C10.6612 10.7116 10.7515 10.6961 10.7515 10.7761C10.7515 10.8561 10.694 10.8447 10.694 10.9007C10.694 10.9567 10.7801 10.952 10.7801 11.0239C10.7801 11.0959 10.7177 11.0812 10.7173 11.1369C10.7171 11.183 10.7825 11.1855 10.7825 11.1855L11.2417 11.6253L11.2437 11.1555L10.297 9.688L9.81957 10.2158Z" fill="#FF9C10"/>
<path d="M10.5771 9.66014L11.2184 10.9562C11.2184 10.9562 11.2256 9.75984 11.3336 9.69575L11.1535 9.36816L10.5771 9.66014Z" fill="#FF9C10"/>
<path d="M12.6468 9.52256C12.567 9.79843 12.4872 10.0743 12.4074 10.3502C12.482 10.3591 12.5574 10.3615 12.6324 10.3573C12.6999 10.3631 12.6473 10.4263 12.6509 10.4637C12.6506 10.6334 12.6503 10.8031 12.6499 10.9727C12.8755 10.5743 13.101 10.176 13.3266 9.7776C13.171 9.6964 13.0059 9.63608 12.8397 9.58088C12.7763 9.55851 12.7119 9.53914 12.6468 9.52256Z" fill="#FF9C10"/>
<path d="M13.4889 9.86834L12.652 11.155L12.6509 11.6506C12.8373 11.4733 13.0246 11.2969 13.2104 11.119C13.2456 11.0691 13.0984 11.0446 13.172 10.9838C13.2387 10.9628 13.25 10.8551 13.1798 10.8344C13.122 10.7495 13.2321 10.7045 13.3015 10.7138C13.3981 10.7182 13.4976 10.6928 13.5921 10.7196C13.6441 10.7694 13.6921 10.6445 13.7431 10.6164C13.844 10.5149 13.9451 10.4134 14.0449 10.3108C13.8804 10.1394 13.6926 9.9905 13.4889 9.86834Z" fill="#FF9C10"/>
<path fill-rule="evenodd" clip-rule="evenodd" d="M11.3536 14.8296C11.3561 14.8296 11.3584 14.8297 11.3602 14.8297C11.5165 14.8297 11.6167 14.8911 11.7008 14.9516C11.7113 14.9591 11.7214 14.9665 11.7313 14.9737C11.8021 15.0255 11.8593 15.0674 11.9379 15.0744C12.0256 15.0823 12.1083 15.0332 12.2101 14.9713L12.212 14.9702C12.3093 14.911 12.4212 14.8429 12.5561 14.838C12.6899 14.8332 12.8379 14.8861 12.9495 14.9377C13.0059 14.9638 13.0542 14.9901 13.0885 15.01C13.1056 15.0199 13.1193 15.0282 13.1287 15.0341C13.1334 15.037 13.1371 15.0393 13.1396 15.0409C13.1408 15.0417 13.1418 15.0424 13.1425 15.0428L13.1432 15.0433L13.1435 15.0435C13.1435 15.0435 13.1436 15.0435 13.1247 15.0721L13.1436 15.0435L13.202 15.0821L12.4751 15.3271L12.4724 15.3275C12.4224 15.3358 12.3715 15.3431 12.3201 15.3496L12.318 15.3499H12.3078C11.9986 15.3499 11.6861 15.3499 11.3733 15.2973L11.3726 15.2972L11.372 15.2971C11.1737 15.2562 10.9872 15.1965 10.8124 15.12L10.7596 15.0969L10.8052 15.0617C10.9017 14.987 11.114 14.842 11.3312 14.8297C11.3386 14.8293 11.347 14.8294 11.3536 14.8296Z" fill="#083D9C"/>
<path d="M13.1736 14.326C13.0764 14.3239 13.0079 14.333 12.9554 14.3494C12.9023 14.3659 12.8673 14.3893 12.8369 14.4125L12.8183 14.4269C12.7961 14.4444 12.7764 14.4598 12.7498 14.4734C12.7171 14.4902 12.6733 14.5043 12.6039 14.51C12.4675 14.5212 12.3832 14.4808 12.2967 14.4356C12.2926 14.4334 12.2884 14.4312 12.2842 14.429C12.2004 14.385 12.1105 14.3379 11.9744 14.3419C11.8344 14.3461 11.7244 14.3903 11.6268 14.4325L11.6224 14.4344L11.606 14.4415C11.5159 14.4807 11.4382 14.5145 11.351 14.5179C11.2589 14.5215 11.1509 14.4756 11.0399 14.4248C11.0332 14.4217 11.0265 14.4187 11.0198 14.4156L11.0198 14.4156L10.881 14.3557C10.8608 14.3482 10.8407 14.3415 10.8208 14.3364C10.7914 14.3288 10.7626 14.3246 10.7356 14.326C10.6926 14.3282 10.6257 14.3455 10.5528 14.3683C10.4788 14.3914 10.3949 14.4214 10.3163 14.451C10.2376 14.4806 10.1637 14.5099 10.1096 14.5318C10.0825 14.5428 10.0603 14.5519 10.0449 14.5583C10.0372 14.5615 10.0312 14.564 10.0271 14.5657L10.0224 14.5677L9.97454 14.5879L10.1258 14.726L13.9516 14.7424L13.9003 14.6879L13.9 14.6876L13.8992 14.6868C13.8985 14.686 13.8975 14.685 13.8962 14.6837C13.8936 14.681 13.8898 14.6771 13.8848 14.6723C13.8749 14.6625 13.8604 14.6487 13.8418 14.6321C13.8047 14.5991 13.7513 14.5549 13.6856 14.5104C13.5549 14.422 13.3728 14.3302 13.1736 14.326Z" fill="#083D9C"/>
<path d="M10.1546 13.8539C10.0991 13.8539 10.0373 13.8742 9.97739 13.9016C9.91683 13.9292 9.85475 13.9655 9.79783 14.0007L9.73436 14.0405C9.70212 14.0608 9.67278 14.0793 9.64683 14.0945C9.62594 14.1066 9.60875 14.1157 9.59541 14.1212C9.58875 14.1239 9.58388 14.1254 9.58057 14.1261C9.57948 14.1263 9.57874 14.1264 9.5783 14.1264C9.57353 14.1253 9.5683 14.1244 9.56307 14.1243C9.55853 14.1242 9.54756 14.1244 9.53763 14.132C9.5244 14.1422 9.52287 14.157 9.52449 14.1664C9.52585 14.1742 9.52942 14.1803 9.53155 14.1836C9.53619 14.1908 9.5429 14.198 9.54909 14.2041C9.55568 14.2106 9.56338 14.2176 9.57128 14.2243C9.5871 14.2379 9.60483 14.2518 9.61843 14.2622C9.62526 14.2674 9.63113 14.2718 9.6353 14.2749C9.63739 14.2765 9.63906 14.2777 9.64021 14.2785L9.64154 14.2795L9.64202 14.2799L9.65044 14.286L14.2901 14.3021L14.2997 14.2884C14.3289 14.2467 14.3164 14.1965 14.2922 14.1546C14.2673 14.1115 14.2246 14.0671 14.1727 14.0267C14.0689 13.9458 13.9196 13.8747 13.7745 13.862L13.7725 13.8619L13.7706 13.8619C13.6474 13.8663 13.5434 13.9293 13.4521 13.9868C13.4473 13.9899 13.4425 13.9929 13.4377 13.9959L13.4377 13.9959C13.3965 14.0219 13.3579 14.0463 13.3193 14.0655C13.2765 14.0867 13.2361 14.1002 13.1958 14.1019C13.1914 14.1021 13.1871 14.1021 13.1827 14.102C13.1467 14.101 13.1081 14.0899 13.0661 14.0717C13.0215 14.0524 12.9755 14.0264 12.927 13.9988L12.9187 13.9941C12.8185 13.9372 12.705 13.8735 12.589 13.878L12.5611 13.8801C12.46 13.8917 12.3592 13.9434 12.2653 13.9916L12.256 13.9964C12.147 14.0523 12.047 14.1019 11.951 14.1019C11.8612 14.1019 11.7821 14.055 11.6879 13.9992C11.683 13.9963 11.678 13.9933 11.673 13.9904C11.6521 13.978 11.6307 13.9655 11.6084 13.9534C11.5259 13.9086 11.4325 13.8699 11.3198 13.8699C11.1753 13.8699 11.0708 13.9397 10.9818 14.0016L10.9747 14.0066C10.8861 14.0684 10.8168 14.1167 10.7316 14.1099C10.6955 14.1071 10.6599 14.0962 10.6241 14.0802C10.5702 14.0561 10.5157 14.0203 10.4583 13.9824L10.4564 13.9812C10.4097 13.9504 10.3611 13.9187 10.3118 13.8949C10.2622 13.871 10.2097 13.8539 10.1546 13.8539Z" fill="#083D9C"/>
<path fill-rule="evenodd" clip-rule="evenodd" d="M12.5006 13.7946C12.5006 13.7946 12.5006 13.7946 12.4738 13.8122L12.5006 13.7946L12.5332 13.8443L11.3864 13.845L11.4169 13.7959L11.4442 13.8128C11.4169 13.7959 11.4169 13.7959 11.4169 13.7959L11.4169 13.7958L11.4171 13.7955L11.4176 13.7947C11.4181 13.794 11.4187 13.793 11.4196 13.7917C11.4212 13.7891 11.4237 13.7855 11.4269 13.7808C11.4332 13.7716 11.4426 13.7586 11.4548 13.743C11.4792 13.7118 11.5151 13.6702 11.5614 13.6282C11.6532 13.5449 11.7887 13.4576 11.9574 13.4529C12.1128 13.4401 12.2498 13.5294 12.3446 13.6158C12.3928 13.6596 12.4316 13.7042 12.4584 13.7376C12.4718 13.7544 12.4823 13.7685 12.4894 13.7785C12.493 13.7835 12.4957 13.7874 12.4976 13.7902C12.4986 13.7915 12.4993 13.7926 12.4998 13.7934L12.5004 13.7942L12.5006 13.7945L12.5006 13.7946Z" fill="#083D9C"/>
<path fill-rule="evenodd" clip-rule="evenodd" d="M14.7274 13.7882C14.7528 13.7684 14.7527 13.7684 14.7527 13.7684L14.7525 13.7682L14.752 13.7675C14.7515 13.7669 14.7508 13.766 14.75 13.7649C14.7482 13.7627 14.7456 13.7595 14.7423 13.7555C14.7356 13.7474 14.726 13.7359 14.7139 13.7221C14.6897 13.6945 14.6556 13.6576 14.6157 13.6204C14.576 13.5832 14.53 13.5451 14.4821 13.5155C14.4346 13.4863 14.3825 13.4637 14.3312 13.4613C14.2809 13.4589 14.2323 13.4725 14.1863 13.4922C14.1418 13.5113 14.0975 13.5371 14.055 13.5618C14.0538 13.5625 14.0526 13.5631 14.0514 13.5638C13.9611 13.6163 13.8806 13.6614 13.8007 13.6578C13.7121 13.6538 13.6798 13.6401 13.659 13.6256C13.6504 13.6196 13.6436 13.6136 13.6349 13.6057C13.6315 13.6026 13.6277 13.5992 13.6234 13.5954C13.6089 13.5828 13.5914 13.5689 13.5658 13.5551L13.5368 13.5395L13.5219 13.5689C13.5008 13.6107 13.4484 13.6581 13.3966 13.697C13.3715 13.7159 13.3478 13.7318 13.3304 13.743C13.3217 13.7486 13.3146 13.753 13.3097 13.756C13.3073 13.7575 13.3054 13.7586 13.3041 13.7594L13.3027 13.7602L13.3024 13.7604L13.3023 13.7605L13.1998 13.8203H14.7933L14.7527 13.7684L14.7274 13.7882Z" fill="#083D9C"/>
<path fill-rule="evenodd" clip-rule="evenodd" d="M9.85127 13.5638C9.94155 13.6163 10.0221 13.6614 10.102 13.6578C10.1905 13.6538 10.2228 13.6401 10.2436 13.6256C10.2522 13.6196 10.259 13.6136 10.2677 13.6057C10.2712 13.6026 10.2749 13.5992 10.2793 13.5954C10.2937 13.5828 10.3112 13.5689 10.3368 13.5551L10.3658 13.5395L10.3807 13.5689C10.4019 13.6107 10.4542 13.6581 10.506 13.697C10.5311 13.7159 10.5548 13.7318 10.5722 13.743C10.5809 13.7486 10.588 13.753 10.5929 13.756C10.5954 13.7575 10.5973 13.7586 10.5985 13.7594L10.5999 13.7602L10.6002 13.7604L10.6003 13.7605L10.7028 13.8203H9.10938L9.14988 13.7684L9.1752 13.7882C9.14988 13.7684 9.14988 13.7684 9.14988 13.7684L9.14995 13.7683L9.1501 13.7682L9.15064 13.7675C9.15111 13.7669 9.15179 13.766 9.15267 13.7649C9.15444 13.7627 9.15702 13.7595 9.16034 13.7555C9.16699 13.7474 9.17663 13.7359 9.18874 13.7221C9.2129 13.6946 9.24706 13.6576 9.28688 13.6204C9.32661 13.5832 9.37262 13.5451 9.42055 13.5155C9.46801 13.4863 9.52011 13.4637 9.57147 13.4613C9.62172 13.4589 9.67034 13.4725 9.71631 13.4922C9.76087 13.5113 9.80519 13.5371 9.84769 13.5618C9.84888 13.5625 9.85008 13.5632 9.85127 13.5638Z" fill="#083D9C"/>
<path d="M10.2214 13.0242C10.078 12.9755 9.94976 13.0299 9.84042 13.0905L9.77057 13.1307C9.74151 13.1479 9.71385 13.1642 9.68526 13.179C9.63641 13.2045 9.59349 13.2207 9.5542 13.2224C9.47231 13.2259 9.38473 13.1814 9.31427 13.1313C9.27972 13.1068 9.25068 13.082 9.23028 13.0633C9.2201 13.0539 9.21212 13.0462 9.20673 13.0408C9.20404 13.0381 9.202 13.036 9.20066 13.0346C9.19999 13.0339 9.19949 13.0334 9.19918 13.0331L9.19885 13.0327L9.19878 13.0326L9.19875 13.0327L9.14505 13.0653L9.25774 13.3824L10.3349 13.391L10.3129 13.3446L10.3128 13.3444L10.3123 13.3435C10.3119 13.3426 10.3113 13.3412 10.3105 13.3393C10.3088 13.3356 10.3064 13.3299 10.3034 13.3226C10.2975 13.3079 10.2895 13.2865 10.2812 13.2599C10.2645 13.2067 10.247 13.1335 10.2432 13.053L10.2421 13.0312L10.2214 13.0242Z" fill="#083D9C"/>
<path fill-rule="evenodd" clip-rule="evenodd" d="M14.7729 13.0653L14.6602 13.3824L13.5829 13.391L13.605 13.3447L13.6051 13.3444L13.6055 13.3435C13.606 13.3426 13.6066 13.3412 13.6074 13.3393C13.6091 13.3356 13.6115 13.3299 13.6145 13.3226C13.6204 13.3079 13.6284 13.2865 13.6367 13.2599C13.6534 13.2067 13.6709 13.1335 13.6747 13.053L13.6758 13.0312L13.6965 13.0242C13.8399 12.9755 13.9681 13.0299 14.0775 13.0905C14.1022 13.1042 14.1252 13.1177 14.1473 13.1307C14.1764 13.1479 14.204 13.1642 14.2326 13.179C14.2815 13.2045 14.3244 13.2207 14.3637 13.2224C14.4456 13.2259 14.5332 13.1814 14.6037 13.1313C14.6382 13.1068 14.6672 13.082 14.6877 13.0633C14.6978 13.0539 14.7058 13.0462 14.7112 13.0408C14.7139 13.0381 14.7159 13.036 14.7173 13.0346C14.7179 13.0339 14.7184 13.0334 14.7188 13.0331L14.7191 13.0327L14.7729 13.0653Z" fill="#083D9C"/>
<path fill-rule="evenodd" clip-rule="evenodd" d="M11.6989 13.2561C11.736 13.203 11.8103 13.1584 11.9508 13.1584C12.0914 13.1584 12.1671 13.2031 12.2061 13.2554C12.2251 13.2809 12.234 13.3064 12.2382 13.3257C12.2403 13.3353 12.2412 13.3435 12.2416 13.3494C12.2418 13.3524 12.2418 13.3549 12.2418 13.3567C12.2418 13.3576 12.2418 13.3584 12.2418 13.359L12.2418 13.3598L12.2418 13.3601L12.2418 13.3602C12.2418 13.3602 12.2418 13.3603 12.2097 13.3587L12.2418 13.3603L12.2403 13.3909L11.6708 13.3906L11.668 13.3616L11.6999 13.3585C11.668 13.3616 11.668 13.3615 11.668 13.3615L11.668 13.3615L11.668 13.3613L11.6679 13.361L11.6679 13.3603C11.6678 13.3597 11.6678 13.3589 11.6677 13.358C11.6677 13.3562 11.6676 13.3537 11.6677 13.3507C11.6678 13.3447 11.6683 13.3366 11.6699 13.3269C11.6732 13.3076 11.6809 13.2819 11.6989 13.2561Z" fill="#083D9C"/>
<path d="M11.4381 11.7197L12.4982 11.9996V10.504C12.0126 10.528 11.6081 9.59234 12.4658 9.52838C11.6242 9.40841 11.5271 9.62435 11.43 9.85626L11.4381 11.7197Z" fill="#CE1126"/>
<path d="M11.6736 13.0715C11.443 13.4489 10.8266 13.337 10.6825 13.0735C10.6393 13.0614 10.6648 11.4478 10.6648 11.4478C10.6648 11.4478 10.5959 11.4168 10.5928 11.3672C10.5896 11.3171 10.6864 11.3126 10.6864 11.2484C10.6864 11.1844 10.5876 11.2095 10.5856 11.145C10.586 11.0833 10.6911 11.0918 10.6864 11.0348C10.6809 10.9706 10.5687 10.9801 10.5639 10.9208C10.5603 10.8738 10.6442 10.8328 10.6675 10.8116L10.5892 10.8105L10.4126 10.8141C10.2872 10.8142 10.4148 10.8411 10.4129 10.9126C10.4118 10.9593 10.3493 10.9904 10.3437 11.031C10.3418 11.0728 10.4331 11.1021 10.4343 11.1521C10.4353 11.1968 10.3445 11.1998 10.3478 11.2413C10.3534 11.3115 10.4282 11.327 10.4271 11.3695C10.4259 11.412 10.3264 11.4282 10.3262 11.4621C10.3296 11.5276 10.3406 13.1213 10.3406 13.1213C10.4991 13.9331 11.4142 14.1396 11.6736 13.0715Z" fill="#CE1126"/>
<path d="M12.2769 13.0715C12.5074 13.4489 13.1238 13.337 13.2679 13.0735C13.3111 13.0614 13.2856 11.4478 13.2856 11.4478C13.2856 11.4478 13.3545 11.4168 13.3576 11.3672C13.3608 11.3171 13.27 11.3126 13.27 11.2484C13.27 11.1844 13.3629 11.2095 13.3648 11.145C13.3644 11.0833 13.2674 11.0878 13.2721 11.0308C13.2776 10.9666 13.3538 10.9741 13.3581 10.9149C13.3618 10.8638 13.3103 10.8328 13.287 10.8116L13.3613 10.8105L13.5378 10.8141C13.6632 10.8142 13.5356 10.8411 13.5375 10.9126C13.5386 10.9593 13.6011 10.9904 13.6067 11.0311C13.6086 11.0728 13.5173 11.1021 13.5161 11.1521C13.5151 11.1968 13.6059 11.1998 13.6026 11.2413C13.597 11.3115 13.5222 11.327 13.5234 11.3695C13.5245 11.412 13.624 11.4282 13.6242 11.4621C13.6208 11.5276 13.6098 13.1213 13.6098 13.1213C13.4513 13.9331 12.5363 14.1396 12.2769 13.0715Z" fill="#CE1126"/>
<path fill-rule="evenodd" clip-rule="evenodd" d="M11.6518 9.5313C11.8025 9.45898 12.0453 9.43632 12.4673 9.49648C12.4835 9.4988 12.4954 9.51297 12.4949 9.52936C12.4943 9.54575 12.4815 9.5591 12.4652 9.56031C12.2564 9.57588 12.1308 9.64394 12.063 9.73084C11.9953 9.81771 11.9808 9.92932 12.0065 10.0419C12.0323 10.1547 12.0981 10.2658 12.1864 10.347C12.2746 10.4281 12.3829 10.4773 12.4935 10.4719C12.5023 10.4714 12.5109 10.4746 12.5173 10.4807C12.5236 10.4867 12.5273 10.4951 12.5273 10.5039V11.9995C12.5273 12.0095 12.5226 12.0189 12.5147 12.0249C12.5068 12.031 12.4966 12.0331 12.4869 12.0306L11.4268 11.7506C11.4128 11.7469 11.403 11.7342 11.4029 11.7197L11.3949 9.8563C11.3948 9.852 11.3957 9.84773 11.3974 9.84376C11.4459 9.72789 11.4982 9.60502 11.6518 9.5313ZM11.4591 9.86255L11.467 11.6948L12.463 11.9578V10.5363C12.3435 10.5323 12.2319 10.4761 12.1429 10.3943C12.0455 10.3047 11.9727 10.1824 11.9439 10.0563C11.915 9.92995 11.9299 9.79715 12.0123 9.69134C12.0647 9.62418 12.1424 9.57028 12.2486 9.53567C11.9596 9.5107 11.7881 9.53712 11.6796 9.58922C11.5522 9.65038 11.5068 9.74903 11.4591 9.86255Z" fill="#630810"/>
<path fill-rule="evenodd" clip-rule="evenodd" d="M10.5866 10.7783C10.5862 10.7783 10.5858 10.7783 10.5855 10.7783L10.4092 10.7818C10.3933 10.7819 10.3804 10.7823 10.3703 10.7833C10.3619 10.7842 10.3495 10.786 10.3396 10.7923C10.3336 10.7962 10.3261 10.8033 10.3233 10.8147C10.3206 10.8256 10.3235 10.8347 10.3259 10.8399C10.33 10.8487 10.3373 10.8559 10.3408 10.8593L10.3409 10.8594C10.3437 10.8621 10.3464 10.8647 10.349 10.8671C10.3557 10.8735 10.3618 10.8792 10.3676 10.8866C10.3749 10.896 10.378 10.904 10.3778 10.9117C10.3775 10.9216 10.3706 10.9326 10.3529 10.9528C10.3518 10.954 10.3507 10.9552 10.3496 10.9564C10.3426 10.9643 10.3343 10.9737 10.3275 10.9832C10.3195 10.9945 10.3113 11.0091 10.3089 11.0266C10.3087 11.0275 10.3087 11.0285 10.3086 11.0294C10.3075 11.0524 10.3195 11.0701 10.3298 11.0817C10.3393 11.0925 10.3516 11.1026 10.3618 11.111L10.3643 11.1131C10.376 11.1228 10.3851 11.1306 10.3916 11.1384C10.3975 11.1455 10.3989 11.1497 10.3991 11.1522C10.3987 11.1527 10.398 11.1535 10.3966 11.1547C10.3917 11.159 10.3842 11.1631 10.3723 11.1693L10.3705 11.1702C10.3606 11.1754 10.3469 11.1825 10.3362 11.1915C10.3238 11.2021 10.3108 11.2192 10.3127 11.2437L10.3127 11.2438C10.3166 11.2917 10.3448 11.3203 10.365 11.3392C10.3675 11.3415 10.3698 11.3436 10.3719 11.3456C10.3791 11.3522 10.384 11.3567 10.388 11.3616C10.3907 11.3649 10.3915 11.3667 10.3918 11.3677C10.3912 11.3685 10.3899 11.3701 10.3871 11.3725C10.3805 11.3781 10.3708 11.3837 10.3579 11.3907L10.3539 11.3928C10.3432 11.3987 10.3301 11.4057 10.3197 11.4134C10.3093 11.4211 10.2912 11.4368 10.291 11.4617C10.291 11.4624 10.291 11.463 10.2911 11.4637C10.2927 11.4955 10.2963 11.909 10.2995 12.3164C10.3011 12.5197 10.3026 12.7209 10.3037 12.8714C10.3042 12.9466 10.3046 13.0091 10.3049 13.0528L10.3054 13.1214C10.3054 13.1234 10.3056 13.1254 10.306 13.1273C10.3872 13.5429 10.6643 13.8124 10.964 13.8333C11.2671 13.8544 11.5701 13.6208 11.7017 13.079C11.7055 13.0636 11.6975 13.0478 11.6828 13.0417C11.6682 13.0356 11.6514 13.0411 11.6431 13.0546C11.5361 13.2298 11.3382 13.2939 11.1448 13.2807C11.0484 13.2741 10.9549 13.2483 10.8773 13.2087C10.7994 13.169 10.7396 13.1165 10.7076 13.058C10.7068 13.0566 10.706 13.0552 10.705 13.054C10.7047 13.0525 10.7042 13.0504 10.7037 13.0476C10.7018 13.0367 10.7 13.02 10.6983 12.9976C10.6949 12.9532 10.6924 12.8899 10.6906 12.8135C10.6869 12.661 10.686 12.4585 10.6865 12.2561C10.687 12.0538 10.6889 11.8518 10.6906 11.7004C10.6914 11.6247 10.6923 11.5617 10.6929 11.5175C10.6932 11.4955 10.6934 11.4782 10.6936 11.4663L10.6939 11.4482C10.6941 11.4354 10.6867 11.4237 10.675 11.4185L10.6748 11.4183C10.6744 11.4182 10.6739 11.4179 10.6732 11.4176C10.6717 11.4168 10.6695 11.4157 10.6668 11.4142C10.6613 11.411 10.6541 11.4065 10.6469 11.4009C10.6311 11.3883 10.6225 11.3757 10.6218 11.365C10.6217 11.3647 10.6214 11.3634 10.6255 11.3594C10.6308 11.3542 10.6382 11.3494 10.6498 11.3419L10.6528 11.34L10.6535 11.3395C10.6756 11.3252 10.7155 11.2994 10.7155 11.2483C10.7155 11.2222 10.7046 11.2028 10.6883 11.1894C10.675 11.1784 10.6583 11.1719 10.647 11.1675L10.6454 11.1669C10.6318 11.1615 10.6243 11.1583 10.6193 11.1543C10.6166 11.152 10.6149 11.1501 10.6147 11.1445C10.6148 11.1403 10.6161 11.1375 10.6205 11.1336C10.6265 11.1283 10.6354 11.1236 10.6491 11.1168L10.6511 11.1158C10.6627 11.1102 10.6786 11.1023 10.691 11.0913C10.7061 11.0779 10.7176 11.0584 10.7154 11.0321L10.7154 11.0319C10.713 11.0049 10.699 10.9861 10.6826 10.973C10.6676 10.961 10.6492 10.9529 10.6353 10.9467L10.6349 10.9465C10.6191 10.9395 10.6083 10.9346 10.6005 10.9288C10.5941 10.924 10.5931 10.921 10.5929 10.9182C10.5928 10.9167 10.5932 10.9128 10.5984 10.9055C10.6036 10.8982 10.6119 10.8901 10.6226 10.8815C10.6332 10.873 10.6448 10.8651 10.656 10.8574L10.6578 10.8562C10.6675 10.8496 10.6786 10.8421 10.686 10.8353C10.6958 10.8264 10.6991 10.8125 10.6945 10.8002C10.6898 10.7878 10.6781 10.7796 10.6649 10.7794L10.5866 10.7783ZM10.3919 11.3685L10.3919 11.3684C10.3919 11.3685 10.3919 11.3685 10.3919 11.3685ZM10.9684 13.7692C10.7068 13.751 10.4477 13.5124 10.3696 13.1179L10.3692 13.0523C10.3689 13.0086 10.3684 12.9461 10.3679 12.8709C10.3668 12.7205 10.3653 12.5192 10.3638 12.3159C10.3607 11.9281 10.3573 11.5309 10.3555 11.467C10.3561 11.4664 10.3569 11.4658 10.358 11.465C10.3644 11.4602 10.3731 11.4555 10.3848 11.4492L10.3886 11.4471C10.3997 11.4411 10.4135 11.4335 10.4252 11.4243L10.4289 11.3112C10.4238 11.3059 10.4183 11.3009 10.4136 11.2966C10.4119 11.295 10.4103 11.2936 10.4088 11.2922C10.3913 11.2758 10.3795 11.2621 10.377 11.2412C10.3772 11.241 10.3775 11.2408 10.3778 11.2405C10.3825 11.2366 10.3898 11.2326 10.402 11.2263L10.4028 11.2258C10.4112 11.2215 10.4223 11.2157 10.4323 11.2083L10.4354 11.1145L10.3791 11.0404C10.3787 11.04 10.3783 11.0396 10.3779 11.0391C10.375 11.0359 10.3737 11.0338 10.3732 11.0326C10.3741 11.0298 10.376 11.0259 10.3799 11.0205C10.3803 11.0199 10.3808 11.0192 10.3813 11.0186L10.442 10.9133C10.4427 10.8852 10.4306 10.863 10.4184 10.8473C10.418 10.8468 10.4177 10.8464 10.4173 10.8459L10.569 10.8429C10.5607 10.8504 10.5527 10.8589 10.5461 10.8681C10.5359 10.8824 10.5272 10.9012 10.5289 10.9232L10.5289 10.9233C10.531 10.9501 10.5459 10.9682 10.562 10.9802C10.5758 10.9906 10.5929 10.9981 10.6061 11.004L10.6088 11.0052C10.6241 11.012 10.6349 11.0172 10.6425 11.0232C10.6489 11.0283 10.6509 11.0323 10.6514 11.0374L10.6514 11.0373L10.6834 11.0347L10.6514 11.0374C10.6515 11.0395 10.6516 11.0404 10.6483 11.0433C10.643 11.048 10.6348 11.0523 10.6207 11.0592L10.6196 11.0597C10.6077 11.0656 10.5911 11.0738 10.5778 11.0857C10.5626 11.0991 10.5506 11.1183 10.5504 11.1446C10.5504 11.1451 10.5504 11.1455 10.5504 11.1459C10.5512 11.172 10.5627 11.1911 10.5789 11.2042C10.5924 11.2151 10.609 11.2216 10.6203 11.226L10.622 11.2267C10.6356 11.232 10.6429 11.2352 10.6475 11.239C10.6498 11.2409 10.6513 11.2425 10.6513 11.2483C10.6513 11.2609 10.6436 11.2694 10.6179 11.286C10.6168 11.2868 10.6155 11.2876 10.6143 11.2884C10.6041 11.2949 10.5908 11.3034 10.5805 11.3135C10.5677 11.3261 10.5561 11.3443 10.5577 11.3691L10.5577 11.3692C10.5602 11.4081 10.5876 11.4358 10.607 11.4512C10.615 11.4575 10.6228 11.4627 10.6294 11.4667C10.6292 11.4785 10.6289 11.4954 10.6286 11.5166C10.628 11.5608 10.6272 11.6239 10.6263 11.6997C10.6246 11.8512 10.6228 12.0534 10.6223 12.2559C10.6218 12.4585 10.6226 12.6616 10.6263 12.815C10.6282 12.8917 10.6307 12.9564 10.6342 13.0025C10.636 13.0254 10.638 13.0446 10.6405 13.0587C10.6417 13.0655 10.6432 13.0725 10.6453 13.0785C10.6464 13.0814 10.648 13.0855 10.6508 13.0895C10.6514 13.0906 10.6525 13.0921 10.654 13.0937C10.6945 13.1647 10.7646 13.2233 10.8481 13.2659C10.9338 13.3096 11.0358 13.3376 11.1404 13.3448C11.301 13.3557 11.4717 13.3175 11.5982 13.2069C11.457 13.6261 11.2023 13.7855 10.9684 13.7692ZM10.3534 11.469C10.3534 11.469 10.3534 11.4689 10.3536 11.4688C10.3535 11.4689 10.3534 11.469 10.3534 11.469Z" fill="#630810"/>
<path fill-rule="evenodd" clip-rule="evenodd" d="M10.442 10.9147C10.442 10.9142 10.442 10.9138 10.442 10.9133L10.442 10.9147Z" fill="#630810"/>
<path d="M10.4053 11.0636L10.4042 11.0627C10.3933 11.0537 10.3851 11.0469 10.3791 11.0404L10.4354 11.1145L10.4362 11.0918C10.4262 11.081 10.4147 11.0714 10.4053 11.0636Z" fill="#630810"/>
<path d="M10.3974 10.9994L10.4011 10.9952L10.4015 10.9948C10.4165 10.9777 10.4405 10.9505 10.442 10.9147L10.442 10.9133L10.3813 11.0186C10.3857 11.0127 10.391 11.0067 10.3974 10.9994Z" fill="#630810"/>
<path d="M10.4633 11.1513C10.4628 11.1286 10.452 11.1105 10.441 11.0973C10.4394 11.0954 10.4378 11.0936 10.4362 11.0918L10.4354 11.1145L10.4633 11.1513Z" fill="#630810"/>
<path d="M10.4629 11.1604L10.4633 11.1513L10.4354 11.1145L10.4323 11.2083C10.4345 11.2067 10.4367 11.205 10.4387 11.2032C10.4497 11.1937 10.4606 11.1797 10.4629 11.1604Z" fill="#630810"/>
<path d="M10.4286 11.4216C10.437 11.4145 10.4466 11.4043 10.4519 11.3908L10.4538 11.3509C10.4505 11.3389 10.4442 11.3289 10.4378 11.321C10.4351 11.3177 10.4321 11.3144 10.4289 11.3112L10.4252 11.4243C10.4264 11.4234 10.4275 11.4225 10.4286 11.4216Z" fill="#630810"/>
<path d="M10.4561 11.3703C10.4563 11.3633 10.4554 11.3569 10.4538 11.3509L10.4519 11.3908C10.4544 11.3846 10.4559 11.3778 10.4561 11.3703Z" fill="#630810"/>
<path fill-rule="evenodd" clip-rule="evenodd" d="M13.5524 11.3684L13.5524 11.3686C13.5524 11.3686 13.5524 11.3685 13.5524 11.3684Z" fill="#630810"/>
<path fill-rule="evenodd" clip-rule="evenodd" d="M13.3589 10.7783C13.3585 10.7783 13.3581 10.7783 13.3577 10.7783L13.2835 10.7794C13.2703 10.7796 13.2586 10.7878 13.2539 10.8002C13.2492 10.8125 13.2526 10.8264 13.2624 10.8353C13.2669 10.8394 13.2728 10.8442 13.2783 10.8487C13.2806 10.8506 13.2828 10.8524 13.2849 10.8541C13.2926 10.8605 13.2997 10.8668 13.3059 10.8736C13.3183 10.8872 13.324 10.8994 13.3231 10.9124C13.3221 10.9255 13.2849 10.9565 13.2849 10.9565C13.2849 10.9565 13.2635 10.9704 13.2539 10.9832C13.243 10.9979 13.2368 11.0083 13.2361 11.0266C13.2352 11.0468 13.2419 11.059 13.2539 11.0754C13.2713 11.0992 13.2975 11.0932 13.3192 11.1131C13.329 11.1221 13.3379 11.1258 13.3419 11.1384C13.3436 11.1436 13.3449 11.1468 13.3439 11.1522C13.342 11.1628 13.3321 11.1644 13.3231 11.1702C13.3193 11.1726 13.317 11.1736 13.3131 11.1758C13.3021 11.182 13.2953 11.1844 13.2849 11.1916C13.2619 11.2074 13.2422 11.2165 13.2361 11.2437C13.2271 11.2835 13.2959 11.3294 13.2959 11.3294L13.3231 11.3456C13.3231 11.3456 13.3294 11.352 13.3296 11.3672C13.3298 11.386 13.2991 11.3928 13.2991 11.3928C13.2991 11.3928 13.2706 11.3996 13.2604 11.4134C13.2519 11.4247 13.2504 11.4483 13.2504 11.4483L13.2507 11.4663C13.2509 11.4782 13.2512 11.4955 13.2515 11.5175C13.2521 11.5617 13.2529 11.6247 13.2538 11.7004C13.2555 11.8518 13.2573 12.0538 13.2578 12.2561C13.2583 12.4585 13.2574 12.661 13.2538 12.8135C13.2519 12.8899 13.2494 12.9532 13.246 12.9976C13.2443 13.02 13.2425 13.0367 13.2406 13.0476C13.2401 13.0504 13.2396 13.0525 13.2393 13.054C13.2383 13.0552 13.2375 13.0566 13.2367 13.058C13.2047 13.1165 13.1449 13.169 13.0671 13.2087C12.9895 13.2483 12.896 13.2741 12.7996 13.2807C12.6062 13.2939 12.4083 13.2298 12.3012 13.0546C12.293 13.0411 12.2761 13.0356 12.2615 13.0417C12.2469 13.0478 12.2389 13.0636 12.2426 13.079C12.3742 13.6208 12.6772 13.8544 12.9804 13.8333C13.2801 13.8124 13.5572 13.5429 13.6383 13.1273C13.6387 13.1254 13.6389 13.1234 13.6389 13.1214C13.6389 13.1214 13.6389 13.1214 13.6068 13.1212L13.6389 13.1214L13.6394 13.0528C13.6397 13.0091 13.6402 12.9466 13.6407 12.8714C13.6418 12.7209 13.6432 12.5197 13.6448 12.3164C13.648 11.909 13.6516 11.4955 13.6533 11.4637C13.6533 11.463 13.6533 11.4624 13.6533 11.4618C13.6531 11.4368 13.635 11.4211 13.6246 11.4134C13.6142 11.4057 13.6012 11.3987 13.5904 11.3928L13.5864 11.3907C13.5735 11.3837 13.5639 11.3781 13.5573 11.3725C13.5544 11.3701 13.5531 11.3685 13.5525 11.3677C13.5528 11.3667 13.5537 11.3649 13.5563 11.3616C13.5603 11.3567 13.5652 11.3522 13.5724 11.3456C13.5745 11.3436 13.5768 11.3415 13.5793 11.3392C13.5995 11.3203 13.6278 11.2917 13.6316 11.2438L13.6316 11.2437C13.6336 11.2192 13.6205 11.2021 13.6081 11.1916C13.5974 11.1825 13.5838 11.1754 13.5738 11.1702L13.572 11.1693C13.5602 11.1631 13.5526 11.159 13.5477 11.1547C13.5463 11.1535 13.5456 11.1526 13.5452 11.1522C13.5455 11.1497 13.5468 11.1454 13.5527 11.1384C13.5592 11.1306 13.5683 11.1228 13.58 11.1131L13.5825 11.111C13.5927 11.1027 13.605 11.0925 13.6146 11.0817C13.6248 11.0701 13.6368 11.0524 13.6357 11.0294C13.6357 11.0285 13.6356 11.0275 13.6355 11.0266C13.6331 11.0091 13.6248 10.9945 13.6168 10.9832C13.61 10.9737 13.6017 10.9643 13.5947 10.9565C13.5936 10.9552 13.5925 10.954 13.5915 10.9528C13.5737 10.9326 13.5668 10.9217 13.5666 10.9117L13.5666 10.9117C13.5664 10.904 13.5695 10.896 13.5768 10.8866C13.5825 10.8792 13.5886 10.8735 13.5954 10.8671C13.5979 10.8647 13.6006 10.8622 13.6034 10.8594L13.6035 10.8593C13.607 10.8559 13.6143 10.8487 13.6184 10.8399C13.6208 10.8347 13.6238 10.8256 13.6211 10.8147C13.6182 10.8033 13.6107 10.7962 13.6047 10.7923C13.5948 10.786 13.5825 10.7842 13.574 10.7833C13.5639 10.7823 13.551 10.7819 13.5351 10.7818L13.3589 10.7783ZM13.315 11.4667C13.3152 11.4785 13.3154 11.4954 13.3157 11.5166C13.3163 11.5608 13.3171 11.6239 13.318 11.6997C13.3197 11.8512 13.3216 12.0534 13.3221 12.2559C13.3225 12.4585 13.3217 12.6616 13.318 12.815C13.3161 12.8917 13.3136 12.9564 13.3101 13.0025C13.3083 13.0254 13.3063 13.0446 13.3039 13.0587C13.3027 13.0655 13.3011 13.0725 13.299 13.0785C13.298 13.0814 13.2963 13.0855 13.2936 13.0895C13.2929 13.0906 13.2918 13.0921 13.2903 13.0937C13.2498 13.1647 13.1798 13.2233 13.0963 13.2659C13.0105 13.3096 12.9085 13.3376 12.804 13.3448C12.6434 13.3557 12.4726 13.3175 12.3462 13.2069C12.4874 13.6261 12.742 13.7855 12.9759 13.7692C13.2376 13.751 13.4966 13.5124 13.5747 13.1179L13.5752 13.0523C13.5755 13.0086 13.5759 12.9461 13.5765 12.8709C13.5775 12.7205 13.579 12.5192 13.5806 12.3159C13.5836 11.9281 13.587 11.5308 13.5889 11.467C13.5882 11.4664 13.5874 11.4658 13.5864 11.465C13.58 11.4603 13.5712 11.4555 13.5595 11.4492L13.5558 11.4472C13.5436 11.4405 13.5282 11.432 13.5158 11.4216C13.5036 11.4112 13.4889 11.3944 13.4882 11.3703C13.4876 11.3491 13.4969 11.3328 13.5065 11.3211C13.5137 11.3122 13.5231 11.3036 13.5308 11.2966C13.5325 11.295 13.534 11.2936 13.5355 11.2922C13.5531 11.2758 13.5648 11.2621 13.5673 11.2412C13.5671 11.241 13.5668 11.2408 13.5665 11.2405C13.5619 11.2366 13.5545 11.2326 13.5424 11.2263L13.5415 11.2258C13.5312 11.2205 13.517 11.2131 13.5056 11.2032C13.493 11.1923 13.4804 11.1753 13.481 11.1513C13.4815 11.1286 13.4923 11.1105 13.5033 11.0973C13.5142 11.0842 13.528 11.0727 13.5391 11.0636L13.5402 11.0627C13.5518 11.0531 13.5604 11.046 13.5664 11.0391C13.5693 11.0359 13.5706 11.0338 13.5712 11.0326C13.5703 11.0298 13.5683 11.0259 13.5645 11.0205C13.5598 11.014 13.5541 11.0075 13.5469 10.9994L13.5433 10.9952L13.5429 10.9948C13.5277 10.9775 13.5032 10.9498 13.5023 10.9133C13.5016 10.8853 13.5138 10.863 13.526 10.8473C13.5263 10.8468 13.5267 10.8464 13.527 10.8459L13.3636 10.8426C13.3778 10.8615 13.3893 10.8863 13.3871 10.917L13.3871 10.9171C13.3839 10.9619 13.3523 10.983 13.3333 10.9956L13.3331 10.9958L13.3304 10.9976C13.3099 11.0112 13.3024 11.0179 13.301 11.0334C13.3008 11.0366 13.3013 11.0382 13.3044 11.0414C13.3088 11.0458 13.3154 11.05 13.3265 11.0564L13.3296 11.0582L13.3322 11.0597C13.3535 11.0719 13.3936 11.0949 13.3939 11.1447C13.3939 11.1451 13.3939 11.1455 13.3939 11.1458C13.3931 11.1713 13.3827 11.1902 13.3671 11.2036C13.3542 11.2147 13.3383 11.2213 13.3276 11.2257L13.326 11.2264C13.3165 11.2304 13.3105 11.2331 13.3064 11.2357C13.305 11.2366 13.3038 11.2374 13.3027 11.2383C13.3008 11.24 13.2991 11.2417 13.2991 11.2483C13.2991 11.2537 13.3004 11.2583 13.3033 11.2629C13.3078 11.2699 13.3162 11.2768 13.3303 11.2866C13.3313 11.2873 13.3324 11.2881 13.3336 11.2889C13.3431 11.2954 13.3558 11.3041 13.3655 11.3143C13.3777 11.3271 13.3882 11.3451 13.3867 11.3692C13.3842 11.4081 13.3568 11.4358 13.3373 11.4512C13.3294 11.4575 13.3216 11.4627 13.315 11.4667ZM13.5524 11.3684L13.5524 11.3686C13.5524 11.3686 13.5524 11.3685 13.5524 11.3684Z" fill="#630810"/>
<path fill-rule="evenodd" clip-rule="evenodd" d="M11.6956 12.8865L11.6607 12.9556C11.5972 13.0811 11.5051 13.1347 11.4147 13.1835L11.4044 13.189L10.9336 13.189L10.9919 13.1141C11.0364 13.0569 11.1013 13.0039 11.1528 12.9662C11.179 12.947 11.2025 12.9313 11.2195 12.9203C11.228 12.9148 11.2349 12.9105 11.2398 12.9075C11.2422 12.906 11.2441 12.9048 11.2454 12.904L11.2469 12.9031L11.2474 12.9028L11.2475 12.9027C11.2475 12.9027 11.2476 12.9027 11.2713 12.9426L11.2475 12.9027L11.258 12.8965L11.6956 12.8865Z" fill="#630810"/>
<path fill-rule="evenodd" clip-rule="evenodd" d="M12.2143 12.8865L12.6519 12.8965L12.6624 12.9027L12.6387 12.9426C12.6624 12.9027 12.6624 12.9027 12.6624 12.9027L12.6625 12.9028L12.663 12.9031L12.6645 12.904C12.6658 12.9048 12.6677 12.906 12.6702 12.9075C12.675 12.9105 12.6819 12.9148 12.6904 12.9203C12.7074 12.9313 12.7309 12.947 12.7571 12.9662C12.8086 13.0039 12.8735 13.0569 12.918 13.1141L12.9764 13.189L12.5056 13.189L12.4952 13.1835C12.4048 13.1347 12.3128 13.0811 12.2493 12.9556L12.2143 12.8865Z" fill="#630810"/>
<path fill-rule="evenodd" clip-rule="evenodd" d="M10.715 12.8067C10.7151 12.781 10.7359 12.7603 10.7615 12.7604L13.1568 12.7684C13.1824 12.7685 13.2031 12.7893 13.2031 12.815C13.203 12.8406 13.1821 12.8613 13.1565 12.8612L10.7612 12.8532C10.7356 12.8532 10.7149 12.8323 10.715 12.8067Z" fill="#630810"/>
<path fill-rule="evenodd" clip-rule="evenodd" d="M10.8467 12.2021C10.8671 12.1867 10.8962 12.1908 10.9117 12.2113L11.1949 12.5872C11.2103 12.6076 11.2062 12.6367 11.1858 12.6522C11.1653 12.6676 11.1362 12.6635 11.1207 12.643L10.8375 12.2671C10.8221 12.2466 10.8262 12.2175 10.8467 12.2021Z" fill="#630810"/>
<path fill-rule="evenodd" clip-rule="evenodd" d="M11.2119 12.2115C11.2315 12.2279 11.2342 12.2572 11.2177 12.2769L10.9102 12.6447C10.8938 12.6644 10.8645 12.667 10.8448 12.6506C10.8251 12.6341 10.8225 12.6049 10.839 12.5852L11.1465 12.2173C11.1629 12.1976 11.1922 12.195 11.2119 12.2115Z" fill="#630810"/>
<path fill-rule="evenodd" clip-rule="evenodd" d="M11.0381 12.1685C11.0637 12.1694 11.0838 12.1909 11.0829 12.2165L11.0748 12.4484C11.0739 12.474 11.0524 12.4941 11.0268 12.4932C11.0012 12.4923 10.9811 12.4708 10.982 12.4452L10.9901 12.2133C10.991 12.1876 11.0125 12.1676 11.0381 12.1685Z" fill="#630810"/>
</g>
<defs>
<clipPath id="clip0_1692_54035">
<rect x="2.02344" y="5.72119" width="19.9551" height="13.2998" rx="1" fill="white"/>
</clipPath>
</defs>
</svg>
