<svg width="24" height="25" viewBox="0 0 24 25" fill="none" xmlns="http://www.w3.org/2000/svg">
<g clip-path="url(#clip0_1692_54023)">
<path d="M21.9749 5.72119H2.02539V19.0209H21.9749V5.72119Z" fill="#002654"/>
<path d="M10.0042 5.72119H4.68353V11.0418H10.0042V5.72119Z" fill="white"/>
<path d="M10.0099 5.72119H7.34961V11.0418H10.0099V5.72119Z" fill="#CE1126"/>
<path d="M9.93248 10.967H2.02539V11.1068H10.0723V5.72119H9.93248V10.967Z" fill="white"/>
<path fill-rule="evenodd" clip-rule="evenodd" d="M13.8269 11.8057L14.2551 12.4874H15.473V14.865L14.5585 13.4351L13.3281 15.3971H14.093L14.2073 15.1809H14.9732L15.8554 16.5942L16.7377 15.1809H17.5036L17.6179 15.3971H18.3827L17.1523 13.4351L16.2378 14.865V13.5515H16.7865L17.1939 12.903H16.2378V12.4874H17.4558L17.8839 11.8057H13.8269ZM14.5644 14.2565L14.8628 14.7204L14.3317 14.7234L14.5644 14.2565ZM17.1346 14.3037L17.3733 14.7204L16.8893 14.7175L17.1346 14.3037Z" fill="white"/>
<path fill-rule="evenodd" clip-rule="evenodd" d="M17.3362 15.9228L17.4936 16.4165L18.0117 16.4137L17.5909 16.7159L17.7537 17.2078L17.3362 16.901L16.9187 17.2078L17.0814 16.7159L16.6606 16.4137L17.1787 16.4165L17.3362 15.9228Z" fill="white"/>
<path fill-rule="evenodd" clip-rule="evenodd" d="M15.836 17.0684L15.9934 17.562L16.5115 17.5592L16.0907 17.8615L16.2535 18.3534L15.836 18.0466L15.4185 18.3534L15.5812 17.8615L15.1604 17.5592L15.6785 17.562L15.836 17.0684Z" fill="white"/>
<path fill-rule="evenodd" clip-rule="evenodd" d="M14.3769 15.9249L14.2195 16.4185L13.7014 16.4157L14.1222 16.7179L13.9594 17.2098L14.3769 16.903L14.7944 17.2098L14.6317 16.7179L15.0525 16.4157L14.5344 16.4185L14.3769 15.9249Z" fill="white"/>
<path fill-rule="evenodd" clip-rule="evenodd" d="M18.5968 12.561L18.7542 13.0546L19.2723 13.0518L18.8515 13.3541L19.0143 13.846L18.5968 13.5392L18.1793 13.846L18.3421 13.3541L17.9213 13.0518L18.4394 13.0546L18.5968 12.561Z" fill="white"/>
<path fill-rule="evenodd" clip-rule="evenodd" d="M13.1326 12.5513L13.29 13.0449L13.8081 13.0421L13.3873 13.3443L13.5501 13.8362L13.1326 13.5294L12.7151 13.8362L12.8778 13.3443L12.457 13.0421L12.9751 13.0449L13.1326 12.5513Z" fill="white"/>
</g>
<defs>
<clipPath id="clip0_1692_54023">
<rect x="2.02539" y="5.72119" width="19.9495" height="13.2997" rx="1" fill="white"/>
</clipPath>
</defs>
</svg>
