<svg width="25" height="25" viewBox="0 0 25 25" fill="none" xmlns="http://www.w3.org/2000/svg">
<g clip-path="url(#clip0_1692_54068)">
<path d="M22.5101 5.8501H2.56055V19.1498H22.5101V5.8501Z" fill="#00267F"/>
<path d="M15.8588 5.8501H9.20898V19.1498H15.8588V5.8501Z" fill="#FFC726"/>
<path fill-rule="evenodd" clip-rule="evenodd" d="M12.5384 9.28173L12.5395 9.27881L12.5399 9.28564L12.5384 9.28173ZM12.537 9.28564L12.5384 9.28173L12.5374 9.27881L12.537 9.28564ZM12.5332 15.7234L12.4542 10.8384L12.537 9.28564L12.5297 9.30566C12.3166 9.88682 12.0959 10.4889 11.6317 10.9515C11.778 10.9033 12.034 10.86 12.1987 10.8642V13.3433L11.4987 13.4472C11.4737 13.4447 11.4654 13.4056 11.4654 13.3524C11.3981 12.5826 11.216 11.9358 11.0065 11.2666C11.0019 11.2383 10.9733 11.1853 10.9421 11.1275C10.8724 10.9984 10.7896 10.845 10.9308 10.8875C10.9377 10.8884 10.9636 10.8975 10.9965 10.9092C11.0827 10.9398 11.2174 10.9875 11.1861 10.949C10.8136 10.5632 10.2691 10.2856 9.74035 10.2033C9.6938 10.1916 9.66636 10.2149 9.70793 10.2689C10.4096 11.3489 10.9965 12.6233 10.9915 14.1355C11.1278 14.1355 11.3609 14.0953 11.5942 14.055C11.8279 14.0146 12.0618 13.9743 12.1987 13.9743V15.7234H12.5332ZM12.5437 15.7234L12.6226 10.8384L12.5399 9.28564L12.5472 9.30566C12.7603 9.88682 12.981 10.4889 13.4452 10.9515C13.2989 10.9033 13.0428 10.86 12.8782 10.8642V13.3433L13.5782 13.4472C13.6031 13.4447 13.6115 13.4056 13.6115 13.3524C13.6788 12.5826 13.8609 11.9358 14.0704 11.2666C14.075 11.2383 14.1036 11.1853 14.1348 11.1275C14.2045 10.9984 14.2873 10.845 14.146 10.8875C14.1391 10.8884 14.1133 10.8975 14.0804 10.9092C13.9942 10.9398 13.8595 10.9875 13.8908 10.949C14.2632 10.5632 14.8078 10.2856 15.3365 10.2033C15.3831 10.1916 15.4105 10.2149 15.3689 10.2689C14.6673 11.3489 14.0803 12.6233 14.0853 14.1355C13.9491 14.1355 13.7159 14.0953 13.4826 14.055C13.2489 14.0146 13.0151 13.9743 12.8782 13.9743V15.7234H12.5437Z" fill="black"/>
<path d="M12.5332 15.7234H12.5437L12.6226 10.8384L12.5399 9.28564L12.5384 9.28173L12.537 9.28564L12.4542 10.8384L12.5332 15.7234Z" fill="black"/>
</g>
<defs>
<clipPath id="clip0_1692_54068">
<rect x="2.56055" y="5.8501" width="19.9495" height="13.2997" rx="1" fill="white"/>
</clipPath>
</defs>
</svg>
