<svg width="25" height="25" viewBox="0 0 25 25" fill="none" xmlns="http://www.w3.org/2000/svg">
<g clip-path="url(#clip0_1692_54052)">
<path d="M22.0198 5.8501H2.07031V19.1497H22.0198V5.8501Z" fill="#CE1720"/>
<mask id="mask0_1692_54052" style="mask-type:alpha" maskUnits="userSpaceOnUse" x="2" y="5" width="4" height="15">
<path d="M2.21484 5.8501H5.1703V19.1497H2.21484V5.8501Z" fill="white"/>
</mask>
<g mask="url(#mask0_1692_54052)">
<path d="M2.21484 5.8501H5.1703V19.1497H2.21484V5.8501Z" fill="white"/>
<path fill-rule="evenodd" clip-rule="evenodd" d="M3.62272 6.33184H3.62863V5.8501H3.62272V6.33184ZM3.75276 6.33184H3.75867V5.8501H3.75276V6.33184ZM2.32528 6.6924H2.0918V6.99091H2.32528V7.18301H2.4435V7.41649H2.609V7.62042H2.74495V7.83912H2.83953V8.02236H3.06119V7.83912H3.15576V7.62042H3.28876V7.41649H3.45426V7.18301H3.57248V6.99091H3.62863H3.75276H3.80892V7.18301H3.92714V7.41649H4.09264V7.62042H4.22564V7.83912H4.32021V8.02236H4.54187V7.83912H4.63645V7.62042H4.7724V7.41649H4.9379V7.18301H5.05612V6.99091H5.2896V6.6924H5.05612V6.5003H4.9379V6.26682H4.7724V6.06289H4.63645V5.8501H4.22564V6.06289H4.09264V6.26682H3.92714V6.5003H3.80892V6.6924H3.75276H3.62863H3.57248V6.5003H3.45426V6.26682H3.28876V6.06289H3.15576V5.8501H2.74495V6.06289H2.609V6.26682H2.4435V6.5003H2.32528V6.6924ZM2.32528 5.95058H2.0918V6.21657H2.32528V5.95058ZM2.88682 6.29637H3.00799V6.47666H3.12325V6.70423H3.23852V6.98499H3.12325V7.21256H3.00799V7.38989H2.88682V7.21256H2.77155V6.98499H2.65925V6.70423H2.77155V6.47666H2.88682V6.29637ZM3.01981 6.97317V6.70718H2.87499V6.97317H3.01981ZM2.32528 7.40467H2.0918V7.69135H2.32528V7.40467ZM3.62272 7.83617H3.62863H3.75276H3.75867V7.43127H3.75276H3.62863H3.62272V7.83617ZM3.43358 8.08147V7.8805H3.26807V8.08147H3.12621V8.28835H3.00799V8.56025H3.12621V8.77009H3.26807V8.97106H3.43358V8.77009H3.57544V8.56025H3.62863H3.75276H3.80596V8.77009H3.94782V8.97106H4.11333V8.77009H4.25519V8.56025H4.37341V8.28835H4.25519V8.08147H4.11333V7.8805H3.94782V8.08147H3.80596V8.28835H3.75276H3.62863H3.57544V8.08147H3.43358ZM2.32528 8.28835H2.0918V8.56025H2.32528V8.77009H2.46714V8.97106H2.62969V8.77009H2.77155V8.56025H2.88977V8.28835H2.77155V8.08147H2.62969V7.8805H2.46714V8.08147H2.32528V8.28835ZM3.29171 8.29426H3.41289V8.55139H3.29171V8.29426ZM2.49078 8.29426H2.61196V8.55139H2.49078V8.29426ZM2.65925 12.4142V12.5531H2.88977V12.1245H3.0937V11.9709H3.23556V11.8142H3.31831V11.6664H3.39811V11.4655H3.52815V11.2586H3.57839V11.0606H3.62863H3.75276H3.80301V11.2586H3.85325V11.4655H3.98329V11.6664H4.06309V11.8142H4.14584V11.9709H4.2877V12.1245H4.49163V12.5531H4.72215V12.4142H4.82264V12.2043H4.95564V12.0773H5.05612V11.8733H5.2896V11.4005H5.05612V11.5364H4.95564V11.7344H4.82264V11.9709H4.63349V11.7581H4.49458V11.6014H4.3941V11.4152H4.2611V11.2172H4.16357V11.0162H4.069V10.8094H3.94191V10.5315H4.11037V10.2803H4.29361V10.1296H4.60098V10.3483H4.42365V10.5463H4.54187V10.7887H4.68078V11.0015H4.85515V10.7887H4.99997V10.5463H5.08863V10.3483H5.2896V9.97296H5.05612V9.73062H4.96746V9.54442H4.8847V9.33163H4.76649V9.12179H4.65122V8.98289H4.51232V8.77305H4.34386V8.98289H4.20495V9.12179H4.08673V9.33163H3.97147V9.54442H3.87689V9.72766H3.78232V9.88726H3.75276H3.62863H3.59908V9.72766H3.50451V9.54442H3.40993V9.33163H3.29467V9.12179H3.17645V8.98289H3.03754V8.77305H2.86908V8.98289H2.73018V9.12179H2.61491V9.33163H2.49669V9.54442H2.41394V9.73062H2.32528V9.97296H2.0918V10.3483H2.29277V10.5463H2.38143V10.7887H2.52625V11.0015H2.70062V10.7887H2.83953V10.5463H2.95775V10.3483H2.78042V10.1296H3.08779V10.2803H3.27103V10.5315H3.43949V10.8094H3.3124V11.0162H3.21783V11.2172H3.1203V11.4152H2.9873V11.6014H2.88682V11.7581H2.74791V11.9709H2.55876V11.7344H2.42576V11.5364H2.32528V11.4005H2.0918V11.8733H2.32528V12.0773H2.42576V12.2043H2.55876V12.4142H2.65925ZM3.62272 9.37301H3.62863H3.75276H3.75867V8.96811H3.75276H3.62863H3.62272V9.37301ZM2.32528 9.04495H2.0918V9.33163H2.32528V9.04495ZM2.32528 10.768H2.0918V11.0547H2.32528V10.768ZM3.62272 11.7551H3.63455H3.74685H3.75867V11.495H3.74685H3.63455H3.62272V11.7551ZM3.57544 12.3905V12.5531L3.6907 12.5511L3.80596 12.5531V12.3905H3.8828V12.2634H3.99511V11.8822H3.8828V12.0359H3.76459V12.2605H3.74685H3.63455H3.61681V12.0359H3.4986V11.8822H3.38629V12.2634H3.4986V12.3905H3.57544ZM3.11439 12.361V12.5501H3.23852V12.361H3.11439ZM5.05612 5.95058H5.2896V6.21657H5.05612V5.95058ZM4.49458 6.29637H4.37341V6.47666H4.25815V6.70423H4.14288V6.98499H4.25815V7.21256H4.37341V7.38989H4.49458V7.21256H4.60985V6.98499H4.72215V6.70423H4.60985V6.47666H4.49458V6.29637ZM4.36159 6.97317V6.70718H4.50641V6.97317H4.36159ZM5.05612 7.40467H5.2896V7.69135H5.05612V7.40467ZM5.05612 8.28835H5.2896V8.56025H5.05612V8.77009H4.91426V8.97106H4.75171V8.77009H4.60985V8.56025H4.49163V8.28835H4.60985V8.08147H4.75171V7.8805H4.91426V8.08147H5.05612V8.28835ZM4.08969 8.29426H3.96851V8.55139H4.08969V8.29426ZM4.89062 8.29426H4.76944V8.55139H4.89062V8.29426ZM5.05612 9.04495H5.2896V9.33163H5.05612V9.04495ZM5.05612 10.768H5.2896V11.0547H5.05612V10.768ZM4.26701 12.361V12.5501H4.14288V12.361H4.26701Z" fill="#CE1720"/>
<path d="M3.75276 6.33184V5.8501H3.62863V6.33184H3.75276Z" fill="#CE1720"/>
<path fill-rule="evenodd" clip-rule="evenodd" d="M3.62272 13.0407H3.62863V12.559H3.62272V13.0407ZM3.75276 13.0407H3.75867V12.559H3.75276V13.0407ZM2.32528 13.4013H2.0918V13.6998H2.32528V13.8919H2.4435V14.1254H2.609V14.3293H2.74495V14.548H2.83953V14.7313H3.06119V14.548H3.15576V14.3293H3.28876V14.1254H3.45426V13.8919H3.57248V13.6998H3.62863H3.75276H3.80892V13.8919H3.92714V14.1254H4.09264V14.3293H4.22564V14.548H4.32021V14.7313H4.54187V14.548H4.63645V14.3293H4.7724V14.1254H4.9379V13.8919H5.05612V13.6998H5.2896V13.4013H5.05612V13.2092H4.9379V12.9757H4.7724V12.7718H4.63645V12.559H4.22564V12.7718H4.09264V12.9757H3.92714V13.2092H3.80892V13.4013H3.75276H3.62863H3.57248V13.2092H3.45426V12.9757H3.28876V12.7718H3.15576V12.559H2.74495V12.7718H2.609V12.9757H2.4435V13.2092H2.32528V13.4013ZM2.32528 12.6595H2.0918V12.9255H2.32528V12.6595ZM2.88682 13.0053H3.00799V13.1855H3.12325V13.4131H3.23852V13.6939H3.12325V13.9215H3.00799V14.0988H2.88682V13.9215H2.77155V13.6939H2.65925V13.4131H2.77155V13.1855H2.88682V13.0053ZM3.01981 13.6821V13.4161H2.87499V13.6821H3.01981ZM2.32528 14.1136H2.0918V14.4002H2.32528V14.1136ZM3.62272 14.5451H3.62863H3.75276H3.75867V14.1402H3.75276H3.62863H3.62272V14.5451ZM3.43358 14.7904V14.5894H3.26807V14.7904H3.12621V14.9972H3.00799V15.2691H3.12621V15.479H3.26807V15.68H3.43358V15.479H3.57544V15.2691H3.62863H3.75276H3.80596V15.479H3.94782V15.68H4.11333V15.479H4.25519V15.2691H4.37341V14.9972H4.25519V14.7904H4.11333V14.5894H3.94782V14.7904H3.80596V14.9972H3.75276H3.62863H3.57544V14.7904H3.43358ZM2.32528 14.9972H2.0918V15.2691H2.32528V15.479H2.46714V15.68H2.62969V15.479H2.77155V15.2691H2.88977V14.9972H2.77155V14.7904H2.62969V14.5894H2.46714V14.7904H2.32528V14.9972ZM3.29171 15.0032H3.41289V15.2603H3.29171V15.0032ZM2.49078 15.0032H2.61196V15.2603H2.49078V15.0032ZM2.65925 19.1231V19.262H2.88977V18.8334H3.0937V18.6797H3.23556V18.5231H3.31831V18.3753H3.39811V18.1744H3.52815V17.9675H3.57839V17.7695H3.62863H3.75276H3.80301V17.9675H3.85325V18.1744H3.98329V18.3753H4.06309V18.5231H4.14584V18.6797H4.2877V18.8334H4.49163V19.262H4.72215V19.1231H4.82264V18.9132H4.95564V18.7861H5.05612V18.5822H5.2896V18.1093H5.05612V18.2453H4.95564V18.4433H4.82264V18.6797H4.63349V18.467H4.49458V18.3103H4.3941V18.1241H4.2611V17.9261H4.16357V17.7251H4.069V17.5183H3.94191V17.2404H4.11037V16.9892H4.29361V16.8385H4.60098V17.0572H4.42365V17.2552H4.54187V17.4976H4.68078V17.7104H4.85515V17.4976H4.99997V17.2552H5.08863V17.0572H5.2896V16.6819H5.05612V16.4395H4.96746V16.2533H4.8847V16.0405H4.76649V15.8307H4.65122V15.6918H4.51232V15.4819H4.34386V15.6918H4.20495V15.8307H4.08673V16.0405H3.97147V16.2533H3.87689V16.4366H3.78232V16.5962H3.75276H3.62863H3.59908V16.4366H3.50451V16.2533H3.40993V16.0405H3.29467V15.8307H3.17645V15.6918H3.03754V15.4819H2.86908V15.6918H2.73018V15.8307H2.61491V16.0405H2.49669V16.2533H2.41394V16.4395H2.32528V16.6819H2.0918V17.0572H2.29277V17.2552H2.38143V17.4976H2.52625V17.7104H2.70062V17.4976H2.83953V17.2552H2.95775V17.0572H2.78042V16.8385H3.08779V16.9892H3.27103V17.2404H3.43949V17.5183H3.3124V17.7251H3.21783V17.9261H3.1203V18.1241H2.9873V18.3103H2.88682V18.467H2.74791V18.6797H2.55876V18.4433H2.42576V18.2453H2.32528V18.1093H2.0918V18.5822H2.32528V18.7861H2.42576V18.9132H2.55876V19.1231H2.65925ZM3.62272 16.0819H3.62863H3.75276H3.75867V15.677H3.75276H3.62863H3.62272V16.0819ZM2.32528 15.7538H2.0918V16.0405H2.32528V15.7538ZM2.32528 17.4769H2.0918V17.7636H2.32528V17.4769ZM3.62272 18.464H3.63455H3.74685H3.75867V18.2039H3.74685H3.63455H3.62272V18.464ZM3.57544 19.0994V19.262L3.6907 19.26L3.80596 19.262V19.0994H3.8828V18.9723H3.99511V18.5911H3.8828V18.7448H3.76459V18.9694H3.74685H3.63455H3.61681V18.7448H3.4986V18.5911H3.38629V18.9723H3.4986V19.0994H3.57544ZM3.11439 19.0699V19.259H3.23852V19.0699H3.11439ZM5.05612 12.6595H5.2896V12.9255H5.05612V12.6595ZM4.49458 13.0053H4.37341V13.1855H4.25815V13.4131H4.14288V13.6939H4.25815V13.9215H4.37341V14.0988H4.49458V13.9215H4.60985V13.6939H4.72215V13.4131H4.60985V13.1855H4.49458V13.0053ZM4.36159 13.6821V13.4161H4.50641V13.6821H4.36159ZM5.05612 14.1136H5.2896V14.4002H5.05612V14.1136ZM5.05612 14.9972H5.2896V15.2691H5.05612V15.479H4.91426V15.68H4.75171V15.479H4.60985V15.2691H4.49163V14.9972H4.60985V14.7904H4.75171V14.5894H4.91426V14.7904H5.05612V14.9972ZM4.08969 15.0032H3.96851V15.2603H4.08969V15.0032ZM4.89062 15.0032H4.76944V15.2603H4.89062V15.0032ZM5.05612 15.7538H5.2896V16.0405H5.05612V15.7538ZM5.05612 17.4769H5.2896V17.7636H5.05612V17.4769ZM4.26701 19.0699V19.259H4.14288V19.0699H4.26701Z" fill="#CE1720"/>
<path d="M3.75276 13.0407V12.559H3.62863V13.0407H3.75276Z" fill="#CE1720"/>
</g>
<path d="M5.17969 14.7163H22.0259V19.1495H5.17969V14.7163Z" fill="#007C30"/>
</g>
<defs>
<clipPath id="clip0_1692_54052">
<rect x="2.07031" y="5.8501" width="19.9551" height="13.2998" rx="1" fill="white"/>
</clipPath>
</defs>
</svg>
