<svg width="25" height="25" viewBox="0 0 25 25" fill="none" xmlns="http://www.w3.org/2000/svg">
<g clip-path="url(#clip0_1692_54152)">
<path d="M2.60547 5.8501H22.555V19.1498H2.60547V5.8501Z" fill="white"/>
<path d="M22.555 5.8501V19.1498H2.60547L22.555 5.8501Z" fill="#003087"/>
<path d="M2.60547 11.3916V5.8501H10.9178L2.60547 11.3916Z" fill="#FFD700"/>
<path fill-rule="evenodd" clip-rule="evenodd" d="M8.41178 8.70893L8.14766 8.25146L7.88354 8.70893C6.5038 8.83438 5.40518 9.933 5.27973 11.3127L4.82227 11.5769L5.27973 11.841C5.40518 13.2207 6.5038 14.3193 7.88354 14.4448L8.14766 14.9023L8.41178 14.4448C9.79151 14.3193 10.8901 13.2207 11.0156 11.841L11.4731 11.5769L11.0156 11.3127C10.8901 9.933 9.79151 8.83438 8.41178 8.70893ZM10.6417 11.5769C10.6417 12.9543 9.52508 14.0709 8.14766 14.0709C6.77024 14.0709 5.65361 12.9543 5.65361 11.5769C5.65361 10.1994 6.77024 9.08281 8.14766 9.08281C9.52508 9.08281 10.6417 10.1994 10.6417 11.5769Z" fill="#101820"/>
<path d="M8.14508 13.239L6.70514 10.7449H9.58501L8.14508 13.239ZM8.14508 9.91357L9.58501 12.4076H6.70514L8.14508 9.91357Z" fill="#D50032"/>
</g>
<defs>
<clipPath id="clip0_1692_54152">
<rect x="2.60547" y="5.8501" width="19.9495" height="13.2997" rx="1" fill="white"/>
</clipPath>
</defs>
</svg>
