<svg width="25" height="25" viewBox="0 0 25 25" fill="none" xmlns="http://www.w3.org/2000/svg">
<g clip-path="url(#clip0_1692_54008)">
<mask id="mask0_1692_54008" style="mask-type:alpha" maskUnits="userSpaceOnUse" x="2" y="5" width="21" height="15">
<path d="M22.0706 5.8501H2.12109V19.1498H22.0706V5.8501Z" fill="#002395"/>
</mask>
<g mask="url(#mask0_1692_54008)">
<path d="M22.0706 5.8501H2.12109V19.1498H22.0706V5.8501Z" fill="#002395"/>
<path d="M6.54123 5.84424H19.8388V19.1418L6.54123 5.84424Z" fill="#FECB00"/>
<path fill-rule="evenodd" clip-rule="evenodd" d="M3.68607 5.84401L3.40245 6.71691L4.14498 6.17743L4.88751 6.71691L4.60389 5.84401L5.34642 5.30453H4.4286L4.14498 4.43164L3.86136 5.30453H2.94354L3.68607 5.84401ZM3.68607 5.84401L4.14498 6.17743L4.60389 5.84401L4.4286 5.30453H3.86136L3.68607 5.84401Z" fill="white"/>
<path d="M3.68607 5.84401L4.14498 6.17743L4.60389 5.84401L4.4286 5.30453H3.86136L3.68607 5.84401Z" fill="white"/>
<path fill-rule="evenodd" clip-rule="evenodd" d="M5.34826 7.5062L5.06464 8.3791L5.80717 7.83962L6.5497 8.3791L6.26608 7.5062L7.00861 6.96672H6.09079L5.80717 6.09383L5.52355 6.96672H4.60573L5.34826 7.5062ZM5.34826 7.5062L5.80717 7.83962L6.26608 7.5062L6.09079 6.96672H5.52355L5.34826 7.5062Z" fill="white"/>
<path d="M5.34826 7.5062L5.80717 7.83962L6.26608 7.5062L6.09079 6.96672H5.52355L5.34826 7.5062Z" fill="white"/>
<path fill-rule="evenodd" clip-rule="evenodd" d="M7.01045 9.16839L6.72683 10.0413L7.46936 9.50181L8.21189 10.0413L7.92827 9.16839L8.6708 8.62891H7.75298L7.46936 7.75602L7.18574 8.62891H6.26792L7.01045 9.16839ZM7.01045 9.16839L7.46936 9.50181L7.92827 9.16839L7.75298 8.62891H7.18574L7.01045 9.16839Z" fill="white"/>
<path d="M7.01045 9.16839L7.46936 9.50181L7.92827 9.16839L7.75298 8.62891H7.18574L7.01045 9.16839Z" fill="white"/>
<path fill-rule="evenodd" clip-rule="evenodd" d="M8.67264 10.8306L8.38902 11.7035L9.13155 11.164L9.87408 11.7035L9.59046 10.8306L10.333 10.2911H9.41517L9.13155 9.41821L8.84793 10.2911H7.93011L8.67264 10.8306ZM8.67264 10.8306L9.13155 11.164L9.59046 10.8306L9.41517 10.2911H8.84793L8.67264 10.8306Z" fill="white"/>
<path fill-rule="evenodd" clip-rule="evenodd" d="M10.3348 12.4928L10.0512 13.3657L10.7937 12.8262L11.5363 13.3657L11.2526 12.4928L11.9952 11.9533H11.0774L10.7937 11.0804L10.5101 11.9533H9.59231L10.3348 12.4928ZM10.3348 12.4928L10.7937 12.8262L11.2526 12.4928L11.0774 11.9533H10.5101L10.3348 12.4928Z" fill="white"/>
<path fill-rule="evenodd" clip-rule="evenodd" d="M11.997 14.155L11.7134 15.0279L12.4559 14.4884L13.1985 15.0279L12.9148 14.155L13.6574 13.6155H12.7396L12.4559 12.7426L12.1723 13.6155H11.2545L11.997 14.155ZM11.997 14.155L12.4559 14.4884L12.9148 14.155L12.7396 13.6155H12.1723L11.997 14.155Z" fill="white"/>
<path fill-rule="evenodd" clip-rule="evenodd" d="M13.6592 15.8172L13.3756 16.69L14.1181 16.1506L14.8607 16.69L14.577 15.8172L15.3196 15.2777H14.4017L14.1181 14.4048L13.8345 15.2777H12.9167L13.6592 15.8172ZM13.6592 15.8172L14.1181 16.1506L14.577 15.8172L14.4017 15.2777H13.8345L13.6592 15.8172Z" fill="white"/>
<path fill-rule="evenodd" clip-rule="evenodd" d="M15.3214 17.4793L15.0378 18.3522L15.7803 17.8128L16.5228 18.3522L16.2392 17.4793L16.9817 16.9399H16.0639L15.7803 16.067L15.4967 16.9399H14.5789L15.3214 17.4793ZM15.3214 17.4793L15.7803 17.8128L16.2392 17.4793L16.0639 16.9399H15.4967L15.3214 17.4793Z" fill="white"/>
<path fill-rule="evenodd" clip-rule="evenodd" d="M16.9836 19.1415L16.7 20.0144L17.4425 19.4749L18.185 20.0144L17.9014 19.1415L18.6439 18.6021H17.7261L17.4425 17.7292L17.1589 18.6021H16.2411L16.9836 19.1415ZM16.9836 19.1415L17.4425 19.4749L17.9014 19.1415L17.7261 18.6021H17.1589L16.9836 19.1415Z" fill="white"/>
<path d="M16.9836 19.1415L17.4425 19.4749L17.9014 19.1415L17.7261 18.6021H17.1589L16.9836 19.1415Z" fill="white"/>
<path d="M15.3214 17.4793L15.7803 17.8128L16.2392 17.4793L16.0639 16.9399H15.4967L15.3214 17.4793Z" fill="white"/>
<path d="M13.6592 15.8172L14.1181 16.1506L14.577 15.8172L14.4017 15.2777H13.8345L13.6592 15.8172Z" fill="white"/>
<path d="M11.997 14.155L12.4559 14.4884L12.9148 14.155L12.7396 13.6155H12.1723L11.997 14.155Z" fill="white"/>
<path d="M10.3348 12.4928L10.7937 12.8262L11.2526 12.4928L11.0774 11.9533H10.5101L10.3348 12.4928Z" fill="white"/>
<path d="M8.67264 10.8306L9.13155 11.164L9.59046 10.8306L9.41517 10.2911H8.84793L8.67264 10.8306Z" fill="white"/>
</g>
</g>
<defs>
<clipPath id="clip0_1692_54008">
<rect x="2.12109" y="5.8501" width="19.9495" height="13.2997" rx="1" fill="white"/>
</clipPath>
</defs>
</svg>
