<svg width="25" height="25" viewBox="0 0 25 25" fill="none" xmlns="http://www.w3.org/2000/svg">
<g clip-path="url(#clip0_1692_54000)">
<path fill-rule="evenodd" clip-rule="evenodd" d="M2.14258 5.8501H22.0921V19.1498H2.14258V5.8501Z" fill="#5D805E"/>
<path fill-rule="evenodd" clip-rule="evenodd" d="M12.1184 8.17676L20.3443 12.5058L12.1184 16.8415L3.89258 12.5058L12.1184 8.17676Z" fill="#FFF22D"/>
<path fill-rule="evenodd" clip-rule="evenodd" d="M12.1181 9.34766C13.8605 9.34766 15.2771 10.7709 15.2771 12.5068C15.2771 14.2493 13.8605 15.6726 12.1181 15.6726C10.3823 15.6726 8.95898 14.2493 8.95898 12.5068C8.95898 10.7709 10.3823 9.34766 12.1181 9.34766Z" fill="#4A4999"/>
<path fill-rule="evenodd" clip-rule="evenodd" d="M15.1919 13.1456C13.1037 11.9817 10.5829 11.7755 8.9668 12.5137C8.9668 12.281 8.9934 12.0548 9.04661 11.8221C10.5563 11.0572 13.0504 11.3499 15.2652 12.5071C15.2584 12.7066 15.2451 12.9327 15.1919 13.1456ZM13.9149 11.3765L13.9949 11.5361L14.1677 11.4962L14.0414 11.6225L14.1278 11.7755L13.9748 11.6891L13.8552 11.8221L13.8884 11.6425L13.7288 11.576L13.9018 11.5494L13.9149 11.3765ZM10.0908 14.0168L10.1706 14.1764L10.3435 14.1365L10.2105 14.2629L10.3036 14.4159L10.144 14.336L10.0309 14.4624L10.0642 14.2895L9.90456 14.2164L10.0708 14.1964L10.0908 14.0168ZM11.0485 13.3784L11.1017 13.4781L11.2081 13.4515L11.1283 13.5313L11.1815 13.6244L11.0884 13.5779L11.0152 13.6577L11.0352 13.5446L10.9288 13.5046L11.0418 13.4848L11.0485 13.3784ZM10.9687 14.6553L11.0086 14.7418L11.1017 14.7218L11.0352 14.7883L11.0817 14.8681L10.9953 14.8282L10.9354 14.8947L10.9487 14.8016L10.8623 14.7617L10.9554 14.7551L10.9687 14.6553ZM12.8575 14.4823L12.8974 14.5688L12.9905 14.5489L12.9175 14.6154L12.9707 14.6952L12.884 14.6487L12.8243 14.7218L12.8442 14.6286L12.7577 14.5888L12.8442 14.5755L12.8575 14.4823ZM13.2764 14.5356L13.3165 14.6154L13.4096 14.5954L13.343 14.662L13.3896 14.7418L13.3099 14.6952L13.2433 14.7684L13.2633 14.6752L13.1767 14.6354L13.2698 14.622L13.2764 14.5356ZM13.6557 14.0899L13.6955 14.1764L13.7886 14.1565L13.7221 14.223L13.7686 14.3028L13.6889 14.2629L13.6223 14.3294L13.6423 14.2362L13.5559 14.203L13.649 14.1897L13.6557 14.0899ZM14.181 14.1232L14.2209 14.2097L14.314 14.1897L14.241 14.2496L14.2942 14.336L14.2075 14.2895L14.1479 14.356L14.1677 14.2696L14.0813 14.2297L14.1677 14.2164L14.181 14.1232ZM14.1944 13.937L14.2209 13.9969L14.2875 13.9836L14.241 14.0301L14.2741 14.0833L14.2143 14.0567L14.1677 14.1033L14.181 14.0368L14.1212 14.0102L14.1878 14.0035L14.1944 13.937ZM14.4004 13.7042L14.4536 13.8107L14.5734 13.7907L14.487 13.8705L14.5467 13.9769L14.4405 13.9171L14.3606 14.0035L14.3805 13.8905L14.2675 13.8373L14.3873 13.824L14.4004 13.7042ZM14.4338 13.3517L14.487 13.4582L14.5999 13.4382L14.5136 13.518L14.5802 13.6178L14.4736 13.5646L14.3939 13.6509L14.4138 13.5313L14.3074 13.4848L14.4271 13.4715L14.4338 13.3517ZM14.8128 13.2387L14.866 13.3451L14.9857 13.3185L14.8993 13.4049L14.9592 13.5046L14.8527 13.4449L14.773 13.538L14.7928 13.4183L14.6866 13.3717L14.7995 13.3583L14.8128 13.2387ZM11.933 13.5114L11.9796 13.6045L12.086 13.5845L12.0129 13.6577L12.0661 13.7574L11.9663 13.7042L11.8931 13.7907L11.9131 13.6776L11.8133 13.6311L11.9197 13.6178L11.933 13.5114ZM12.1725 13.7375L12.219 13.8306L12.3188 13.8107L12.2455 13.8838L12.2987 13.9703L12.2124 13.9237L12.1392 13.9969L12.1592 13.8971L12.0727 13.8572L12.1658 13.8438L12.1725 13.7375ZM12.3854 13.4116L12.4451 13.538L12.5783 13.5114L12.4852 13.6045L12.5516 13.7242L12.4319 13.6577L12.3388 13.7641L12.3653 13.6244L12.2391 13.5712L12.372 13.5512L12.3854 13.4116ZM11.8266 13.8705L11.8798 13.9703L11.9863 13.9436L11.9064 14.0235L11.9597 14.1232L11.8599 14.07L11.7867 14.1498L11.8067 14.0433L11.7069 13.9969L11.8133 13.9836L11.8266 13.8705Z" fill="white"/>
<path fill-rule="evenodd" clip-rule="evenodd" d="M13.7089 12.833L13.7619 12.9527L13.8884 12.9194L13.802 13.0125L13.8617 13.119L13.7488 13.0591L13.6688 13.1522L13.6889 13.0259L13.5758 12.9793L13.6955 12.9594L13.7089 12.833ZM12.2522 14.0035L12.3055 14.1165L12.4252 14.0899L12.3322 14.1764L12.3985 14.2829L12.2923 14.223L12.2057 14.3228L12.2257 14.1964L12.1193 14.1432L12.2391 14.1299L12.2522 14.0035ZM13.0303 14.7019L13.0903 14.8149L13.2101 14.7883L13.1236 14.8747L13.1834 14.9878L13.0704 14.928L12.9838 15.021L13.0105 14.9014L12.8974 14.8415L13.0172 14.8282L13.0303 14.7019ZM13.8817 14.223L13.9349 14.336L14.0546 14.3095L13.9614 14.3959L14.028 14.5023L13.9149 14.4491L13.8352 14.5422L13.8552 14.4159L13.7421 14.3627L13.8684 14.3494L13.8817 14.223ZM14.0946 14.5023L14.1543 14.6154L14.2741 14.5888L14.181 14.6752L14.2476 14.7817L14.1345 14.7285L14.0546 14.8215L14.0746 14.6952L13.9614 14.642L14.0879 14.6286L14.0946 14.5023ZM9.48556 12.7465L9.52546 12.8263L9.61857 12.813L9.55207 12.8795L9.59197 12.9527L9.51216 12.9128L9.4523 12.9793L9.46561 12.8862L9.37915 12.8529L9.47226 12.8396L9.48556 12.7465ZM12.3121 15.1142L12.352 15.194L12.4384 15.1807L12.372 15.2406L12.4186 15.3204L12.3388 15.2805L12.279 15.347L12.2923 15.2539L12.2124 15.2206L12.2987 15.2073L12.3121 15.1142Z" fill="white"/>
<path fill-rule="evenodd" clip-rule="evenodd" d="M9.39837 11.8156C9.43163 11.8023 9.45158 11.8023 9.47153 11.8089C9.49813 11.8223 9.51144 11.8422 9.51809 11.8688C9.52474 11.8821 9.52474 11.8954 9.52474 11.9087C9.53139 11.9287 9.53139 11.942 9.53139 11.9685C9.53139 11.9951 9.52474 12.0217 9.51144 12.055C9.51144 12.0816 9.49813 12.1082 9.47818 12.1282C9.44493 12.1747 9.40502 12.208 9.35847 12.2279C9.30526 12.2479 9.25871 12.2413 9.2321 12.208C9.21215 12.1947 9.2055 12.1747 9.19885 12.1548C9.1922 12.1348 9.18555 12.1149 9.18555 12.0816C9.1922 12.0617 9.1922 12.0484 9.19885 12.0284C9.2055 12.0085 9.21215 11.9885 9.22545 11.9752C9.23875 11.9353 9.27201 11.9021 9.30526 11.8755C9.33199 11.8495 9.36365 11.8291 9.39837 11.8156ZM9.39172 11.8489C9.36421 11.8554 9.33895 11.8692 9.31856 11.8888C9.29562 11.9115 9.27752 11.9386 9.26536 11.9686C9.25205 11.9952 9.23875 12.0284 9.23875 12.0683C9.23875 12.1082 9.2454 12.1348 9.25215 12.1548C9.26545 12.1814 9.27875 12.1947 9.2987 12.2013C9.3181 12.208 9.33916 12.208 9.35856 12.2013C9.37851 12.1947 9.39846 12.1814 9.41842 12.1614C9.43172 12.1415 9.44502 12.1149 9.45832 12.0816C9.47172 12.0484 9.47827 12.0151 9.47827 11.9819C9.47827 11.942 9.47827 11.9154 9.47162 11.8888C9.46497 11.8622 9.45823 11.8489 9.44502 11.8422C9.43163 11.8356 9.41167 11.8422 9.39172 11.8489ZM9.6112 11.7557C9.6644 11.7424 9.72426 11.7225 9.78412 11.7092C9.81737 11.7025 9.83732 11.7025 9.85728 11.7092C9.86393 11.7092 9.87723 11.7158 9.88388 11.7291C9.89053 11.7491 9.89053 11.7624 9.89053 11.7823C9.88388 11.8023 9.87723 11.8223 9.86393 11.8422C9.85728 11.8555 9.84398 11.8688 9.82402 11.8821C9.81072 11.8954 9.79077 11.9087 9.75751 11.9154C9.77747 11.9287 9.79077 11.9486 9.79742 11.9686C9.81737 11.9885 9.83067 12.0018 9.84397 12.0218C9.85063 12.0351 9.85728 12.0417 9.85728 12.0417C9.86393 12.0484 9.86393 12.0484 9.87058 12.0484C9.87723 12.055 9.89053 12.055 9.89718 12.055C9.89718 12.055 9.89718 12.0484 9.90383 12.0484C9.90383 12.0617 9.90383 12.0617 9.89718 12.075C9.87058 12.075 9.85063 12.0816 9.82402 12.0883C9.80407 12.0617 9.78412 12.0351 9.76417 12.0018C9.74278 11.9803 9.72483 11.9556 9.71096 11.9287C9.69101 11.9287 9.6777 11.9353 9.6644 11.9353V12.0018C9.6644 12.0218 9.65775 12.0417 9.65775 12.0617C9.65775 12.075 9.6644 12.0816 9.6644 12.0883C9.6644 12.0949 9.67105 12.0949 9.67105 12.1016C9.6777 12.1016 9.68436 12.1016 9.69766 12.0949H9.70431V12.1215C9.65775 12.1282 9.61785 12.1415 9.57794 12.1548V12.1282H9.58459C9.5979 12.1282 9.60455 12.1215 9.60455 12.1215C9.60455 12.1215 9.6112 12.1149 9.6112 12.1082C9.6112 12.1082 9.61785 12.1016 9.61785 12.0949V12.0683C9.61785 12.0218 9.61785 11.9819 9.6245 11.9353C9.6245 11.8954 9.63115 11.8489 9.6378 11.8089C9.64445 11.7956 9.64445 11.789 9.6378 11.7823V11.7757H9.61785C9.6112 11.7823 9.60455 11.7823 9.60455 11.7823C9.60455 11.7757 9.60455 11.7624 9.6112 11.7557ZM9.69101 11.7624C9.68436 11.789 9.67761 11.8089 9.67761 11.8356C9.67096 11.8622 9.67096 11.8888 9.66431 11.9154C9.69091 11.9087 9.71087 11.9021 9.73747 11.8954C9.75742 11.8888 9.77737 11.8821 9.78402 11.8755C9.79733 11.8688 9.81063 11.8555 9.81728 11.8489C9.83058 11.8289 9.83723 11.8156 9.83723 11.7956V11.7557L9.81728 11.7358H9.77737C9.74928 11.7468 9.72041 11.7557 9.69101 11.7624ZM9.95704 11.6959C9.95704 11.6892 9.95704 11.6826 9.96369 11.6759C10.0036 11.6626 10.0435 11.656 10.0768 11.6493C10.1366 11.6427 10.1699 11.6427 10.1898 11.6427C10.2164 11.6493 10.243 11.6693 10.2563 11.7025C10.263 11.7158 10.2696 11.7358 10.2696 11.7557C10.2763 11.7757 10.2763 11.7956 10.2763 11.8223C10.2696 11.8489 10.263 11.8821 10.2497 11.9088C10.2364 11.9354 10.2231 11.962 10.2098 11.982C10.1898 11.9953 10.1765 12.0086 10.1499 12.0152C10.1366 12.0285 10.11 12.0352 10.0901 12.0352C10.0368 12.0485 9.98364 12.0618 9.92378 12.0684V12.0485C9.93043 12.0418 9.93044 12.0418 9.93718 12.0418H9.94383C9.95048 12.0418 9.95048 12.0418 9.95713 12.0352C9.96378 12.0285 9.96378 12.0285 9.96378 12.0219C9.97043 12.0152 9.97043 12.0086 9.97043 11.9953C9.97043 11.9487 9.97043 11.9088 9.97708 11.8622C9.97708 11.8223 9.98373 11.7758 9.99038 11.7292C9.99502 11.7212 9.99733 11.7119 9.99703 11.7026C9.99703 11.696 9.99038 11.696 9.98373 11.696L9.95704 11.6959ZM10.0102 12.0218C10.0368 12.0151 10.0568 12.0085 10.0834 12.0085C10.0901 12.0018 10.1034 12.0018 10.1167 11.9952C10.1366 11.9885 10.1433 11.9885 10.1499 11.9819C10.1641 11.9744 10.1757 11.9628 10.1832 11.9486C10.1965 11.9287 10.2031 11.9154 10.2098 11.8954C10.2164 11.8688 10.2164 11.8489 10.2231 11.8223C10.2231 11.7956 10.2231 11.7757 10.2164 11.7557C10.2164 11.7424 10.2098 11.7225 10.2031 11.7092C10.1965 11.6959 10.1898 11.6892 10.1765 11.6826C10.1632 11.6759 10.1499 11.6693 10.1366 11.6693C10.13 11.6693 10.11 11.6759 10.0901 11.6759C10.0701 11.6826 10.0568 11.6826 10.0435 11.6893C10.0302 11.7425 10.0235 11.7957 10.0169 11.8489C10.0102 11.9087 10.0102 11.9686 10.0102 12.0218ZM10.3494 11.6161C10.4425 11.6027 10.529 11.5961 10.6221 11.5895C10.6221 11.6094 10.6221 11.6227 10.6288 11.6427V11.6892C10.6288 11.6959 10.6155 11.6959 10.6088 11.7025C10.6088 11.6826 10.6022 11.6693 10.6022 11.6626C10.5955 11.656 10.5889 11.6427 10.5822 11.6427C10.5756 11.636 10.5623 11.6294 10.5556 11.6294H10.5091C10.4824 11.6294 10.4558 11.6294 10.4292 11.636C10.4226 11.656 10.4226 11.6826 10.4159 11.7092C10.4159 11.7291 10.4159 11.7557 10.4093 11.7757H10.4492C10.4615 11.7754 10.4733 11.7707 10.4825 11.7624C10.4891 11.7557 10.4958 11.749 10.5024 11.7358C10.5024 11.7291 10.5091 11.7225 10.5091 11.7092V11.7025C10.5157 11.6959 10.529 11.6959 10.5357 11.6959C10.529 11.7225 10.5224 11.7557 10.5224 11.7823C10.5224 11.8089 10.5157 11.8422 10.5157 11.8688H10.4958V11.8555V11.8289C10.4891 11.8223 10.4891 11.8156 10.4891 11.8089C10.4825 11.8023 10.4758 11.8023 10.4758 11.8023C10.4691 11.7956 10.4624 11.7956 10.4492 11.8023H10.4093C10.4093 11.8289 10.4026 11.8489 10.4026 11.8688V11.9553C10.4026 11.9619 10.4026 11.9619 10.4093 11.9619H10.4226C10.4425 11.9619 10.4558 11.9619 10.4758 11.9553C10.5024 11.9553 10.5224 11.9486 10.5423 11.942C10.5556 11.9287 10.5689 11.922 10.5822 11.9021C10.5889 11.8888 10.6022 11.8688 10.6155 11.8489C10.6221 11.8489 10.6288 11.8489 10.6288 11.8555L10.6088 11.9154C10.6012 11.9372 10.5946 11.9594 10.5889 11.9819C10.4958 11.9885 10.4026 11.9952 10.3095 12.0085V11.9819H10.3228C10.3361 11.9819 10.3428 11.9819 10.3428 11.9752C10.3494 11.9752 10.3494 11.9686 10.3494 11.9619C10.3494 11.9619 10.3494 11.9486 10.3561 11.9353C10.3561 11.8954 10.3561 11.8489 10.3627 11.8023C10.3627 11.7557 10.3694 11.7092 10.3827 11.6693V11.6427L10.376 11.636H10.3494V11.6161ZM10.7019 11.5828C10.7352 11.5828 10.7684 11.5828 10.8083 11.5762C10.815 11.6294 10.8216 11.6826 10.8283 11.7291C10.8349 11.7823 10.8482 11.8356 10.8615 11.8821C10.8815 11.8356 10.9014 11.7823 10.9214 11.7291C10.948 11.6759 10.9746 11.6294 10.9946 11.5762H11.101C11.0943 11.5828 11.0943 11.5961 11.0943 11.6028H11.0611C11.0611 11.6094 11.0544 11.6094 11.0544 11.6162C11.0478 11.6228 11.0478 11.6295 11.0411 11.6428C11.0411 11.6827 11.0345 11.7226 11.0278 11.7691C11.0212 11.809 11.0212 11.8489 11.0145 11.8955V11.9221C11.0145 11.9288 11.0212 11.9288 11.0212 11.9354H11.0544C11.0478 11.9421 11.0478 11.9554 11.0478 11.962H10.9214C10.9281 11.9554 10.9281 11.9487 10.9281 11.9354H10.9547C10.9613 11.9354 10.9613 11.9288 10.9613 11.9288L10.968 11.9221C10.968 11.9155 10.9746 11.9088 10.9746 11.9022C10.9746 11.8556 10.9746 11.809 10.9813 11.7625C10.9879 11.7093 10.9946 11.6627 11.0012 11.6162C10.9746 11.6759 10.948 11.7292 10.9281 11.7891C10.9081 11.8489 10.8815 11.9088 10.8615 11.962H10.8349C10.8216 11.9088 10.8083 11.8489 10.795 11.7957C10.7817 11.7359 10.7684 11.6827 10.7684 11.6295C10.755 11.6694 10.7485 11.7159 10.7418 11.7625C10.7418 11.809 10.7352 11.8556 10.7352 11.9022V11.9288C10.7352 11.9354 10.7418 11.9354 10.7418 11.9421H10.7751C10.7751 11.9487 10.7751 11.9554 10.7684 11.9687C10.7352 11.9687 10.6953 11.9687 10.6554 11.9753V11.9487H10.6687C10.6753 11.9487 10.6886 11.9487 10.6886 11.9421C10.6953 11.9421 10.6953 11.9354 10.7019 11.9288V11.9022C10.7086 11.8556 10.7086 11.8157 10.7152 11.7758C10.7152 11.7292 10.7219 11.6893 10.7352 11.6494V11.6228C10.7352 11.6162 10.7352 11.6162 10.7285 11.6095H10.6953C10.6953 11.6028 10.6953 11.5961 10.7019 11.5828ZM11.4535 11.5895C11.5399 11.5961 11.633 11.6028 11.7195 11.6094C11.7195 11.6294 11.7261 11.6427 11.7261 11.6626C11.7261 11.6759 11.7328 11.6959 11.7328 11.7092C11.7261 11.7158 11.7195 11.7158 11.7128 11.7158C11.7062 11.7025 11.7062 11.6892 11.6995 11.6826C11.6929 11.6693 11.6862 11.6626 11.6796 11.656C11.6729 11.6493 11.6663 11.6427 11.6596 11.6427C11.653 11.636 11.633 11.636 11.6131 11.636C11.5865 11.6294 11.5599 11.6294 11.5333 11.6227C11.5266 11.6493 11.5266 11.6693 11.52 11.6959C11.52 11.7158 11.5133 11.7358 11.5133 11.7624C11.5267 11.7624 11.5399 11.7624 11.5532 11.769C11.5665 11.769 11.5798 11.7624 11.5865 11.7624C11.5931 11.7557 11.5999 11.749 11.5999 11.7424C11.6065 11.7358 11.6065 11.7225 11.6132 11.7092V11.7025H11.6331C11.6331 11.7291 11.6265 11.7557 11.6198 11.7823C11.6198 11.8156 11.6132 11.8422 11.6132 11.8688C11.6065 11.8688 11.5999 11.8622 11.5932 11.8622V11.8489C11.5999 11.8422 11.5932 11.8289 11.5932 11.8223C11.5932 11.8156 11.5932 11.8089 11.5866 11.8089C11.5863 11.8055 11.5849 11.8023 11.5824 11.7998C11.58 11.7974 11.5767 11.7959 11.5733 11.7956C11.5666 11.7956 11.56 11.789 11.5467 11.789H11.5068C11.5068 11.8089 11.5068 11.8289 11.5001 11.8489C11.5001 11.8688 11.4935 11.8888 11.4935 11.9154V11.9353L11.5001 11.942H11.5201C11.5334 11.942 11.5467 11.9486 11.5666 11.9486C11.5932 11.9486 11.6132 11.9486 11.6331 11.942C11.6465 11.9353 11.6597 11.922 11.6731 11.9087C11.6864 11.9021 11.6931 11.8821 11.7064 11.8622C11.713 11.8622 11.7197 11.8688 11.7263 11.8688C11.7197 11.8888 11.713 11.9087 11.6997 11.9287C11.6931 11.9486 11.6864 11.9686 11.6731 11.9885C11.5866 11.9819 11.4936 11.9686 11.4004 11.9686C11.4004 11.9619 11.4071 11.9553 11.4071 11.942H11.4137C11.4271 11.9486 11.4337 11.942 11.4337 11.942C11.4371 11.9417 11.4404 11.9403 11.4428 11.9378C11.4453 11.9354 11.4468 11.9321 11.447 11.9287C11.447 11.9287 11.4536 11.922 11.4536 11.9087C11.4536 11.8622 11.4603 11.8222 11.467 11.7823C11.467 11.7358 11.4736 11.6959 11.4803 11.6493C11.4869 11.6427 11.4869 11.6294 11.4869 11.6294L11.4736 11.6161H11.447C11.4535 11.6094 11.4535 11.5961 11.4535 11.5895ZM12.0986 11.656L12.2183 11.6759C12.2649 11.6759 12.2916 11.6826 12.298 11.6959C12.3075 11.6987 12.3161 11.7039 12.323 11.7108C12.33 11.7178 12.3352 11.7264 12.3381 11.7358C12.3446 11.7557 12.3513 11.7757 12.3446 11.7956C12.3446 11.8223 12.3381 11.8356 12.3247 11.8489C12.3113 11.8688 12.298 11.8755 12.2848 11.8821C12.2648 11.8888 12.2383 11.8888 12.2049 11.8888C12.185 11.8821 12.165 11.8821 12.1517 11.8755L12.1318 11.9752V11.9952C12.1318 12.0018 12.1384 12.0085 12.1384 12.0085C12.1384 12.0085 12.145 12.0151 12.1517 12.0151H12.1651V12.0417L12.0454 12.0218C12.0454 12.0151 12.0454 12.0085 12.052 12.0018H12.0786C12.0853 12.0018 12.0853 11.9952 12.0853 11.9952C12.0919 11.9885 12.0919 11.9819 12.0919 11.9686C12.0986 11.9287 12.1052 11.8888 12.1119 11.8422C12.1185 11.8023 12.1185 11.7624 12.1252 11.7158V11.6959C12.1252 11.6892 12.1252 11.6892 12.1185 11.6826L12.1052 11.6759H12.0986V11.656ZM12.1717 11.6959C12.1717 11.7225 12.1652 11.7491 12.1652 11.7757C12.1569 11.7992 12.1524 11.8239 12.1518 11.8489C12.1652 11.8489 12.1851 11.8555 12.1984 11.8555H12.2582C12.2649 11.8489 12.2783 11.8489 12.2849 11.8356C12.2916 11.8222 12.2981 11.8089 12.2981 11.789C12.3048 11.7757 12.2981 11.7557 12.2916 11.7424C12.2918 11.7356 12.29 11.7288 12.2864 11.7229C12.2829 11.717 12.2777 11.7123 12.2716 11.7092C12.2582 11.7092 12.2384 11.7092 12.2184 11.7025C12.1984 11.7025 12.1851 11.6959 12.1717 11.6959ZM12.3847 11.7025C12.4377 11.7092 12.4976 11.7158 12.5508 11.7291C12.5842 11.7358 12.6041 11.7424 12.6241 11.7557C12.6373 11.7624 12.644 11.7757 12.6506 11.789C12.6573 11.8089 12.664 11.8289 12.6573 11.8422C12.6573 11.8622 12.6506 11.8755 12.6372 11.8888C12.6307 11.9087 12.6174 11.9154 12.5973 11.922H12.5309C12.5441 11.942 12.5574 11.9686 12.5641 11.9885C12.5707 12.0085 12.5841 12.0284 12.5972 12.055C12.6039 12.0617 12.6039 12.0683 12.6106 12.075L12.624 12.0883C12.6307 12.0949 12.6372 12.0949 12.6372 12.0949H12.6439C12.6439 12.1016 12.6439 12.1149 12.6372 12.1215C12.6137 12.1133 12.589 12.1088 12.5641 12.1082C12.5566 12.0729 12.5431 12.0392 12.5242 12.0085C12.5108 11.9752 12.4975 11.942 12.4843 11.9154C12.4709 11.9087 12.451 11.9087 12.4376 11.9087C12.4376 11.922 12.4311 11.942 12.4311 11.9619C12.4311 11.9819 12.4245 11.9952 12.4245 12.0151C12.4245 12.0284 12.4178 12.0351 12.4178 12.0417C12.4245 12.0484 12.4245 12.0551 12.4245 12.0551C12.4311 12.0618 12.4377 12.0618 12.4443 12.0618H12.4577C12.4511 12.0684 12.4511 12.0751 12.4511 12.0817L12.3315 12.0618V12.0418H12.3447C12.3513 12.0485 12.3581 12.0485 12.3581 12.0485C12.3647 12.0485 12.3647 12.0418 12.3715 12.0418C12.3715 12.0352 12.3715 12.0352 12.3781 12.0285V12.0019L12.398 11.8822C12.4046 11.8489 12.4114 11.8024 12.418 11.7625C12.418 11.7558 12.4247 11.7491 12.418 11.7425C12.418 11.7359 12.418 11.7359 12.4114 11.7292C12.4114 11.7292 12.4047 11.7226 12.398 11.7226H12.3848L12.3847 11.7025ZM12.4644 11.7424C12.4644 11.769 12.4577 11.789 12.4577 11.8089C12.4511 11.8356 12.4443 11.8555 12.4443 11.8821C12.4644 11.8821 12.4909 11.8888 12.5109 11.8954H12.5575C12.5643 11.8956 12.5711 11.8938 12.577 11.8902C12.5828 11.8867 12.5876 11.8816 12.5907 11.8755C12.5968 11.8724 12.6019 11.8676 12.6055 11.8617C12.609 11.8558 12.6108 11.8491 12.6107 11.8422V11.8023C12.6041 11.789 12.5973 11.7823 12.5907 11.7757C12.5774 11.769 12.5641 11.7624 12.5508 11.7624C12.5218 11.7565 12.493 11.7498 12.4644 11.7424ZM12.8967 11.7956C12.9234 11.8023 12.9499 11.8156 12.9699 11.8356C12.9898 11.8555 13.0098 11.8821 13.0231 11.9154C13.0231 11.9287 13.0296 11.942 13.0296 11.9619C13.0296 11.9819 13.0296 11.9952 13.0231 12.0151C13.0165 12.0417 13.0097 12.0617 12.9964 12.0816C12.9831 12.1082 12.9764 12.1282 12.9565 12.1348C12.9166 12.1681 12.8768 12.1747 12.8301 12.1614C12.8052 12.1585 12.7817 12.1489 12.7618 12.1336C12.7419 12.1184 12.7265 12.0982 12.7171 12.075C12.7045 12.0575 12.6976 12.0366 12.6971 12.0151C12.6971 11.9885 12.6971 11.9686 12.7037 11.942C12.7037 11.922 12.7037 11.9087 12.7104 11.8954C12.717 11.8821 12.7238 11.8622 12.7369 11.8489C12.7569 11.8289 12.777 11.8089 12.8035 11.8023C12.8367 11.789 12.8634 11.789 12.8967 11.7956ZM12.89 11.8223C12.8702 11.8156 12.8435 11.8223 12.8302 11.8289C12.8086 11.836 12.7899 11.85 12.7772 11.8688C12.7638 11.8954 12.7571 11.922 12.7505 11.9553C12.7438 11.9885 12.7438 12.0218 12.7505 12.0484C12.7571 12.0683 12.7639 12.0949 12.7772 12.1082C12.7904 12.1282 12.8103 12.1348 12.8368 12.1348C12.8502 12.1415 12.8702 12.1415 12.89 12.1348C12.9101 12.1282 12.9299 12.1082 12.9432 12.0816C12.9633 12.0617 12.9699 12.0351 12.9764 12.0018C12.9831 11.9686 12.9831 11.9353 12.9764 11.9087C12.971 11.8861 12.9596 11.8654 12.9432 11.8489C12.9298 11.8356 12.9167 11.8289 12.89 11.8223ZM13.3489 11.9154H13.3623C13.3688 11.9353 13.3688 11.9553 13.3688 11.9752C13.3688 11.9952 13.3755 12.0151 13.3755 12.0351H13.3556C13.3422 11.9952 13.3289 11.9686 13.3157 11.9486C13.3028 11.9299 13.2841 11.9158 13.2625 11.9087C13.2291 11.9021 13.1959 11.9087 13.1758 11.9353C13.1626 11.9486 13.1493 11.9619 13.1427 11.9819C13.1293 11.9952 13.1293 12.0151 13.1228 12.0351C13.1162 12.0635 13.1162 12.0931 13.1228 12.1215C13.1293 12.1481 13.136 12.1747 13.156 12.188C13.1694 12.208 13.1891 12.2213 13.2092 12.2213C13.2224 12.2279 13.2357 12.2279 13.2491 12.2279C13.2625 12.2213 13.2756 12.2213 13.2822 12.2146C13.2889 12.2079 13.2956 12.2013 13.2956 12.1946C13.3023 12.1946 13.309 12.1813 13.309 12.168C13.309 12.1613 13.309 12.1613 13.3157 12.1547V12.1214L13.3023 12.1081C13.3023 12.1081 13.2889 12.1015 13.2689 12.0948C13.2756 12.0882 13.2756 12.0815 13.2756 12.0749C13.3222 12.0882 13.3622 12.0948 13.4021 12.1081V12.1281H13.3686C13.3686 12.1281 13.3621 12.1281 13.3621 12.1347C13.3621 12.1347 13.3555 12.1414 13.3555 12.1547C13.3488 12.1746 13.3421 12.1946 13.3421 12.2146C13.3355 12.2412 13.3287 12.2611 13.3287 12.2744H13.3022V12.2412C13.2822 12.2478 13.2689 12.2545 13.2556 12.2545C13.2289 12.2545 13.2091 12.2545 13.189 12.2478C13.1491 12.2412 13.116 12.2079 13.0959 12.168C13.0825 12.148 13.0694 12.1281 13.0694 12.1015C13.0694 12.0749 13.0694 12.0549 13.0759 12.0283C13.0759 12.0017 13.0825 11.9751 13.0959 11.9552C13.1093 11.9352 13.1226 11.9219 13.1425 11.9086C13.1756 11.8754 13.2157 11.8687 13.2623 11.882C13.2688 11.882 13.2755 11.8887 13.2888 11.8953C13.2955 11.902 13.3088 11.9087 13.3155 11.9153C13.322 11.9153 13.3287 11.9219 13.3354 11.9352C13.3356 11.922 13.3423 11.922 13.3489 11.9154ZM13.4686 11.942C13.5218 11.9619 13.575 11.9752 13.6283 11.9885C13.6614 12.0018 13.6815 12.0085 13.7015 12.0218C13.7147 12.0351 13.7214 12.0484 13.7347 12.0617C13.7413 12.0816 13.7413 12.1016 13.7413 12.1215C13.7348 12.1363 13.7258 12.1498 13.7146 12.1614C13.7082 12.1747 13.6948 12.1814 13.6747 12.188C13.6549 12.188 13.6348 12.188 13.6083 12.1814C13.6215 12.2013 13.6282 12.2279 13.6415 12.2479C13.6481 12.2679 13.6613 12.2945 13.668 12.3211C13.6746 12.3344 13.6746 12.3344 13.6746 12.341C13.6813 12.3477 13.6813 12.3543 13.688 12.3543C13.6947 12.361 13.7014 12.3676 13.7081 12.3676H13.7145C13.7081 12.3743 13.7081 12.3809 13.7081 12.3876C13.6814 12.3809 13.6613 12.3743 13.6348 12.3676C13.6214 12.3344 13.6083 12.3011 13.6017 12.2679C13.5883 12.2346 13.575 12.1947 13.5618 12.1681C13.5484 12.1614 13.5351 12.1548 13.5217 12.1548C13.5217 12.1747 13.515 12.188 13.5085 12.208C13.5085 12.2279 13.5018 12.2479 13.4951 12.2612V12.3011C13.5017 12.3011 13.5085 12.3078 13.5216 12.3078C13.5216 12.3144 13.5216 12.3144 13.5282 12.3144C13.5282 12.3211 13.5216 12.3277 13.5216 12.3344C13.4817 12.3211 13.4419 12.3078 13.402 12.3011C13.402 12.2878 13.402 12.2812 13.4086 12.2745L13.4153 12.2812H13.4351C13.4351 12.2812 13.4418 12.2812 13.4418 12.2745C13.4484 12.2745 13.4484 12.2745 13.4484 12.2679C13.4551 12.2679 13.4551 12.2612 13.4618 12.2413C13.4683 12.2013 13.475 12.1681 13.4817 12.1282L13.5017 12.0085V11.9885C13.5017 11.9819 13.5017 11.9819 13.4951 11.9752C13.4884 11.9752 13.4884 11.9686 13.4817 11.9686H13.4683C13.4686 11.9553 13.4686 11.9486 13.4686 11.942ZM13.5485 11.9952C13.5418 12.0151 13.5418 12.0417 13.5418 12.0617C13.5352 12.0816 13.5352 12.1082 13.5284 12.1282C13.5485 12.1348 13.5683 12.1415 13.595 12.1481C13.6149 12.1548 13.6282 12.1548 13.6349 12.1548C13.655 12.1548 13.6614 12.1548 13.6748 12.1415C13.6815 12.1348 13.6882 12.1215 13.6882 12.1082C13.6882 12.0949 13.6882 12.0816 13.6816 12.0683C13.6816 12.055 13.6816 12.0484 13.6682 12.0417C13.6615 12.0351 13.6483 12.0284 13.6283 12.0218C13.6018 12.0085 13.5751 12.0018 13.5485 11.9952ZM13.8013 12.0417C13.881 12.0683 13.9675 12.0949 14.0474 12.1283C14.0538 12.1416 14.0538 12.1615 14.0606 12.1815C14.0606 12.1948 14.0672 12.2081 14.0672 12.228H14.0474C14.0474 12.2146 14.0407 12.2014 14.034 12.188C14.0323 12.178 14.0276 12.1687 14.0206 12.1614C14.0139 12.1481 14.0072 12.1415 13.9941 12.1415C13.9874 12.1348 13.974 12.1282 13.954 12.1215C13.9275 12.1149 13.901 12.1016 13.8743 12.0949C13.8743 12.1215 13.8743 12.1348 13.8676 12.1614C13.8676 12.1814 13.861 12.2013 13.861 12.2279C13.8744 12.2279 13.881 12.2346 13.8943 12.2413C13.9075 12.2413 13.9208 12.2479 13.9275 12.2413C13.9341 12.2413 13.9409 12.2346 13.9475 12.2279C13.954 12.2213 13.954 12.208 13.954 12.1947H13.974C13.974 12.2213 13.9674 12.2479 13.9606 12.2745C13.9606 12.3011 13.954 12.3277 13.9474 12.3543C13.934 12.3477 13.9274 12.3477 13.9207 12.341C13.9274 12.341 13.9274 12.3344 13.9274 12.3344C13.9274 12.3211 13.934 12.3144 13.9274 12.3078V12.2878C13.9229 12.2834 13.9185 12.2789 13.914 12.2745C13.9073 12.2679 13.9008 12.2679 13.8875 12.2611C13.8808 12.2611 13.8674 12.2545 13.8543 12.2478C13.8477 12.2678 13.8409 12.2877 13.8409 12.3077L13.8209 12.3675V12.3941C13.8209 12.4008 13.8275 12.4008 13.8409 12.4008C13.8543 12.4074 13.8741 12.4141 13.8875 12.4141C13.914 12.4274 13.934 12.4274 13.9473 12.4274C13.9561 12.4276 13.9647 12.4259 13.9728 12.4225C13.9808 12.419 13.988 12.4139 13.9939 12.4074C14.0071 12.4008 14.0204 12.3875 14.0338 12.3675C14.0404 12.3742 14.0472 12.3808 14.0536 12.3875C14.0404 12.4008 14.0271 12.4141 14.0205 12.434C14.0071 12.4474 14.0006 12.4673 13.9873 12.4806C13.9009 12.454 13.8143 12.4208 13.7278 12.3941C13.7278 12.3875 13.7345 12.3808 13.7345 12.3742C13.7412 12.3742 13.7412 12.3742 13.7412 12.3808H13.761C13.7677 12.3808 13.7677 12.3808 13.7744 12.3742C13.7744 12.3675 13.7811 12.3609 13.7811 12.3542C13.7944 12.3143 13.8076 12.2678 13.8142 12.2279C13.8209 12.1946 13.8276 12.148 13.8343 12.1081V12.0882C13.8276 12.0815 13.8276 12.0749 13.8209 12.0749C13.8209 12.0682 13.8142 12.0682 13.7944 12.0616C13.8013 12.0617 13.7946 12.0484 13.8013 12.0417ZM14.3333 12.2213C14.34 12.2279 14.34 12.2279 14.3466 12.2279C14.3532 12.2479 14.3532 12.2679 14.3532 12.2877C14.3599 12.3077 14.3599 12.3343 14.3599 12.3476H14.34C14.3266 12.3143 14.3133 12.2811 14.2999 12.2545C14.28 12.2345 14.26 12.2212 14.2402 12.2146C14.2268 12.2079 14.2135 12.2079 14.2069 12.2079C14.1937 12.2079 14.187 12.2146 14.1804 12.2212C14.1737 12.2279 14.167 12.2345 14.167 12.2478V12.2678C14.1736 12.2811 14.1804 12.2877 14.187 12.2944C14.1937 12.3077 14.2069 12.3143 14.2202 12.3276C14.2402 12.3409 14.2601 12.3542 14.2734 12.3675C14.28 12.3742 14.2934 12.3808 14.3066 12.3941C14.3132 12.4074 14.32 12.4141 14.3266 12.4274C14.3333 12.4407 14.34 12.4473 14.34 12.4606C14.34 12.4739 14.34 12.4872 14.3333 12.5005C14.3267 12.5205 14.3067 12.5404 14.2868 12.5537C14.2561 12.5604 14.2244 12.5604 14.1937 12.5537C14.1736 12.5472 14.1603 12.5404 14.1471 12.5272C14.1337 12.5206 14.1271 12.5072 14.1138 12.4872C14.1071 12.5005 14.1004 12.5072 14.0939 12.5138C14.0873 12.5138 14.0873 12.5072 14.0805 12.5072C14.0805 12.4872 14.0872 12.4673 14.0872 12.4474C14.0872 12.4208 14.0938 12.4009 14.0938 12.3809H14.1137C14.1137 12.4075 14.1203 12.4341 14.1271 12.4541C14.1337 12.474 14.1471 12.4873 14.1602 12.5006C14.1669 12.5073 14.1869 12.5206 14.2001 12.5273C14.2202 12.5339 14.2402 12.5339 14.26 12.5273C14.28 12.5207 14.2867 12.5073 14.2934 12.4941C14.2965 12.4879 14.2982 12.4811 14.2982 12.4741C14.2982 12.4672 14.2965 12.4603 14.2934 12.4542C14.28 12.4409 14.2667 12.4209 14.2468 12.4076C14.2267 12.3943 14.2134 12.381 14.1936 12.3677C14.1669 12.3478 14.147 12.3278 14.1404 12.3079C14.127 12.2812 14.127 12.2679 14.127 12.2413L14.147 12.2014C14.1602 12.1948 14.1669 12.188 14.1869 12.1815C14.2068 12.1748 14.2268 12.1815 14.2468 12.1881C14.26 12.1948 14.28 12.2015 14.2934 12.2147C14.3066 12.2214 14.3132 12.2347 14.3199 12.248C14.3266 12.2413 14.3266 12.2279 14.3333 12.2213ZM14.626 12.3344C14.6326 12.3344 14.6392 12.341 14.6458 12.341C14.6458 12.361 14.6458 12.3809 14.6525 12.4075V12.4674C14.6458 12.4607 14.6391 12.4607 14.6326 12.4607C14.6263 12.4271 14.6126 12.3953 14.5925 12.3676C14.5793 12.3477 14.5594 12.3344 14.5329 12.3277C14.5195 12.3211 14.5128 12.3211 14.4995 12.3211C14.4929 12.3211 14.4797 12.3277 14.473 12.3344C14.4664 12.3344 14.4664 12.3478 14.4664 12.3543V12.3809C14.473 12.3876 14.473 12.4009 14.4798 12.4075C14.493 12.4142 14.4996 12.4275 14.5197 12.4408C14.5331 12.4541 14.5528 12.4674 14.5729 12.4807L14.5994 12.5073L14.6261 12.5339C14.6261 12.5405 14.6327 12.5538 14.6327 12.5671C14.6327 12.5804 14.6327 12.5937 14.6261 12.607C14.6194 12.6336 14.5994 12.6536 14.5729 12.6669C14.5594 12.6735 14.5446 12.6769 14.5296 12.6769C14.5147 12.6769 14.4999 12.6735 14.4864 12.6669C14.4664 12.6602 14.4531 12.6469 14.4399 12.6403C14.4265 12.6269 14.4198 12.607 14.4065 12.5937C14.3983 12.6013 14.3916 12.6103 14.3866 12.6203C14.3798 12.6137 14.3732 12.6137 14.3732 12.6137C14.3732 12.5937 14.3732 12.5671 14.3798 12.5472C14.3798 12.5272 14.3865 12.5072 14.3865 12.4873C14.3931 12.4873 14.3997 12.4873 14.413 12.494C14.413 12.5139 14.413 12.5339 14.4196 12.5537C14.433 12.5737 14.4397 12.5937 14.4528 12.607C14.4594 12.6203 14.4795 12.6269 14.4927 12.6336C14.5013 12.6401 14.5118 12.6436 14.5226 12.6436C14.5334 12.6436 14.5439 12.6401 14.5525 12.6336C14.5726 12.6269 14.5859 12.6136 14.5859 12.6004C14.5924 12.587 14.5859 12.5671 14.5859 12.5537C14.5792 12.5472 14.5592 12.5338 14.5393 12.5138C14.5193 12.5072 14.506 12.4939 14.4926 12.4806C14.4594 12.4606 14.446 12.434 14.4329 12.4141C14.4263 12.3941 14.4195 12.3742 14.4263 12.3542C14.4263 12.3343 14.4329 12.321 14.4461 12.3143C14.4528 12.301 14.4662 12.2944 14.4862 12.2877C14.4994 12.2877 14.5194 12.2877 14.5394 12.2944C14.5593 12.301 14.5726 12.3143 14.586 12.3276C14.5992 12.3343 14.6058 12.3409 14.6191 12.3542C14.6192 12.3477 14.626 12.341 14.626 12.3344ZM14.8787 12.4341C14.9052 12.4475 14.9319 12.4674 14.9451 12.4873C14.9718 12.5139 14.9917 12.5405 14.9983 12.5671C14.9983 12.5871 15.005 12.607 15.005 12.6203C15.005 12.6403 15.005 12.6535 14.9983 12.6735C14.9913 12.6995 14.9801 12.7243 14.9652 12.7467C14.9518 12.76 14.932 12.7799 14.912 12.7933C14.8935 12.8031 14.873 12.8082 14.8521 12.8082C14.8312 12.8082 14.8106 12.8031 14.7922 12.7933C14.739 12.7732 14.7057 12.7334 14.6924 12.6801C14.6859 12.6602 14.6792 12.6336 14.6792 12.6136C14.6792 12.5936 14.6858 12.567 14.6924 12.5471C14.699 12.5337 14.7058 12.5138 14.7058 12.5071C14.7124 12.4938 14.7258 12.4805 14.7325 12.4672C14.7457 12.4472 14.7656 12.4339 14.7922 12.4273C14.8188 12.4208 14.8454 12.4208 14.8787 12.4341ZM14.8721 12.4607C14.8527 12.4541 14.8316 12.4541 14.8122 12.4607C14.7988 12.4607 14.7855 12.474 14.7723 12.494C14.7589 12.5073 14.7456 12.5405 14.739 12.5671C14.7257 12.6004 14.7257 12.6269 14.7257 12.6602C14.7257 12.6869 14.739 12.7068 14.7456 12.7268C14.759 12.7468 14.779 12.76 14.7922 12.7668C14.8008 12.7726 14.8108 12.7763 14.8213 12.7775C14.8317 12.7786 14.8423 12.7772 14.852 12.7733C14.8721 12.7668 14.8919 12.7534 14.9119 12.7334C14.9318 12.7135 14.945 12.6869 14.9518 12.6536C14.9584 12.6204 14.9584 12.5871 14.9518 12.5605C14.9515 12.5493 14.9491 12.5382 14.9445 12.5279C14.94 12.5176 14.9334 12.5084 14.9253 12.5006C14.9119 12.4807 14.8986 12.474 14.8721 12.4607Z" fill="black"/>
</g>
<defs>
<clipPath id="clip0_1692_54000">
<rect x="2.14258" y="5.8501" width="19.9495" height="13.2997" rx="1" fill="white"/>
</clipPath>
</defs>
</svg>
