<svg width="25" height="25" viewBox="0 0 25 25" fill="none" xmlns="http://www.w3.org/2000/svg">
<g clip-path="url(#clip0_1692_54034)">
<path d="M22.6273 5.8501H2.67773V19.1498H22.6273V5.8501Z" fill="#009E49"/>
<path d="M22.6273 5.8501H2.67773V12.4999H22.6273V5.8501Z" fill="#EF2B2D"/>
<path d="M12.7619 11.8151H13.1511L12.6533 10.2832L12.1556 11.8151H12.5448H12.7619Z" fill="#FCD116"/>
<path d="M12.0353 12.1852L12.1556 11.8151H10.5449L11.848 12.7618L11.9683 12.3916L12.0353 12.1852Z" fill="#FCD116"/>
<path d="M13.2714 12.1852L13.3384 12.3916L13.4587 12.7618L14.7618 11.8151H13.1511L13.2714 12.1852Z" fill="#FCD116"/>
<path d="M12.1629 12.9906L11.848 12.7618L11.3503 14.2937L12.6533 13.3469L12.3385 13.1181L12.1629 12.9906Z" fill="#FCD116"/>
<path d="M13.9564 14.2937L13.4587 12.7618L13.2427 12.9188L13.1438 12.9906L12.9682 13.1181L12.8694 13.19L12.6533 13.3469L13.9564 14.2937Z" fill="#FCD116"/>
<path d="M13.1511 11.8151H12.7619V12.1662L12.8144 12.0938L12.8703 12.2015L12.99 12.2214L12.9374 12.2937L13.2714 12.1852L13.1511 11.8151Z" fill="#FCD116"/>
<path d="M11.9683 12.3916L11.848 12.7618L12.1629 12.9906L12.3693 12.7065L12.2842 12.7342L12.3023 12.6142L12.2171 12.5278L12.3022 12.5001L11.9683 12.3916Z" fill="#FCD116"/>
<path d="M12.5448 11.8151H12.1556L12.0353 12.1852L12.3693 12.2937L12.3167 12.2214L12.4364 12.2015L12.4923 12.0938L12.5448 12.1662V11.8151Z" fill="#FCD116"/>
<path fill-rule="evenodd" clip-rule="evenodd" d="M12.7619 12.1662V11.8151H12.5448V12.1662L12.4923 12.0938L12.4364 12.2015L12.3167 12.2214L12.3693 12.2937L12.0353 12.1852L11.9683 12.3916L12.3022 12.5001L12.2171 12.5278L12.3023 12.6142L12.2842 12.7342L12.3693 12.7065L12.1629 12.9906L12.3385 13.1181L12.5338 12.8493L12.5448 12.8605V12.9235L12.5864 12.9027L12.8694 13.19L12.9682 13.1181L13.1438 12.9906L13.2427 12.9188L13.0569 12.5609L13.0895 12.5278L13.0296 12.5083L13.0223 12.4943L13.3384 12.3916L13.2714 12.1852L12.9374 12.2937L12.99 12.2214L12.8703 12.2015L12.8144 12.0938L12.7619 12.1662Z" fill="#FCD116"/>
<path d="M13.4587 12.7618L13.3384 12.3916L13.0223 12.4943L13.0296 12.5083L13.0895 12.5278L13.0569 12.5609L13.2427 12.9188L13.4587 12.7618Z" fill="#FCD116"/>
<path d="M12.3385 13.1181L12.6533 13.3469L12.8694 13.19L12.5864 12.9027L12.5448 12.9235V12.8605L12.5338 12.8493L12.3385 13.1181Z" fill="#FCD116"/>
</g>
<defs>
<clipPath id="clip0_1692_54034">
<rect x="2.67773" y="5.8501" width="19.9495" height="13.2997" rx="1" fill="white"/>
</clipPath>
</defs>
</svg>
