<svg width="25" height="25" viewBox="0 0 25 25" fill="none" xmlns="http://www.w3.org/2000/svg">
<g clip-path="url(#clip0_1692_53986)">
<path d="M2.1875 5.8501H22.137V19.1498H2.1875V5.8501Z" fill="#C8102E"/>
<mask id="mask0_1692_53986" style="mask-type:alpha" maskUnits="userSpaceOnUse" x="2" y="5" width="21" height="15">
<path d="M2.19138 5.84961H22.1409V19.1493H2.19138V5.84961Z" fill="white"/>
</mask>
<g mask="url(#mask0_1692_53986)">
<path d="M1.40817 5.44092V20.4834L22.9055 5.44092V20.4834L1.40817 5.44092Z" fill="#43B02A"/>
<path fill-rule="evenodd" clip-rule="evenodd" d="M0.624969 3.81055L12.1514 11.886L23.6777 3.81055V22.0898L12.1514 14.0143L0.624969 22.0898V3.81055ZM10.6325 12.9502L2.18787 7.03379V18.8665L10.6325 12.9502ZM13.6702 12.9502L22.1148 18.8665V7.03379L13.6702 12.9502Z" fill="white"/>
</g>
<path d="M12.1713 15.8922C14.0446 15.8922 15.5632 14.3736 15.5632 12.5003C15.5632 10.627 14.0446 9.1084 12.1713 9.1084C10.298 9.1084 8.77942 10.627 8.77942 12.5003C8.77942 14.3736 10.298 15.8922 12.1713 15.8922Z" fill="white"/>
<path d="M12.1711 10.0186L12.3808 10.3817H12.8L12.5905 10.7448L12.8 11.108H12.3808L12.1711 11.4711L11.9614 11.108H11.5422L11.7517 10.7448L11.5422 10.3817H11.9614L12.1711 10.0186Z" fill="#C8102E"/>
<path d="M14.3207 13.7417L13.9014 13.7417L13.6918 14.1047L13.482 13.7417L13.0628 13.7416L13.2724 13.3786L13.0628 13.0154L13.4821 13.0154L13.6917 12.6523L13.9014 13.0153L14.3207 13.0155L14.1111 13.3785L14.3207 13.7417Z" fill="#C8102E"/>
<path d="M10.0216 13.7417L10.2312 13.3785L10.0216 13.0155L10.4409 13.0153L10.6506 12.6523L10.8602 13.0154L11.2795 13.0154L11.0699 13.3786L11.2795 13.7416L10.8603 13.7417L10.6505 14.1047L10.4409 13.7417L10.0216 13.7417Z" fill="#C8102E"/>
<path fill-rule="evenodd" clip-rule="evenodd" d="M12.1747 9.94629L12.4052 10.3453H12.8658L12.6356 10.7444L12.8658 11.1434H12.4052L12.1747 11.5425L11.9443 11.1434H11.4837L11.7139 10.7444L11.4837 10.3453H11.9443L12.1747 9.94629ZM12.1747 10.0899L11.9858 10.4172H11.608L11.7968 10.7444L11.608 11.0716H11.9858L12.1747 11.3988L12.3637 11.0716H12.7415L12.5527 10.7444L12.7415 10.4172H12.3637L12.1747 10.0899Z" fill="#43B02A"/>
<path fill-rule="evenodd" clip-rule="evenodd" d="M14.3865 13.7771L13.9257 13.7772L13.6954 14.1761L13.4649 13.7772L13.0042 13.7771L13.2345 13.3781L13.0042 12.979L13.465 12.979L13.6953 12.5801L13.9258 12.979L14.3864 12.9791L14.1561 13.378L14.3865 13.7771ZM14.2621 13.7053L14.0732 13.378L14.2621 13.0509L13.8843 13.0508L13.6953 12.7237L13.5064 13.0508L13.1286 13.0509L13.3175 13.3781L13.1286 13.7053L13.5064 13.7054L13.6953 14.0325L13.8842 13.7053L14.2621 13.7053Z" fill="#43B02A"/>
<path fill-rule="evenodd" clip-rule="evenodd" d="M9.96301 13.7771L10.1934 13.378L9.96305 12.9791L10.4237 12.979L10.6542 12.5801L10.8845 12.979L11.3453 12.979L11.115 13.3781L11.3453 13.7771L10.8846 13.7772L10.6541 14.1761L10.4238 13.7772L9.96301 13.7771ZM10.0874 13.7053L10.4653 13.7053L10.6542 14.0325L10.8431 13.7054L11.2209 13.7053L11.032 13.3781L11.2209 13.0509L10.8431 13.0508L10.6542 12.7237L10.4652 13.0508L10.0874 13.0509L10.2763 13.378L10.0874 13.7053Z" fill="#43B02A"/>
</g>
<defs>
<clipPath id="clip0_1692_53986">
<rect x="2.1875" y="5.84961" width="19.9534" height="13.3001" rx="1" fill="white"/>
</clipPath>
</defs>
</svg>
