<svg width="24" height="24" viewBox="0 0 24 24" fill="none" xmlns="http://www.w3.org/2000/svg">
<path d="M12 8.99872L4.06386 14.1572C3.37601 14.6043 3.03209 14.8279 2.91297 15.1114C2.80888 15.3591 2.80888 15.6383 2.91297 15.8861M12 8.99872L19.9361 14.1572C20.624 14.6043 20.9679 14.8279 21.087 15.1114C21.1911 15.3591 21.1911 15.6383 21.087 15.8861M12 8.99872V2.49872M12 14.9987L4.06386 9.84023C3.37601 9.39313 3.03209 9.16958 2.91297 8.88608C2.80888 8.63833 2.80888 8.35911 2.91297 8.11136M12 14.9987L19.9361 9.84023C20.624 9.39313 20.9679 9.16958 21.087 8.88608C21.1911 8.63833 21.1911 8.35911 21.087 8.11136M12 14.9987V21.4987M21.272 15.9719L12.872 21.4319C12.5564 21.6371 12.3985 21.7397 12.2285 21.7796C12.0782 21.8149 11.9218 21.8149 11.7715 21.7796C11.6015 21.7397 11.4436 21.6371 11.128 21.4319L2.72802 15.9719C2.46201 15.799 2.32901 15.7126 2.23265 15.5973C2.14735 15.4952 2.08327 15.3771 2.04417 15.25C2 15.1063 2 14.9477 2 14.6304V9.36702C2 9.04976 2 8.89113 2.04417 8.74749C2.08327 8.62033 2.14735 8.50226 2.23265 8.40018C2.32901 8.28486 2.46201 8.19841 2.72802 8.02551L11.128 2.56551C11.4436 2.36035 11.6015 2.25778 11.7715 2.21787C11.9218 2.18259 12.0782 2.18259 12.2285 2.21787C12.3985 2.25778 12.5564 2.36035 12.872 2.56551L21.272 8.02551C21.538 8.19841 21.671 8.28486 21.7674 8.40018C21.8527 8.50226 21.9167 8.62033 21.9558 8.74749C22 8.89113 22 9.04976 22 9.36702V14.6304C22 14.9477 22 15.1063 21.9558 15.25C21.9167 15.3771 21.8527 15.4952 21.7674 15.5973C21.671 15.7126 21.538 15.799 21.272 15.9719Z" stroke="#1C1D20" stroke-width="1.5" stroke-linecap="round" stroke-linejoin="round"/>
</svg>
