<svg width="24" height="24" viewBox="0 0 24 24" fill="none" xmlns="http://www.w3.org/2000/svg">
<path d="M20.5 7.27832L12 12.0005M12 12.0005L3.49997 7.27832M12 12.0005L12 21.5006M21 12.0006V7.94202C21 7.59937 21 7.42805 20.9495 7.27526C20.9049 7.14008 20.8318 7.016 20.7354 6.91131C20.6263 6.79297 20.4766 6.70977 20.177 6.54337L12.777 2.43225C12.4934 2.2747 12.3516 2.19592 12.2015 2.16503C12.0685 2.1377 11.9315 2.1377 11.7986 2.16503C11.6484 2.19592 11.5066 2.2747 11.223 2.43226L3.82297 6.54337C3.52345 6.70977 3.37368 6.79297 3.26463 6.91131C3.16816 7.016 3.09515 7.14008 3.05048 7.27526C3 7.42806 3 7.59938 3 7.94202V16.0591C3 16.4018 3 16.5731 3.05048 16.7259C3.09515 16.8611 3.16816 16.9851 3.26463 17.0898C3.37368 17.2082 3.52346 17.2914 3.82297 17.4578L11.223 21.5689C11.5066 21.7264 11.6484 21.8052 11.7986 21.8361C11.9315 21.8634 12.0685 21.8634 12.2015 21.8361C12.3516 21.8052 12.4934 21.7264 12.777 21.5689L13 21.445M7.5 4.50057L16.5 9.50057M22 21.5006L21 20.5006M22 18.0006C22 19.6574 20.6569 21.0006 19 21.0006C17.3431 21.0006 16 19.6574 16 18.0006C16 16.3437 17.3431 15.0006 19 15.0006C20.6569 15.0006 22 16.3437 22 18.0006Z" stroke="#1C1D20" stroke-width="1.5" stroke-linecap="round" stroke-linejoin="round"/>
</svg>
