<svg width="24" height="24" viewBox="0 0 24 24" fill="none" xmlns="http://www.w3.org/2000/svg">
<path d="M20.5 7.27832L12 12.0005M12 12.0005L3.49997 7.27832M12 12.0005L12 21.5006M14 20.8895L12.777 21.5689C12.4934 21.7264 12.3516 21.8052 12.2015 21.8361C12.0685 21.8634 11.9315 21.8634 11.7986 21.8361C11.6484 21.8052 11.5066 21.7264 11.223 21.5689L3.82297 17.4578C3.52346 17.2914 3.37368 17.2082 3.26463 17.0898C3.16816 16.9851 3.09515 16.8611 3.05048 16.7259C3 16.5731 3 16.4018 3 16.0591V7.94202C3 7.59938 3 7.42806 3.05048 7.27526C3.09515 7.14008 3.16816 7.016 3.26463 6.91131C3.37368 6.79297 3.52345 6.70977 3.82297 6.54337L11.223 2.43226C11.5066 2.2747 11.6484 2.19592 11.7986 2.16503C11.9315 2.1377 12.0685 2.1377 12.2015 2.16503C12.3516 2.19592 12.4934 2.2747 12.777 2.43225L20.177 6.54337C20.4766 6.70977 20.6263 6.79297 20.7354 6.91131C20.8318 7.016 20.9049 7.14008 20.9495 7.27526C21 7.42805 21 7.59938 21 7.94202L21 12.5006M7.5 4.50057L16.5 9.50057M16 18.0006L18 20.0006L22 16.0006" stroke="#1C1D20" stroke-width="1.5" stroke-linecap="round" stroke-linejoin="round"/>
</svg>
