<svg width="24" height="24" viewBox="0 0 24 24" fill="none" xmlns="http://www.w3.org/2000/svg">
<path d="M2 14.4996L11.6422 19.3207C11.7734 19.3863 11.839 19.4191 11.9078 19.432C11.9687 19.4434 12.0313 19.4434 12.0922 19.432C12.161 19.4191 12.2266 19.3863 12.3578 19.3207L22 14.4996M2 9.49958L11.6422 4.67846C11.7734 4.61287 11.839 4.58008 11.9078 4.56717C11.9687 4.55574 12.0313 4.55574 12.0922 4.56717C12.161 4.58008 12.2266 4.61287 12.3578 4.67846L22 9.49958L12.3578 14.3207C12.2266 14.3863 12.161 14.4191 12.0922 14.432C12.0313 14.4434 11.9687 14.4434 11.9078 14.432C11.839 14.4191 11.7734 14.3863 11.6422 14.3207L2 9.49958Z" stroke="#1C1D20" stroke-width="1.5" stroke-linecap="round" stroke-linejoin="round"/>
</svg>
