<svg width="24" height="25" viewBox="0 0 24 25" fill="none" xmlns="http://www.w3.org/2000/svg">
<g clip-path="url(#clip0_1692_54070)">
<path d="M2.02539 5.50342H21.9749V18.8031H2.02539V5.50342Z" fill="#E32118"/>
<path d="M2.02539 5.50342H21.9749V14.3699H2.02539V5.50342Z" fill="white"/>
<path d="M2.02539 5.50342H21.9749V9.93664H2.02539V5.50342Z" fill="#3E9A00"/>
<path d="M2.02539 5.50342V18.8031L7.01277 12.1533L2.02539 5.50342Z" fill="#0073CE"/>
<path fill-rule="evenodd" clip-rule="evenodd" d="M10.9238 10.8027H13.0732V13.0396C13.0732 13.2296 13.0143 13.3384 12.9206 13.3985C12.8282 13.4576 12.7048 13.4672 12.5807 13.4664C12.5437 13.4661 12.5061 13.4649 12.469 13.4637C12.4438 13.4629 12.4188 13.4621 12.3945 13.4617C12.3338 13.4605 12.276 13.4611 12.2241 13.4681C12.1722 13.475 12.1269 13.4881 12.0907 13.5111C12.0549 13.5339 12.0273 13.5668 12.0111 13.6147L11.998 13.6536L11.9858 13.6144C11.971 13.5666 11.9446 13.5339 11.9097 13.5113C11.8746 13.4885 11.8301 13.4754 11.7786 13.4684C11.7272 13.4613 11.6698 13.4604 11.6092 13.461C11.5891 13.4612 11.5685 13.4616 11.5477 13.462C11.5065 13.4628 11.4646 13.4637 11.4232 13.4631C11.2989 13.4615 11.175 13.4477 11.0823 13.3818C10.9884 13.3151 10.9294 13.1974 10.9294 12.9953C10.9294 12.6073 10.928 12.0625 10.9267 11.6147C10.926 11.3908 10.9253 11.1912 10.9247 11.0475C10.9245 10.9756 10.9243 10.9178 10.9241 10.8779L10.9239 10.8161C10.9239 10.8161 10.9239 10.8161 10.9372 10.816L10.9239 10.8161L10.9238 10.8027ZM10.9505 10.8293L10.9507 10.8778C10.9509 10.9177 10.9511 10.9755 10.9513 11.0474C10.9519 11.1911 10.9526 11.3907 10.9533 11.6146C10.9546 12.0625 10.956 12.6073 10.956 12.9953C10.956 13.1922 11.0132 13.3001 11.0977 13.3601C11.1832 13.4209 11.2997 13.4349 11.4236 13.4365C11.4645 13.4371 11.5057 13.4363 11.5466 13.4355C11.5675 13.4351 11.5883 13.4347 11.609 13.4344C11.6697 13.4338 11.7287 13.4347 11.7822 13.442C11.8356 13.4493 11.8845 13.4632 11.9242 13.489C11.9559 13.5095 11.9814 13.5374 11.999 13.5747C12.0176 13.5373 12.044 13.5092 12.0765 13.4886C12.1171 13.4628 12.1666 13.4489 12.2206 13.4417C12.2746 13.4345 12.334 13.4338 12.395 13.4351C12.4201 13.4356 12.4453 13.4364 12.4705 13.4372C12.5072 13.4383 12.544 13.4395 12.5808 13.4398C12.7049 13.4406 12.8211 13.4306 12.9062 13.3761C12.99 13.3225 13.0466 13.2238 13.0466 13.0396V10.8293H10.9505Z" fill="black"/>
<path d="M12.1525 13.2558C12.1525 13.2558 12.1248 13.2835 12.075 13.2614C12.0251 13.2392 12.0195 11.837 12.0195 11.837C12.1304 11.7151 12.2191 11.6763 12.2191 11.6763L12.2856 11.7317C12.0362 11.8592 12.0583 12.0421 12.0805 12.358C12.086 12.4744 12.086 12.624 12.1138 12.7681C12.1525 12.951 12.2301 13.1062 12.2357 13.2226C12.2412 13.2946 12.1525 13.2558 12.1525 13.2558Z" fill="#73452B"/>
<path fill-rule="evenodd" clip-rule="evenodd" d="M12.2184 11.6724L12.2894 11.7316L12.2857 11.7335C12.2236 11.7652 12.1786 11.8003 12.1462 11.84C12.1139 11.8796 12.0941 11.9239 12.0828 11.9741C12.0616 12.0679 12.0697 12.1822 12.0799 12.3254C12.0806 12.3358 12.0814 12.3464 12.0821 12.3571L12.0821 12.3572C12.0832 12.3799 12.0841 12.4039 12.085 12.4288C12.0887 12.5317 12.0931 12.6511 12.1153 12.7669C12.1326 12.8485 12.1577 12.9245 12.1806 12.9942C12.1834 13.0025 12.186 13.0107 12.1887 13.0187C12.2136 13.0949 12.2345 13.1631 12.2373 13.2217C12.2387 13.2402 12.2341 13.2523 12.2257 13.2596C12.2174 13.2667 12.206 13.2687 12.195 13.2683C12.1839 13.268 12.1727 13.2653 12.1644 13.2627C12.1602 13.2615 12.1567 13.2602 12.1542 13.2593C12.1533 13.2589 12.1526 13.2586 12.152 13.2584L12.1519 13.2584C12.151 13.2592 12.1496 13.2603 12.1478 13.2614C12.1443 13.2638 12.139 13.2667 12.1322 13.2689C12.1184 13.2732 12.0983 13.2746 12.0727 13.2632C12.0713 13.2626 12.0702 13.2615 12.0693 13.2603C12.0684 13.2591 12.0675 13.2575 12.0667 13.2558C12.0652 13.2523 12.0637 13.2475 12.0623 13.2417C12.0595 13.23 12.0568 13.2137 12.0544 13.1935C12.0494 13.1529 12.0451 13.0962 12.0414 13.0289C12.0338 12.8943 12.0284 12.7169 12.0246 12.5403C12.0208 12.3636 12.0186 12.1876 12.0173 12.0558C12.0166 11.9899 12.0162 11.935 12.016 11.8966C12.0158 11.8774 12.0158 11.8624 12.0157 11.8521L12.0156 11.8363C12.0156 11.8363 12.0156 11.8363 12.0184 11.8363L12.0156 11.8363L12.0156 11.8352L12.0163 11.8345C12.0719 11.7733 12.122 11.733 12.1582 11.7079C12.1762 11.6954 12.1909 11.6867 12.201 11.6811C12.2061 11.6783 12.21 11.6763 12.2127 11.675C12.214 11.6743 12.215 11.6739 12.2157 11.6735C12.2161 11.6734 12.2163 11.6733 12.2165 11.6732L12.2167 11.6731L12.2168 11.6731L12.2168 11.6731C12.2168 11.6731 12.2168 11.673 12.2179 11.6756L12.2168 11.6731L12.2184 11.6724ZM12.2175 11.6788C12.2169 11.6791 12.2161 11.6795 12.2151 11.68C12.2125 11.6813 12.2087 11.6832 12.2037 11.686C12.1937 11.6915 12.1792 11.7001 12.1613 11.7125C12.1256 11.7372 12.0762 11.777 12.0212 11.8374L12.0212 11.8521C12.0213 11.8623 12.0214 11.8774 12.0215 11.8966C12.0218 11.935 12.0222 11.9898 12.0228 12.0557C12.0241 12.1875 12.0264 12.3635 12.0302 12.5401C12.034 12.7168 12.0394 12.8941 12.0469 13.0286C12.0507 13.0959 12.055 13.1524 12.0599 13.1928C12.0623 13.213 12.0649 13.2291 12.0677 13.2404C12.069 13.2461 12.0704 13.2504 12.0718 13.2535C12.0725 13.2551 12.0731 13.2562 12.0737 13.257C12.0743 13.2578 12.0748 13.2581 12.0749 13.2582C12.0993 13.269 12.118 13.2675 12.1305 13.2636C12.1368 13.2616 12.1416 13.259 12.1448 13.2568C12.1464 13.2558 12.1476 13.2548 12.1484 13.2542C12.1487 13.2538 12.149 13.2536 12.1492 13.2534L12.1494 13.2532L12.1495 13.2532L12.1508 13.2519L12.1525 13.2526L12.1526 13.2526L12.1528 13.2527C12.1529 13.2528 12.1532 13.2529 12.1535 13.253C12.1541 13.2533 12.155 13.2536 12.1562 13.2541C12.1586 13.255 12.162 13.2562 12.166 13.2574C12.1741 13.2599 12.1848 13.2624 12.1952 13.2628C12.2056 13.2631 12.2153 13.2612 12.2221 13.2554C12.2287 13.2497 12.2331 13.2396 12.2318 13.2221L12.2318 13.222C12.229 13.1643 12.2084 13.0967 12.1834 13.0205C12.1808 13.0124 12.1781 13.0042 12.1754 12.996C12.1524 12.9263 12.1273 12.8499 12.1099 12.768L12.1099 12.7679C12.0875 12.6517 12.0832 12.5318 12.0794 12.4288C12.0785 12.4039 12.0777 12.3801 12.0766 12.3575C12.0758 12.3466 12.0751 12.3359 12.0743 12.3254C12.0642 12.1826 12.056 12.0675 12.0774 11.9729C12.0889 11.922 12.109 11.8769 12.1419 11.8365C12.1742 11.7969 12.2187 11.762 12.2794 11.7305L12.2175 11.6788Z" fill="black"/>
<path fill-rule="evenodd" clip-rule="evenodd" d="M12.1487 13.2549C12.1597 13.139 12.1376 13.0175 12.0878 12.8792L12.0931 12.8773C12.143 13.0161 12.1653 13.1385 12.1542 13.2554L12.1487 13.2549Z" fill="black"/>
<path d="M11.981 11.6426H12.0807C11.9976 12.4462 12.0696 12.9229 12.0696 13.1556C12.0696 13.2332 12.114 13.2609 12.1084 13.2609C12.0087 13.3718 11.9588 13.2554 11.9588 13.2554L11.981 11.6426Z" fill="#73452B"/>
<path fill-rule="evenodd" clip-rule="evenodd" d="M11.981 11.6401H12.0866L12.0863 11.6432C12.0237 12.2484 12.0491 12.6679 12.0655 12.9377C12.0708 13.0261 12.0752 13.0984 12.0752 13.156C12.0752 13.1942 12.0861 13.22 12.0963 13.2362C12.1013 13.2444 12.1062 13.2501 12.1096 13.2539C12.1099 13.2543 12.1103 13.2547 12.1106 13.2551C12.1118 13.2564 12.1128 13.2575 12.1134 13.2583C12.1136 13.2585 12.1138 13.2588 12.114 13.2592C12.1141 13.2594 12.1144 13.26 12.1145 13.2607C12.1145 13.2616 12.1142 13.2627 12.1132 13.2635C12.113 13.2636 12.1129 13.2636 12.1128 13.2637C12.0878 13.2913 12.0657 13.305 12.0464 13.3099C12.0269 13.3147 12.0106 13.3104 11.9975 13.3024C11.9846 13.2945 11.975 13.2831 11.9686 13.2737C11.9655 13.269 11.9631 13.2648 11.9615 13.2618C11.9607 13.2603 11.9601 13.259 11.9597 13.2582C11.9595 13.2578 11.9593 13.2574 11.9592 13.2572L11.9591 13.2569L11.959 13.2568L11.959 13.2568C11.959 13.2568 11.959 13.2568 11.9616 13.2557L11.959 13.2568L11.9588 13.2563L11.981 11.6401ZM11.9644 13.2552C11.9644 13.2553 11.9645 13.2556 11.9647 13.2558C11.965 13.2566 11.9656 13.2578 11.9664 13.2592C11.9679 13.2621 11.9702 13.2661 11.9732 13.2706C11.9793 13.2796 11.9884 13.2904 12.0004 13.2977C12.0124 13.305 12.0272 13.3089 12.0451 13.3045C12.0628 13.3 12.0838 13.2873 12.1081 13.2606C12.1077 13.2601 12.1072 13.2596 12.1066 13.2589C12.1063 13.2585 12.1059 13.2581 12.1054 13.2576C12.102 13.2537 12.0969 13.2477 12.0916 13.2392C12.0809 13.2222 12.0697 13.1953 12.0697 13.156C12.0697 13.0987 12.0653 13.0266 12.0599 12.9385C12.0436 12.6692 12.0182 12.2498 12.0804 11.6457H11.9865L11.9644 13.2552Z" fill="black"/>
<path d="M11.8298 13.2545C11.7355 13.2988 11.7221 13.2113 11.7276 13.2002C11.9327 12.7846 12.0214 11.8701 11.8329 11.7703L11.844 11.6816C11.9161 11.7038 11.9826 11.798 11.9826 11.798C12.0103 12.8234 11.9821 13.2429 11.9655 13.2596C11.8657 13.3649 11.8281 13.2458 11.8226 13.2347" fill="#A36629"/>
<path fill-rule="evenodd" clip-rule="evenodd" d="M11.8445 11.6777L11.8476 11.6787C11.8843 11.69 11.9194 11.7195 11.9451 11.7459C11.958 11.7592 11.9686 11.7717 11.976 11.7809C11.9797 11.7856 11.9826 11.7893 11.9846 11.792C11.9856 11.7933 11.9863 11.7943 11.9868 11.7951L11.9874 11.7959L11.9876 11.7961L11.9876 11.7961L11.9876 11.7961C11.9876 11.7961 11.9876 11.7961 11.9853 11.7977L11.9876 11.7961L11.9881 11.7968L11.9881 11.7977C12.002 12.3104 12.0019 12.6716 11.9962 12.9068C11.9934 13.0244 11.9892 13.1105 11.9846 13.1683C11.9823 13.1972 11.98 13.219 11.9777 13.2342C11.9765 13.2418 11.9753 13.2477 11.9742 13.2521C11.9736 13.2543 11.973 13.2561 11.9724 13.2576C11.9719 13.259 11.9712 13.2603 11.9703 13.2612C11.9451 13.2877 11.9236 13.3005 11.9052 13.3041C11.8866 13.3078 11.8716 13.3021 11.8598 13.2927C11.848 13.2833 11.8395 13.2703 11.8336 13.2591C11.8332 13.2585 11.8329 13.2579 11.8326 13.2572C11.8092 13.268 11.7905 13.2709 11.7756 13.2687C11.7605 13.2665 11.7495 13.2589 11.7419 13.2496C11.7343 13.2403 11.7301 13.2293 11.7281 13.2199C11.7271 13.2152 11.7266 13.2109 11.7266 13.2073C11.7265 13.2039 11.7269 13.2007 11.7279 13.1987C11.8302 12.9913 11.9036 12.6592 11.9279 12.3663C11.94 12.2199 11.9398 12.0835 11.9248 11.9775C11.9174 11.9245 11.9062 11.8792 11.8911 11.8442C11.8761 11.8091 11.8572 11.7845 11.8344 11.7725L11.8327 11.7716L11.8445 11.6777ZM11.8301 13.2523C11.8287 13.2493 11.8275 13.2465 11.8265 13.2441C11.8257 13.2423 11.8251 13.2408 11.8245 13.2395C11.8238 13.2377 11.8233 13.2364 11.8229 13.2357L11.8278 13.2332C11.8283 13.2341 11.829 13.2357 11.8298 13.2378C11.8303 13.239 11.8309 13.2404 11.8316 13.2419C11.8333 13.246 11.8356 13.2511 11.8385 13.2565C11.8442 13.2675 11.8524 13.2797 11.8632 13.2883C11.874 13.2969 11.8874 13.302 11.9041 13.2987C11.921 13.2954 11.9415 13.2835 11.9663 13.2574L11.9663 13.2573C11.9664 13.2572 11.9668 13.2567 11.9673 13.2555C11.9678 13.2543 11.9683 13.2527 11.9688 13.2507C11.9699 13.2466 11.971 13.2408 11.9722 13.2333C11.9745 13.2184 11.9768 13.1967 11.9791 13.1679C11.9836 13.1102 11.9878 13.0243 11.9907 12.9067C11.9963 12.6718 11.9964 12.3109 11.9826 11.7987L11.9823 11.7983C11.9818 11.7976 11.9811 11.7966 11.9801 11.7953C11.9782 11.7927 11.9753 11.789 11.9717 11.7844C11.9643 11.7753 11.9538 11.7629 11.9411 11.7498C11.9163 11.7243 11.8833 11.6966 11.8491 11.685L11.8387 11.7685C11.8623 11.7817 11.8813 11.8072 11.8962 11.842C11.9116 11.8776 11.9228 11.9234 11.9303 11.9767C11.9454 12.0832 11.9455 12.2201 11.9334 12.3668C11.9091 12.66 11.8356 12.9929 11.7329 13.2012C11.7325 13.2019 11.7321 13.204 11.7321 13.2073C11.7321 13.2104 11.7325 13.2144 11.7335 13.2188C11.7354 13.2275 11.7393 13.2377 11.7462 13.2461C11.753 13.2545 11.7628 13.2612 11.7765 13.2632C11.7899 13.2652 11.8075 13.2627 11.8301 13.2523Z" fill="black"/>
<path fill-rule="evenodd" clip-rule="evenodd" d="M11.8436 13.1469C11.8311 13.1842 11.8245 13.2142 11.8285 13.2356L11.8231 13.2366C11.8188 13.2136 11.8259 13.1823 11.8383 13.1451C11.8464 13.1209 11.8569 13.0937 11.8683 13.0644C11.8744 13.0487 11.8807 13.0323 11.887 13.0154C11.9235 12.9185 11.9604 12.8032 11.9549 12.6846L11.9604 12.6844C11.966 12.8042 11.9287 12.9203 11.8922 13.0174C11.8858 13.0344 11.8795 13.0509 11.8734 13.0666C11.8621 13.0958 11.8516 13.1227 11.8436 13.1469Z" fill="black"/>
<path d="M12.3059 11.2656C12.3392 11.2268 12.3392 11.2268 12.4001 11.2268C12.4112 11.1437 12.5498 11.1437 12.5608 11.249C12.6717 11.2268 12.6939 11.2933 12.6495 11.3598C12.7548 11.3321 12.849 11.3598 12.8213 11.4818C13.0098 11.5316 12.9377 11.6647 12.8546 11.6924C12.8435 11.7755 12.7659 11.8032 12.6606 11.77C12.5276 11.8642 12.45 11.8309 12.389 11.7367C12.2394 11.7589 12.2283 11.7256 12.1618 11.6425C12.0454 11.6924 12.0232 11.6924 11.9235 11.6314C11.9179 11.709 11.8902 11.6868 11.8403 11.6813C11.8459 11.781 11.8071 11.8254 11.7184 11.7921C11.7849 11.9307 11.6131 11.9917 11.53 11.8753C11.4524 11.8808 11.4468 11.8586 11.408 11.8309C11.3748 11.9418 11.2529 11.9251 11.2307 11.8642C11.0755 11.842 11.0921 11.7589 11.2196 11.7533C11.2307 11.6647 11.3083 11.6813 11.3582 11.6924C11.3637 11.6369 11.397 11.648 11.4247 11.6591C11.408 11.6203 11.4191 11.5982 11.469 11.5871C11.397 11.4928 11.4413 11.4596 11.5133 11.4263C11.4746 11.3377 11.5411 11.3432 11.5909 11.3377C11.5854 11.2434 11.6131 11.2268 11.7129 11.2157C11.7018 11.1825 11.7184 11.1548 11.7738 11.1548C11.7406 11.0605 11.7849 11.0389 11.8847 11.055C11.9013 10.9181 12.1951 10.983 12.1729 11.1714C12.256 11.1825 12.2837 11.1991 12.3059 11.2656Z" fill="#009A3B"/>
<path fill-rule="evenodd" clip-rule="evenodd" d="M11.9396 10.9919C11.9109 11.0018 11.8903 11.0227 11.8863 11.0557L11.886 11.0585L11.8831 11.0581C11.8583 11.0541 11.837 11.0524 11.8197 11.0537C11.8023 11.0549 11.789 11.0589 11.78 11.066C11.771 11.0731 11.7657 11.0833 11.7647 11.0977C11.7637 11.1122 11.7671 11.1308 11.7753 11.1542L11.7766 11.1579H11.7727C11.7453 11.1579 11.7283 11.1647 11.7194 11.1749C11.7105 11.185 11.709 11.1991 11.7144 11.2152L11.7155 11.2184L11.712 11.2188C11.6871 11.2216 11.6669 11.2247 11.6506 11.2292C11.6342 11.2337 11.6221 11.2396 11.6132 11.2479C11.5955 11.2643 11.5898 11.2908 11.5926 11.3378L11.5927 11.3405L11.5901 11.3407C11.5847 11.3413 11.5791 11.3418 11.5734 11.3423C11.5726 11.3424 11.5717 11.3424 11.5708 11.3425C11.5643 11.3431 11.5578 11.3436 11.5515 11.3445C11.539 11.3461 11.5277 11.3486 11.5191 11.3536C11.5108 11.3584 11.5051 11.3655 11.5037 11.3765C11.5022 11.3878 11.5051 11.4036 11.5148 11.4256L11.5158 11.428L11.5134 11.4292C11.4954 11.4375 11.4793 11.4457 11.4664 11.4548C11.4534 11.4639 11.4438 11.4738 11.4385 11.4853C11.4281 11.5081 11.4342 11.5388 11.4701 11.5857L11.4727 11.5892L11.4685 11.5901C11.4437 11.5956 11.4295 11.6037 11.4232 11.6144C11.4169 11.625 11.4179 11.6392 11.4261 11.6584L11.4287 11.6645L11.4225 11.662C11.4156 11.6593 11.4085 11.6565 11.4016 11.6549C11.3947 11.6532 11.3882 11.6526 11.3826 11.6538C11.377 11.6551 11.3721 11.6581 11.3682 11.6641C11.3642 11.6702 11.3611 11.6794 11.3598 11.693L11.3595 11.6961L11.3564 11.6954C11.3314 11.6898 11.3001 11.6831 11.2738 11.6885C11.2607 11.6912 11.249 11.6968 11.2398 11.707C11.2307 11.7172 11.2239 11.7322 11.2212 11.754L11.2209 11.7563L11.2186 11.7564C11.187 11.7578 11.1625 11.764 11.1459 11.7727C11.1292 11.7814 11.1211 11.7923 11.1208 11.8029C11.1205 11.8136 11.1279 11.8255 11.1459 11.8362C11.1637 11.847 11.1914 11.8563 11.2299 11.8618L11.2316 11.862L11.2322 11.8636C11.2427 11.8926 11.2774 11.9116 11.3139 11.9095C11.3501 11.9075 11.388 11.8848 11.4043 11.8305L11.4054 11.8268L11.4085 11.829C11.4164 11.8346 11.423 11.8401 11.4289 11.845C11.4304 11.8462 11.4318 11.8474 11.4332 11.8485C11.4403 11.8544 11.4469 11.8594 11.4546 11.8634C11.4699 11.8714 11.4901 11.8756 11.5286 11.8728L11.5302 11.8727L11.5311 11.874C11.572 11.9312 11.6344 11.9446 11.6781 11.9271C11.7 11.9183 11.7172 11.9019 11.725 11.8794C11.7327 11.8568 11.7312 11.8278 11.7148 11.7937L11.7118 11.7874L11.7183 11.7899C11.7622 11.8064 11.7927 11.8032 11.8117 11.7849C11.8308 11.7664 11.8392 11.7315 11.8364 11.6818L11.8363 11.6785L11.8395 11.6789C11.8485 11.6799 11.8569 11.6814 11.8644 11.6828C11.8674 11.6833 11.8702 11.6839 11.8729 11.6843C11.8826 11.686 11.8904 11.6867 11.8967 11.6852C11.9028 11.6837 11.9077 11.68 11.9115 11.6719C11.9155 11.6636 11.9182 11.6508 11.9196 11.6315L11.9199 11.627L11.9238 11.6294C11.9737 11.6599 12.0036 11.6747 12.0354 11.6761C12.0672 11.6774 12.1013 11.6653 12.1596 11.6403L12.1615 11.6394L12.1628 11.6411C12.1684 11.648 12.1735 11.6545 12.1783 11.6607C12.1881 11.6732 12.1968 11.6843 12.2053 11.6939C12.2179 11.7082 12.2299 11.7192 12.2444 11.727C12.2734 11.7425 12.3127 11.7454 12.3875 11.7343L12.3893 11.734L12.3902 11.7355C12.4205 11.7824 12.4546 11.8135 12.4972 11.8216C12.5398 11.8297 12.5916 11.815 12.6579 11.768L12.659 11.7672L12.6603 11.7677C12.7126 11.7842 12.7577 11.7854 12.7908 11.7726C12.8237 11.7598 12.8453 11.733 12.8507 11.6923L12.8509 11.6906L12.8526 11.6901C12.8934 11.6765 12.9312 11.6371 12.9359 11.5954C12.9382 11.5747 12.9325 11.5534 12.9146 11.534C12.8966 11.5146 12.8663 11.4972 12.8195 11.4848L12.8169 11.4841L12.8175 11.4815C12.8244 11.4513 12.8236 11.4273 12.8172 11.4086C12.8109 11.39 12.7989 11.3765 12.7828 11.3674C12.7505 11.3492 12.7015 11.3491 12.6491 11.3628L12.642 11.3647L12.6461 11.3586C12.668 11.3257 12.6729 11.2937 12.6599 11.273C12.647 11.2523 12.6154 11.241 12.5603 11.252L12.5573 11.2526L12.557 11.2496C12.5516 11.1984 12.5154 11.173 12.4791 11.1703C12.4428 11.1676 12.407 11.1878 12.4017 11.2275L12.4014 11.2299H12.399C12.3837 11.2299 12.3724 11.2299 12.3634 11.2305C12.3544 11.2311 12.348 11.2323 12.3425 11.2346C12.3315 11.2391 12.3237 11.2481 12.3069 11.2677L12.3037 11.2715L12.3021 11.2668C12.2911 11.2338 12.2789 11.2137 12.2595 11.2003C12.24 11.1869 12.2129 11.18 12.1714 11.1745L12.1687 11.1741L12.169 11.1714C12.1799 11.079 12.1134 11.0166 12.0414 10.9942C12.0054 10.983 11.9685 10.9819 11.9396 10.9919ZM12.1748 11.1693C12.1845 11.0748 12.1158 11.0116 12.043 10.9889C12.0062 10.9774 11.968 10.9762 11.9378 10.9866C11.9083 10.9969 11.8863 11.0184 11.8812 11.0522C11.8573 11.0484 11.8366 11.0469 11.8193 11.0481C11.8013 11.0494 11.7869 11.0536 11.7765 11.0617C11.7661 11.0698 11.7603 11.0816 11.7592 11.0973C11.7582 11.1121 11.7614 11.1303 11.7688 11.1524C11.7429 11.153 11.7252 11.1599 11.7152 11.1713C11.7053 11.1826 11.7036 11.1977 11.7081 11.2137C11.6846 11.2164 11.6651 11.2194 11.6491 11.2239C11.6323 11.2285 11.6192 11.2347 11.6094 11.2438C11.5901 11.2617 11.5845 11.2899 11.5869 11.3355C11.5824 11.336 11.5777 11.3364 11.573 11.3368C11.5721 11.3368 11.5712 11.3369 11.5703 11.337C11.5638 11.3375 11.5572 11.3381 11.5508 11.339C11.5381 11.3406 11.5259 11.3433 11.5164 11.3488C11.5067 11.3543 11.4999 11.3628 11.4982 11.3758C11.4966 11.3881 11.4997 11.4042 11.5086 11.4253C11.4915 11.4332 11.4759 11.4413 11.4632 11.4503C11.4498 11.4597 11.4393 11.4703 11.4335 11.483C11.422 11.5081 11.4292 11.5402 11.4631 11.5857C11.4404 11.5912 11.4255 11.5995 11.4184 11.6116C11.4116 11.6232 11.4123 11.6375 11.4186 11.6545C11.4134 11.6526 11.4081 11.6508 11.4029 11.6495C11.3956 11.6477 11.3882 11.6469 11.3814 11.6484C11.3744 11.65 11.3683 11.6539 11.3635 11.661C11.3592 11.6676 11.3562 11.6768 11.3546 11.6893C11.3302 11.6839 11.2992 11.6776 11.2726 11.6831C11.2587 11.6859 11.2458 11.692 11.2357 11.7033C11.226 11.7142 11.219 11.7296 11.216 11.751C11.185 11.7526 11.1604 11.7588 11.1433 11.7678C11.1259 11.7769 11.1156 11.7892 11.1152 11.8028C11.1149 11.8164 11.1244 11.8298 11.143 11.841C11.1614 11.8521 11.1894 11.8614 11.2275 11.867C11.2398 11.898 11.2766 11.9172 11.3142 11.9151C11.352 11.913 11.3908 11.8896 11.4084 11.8358C11.4148 11.8405 11.4202 11.845 11.4253 11.8492C11.4268 11.8504 11.4282 11.8516 11.4297 11.8528C11.4369 11.8587 11.4438 11.8641 11.452 11.8684C11.4684 11.8769 11.4894 11.881 11.5275 11.8785C11.5698 11.9366 11.6342 11.9506 11.6802 11.9322C11.7034 11.9229 11.7219 11.9054 11.7302 11.8812C11.7381 11.8583 11.7368 11.8299 11.7225 11.7973C11.7641 11.8116 11.7953 11.8085 11.8155 11.7889C11.8361 11.7691 11.8444 11.7331 11.8421 11.6848C11.8497 11.6857 11.8566 11.687 11.8631 11.6882C11.8662 11.6888 11.8691 11.6893 11.872 11.6898C11.8817 11.6914 11.8905 11.6924 11.8981 11.6905C11.9059 11.6886 11.9121 11.6836 11.9165 11.6742C11.9206 11.6657 11.9233 11.6535 11.9248 11.6364C11.9723 11.6654 12.0027 11.6802 12.0352 11.6816C12.0681 11.683 12.1029 11.6705 12.1598 11.6462C12.1647 11.6524 12.1694 11.6583 12.1738 11.664C12.1837 11.6766 12.1925 11.6878 12.2011 11.6976C12.2139 11.7121 12.2265 11.7237 12.2418 11.7319C12.2722 11.7481 12.3128 11.7508 12.3865 11.74C12.417 11.7866 12.4519 11.8186 12.4962 11.8271C12.5406 11.8355 12.5937 11.82 12.66 11.7733C12.7124 11.7897 12.7583 11.7911 12.7928 11.7777C12.8273 11.7644 12.8499 11.7363 12.856 11.6948C12.8977 11.6802 12.9365 11.6397 12.9414 11.596C12.9439 11.5737 12.9376 11.5508 12.9186 11.5303C12.9 11.5102 12.8695 11.4926 12.8235 11.4801C12.8299 11.4505 12.8291 11.4262 12.8225 11.4068C12.8157 11.3868 12.8027 11.3723 12.7855 11.3626C12.7528 11.3442 12.7049 11.3436 12.6545 11.3558C12.6737 11.3241 12.6785 11.2922 12.6646 11.27C12.65 11.2467 12.6161 11.2358 12.5621 11.246C12.5553 11.1939 12.5174 11.1676 12.4796 11.1648C12.4418 11.162 12.4035 11.1826 12.3966 11.2244C12.3826 11.2244 12.3718 11.2244 12.363 11.225C12.3538 11.2256 12.3467 11.2268 12.3404 11.2294C12.3287 11.2343 12.3203 11.2436 12.3058 11.2605C12.295 11.2296 12.2825 11.2095 12.2627 11.1958C12.2425 11.1818 12.2149 11.1748 12.1748 11.1693Z" fill="black"/>
<path fill-rule="evenodd" clip-rule="evenodd" d="M11.7271 11.2241C11.7217 11.2227 11.7159 11.2213 11.7105 11.2185L11.713 11.2136C11.7179 11.216 11.723 11.2173 11.7285 11.2187C11.7289 11.2188 11.7293 11.2189 11.7297 11.219C11.7354 11.2205 11.7415 11.2221 11.7471 11.2255C11.7575 11.2317 11.7655 11.2435 11.769 11.2686C11.779 11.253 11.7896 11.243 11.8003 11.238C11.8126 11.2322 11.8247 11.2333 11.8352 11.2401C11.8455 11.2467 11.8541 11.2587 11.8602 11.2745C11.8662 11.2903 11.8697 11.31 11.8697 11.3324H11.8642C11.8642 11.3106 11.8607 11.2915 11.855 11.2765C11.8492 11.2614 11.8412 11.2505 11.8322 11.2447C11.8233 11.239 11.8132 11.238 11.8026 11.243C11.7919 11.248 11.7805 11.2593 11.7696 11.2784L11.7652 11.286L11.7644 11.2773C11.7617 11.2472 11.7535 11.2358 11.7443 11.2302C11.7395 11.2273 11.7341 11.2259 11.7283 11.2244C11.7279 11.2243 11.7275 11.2242 11.7271 11.2241Z" fill="black"/>
<path fill-rule="evenodd" clip-rule="evenodd" d="M12.1448 11.1899C12.1555 11.1839 12.1643 11.1779 12.1694 11.1702L12.1741 11.1733C12.1681 11.1822 12.1582 11.1887 12.1475 11.1947C12.1443 11.1965 12.1411 11.1983 12.1378 11.2001C12.1297 11.2044 12.1215 11.2088 12.1137 11.2142C12.1029 11.2217 12.0932 11.2307 12.0869 11.2431C12.0806 11.2555 12.0776 11.2716 12.0803 11.2933L12.0753 11.2953C12.0618 11.2764 12.0417 11.2644 12.0224 11.2618C12.0032 11.2591 11.9851 11.2657 11.9746 11.2839L11.9698 11.2812C11.9816 11.2606 12.0022 11.2534 12.0232 11.2563C12.0414 11.2588 12.06 11.2689 12.0739 11.2847C12.0729 11.2666 12.0761 11.2523 12.082 11.2406C12.0889 11.2271 12.0993 11.2174 12.1106 11.2096C12.1186 11.2041 12.1273 11.1994 12.1354 11.195C12.1386 11.1933 12.1418 11.1916 12.1448 11.1899Z" fill="black"/>
<path fill-rule="evenodd" clip-rule="evenodd" d="M12.2965 11.3223C12.3006 11.2989 12.302 11.2769 12.302 11.2659H12.3075C12.3075 11.2772 12.3061 11.2995 12.302 11.3232C12.2978 11.3469 12.2908 11.3723 12.2794 11.3894L12.2748 11.3863C12.2855 11.3702 12.2924 11.3457 12.2965 11.3223Z" fill="black"/>
<path fill-rule="evenodd" clip-rule="evenodd" d="M12.6459 11.3607C12.6459 11.3616 12.6464 11.3621 12.6464 11.3621L12.6504 11.3582C12.6508 11.3586 12.6514 11.3594 12.6514 11.3606C12.6515 11.3619 12.6508 11.3627 12.6502 11.3632C12.6497 11.3636 12.6492 11.3639 12.6487 11.364C12.6483 11.3642 12.6477 11.3644 12.6472 11.3645C12.6452 11.365 12.642 11.3653 12.6383 11.3657C12.6358 11.3659 12.6329 11.3661 12.6298 11.3664C12.6233 11.3669 12.6156 11.3675 12.6071 11.3685C12.5822 11.3712 12.5524 11.3767 12.5336 11.3901L12.5304 11.3856C12.5504 11.3713 12.5816 11.3657 12.6065 11.3629C12.615 11.362 12.623 11.3614 12.6295 11.3609C12.6326 11.3606 12.6354 11.3604 12.6378 11.3602C12.6416 11.3598 12.6443 11.3595 12.6459 11.3591C12.6463 11.359 12.6466 11.3589 12.6467 11.3589C12.6468 11.3589 12.6468 11.3588 12.6468 11.3588C12.6468 11.3588 12.6467 11.3589 12.6466 11.359C12.6464 11.3592 12.6459 11.3598 12.6459 11.3607Z" fill="black"/>
<path fill-rule="evenodd" clip-rule="evenodd" d="M12.7564 11.6906C12.7562 11.6789 12.7549 11.6622 12.7486 11.6473C12.7447 11.6379 12.7387 11.6291 12.7296 11.6227C12.7205 11.6163 12.7085 11.6123 12.6927 11.6123V11.6179C12.7075 11.6179 12.7183 11.6216 12.7264 11.6272C12.7344 11.6329 12.7399 11.6408 12.7435 11.6494C12.7509 11.6669 12.7509 11.6871 12.7509 11.6982V11.7066L12.7559 11.6999C12.764 11.6892 12.7726 11.683 12.7812 11.6797C12.7898 11.6764 12.7987 11.6761 12.8073 11.6774C12.8222 11.6797 12.8362 11.6869 12.847 11.6925C12.8488 11.6934 12.8506 11.6944 12.8522 11.6952L12.8547 11.6902C12.8531 11.6894 12.8515 11.6886 12.8497 11.6876C12.8389 11.6821 12.8241 11.6744 12.8082 11.6719C12.7988 11.6705 12.7889 11.6708 12.7792 11.6745C12.7713 11.6775 12.7636 11.6826 12.7564 11.6906Z" fill="black"/>
<path fill-rule="evenodd" clip-rule="evenodd" d="M12.6552 11.7106C12.6595 11.7241 12.6623 11.7424 12.6623 11.7703H12.6567C12.6567 11.7428 12.654 11.725 12.6499 11.7122C12.6459 11.6995 12.6405 11.6914 12.635 11.6832L12.6396 11.6801L12.6396 11.6801C12.6452 11.6884 12.6509 11.697 12.6552 11.7106Z" fill="black"/>
<path fill-rule="evenodd" clip-rule="evenodd" d="M12.4439 11.6789C12.455 11.6785 12.4667 11.6818 12.4782 11.6905L12.4749 11.6949C12.4643 11.687 12.4538 11.6841 12.4441 11.6845C12.4344 11.6849 12.4252 11.6886 12.4172 11.6943C12.4092 11.6999 12.4026 11.7074 12.3979 11.7152C12.3932 11.723 12.3907 11.7308 12.3907 11.737H12.3851C12.3851 11.7294 12.3881 11.7206 12.3932 11.7123C12.3982 11.704 12.4054 11.6959 12.414 11.6897C12.4227 11.6836 12.4329 11.6794 12.4439 11.6789Z" fill="black"/>
<path fill-rule="evenodd" clip-rule="evenodd" d="M12.1563 11.626C12.1571 11.6321 12.1579 11.638 12.1579 11.6428H12.1524C12.1524 11.6384 12.1517 11.633 12.1509 11.6268C12.1507 11.6256 12.1505 11.6244 12.1504 11.6232C12.1494 11.6156 12.1485 11.6073 12.1489 11.5991C12.1493 11.5908 12.1509 11.5826 12.1551 11.5752C12.1593 11.5678 12.166 11.5615 12.1762 11.5571L12.1784 11.5622C12.1692 11.5662 12.1635 11.5717 12.1599 11.5779C12.1563 11.5843 12.1548 11.5916 12.1544 11.5993C12.1541 11.607 12.1549 11.6149 12.1559 11.6225C12.156 11.6237 12.1562 11.6248 12.1563 11.626Z" fill="black"/>
<path fill-rule="evenodd" clip-rule="evenodd" d="M11.5704 11.792C11.5675 11.7691 11.5531 11.7473 11.5312 11.7393C11.509 11.7312 11.4802 11.7374 11.4493 11.7683L11.4532 11.7723C11.4832 11.7422 11.5099 11.7374 11.5293 11.7445C11.5489 11.7517 11.5622 11.7714 11.5649 11.7928L11.5649 11.793C11.5662 11.7992 11.5649 11.8037 11.5623 11.8079C11.5599 11.8116 11.5563 11.8151 11.552 11.8194C11.5513 11.8201 11.5505 11.8209 11.5497 11.8217C11.5392 11.8323 11.5263 11.8466 11.5206 11.8751L11.526 11.8761C11.5314 11.8492 11.5435 11.8358 11.5537 11.8256C11.5544 11.8249 11.5551 11.8241 11.5559 11.8234C11.5601 11.8192 11.5642 11.8152 11.5669 11.8108C11.5703 11.8055 11.5719 11.7996 11.5704 11.792Z" fill="black"/>
<path fill-rule="evenodd" clip-rule="evenodd" d="M11.6143 11.7904C11.601 11.7883 11.5848 11.7897 11.5685 11.7951L11.5668 11.7898C11.5838 11.7842 11.6008 11.7827 11.6152 11.7849C11.6294 11.787 11.6414 11.7928 11.6475 11.802L11.6429 11.8051C11.638 11.7977 11.6278 11.7924 11.6143 11.7904Z" fill="black"/>
<path fill-rule="evenodd" clip-rule="evenodd" d="M11.5246 11.5756C11.504 11.5749 11.4856 11.5791 11.4754 11.5894L11.4715 11.5854C11.4834 11.5735 11.5038 11.5694 11.5248 11.5701C11.5459 11.5708 11.5685 11.5764 11.5855 11.5849L11.583 11.5899C11.5668 11.5818 11.545 11.5763 11.5246 11.5756Z" fill="black"/>
<path fill-rule="evenodd" clip-rule="evenodd" d="M11.7562 11.4217C11.737 11.4276 11.7112 11.4478 11.6808 11.4947L11.6777 11.4995L11.6759 11.4941C11.6719 11.482 11.6659 11.4738 11.6589 11.4682C11.6519 11.4626 11.6437 11.4595 11.635 11.4578C11.6263 11.4561 11.6172 11.4559 11.6084 11.4562C11.6048 11.4563 11.6012 11.4565 11.5977 11.4567C11.5929 11.4569 11.5883 11.4572 11.5843 11.4572V11.4516C11.5882 11.4516 11.5925 11.4514 11.5971 11.4511C11.6006 11.451 11.6043 11.4508 11.6083 11.4507C11.6172 11.4504 11.6268 11.4506 11.6361 11.4524C11.6454 11.4541 11.6545 11.4576 11.6624 11.4639C11.6692 11.4694 11.675 11.4769 11.6792 11.4871C11.7085 11.443 11.7342 11.4227 11.7546 11.4164C11.7759 11.4098 11.7912 11.4186 11.7974 11.431L11.7924 11.4334C11.7875 11.4237 11.7751 11.4158 11.7562 11.4217Z" fill="black"/>
<path fill-rule="evenodd" clip-rule="evenodd" d="M11.9874 11.4408C11.9572 11.4223 11.9277 11.4159 11.9067 11.4237L11.9048 11.4185C11.9281 11.4098 11.9595 11.4172 11.9903 11.4361C12.0199 11.4542 12.0494 11.4832 12.0715 11.5201C12.0824 11.4929 12.096 11.4809 12.1112 11.4753C12.1192 11.4724 12.1275 11.4714 12.1357 11.4707C12.1378 11.4705 12.14 11.4703 12.1421 11.4702C12.1482 11.4697 12.1542 11.4693 12.1602 11.4683L12.1611 11.4737C12.1548 11.4748 12.1484 11.4753 12.1423 11.4757C12.1402 11.4759 12.1382 11.476 12.1361 11.4762C12.1281 11.4769 12.1204 11.4779 12.1131 11.4805C12.0989 11.4857 12.0855 11.4974 12.0746 11.5274L12.0726 11.533L12.0696 11.5278C12.0476 11.4894 12.0175 11.4593 11.9874 11.4408Z" fill="black"/>
<path fill-rule="evenodd" clip-rule="evenodd" d="M12.4577 11.5363C12.4355 11.5208 12.4074 11.5128 12.3724 11.5289L12.3701 11.5239C12.4072 11.5068 12.4373 11.5154 12.4608 11.5318C12.4808 11.5457 12.4962 11.5654 12.507 11.5793C12.508 11.5805 12.5089 11.5817 12.5098 11.5829C12.5258 11.5623 12.5408 11.5515 12.556 11.546C12.5717 11.5403 12.5874 11.5403 12.6038 11.5403H12.6041V11.5458C12.5874 11.5458 12.5726 11.5459 12.5579 11.5512C12.5433 11.5565 12.5284 11.5672 12.5121 11.5891L12.5099 11.5919L12.5077 11.5891C12.5061 11.5871 12.5044 11.5849 12.5025 11.5826C12.4917 11.5686 12.4769 11.5497 12.4577 11.5363Z" fill="black"/>
<path fill-rule="evenodd" clip-rule="evenodd" d="M11.8003 11.5914C11.7906 11.6011 11.7838 11.6182 11.7865 11.6425L11.7872 11.6481L11.7824 11.6452C11.7557 11.6292 11.7187 11.6348 11.703 11.6609L11.6983 11.658C11.7149 11.6303 11.7523 11.6239 11.7806 11.6379C11.7792 11.615 11.786 11.5979 11.7964 11.5875C11.8075 11.5764 11.8226 11.5732 11.8349 11.5794L11.8324 11.5843C11.8226 11.5794 11.81 11.5817 11.8003 11.5914Z" fill="black"/>
<path d="M11.9169 10.5045L11.795 10.5101L11.734 10.6193L11.6675 10.5151L11.5456 10.5201L11.601 10.4103L11.5345 10.3061L11.662 10.3006L11.7174 10.1914L11.7839 10.2956L11.9058 10.2906L11.8504 10.4004L11.9169 10.5045Z" fill="#FFD700"/>
<path d="M11.396 10.545L11.274 10.5749L11.2408 10.693L11.1521 10.6043L11.0357 10.6331L11.069 10.5151L10.9858 10.4253L11.1022 10.3959L11.1355 10.2773L11.2241 10.366L11.3461 10.3372L11.3073 10.4558L11.396 10.545Z" fill="#FFD700"/>
<path d="M10.8916 10.6486L10.7808 10.7035L10.7752 10.8266L10.6699 10.7589L10.5591 10.8133L10.5701 10.6902L10.4648 10.622L10.5757 10.5666L10.5868 10.4436L10.6865 10.5112L10.7974 10.4569L10.7918 10.5799L10.8916 10.6486Z" fill="#FFD700"/>
<path d="M12.0777 10.5045L12.1996 10.5101L12.255 10.6193L12.3215 10.5151L12.4435 10.5201L12.388 10.4103L12.4545 10.3061L12.3326 10.3006L12.2716 10.1914L12.2051 10.2956L12.0832 10.2906L12.1386 10.4004L12.0777 10.5045Z" fill="#FFD700"/>
<path d="M12.5986 10.545L12.715 10.5749L12.7483 10.693L12.837 10.6043L12.9533 10.6331L12.9201 10.5151L13.0088 10.4253L12.8868 10.3959L12.8536 10.2773L12.7649 10.366L12.6485 10.3372L12.6818 10.4558L12.5986 10.545Z" fill="#FFD700"/>
<path d="M13.0974 10.6486L13.2083 10.7035L13.2138 10.8266L13.3191 10.7589L13.43 10.8133L13.4244 10.6902L13.5242 10.622L13.4134 10.5666L13.4078 10.4436L13.3025 10.5112L13.1917 10.4569L13.2028 10.5799L13.0974 10.6486Z" fill="#FFD700"/>
<path fill-rule="evenodd" clip-rule="evenodd" d="M11.7164 10.1719L11.7891 10.2857L11.9219 10.2803L11.8616 10.3998L11.9341 10.5135L11.8008 10.5195L11.7346 10.6382L11.6623 10.525L11.5295 10.5304L11.5899 10.4109L11.5173 10.2972L11.6559 10.2911L11.7164 10.1719ZM11.7184 10.2109L11.6681 10.31L11.5517 10.3151L11.6122 10.4098L11.5617 10.5097L11.6727 10.5052L11.7335 10.6004L11.7892 10.5006L11.8997 10.4956L11.8393 10.4009L11.8897 10.301L11.7787 10.3055L11.7184 10.2109Z" fill="black"/>
<path fill-rule="evenodd" clip-rule="evenodd" d="M11.1306 10.2587L11.2272 10.3553L11.3607 10.3238L11.3183 10.4532L11.4149 10.5503L11.2818 10.583L11.2456 10.7116L11.1491 10.615L11.0218 10.6466L11.0581 10.5177L10.9676 10.4199L11.0944 10.3879L11.1306 10.2587ZM11.1403 10.2959L11.11 10.4039L11.004 10.4307L11.0798 10.5125L11.0496 10.6197L11.1551 10.5936L11.2359 10.6744L11.2662 10.5669L11.377 10.5397L11.2962 10.4584L11.3315 10.3506L11.2211 10.3767L11.1403 10.2959Z" fill="black"/>
<path fill-rule="evenodd" clip-rule="evenodd" d="M10.5786 10.4263L10.6873 10.5L10.8078 10.441L10.8018 10.575L10.9107 10.65L10.7902 10.7097L10.7841 10.8438L10.6693 10.7701L10.5478 10.8295L10.56 10.6952L10.4453 10.621L10.5665 10.5604L10.5786 10.4263ZM10.5949 10.4608L10.5849 10.5729L10.4844 10.6231L10.5803 10.6853L10.5703 10.797L10.6705 10.7478L10.7663 10.8093L10.7713 10.6974L10.8725 10.6473L10.7819 10.5849L10.7869 10.4728L10.6857 10.5224L10.5949 10.4608Z" fill="black"/>
<path fill-rule="evenodd" clip-rule="evenodd" d="M12.2722 10.1725L12.3384 10.2911L12.4717 10.2972L12.3992 10.4109L12.4595 10.5304L12.3267 10.525L12.254 10.6388L12.1935 10.5195L12.0612 10.5135L12.1276 10.4L12.0671 10.2803L12.1999 10.2857L12.2722 10.1725ZM12.2711 10.2103L12.2103 10.3055L12.0993 10.301L12.1497 10.4007L12.0941 10.4956L12.2057 10.5007L12.256 10.5997L12.3163 10.5052L12.4273 10.5097L12.3769 10.4098L12.4373 10.3151L12.3268 10.31L12.2711 10.2103Z" fill="black"/>
<path fill-rule="evenodd" clip-rule="evenodd" d="M12.8584 10.2587L12.8946 10.3878L13.0277 10.4199L12.9309 10.5179L12.9672 10.6466L12.8399 10.615L12.7434 10.7116L12.7072 10.5829L12.5804 10.5503L12.671 10.4532L12.6347 10.3238L12.7619 10.3553L12.8584 10.2587ZM12.8487 10.2959L12.7679 10.3767L12.6623 10.3506L12.6926 10.4584L12.6168 10.5397L12.7228 10.5669L12.7531 10.6744L12.834 10.5936L12.9395 10.6197L12.9092 10.5123L12.9898 10.4307L12.879 10.404L12.8487 10.2959Z" fill="black"/>
<path fill-rule="evenodd" clip-rule="evenodd" d="M13.4167 10.4263L13.4228 10.5605L13.5433 10.6207L13.4344 10.6952L13.4404 10.8292L13.3198 10.7701L13.2049 10.8438L13.1989 10.7097L13.0779 10.6498L13.1926 10.575L13.1805 10.4406L13.3019 10.5001L13.4167 10.4263ZM13.3989 10.4608L13.3031 10.5223L13.2029 10.4732L13.2129 10.5849L13.117 10.6475L13.2177 10.6974L13.2228 10.8093L13.3185 10.7478L13.4196 10.7973L13.4145 10.6853L13.5051 10.6233L13.4039 10.5728L13.3989 10.4608Z" fill="black"/>
<path d="M12.3828 13.5791L12.394 13.781C12.394 13.781 12.4501 13.781 12.5006 13.7642C12.5455 13.7474 12.5847 13.7137 12.5847 13.7137L12.5791 13.6071L12.3828 13.5791Z" fill="white"/>
<path fill-rule="evenodd" clip-rule="evenodd" d="M12.3711 13.5679L12.5857 13.5985L12.5919 13.7171L12.5883 13.7202L12.582 13.7128C12.5883 13.7202 12.5883 13.7202 12.5883 13.7202L12.5883 13.7203L12.5883 13.7203L12.5881 13.7204L12.5878 13.7207C12.5874 13.721 12.587 13.7214 12.5864 13.7218C12.5852 13.7228 12.5834 13.7243 12.5812 13.726C12.5767 13.7295 12.5702 13.7343 12.5624 13.7397C12.5467 13.7504 12.5251 13.7634 12.5018 13.7721L12.5017 13.7722L12.5015 13.7722C12.4755 13.7809 12.4483 13.7851 12.4277 13.7873C12.4174 13.7883 12.4087 13.7889 12.4025 13.7891C12.3994 13.7893 12.397 13.7893 12.3953 13.7894C12.3945 13.7894 12.3938 13.7894 12.3934 13.7894L12.3928 13.7894L12.3927 13.7894L12.3926 13.7894L12.3926 13.7894C12.3926 13.7894 12.3926 13.7894 12.3926 13.7797L12.3926 13.7894H12.3834L12.3711 13.5679ZM12.4018 13.7697C12.4077 13.7694 12.4159 13.7689 12.4257 13.7679C12.4455 13.7658 12.4711 13.7618 12.4952 13.7538C12.5164 13.7458 12.5365 13.7338 12.5514 13.7236C12.5589 13.7185 12.565 13.7139 12.5692 13.7106C12.5702 13.7098 12.5712 13.7091 12.572 13.7084L12.5671 13.6156L12.3919 13.5905L12.4018 13.7697Z" fill="black"/>
<path d="M11.6451 13.5791L11.634 13.774C11.634 13.774 11.5839 13.774 11.5337 13.7629C11.4892 13.7517 11.4502 13.7239 11.4502 13.7239L11.3945 13.5902L11.6451 13.5791Z" fill="white"/>
<path fill-rule="evenodd" clip-rule="evenodd" d="M11.658 13.5693L11.6458 13.7842H11.6366V13.7745C11.6366 13.7842 11.6366 13.7842 11.6366 13.7842H11.6365L11.6365 13.7842L11.6364 13.7842L11.6359 13.7842C11.6355 13.7842 11.6349 13.7842 11.6342 13.7842C11.6326 13.7842 11.6304 13.7841 11.6276 13.784C11.622 13.7838 11.6141 13.7835 11.6045 13.7828C11.5854 13.7814 11.5599 13.7785 11.5342 13.7728L11.5341 13.7728L11.534 13.7728C11.5106 13.7669 11.4889 13.7568 11.4732 13.7482C11.4653 13.7439 11.4588 13.74 11.4543 13.7371C11.4521 13.7356 11.4503 13.7344 11.4491 13.7336C11.4485 13.7332 11.448 13.7329 11.4477 13.7326L11.4473 13.7324L11.4472 13.7323L11.4471 13.7323C11.4471 13.7323 11.4471 13.7323 11.4528 13.7243L11.4471 13.7323L11.4449 13.7306L11.3828 13.5816L11.658 13.5693ZM11.4607 13.7179C11.4617 13.7186 11.4631 13.7196 11.4648 13.7207C11.469 13.7233 11.4751 13.727 11.4825 13.7311C11.4974 13.7392 11.5174 13.7485 11.5386 13.7538C11.563 13.7592 11.5875 13.762 11.606 13.7633C11.6147 13.764 11.6221 13.7643 11.6274 13.7645L11.6374 13.5898L11.4115 13.5998L11.4607 13.7179ZM11.4585 13.7164C11.4585 13.7164 11.4585 13.7164 11.4585 13.7164V13.7164Z" fill="black"/>
<path d="M10.7478 12.9975L10.6071 13.198L10.4512 12.9418L10.5681 12.8193L10.7478 12.9975Z" fill="white"/>
<path fill-rule="evenodd" clip-rule="evenodd" d="M10.5659 12.8101C10.5686 12.81 10.5711 12.811 10.5729 12.8129L10.7526 12.9911C10.756 12.9944 10.7565 12.9997 10.7537 13.0036L10.613 13.2041C10.6112 13.2068 10.608 13.2083 10.6047 13.2082C10.6015 13.2081 10.5984 13.2064 10.5967 13.2035L10.4408 12.9474C10.4385 12.9436 10.439 12.9388 10.4421 12.9356L10.559 12.8131C10.5608 12.8112 10.5633 12.8101 10.5659 12.8101ZM10.5663 12.8337L10.4614 12.9436L10.6056 13.1807L10.7331 12.9991L10.5663 12.8337Z" fill="black"/>
<path d="M11.4355 13.9779C11.4355 14.1664 12.5773 14.1664 12.5773 13.9779V13.7119C12.5773 13.8505 11.4355 13.8228 11.4355 13.7119V13.9779Z" fill="white"/>
<path fill-rule="evenodd" clip-rule="evenodd" d="M12.5599 13.7287C12.567 13.7224 12.5695 13.7169 12.5695 13.7119H12.5889V13.9779C12.5889 14.007 12.5669 14.0301 12.5349 14.0482C12.5024 14.0666 12.4567 14.0816 12.4028 14.0934C12.2949 14.1172 12.1514 14.129 12.0083 14.129C11.8652 14.129 11.7217 14.1172 11.6137 14.0934C11.5598 14.0816 11.5142 14.0666 11.4817 14.0482C11.4497 14.0301 11.4277 14.007 11.4277 13.9779V13.7119H11.4471C11.4471 13.7143 11.4487 13.7184 11.4561 13.7239C11.4633 13.7293 11.4745 13.7349 11.4897 13.7403C11.5201 13.7511 11.564 13.7606 11.6173 13.7686C11.7237 13.7845 11.866 13.794 12.0084 13.7957C12.1509 13.7975 12.293 13.7914 12.3994 13.7764C12.4527 13.7688 12.4964 13.7591 12.5265 13.7472C12.5417 13.7413 12.5527 13.735 12.5599 13.7287ZM12.5695 13.746C12.5602 13.7533 12.548 13.7596 12.5336 13.7653C12.5014 13.778 12.4559 13.7879 12.4021 13.7956C12.2944 13.8108 12.1511 13.8169 12.0082 13.8151C11.8652 13.8134 11.722 13.8039 11.6144 13.7878C11.5607 13.7797 11.5153 13.77 11.4832 13.7586C11.4687 13.7534 11.4564 13.7477 11.4471 13.7414V13.9779C11.4471 13.996 11.4608 14.0141 11.4913 14.0313C11.5213 14.0483 11.5648 14.0628 11.6179 14.0745C11.724 14.0978 11.866 14.1096 12.0083 14.1096C12.1506 14.1096 12.2926 14.0978 12.3987 14.0745C12.4518 14.0628 12.4953 14.0483 12.5253 14.0313C12.5558 14.0141 12.5695 13.996 12.5695 13.9779V13.746Z" fill="black"/>
<path d="M10.4199 13.3633C10.5197 13.8732 11.4397 13.8843 11.4397 13.8843V13.7125C11.4175 13.646 11.4563 13.6238 11.606 13.6016C11.6669 13.5961 11.6392 13.5074 11.6392 13.5074C11.6392 13.5074 11.2402 13.5795 10.9575 13.4686C10.5751 13.3134 10.5197 13.0142 10.5197 13.0142C10.5197 13.0142 10.492 13.2469 10.4199 13.3633Z" fill="white"/>
<path fill-rule="evenodd" clip-rule="evenodd" d="M10.6058 13.1777C10.6664 13.2704 10.7744 13.3827 10.9636 13.4594C11.103 13.5141 11.2719 13.5239 11.4065 13.5197C11.4737 13.5177 11.5321 13.5121 11.5737 13.5071C11.5945 13.5046 11.6111 13.5023 11.6225 13.5005C11.6282 13.4997 11.6326 13.499 11.6355 13.4985C11.637 13.4982 11.6381 13.498 11.6389 13.4979L11.6397 13.4977L11.6399 13.4977L11.6417 13.5072C11.6509 13.5044 11.6509 13.5044 11.6509 13.5044L11.6509 13.5044L11.651 13.5045L11.651 13.5047C11.6511 13.5049 11.6512 13.5052 11.6513 13.5056C11.6515 13.5063 11.6518 13.5073 11.6521 13.5086C11.6528 13.5112 11.6537 13.5149 11.6546 13.5193C11.6563 13.5281 11.658 13.5402 11.6576 13.5526C11.6572 13.5649 11.6548 13.5785 11.6474 13.5897C11.6398 13.6014 11.6274 13.6094 11.6096 13.6111C11.5724 13.6166 11.5424 13.6221 11.5186 13.6282C11.4946 13.6343 11.4776 13.6409 11.4661 13.6484C11.4549 13.6557 11.4493 13.6635 11.4472 13.6723C11.4449 13.6816 11.4461 13.6934 11.4513 13.7092L11.4518 13.7107V13.8939L11.442 13.8938L11.4421 13.8841C11.442 13.8938 11.442 13.8938 11.442 13.8938L11.442 13.8938L11.4418 13.8938L11.4413 13.8938C11.4409 13.8938 11.4402 13.8938 11.4393 13.8938C11.4375 13.8937 11.4349 13.8937 11.4315 13.8936C11.4247 13.8934 11.4147 13.893 11.4019 13.8923C11.3764 13.891 11.3399 13.8886 11.2958 13.8841C11.2077 13.875 11.089 13.8576 10.9671 13.8242C10.7244 13.7576 10.4639 13.626 10.4128 13.365L10.4121 13.3613L10.4141 13.358C10.4492 13.3014 10.4739 13.2155 10.4898 13.1428C10.4977 13.1067 10.5034 13.0742 10.5071 13.0507C10.5089 13.0389 10.5103 13.0294 10.5112 13.0229C10.5116 13.0196 10.512 13.0171 10.5122 13.0154L10.5124 13.0135L10.5125 13.013L10.5125 13.0128L10.5316 13.0122C10.5317 13.0122 10.5317 13.0122 10.5317 13.0122L10.5317 13.0122L10.5317 13.0123L10.5318 13.0129C10.5319 13.0134 10.5321 13.0142 10.5323 13.0153C10.5328 13.0174 10.5335 13.0205 10.5346 13.0246C10.5368 13.0329 10.5404 13.0449 10.5459 13.0598C10.5568 13.0897 10.5754 13.1313 10.6058 13.1777ZM10.5253 13.0598C10.5215 13.083 10.5161 13.1135 10.5087 13.147C10.4931 13.2185 10.4685 13.3053 10.4326 13.365C10.483 13.6114 10.7312 13.7394 10.9722 13.8055C11.0928 13.8386 11.2103 13.8558 11.2978 13.8648C11.3415 13.8693 11.3777 13.8717 11.4029 13.873C11.4155 13.8736 11.4254 13.874 11.4321 13.8742C11.4322 13.8742 11.4323 13.8742 11.4324 13.8742V13.7139C11.427 13.6971 11.4249 13.6817 11.4283 13.6678C11.4319 13.653 11.4412 13.6415 11.4556 13.6321C11.4697 13.623 11.4891 13.6157 11.5138 13.6094C11.5386 13.603 11.5695 13.5974 11.607 13.5919L11.6073 13.5918L11.6075 13.5918C11.62 13.5907 11.627 13.5856 11.6312 13.5791C11.6358 13.5721 11.6379 13.5626 11.6382 13.552C11.6385 13.5415 11.6371 13.5311 11.6355 13.5231C11.6352 13.5213 11.6348 13.5197 11.6345 13.5183C11.632 13.5187 11.629 13.5192 11.6254 13.5197C11.6139 13.5215 11.5971 13.5239 11.5761 13.5264C11.534 13.5315 11.475 13.537 11.4071 13.5391C11.2716 13.5433 11.0996 13.5336 10.9564 13.4775L10.9563 13.4774C10.7631 13.399 10.6522 13.284 10.5895 13.1883C10.5582 13.1405 10.539 13.0976 10.5276 13.0665C10.5268 13.0642 10.526 13.062 10.5253 13.0598ZM11.6417 13.5072L11.6509 13.5044L11.6484 13.4962L11.6399 13.4977L11.6417 13.5072Z" fill="black"/>
<path d="M13.5939 13.3633C13.4997 13.8732 12.5797 13.8843 12.5797 13.8843V13.7125C12.5963 13.646 12.5575 13.6238 12.4079 13.6016C12.3469 13.5961 12.3801 13.5074 12.3801 13.5074C12.3801 13.5074 12.7792 13.5795 13.0619 13.4686C13.4387 13.3134 13.4831 13.0142 13.4831 13.0142C13.4831 13.0142 13.5219 13.2469 13.5939 13.3633Z" fill="white"/>
<path fill-rule="evenodd" clip-rule="evenodd" d="M13.4965 13.0127L13.4965 13.0127L13.4965 13.0128L13.4966 13.0133L13.4969 13.0153C13.4972 13.017 13.4977 13.0195 13.4983 13.0228C13.4994 13.0293 13.5012 13.0388 13.5036 13.0506C13.5083 13.0741 13.5154 13.1066 13.5247 13.1428C13.5434 13.2155 13.5708 13.3015 13.606 13.3584L13.608 13.3615L13.6073 13.3652C13.559 13.6263 13.2999 13.7579 13.0579 13.8245C12.9363 13.8579 12.8178 13.8753 12.7297 13.8844C12.6857 13.8889 12.6492 13.8913 12.6237 13.8926C12.611 13.8933 12.601 13.8937 12.5942 13.8939C12.5907 13.894 12.5881 13.894 12.5864 13.8941C12.5855 13.8941 12.5848 13.8941 12.5843 13.8941L12.5838 13.8941L12.5837 13.8941L12.5836 13.8941C12.5836 13.8941 12.5836 13.8941 12.5835 13.8844L12.5836 13.8941L12.5738 13.8943V13.7114L12.5741 13.7103C12.578 13.6945 12.5784 13.6826 12.5755 13.6732C12.5726 13.6641 12.5665 13.6562 12.5548 13.6488C12.5429 13.6413 12.5256 13.6346 12.5016 13.6285C12.4777 13.6224 12.4477 13.6169 12.4105 13.6114C12.3927 13.6097 12.3805 13.6016 12.3733 13.5897C12.3665 13.5783 12.3649 13.5645 12.3653 13.5523C12.3657 13.5399 12.3681 13.5279 12.3704 13.5191C12.3715 13.5147 12.3726 13.511 12.3735 13.5084C12.3739 13.5071 12.3742 13.5061 12.3745 13.5053C12.3746 13.505 12.3747 13.5047 12.3748 13.5045L12.3749 13.5043L12.3749 13.5042L12.3749 13.5042C12.3749 13.5042 12.3749 13.5042 12.384 13.5076L12.3857 13.498L12.386 13.4981L12.3868 13.4982C12.3875 13.4983 12.3887 13.4985 12.3901 13.4988C12.3931 13.4993 12.3975 13.5 12.4032 13.5008C12.4145 13.5026 12.4311 13.505 12.4519 13.5075C12.4935 13.5124 12.5519 13.518 12.6191 13.52C12.7538 13.5242 12.9226 13.5144 13.0621 13.4598C13.2484 13.383 13.3522 13.2709 13.4094 13.1782C13.438 13.1319 13.455 13.0903 13.4649 13.0604C13.4698 13.0455 13.4729 13.0335 13.4748 13.0253C13.4758 13.0212 13.4764 13.018 13.4768 13.0159C13.477 13.0149 13.4771 13.0141 13.4772 13.0136L13.4773 13.013L13.4773 13.0129L13.4773 13.0129C13.4773 13.0129 13.4773 13.0129 13.4774 13.0129L13.4965 13.0127ZM12.384 13.5076L12.3857 13.498L12.3777 13.4966L12.3749 13.5042L12.384 13.5076ZM12.3906 13.5185C12.3902 13.5201 12.3896 13.5219 12.3891 13.5239C12.3871 13.5319 12.385 13.5424 12.3847 13.5529C12.3844 13.5635 12.3859 13.5729 12.39 13.5797C12.3937 13.5859 12.4001 13.591 12.4126 13.5921L12.4128 13.5921L12.4131 13.5922C12.4506 13.5977 12.4815 13.6033 12.5064 13.6097C12.5312 13.616 12.5507 13.6233 12.5651 13.6324C12.5798 13.6416 12.5895 13.653 12.594 13.6675C12.5983 13.6814 12.5973 13.6968 12.5932 13.7138V13.8745C12.5933 13.8745 12.5934 13.8745 12.5936 13.8745C12.6003 13.8743 12.6101 13.8739 12.6227 13.8733C12.6479 13.872 12.6841 13.8696 12.7277 13.8651C12.8151 13.8561 12.9325 13.8389 13.0527 13.8058C13.2931 13.7397 13.5398 13.6118 13.5875 13.3653C13.5516 13.3058 13.5243 13.2192 13.5059 13.1476C13.4972 13.1136 13.4904 13.0827 13.4856 13.0594C13.4849 13.0617 13.4841 13.0641 13.4833 13.0665C13.4731 13.0976 13.4554 13.1406 13.4259 13.1884C13.3667 13.2842 13.2599 13.3993 13.0694 13.4777L13.0692 13.4778C12.9261 13.5339 12.7541 13.5436 12.6185 13.5394C12.5506 13.5373 12.4916 13.5318 12.4496 13.5267C12.4286 13.5242 12.4118 13.5218 12.4002 13.52C12.3965 13.5194 12.3932 13.5189 12.3906 13.5185Z" fill="black"/>
<path d="M10.4871 13.1684C10.2321 13.0298 10.4333 12.8857 10.4555 12.4756C10.5838 12.7364 10.7106 12.745 10.7469 12.9102C10.7513 12.9306 10.7547 12.9675 10.7436 12.991C10.6272 12.9966 10.5719 12.8192 10.5165 13.0132L10.4871 13.1684Z" fill="white"/>
<path fill-rule="evenodd" clip-rule="evenodd" d="M10.4499 12.438L10.4663 12.4713C10.5295 12.5999 10.5923 12.6664 10.6442 12.7214L10.6448 12.7221C10.6971 12.7775 10.7397 12.8226 10.7584 12.9081C10.7608 12.9189 10.7628 12.9339 10.7629 12.9494C10.7629 12.9647 10.7609 12.9815 10.7545 12.9952L10.752 13.0004L10.7462 13.0007C10.7145 13.0022 10.6873 12.9912 10.6641 12.978C10.6525 12.9713 10.6417 12.964 10.6318 12.9573L10.6317 12.9573C10.6218 12.9505 10.6129 12.9445 10.6046 12.9399C10.5962 12.9353 10.5892 12.9327 10.5831 12.932C10.5774 12.9314 10.5721 12.9326 10.5667 12.9365C10.561 12.9406 10.5547 12.9482 10.5481 12.9612C10.5414 12.9741 10.5348 12.9917 10.528 13.0154L10.4962 13.1832L10.4845 13.1769C10.4198 13.1417 10.3825 13.1054 10.3646 13.0631C10.3468 13.021 10.3492 12.9748 10.3599 12.9219C10.3662 12.8909 10.3753 12.8575 10.3854 12.8207C10.4099 12.7306 10.44 12.62 10.4479 12.4751L10.4499 12.438ZM10.4649 12.5112C10.4543 12.6416 10.4262 12.7448 10.4035 12.828C10.3937 12.8641 10.3849 12.8965 10.3789 12.9257C10.3685 12.9775 10.367 13.0189 10.3825 13.0556C10.3969 13.0898 10.4269 13.1214 10.4821 13.1533L10.5091 13.0109L10.5092 13.0105C10.5162 12.9859 10.5234 12.9668 10.5308 12.9523C10.5382 12.9379 10.5462 12.9274 10.5553 12.9208C10.5648 12.914 10.5748 12.9117 10.5851 12.9127C10.5949 12.9138 10.6046 12.9178 10.6139 12.9229C10.623 12.9279 10.6326 12.9344 10.6421 12.9409L10.6427 12.9413C10.6527 12.948 10.6629 12.9549 10.6737 12.9611C10.6937 12.9725 10.7151 12.9812 10.7391 12.9814C10.7422 12.9723 10.7435 12.9611 10.7435 12.9494C10.7434 12.9355 10.7416 12.9219 10.7395 12.9123C10.722 12.8325 10.683 12.7908 10.6307 12.7354L10.6301 12.7347C10.5821 12.6838 10.524 12.6223 10.4649 12.5112Z" fill="black"/>
<path d="M13.2694 12.9975L13.4101 13.198L13.566 12.9418L13.4491 12.8193L13.2694 12.9975Z" fill="white"/>
<path fill-rule="evenodd" clip-rule="evenodd" d="M13.4514 12.8101C13.454 12.8101 13.4565 12.8112 13.4583 12.8131L13.5752 12.9356C13.5783 12.9388 13.5788 12.9436 13.5765 12.9474L13.4206 13.2035C13.4189 13.2064 13.4158 13.2081 13.4126 13.2082C13.4093 13.2083 13.4062 13.2068 13.4043 13.2041L13.2635 13.0036C13.2608 12.9997 13.2613 12.9944 13.2647 12.9911L13.4444 12.8129C13.4462 12.811 13.4487 12.81 13.4514 12.8101ZM13.2842 12.9991L13.4117 13.1807L13.5559 12.9436L13.451 12.8337L13.2842 12.9991Z" fill="black"/>
<path d="M13.5258 13.1684C13.7807 13.0298 13.5795 12.8857 13.5574 12.4756C13.4291 12.7364 13.3022 12.745 13.266 12.9102C13.2615 12.9306 13.2581 12.9675 13.2692 12.991C13.3856 12.9966 13.441 12.8192 13.4964 13.0132L13.5258 13.1684Z" fill="white"/>
<path fill-rule="evenodd" clip-rule="evenodd" d="M13.5591 12.438L13.5611 12.4751C13.5689 12.62 13.599 12.7306 13.6236 12.8207C13.6336 12.8575 13.6427 12.8909 13.649 12.9219C13.6597 12.9748 13.6621 13.021 13.6443 13.0631C13.6265 13.1054 13.5891 13.1417 13.5244 13.1769L13.5127 13.1832L13.481 13.0154C13.4742 12.9917 13.4675 12.9741 13.4609 12.9612C13.4542 12.9482 13.4479 12.9406 13.4422 12.9365C13.4368 12.9326 13.4316 12.9314 13.4259 12.932C13.4198 12.9327 13.4127 12.9353 13.4044 12.9399C13.396 12.9445 13.3872 12.9505 13.3772 12.9573L13.3771 12.9573C13.3672 12.964 13.3565 12.9713 13.3449 12.978C13.3217 12.9912 13.2945 13.0022 13.2628 13.0007L13.257 13.0004L13.2545 12.9952C13.248 12.9815 13.2461 12.9647 13.2461 12.9494C13.2461 12.9339 13.2482 12.9189 13.2505 12.9081C13.2693 12.8226 13.3118 12.7775 13.3641 12.7221L13.3647 12.7214C13.4167 12.6664 13.4794 12.5999 13.5427 12.4713L13.5591 12.438ZM13.3782 12.7354C13.326 12.7908 13.287 12.8325 13.2695 12.9123C13.2674 12.9219 13.2655 12.9355 13.2655 12.9494C13.2655 12.9611 13.2668 12.9723 13.2698 12.9814C13.2938 12.9812 13.3153 12.9725 13.3352 12.9611C13.3461 12.9549 13.3563 12.948 13.3662 12.9413L13.3668 12.9409C13.3764 12.9344 13.3859 12.9279 13.395 12.9229C13.4043 12.9178 13.414 12.9138 13.4239 12.9127C13.4342 12.9117 13.4442 12.914 13.4536 12.9208C13.4627 12.9274 13.4707 12.9379 13.4781 12.9523C13.4856 12.9668 13.4927 12.9859 13.4997 13.0105L13.4999 13.0109L13.5268 13.1533C13.5821 13.1214 13.612 13.0898 13.6265 13.0556C13.642 13.0189 13.6405 12.9775 13.63 12.9257C13.6241 12.8965 13.6153 12.8641 13.6054 12.828C13.5827 12.7448 13.5546 12.6416 13.5441 12.5112C13.485 12.6223 13.4269 12.6838 13.3788 12.7347L13.3782 12.7354Z" fill="black"/>
<path d="M10.6473 13.3573L10.675 13.3794L10.614 13.446C10.5896 13.4726 10.5837 13.4902 10.6007 13.5064C10.6217 13.5265 10.6365 13.5195 10.6584 13.4958L10.7249 13.4238L10.747 13.446L10.6806 13.5235C10.6445 13.5656 10.611 13.5559 10.5829 13.5297C10.5585 13.5069 10.5444 13.4737 10.5804 13.433L10.6475 13.3576L10.6473 13.3573Z" fill="black"/>
<path d="M10.7581 13.4515L10.7858 13.4681L10.7803 13.6011L10.8412 13.5069L10.869 13.5235L10.7803 13.6676L10.747 13.651L10.7526 13.518L10.6916 13.6122L10.6639 13.5956L10.7581 13.4515Z" fill="black"/>
<path d="M10.808 13.6843L10.8856 13.5291L10.9133 13.5457L10.8412 13.6954L10.808 13.6843Z" fill="black"/>
<path d="M10.9299 13.5513L10.8687 13.7119L10.9299 13.7342C10.987 13.7549 11.0137 13.7298 11.0318 13.6816C11.0501 13.6326 11.0422 13.5965 10.9851 13.5735L10.9299 13.5513ZM10.9519 13.5902C11.0092 13.6101 11.0127 13.6319 10.9971 13.6713C10.982 13.7087 10.9678 13.7233 10.9133 13.6952L10.9519 13.5902Z" fill="black"/>
<path d="M11.1128 13.6122L11.0131 13.7619L11.0516 13.7732L11.0739 13.7343L11.1404 13.7509L11.1461 13.7898L11.1846 13.7951L11.1461 13.6179L11.1128 13.6122ZM11.1238 13.6511L11.1348 13.7176L11.0905 13.712L11.1238 13.6511Z" fill="black"/>
<path d="M11.2076 13.6266L11.2016 13.7984L11.2668 13.7997C11.3275 13.8008 11.3447 13.7685 11.3462 13.717C11.3477 13.6647 11.3284 13.633 11.2669 13.6299L11.2076 13.6266ZM11.2409 13.6564C11.3016 13.6567 11.312 13.6761 11.3099 13.7185C11.3079 13.7588 11.299 13.7772 11.2385 13.7682L11.2409 13.6564Z" fill="black"/>
<path d="M11.789 13.8672V14.0444H11.8279V13.9779C11.8279 13.9779 11.8611 13.9799 11.8887 13.9726C11.9105 13.9669 11.9257 13.953 11.9262 13.9185C11.9267 13.8848 11.907 13.8672 11.8731 13.8672H11.7889H11.789ZM11.8279 13.8948L11.867 13.8953C11.8996 13.8953 11.8934 13.9447 11.868 13.9447H11.8279V13.8948Z" fill="black"/>
<path d="M11.9885 13.8672L11.9163 14.0444H11.9553L11.9719 14.0002H12.044L12.0607 14.0444H12.0992L12.0272 13.8671H11.9884L11.9885 13.8672ZM12.0051 13.9061L12.0327 13.9726H11.9829L12.0051 13.9061Z" fill="black"/>
<path d="M12.0994 14.0113L12.1936 13.8949H12.1104V13.8672H12.2435V13.8949L12.1437 14.0113H12.2435V14.0445H12.0994V14.0113Z" fill="black"/>
<path d="M12.6591 13.6676L12.6924 13.6621L12.709 13.7619C12.7149 13.7973 12.6987 13.8215 12.6735 13.8308C12.6447 13.8414 12.608 13.8317 12.6037 13.784L12.6314 13.7785C12.6379 13.807 12.6494 13.8095 12.6627 13.805C12.6732 13.8015 12.6787 13.7849 12.6758 13.7674L12.6591 13.6676Z" fill="black"/>
<path d="M12.7146 13.6577L12.7474 13.6514L12.7626 13.7345C12.769 13.77 12.7802 13.7851 12.8033 13.7811C12.832 13.7761 12.8351 13.76 12.829 13.7284L12.8086 13.6398L12.8422 13.6347L12.8645 13.7268C12.8775 13.7807 12.8493 13.8021 12.8116 13.8092C12.7786 13.8153 12.7436 13.8069 12.7322 13.7538L12.7146 13.6577Z" fill="black"/>
<path d="M12.8864 13.7342L12.9141 13.7231C12.9277 13.7475 12.9489 13.7462 12.9654 13.7389C12.9883 13.7288 12.9909 13.7088 12.9796 13.702C12.9634 13.6923 12.9249 13.7061 12.9041 13.6985C12.8793 13.6894 12.8686 13.6755 12.8699 13.654C12.8714 13.6281 12.8942 13.6139 12.9189 13.6062C12.9466 13.5976 12.9739 13.6007 12.9917 13.6344L12.9584 13.6455C12.9476 13.6273 12.9337 13.6281 12.9213 13.634C12.911 13.6388 12.8948 13.648 12.9034 13.6628C12.9105 13.6749 12.9513 13.6671 12.9727 13.6679C12.9949 13.6688 13.0128 13.6836 13.0158 13.705C13.02 13.7347 13.009 13.7509 12.9746 13.7643C12.9321 13.7808 12.8938 13.7623 12.8864 13.7342Z" fill="black"/>
<path d="M13.036 13.5956L12.9917 13.6178L12.9806 13.5901L13.1025 13.5402L13.1136 13.5623L13.0693 13.5845L13.1191 13.7064L13.0914 13.7231L13.036 13.5956Z" fill="black"/>
<path d="M13.1081 13.5346L13.1358 13.518L13.2134 13.6621L13.1857 13.6787L13.1081 13.5346Z" fill="black"/>
<path d="M13.2965 13.5457L13.3298 13.5346C13.3454 13.5675 13.3219 13.6273 13.2645 13.626C13.1804 13.6242 13.1714 13.5317 13.1846 13.5011C13.2068 13.4499 13.2689 13.4508 13.2965 13.4792L13.2688 13.5014C13.2512 13.4788 13.2122 13.493 13.2095 13.5138C13.2052 13.5476 13.2201 13.5791 13.2504 13.594C13.2761 13.6067 13.3156 13.5749 13.2965 13.5457Z" fill="black"/>
<path d="M13.2799 13.4293L13.3076 13.4072L13.4073 13.5402L13.3796 13.5623L13.2799 13.4293Z" fill="black"/>
<path d="M13.3852 13.3462L13.3576 13.3685L13.4184 13.5347L13.446 13.5071L13.4294 13.4739L13.4793 13.4293L13.5125 13.446L13.5405 13.424L13.3852 13.3462ZM13.3961 13.3851L13.4517 13.4127L13.4184 13.446L13.3961 13.3851Z" fill="black"/>
</g>
<defs>
<clipPath id="clip0_1692_54070">
<rect x="2.02539" y="5.50342" width="19.9495" height="13.2997" rx="1" fill="white"/>
</clipPath>
</defs>
</svg>
