<svg width="24" height="24" viewBox="0 0 24 24" fill="none" xmlns="http://www.w3.org/2000/svg">
<path d="M14.2515 2H8.49591C8.31643 2 8.22669 2 8.14746 2.02733C8.0774 2.05149 8.01358 2.09093 7.96064 2.14279C7.90076 2.20143 7.86063 2.2817 7.78036 2.44223L3.58036 10.8422C3.38868 11.2256 3.29284 11.4173 3.31587 11.5731C3.33597 11.7091 3.41122 11.8309 3.52393 11.9097C3.65299 12 3.8673 12 4.29591 12H10.5015L7.50148 22L19.6946 9.35531C20.1059 8.9287 20.3116 8.7154 20.3237 8.53288C20.3341 8.37446 20.2687 8.22049 20.1474 8.11803C20.0077 8 19.7113 8 19.1187 8H12.0015L14.2515 2Z" stroke="#1C1D20" stroke-width="1.5" stroke-linecap="round" stroke-linejoin="round"/>
</svg>
