<svg width="24" height="24" viewBox="0 0 24 24" fill="none" xmlns="http://www.w3.org/2000/svg">
<path d="M6.25 21.959L12 11.9997M17 3.33946C12.6868 0.849247 7.28964 1.93734 4.246 5.68265C3.94893 6.04821 3.80039 6.23099 3.75718 6.49287C3.7228 6.70123 3.77373 6.97736 3.88018 7.15975C4.01398 7.38898 4.25111 7.5259 4.72539 7.79972L19.2746 16.1997C19.7489 16.4735 19.986 16.6104 20.2514 16.6117C20.4626 16.6127 20.7272 16.5187 20.8905 16.3848C21.0957 16.2164 21.1797 15.9964 21.3477 15.5563C23.0695 11.0478 21.3132 5.82968 17 3.33946ZM17 3.33946C15.0868 2.23489 11.2973 5.21679 8.5359 9.99972M17 3.33946C18.9132 4.44403 18.2255 9.21679 15.4641 13.9997M22 21.9997H2" stroke="#1C1D20" stroke-width="1.5" stroke-linecap="round" stroke-linejoin="round"/>
</svg>
