<svg width="25" height="25" viewBox="0 0 25 25" fill="none" xmlns="http://www.w3.org/2000/svg">
<g clip-path="url(#clip0_1692_54078)">
<path d="M2.04883 6.24609H21.9983V19.5458H2.04883V6.24609Z" fill="white"/>
<path fill-rule="evenodd" clip-rule="evenodd" d="M2.04883 6.24609H21.9983V7.19607H2.04883V6.24609ZM21.9983 9.09602H2.04883V8.14605H21.9983V9.09602ZM2.04883 10.046H21.9983V10.996H2.04883V10.046ZM2.04883 11.946H21.9983V12.8959H2.04883V11.946Z" fill="#CC0000"/>
<path fill-rule="evenodd" clip-rule="evenodd" d="M2.04883 13.8477H21.9983V14.7976H2.04883V13.8477ZM21.9983 16.6976H2.04883V15.7476H21.9983V16.6976ZM21.9983 18.5975H2.04883V17.6476H21.9983V18.5975Z" fill="#CC0000"/>
<path d="M2.04883 6.24561H14.2402V13.6475H2.04883V6.24561Z" fill="#000066"/>
<path d="M9.66738 7.55211L9.8615 8.88009L10.6126 7.768L10.2098 9.04881L11.3691 8.37212L10.4511 9.35178L11.79 9.24475L10.5382 9.72914L11.79 10.2135L10.4511 10.1065L11.3691 11.0862L10.2098 10.4095L10.6126 11.6903L9.8615 10.5782L9.66738 11.9062L9.47326 10.5782L8.72219 11.6903L9.12494 10.4095L7.96567 11.0862L8.88365 10.1065L7.54478 10.2135L8.79657 9.72914L7.54478 9.24475L8.88365 9.35178L7.96567 8.37212L9.12494 9.04881L8.72219 7.768L9.47326 8.88009L9.66738 7.55211ZM8.57887 7.60653C8.22533 7.44967 7.83821 7.38359 7.45265 7.4143C7.0671 7.44502 6.69532 7.57155 6.37108 7.78241C6.04683 7.99327 5.78039 8.28178 5.59595 8.62174C5.4115 8.96171 5.31489 9.34236 5.31489 9.72914C5.31489 10.1159 5.4115 10.4966 5.59595 10.8365C5.78039 11.1765 6.04683 11.465 6.37108 11.6759C6.69532 11.8867 7.0671 12.0133 7.45265 12.044C7.83821 12.0747 8.22533 12.0086 8.57887 11.8517C8.18848 12.1318 7.72842 12.2988 7.24926 12.3344C6.77011 12.37 6.29043 12.2727 5.86298 12.0533C5.43552 11.8339 5.07686 11.5009 4.82642 11.0908C4.57599 10.6808 4.44348 10.2096 4.44348 9.72914C4.44348 9.24867 4.57599 8.7775 4.82642 8.36746C5.07686 7.95741 5.43552 7.62438 5.86298 7.40498C6.29043 7.18558 6.77011 7.08831 7.24926 7.12386C7.72842 7.15942 8.18848 7.32644 8.57887 7.60653Z" fill="#FFCC00"/>
</g>
<defs>
<clipPath id="clip0_1692_54078">
<rect x="2.04883" y="6.24561" width="19.9495" height="13.2997" rx="1" fill="white"/>
</clipPath>
</defs>
</svg>
