<svg width="25" height="25" viewBox="0 0 25 25" fill="none" xmlns="http://www.w3.org/2000/svg">
<g clip-path="url(#clip0_1692_54101)">
<path d="M2.04688 6.24561H21.9964V19.5444H2.04688V6.24561Z" fill="black"/>
<path d="M11.8978 7.065C11.8978 6.92093 11.9347 6.77686 12.0308 6.77686C12.1268 6.77686 12.1638 6.92093 12.1638 7.065C12.1638 7.36436 12.1321 7.54056 12.0655 7.91213L12.0655 7.91216L12.0654 7.91245C12.0548 7.9718 12.0432 8.03613 12.0308 8.10674C12.0183 8.03601 12.0067 7.97158 11.9961 7.91215C11.9294 7.54057 11.8978 7.36436 11.8978 7.065Z" fill="#CE1126"/>
<path d="M9.33422 10.3454H14.7273C14.3348 9.23485 13.2757 8.43921 12.0308 8.43921C10.7858 8.43921 9.72673 9.23485 9.33422 10.3454Z" fill="#CE1126"/>
<path d="M8.67696 10.3454C8.39557 10.2136 8.23795 10.1445 7.97598 10.0743C7.83682 10.037 7.6881 10.0354 7.66324 10.1282C7.63838 10.2209 7.76798 10.2939 7.90714 10.3312C7.92569 10.3362 7.94378 10.3409 7.9615 10.3454H8.67696Z" fill="#CE1126"/>
<path d="M16.1 10.3454C16.1177 10.3409 16.1358 10.3362 16.1544 10.3312C16.2935 10.2939 16.4231 10.2209 16.3983 10.1282C16.3734 10.0354 16.2247 10.037 16.0855 10.0743C15.8236 10.1445 15.666 10.2136 15.3846 10.3454H16.1Z" fill="#CE1126"/>
<path d="M12.4248 6.79406C12.3292 6.78569 12.2798 6.92599 12.2673 7.06952C12.2412 7.36774 12.2573 7.54603 12.2913 7.92199L12.2913 7.92207L12.2914 7.92299C12.2968 7.98285 12.3027 8.04772 12.3089 8.11888C12.3275 8.04952 12.3447 7.98636 12.3605 7.92809L12.3605 7.92805L12.3605 7.92801L12.3605 7.92797L12.3605 7.92793L12.3605 7.92789L12.3605 7.92784L12.3605 7.9278L12.3606 7.92776L12.3606 7.92772L12.3606 7.92768L12.3606 7.92764L12.3606 7.9276L12.3606 7.92755L12.3606 7.92751L12.3606 7.92747L12.3606 7.92743C12.4593 7.56352 12.5061 7.39075 12.5322 7.0927C12.5448 6.94917 12.5205 6.80243 12.4248 6.79406Z" fill="#CE1126"/>
<path d="M12.6349 7.10622C12.6599 6.96434 12.7213 6.82887 12.8159 6.84555C12.9105 6.86223 12.9219 7.01052 12.8969 7.15241C12.8449 7.44722 12.7831 7.61526 12.653 7.96961L12.6529 7.96967C12.6321 8.02633 12.6096 8.08776 12.585 8.15523C12.585 8.08412 12.5848 8.01925 12.5846 7.95937V7.95756C12.5835 7.58005 12.5829 7.40103 12.6349 7.10622Z" fill="#CE1126"/>
<path d="M13.201 6.93093C13.1083 6.90607 13.0353 7.03567 12.998 7.17483C12.9205 7.46399 12.9055 7.64237 12.8737 8.01854C12.8686 8.07871 12.8631 8.14394 12.8568 8.21549C12.8871 8.15054 12.9149 8.09141 12.9406 8.03686L12.9407 8.0365C13.1013 7.69485 13.1774 7.53283 13.2549 7.24367C13.2922 7.10451 13.2938 6.95578 13.201 6.93093Z" fill="#CE1126"/>
<path d="M13.3537 7.27482C13.403 7.13944 13.487 7.01669 13.5772 7.04954C13.6675 7.08239 13.6529 7.23041 13.6037 7.36579C13.5013 7.6471 13.4113 7.80186 13.2216 8.12823C13.1912 8.18043 13.1583 8.23702 13.1224 8.29922C13.1349 8.22855 13.146 8.16411 13.1563 8.10465L13.1563 8.1045C13.2208 7.73252 13.2513 7.55613 13.3537 7.27482Z" fill="#CE1126"/>
<path d="M13.9417 7.20049C13.8546 7.1599 13.7603 7.27486 13.6994 7.40543C13.5729 7.67675 13.527 7.84981 13.4304 8.21476C13.415 8.27313 13.3982 8.3364 13.3796 8.40578C13.4208 8.34694 13.4585 8.29344 13.4933 8.24408C13.7108 7.93549 13.8139 7.78916 13.9404 7.51784C14.0013 7.38727 14.0287 7.24108 13.9417 7.20049Z" fill="#CE1126"/>
<path d="M14.0323 7.56568C14.1044 7.44091 14.2084 7.33461 14.2916 7.38263C14.3747 7.43066 14.3347 7.5739 14.2627 7.69867C14.113 7.95793 13.9975 8.09471 13.754 8.38318C13.715 8.42931 13.6728 8.47933 13.6266 8.53434C13.6512 8.46685 13.6734 8.40527 13.6939 8.34847C13.8219 7.99335 13.8826 7.82493 14.0323 7.56568Z" fill="#CE1126"/>
<path d="M14.6242 7.59458C14.5456 7.53949 14.4327 7.63631 14.35 7.75433C14.1783 7.99955 14.1032 8.16203 13.9447 8.50464L13.9446 8.50473L13.9444 8.50527C13.9191 8.5599 13.8917 8.6191 13.8615 8.68395C13.9121 8.63331 13.9584 8.58728 14.0011 8.54481L14.0015 8.54444C14.2692 8.27831 14.3962 8.15211 14.5679 7.90689C14.6505 7.78887 14.7029 7.64967 14.6242 7.59458Z" fill="#CE1126"/>
<path d="M14.6501 7.96995C14.7427 7.85959 14.8636 7.77297 14.9372 7.83471C15.0108 7.89645 14.9465 8.03056 14.8539 8.14092C14.6614 8.37024 14.5239 8.4849 14.234 8.72667L14.234 8.72674C14.1876 8.7654 14.1374 8.80731 14.0824 8.85346C14.1183 8.79126 14.1508 8.73448 14.1808 8.68211C14.3686 8.3546 14.4577 8.19928 14.6501 7.96995Z" fill="#CE1126"/>
<path d="M15.228 8.1012C15.1601 8.03328 15.0321 8.10904 14.9302 8.21091C14.7185 8.42259 14.6163 8.56954 14.4007 8.87943C14.3662 8.929 14.3288 8.98273 14.2876 9.04157C14.3458 9.00088 14.3989 8.96391 14.4479 8.92978L14.4497 8.92856L14.4498 8.92849C14.7597 8.7129 14.9066 8.61066 15.1183 8.39898C15.2202 8.29711 15.2959 8.16912 15.228 8.1012Z" fill="#CE1126"/>
<path d="M15.1883 8.47536C15.2987 8.38276 15.4328 8.31845 15.4945 8.39203C15.5562 8.4656 15.4696 8.58651 15.3593 8.67911C15.1299 8.87154 14.9746 8.96058 14.6471 9.14835C14.5948 9.17838 14.538 9.21094 14.4758 9.24686C14.5219 9.19188 14.5638 9.14165 14.6024 9.09531L14.6025 9.09519C14.8443 8.80527 14.959 8.66779 15.1883 8.47536Z" fill="#CE1126"/>
<path d="M15.7346 8.70497C15.6795 8.62629 15.5403 8.67867 15.4223 8.7613C15.1771 8.93301 15.0509 9.05998 14.7848 9.32772C14.7422 9.37054 14.6961 9.41697 14.6453 9.46776C14.7104 9.4374 14.7698 9.40992 14.8246 9.38456C15.1672 9.22606 15.3297 9.15088 15.5749 8.97918C15.6929 8.89654 15.7897 8.78365 15.7346 8.70497Z" fill="#CE1126"/>
<path d="M15.6306 9.06655C15.7553 8.99452 15.8986 8.95447 15.9466 9.03765C15.9946 9.12083 15.8883 9.22486 15.7635 9.29689C15.5043 9.44658 15.3359 9.5073 14.9807 9.63534C14.9239 9.65582 14.8624 9.67803 14.7949 9.70259C14.8492 9.65703 14.8986 9.6153 14.9442 9.57677L14.9447 9.57638L14.945 9.57609L14.9459 9.57536L14.946 9.57525C15.2345 9.33172 15.3713 9.21623 15.6306 9.06655Z" fill="#CE1126"/>
<path d="M16.1287 9.38754C16.0881 9.30049 15.9419 9.3279 15.8114 9.38879C15.5401 9.5153 15.3937 9.61843 15.0851 9.83589L15.085 9.83601L15.082 9.8381C15.0335 9.87226 14.981 9.90925 14.9234 9.94957C14.9928 9.93098 15.0561 9.91423 15.1145 9.89878C15.4794 9.80217 15.6525 9.75636 15.9238 9.62984C16.0544 9.56896 16.1693 9.47459 16.1287 9.38754Z" fill="#CE1126"/>
<path d="M15.9634 9.72556C16.0988 9.67628 16.2468 9.66172 16.2797 9.75197C16.3125 9.84223 16.1898 9.92622 16.0544 9.97549C15.7731 10.0779 15.5967 10.1084 15.2247 10.1729C15.1652 10.1832 15.1007 10.1943 15.03 10.2068C15.0919 10.1711 15.1482 10.1384 15.2001 10.1082L15.2003 10.1081L15.2008 10.1078L15.201 10.1077C15.5274 9.91792 15.6821 9.82794 15.9634 9.72556Z" fill="#CE1126"/>
<path d="M7.78185 9.75197C7.749 9.84223 7.87175 9.92622 8.00713 9.97549C8.28844 10.0779 8.46484 10.1084 8.83681 10.1729C8.89631 10.1832 8.9608 10.1943 9.03153 10.2068C8.9694 10.1709 8.91286 10.1381 8.8607 10.1078L8.86053 10.1077C8.53417 9.91792 8.37941 9.82794 8.0981 9.72556C7.96272 9.67628 7.8147 9.66172 7.78185 9.75197Z" fill="#CE1126"/>
<path d="M8.13775 9.62984C8.00717 9.56896 7.89221 9.47459 7.93281 9.38754C7.9734 9.30049 8.11958 9.3279 8.25015 9.38879C8.52147 9.5153 8.6678 9.61842 8.97638 9.83588C9.02574 9.87067 9.07925 9.90838 9.13809 9.94957C9.06874 9.93099 9.00548 9.91425 8.94713 9.8988L8.94706 9.89878C8.58212 9.80217 8.40906 9.75636 8.13775 9.62984Z" fill="#CE1126"/>
<path d="M8.11495 9.03765C8.06692 9.12083 8.17322 9.22486 8.29799 9.29689C8.55725 9.44658 8.72565 9.5073 9.08078 9.63534C9.13758 9.65582 9.19916 9.67803 9.26666 9.70259C9.21164 9.65642 9.16162 9.6142 9.11548 9.57524C8.82702 9.33172 8.69023 9.21623 8.43098 9.06655C8.30621 8.99452 8.16297 8.95447 8.11495 9.03765Z" fill="#CE1126"/>
<path d="M8.48664 8.97918C8.36863 8.89654 8.2718 8.78365 8.32689 8.70497C8.38198 8.62629 8.52118 8.67867 8.6392 8.7613C8.88442 8.93301 9.01063 9.05998 9.27676 9.32772L9.27691 9.32787C9.31944 9.37066 9.36554 9.41703 9.41626 9.46776C9.35117 9.4374 9.29176 9.40992 9.23696 9.38456C8.89434 9.22605 8.73187 9.15089 8.48664 8.97918Z" fill="#CE1126"/>
<path d="M8.56702 8.39203C8.50528 8.4656 8.5919 8.58651 8.70227 8.67911C8.93159 8.87154 9.0869 8.96058 9.4144 9.14835L9.41447 9.1484L9.41504 9.14872C9.46725 9.17865 9.52382 9.21109 9.58577 9.24686C9.5396 9.19183 9.49767 9.14156 9.45899 9.09518C9.21721 8.80527 9.10256 8.66779 8.87323 8.47536C8.76287 8.38276 8.62876 8.31845 8.56702 8.39203Z" fill="#CE1126"/>
<path d="M8.94322 8.39898C8.84135 8.29711 8.7656 8.16912 8.83351 8.1012C8.90143 8.03328 9.02942 8.10904 9.1313 8.21091C9.34298 8.42259 9.44522 8.56954 9.66081 8.87943L9.66093 8.8796C9.69538 8.92912 9.73273 8.9828 9.77388 9.04157C9.71514 9.00044 9.66149 8.96311 9.61199 8.92867L9.61197 8.92866L9.61185 8.92857L9.61174 8.9285C9.30185 8.7129 9.1549 8.61067 8.94322 8.39898Z" fill="#CE1126"/>
<path d="M9.12434 7.83471C9.05076 7.89645 9.11507 8.03056 9.20768 8.14092C9.4001 8.37025 9.53759 8.4849 9.82751 8.72669C9.87388 8.76536 9.92415 8.80729 9.97917 8.85346C9.94328 8.79129 9.91073 8.73453 9.88071 8.68217L9.88066 8.68208C9.69289 8.35458 9.60385 8.19928 9.41143 7.96995C9.31882 7.85959 9.19791 7.77297 9.12434 7.83471Z" fill="#CE1126"/>
<path d="M9.49362 7.90689C9.41098 7.78887 9.35861 7.64967 9.43728 7.59458C9.51596 7.53949 9.62886 7.63631 9.71149 7.75433C9.8832 7.99955 9.95837 8.16202 10.1169 8.50464L10.117 8.50487C10.1423 8.55961 10.1698 8.61895 10.2001 8.68395C10.1493 8.63316 10.1029 8.58702 10.06 8.54445C9.79229 8.27831 9.66533 8.15211 9.49362 7.90689Z" fill="#CE1126"/>
<path d="M9.76997 7.38263C9.68679 7.43066 9.72683 7.5739 9.79886 7.69867C9.94855 7.95792 10.064 8.09471 10.3076 8.38317L10.3077 8.38332C10.3466 8.42941 10.3888 8.47938 10.4349 8.53434C10.4103 8.46685 10.3881 8.40526 10.3677 8.34846C10.2396 7.99334 10.1789 7.82493 10.0292 7.56568C9.95717 7.44091 9.85314 7.33461 9.76997 7.38263Z" fill="#CE1126"/>
<path d="M10.1211 7.51784C10.0602 7.38727 10.0328 7.24108 10.1199 7.20049C10.2069 7.1599 10.3013 7.27486 10.3622 7.40543C10.4887 7.67675 10.5345 7.84981 10.6311 8.21474L10.6311 8.21489L10.6316 8.2165C10.6469 8.27438 10.6635 8.33709 10.6819 8.40577C10.6407 8.34694 10.603 8.29343 10.5682 8.24407C10.3507 7.93549 10.2476 7.78916 10.1211 7.51784Z" fill="#CE1126"/>
<path d="M10.4843 7.04954C10.394 7.08239 10.4086 7.23041 10.4579 7.36579C10.5603 7.6471 10.6502 7.80186 10.84 8.12822C10.8703 8.18043 10.9032 8.23702 10.9391 8.29922C10.9267 8.22848 10.9155 8.16398 10.9052 8.10448C10.8407 7.73252 10.8102 7.55613 10.7078 7.27482C10.6585 7.13944 10.5745 7.01669 10.4843 7.04954Z" fill="#CE1126"/>
<path d="M10.8066 7.24367C10.7693 7.10451 10.7677 6.95578 10.8605 6.93093C10.9533 6.90607 11.0262 7.03567 11.0635 7.17483C11.141 7.46399 11.1561 7.64237 11.1878 8.01854C11.1929 8.07871 11.1984 8.14394 11.2047 8.21549C11.1743 8.15042 11.1465 8.09119 11.1208 8.03655L11.1208 8.03651C10.9602 7.69485 10.8841 7.53283 10.8066 7.24367Z" fill="#CE1126"/>
<path d="M11.2456 6.84555C11.151 6.86223 11.1396 7.01052 11.1647 7.15241C11.2166 7.44722 11.2784 7.61526 11.4086 7.96961L11.4086 7.96967C11.4294 8.02633 11.452 8.08776 11.4765 8.15523C11.4765 8.08367 11.4767 8.01844 11.4769 7.95824V7.95756C11.478 7.58005 11.4786 7.40104 11.4266 7.10622C11.4016 6.96434 11.3402 6.82887 11.2456 6.84555Z" fill="#CE1126"/>
<path d="M11.5293 7.0927C11.5168 6.94917 11.541 6.80243 11.6367 6.79406C11.7324 6.78569 11.7817 6.92599 11.7943 7.06952C11.8204 7.36774 11.8042 7.54603 11.7702 7.922L11.7702 7.92211L11.7701 7.92263C11.7647 7.98259 11.7588 8.04758 11.7526 8.11888C11.734 8.04954 11.7169 7.98638 11.7011 7.92813L11.7011 7.92805L11.701 7.92801C11.6023 7.56369 11.5554 7.39091 11.5293 7.0927Z" fill="#CE1126"/>
<path d="M2.04688 10.6792H21.9964V19.5451H2.04688V10.6792Z" fill="#CE1126"/>
<path d="M2.04688 15.1104H21.9964V19.5433H2.04688V15.1104Z" fill="#339E35"/>
</g>
<defs>
<clipPath id="clip0_1692_54101">
<rect x="2.04688" y="6.24561" width="19.9495" height="13.2997" rx="1" fill="white"/>
</clipPath>
</defs>
</svg>
