<svg width="25" height="25" viewBox="0 0 25 25" fill="none" xmlns="http://www.w3.org/2000/svg">
<g clip-path="url(#clip0_1692_54116)">
<path d="M2.04883 6.24561H21.9983V19.5453H2.04883V6.24561Z" fill="white"/>
<path d="M2.04883 19.1197V6.24561H21.9983V9.06514L2.04883 19.1197Z" fill="#DD7500"/>
<path d="M2.04883 18.9069V6.24561H21.9983V6.4584L2.04883 18.9069ZM2.04883 19.3325V19.5453H21.9983V11.6719L2.04883 19.3325Z" fill="#003893"/>
<path d="M6.90415 6.979L7.07439 9.80971L7.66808 8.24992L7.40262 9.89749L8.38041 8.54464L7.69734 10.0677L8.99167 9.01385L7.93833 10.3082L9.46088 9.62564L8.10804 10.6029L9.75613 10.3374L8.19635 10.9317L11.0271 11.1019L8.19635 11.2721L9.75613 11.8658L8.10804 11.6004L9.46088 12.5782L7.93833 11.8951L8.99167 13.1894L7.69734 12.1361L8.38041 13.6586L7.40262 12.3058L7.66808 13.9539L7.07439 12.3941L6.90415 15.2248L6.73391 12.3941L6.13968 13.9539L6.40515 12.3058L5.42789 13.6586L6.11043 12.1361L4.8161 13.1894L5.86997 11.8951L4.34689 12.5782L5.69973 11.6004L4.05217 11.8658L5.61195 11.2721L2.78125 11.1019L5.61195 10.9317L4.05217 10.3374L5.69973 10.6029L4.34689 9.62564L5.86997 10.3082L4.8161 9.01385L6.11043 10.0677L5.42789 8.54464L6.40515 9.89749L6.13968 8.24992L6.73391 9.80971L6.90415 6.979Z" fill="white"/>
</g>
<defs>
<clipPath id="clip0_1692_54116">
<rect x="2.04688" y="6.24561" width="19.9551" height="13.2998" rx="1" fill="white"/>
</clipPath>
</defs>
</svg>
