<svg width="25" height="25" viewBox="0 0 25 25" fill="none" xmlns="http://www.w3.org/2000/svg">
<g clip-path="url(#clip0_1692_54165)">
<path d="M22.0003 6.24561H2.05078V19.5453H22.0003V6.24561Z" fill="#CC092F"/>
<path d="M15.3505 6.24561H2.05078V19.5453H15.3505V6.24561Z" fill="#FFD200"/>
<path d="M8.70062 6.24561H2.05078V19.5453H8.70062V6.24561Z" fill="#0046AE"/>
<path d="M11.4817 10.1125C11.4516 10.1111 11.4218 10.1192 11.3966 10.1357C11.4264 10.1446 11.4468 10.1721 11.4465 10.2033V10.2855H11.3642C11.3333 10.2859 11.3058 10.2658 11.2967 10.2362C11.2657 10.2887 11.2657 10.3539 11.2967 10.4064C11.3055 10.3765 11.3331 10.3562 11.3642 10.3565H11.4465V10.752C11.4468 10.7818 11.4281 10.8084 11.4 10.8184C11.4392 10.8237 11.473 10.8764 11.4823 10.9052C11.4915 10.8764 11.5253 10.8237 11.5646 10.8184C11.5362 10.8087 11.5172 10.7819 11.5174 10.752V10.3564H11.5997C11.6307 10.3561 11.6582 10.3762 11.6673 10.4058C11.6983 10.3533 11.6983 10.2881 11.6673 10.2356C11.6584 10.2655 11.6309 10.2858 11.5997 10.2855H11.5174V10.2032C11.5171 10.1723 11.5372 10.1448 11.5668 10.1357C11.5416 10.1192 11.5118 10.1111 11.4817 10.1125V10.1125Z" fill="black"/>
<path d="M11.4842 10.1294C11.4676 10.1295 11.4512 10.1322 11.4354 10.1373C11.4547 10.1538 11.4659 10.1778 11.4661 10.2032V10.2855C11.466 10.2866 11.4658 10.2878 11.4655 10.2889V10.3019H11.4524C11.4513 10.3022 11.4502 10.3024 11.449 10.3025H11.3667C11.3417 10.3023 11.3179 10.2914 11.3015 10.2724C11.296 10.2881 11.2931 10.3046 11.293 10.3212C11.293 10.3378 11.2957 10.3543 11.3009 10.37C11.3173 10.3507 11.3414 10.3395 11.3667 10.3394H11.466C11.4659 10.3411 11.4655 10.3428 11.4655 10.3445V10.353C11.4658 10.3541 11.466 10.3552 11.466 10.3564V10.7519C11.4652 10.776 11.454 10.7985 11.4354 10.8138C11.4476 10.8214 11.4586 10.831 11.4677 10.8421C11.4744 10.8514 11.4801 10.8612 11.4848 10.8716C11.4894 10.8613 11.4951 10.8514 11.5018 10.8421C11.5108 10.8312 11.5216 10.8219 11.5336 10.8143C11.5148 10.7989 11.5036 10.7762 11.5029 10.7519V10.3399H11.5165C11.5176 10.3396 11.5188 10.3394 11.5199 10.3394H11.6022C11.6273 10.3395 11.6511 10.3505 11.6675 10.3694C11.6729 10.3537 11.6758 10.3373 11.676 10.3206C11.6759 10.3041 11.6732 10.2876 11.668 10.2718C11.6516 10.2912 11.6276 10.3023 11.6022 10.3025H11.5199C11.5188 10.3024 11.5176 10.3022 11.5165 10.3019H11.5035V10.2888C11.5032 10.2877 11.503 10.2866 11.5029 10.2854V10.2032C11.5031 10.1781 11.514 10.1543 11.533 10.1379C11.5173 10.1324 11.5008 10.1296 11.4842 10.1294" fill="#F5D402"/>
<path d="M12.5205 11.5622C12.4724 11.5296 12.4313 11.4877 12.3996 11.4391C12.329 11.3258 12.2992 11.1866 12.2992 11.0453C12.2992 10.9855 12.3661 10.9182 12.3661 10.8699C12.3665 10.8308 12.3643 10.7918 12.3593 10.753C12.3831 10.7563 12.4246 10.7984 12.4246 10.7984C12.4246 10.7984 12.4231 10.6772 12.3848 10.656C12.3848 10.656 12.4003 10.6401 12.4563 10.6384C12.4406 10.5985 12.3627 10.5499 12.3627 10.5499C12.3677 10.5421 12.3748 10.5358 12.3831 10.5317C12.4047 10.5212 12.4276 10.5137 12.4512 10.5096C12.4253 10.504 12.3997 10.497 12.3746 10.4886C12.3021 10.4644 12.2312 10.4356 12.1624 10.4023C12.0744 10.3582 11.9771 10.3354 11.8787 10.3359C11.839 10.336 11.7807 10.337 11.7465 10.3598C11.7151 10.3806 11.7177 10.4076 11.7067 10.4171C11.6809 10.4395 11.6367 10.4387 11.6154 10.4387C11.4775 10.4387 11.4724 10.5862 11.4724 10.5862C11.4724 10.5862 11.5076 10.5329 11.57 10.5329C11.6736 10.5329 11.7521 10.5893 11.7521 10.6106C11.7521 10.6192 11.7414 10.6208 11.7408 10.6208C11.6731 10.6208 11.5709 10.5818 11.5166 10.58V10.6066C11.6378 10.6488 11.7606 10.7085 11.7606 10.9715C11.7606 11.1371 11.7408 11.3061 11.6579 11.4391C11.626 11.4878 11.5847 11.5296 11.5365 11.5622L12.0285 11.6509L12.5205 11.5622Z" fill="black"/>
<path d="M12.0284 11.4514L11.5365 11.5622C11.5141 11.5555 11.4089 11.5228 11.335 11.4817C11.205 11.4093 11.1377 11.3372 10.9832 11.3301V11.2127C10.9832 11.1499 11.0059 11.0934 11.0059 11.0334C10.9408 11.0159 10.7601 10.7949 10.5934 10.6968C10.3481 10.8557 10.1581 11.1166 10.1581 11.2365C10.1581 11.2365 10.1655 13.8138 10.1581 14.7117C10.1581 14.7634 10.1269 14.8365 10.1269 14.8365C10.2165 14.7986 10.3806 14.574 10.4152 14.4886V14.5295C10.5504 14.4678 10.6495 14.3058 10.6938 14.222C10.6946 14.2341 10.6967 14.2645 10.6967 14.2645C10.8175 14.1586 10.9713 13.5325 10.9713 13.5325L11.2276 13.7844C11.2276 13.7844 11.1349 13.9726 11.0988 14.0063C11.1159 14.0082 11.1332 14.0092 11.1504 14.0091C11.1336 14.0333 11.0047 14.2189 10.9643 14.2888C10.9265 14.3543 10.8998 14.3252 10.8417 14.3252C10.7936 14.3252 10.6843 14.4019 10.6664 14.433C10.647 14.4648 10.6357 14.5008 10.6335 14.538C10.6335 14.5739 10.6715 14.6231 10.6715 14.6231C10.6729 14.6144 10.6769 14.6063 10.6829 14.5998C10.6829 14.5998 10.7828 14.7243 10.7975 14.7405C10.809 14.7532 10.8601 14.7615 10.8781 14.7451C10.9231 14.7041 10.9668 14.6755 11.0069 14.6163C11.0275 14.5858 11.0291 14.5508 11.0528 14.5181C11.1322 14.4086 11.2902 14.1989 11.3264 14.151C11.3288 14.1643 11.3308 14.1754 11.3331 14.189C11.3741 14.1063 11.5709 13.9484 11.5709 13.9484L11.7769 14.0432C11.7769 14.0432 11.3924 14.927 11.0511 15.0629C11.0511 15.0629 11.1996 15.126 11.3819 15.2206C11.4085 15.2345 11.4359 15.2493 11.4636 15.2644C11.4866 15.2367 11.5107 15.206 11.5345 15.1741C11.6436 15.0282 11.7502 14.8592 11.7502 14.8592C11.7576 14.9031 11.7 15.0387 11.6027 15.2059C11.5835 15.2388 11.5635 15.2731 11.5414 15.308C11.5661 15.3221 11.5906 15.3364 11.6151 15.3512C11.7958 15.4599 11.9654 15.5848 12.0282 15.6996L12.0726 15.5886L12.0282 15.4777V11.5986L12.0504 11.5431L12.0284 11.4514Z" fill="black"/>
<path d="M12.028 11.4514L12.5199 11.5622C12.5423 11.5555 12.6475 11.5228 12.7214 11.4817C12.8514 11.4093 12.9188 11.3372 13.0732 11.3301V11.2127C13.0732 11.1499 13.0505 11.0934 13.0505 11.0334C13.1156 11.0159 13.2963 10.7949 13.463 10.6968C13.7083 10.8557 13.8983 11.1166 13.8983 11.2365C13.8983 11.2365 13.8909 13.8138 13.8983 14.7117C13.8983 14.7634 13.9295 14.8365 13.9295 14.8365C13.8399 14.7986 13.6758 14.574 13.6412 14.4886V14.5295C13.506 14.4678 13.4069 14.3058 13.3626 14.222C13.3618 14.2341 13.3597 14.2645 13.3597 14.2645C13.2389 14.1586 13.0851 13.5325 13.0851 13.5325L12.8288 13.7844C12.8288 13.7844 12.9215 13.9726 12.9576 14.0063C12.9405 14.0082 12.9232 14.0092 12.906 14.0091C12.9228 14.0333 13.0517 14.2189 13.0921 14.2888C13.1299 14.3543 13.1566 14.3252 13.2147 14.3252C13.2629 14.3252 13.3721 14.4019 13.39 14.433C13.4094 14.4648 13.4207 14.5008 13.4229 14.538C13.4229 14.5739 13.3849 14.6231 13.3849 14.6231C13.3835 14.6144 13.3795 14.6063 13.3735 14.5998C13.3735 14.5998 13.2736 14.7243 13.2589 14.7405C13.2475 14.7532 13.1963 14.7615 13.1783 14.7451C13.1333 14.7041 13.0896 14.6755 13.0495 14.6163C13.0289 14.5858 13.0273 14.5508 13.0036 14.5181C12.9242 14.4086 12.7662 14.1989 12.7301 14.151C12.7276 14.1643 12.7256 14.1754 12.7233 14.189C12.6823 14.1063 12.4855 13.9484 12.4855 13.9484L12.2796 14.0432C12.2796 14.0432 12.6641 14.927 13.0053 15.0629C13.0053 15.0629 12.8569 15.126 12.6745 15.2206C12.6479 15.2345 12.6205 15.2493 12.5928 15.2644C12.5698 15.2367 12.5457 15.206 12.5219 15.1741C12.4128 15.0282 12.3062 14.8592 12.3062 14.8592C12.2988 14.9031 12.3564 15.0387 12.4538 15.2059C12.4729 15.2388 12.4929 15.2731 12.515 15.308C12.4903 15.3221 12.4658 15.3364 12.4413 15.3512C12.2606 15.4599 12.091 15.5848 12.0282 15.6996L11.9838 15.5886L12.0282 15.4777V11.5986L12.006 11.5431L12.028 11.4514Z" fill="black"/>
<path d="M10.8995 11.0441L10.9023 11.1145V11.3216C10.8467 11.3025 10.7768 11.2111 10.7429 11.1627V11.1344C10.7436 11.1125 10.7535 11.0919 10.7701 11.0776L10.7366 11.0657C10.7202 11.0831 10.7107 11.1059 10.7099 11.1298V11.1463L10.6101 11.2535L10.5119 11.1049V11.0686C10.5119 11.0441 10.5307 11.0168 10.5465 10.9982L10.5136 10.9863C10.497 11.0078 10.4796 11.0368 10.4796 11.064V11.0935C10.4565 11.1174 10.3666 11.2099 10.3666 11.2099C10.3666 11.2099 10.3216 11.113 10.3093 11.0867C10.3781 10.9914 10.4896 10.8848 10.5948 10.8082C10.5948 10.8082 10.8227 11.0175 10.8995 11.0441Z" fill="#B07F55"/>
<path d="M10.3217 11.245V11.4158L10.2423 11.4896V11.2359C10.2446 11.2056 10.2539 11.1763 10.2695 11.1502L10.3217 11.245Z" fill="#B07F55"/>
<path d="M10.5692 11.3108V11.4164L10.4778 11.5021V11.1718L10.5692 11.3108Z" fill="#B07F55"/>
<path d="M10.4454 11.5015L10.3541 11.4164V11.2927L10.4454 11.1968V11.5015Z" fill="#B07F55"/>
<path d="M10.8625 11.3733C10.8413 11.4032 10.7857 11.4766 10.7258 11.5089V11.2189C10.7395 11.2418 10.8026 11.3439 10.8625 11.3733Z" fill="#B07F55"/>
<path d="M10.6934 11.2337V11.5015L10.602 11.4164V11.3216L10.6934 11.2337Z" fill="#B07F55"/>
<path d="M10.3217 11.5191V11.7864L10.2423 11.712V11.5934L10.3217 11.5191Z" fill="#B07F55"/>
<path d="M10.4454 11.6048V11.7007L10.354 11.7858V11.5197L10.4454 11.6048Z" fill="#B07F55"/>
<path d="M10.5691 11.5197V11.7858L10.4777 11.7001V11.6054L10.5691 11.5197Z" fill="#B07F55"/>
<path d="M10.6933 11.6054V11.7001L10.602 11.7858V11.5197L10.6933 11.6054Z" fill="#B07F55"/>
<path d="M10.817 11.7864L10.7257 11.7007V11.6116C10.7572 11.5924 10.7889 11.557 10.817 11.5197L10.817 11.7864Z" fill="#B07F55"/>
<path d="M10.5855 11.9044L10.682 11.8147V14.0165C10.682 14.0165 10.6887 14.1257 10.6934 14.1969C10.6505 14.2403 10.4891 14.4035 10.4891 14.4035V11.8142L10.5855 11.9044Z" fill="#B07F55"/>
<path d="M10.434 14.3212C10.434 14.392 10.3047 14.557 10.2422 14.5947V11.8154L10.3375 11.9044L10.434 11.8148V14.3212Z" fill="#B07F55"/>
<path d="M13.1597 11.0441L13.1569 11.1145V11.3216C13.2125 11.3025 13.2824 11.2111 13.3163 11.1627V11.1344C13.3156 11.1125 13.3057 11.0919 13.2891 11.0776L13.3226 11.0657C13.339 11.0831 13.3485 11.1059 13.3492 11.1298V11.1463L13.4491 11.2535L13.5473 11.1049V11.0686C13.5473 11.0441 13.5284 11.0168 13.5126 10.9982L13.5456 10.9863C13.5622 11.0078 13.5796 11.0368 13.5796 11.064V11.0935C13.6027 11.1174 13.6925 11.2098 13.6925 11.2098C13.6925 11.2098 13.7376 11.113 13.7498 11.0867C13.6811 10.9914 13.5695 10.8848 13.4644 10.8082C13.4644 10.8082 13.2365 11.0175 13.1597 11.0441Z" fill="#B07F55"/>
<path d="M13.7374 11.245V11.4158L13.8169 11.4896V11.2359C13.8146 11.2056 13.8053 11.1763 13.7896 11.1502L13.7374 11.245Z" fill="#B07F55"/>
<path d="M13.49 11.3108V11.4164L13.5814 11.5021V11.1718L13.49 11.3108Z" fill="#B07F55"/>
<path d="M13.6137 11.5015L13.7051 11.4164V11.2927L13.6137 11.1968V11.5015Z" fill="#B07F55"/>
<path d="M13.1967 11.3733C13.2179 11.4032 13.2734 11.4766 13.3334 11.5089V11.2189C13.3197 11.2418 13.2565 11.3439 13.1967 11.3733Z" fill="#B07F55"/>
<path d="M13.3658 11.2337V11.5015L13.4571 11.4164V11.3216L13.3658 11.2337Z" fill="#B07F55"/>
<path d="M13.7374 11.5191V11.7864L13.8169 11.712V11.5934L13.7374 11.5191Z" fill="#B07F55"/>
<path d="M13.6138 11.6048V11.7007L13.7052 11.7858V11.5197L13.6138 11.6048Z" fill="#B07F55"/>
<path d="M13.4901 11.5197V11.7858L13.5815 11.7001V11.6054L13.4901 11.5197Z" fill="#B07F55"/>
<path d="M13.3658 11.6054V11.7001L13.4572 11.7858V11.5197L13.3658 11.6054Z" fill="#B07F55"/>
<path d="M13.2421 11.7864L13.3335 11.7007V11.6116C13.302 11.5924 13.2703 11.557 13.2421 11.5197L13.2421 11.7864Z" fill="#B07F55"/>
<path d="M13.4736 11.9044L13.3772 11.8147V14.0165C13.3772 14.0165 13.3704 14.1257 13.3658 14.1969C13.4087 14.2403 13.5701 14.4035 13.5701 14.4035V11.8141L13.4736 11.9044Z" fill="#B07F55"/>
<path d="M13.6252 14.3212C13.6252 14.392 13.7544 14.557 13.817 14.5947V11.8154L13.7217 11.9044L13.6252 11.8148V14.3212Z" fill="#B07F55"/>
<path fill-rule="evenodd" clip-rule="evenodd" d="M12.0296 15.4771L12.0296 15.4771L12.0295 15.477L12.0296 15.4771ZM12.0297 15.477L12.0296 15.4771L12.0296 15.4771L12.0297 15.477ZM12.0296 11.5977L12.0293 11.598H11.9739V15.3668L12.0295 15.477C11.9657 15.4079 11.8326 15.3235 11.6829 15.2456C11.864 14.9207 11.9537 14.407 11.9116 14.3047C11.9116 14.3047 11.8373 14.5711 11.7464 14.723C11.6624 14.8636 11.5588 15.0217 11.4587 15.1389C11.3835 15.1064 11.3066 15.078 11.2284 15.0538C11.5283 14.8228 11.835 14.059 11.835 14.059L11.5178 13.9121C11.5178 13.9121 11.3992 14.0504 11.3606 14.0761C11.3606 14.0761 11.3442 14.0073 11.3345 13.983C11.3345 13.983 11.2891 14.0174 11.2642 14.0182C11.2642 14.0182 11.2568 13.9715 11.2511 13.941C11.2198 13.9619 11.1677 13.9575 11.1677 13.9575C11.2135 13.9358 11.2676 13.8031 11.2676 13.8031L10.9647 13.4003C10.9647 13.4003 10.8584 13.9114 10.7372 14.0165V11.8153L10.8331 11.9044L10.9784 11.7688V11.6655L10.8495 11.7858V11.4743C10.869 11.4449 10.8818 11.423 10.8915 11.4056C10.9124 11.442 10.9798 11.5534 11.0589 11.6218C11.072 11.5689 11.1577 11.5185 11.1577 11.5185C11.1577 11.5185 11.1884 11.6018 11.2354 11.6224C11.2518 11.5935 11.3492 11.5297 11.3506 11.5288C11.413 11.557 11.5075 11.5628 11.535 11.564C11.502 11.5869 11.4673 11.6074 11.4312 11.6252C11.4312 11.6252 11.5798 11.6239 11.6843 11.5719C11.7222 11.549 11.7586 11.5236 11.7932 11.4958C11.7773 11.5422 11.7531 11.5853 11.7217 11.623C11.8751 11.61 11.9514 11.5224 11.9731 11.493C11.9868 11.5304 12.0059 11.5656 12.0296 11.5977ZM12.7086 11.5288C12.71 11.5297 12.8074 11.5935 12.8238 11.6224C12.8708 11.6018 12.9015 11.5185 12.9015 11.5185C12.9015 11.5185 12.9872 11.5689 13.0002 11.6218C13.0794 11.5534 13.1468 11.442 13.1676 11.4056C13.1773 11.423 13.1902 11.4449 13.2096 11.4743V11.7858L13.0808 11.6655V11.7688L13.2261 11.9044L13.322 11.8153V14.0165C13.2008 13.9114 13.0944 13.4003 13.0944 13.4003L12.7916 13.8031C12.7916 13.8031 12.8457 13.9358 12.8915 13.9575C12.8915 13.9575 12.8394 13.9619 12.808 13.941C12.8024 13.9715 12.795 14.0182 12.795 14.0182C12.7701 14.0174 12.7246 13.983 12.7246 13.983C12.715 14.0073 12.6985 14.0761 12.6985 14.0761C12.66 14.0504 12.5414 13.9121 12.5414 13.9121L12.2242 14.059C12.2242 14.059 12.5309 14.8228 12.8308 15.0538C12.7525 15.078 12.6756 15.1064 12.6004 15.1389C12.5003 15.0217 12.3968 14.8636 12.3127 14.723C12.2219 14.5711 12.1476 14.3047 12.1476 14.3047C12.1055 14.407 12.1952 14.9207 12.3763 15.2456C12.2266 15.3235 12.0934 15.4079 12.0297 15.477L12.0853 15.3668V11.598H12.0298L12.0296 11.5977C12.0533 11.5656 12.0723 11.5304 12.0861 11.493C12.1077 11.5224 12.1841 11.61 12.3375 11.623C12.3061 11.5853 12.2819 11.5422 12.266 11.4958C12.3005 11.5236 12.3369 11.549 12.3749 11.5719C12.4793 11.6239 12.628 11.6252 12.628 11.6252C12.5919 11.6074 12.5572 11.5869 12.5242 11.5639C12.5517 11.5628 12.6461 11.557 12.7086 11.5288ZM12.7086 11.5288L12.7086 11.5288L12.7086 11.5288L12.7086 11.5288ZM12.8641 11.451C12.864 11.452 12.8564 11.567 12.8272 11.5736C12.7933 11.5419 12.7103 11.529 12.7086 11.5288C12.7345 11.517 12.762 11.5028 12.7899 11.4883C12.8146 11.4755 12.8396 11.4625 12.8641 11.451ZM12.8641 11.451L12.8641 11.451C12.9116 11.4286 12.9569 11.4119 12.9923 11.4119C13.0232 11.4118 13.0541 11.4135 13.0848 11.417C13.0705 11.4552 13.0336 11.5485 13.0099 11.5549C12.9884 11.5117 12.865 11.4515 12.8641 11.451ZM11.3506 11.5288L11.3506 11.5288L11.3506 11.5288L11.3506 11.5288ZM11.1951 11.451C11.2196 11.4625 11.2446 11.4755 11.2692 11.4883C11.2972 11.5028 11.3247 11.517 11.3506 11.5288C11.3489 11.529 11.2658 11.5419 11.232 11.5736C11.2028 11.567 11.1952 11.452 11.1951 11.451ZM11.1951 11.451C11.1941 11.4515 11.0708 11.5117 11.0493 11.5549C11.0256 11.5485 10.9887 11.4552 10.9744 11.417C11.0051 11.4135 11.036 11.4118 11.0669 11.4119C11.1023 11.4119 11.1476 11.4287 11.1951 11.451L11.1951 11.451Z" fill="#B07F55"/>
<path d="M12.0853 11.598H12.0298L12.0296 11.5977L12.0293 11.598H11.9739V15.3668L12.0295 15.477L12.0296 15.4771L12.0297 15.477L12.0853 15.3668V11.598Z" fill="#B07F55"/>
<path d="M11.9158 10.3717C12.0428 10.3717 12.1321 10.4296 12.2523 10.4829C12.2838 10.4969 12.3127 10.5082 12.3385 10.517C12.3245 10.5277 12.3134 10.5417 12.3062 10.5578C12.3062 10.5578 12.36 10.5678 12.3845 10.6129C12.3845 10.6129 12.3333 10.6187 12.3249 10.6486C12.3536 10.6508 12.3821 10.687 12.3822 10.7218L12.3096 10.6991C12.3208 10.7552 12.3267 10.8122 12.3272 10.8694C12.3272 10.9147 12.2619 10.968 12.2619 11.0447C12.2619 11.2856 12.3226 11.3782 12.3658 11.4527C12.3827 11.4819 12.3964 11.5154 12.4248 11.5407C12.3005 11.4745 12.208 11.3917 12.208 11.3148V11.0237H12.1757V11.3148C12.1757 11.3706 12.1893 11.3965 12.1893 11.3965C12.2088 11.4582 12.2483 11.5534 12.2727 11.5917C12.1583 11.5299 12.1002 11.4525 12.1002 11.4238V11.0237H12.0679V11.4294L12.0741 11.4572C12.0602 11.4781 12.0422 11.5028 12.0298 11.5112C12.0175 11.5028 12 11.4781 11.9861 11.4572L11.9924 11.4294V11.0237H11.96V11.4238C11.96 11.4525 11.9019 11.5299 11.7875 11.5917C11.812 11.5534 11.8514 11.4582 11.8709 11.3965C11.8709 11.3965 11.8845 11.3706 11.8845 11.3148V11.0237H11.8522V11.3148C11.8522 11.3916 11.7601 11.4745 11.636 11.5407C11.6641 11.5154 11.6776 11.4817 11.6944 11.4527C11.7416 11.3713 11.8 11.2678 11.8 10.9732C11.8 10.8627 11.7836 10.7875 11.7552 10.7349C11.7465 10.7175 11.7348 10.6713 11.8011 10.6713C11.8354 10.6713 11.914 10.732 11.914 10.732C11.9109 10.7018 11.8953 10.6742 11.8709 10.656C11.8609 10.6481 11.8545 10.6364 11.8533 10.6236C11.8579 10.6066 11.8689 10.592 11.884 10.5828C11.8932 10.5786 11.7489 10.5535 11.7489 10.488C11.7489 10.4744 11.7575 10.4653 11.7875 10.4653C11.8268 10.4653 11.8907 10.5124 11.9475 10.5124C11.9895 10.5124 12.0061 10.5022 12.0491 10.5022C12.1017 10.5022 12.2113 10.6017 12.2488 10.5981C12.2069 10.5718 12.1392 10.4721 12.0366 10.4721C12.001 10.4721 11.9688 10.4801 11.9356 10.4801C11.893 10.4801 11.8511 10.4409 11.8051 10.4409C11.7742 10.4409 11.7398 10.4426 11.7347 10.4347C11.7258 10.4207 11.7338 10.4127 11.7421 10.4012C11.7577 10.3795 11.8016 10.3732 11.8448 10.3717C11.8578 10.3712 11.8707 10.371 11.8828 10.3711C11.8949 10.3713 11.9061 10.3717 11.9158 10.3717Z" fill="#B07F55"/>
<path d="M11.2363 14.0822L11.3067 14.0339C11.3067 14.0339 11.3113 14.0572 11.3174 14.089C11.2873 14.1302 11.1142 14.3664 11.0286 14.4817C11.0073 14.5103 10.9894 14.5832 10.9894 14.5832C10.9894 14.5832 10.9582 14.5685 10.9582 14.5418C10.9582 14.5156 10.9616 14.4845 10.9616 14.4845C10.9449 14.5016 10.922 14.5112 10.8981 14.5112C10.8981 14.479 10.9603 14.4441 10.9628 14.3983C10.9153 14.4334 10.8741 14.4154 10.8192 14.4323C10.7594 14.4507 10.7428 14.4758 10.7244 14.4749C10.7136 14.4743 10.7039 14.4557 10.708 14.4442C10.7151 14.4244 10.7891 14.3696 10.8408 14.3597C10.8531 14.3573 10.9505 14.3809 10.9701 14.3506C11.051 14.2259 11.1822 14.0234 11.1949 14.0039C11.2026 14.0024 11.2101 13.9998 11.217 13.9959C11.217 13.9959 11.2162 14.0597 11.2363 14.0822Z" fill="#D10429"/>
<path d="M10.7839 14.4708C10.7878 14.4751 10.7875 14.4817 10.7833 14.4856L10.7515 14.5134C10.747 14.5169 10.7404 14.5162 10.7368 14.5117C10.7329 14.5074 10.7331 14.5008 10.7373 14.4969L10.7691 14.4691C10.7711 14.4674 10.7738 14.4665 10.7765 14.4669C10.7794 14.4672 10.782 14.4687 10.7839 14.4708Z" fill="#D10429"/>
<path d="M10.8321 14.5043C10.8415 14.5142 10.8411 14.5299 10.8312 14.5393L10.831 14.5395L10.7538 14.607C10.7421 14.6157 10.7255 14.6133 10.7168 14.6016C10.7091 14.5911 10.7101 14.5766 10.7192 14.5673L10.7963 14.5004C10.8002 14.4971 10.8049 14.4951 10.81 14.4947C10.8185 14.4942 10.8267 14.4978 10.8321 14.5043Z" fill="#D10429"/>
<path d="M10.8763 14.5565C10.8857 14.5664 10.8853 14.5821 10.8754 14.5915L10.8752 14.5917L10.7975 14.6592C10.7867 14.6679 10.771 14.6661 10.7623 14.6554L10.7623 14.6553C10.7528 14.6451 10.7533 14.6291 10.7634 14.6195L10.8406 14.5526C10.8442 14.5493 10.8488 14.5474 10.8536 14.5469C10.8623 14.5464 10.8707 14.55 10.8763 14.5565Z" fill="#D10429"/>
<path d="M10.903 14.598C10.9114 14.5972 10.9196 14.6006 10.9251 14.607C10.9346 14.6172 10.9341 14.6332 10.924 14.6428L10.8468 14.7098C10.835 14.7183 10.8186 14.7156 10.8101 14.7039C10.8027 14.6937 10.8036 14.6798 10.8122 14.6706L10.8899 14.6031C10.8936 14.6 10.8982 14.5982 10.903 14.598Z" fill="#D10429"/>
<path d="M12.8251 14.0822L12.7547 14.0339C12.7547 14.0339 12.75 14.0572 12.7439 14.089C12.774 14.1302 12.9471 14.3664 13.0327 14.4817C13.054 14.5103 13.0719 14.5832 13.0719 14.5832C13.0719 14.5832 13.1031 14.5685 13.1031 14.5418C13.1031 14.5156 13.0997 14.4845 13.0997 14.4845C13.1164 14.5016 13.1394 14.5112 13.1633 14.5112C13.1633 14.479 13.101 14.4441 13.0986 14.3983C13.146 14.4334 13.1872 14.4154 13.2421 14.4323C13.3019 14.4507 13.3186 14.4758 13.3369 14.4749C13.3477 14.4743 13.3575 14.4557 13.3533 14.4442C13.3462 14.4244 13.2723 14.3696 13.2206 14.3597C13.2082 14.3573 13.1108 14.3809 13.0912 14.3506C13.0104 14.2259 12.8791 14.0234 12.8665 14.0039C12.8587 14.0024 12.8513 13.9998 12.8444 13.9959C12.8444 13.9959 12.8451 14.0597 12.8251 14.0822Z" fill="#D10429"/>
<path d="M13.2775 14.4708C13.2736 14.4751 13.2738 14.4817 13.2781 14.4856L13.3098 14.5134C13.3144 14.5169 13.3209 14.5162 13.3246 14.5117C13.3285 14.5074 13.3282 14.5008 13.324 14.4969L13.2922 14.4691C13.2902 14.4674 13.2875 14.4665 13.2848 14.4669C13.282 14.4672 13.2794 14.4687 13.2775 14.4708Z" fill="#D10429"/>
<path d="M13.2292 14.5043C13.2198 14.5142 13.2203 14.5299 13.2302 14.5393L13.2304 14.5395L13.3076 14.607C13.3193 14.6157 13.3358 14.6133 13.3445 14.6016C13.3523 14.5911 13.3513 14.5766 13.3422 14.5673L13.265 14.5004C13.2612 14.4971 13.2564 14.4951 13.2514 14.4947C13.2429 14.4942 13.2347 14.4978 13.2292 14.5043Z" fill="#D10429"/>
<path d="M13.185 14.5565C13.1756 14.5664 13.176 14.5821 13.1859 14.5915L13.1862 14.5917L13.2639 14.6592C13.2746 14.6679 13.2904 14.6661 13.299 14.6554L13.2991 14.6553C13.3086 14.6451 13.3081 14.6291 13.2979 14.6195L13.2208 14.5526C13.2171 14.5493 13.2126 14.5474 13.2077 14.5469C13.1991 14.5464 13.1907 14.55 13.185 14.5565Z" fill="#D10429"/>
<path d="M13.1584 14.598C13.15 14.5972 13.1417 14.6006 13.1362 14.607C13.1268 14.6172 13.1273 14.6332 13.1374 14.6428L13.2146 14.7098C13.2263 14.7183 13.2427 14.7156 13.2512 14.7039C13.2586 14.6937 13.2577 14.6798 13.2492 14.6706L13.1714 14.6031C13.1678 14.6 13.1632 14.5982 13.1584 14.598Z" fill="#D10429"/>
<path d="M11.5045 10.5273L11.5045 10.5274L11.5045 10.5273L11.5045 10.5273Z" fill="#D10429"/>
<path fill-rule="evenodd" clip-rule="evenodd" d="M11.5045 10.5273C11.5247 10.4947 11.5608 10.4754 11.5991 10.4766C11.6274 10.4766 11.7209 10.4746 11.7209 10.4746C11.7251 10.4855 11.7343 10.4987 11.7446 10.5137C11.7651 10.5435 11.7902 10.5799 11.7902 10.6174C11.7902 10.6174 11.7325 10.5134 11.5716 10.5134C11.5485 10.5131 11.5256 10.5178 11.5045 10.5273ZM11.7119 10.5415L11.7119 10.5415L11.7119 10.5415L11.7119 10.5415ZM11.7119 10.5415C11.7115 10.531 11.7085 10.5208 11.703 10.5118C11.6915 10.4987 11.6723 10.4987 11.6723 10.5156C11.6723 10.5287 11.7111 10.5413 11.7119 10.5415Z" fill="#D10429"/>
<path d="M11.7245 10.6926C11.7319 10.6733 11.7662 10.6372 11.7662 10.6372C11.6815 10.648 11.6314 10.6188 11.6314 10.6188C11.6314 10.6188 11.6905 10.6797 11.7245 10.6926Z" fill="#D10429"/>
<path d="M11.8937 10.6281C11.9396 10.6281 11.9768 10.5999 11.9768 10.565C11.9768 10.5302 11.9396 10.502 11.8937 10.502C11.8478 10.502 11.8105 10.5302 11.8105 10.565C11.8105 10.5999 11.8478 10.6281 11.8937 10.6281Z" fill="black"/>
<path fill-rule="evenodd" clip-rule="evenodd" d="M11.9497 10.5637C11.9497 10.5956 11.9238 10.6215 11.8919 10.6215C11.86 10.6215 11.8341 10.5956 11.8341 10.5637C11.8341 10.5317 11.86 10.5059 11.8919 10.5059C11.9238 10.5059 11.9497 10.5317 11.9497 10.5637ZM11.9184 10.5637C11.9184 10.5783 11.9066 10.5901 11.8919 10.5901C11.8773 10.5901 11.8654 10.5783 11.8654 10.5637C11.8654 10.549 11.8773 10.5372 11.8919 10.5372C11.9066 10.5372 11.9184 10.549 11.9184 10.5637Z" fill="#F5D402"/>
<path d="M10.9709 14.6421L11.1505 14.7401L11.1069 14.9399L10.9273 14.8419L10.9709 14.6421Z" fill="black"/>
<path d="M10.3614 13.9842C10.3614 13.9842 10.423 14.1114 10.4697 14.1288C10.4455 14.1222 10.367 14.151 10.367 14.151C10.367 14.151 10.5055 14.2748 10.623 14.2829C10.7227 14.2898 10.7711 14.2401 10.7711 14.2401L10.7511 14.1345C10.7079 14.0862 10.6534 14.0492 10.5926 14.0269C10.494 13.9926 10.3614 13.9842 10.3614 13.9842L10.3614 13.9842Z" fill="black"/>
<path d="M10.8255 13.7564C10.8255 13.7564 10.7405 13.8292 10.7172 13.9135C10.694 13.9978 10.7324 14.0936 10.7324 14.0936L10.8038 14.2268C10.8038 14.2268 10.9028 14.1741 10.9449 14.0954C10.987 14.0166 10.9716 13.9103 10.9716 13.9103C10.9716 13.9103 10.8932 13.9395 10.8832 13.9524C10.8998 13.865 10.8255 13.7564 10.8255 13.7564H10.8255Z" fill="black"/>
<path d="M10.5523 13.7224C10.5523 13.7224 10.4556 13.7551 10.3617 13.7494C10.2723 13.744 10.1979 13.6689 10.1979 13.6689C10.1979 13.6689 10.272 13.6188 10.3086 13.6254C10.2684 13.6107 10.21 13.5099 10.21 13.5099C10.21 13.5099 10.293 13.4848 10.3665 13.5126C10.44 13.5403 10.5042 13.6209 10.5042 13.6209L10.5523 13.7224L10.5523 13.7224Z" fill="black"/>
<path d="M10.5855 13.2502C10.5855 13.2502 10.6339 13.3503 10.6224 13.3851C10.6374 13.3619 10.6942 13.3259 10.6942 13.3259C10.6942 13.3259 10.7285 13.488 10.6957 13.5881C10.6629 13.6882 10.5629 13.7263 10.5629 13.7263L10.4527 13.512C10.4527 13.512 10.4363 13.4325 10.4707 13.3697C10.5051 13.3068 10.5855 13.2502 10.5855 13.2502V13.2502Z" fill="black"/>
<path d="M9.95647 12.9852C9.95647 12.9852 10.061 12.9742 10.1566 13.0138C10.2365 13.047 10.261 13.1073 10.261 13.1073L10.3003 13.2128C10.3003 13.2128 10.1866 13.2554 10.0967 13.2228C10.0069 13.1902 9.94083 13.0823 9.94083 13.0823C9.94083 13.0823 10.0036 13.0585 10.0275 13.0674C9.99272 13.052 9.95649 12.9852 9.95649 12.9852V12.9852L9.95647 12.9852Z" fill="black"/>
<path d="M10.7767 14.2355L10.7797 14.2747C10.8448 14.2753 10.8545 14.2688 10.8712 14.2894C10.8873 14.3075 10.9133 14.3129 10.9353 14.3028C10.962 14.2905 10.9738 14.259 10.9617 14.2322C10.9496 14.2056 10.9248 14.1998 10.901 14.2045C10.8864 14.2074 10.8768 14.219 10.8644 14.2255C10.8408 14.2377 10.7767 14.2355 10.7767 14.2355L10.7767 14.2355Z" fill="black"/>
<path d="M10.7711 14.2056L10.8028 14.2288C10.7688 14.2844 10.7582 14.2892 10.7667 14.3142C10.7735 14.3374 10.7644 14.3624 10.7442 14.3758C10.7196 14.3918 10.6866 14.3851 10.6703 14.3607C10.6541 14.3363 10.6623 14.3123 10.6789 14.2946C10.6891 14.2837 10.7041 14.2817 10.7161 14.2746C10.739 14.261 10.7711 14.2056 10.7711 14.2056L10.7711 14.2056Z" fill="black"/>
<path d="M10.5505 13.74L10.5534 13.7792C10.6186 13.7798 10.6282 13.7734 10.6449 13.7939C10.661 13.812 10.6871 13.8174 10.7091 13.8073C10.7358 13.795 10.7475 13.7635 10.7355 13.7367C10.7233 13.7101 10.6986 13.7043 10.6748 13.709C10.6601 13.7119 10.6505 13.7236 10.6381 13.73C10.6145 13.7422 10.5505 13.74 10.5505 13.74L10.5505 13.74Z" fill="black"/>
<path d="M10.5637 13.7539L10.5914 13.7818C10.5492 13.8314 10.5379 13.8345 10.5425 13.8605C10.5456 13.8845 10.5327 13.9078 10.5106 13.9178C10.4838 13.9299 10.4523 13.9181 10.44 13.8915C10.4278 13.8649 10.4397 13.8424 10.4588 13.8275C10.4706 13.8183 10.4857 13.8187 10.4987 13.8135C10.5233 13.8037 10.5637 13.7539 10.5637 13.7539V13.7539Z" fill="black"/>
<path d="M10.3312 13.2761L10.3342 13.3153C10.3993 13.3159 10.409 13.3095 10.4257 13.33C10.4418 13.3481 10.4678 13.3535 10.4899 13.3434C10.5165 13.3311 10.5283 13.2996 10.5162 13.2728C10.5041 13.2462 10.4794 13.2404 10.4555 13.2451C10.4409 13.248 10.4313 13.2597 10.4189 13.2661C10.3953 13.2783 10.3312 13.2761 10.3312 13.2761L10.3312 13.2761Z" fill="black"/>
<path d="M10.3493 13.2679L10.377 13.2958C10.3348 13.3454 10.3236 13.3485 10.3281 13.3746C10.3312 13.3986 10.3183 13.4218 10.2963 13.4319C10.2695 13.4439 10.238 13.4322 10.2256 13.4055C10.2135 13.3789 10.2253 13.3564 10.2445 13.3415C10.2562 13.3324 10.2713 13.3327 10.2843 13.3276C10.309 13.3177 10.3493 13.2679 10.3493 13.2679Z" fill="black"/>
<path d="M10.1158 12.7782L10.1238 12.7863L10.1388 12.8014L10.1434 12.8061C10.1371 12.8135 10.1315 12.8199 10.1265 12.8255C10.0982 12.8572 10.0907 12.8627 10.0946 12.8849C10.0977 12.9089 10.0848 12.9321 10.0627 12.9422C10.0359 12.9542 10.0044 12.9425 9.99205 12.9158C9.9799 12.8892 9.99174 12.8667 10.0109 12.8518C10.0227 12.8427 10.0378 12.843 10.0507 12.8379C10.0633 12.8328 10.08 12.8174 10.0933 12.8035C10.0951 12.8016 10.0969 12.7997 10.0985 12.7979C10.1025 12.7937 10.1059 12.7898 10.1087 12.7866C10.1131 12.7815 10.1157 12.7782 10.1157 12.7782L10.1158 12.7782Z" fill="black"/>
<path d="M10.1343 12.722L10.0696 12.7515L10.0933 12.8035C10.0951 12.8016 10.0969 12.7997 10.0985 12.7979L10.0977 12.7864C10.0977 12.7864 10.0977 12.7864 10.0977 12.7864H10.0977C10.0979 12.7864 10.0996 12.7865 10.1025 12.7865C10.1042 12.7865 10.1063 12.7866 10.1087 12.7866C10.1131 12.7815 10.1157 12.7782 10.1157 12.7782L10.1158 12.7782L10.1238 12.7863C10.1314 12.7861 10.14 12.7856 10.1485 12.7848C10.151 12.7802 10.1536 12.7753 10.1562 12.7701L10.1343 12.722Z" fill="black"/>
<path d="M10.2563 12.8537C10.2809 12.8423 10.2928 12.8146 10.285 12.7893C10.2832 12.7909 10.2515 12.8179 10.2326 12.8587C10.2406 12.8588 10.2487 12.8572 10.2563 12.8537Z" fill="black"/>
<path fill-rule="evenodd" clip-rule="evenodd" d="M9.92322 12.4058L9.92321 12.4058L9.9232 12.4058L9.92322 12.4058ZM10.1562 12.7701C10.1749 12.7328 10.1947 12.6792 10.192 12.6236C10.187 12.5209 10.1055 12.4108 10.1055 12.4108C10.1055 12.4108 10.0733 12.4775 10.0705 12.5273C10.0498 12.4763 9.92494 12.4067 9.92321 12.4058C9.92292 12.4075 9.90453 12.5155 9.93651 12.5779C9.96531 12.634 9.98364 12.6464 9.98364 12.6464C9.92873 12.6101 9.8457 12.607 9.8457 12.607C9.8457 12.607 9.87525 12.7258 9.94587 12.7801C9.99551 12.8182 10.0641 12.8232 10.1004 12.8229L10.1006 12.8256C10.1016 12.8256 10.1025 12.8256 10.1034 12.8256L10.8005 14.3524H10.8782L10.3666 13.2312C10.3919 13.2081 10.4385 13.1567 10.4478 13.0838C10.4607 12.9826 10.4018 12.8401 10.4018 12.8401C10.4018 12.8401 10.3446 12.8799 10.3324 12.9159C10.331 12.8482 10.2851 12.7893 10.2851 12.7893V12.7893L10.285 12.7893C10.2844 12.7872 10.2836 12.7851 10.2827 12.783C10.2705 12.7564 10.2458 12.7507 10.222 12.7554C10.2128 12.7572 10.2056 12.7625 10.1984 12.7678C10.1941 12.7709 10.1899 12.774 10.1853 12.7763C10.1795 12.7793 10.1713 12.7815 10.1621 12.783L10.1562 12.7701ZM10.1485 12.7848C10.1531 12.7843 10.1577 12.7837 10.1621 12.783L10.1847 12.8326C10.1749 12.8246 10.1641 12.8248 10.1378 12.8253C10.1343 12.8254 10.1305 12.8255 10.1265 12.8255C10.1315 12.8199 10.1371 12.8135 10.1434 12.8061L10.1388 12.8014C10.1417 12.7966 10.145 12.791 10.1485 12.7848ZM10.2326 12.8587C10.2515 12.8179 10.2832 12.7909 10.285 12.7893C10.2928 12.8146 10.2809 12.8423 10.2563 12.8537C10.2487 12.8572 10.2406 12.8588 10.2326 12.8587ZM10.2326 12.8587C10.2174 12.8585 10.2027 12.8521 10.1921 12.8402C10.1896 12.8371 10.1872 12.8346 10.1847 12.8326L10.219 12.9078C10.2193 12.9046 10.2197 12.9014 10.2202 12.8983C10.2225 12.8841 10.227 12.8708 10.2326 12.8587ZM10.1485 12.7848C10.14 12.7856 10.1314 12.7861 10.1238 12.7863L10.1158 12.7782L10.1157 12.7782C10.1157 12.7782 10.1131 12.7815 10.1087 12.7866C10.1063 12.7866 10.1042 12.7865 10.1025 12.7865C10.0996 12.7865 10.0979 12.7864 10.0977 12.7864L10.0985 12.7979C10.0969 12.7997 10.0951 12.8016 10.0933 12.8035L10.0696 12.7515L10.1343 12.722L10.1562 12.7701C10.1536 12.7753 10.151 12.7802 10.1485 12.7848ZM10.9962 14.6099L10.9435 14.6644L10.9764 14.7371L11.0405 14.7076L10.9962 14.6099Z" fill="black"/>
<path d="M10.1621 12.783C10.1577 12.7837 10.1531 12.7843 10.1485 12.7848C10.145 12.791 10.1417 12.7966 10.1388 12.8014L10.1434 12.8061C10.1371 12.8135 10.1315 12.8199 10.1265 12.8255C10.1305 12.8255 10.1343 12.8254 10.1378 12.8253C10.1641 12.8248 10.1749 12.8246 10.1847 12.8326L10.1621 12.783Z" fill="black"/>
<path d="M10.9989 14.6988L11.1103 14.7595L11.0833 14.8835L10.9719 14.8227L10.9989 14.6988Z" fill="#F5D402"/>
<path d="M10.5113 13.6239C10.488 13.6336 10.4534 13.5319 10.4279 13.4762C10.4019 13.4191 10.3489 13.331 10.3639 13.3242C10.3804 13.3166 10.4022 13.3629 10.4289 13.4213C10.4556 13.4798 10.5332 13.6148 10.5113 13.6238L10.5113 13.6239Z" fill="#F5D402"/>
<path d="M10.2716 13.0886C10.2482 13.0983 10.2227 13.0318 10.1973 12.9761C10.1712 12.9189 10.1458 12.8786 10.1608 12.8717C10.1773 12.8642 10.2017 12.9142 10.2231 12.961C10.2438 13.0063 10.2934 13.0795 10.2716 13.0886L10.2716 13.0886Z" fill="#F5D402"/>
<path d="M10.8263 14.3023C10.8079 14.3071 10.7279 14.1397 10.6633 13.9981C10.5986 13.8564 10.5505 13.7418 10.5655 13.735C10.582 13.7274 10.6344 13.8612 10.6991 14.0029C10.7637 14.1446 10.84 14.2986 10.8263 14.3023Z" fill="#F5D402"/>
<path d="M10.9157 14.2834C10.9316 14.2834 10.9445 14.2705 10.9445 14.2545C10.9445 14.2386 10.9316 14.2256 10.9157 14.2256C10.8997 14.2256 10.8868 14.2386 10.8868 14.2545C10.8868 14.2705 10.8997 14.2834 10.9157 14.2834Z" fill="#F5D402"/>
<path d="M10.717 14.3604C10.7329 14.3604 10.7458 14.3475 10.7458 14.3315C10.7458 14.3156 10.7329 14.3027 10.717 14.3027C10.701 14.3027 10.6881 14.3156 10.6881 14.3315C10.6881 14.3475 10.701 14.3604 10.717 14.3604Z" fill="#F5D402"/>
<path d="M10.6893 13.7875C10.7053 13.7875 10.7182 13.7746 10.7182 13.7587C10.7182 13.7427 10.7053 13.7298 10.6893 13.7298C10.6734 13.7298 10.6604 13.7427 10.6604 13.7587C10.6604 13.7746 10.6734 13.7875 10.6893 13.7875Z" fill="#F5D402"/>
<path d="M10.4905 13.8983C10.5065 13.8983 10.5194 13.8853 10.5194 13.8694C10.5194 13.8534 10.5065 13.8405 10.4905 13.8405C10.4746 13.8405 10.4617 13.8534 10.4617 13.8694C10.4617 13.8853 10.4746 13.8983 10.4905 13.8983Z" fill="#F5D402"/>
<path d="M10.4701 13.3238C10.4861 13.3238 10.499 13.3109 10.499 13.2949C10.499 13.279 10.4861 13.266 10.4701 13.266C10.4542 13.266 10.4412 13.279 10.4412 13.2949C10.4412 13.3109 10.4542 13.3238 10.4701 13.3238Z" fill="#F5D402"/>
<path d="M10.2761 13.4124C10.2921 13.4124 10.305 13.3994 10.305 13.3835C10.305 13.3675 10.2921 13.3546 10.2761 13.3546C10.2602 13.3546 10.2473 13.3675 10.2473 13.3835C10.2473 13.3994 10.2602 13.4124 10.2761 13.4124Z" fill="#F5D402"/>
<path d="M10.2366 12.8341C10.2525 12.8341 10.2655 12.8212 10.2655 12.8053C10.2655 12.7893 10.2525 12.7764 10.2366 12.7764C10.2206 12.7764 10.2077 12.7893 10.2077 12.8053C10.2077 12.8212 10.2206 12.8341 10.2366 12.8341Z" fill="#F5D402"/>
<path d="M10.0426 12.9226C10.0586 12.9226 10.0715 12.9097 10.0715 12.8938C10.0715 12.8778 10.0586 12.8649 10.0426 12.8649C10.0267 12.8649 10.0137 12.8778 10.0137 12.8938C10.0137 12.9097 10.0267 12.9226 10.0426 12.9226Z" fill="#F5D402"/>
<path d="M9.95755 12.4727C9.95755 12.4727 9.95472 12.5525 9.98112 12.5977C10.0075 12.643 10.0665 12.6611 10.0665 12.6611C10.0665 12.6611 10.0693 12.5813 10.0429 12.536C10.0165 12.4907 9.95755 12.4727 9.95755 12.4727Z" fill="#097754"/>
<path d="M9.90234 12.6532C9.90234 12.6532 9.97168 12.6573 10.0117 12.688C10.0517 12.7187 10.0672 12.7826 10.0672 12.7826C10.0364 12.7842 10.006 12.775 9.98128 12.7566C9.94125 12.7259 9.90234 12.6532 9.90234 12.6532Z" fill="#097754"/>
<path d="M10.1199 12.4921C10.1058 12.5269 10.0988 12.5643 10.0995 12.6019C10.1022 12.6589 10.1355 12.7232 10.1355 12.7232C10.1355 12.7232 10.1655 12.6547 10.1629 12.5977C10.1602 12.5407 10.128 12.5082 10.1199 12.4921Z" fill="#097754"/>
<path d="M10.0032 13.0059C10.0264 13.0364 10.0559 13.0615 10.0897 13.0794C10.1421 13.1053 10.2202 13.1063 10.2202 13.1063C10.1951 13.075 10.164 13.049 10.1288 13.0298C10.0764 13.0039 10.0032 13.0059 10.0032 13.0059V13.0059Z" fill="#097754"/>
<path d="M10.0201 13.1163C10.0201 13.1163 10.0451 13.1653 10.0908 13.1864C10.1366 13.2074 10.2302 13.2056 10.2302 13.2056C10.2078 13.178 10.18 13.1553 10.1485 13.1388C10.1028 13.1178 10.0201 13.1163 10.0201 13.1163H10.0201Z" fill="#097754"/>
<path d="M10.2835 12.855C10.2669 12.8842 10.2583 12.9174 10.2586 12.951C10.2613 13.0014 10.2944 13.0565 10.2944 13.0565C10.2944 13.0565 10.3176 12.9933 10.3149 12.943C10.3126 12.9113 10.3017 12.8809 10.2835 12.855Z" fill="#097754"/>
<path d="M10.3854 12.9196C10.3854 12.9196 10.3381 12.9831 10.3313 13.0484C10.3245 13.1137 10.3582 13.1808 10.3582 13.1808C10.3582 13.1808 10.4154 13.1234 10.4222 13.0581C10.429 12.9928 10.3854 12.9196 10.3854 12.9196V12.9196Z" fill="#097754"/>
<path d="M10.2549 13.5226C10.2602 13.5403 10.2688 13.5567 10.2804 13.571C10.2966 13.5898 10.3145 13.607 10.334 13.6223C10.358 13.6159 10.3831 13.6153 10.4073 13.6206C10.448 13.6294 10.502 13.6656 10.502 13.6656C10.502 13.6656 10.4438 13.5788 10.3835 13.5451C10.3439 13.5247 10.2991 13.5169 10.255 13.5226L10.2549 13.5226Z" fill="#097754"/>
<path d="M10.249 13.6718C10.249 13.6718 10.3243 13.6396 10.3863 13.6479C10.4483 13.6562 10.5042 13.7052 10.5042 13.7052C10.5042 13.7052 10.4204 13.7342 10.3584 13.726C10.3175 13.7186 10.2796 13.6998 10.2489 13.6718H10.249Z" fill="#097754"/>
<path d="M10.5672 13.3217C10.5672 13.3217 10.5006 13.3923 10.495 13.4535C10.4895 13.5147 10.549 13.5718 10.549 13.5718C10.5474 13.5498 10.5499 13.5277 10.5563 13.5067C10.5648 13.4876 10.5756 13.4697 10.5884 13.4532C10.5937 13.4348 10.5956 13.4155 10.5941 13.3964C10.589 13.3703 10.5799 13.3451 10.5672 13.3217Z" fill="#097754"/>
<path d="M10.6628 13.4034C10.6628 13.4034 10.6 13.4669 10.5834 13.5349C10.5668 13.6029 10.5964 13.6755 10.5964 13.6755C10.5964 13.6755 10.6534 13.6304 10.67 13.5624C10.6866 13.4944 10.6627 13.4034 10.6627 13.4034H10.6628Z" fill="#097754"/>
<path d="M10.8199 13.8133C10.8363 13.848 10.8483 13.8847 10.8556 13.9223C10.8628 13.972 10.8561 13.9891 10.8561 13.9891C10.8561 13.9891 10.8267 14.018 10.8135 14.035C10.7966 14.0569 10.7941 14.0968 10.7941 14.0968C10.7941 14.0968 10.7351 14.0091 10.7442 13.945C10.7533 13.8808 10.8199 13.8133 10.8199 13.8133L10.8199 13.8133Z" fill="#097754"/>
<path d="M10.9443 13.9507C10.9443 13.9507 10.8687 14.0006 10.8387 14.0518C10.8209 14.0832 10.8157 14.1203 10.8243 14.1554C10.8593 14.1505 10.8901 14.1299 10.9082 14.0995C10.9381 14.0483 10.9443 13.9507 10.9443 13.9507L10.9443 13.9507Z" fill="#097754"/>
<path d="M10.4477 14.1615C10.4477 14.1615 10.5566 14.1585 10.6232 14.1749C10.6898 14.1913 10.714 14.227 10.714 14.227C10.714 14.227 10.6392 14.262 10.5726 14.2456C10.506 14.2293 10.4477 14.1615 10.4477 14.1615L10.4477 14.1615Z" fill="#097754"/>
<path d="M10.4293 14.0323C10.4293 14.0323 10.4784 14.1085 10.542 14.1361C10.6295 14.1742 10.7309 14.1557 10.7309 14.1557C10.7309 14.1557 10.6758 14.0882 10.6 14.0584C10.5242 14.0286 10.4293 14.0323 10.4293 14.0323V14.0323Z" fill="#097754"/>
<path d="M14.1587 12.5372L14.1729 12.5673C14.1587 12.5726 14.1469 12.5826 14.1394 12.5957C14.1289 12.6161 14.1462 12.6451 14.1462 12.6451C14.1462 12.6451 14.0264 12.6346 14.0077 12.6468C13.9908 12.6577 14.0149 12.7407 14.0037 12.8108C13.9882 12.9084 13.9497 12.9002 13.9481 12.9191C13.9466 12.9375 13.9629 12.9662 13.9629 12.9662C13.9629 12.9662 13.9404 12.9733 13.9356 12.9827C13.9279 12.9978 13.941 13.0256 13.9317 13.044C13.8796 13.1462 13.8026 13.2971 13.7518 13.3969C13.7447 13.4109 13.7256 13.4162 13.716 13.435C13.711 13.4486 13.7104 13.4635 13.7143 13.4775C13.7143 13.4775 13.6806 13.4795 13.6689 13.5025C13.6616 13.5207 13.6598 13.5406 13.6638 13.5598C13.6502 13.5622 13.6385 13.5708 13.632 13.5831C13.6208 13.605 13.6398 13.6165 13.6349 13.6262C13.5665 13.7603 13.486 13.9185 13.4368 14.0149C13.4188 14.0504 13.3555 14.0575 13.3188 14.1295C13.2978 14.1692 13.3039 14.2178 13.3341 14.251C13.3341 14.251 13.2812 14.2558 13.2672 14.2833C13.2528 14.3114 13.2642 14.3541 13.3023 14.3735C13.3405 14.393 13.3822 14.3772 13.3966 14.3491C13.4106 14.3216 13.3824 14.2759 13.3824 14.2759C13.4271 14.2805 13.4698 14.2567 13.4896 14.2164C13.5263 14.1443 13.4954 14.0895 13.5134 14.0541C13.5626 13.9576 13.6431 13.7995 13.7115 13.6653C13.7164 13.6557 13.7366 13.664 13.7478 13.6421C13.7539 13.6298 13.7539 13.6153 13.7478 13.6029C13.7658 13.5949 13.781 13.5816 13.7915 13.5649C13.8032 13.5419 13.7853 13.5133 13.7853 13.5133C13.7989 13.5084 13.8107 13.4992 13.8188 13.4872C13.8283 13.4684 13.8213 13.45 13.8284 13.4361C13.8793 13.3363 13.9562 13.1854 14.0083 13.0831C14.0176 13.0648 14.0477 13.0585 14.0554 13.0434C14.0602 13.034 14.0525 13.0116 14.0525 13.0116C14.0525 13.0116 14.0857 13.0084 14.0996 12.9963C14.114 12.9839 14.0848 12.9573 14.1547 12.8874C14.2048 12.8372 14.2857 12.8076 14.2846 12.7875C14.2835 12.7652 14.2046 12.6746 14.2046 12.6746C14.2046 12.6746 14.2379 12.6718 14.2483 12.6513C14.2545 12.6374 14.2557 12.6218 14.2517 12.607L14.2846 12.6014V12.4453L14.1587 12.5372ZM13.0709 14.7107C13.0654 14.7216 13.0654 14.7344 13.0709 14.7453C13.0709 14.7453 13.0311 14.7328 13.0175 14.7396C13.0047 14.7459 13.0175 14.9331 13.0175 14.9331C13.0175 14.9331 13.176 14.8331 13.1736 14.819C13.171 14.804 13.1378 14.7787 13.1378 14.7787C13.1497 14.7769 13.16 14.7695 13.1656 14.7589C13.1708 14.7486 13.1715 14.7193 13.1355 14.701C13.1248 14.695 13.1126 14.6923 13.1003 14.6931C13.0883 14.6938 13.0773 14.7004 13.0709 14.7107V14.7107Z" fill="black"/>
<path d="M14.1871 12.5419L14.262 12.58L14.2608 12.4897L14.1871 12.5419Z" fill="#F5D402"/>
<path d="M14.1581 12.5964C14.1449 12.6164 14.1504 12.6432 14.1703 12.6564C14.1903 12.6696 14.2171 12.6642 14.2303 12.6442C14.2435 12.6243 14.2381 12.5974 14.2181 12.5842C14.2167 12.5833 14.2153 12.5825 14.2137 12.5817C14.2062 12.5778 14.1978 12.576 14.1893 12.5766C14.1761 12.5772 14.1643 12.5847 14.1581 12.5964Z" fill="#F5D402"/>
<path d="M14.0293 12.6651C14.0214 12.6702 14.0322 12.7376 14.0299 12.795C14.0277 12.8491 14.0104 12.8644 14.001 12.883C13.9922 12.9002 13.9607 12.9204 13.9607 12.9204L13.9868 12.9465C13.9868 12.9465 14.0037 12.9201 14.0305 12.8676C14.062 12.8058 14.061 12.6938 14.0702 12.6878C14.0944 12.6793 14.119 12.6721 14.144 12.6662C14.144 12.6662 14.0836 12.6629 14.0503 12.6634C14.0433 12.663 14.0362 12.6635 14.0293 12.6651Z" fill="#F5D402"/>
<path d="M14.0362 12.9766C14.0477 12.948 14.0608 12.9199 14.0754 12.8926C14.1121 12.8206 14.1904 12.7684 14.1922 12.7553C14.1941 12.7419 14.165 12.6787 14.165 12.6787C14.165 12.6787 14.0959 12.692 14.0861 12.7014C14.0767 12.7105 14.0808 12.8041 14.0441 12.8762C14.0305 12.9042 14.0153 12.9315 13.9987 12.9579L14.0362 12.9766Z" fill="#F5D402"/>
<path d="M14.2127 12.7604C14.2132 12.7714 14.1222 12.8365 14.0907 12.8983C14.0639 12.9508 14.0526 12.98 14.0526 12.98L14.089 12.9857C14.089 12.9857 14.0865 12.9484 14.0952 12.9312C14.1047 12.9126 14.1072 12.8899 14.1497 12.8563C14.1948 12.8208 14.2557 12.7897 14.2552 12.7803C14.2548 12.7716 14.1871 12.6878 14.1871 12.6878C14.1969 12.7115 14.2054 12.7358 14.2127 12.7604Z" fill="#F5D402"/>
<path d="M13.946 13.165C14.0007 13.0576 14.0174 13.0503 14.0243 13.0368C14.0317 13.0222 14.0299 13.0027 14.0056 12.9902C13.9983 12.9862 13.99 12.9844 13.9817 12.9851C13.9711 12.9864 13.9619 12.9931 13.9573 13.0027C13.9504 13.0163 13.9542 13.0344 13.8994 13.1418L13.7752 13.3852C13.768 13.3976 13.7722 13.4134 13.7846 13.4205C13.7852 13.4209 13.7859 13.4212 13.7865 13.4215C13.7985 13.4282 13.8136 13.4239 13.8203 13.412C13.8208 13.411 13.8213 13.41 13.8217 13.409L13.946 13.165Z" fill="#F5D402"/>
<path d="M13.7264 13.4442C13.7196 13.4575 13.7312 13.4771 13.7525 13.4879C13.7738 13.4987 13.7968 13.4967 13.8036 13.4834C13.8103 13.4701 13.7982 13.4505 13.7769 13.4397C13.7675 13.4346 13.7569 13.4323 13.7462 13.4329C13.7381 13.4329 13.7306 13.4372 13.7264 13.4442Z" fill="#F5D402"/>
<path d="M13.6804 13.5134C13.6716 13.5307 13.6853 13.5554 13.711 13.5685C13.7368 13.5816 13.7647 13.5783 13.7734 13.5611C13.7822 13.5439 13.7685 13.5192 13.7428 13.5061C13.734 13.5014 13.7243 13.4987 13.7144 13.4981C13.7011 13.4961 13.6878 13.5021 13.6804 13.5134Z" fill="#F5D402"/>
<path d="M13.6515 13.5906C13.6447 13.6039 13.6563 13.6235 13.6776 13.6343C13.6988 13.6452 13.7218 13.6431 13.7286 13.6298C13.7354 13.6165 13.7238 13.5969 13.7025 13.5861C13.6929 13.581 13.6821 13.5787 13.6713 13.5793C13.6632 13.5793 13.6556 13.5836 13.6515 13.5906Z" fill="#F5D402"/>
<path d="M13.6327 13.6644C13.6327 13.6644 13.4947 13.936 13.4461 14.0315C13.4305 14.0621 13.365 14.0811 13.3394 14.1314C13.3135 14.1821 13.3318 14.2295 13.3655 14.2466C13.3991 14.2638 13.4486 14.2513 13.4744 14.2007C13.5001 14.1503 13.477 14.0859 13.4926 14.0554C13.5413 13.9598 13.6793 13.6882 13.6793 13.6882C13.6866 13.6762 13.6828 13.6605 13.6708 13.6532C13.6701 13.6527 13.6693 13.6523 13.6685 13.6519C13.6636 13.6493 13.6581 13.6483 13.6526 13.6491C13.644 13.6509 13.6366 13.6565 13.6327 13.6644Z" fill="#F5D402"/>
<path d="M13.2837 14.2948C13.2733 14.3151 13.2851 14.3422 13.3103 14.355C13.3355 14.3678 13.3647 14.3616 13.375 14.3414C13.3854 14.3211 13.373 14.294 13.3478 14.2812C13.3391 14.2766 13.3293 14.2742 13.3194 14.2744C13.3046 14.2741 13.2909 14.282 13.2837 14.2948Z" fill="#F5D402"/>
<path d="M13.0998 14.7097C13.0932 14.709 13.0867 14.7121 13.0828 14.7176C13.0775 14.728 13.0885 14.7443 13.1072 14.7539C13.126 14.7635 13.1456 14.7626 13.1509 14.7522C13.1562 14.7418 13.1453 14.7254 13.1265 14.7159C13.1183 14.7116 13.1091 14.7094 13.0998 14.7096L13.0998 14.7097Z" fill="#F5D402"/>
<path d="M13.0352 14.8946L13.1441 14.8163C13.1204 14.7795 13.0788 14.7583 13.0352 14.7607V14.8946Z" fill="#F5D402"/>
<path d="M13.1037 11.7787C13.1037 11.7052 13.2001 11.6328 13.2001 11.6328H10.8475C10.8475 11.6328 10.9439 11.7052 10.9439 11.7787V13.5299C10.9431 13.5683 10.9562 13.6058 10.9808 13.6354C11.0035 13.667 11.0517 13.7107 11.1017 13.7432C11.2562 13.8436 11.5145 13.9494 11.71 14.0383C11.8729 14.1124 11.9391 14.1423 12.0238 14.2471C12.1085 14.1423 12.1753 14.1124 12.3382 14.0383C12.5336 13.9494 12.792 13.8436 12.9465 13.7432C12.9965 13.7107 13.0448 13.667 13.0674 13.6354C13.0918 13.6058 13.1047 13.5683 13.1037 13.5299L13.1037 11.7787Z" fill="#F5D402"/>
<path d="M10.9969 12.7714V11.7806C10.9975 11.7483 10.9875 11.7166 10.9686 11.6904H13.0739C13.0549 11.7167 13.0449 11.7483 13.0455 11.7806L13.0461 12.7714L12.0215 13.0818L10.9969 12.7714Z" fill="#D10429"/>
<path d="M13.0491 12.7692L12.4147 12.7573H11.6344L11 12.7692V13.5297C11 13.5679 11.0396 13.6574 11.2684 13.7714C11.6465 13.9598 11.9371 14.0478 12.0242 14.155C12.1113 14.0478 12.402 13.9598 12.7801 13.7714C13.0088 13.6574 13.0485 13.5679 13.0485 13.5297L13.0491 12.7692Z" fill="#0B45BB"/>
<path d="M12.3994 12.7308C12.3994 12.7308 12.7654 12.6385 12.7654 12.2473C12.7654 11.9418 12.3984 11.7902 12.388 11.7173C12.3522 11.8434 12.5106 12.0177 12.5106 12.224C12.5106 12.491 12.3137 12.5038 12.3137 12.5038C12.2676 12.5038 12.2489 12.5367 12.2308 12.5367C12.1921 12.5326 12.1738 12.4833 12.1355 12.4833C12.0995 12.4833 12.0719 12.5389 12.0243 12.5389C11.9767 12.5389 11.9496 12.4833 11.9136 12.4833C11.8753 12.4833 11.857 12.5326 11.8183 12.5367C11.8002 12.5367 11.7815 12.5038 11.7354 12.5038C11.7354 12.5038 11.5385 12.491 11.5385 12.224C11.5385 12.0177 11.697 11.8434 11.6611 11.7173C11.6507 11.7902 11.2838 11.9417 11.2838 12.2473C11.2838 12.6385 11.6498 12.7308 11.6498 12.7308L11.5453 12.9209C11.5453 12.9209 11.6966 12.9284 11.7769 12.9969C11.8737 13.0795 11.8643 13.2544 11.8643 13.3816C11.8643 13.4819 11.8516 13.5877 11.8001 13.6313C11.7311 13.6899 11.6844 13.6942 11.6844 13.763C11.6844 13.8203 11.7284 13.8318 11.8001 13.8697C11.892 13.9181 11.8877 13.9832 12.0243 13.9832C12.1608 13.9832 12.1571 13.9182 12.249 13.8697C12.3207 13.8318 12.3648 13.8203 12.3648 13.763C12.3648 13.6942 12.318 13.6899 12.249 13.6313C12.1975 13.5877 12.1849 13.4819 12.1849 13.3816C12.1849 13.2544 12.1755 13.0795 12.2723 12.9969C12.3525 12.9284 12.5038 12.9209 12.5038 12.9209L12.3994 12.7308Z" fill="black"/>
<path d="M12.0242 11.7444L11.9607 11.9249L11.7876 11.8426L11.8699 12.0157L11.6894 12.0798L11.8699 12.1439L11.7876 12.3165L11.9607 12.2342L12.0242 12.4146L12.0884 12.2342L12.2614 12.3165L12.1792 12.1439L12.3596 12.0798L12.1792 12.0157L12.2614 11.8426L12.0884 11.9249L12.0242 11.7444Z" fill="black"/>
<path d="M11.6344 12.7586C11.6344 12.7586 11.4084 12.7033 11.324 12.5917C11.23 12.6738 11.1195 12.7348 11 12.7705C11 12.7705 11.1841 12.8536 11.324 12.9595C11.3885 12.8671 11.6344 12.7586 11.6344 12.7586Z" fill="black"/>
<path d="M12.4146 12.7586C12.4146 12.7586 12.6606 12.8671 12.7251 12.9595C12.865 12.8536 13.049 12.7705 13.049 12.7705C12.9295 12.7348 12.819 12.6738 12.7251 12.5917C12.6406 12.7033 12.4146 12.7586 12.4146 12.7586Z" fill="black"/>
<path d="M11.7269 12.9991L11.639 13.0871L11.7269 13.175L11.8149 13.0871L11.7269 12.9991Z" fill="black"/>
<path d="M12.3222 12.9991L12.2342 13.0871L12.3222 13.175L12.4101 13.0871L12.3222 12.9991Z" fill="black"/>
<path d="M11.7048 13.5127C11.7058 13.5694 11.7022 13.6262 11.694 13.6823C11.694 13.6823 11.818 13.6458 11.8427 13.52C11.8543 13.4611 11.8672 13.2438 11.8075 13.2068L11.6458 13.175C11.6849 13.2833 11.7049 13.3975 11.7048 13.5127Z" fill="black"/>
<path d="M12.2416 13.2068C12.1819 13.2438 12.1948 13.4611 12.2064 13.5201C12.2311 13.6458 12.3551 13.6823 12.3551 13.6823C12.3469 13.6262 12.3433 13.5694 12.3443 13.5127C12.3442 13.3976 12.3642 13.2833 12.4033 13.175L12.2416 13.2068Z" fill="black"/>
<path d="M11.3235 13.2131C11.2682 13.2264 11.2342 13.282 11.2475 13.3373C11.2497 13.3465 11.2531 13.3553 11.2577 13.3635C11.2494 13.3607 11.2409 13.359 11.2322 13.3584C11.2286 13.3582 11.225 13.3582 11.2214 13.3584C11.164 13.3608 11.1194 13.4093 11.1218 13.4667C11.1242 13.5241 11.1727 13.5687 11.2301 13.5663C11.2344 13.5661 11.2387 13.5656 11.2429 13.5649C11.2379 13.5718 11.2337 13.5792 11.2305 13.5871C11.2087 13.6404 11.2343 13.7012 11.2877 13.723C11.341 13.7447 11.4018 13.7191 11.4236 13.6658L11.424 13.6648C11.4271 13.657 11.4292 13.6488 11.4302 13.6404C11.4353 13.6474 11.4412 13.6536 11.4478 13.6591C11.4914 13.6967 11.5571 13.6918 11.5946 13.6482C11.6322 13.6046 11.6273 13.5389 11.5837 13.5014C11.5766 13.4952 11.5687 13.4901 11.5602 13.4861C11.5683 13.4835 11.5761 13.4798 11.5834 13.4753C11.6322 13.4445 11.6469 13.3801 11.6163 13.3311C11.5961 13.2988 11.5596 13.2803 11.5216 13.2829C11.5042 13.2841 11.4875 13.2896 11.4728 13.2988C11.4655 13.3033 11.4588 13.3086 11.4529 13.3147C11.4526 13.2567 11.4054 13.21 11.3475 13.2102C11.3394 13.2103 11.3314 13.2112 11.3235 13.2131Z" fill="black"/>
<path d="M12.43 13.5161C12.4413 13.6224 12.5276 13.7114 12.6343 13.7368C12.6158 13.7071 12.6041 13.6735 12.6002 13.6387C12.5869 13.5126 12.6843 13.4105 12.8176 13.4105C12.8382 13.4106 12.8588 13.4131 12.8788 13.4179C12.8292 13.3376 12.7418 13.2883 12.6473 13.2874C12.5141 13.2874 12.4166 13.3901 12.43 13.5161Z" fill="black"/>
<path d="M11.4847 12.2237C11.4847 12.4247 11.5919 12.5432 11.735 12.5432C11.7623 12.5432 11.7921 12.5801 11.8178 12.5801C11.8598 12.5801 11.8876 12.5336 11.9132 12.5336C11.9456 12.5336 11.9675 12.5846 12.0238 12.5846C12.0802 12.5846 12.1026 12.5336 12.135 12.5336C12.1606 12.5336 12.1884 12.5801 12.2304 12.5801C12.2561 12.5801 12.2859 12.5432 12.3132 12.5432C12.4563 12.5432 12.5635 12.4247 12.5635 12.2237C12.5635 12.0599 12.4259 11.86 12.4409 11.8276C12.4409 11.8276 12.7093 12.0202 12.7093 12.247C12.7093 12.6124 12.3388 12.7027 12.3388 12.7027L12.4222 12.8905C12.4222 12.8905 12.3073 12.9077 12.2372 12.9643C12.1436 13.0397 12.1424 13.2435 12.1424 13.3813C12.1424 13.5437 12.1485 13.6125 12.2071 13.6566C12.269 13.703 12.3155 13.713 12.3155 13.7604C12.3155 13.8017 12.2673 13.8186 12.2048 13.8461C12.1337 13.8774 12.1267 13.9318 12.0238 13.9318C11.921 13.9318 11.9144 13.8774 11.8434 13.8461C11.7809 13.8186 11.7327 13.8017 11.7327 13.7604C11.7327 13.713 11.7792 13.703 11.8411 13.6566C11.8997 13.6125 11.9058 13.5437 11.9058 13.3813C11.9058 13.2435 11.9045 13.0397 11.811 12.9643C11.7409 12.9077 11.626 12.8905 11.626 12.8905L11.7094 12.7027C11.7094 12.7027 11.3389 12.6124 11.3389 12.247C11.3389 12.0202 11.6073 11.8276 11.6073 11.8276C11.6223 11.86 11.4847 12.0599 11.4847 12.2237ZM11.8836 13.7326C11.8108 13.7326 11.7645 13.748 11.7645 13.7701C11.7645 13.7922 11.8109 13.807 11.8836 13.807C11.903 13.807 11.9251 13.7957 11.9251 13.7701C11.9246 13.7489 11.9069 13.732 11.8857 13.7325C11.885 13.7326 11.8843 13.7326 11.8836 13.7326ZM12.1645 13.7326C12.1433 13.731 12.1248 13.7468 12.1232 13.768C12.1232 13.7687 12.1231 13.7694 12.1231 13.7701C12.1231 13.7957 12.1451 13.807 12.1645 13.807C12.2373 13.807 12.2837 13.7922 12.2837 13.7701C12.2837 13.748 12.2373 13.7326 12.1645 13.7326Z" fill="#FFD200"/>
<path d="M12.0244 11.8657L12.0653 11.9809L12.1754 11.9281L12.1231 12.0387L12.2378 12.0796L12.1231 12.1205L12.1754 12.2306L12.0653 12.1783L12.0238 12.293L11.983 12.1783L11.8729 12.2306L11.9251 12.1205L11.8105 12.0796L11.9251 12.0387L11.8729 11.9281L11.983 11.9809L12.0244 11.8657Z" fill="#FFD200"/>
<path d="M11.1072 12.7735C11.1072 12.7735 11.247 12.8431 11.3172 12.9051L11.3212 12.9085L11.3234 12.9057C11.3898 12.8295 11.513 12.765 11.513 12.765C11.513 12.765 11.3946 12.7323 11.32 12.6469C11.2412 12.7273 11.1072 12.7735 11.1072 12.7735Z" fill="#FFD200"/>
<path d="M12.9408 12.7737C12.9408 12.7737 12.801 12.8433 12.7308 12.9053L12.7268 12.9087L12.7246 12.9059C12.6582 12.8297 12.535 12.7652 12.535 12.7652C12.535 12.7652 12.6534 12.7325 12.728 12.6471C12.8068 12.7275 12.9408 12.7737 12.9408 12.7737Z" fill="#FFD200"/>
<path d="M11.7265 13.0409L11.7724 13.0868L11.7265 13.1333L11.6799 13.0868L11.7265 13.0409Z" fill="#FFD200"/>
<path d="M12.3217 13.0409L12.3682 13.0868L12.3217 13.1333L12.2757 13.0868L12.3217 13.0409Z" fill="#FFD200"/>
<path d="M11.7889 13.2417C11.821 13.286 11.8156 13.3577 11.8156 13.4573C11.8175 13.5139 11.7886 13.5672 11.7401 13.5964C11.7401 13.3548 11.7152 13.2967 11.7021 13.2235L11.7889 13.2417Z" fill="#FFD200"/>
<path d="M12.3461 13.2235C12.333 13.2967 12.3081 13.3548 12.3081 13.5963C12.2595 13.5672 12.2307 13.5139 12.2326 13.4573C12.2326 13.3576 12.2272 13.286 12.2593 13.2417L12.3461 13.2235Z" fill="#FFD200"/>
<path d="M11.432 13.3149C11.434 13.3237 11.4346 13.3327 11.4337 13.3416C11.4329 13.3486 11.4312 13.3555 11.4286 13.362C11.3831 13.3459 11.3324 13.3589 11.3003 13.395C11.2946 13.39 11.2897 13.3843 11.2856 13.3779C11.2807 13.3707 11.277 13.3626 11.2748 13.3541C11.264 13.3107 11.2905 13.2668 11.3339 13.256C11.3772 13.2452 11.4211 13.2716 11.432 13.3149Z" fill="#FFD200"/>
<path d="M11.5529 13.4663C11.5453 13.471 11.5369 13.4744 11.5281 13.4762C11.5212 13.4777 11.5141 13.4781 11.5071 13.4777C11.5084 13.4294 11.4803 13.3852 11.4362 13.3659C11.4391 13.3589 11.443 13.3524 11.4478 13.3466C11.4532 13.3397 11.4597 13.3337 11.4671 13.329C11.5051 13.3053 11.555 13.3168 11.5787 13.3547C11.6024 13.3927 11.5909 13.4426 11.5529 13.4663Z" fill="#FFD200"/>
<path d="M11.4463 13.6282C11.4395 13.6223 11.4338 13.6154 11.4293 13.6076C11.4258 13.6015 11.4231 13.5949 11.4214 13.5881C11.4677 13.5744 11.501 13.5341 11.5058 13.4861C11.5133 13.4867 11.5207 13.4885 11.5278 13.4912C11.536 13.4942 11.5437 13.4986 11.5505 13.5041C11.5847 13.533 11.589 13.5841 11.5602 13.6182C11.5314 13.6523 11.4806 13.6567 11.4463 13.6282Z" fill="#FFD200"/>
<path d="M11.2595 13.5768C11.2629 13.5685 11.2678 13.5609 11.2738 13.5542C11.2785 13.549 11.2839 13.5445 11.2899 13.5407C11.3172 13.5805 11.3659 13.5997 11.413 13.5895C11.4147 13.5968 11.4154 13.6044 11.4149 13.6119C11.4146 13.6207 11.4128 13.6293 11.4097 13.6375C11.3929 13.679 11.3457 13.699 11.3042 13.6822C11.2628 13.6654 11.2428 13.6183 11.2595 13.5768Z" fill="#FFD200"/>
<path d="M11.2506 13.3832C11.2595 13.3839 11.2683 13.3862 11.2765 13.3899C11.2829 13.3927 11.2889 13.3965 11.2943 13.401C11.265 13.4393 11.2617 13.4915 11.286 13.5332C11.2795 13.537 11.2726 13.54 11.2653 13.5419C11.2568 13.5443 11.248 13.5453 11.2393 13.5448C11.1946 13.5417 11.161 13.5029 11.1642 13.4583C11.1674 13.4137 11.206 13.3801 11.2506 13.3832Z" fill="#FFD200"/>
<path d="M11.3883 13.5522C11.4315 13.5522 11.4666 13.5172 11.4666 13.4739C11.4666 13.4307 11.4315 13.3956 11.3883 13.3956C11.345 13.3956 11.3099 13.4307 11.3099 13.4739C11.3099 13.5172 11.345 13.5522 11.3883 13.5522Z" fill="#FFD200"/>
<path d="M12.7632 13.3683C12.6331 13.3935 12.5396 13.5083 12.5532 13.6424C12.5118 13.6081 12.4814 13.5619 12.476 13.5108C12.4655 13.4112 12.5378 13.3343 12.6468 13.3343C12.688 13.3346 12.7283 13.3464 12.7632 13.3683Z" fill="#FFD200"/>
<path d="M13.153 11.6509H10.8923C10.9223 11.6811 10.9603 11.7293 10.9603 11.7792V13.3H10.9603V13.5304H10.9603C10.96 13.5484 10.9629 13.5664 10.9689 13.5834C10.9747 13.5985 10.9828 13.6126 10.9929 13.6252L10.9934 13.6258C11.0154 13.6538 11.041 13.6789 11.0695 13.7004C11.076 13.7055 11.0826 13.7104 11.0892 13.7152C11.0957 13.7198 11.1024 13.7245 11.1093 13.729L11.1095 13.7291C11.2298 13.8072 11.4152 13.8893 11.5835 13.9639C11.6305 13.9847 11.6763 14.005 11.7154 14.0228L11.7155 14.0228V14.0228L11.7192 14.0245H11.7193C11.8734 14.0946 11.9421 14.1259 12.0226 14.2202C12.1033 14.1256 12.1718 14.0944 12.3274 14.0237L12.3274 14.0236L12.3292 14.0228C12.3684 14.005 12.4141 13.9847 12.461 13.964C12.6294 13.8894 12.8148 13.8072 12.9351 13.7291L12.9352 13.7291C12.969 13.7071 13.0002 13.6815 13.0284 13.6528C13.033 13.648 13.0373 13.6432 13.0412 13.6386C13.0449 13.6343 13.0483 13.63 13.0513 13.6258L13.0516 13.6255L13.0516 13.6254L13.0518 13.6252C13.062 13.6125 13.0702 13.5984 13.0762 13.5833C13.0823 13.5663 13.0853 13.5484 13.0849 13.5304H13.085V13.3H13.0849V11.7792C13.0849 11.7293 13.123 11.6811 13.153 11.6509ZM13.1201 11.7792V13.3H13.1201V13.5304H13.1201C13.1205 13.5526 13.1167 13.5748 13.109 13.5956C13.1019 13.6139 13.092 13.6309 13.0799 13.6462L13.0799 13.6463C13.0766 13.6509 13.0726 13.656 13.0681 13.6613C13.0638 13.6663 13.0589 13.6717 13.0537 13.6771C13.0237 13.7078 12.9903 13.7351 12.9543 13.7585L12.9542 13.7586C12.8313 13.8384 12.6447 13.921 12.4752 13.9961C12.4308 14.0158 12.3876 14.0349 12.3437 14.0549L12.342 14.0557H12.3419C12.183 14.128 12.118 14.1575 12.0363 14.2587L12.0226 14.2756L12.009 14.2587C11.9276 14.158 11.8623 14.1282 11.7047 14.0566L11.7047 14.0565L11.701 14.0549L11.7009 14.0548L11.7009 14.0548L11.7008 14.0548C11.6568 14.0348 11.6137 14.0157 11.5694 13.996C11.3999 13.921 11.2133 13.8383 11.0904 13.7585L11.09 13.7582L11.0898 13.7581L11.0898 13.7581C11.0829 13.7536 11.0758 13.7488 11.0687 13.7437C11.0616 13.7386 11.0547 13.7333 11.0479 13.7281C11.0167 13.7045 10.9888 13.6769 10.9648 13.6461H10.9648C10.9526 13.6308 10.9429 13.6137 10.9359 13.5955C10.9284 13.5746 10.9248 13.5526 10.9251 13.5304H10.9252V13.3H10.9251V11.7792C10.9251 11.7144 10.836 11.6475 10.8358 11.6473V11.6157H13.2095V11.6473C13.2093 11.6475 13.1201 11.7144 13.1201 11.7792L13.1201 11.7792ZM13.0669 11.6714L13.067 11.6713H13.0753H13.1117L13.089 11.6999C13.0725 11.7229 13.0639 11.7508 13.0645 11.7792V13.3H13.0645V13.5304H13.0645C13.0645 13.5615 13.0427 13.6217 12.94 13.6967L12.94 13.6967C12.9209 13.7108 12.8987 13.7254 12.8732 13.7407C12.8475 13.756 12.8188 13.7717 12.7867 13.7877L12.7867 13.7876L12.7864 13.7878V13.7879C12.6492 13.8562 12.5224 13.9118 12.413 13.9598C12.2252 14.0422 12.0891 14.1019 12.0363 14.1667L12.036 14.1671L12.036 14.1672L12.0223 14.1831L12.009 14.1668C11.9563 14.1019 11.8202 14.0422 11.6322 13.9598C11.5229 13.9118 11.3963 13.8563 11.2592 13.788V13.7879L11.259 13.7878L11.2589 13.7879C11.1617 13.7394 11.0977 13.695 11.0561 13.6568C11.0479 13.6492 11.0405 13.6419 11.034 13.6349C10.9918 13.5895 10.9808 13.5528 10.9808 13.5304H10.9808V13.5304H10.9808V13.3H10.9808V11.7792C10.9814 11.7508 10.9728 11.7229 10.9563 11.6999L10.9335 11.6714H11.0091V11.6713H13.0362V11.6714H13.0669L13.0669 11.6714ZM13.0362 11.7065V11.7065H11.0091V11.7065H11.0004C11.0107 11.7293 11.016 11.7541 11.0159 11.7792V13.3H11.0159V13.5304H11.0159V13.5304H11.0159C11.0159 13.5463 11.0249 13.5735 11.0597 13.6109C11.0657 13.6174 11.0724 13.6241 11.0799 13.631C11.1192 13.6671 11.1805 13.7095 11.2746 13.7564V13.7565L11.2748 13.7566L11.2749 13.7565C11.4128 13.8252 11.538 13.8802 11.6462 13.9276C11.8251 14.006 11.9581 14.0644 12.0226 14.1296C12.0872 14.0644 12.2202 14.006 12.399 13.9276C12.5073 13.8802 12.6327 13.8252 12.7707 13.7564L12.7707 13.7564L12.771 13.7563V13.7562C12.803 13.7403 12.8308 13.7251 12.8551 13.7106C12.8796 13.696 12.9009 13.6819 12.9193 13.6684H12.9194C13.0101 13.6022 13.0293 13.5542 13.0293 13.5304H13.0294V13.3H13.0293V11.7792C13.0293 11.7541 13.0346 11.7293 13.0449 11.7065H13.0362H13.0362Z" fill="black"/>
</g>
<defs>
<clipPath id="clip0_1692_54165">
<rect x="2.05078" y="6.24561" width="19.9495" height="13.2997" rx="1" fill="white"/>
</clipPath>
</defs>
</svg>
