<svg width="25" height="25" viewBox="0 0 25 25" fill="none" xmlns="http://www.w3.org/2000/svg">
<g clip-path="url(#clip0_1692_53990)">
<path d="M2.04883 6.24561H21.9983V19.5453H2.04883V6.24561Z" fill="#C1272D"/>
<path fill-rule="evenodd" clip-rule="evenodd" d="M12.0239 9.57129L12.7704 11.869H15.1864L13.2318 13.2891L13.9784 15.5867L12.0239 14.1667L10.0694 15.5867L10.8159 13.2891L8.86133 11.869H11.2773L12.0239 9.57129ZM11.1746 12.1851H9.83429L10.9186 12.9729L11.1746 12.1851ZM11.1875 13.1683L11.507 12.1851H12.5407L12.8602 13.1683L12.0239 13.7759L11.1875 13.1683ZM11.0848 13.4845L10.6707 14.7591L11.7549 13.9713L11.0848 13.4845ZM12.2928 13.9713L13.377 14.7591L12.9629 13.4845L12.2928 13.9713ZM13.1291 12.9729L14.2134 12.1851H12.8731L13.1291 12.9729ZM12.438 11.869H11.6097L12.0239 10.5943L12.438 11.869Z" fill="#006233"/>
</g>
<defs>
<clipPath id="clip0_1692_53990">
<rect x="2.04883" y="6.24561" width="19.9495" height="13.2997" rx="1" fill="white"/>
</clipPath>
</defs>
</svg>
