<svg width="25" height="25" viewBox="0 0 25 25" fill="none" xmlns="http://www.w3.org/2000/svg">
<g clip-path="url(#clip0_1692_53988)">
<path d="M21.9983 6.24561H2.04883V19.5453H21.9983V6.24561Z" fill="black"/>
<path d="M21.9983 6.24561H2.04883V10.8174H21.9983V6.24561Z" fill="white"/>
<path d="M21.9983 6.24561H2.04883V10.4018H21.9983V6.24561Z" fill="#007168"/>
<path d="M21.9983 14.9683H2.04883V19.5456H21.9983V14.9683Z" fill="white"/>
<path d="M21.9983 15.3892H2.04883V19.5453H21.9983V15.3892Z" fill="#FCE100"/>
<path d="M2.04883 6.24561V19.5453L10.7767 12.8954L2.04883 6.24561Z" fill="#D21034"/>
<path d="M6.58363 15.3896L4.96186 14.2022L3.34228 15.39L3.97039 13.4806L2.34033 12.3074L4.3503 12.3147L4.96244 10.4019L5.57655 12.3157L7.58494 12.3068L5.95452 13.4823L6.58363 15.3896Z" fill="#FCE100"/>
<path fill-rule="evenodd" clip-rule="evenodd" d="M3.54688 14.0561H4.71517C4.80917 14.1615 5.01891 14.2045 5.21867 14.0548C5.58485 13.8543 6.29327 14.0561 6.29327 14.0561L6.43277 13.9079L6.09273 12.7919L5.97066 12.6611C5.97066 12.6611 5.70912 12.5042 5.21213 12.5565C4.71517 12.6088 4.54079 12.5391 4.54079 12.5391C4.54079 12.5391 4.10487 12.5914 3.98281 12.6524C3.96939 12.6633 3.84331 12.7919 3.84331 12.7919L3.54688 14.0561Z" fill="white"/>
<path fill-rule="evenodd" clip-rule="evenodd" d="M4.72919 14.0619C4.80744 14.116 4.8822 14.1401 4.9572 14.1379C5.03244 14.1358 5.10993 14.1073 5.19339 14.0529C5.13824 13.9861 5.0617 13.9338 4.97184 13.8933C4.89988 13.9277 4.8445 13.9634 4.80402 13.9943C4.76619 14.0231 4.7419 14.0473 4.72919 14.0619ZM4.92932 13.8754C4.86828 13.9066 4.81983 13.9383 4.78286 13.9665C4.72849 14.0079 4.69795 14.0425 4.68941 14.0567C4.68478 14.0644 4.68679 14.0744 4.69405 14.0798C4.78232 14.1446 4.8691 14.1753 4.95819 14.1728C5.047 14.1703 5.13588 14.1348 5.22865 14.0713C5.23259 14.0687 5.23525 14.0645 5.23602 14.0598C5.23679 14.055 5.2356 14.0502 5.23273 14.0464C5.17807 13.9741 5.10196 13.9179 5.01355 13.8744C5.02232 13.8706 5.0313 13.8669 5.04049 13.8631C5.25305 13.7775 5.58095 13.7128 6.05339 13.7778C6.06294 13.7791 6.07175 13.7725 6.07306 13.7629C6.07438 13.7534 6.0677 13.7445 6.05815 13.7432C5.58026 13.6775 5.24616 13.7426 5.02744 13.8308C5.00783 13.8387 4.98915 13.8468 4.97138 13.855C4.93668 13.84 4.90044 13.8268 4.86313 13.8151C4.71126 13.7675 4.53996 13.7448 4.37953 13.7355C4.219 13.7262 4.06871 13.7303 3.9586 13.7367C3.90352 13.7399 3.85845 13.7437 3.82712 13.7467C3.81146 13.7482 3.79922 13.7495 3.79089 13.7504C3.78672 13.7509 3.78353 13.7513 3.78137 13.7515L3.77891 13.7518L3.77827 13.7519L3.77806 13.7519C3.77806 13.7519 3.77804 13.7519 3.7802 13.7692L3.77806 13.7519C3.76849 13.7531 3.76169 13.7618 3.76288 13.7714C3.76408 13.781 3.7728 13.7878 3.78237 13.7866L3.7802 13.7692C3.78237 13.7866 3.78237 13.7866 3.78237 13.7866L3.78254 13.7865L3.78312 13.7865L3.78547 13.7862C3.78755 13.7859 3.79066 13.7856 3.79474 13.7851C3.80291 13.7842 3.81497 13.7829 3.83045 13.7815C3.86141 13.7785 3.90604 13.7747 3.96063 13.7715C4.06985 13.7652 4.21872 13.7611 4.37751 13.7703C4.53641 13.7795 4.70459 13.802 4.8527 13.8484C4.87898 13.8567 4.90457 13.8656 4.92932 13.8754Z" fill="black"/>
<path fill-rule="evenodd" clip-rule="evenodd" d="M4.5452 12.5237L4.54515 12.5237C4.54245 12.5226 4.53952 12.5222 4.53664 12.5226L4.53535 12.5227L4.53165 12.5232C4.52841 12.5236 4.52364 12.5242 4.51754 12.525C4.50534 12.5265 4.48778 12.5288 4.46633 12.5317C4.42344 12.5376 4.36496 12.5461 4.30263 12.5565C4.24033 12.5669 4.174 12.5792 4.11546 12.5928C4.05738 12.6063 4.00546 12.6214 3.97293 12.6376C3.9718 12.6382 3.97073 12.6389 3.96975 12.6397C3.96552 12.6431 3.9543 12.654 3.94099 12.6672C3.92722 12.6809 3.91016 12.698 3.89355 12.7148C3.87693 12.7316 3.86074 12.748 3.8487 12.7602C3.84268 12.7663 3.8377 12.7714 3.83422 12.775L3.82877 12.7805C3.82653 12.7828 3.82497 12.7856 3.82424 12.7888L3.5278 14.053C3.52659 14.0581 3.52781 14.0636 3.53112 14.0678C3.53443 14.072 3.53947 14.0744 3.5448 14.0744H4.70544C4.80843 14.183 5.02397 14.2212 5.22605 14.0704C5.40395 13.9736 5.66709 13.9732 5.88924 13.9985C5.99994 14.0111 6.09933 14.0299 6.17105 14.0456C6.2069 14.0534 6.23581 14.0605 6.25573 14.0656C6.26568 14.0681 6.27339 14.0702 6.27859 14.0716L6.28145 14.0723C6.28269 14.0727 6.2837 14.073 6.28448 14.0732L6.28595 14.0736L6.28642 14.0737C6.29269 14.0755 6.29944 14.0737 6.30391 14.0689L6.4434 13.9207C6.44769 13.9161 6.44921 13.9096 6.44739 13.9036L6.10735 12.7877C6.10657 12.7851 6.10523 12.7828 6.10341 12.7808L5.98134 12.65C5.98023 12.6489 5.97894 12.6478 5.97755 12.647L5.97746 12.6469L5.97726 12.6468L5.97656 12.6464C5.97598 12.6461 5.97513 12.6456 5.97403 12.645C5.97183 12.6437 5.96861 12.642 5.96438 12.6398C5.95591 12.6354 5.94338 12.6293 5.92685 12.6222C5.89379 12.608 5.84471 12.5897 5.78003 12.5731C5.65062 12.5399 5.4589 12.5136 5.20823 12.54C4.96075 12.566 4.79414 12.5616 4.68982 12.5509C4.63766 12.5455 4.60108 12.5385 4.57776 12.533C4.5661 12.5302 4.55775 12.5278 4.55242 12.5262C4.54975 12.5253 4.54784 12.5247 4.54665 12.5242C4.54606 12.524 4.54564 12.5239 4.5454 12.5238L4.5452 12.5237ZM5.97755 12.647C5.97755 12.647 5.97756 12.647 5.97342 12.6539L5.97755 12.647ZM5.22605 14.0704L5.22497 14.071L5.21659 14.0557L5.22706 14.0697L5.22605 14.0704ZM4.70544 14.0744C4.70361 14.0725 4.70182 14.0705 4.70007 14.0686L4.71309 14.0569V14.0744H4.70544ZM5.99645 12.7174L6.07513 12.8017L6.41105 13.9041L6.28569 14.0373C6.28045 14.0359 6.27328 14.034 6.26436 14.0318C6.2441 14.0266 6.2148 14.0194 6.17851 14.0115C6.10597 13.9956 6.00537 13.9766 5.89319 13.9638C5.67002 13.9384 5.39647 13.9373 5.20821 14.0404C5.20748 14.0408 5.20679 14.0412 5.20612 14.0417C5.01255 14.1868 4.81324 14.1431 4.72612 14.0453C4.72281 14.0416 4.71807 14.0395 4.71309 14.0395H3.56682L3.85711 12.8015L3.85913 12.7994C3.8626 12.7959 3.86758 12.7908 3.87359 12.7847C3.88561 12.7725 3.90177 12.7561 3.91835 12.7393C3.93494 12.7226 3.95191 12.7055 3.96556 12.692L3.96596 12.6916L3.8591 13.155C3.85693 13.1644 3.86279 13.1738 3.87219 13.1759C3.88158 13.1781 3.89095 13.1722 3.89312 13.1628L4.00807 12.6644L4.53671 12.5577C4.53811 12.5582 4.53986 12.5588 4.54194 12.5595C4.54809 12.5614 4.55725 12.564 4.5697 12.567C4.5946 12.5729 4.63268 12.5801 4.68624 12.5856C4.79334 12.5966 4.9624 12.601 5.21188 12.5747C5.45821 12.5488 5.64575 12.5747 5.77136 12.6069C5.83418 12.623 5.88154 12.6407 5.91305 12.6543C5.92881 12.6611 5.9406 12.6668 5.94837 12.6708C5.94939 12.6714 5.95033 12.6718 5.9512 12.6723C5.95127 12.673 5.95137 12.6737 5.95152 12.6743L6.16077 13.6508C6.16279 13.6603 6.17207 13.6663 6.1815 13.6642C6.19092 13.6622 6.19693 13.6529 6.19491 13.6435L5.99645 12.7174ZM4.34757 12.5845L4.53872 12.5399C4.5408 12.5572 4.54078 12.5572 4.54078 12.5572L4.53957 12.5574L4.53671 12.5577L4.53593 12.5578C4.53273 12.5582 4.52801 12.5588 4.52195 12.5596C4.50984 12.5611 4.49239 12.5634 4.47107 12.5663C4.43755 12.5709 4.3945 12.5771 4.34757 12.5845ZM4.00911 12.6598C4.00223 12.6625 3.99597 12.6652 3.99042 12.6679C3.98675 12.6712 3.97805 12.6796 3.96596 12.6916L3.97523 12.6514C3.9774 12.642 3.98677 12.6362 3.99616 12.6383C4.00555 12.6405 4.01141 12.6499 4.00925 12.6593L4.00911 12.6598ZM4.00911 12.6598L4.0082 12.6638L4.34757 12.5845C4.33475 12.5866 4.32165 12.5887 4.30837 12.5909C4.24643 12.6012 4.18089 12.6134 4.12336 12.6268C4.0776 12.6374 4.03785 12.6486 4.00911 12.6598ZM4.99211 12.6534C4.99218 12.6437 4.98442 12.6359 4.97478 12.6358C4.96514 12.6357 4.95727 12.6435 4.9572 12.6531L4.94849 13.8825C4.94842 13.8921 4.95618 13.9 4.96582 13.9C4.97546 13.9001 4.98333 13.8924 4.9834 13.8827L4.99211 12.6534Z" fill="black"/>
<path d="M4.00925 12.6593C4.01141 12.6499 4.00555 12.6405 3.99616 12.6383C3.98677 12.6362 3.9774 12.642 3.97523 12.6514L3.96596 12.6916C3.97805 12.6796 3.98675 12.6712 3.99042 12.6679C3.99597 12.6652 4.00223 12.6625 4.00911 12.6598L4.00925 12.6593Z" fill="black"/>
<path d="M4.30837 12.5909C4.24643 12.6012 4.18089 12.6134 4.12336 12.6268C4.0776 12.6374 4.03785 12.6486 4.00911 12.6598L4.0082 12.6638L4.34757 12.5845C4.33475 12.5866 4.32165 12.5887 4.30837 12.5909Z" fill="black"/>
<path d="M4.53671 12.5577L4.53957 12.5574L4.54078 12.5572C4.54078 12.5572 4.5408 12.5572 4.53872 12.5399L4.34757 12.5845C4.3945 12.5771 4.43755 12.5709 4.47107 12.5663C4.49239 12.5634 4.50984 12.5611 4.52195 12.5596C4.52801 12.5588 4.53273 12.5582 4.53593 12.5578L4.53671 12.5577Z" fill="black"/>
<path fill-rule="evenodd" clip-rule="evenodd" d="M7.10949 10.9795L6.18666 11.6313L6.15756 11.6095L5.88584 11.6072L5.88536 11.615L5.64918 11.8349L5.47003 11.8268L5.48217 11.8393L5.47676 11.8446L5.46923 11.8442L5.47003 11.8268L5.20941 12.0792L5.22597 12.0848L5.22462 12.0888L5.22156 12.0918L5.20941 12.0792L5.19208 12.1313L5.19967 12.1431C5.20218 12.147 5.20302 12.1518 5.20201 12.1563L5.2018 12.1573L5.19569 12.1756L5.1971 12.1784L5.1911 12.2055L5.21757 12.2584C5.21757 12.2584 5.13061 12.3351 5.09452 12.3629C5.0955 12.3653 5.09656 12.3686 5.09656 12.3724C5.09656 12.3702 5.09609 12.3668 5.09394 12.3634C5.08483 12.3703 5.0791 12.3741 5.0791 12.3724C5.0791 12.3643 5.05112 12.3364 5.04992 12.3328L5.16869 12.2258L5.15166 12.222L5.15287 12.2166L5.15701 12.2129L5.16869 12.2258L5.17272 12.2077L5.16124 12.1848C5.16091 12.1841 5.16062 12.1834 5.16038 12.1827L5.16636 12.1558L5.16579 12.1549L5.17288 12.1336L5.15483 12.1055C5.15448 12.1058 5.154 12.1062 5.15337 12.1068C5.15174 12.1083 5.14961 12.1103 5.14698 12.1129C5.14545 12.1144 5.14378 12.116 5.14197 12.1178L5.13236 12.1027C5.09267 12.1414 4.98022 12.2561 4.97323 12.2421L4.96022 12.2537L4.95942 12.2528C4.95875 12.2519 4.95814 12.2509 4.95762 12.2499L4.97323 12.2421C4.95966 12.2269 4.53349 11.7453 4.53349 11.7453L4.5579 11.6558L4.54505 11.6676L4.53853 11.6605L4.54106 11.6512L4.5579 11.6558L4.28103 11.3544L4.27534 11.3709C4.27397 11.3705 4.27259 11.37 4.2712 11.3695L4.26818 11.3662L4.28103 11.3544C4.18009 11.3196 4.02042 11.3137 3.98785 11.5336C3.96248 11.5852 3.75168 11.5417 3.75168 11.5417L4.09089 11.9172L4.10535 11.7425L4.09432 11.7301L4.10733 11.7185L4.12473 11.7199L4.12336 11.7364L4.26112 11.8905L4.26334 11.8731C4.26549 11.8734 4.26763 11.8737 4.26976 11.8739L4.27413 11.8788L4.26112 11.8905C4.31239 11.897 4.36124 11.8976 4.40771 11.8742L4.84195 12.3589L4.76964 12.4294L4.78262 12.4177C4.78655 12.4221 4.79028 12.4262 4.79388 12.4302L4.78183 12.4419L4.76964 12.4294C4.79408 12.4566 4.81089 12.4739 4.83533 12.501L4.82565 12.4865C4.82978 12.4838 4.83388 12.4809 4.83798 12.478C4.84129 12.4816 4.84471 12.4854 4.8483 12.4894L4.83533 12.501C4.85976 12.4848 4.88308 12.4652 4.90752 12.4489C4.91279 12.4559 4.92033 12.4671 4.92721 12.477C4.92782 12.4766 4.92844 12.4763 4.92906 12.476L4.9374 12.4913L4.92344 12.5018C4.92307 12.5013 4.92268 12.5008 4.92229 12.5002C4.89343 12.5186 4.87025 12.5403 4.8391 12.5573C4.78684 12.5232 4.73621 12.4816 4.72946 12.4191L4.71374 12.4322C4.71249 12.4255 4.71168 12.4186 4.71138 12.4115L4.6121 12.4942L4.85553 12.7637L5.04337 12.6034C5.04915 12.5985 5.05723 12.598 5.06346 12.6016L5.1866 12.504C5.18233 12.4974 5.18301 12.4885 5.18855 12.4826L5.31054 12.3525C5.32269 12.3388 5.32892 12.3311 5.33277 12.3224C5.33647 12.314 5.33853 12.3032 5.33855 12.2828C5.33855 12.2778 5.34074 12.273 5.34455 12.2696L5.53186 12.1068C5.53656 12.1027 5.54308 12.1014 5.54898 12.1034C5.58234 12.1149 5.60906 12.1311 5.63159 12.1512L7.10949 10.9795ZM5.06196 12.3757C5.06173 12.3745 5.06165 12.3733 5.06165 12.3724C5.06165 12.3744 5.06207 12.3758 5.06228 12.3763L5.06226 12.3763C5.06219 12.3761 5.06209 12.376 5.06196 12.3757Z" fill="black"/>
<path d="M3.63766 11.5662L3.75168 11.5417L3.7552 11.5247C3.75283 11.5242 3.75039 11.5242 3.74802 11.5247L3.63401 11.5491C3.62972 11.55 3.62593 11.5525 3.6234 11.5561L2.98004 12.4682C2.97549 12.4747 2.97583 12.4834 2.98087 12.4894L3.3392 12.921C3.34256 12.9251 3.34758 12.9274 3.35284 12.9273C3.35811 12.9273 3.36307 12.9248 3.36633 12.9207L4.09927 11.9923C4.1014 11.9896 4.10269 11.9864 4.10297 11.9829L4.10693 11.935L4.09089 11.9172L4.08557 11.9815L3.36369 12.8959L3.36606 12.8987L3.35263 12.9099L3.33893 12.8991L3.34123 12.8962L2.9943 12.4783L3.63766 11.5662Z" fill="black"/>
<path d="M4.10693 11.935L4.12138 11.7604L4.10535 11.7425L4.09089 11.9172L4.10693 11.935Z" fill="black"/>
<path d="M4.10733 11.7185L4.09432 11.7301L4.10535 11.7425L4.10733 11.7185Z" fill="black"/>
<path d="M4.12138 11.7604L4.12336 11.7364L4.10733 11.7185L4.10535 11.7425L4.12138 11.7604Z" fill="black"/>
<path d="M4.12473 11.7199L4.10733 11.7185L4.12336 11.7364L4.12473 11.7199Z" fill="black"/>
<path d="M4.40771 11.8742C4.36124 11.8976 4.31239 11.897 4.26112 11.8905L4.12336 11.7364L4.12138 11.7604L4.24811 11.9021C4.25091 11.9052 4.25473 11.9072 4.2589 11.9078C4.307 11.914 4.35588 11.9154 4.40331 11.8954L4.39471 11.8858L4.40771 11.8742Z" fill="black"/>
<path d="M4.27413 11.8788L4.26976 11.8739C4.26763 11.8737 4.26549 11.8734 4.26334 11.8731L4.26112 11.8905L4.27413 11.8788Z" fill="black"/>
<path d="M4.40331 11.8954C4.40741 11.8937 4.4115 11.8918 4.41557 11.8898L4.40771 11.8742L4.39471 11.8858L4.40331 11.8954Z" fill="black"/>
<path d="M4.84195 12.3589L4.40771 11.8742L4.41557 11.8898C4.4115 11.8918 4.40741 11.8937 4.40331 11.8954L4.81779 12.3581L4.82976 12.3464L4.84195 12.3589Z" fill="black"/>
<path d="M3.75168 11.5417L3.63766 11.5662L3.65193 11.5762L3.64799 11.5818L3.64132 11.5832L3.63766 11.5662L2.9943 12.4783L3.00773 12.4671L3.01627 12.4774L3.00857 12.4883L2.9943 12.4783L3.34123 12.8962L3.35229 12.8822L3.36369 12.8959L4.08557 11.9815L4.06818 11.9801L4.06861 11.9748L4.07187 11.9707L4.08557 11.9815L4.09089 11.9172L3.75168 11.5417L3.75533 11.5588L3.75181 11.5596L3.75067 11.5593L3.74883 11.559L3.74834 11.5589L3.74817 11.5588C3.74817 11.5588 3.74815 11.5588 3.75168 11.5417Z" fill="black"/>
<path d="M4.07187 11.9707L4.06861 11.9748L4.06818 11.9801L4.08557 11.9815L4.07187 11.9707Z" fill="black"/>
<path d="M3.00857 12.4883L3.01627 12.4774L3.00773 12.4671L2.9943 12.4783L3.00857 12.4883Z" fill="black"/>
<path d="M3.34123 12.8962L3.35263 12.9099L3.36369 12.8959L3.35229 12.8822L3.34123 12.8962Z" fill="black"/>
<path d="M3.33893 12.8991L3.35263 12.9099L3.34123 12.8962L3.33893 12.8991Z" fill="black"/>
<path d="M3.35263 12.9099L3.36606 12.8987L3.36369 12.8959L3.35263 12.9099Z" fill="black"/>
<path d="M3.64132 11.5832L3.64799 11.5818L3.65193 11.5762L3.63766 11.5662L3.64132 11.5832Z" fill="black"/>
<path d="M3.75067 11.5593L3.75181 11.5596L3.75533 11.5588L3.75168 11.5417C3.74815 11.5588 3.74817 11.5588 3.74817 11.5588L3.74834 11.5589L3.74883 11.559L3.75067 11.5593Z" fill="black"/>
<path d="M4.54106 11.6512L4.53853 11.6605L4.54505 11.6676L4.5579 11.6558L4.54106 11.6512Z" fill="black"/>
<path d="M4.26818 11.3662L4.2712 11.3695C4.27259 11.37 4.27397 11.3705 4.27534 11.3709L4.28103 11.3544L4.26818 11.3662Z" fill="black"/>
<path d="M4.78183 12.4419L4.79388 12.4302C4.79028 12.4262 4.78655 12.4221 4.78262 12.4177L4.76964 12.4294L4.78183 12.4419Z" fill="black"/>
<path d="M4.76964 12.4294L4.84195 12.3589L4.82895 12.3705L4.81779 12.3581L4.75745 12.4169C4.75075 12.4235 4.7504 12.4341 4.75667 12.4411C4.76897 12.4548 4.77935 12.4659 4.78965 12.4771L4.78969 12.4771C4.8 12.4882 4.81023 12.4993 4.82236 12.5127C4.82815 12.5192 4.8378 12.5204 4.84501 12.5156C4.85768 12.5071 4.86998 12.4979 4.88183 12.489L4.8819 12.4889C4.88916 12.4835 4.89624 12.4782 4.90331 12.4731C4.89962 12.4678 4.89624 12.463 4.89355 12.4594L4.90752 12.4489C4.88308 12.4652 4.85976 12.4848 4.83533 12.501C4.81089 12.4739 4.79408 12.4566 4.76964 12.4294Z" fill="black"/>
<path d="M4.81779 12.3581L4.82895 12.3705L4.84195 12.3589L4.82976 12.3464L4.81779 12.3581Z" fill="black"/>
<path d="M4.8483 12.4894C4.84471 12.4854 4.84129 12.4816 4.83798 12.478C4.83388 12.4809 4.82978 12.4838 4.82565 12.4865L4.83533 12.501L4.8483 12.4894Z" fill="black"/>
<path d="M4.90331 12.4731C4.90794 12.4698 4.91256 12.4665 4.91721 12.4634L4.90752 12.4489L4.89355 12.4594C4.89624 12.463 4.89962 12.4678 4.90331 12.4731Z" fill="black"/>
<path d="M4.90331 12.4731C4.90486 12.4753 4.90646 12.4777 4.90809 12.48L4.90817 12.4801C4.9095 12.4821 4.91085 12.484 4.91219 12.486C4.91701 12.4829 4.922 12.4799 4.92721 12.477C4.92033 12.4671 4.91279 12.4559 4.90752 12.4489L4.91721 12.4634C4.91256 12.4665 4.90794 12.4698 4.90331 12.4731Z" fill="black"/>
<path d="M4.92229 12.5002C4.92714 12.4971 4.93216 12.4941 4.9374 12.4913C4.93452 12.4875 4.93096 12.4824 4.92721 12.477C4.922 12.4799 4.91701 12.4829 4.91219 12.486C4.91576 12.4911 4.91928 12.4961 4.92229 12.5002Z" fill="black"/>
<path d="M4.91219 12.486C4.89992 12.4938 4.8888 12.5021 4.87819 12.51L4.87782 12.5103C4.86505 12.5198 4.853 12.5288 4.83976 12.5368C4.84268 12.5387 4.84564 12.5407 4.84863 12.5426L4.8391 12.5573C4.87025 12.5403 4.89343 12.5186 4.92229 12.5002C4.91928 12.4961 4.91576 12.4911 4.91219 12.486Z" fill="black"/>
<path d="M4.83976 12.5368C4.83682 12.5385 4.83383 12.5403 4.83076 12.5419L4.8391 12.5573L4.84863 12.5426C4.84564 12.5407 4.84268 12.5387 4.83976 12.5368Z" fill="black"/>
<path d="M4.83976 12.5368C4.78545 12.5002 4.74288 12.459 4.74635 12.3978C4.74675 12.3909 4.74298 12.3844 4.73678 12.3813C4.73057 12.3781 4.72309 12.379 4.71775 12.3834L4.6004 12.4812L4.6121 12.4942L4.71138 12.4115C4.71116 12.4064 4.7112 12.4012 4.7115 12.3959L4.72893 12.3968L4.7401 12.4103L4.72946 12.4191C4.73621 12.4816 4.78684 12.5232 4.8391 12.5573L4.83076 12.5419C4.83383 12.5403 4.83682 12.5385 4.83976 12.5368Z" fill="black"/>
<path d="M4.7401 12.4103L4.72893 12.3968C4.72849 12.4046 4.72869 12.412 4.72946 12.4191L4.7401 12.4103Z" fill="black"/>
<path d="M4.71374 12.4322L4.72946 12.4191C4.72869 12.412 4.72849 12.4046 4.72893 12.3968L4.71138 12.4115C4.71168 12.4186 4.71249 12.4255 4.71374 12.4322Z" fill="black"/>
<path d="M4.72893 12.3968L4.7115 12.3959C4.7112 12.4012 4.71116 12.4064 4.71138 12.4115L4.72893 12.3968Z" fill="black"/>
<path d="M4.47647 12.6412L4.48462 12.6004L4.6121 12.4942L4.6004 12.4812L4.47345 12.587C4.47038 12.5896 4.46829 12.5931 4.46751 12.597L4.46056 12.6317L4.46531 12.6277L4.47647 12.6412Z" fill="black"/>
<path d="M3.75168 13.2438L4.47647 12.6412L4.45935 12.6377L4.46056 12.6317L3.74444 13.2271L3.74951 13.2265L3.75168 13.2438Z" fill="black"/>
<path fill-rule="evenodd" clip-rule="evenodd" d="M2.79285 14.1921L3.0676 14.5142L3.07654 14.4992C3.07735 14.4997 3.07815 14.5002 3.07894 14.5006L3.08088 14.5029L3.0676 14.5142C3.09986 14.5335 3.12852 14.5322 3.15718 14.5142L3.14377 14.503L3.14562 14.5008C3.14637 14.5004 3.14713 14.4999 3.14789 14.4994L3.15718 14.5142L3.56437 14.0256L3.55079 14.0146L3.55096 14.0144L3.56437 14.0256L3.73539 13.8139C3.76187 13.7825 3.77032 13.7475 3.76796 13.7162L4.09492 13.4256C4.10332 13.4262 4.11066 13.4269 4.11759 13.4276C4.11634 13.4263 4.11515 13.4249 4.11405 13.4233C4.11095 13.419 4.10873 13.4143 4.10753 13.4091C4.1145 13.4097 4.12081 13.4104 4.1269 13.4111C4.12169 13.4021 4.12288 13.3902 4.13443 13.3741L4.19395 13.3278L4.20772 13.3171L4.21844 13.3309L4.26472 13.3904C4.26472 13.3904 4.1833 13.4963 4.17515 13.4963H4.08557L4.09728 13.5092L4.09228 13.5137H4.08558L4.08557 13.4963L3.92758 13.6392L3.94074 13.6508L3.92771 13.6626L3.98931 13.7171L4.09566 14.0086L4.11044 13.9982L4.11663 14.0152L4.24031 13.9279L4.22352 13.9326L4.22016 13.9207L4.23025 13.9136L4.24031 13.9279L4.15072 13.6103L4.34619 13.3985L4.3315 13.408L4.3242 13.3966L4.33336 13.3867L4.34619 13.3985L4.27288 13.2845L4.32175 13.2194C4.32175 13.2194 4.9982 13.6452 5.25881 13.5312C5.26585 13.5338 5.27457 13.2275 5.27457 13.2275L5.27296 13.2428C5.27274 13.2449 5.27274 13.2449 5.27274 13.2449L5.27222 13.2448L5.27069 13.2447C5.26934 13.2445 5.26735 13.2443 5.26477 13.244C5.26251 13.2438 5.25979 13.2434 5.25664 13.2431L5.25712 13.227C5.25712 13.227 5.25712 13.227 5.26445 13.2272L5.27457 13.2275C5.27457 13.2275 4.57421 13.1542 4.5579 13.0158C4.54502 12.9062 4.64942 12.8732 4.69355 12.8641L4.68281 12.8486C4.6903 12.8469 4.69671 12.8457 4.7015 12.845L4.63934 12.7552L4.65565 12.6982L4.76575 12.8376L4.80885 12.8035L4.85553 12.7637L4.6121 12.4942L4.48462 12.6004L4.50173 12.6039L4.50053 12.6099L4.49579 12.6138L4.48462 12.6004L4.47647 12.6412L3.75168 13.2438L3.68653 13.2519L3.70391 13.2535L3.70269 13.2675L3.68869 13.2693L3.68653 13.2519L3.67236 13.4148L3.69124 13.3992L3.68912 13.4236L4.14258 13.0484H4.12512V13.0401L4.13145 13.0349L4.14258 13.0484V13.0141L4.1314 13.0047L4.14258 12.9913L4.16003 12.9913V13.0059L4.19144 13.032L4.18054 13.0184L4.19167 13.0095L4.20262 13.0186L4.19144 13.032L4.54426 12.7498L4.54416 12.7497L4.54398 12.7494L4.54394 12.7494C4.54394 12.7494 4.54394 12.7494 4.55018 12.7447L4.5579 12.7389L4.5688 12.7525L4.56789 12.7533C4.56822 12.7538 4.56855 12.7543 4.56887 12.7548C4.56998 12.7545 4.57188 12.754 4.57421 12.754C4.57291 12.754 4.57103 12.7542 4.56896 12.7549C4.57412 12.7632 4.57831 12.7715 4.57421 12.7715C4.56606 12.7715 4.24844 13.0646 4.24844 13.0646L4.26538 13.0689L4.26411 13.0739L4.26029 13.0775C4.26029 13.0775 4.26028 13.0775 4.25627 13.0731L4.24844 13.0646L4.24031 13.0972L4.1833 13.1461L4.15072 13.1216L4.16232 13.1347L4.15166 13.1442L4.14025 13.1356L4.15072 13.1216L3.71096 13.5125H3.64581L3.65815 13.5249L3.65304 13.53H3.64581V13.5125L3.40149 13.7569C3.33848 13.7623 3.28388 13.769 3.23047 13.8057L3.24203 13.8188L3.24122 13.8195L3.24036 13.8201L3.23047 13.8057L2.79285 14.1921L2.80613 14.1808L2.81726 14.1938L2.8044 14.2052L2.79285 14.1921ZM4.58099 12.7877C4.57848 12.7886 4.57608 12.7889 4.57421 12.7889C4.57702 12.7889 4.57909 12.7882 4.57974 12.788C4.58063 12.7877 4.58126 12.7874 4.58154 12.7872C4.58176 12.7871 4.58193 12.787 4.58205 12.7869C4.58223 12.7868 4.58228 12.7868 4.58218 12.7869C4.58198 12.787 4.58159 12.7873 4.58099 12.7877ZM5.244 13.5184C5.24665 13.5174 5.24926 13.5164 5.25182 13.5153C5.25337 13.5146 5.25499 13.5141 5.25663 13.5139C5.25486 13.5142 5.25326 13.5147 5.25186 13.5153C5.24968 13.5163 5.24799 13.5176 5.24692 13.5187C5.24469 13.5209 5.24372 13.5231 5.24352 13.5235L5.24351 13.5235C5.24324 13.5242 5.24308 13.5246 5.24303 13.5249L5.24308 13.5246C5.24331 13.5235 5.24363 13.5215 5.244 13.5184Z" fill="black"/>
<path d="M4.46056 12.6317L4.45935 12.6377L4.47647 12.6412L4.46531 12.6277L4.46056 12.6317Z" fill="black"/>
<path d="M4.49579 12.6138L4.50053 12.6099L4.50173 12.6039L4.48462 12.6004L4.49579 12.6138Z" fill="black"/>
<path d="M4.16003 13.0286L4.18027 13.0455C4.18664 13.0508 4.19587 13.0509 4.20235 13.0457L4.55418 12.7642C4.55191 12.7606 4.54938 12.7569 4.54735 12.7541L4.54655 12.753C4.54588 12.752 4.5453 12.7512 4.54485 12.7506L4.54426 12.7498L4.19144 13.032L4.16003 13.0059V13.0286Z" fill="black"/>
<path d="M4.24844 13.0646C4.24844 13.0646 4.56606 12.7715 4.57421 12.7715C4.57831 12.7715 4.57412 12.7632 4.56896 12.7549C4.56728 12.7556 4.56547 12.7565 4.56375 12.7581C4.55991 12.7615 4.5588 12.7656 4.55852 12.7679C4.55825 12.7701 4.55856 12.7717 4.55864 12.772C4.55869 12.7723 4.55873 12.7724 4.55875 12.7725C4.55827 12.7712 4.55679 12.7684 4.55431 12.7644L4.55425 12.7644C4.55199 12.7662 4.54941 12.7683 4.54659 12.7707C4.53696 12.7789 4.52376 12.7905 4.50827 12.8042C4.47727 12.8318 4.43673 12.8685 4.39651 12.9051C4.35627 12.9418 4.3163 12.9785 4.28638 13.006C4.27143 13.0197 4.25898 13.0312 4.25028 13.0392L4.23662 13.0518L4.24844 13.0646Z" fill="black"/>
<path d="M4.54485 12.7506C4.5453 12.7512 4.54588 12.752 4.54655 12.753L4.54735 12.7541C4.54938 12.7569 4.55191 12.7606 4.55418 12.7642L4.56789 12.7533C4.56309 12.7458 4.5579 12.7389 4.5579 12.7389L4.54426 12.7498L4.54485 12.7506Z" fill="black"/>
<path d="M4.65565 12.6982L4.63934 12.7552L4.7015 12.845L4.70267 12.8448C4.70425 12.8445 4.70563 12.8443 4.70679 12.8442C4.70748 12.8441 4.70808 12.844 4.7086 12.8439C4.70931 12.8439 4.70987 12.8438 4.71027 12.8437L4.71075 12.8437L4.71098 12.8437C4.71098 12.8437 4.71099 12.8437 4.71264 12.8611C4.7143 12.8784 4.7143 12.8784 4.7143 12.8784L4.72918 12.8666C4.73094 12.8614 4.73016 12.8557 4.72699 12.8511L4.65839 12.752L4.66306 12.7357L4.75208 12.8485L4.76575 12.8376L4.65565 12.6982Z" fill="black"/>
<path d="M4.72847 12.8684C4.72874 12.8678 4.72898 12.8672 4.72918 12.8666L4.7143 12.8784C4.72047 12.8778 4.72586 12.874 4.72847 12.8684Z" fill="black"/>
<path d="M4.71264 12.8611C4.71099 12.8437 4.71098 12.8437 4.71098 12.8437L4.71075 12.8437L4.71027 12.8437C4.70987 12.8438 4.70931 12.8439 4.7086 12.8439C4.70808 12.844 4.70748 12.8441 4.70679 12.8442C4.70563 12.8443 4.70425 12.8445 4.70267 12.8448L4.7015 12.845L4.71264 12.8611Z" fill="black"/>
<path d="M4.68281 12.8486L4.69355 12.8641C4.7052 12.8618 4.71264 12.8611 4.71264 12.8611L4.7015 12.845C4.69671 12.8457 4.6903 12.8469 4.68281 12.8486Z" fill="black"/>
<path d="M4.86723 12.7766L4.7778 12.8529L4.76575 12.8376L4.75208 12.8485L4.7641 12.8637C4.76704 12.8674 4.77137 12.8698 4.77609 12.8703C4.78081 12.8707 4.78552 12.8693 4.78913 12.8662L4.87894 12.7896L4.86723 12.7766Z" fill="black"/>
<path d="M4.78027 12.8279L4.80885 12.8035L4.76575 12.8376L4.7778 12.8529L4.86723 12.7766L4.858 12.7664L4.78027 12.8279Z" fill="black"/>
<path d="M5.27296 13.2428L5.27457 13.2275L5.26445 13.2272C5.25712 13.227 5.25712 13.227 5.25712 13.227L5.25664 13.2431C5.25979 13.2434 5.26251 13.2438 5.26477 13.244C5.26735 13.2443 5.26934 13.2445 5.27069 13.2447L5.27222 13.2448L5.27274 13.2449C5.27274 13.2449 5.27274 13.2449 5.27296 13.2428Z" fill="black"/>
<path d="M5.27457 13.2275C5.27457 13.2275 5.26585 13.5338 5.25881 13.5312L5.26581 13.5472L5.2645 13.5478C5.26756 13.5468 5.26994 13.545 5.27137 13.5436C5.27386 13.5412 5.27505 13.5386 5.27545 13.5376C5.27642 13.5354 5.27694 13.5332 5.27722 13.5319C5.27786 13.5289 5.27839 13.525 5.27886 13.5209C5.27982 13.5123 5.28076 13.5002 5.28166 13.486C5.28348 13.4574 5.28524 13.4192 5.28677 13.381C5.2883 13.3428 5.28961 13.3046 5.29054 13.2759C5.291 13.2615 5.29137 13.2496 5.29162 13.2412L5.29201 13.2281L5.29201 13.228L5.27457 13.2275Z" fill="black"/>
<path d="M5.2645 13.5478L5.26581 13.5472L5.25881 13.5312L5.25289 13.5477C5.25731 13.5493 5.26128 13.5489 5.2645 13.5478Z" fill="black"/>
<path d="M5.25881 13.5312C4.9982 13.6452 4.32175 13.2194 4.32175 13.2194L4.33571 13.2298L4.32614 13.2426C4.33055 13.2453 4.33598 13.2486 4.34233 13.2524C4.36145 13.2639 4.38903 13.2802 4.42293 13.2993C4.4907 13.3376 4.58386 13.3875 4.68529 13.4339C4.78662 13.4803 4.89677 13.5233 4.9984 13.5476C5.09861 13.5715 5.19399 13.5781 5.2645 13.5478C5.26128 13.5489 5.25731 13.5493 5.25289 13.5477L5.25881 13.5312Z" fill="black"/>
<path d="M4.32025 13.239C4.32195 13.24 4.32392 13.2412 4.32614 13.2426L4.33571 13.2298L4.32175 13.2194C4.31245 13.2341 4.31246 13.2341 4.31246 13.2341L4.31249 13.2342L4.31298 13.2345L4.31447 13.2354C4.31578 13.2362 4.31772 13.2374 4.32025 13.239Z" fill="black"/>
<path d="M4.32175 13.2194L4.27288 13.2845L4.28756 13.2751L4.29412 13.2853L4.32614 13.2426C4.32392 13.2412 4.32195 13.24 4.32025 13.239C4.31772 13.2374 4.31578 13.2362 4.31447 13.2354L4.31298 13.2345L4.31249 13.2342L4.31246 13.2341C4.31246 13.2341 4.31245 13.2341 4.32175 13.2194Z" fill="black"/>
<path d="M4.29412 13.2853L4.28756 13.2751L4.27288 13.2845L4.28684 13.295L4.29412 13.2853Z" fill="black"/>
<path d="M4.34619 13.3985L4.15072 13.6103L4.16752 13.6055L4.17017 13.6149L4.35901 13.4104C4.3644 13.4045 4.36517 13.3958 4.36087 13.3891L4.29412 13.2853L4.28684 13.295L4.27288 13.2845L4.34619 13.3985Z" fill="black"/>
<path d="M4.33336 13.3867L4.3242 13.3966L4.3315 13.408L4.34619 13.3985L4.33336 13.3867Z" fill="black"/>
<path d="M4.24741 13.3842C4.24612 13.3859 4.24451 13.388 4.24263 13.3904L4.25095 13.4011L4.26472 13.3904L4.25087 13.3798L4.25083 13.3798L4.24999 13.3809L4.24741 13.3842Z" fill="black"/>
<path d="M4.26472 13.3904L4.21844 13.3309L4.20466 13.3416L4.24263 13.3904C4.24451 13.388 4.24612 13.3859 4.24741 13.3842L4.24999 13.3809L4.25083 13.3798L4.25087 13.3798L4.26472 13.3904Z" fill="black"/>
<path d="M4.20772 13.3171L4.19395 13.3278L4.20466 13.3416L4.21844 13.3309L4.20772 13.3171Z" fill="black"/>
<path d="M4.19395 13.3278L4.13443 13.3741L4.14861 13.3843C4.14812 13.385 4.14767 13.3856 4.14724 13.3862L4.20466 13.3416L4.19395 13.3278Z" fill="black"/>
<path d="M4.17515 13.4963C4.1833 13.4963 4.26472 13.3904 4.26472 13.3904L4.25095 13.4011L4.24263 13.3904C4.24126 13.3922 4.23975 13.3941 4.23812 13.3962C4.23039 13.4061 4.22002 13.4192 4.20941 13.4324C4.19877 13.4455 4.18802 13.4585 4.17951 13.4681C4.17541 13.4728 4.17205 13.4764 4.16958 13.4788H4.17515C4.17133 13.4788 4.16871 13.4801 4.16822 13.4804L4.1682 13.4804C4.1674 13.4808 4.16699 13.4811 4.16709 13.4811C4.16727 13.4809 4.16794 13.4804 4.16923 13.4791L4.16958 13.4788H4.08558C4.08125 13.4788 4.07707 13.4804 4.07386 13.4833L3.90284 13.6381C3.89916 13.6414 3.89707 13.6461 3.8971 13.6511C3.89713 13.6561 3.89927 13.6608 3.90299 13.6641L3.97443 13.7272L3.97292 13.7231L3.98931 13.7171L3.92771 13.6626L3.92626 13.6639L3.91455 13.651L3.92611 13.6379L3.92758 13.6392L4.08557 13.4963H4.17515Z" fill="black"/>
<path d="M4.10098 13.4436C4.11065 13.4444 4.11899 13.4453 4.12756 13.4463L4.12766 13.4463C4.13833 13.4475 4.14935 13.4488 4.16316 13.4497C4.17215 13.4503 4.18013 13.444 4.18157 13.4351C4.18301 13.4262 4.17744 13.4177 4.16871 13.4154C4.16149 13.4135 4.15541 13.4114 4.15068 13.409C4.14586 13.4066 4.14345 13.4044 4.14236 13.4029C4.14161 13.4019 4.14122 13.4009 4.14148 13.3989C4.14178 13.3966 4.14309 13.3924 4.14724 13.3862L4.14515 13.3879L4.13443 13.3741C4.12288 13.3902 4.12169 13.4021 4.1269 13.4111L4.13133 13.4116L4.1316 13.4116C4.14226 13.4128 4.15258 13.414 4.16552 13.4149L4.16434 13.4323L4.15996 13.4492C4.15139 13.447 4.14272 13.4441 4.13499 13.4402C4.12887 13.4371 4.12267 13.4331 4.11759 13.4276C4.11066 13.4269 4.10332 13.4262 4.09492 13.4256L4.10651 13.4387L4.10098 13.4436Z" fill="black"/>
<path d="M4.15996 13.4492L4.16434 13.4323C4.146 13.4311 4.13274 13.4292 4.11759 13.4276C4.12267 13.4331 4.12887 13.4371 4.13499 13.4402C4.14272 13.4441 4.15139 13.447 4.15996 13.4492Z" fill="black"/>
<path d="M4.10753 13.4091C4.10873 13.4143 4.11095 13.419 4.11405 13.4233C4.11515 13.4249 4.11634 13.4263 4.11759 13.4276C4.13274 13.4292 4.146 13.4311 4.16434 13.4323C4.14741 13.4279 4.1329 13.4215 4.1269 13.4111C4.12081 13.4104 4.1145 13.4097 4.10753 13.4091Z" fill="black"/>
<path d="M4.1316 13.4116L4.13133 13.4116L4.1269 13.4111C4.1329 13.4215 4.14741 13.4279 4.16434 13.4323L4.16552 13.4149C4.15258 13.414 4.14226 13.4128 4.1316 13.4116Z" fill="black"/>
<path d="M4.14724 13.3862C4.14767 13.3856 4.14812 13.385 4.14861 13.3843L4.13443 13.3741L4.14515 13.3879L4.14724 13.3862Z" fill="black"/>
<path d="M4.10098 13.4436L4.10651 13.4387L4.09492 13.4256L4.09372 13.443C4.09623 13.4432 4.09864 13.4434 4.10098 13.4436Z" fill="black"/>
<path d="M4.09492 13.4256L3.76796 13.7162L3.78537 13.7148C3.78559 13.7178 3.78573 13.7207 3.78577 13.7237L4.10098 13.4436C4.09864 13.4434 4.09623 13.4432 4.09372 13.443L4.09492 13.4256Z" fill="black"/>
<path d="M4.08557 13.4963L4.08558 13.5137H4.09228L4.09728 13.5092L4.08557 13.4963Z" fill="black"/>
<path d="M3.94074 13.6508L3.92758 13.6392L3.91455 13.651L3.92771 13.6626L3.94074 13.6508Z" fill="black"/>
<path d="M3.92611 13.6379L3.91455 13.651L3.92758 13.6392L3.92611 13.6379Z" fill="black"/>
<path d="M3.91455 13.651L3.92626 13.6639L3.92771 13.6626L3.91455 13.651Z" fill="black"/>
<path d="M4.17017 13.6149L4.16752 13.6055L4.15072 13.6103L4.16355 13.6221L4.17017 13.6149Z" fill="black"/>
<path d="M4.15072 13.6103L4.24031 13.9279L4.11663 14.0152L4.11826 14.0196L4.10186 14.0256L4.09179 14.0114L4.09566 14.0086L3.98931 13.7171L3.97775 13.7302L3.97443 13.7272L4.08546 14.0316C4.08733 14.0367 4.09146 14.0406 4.09665 14.0423C4.10184 14.0439 4.10749 14.043 4.11193 14.0399L4.25038 13.9421C4.25642 13.9379 4.25912 13.9302 4.25711 13.9231L4.17017 13.6149L4.16355 13.6221L4.15072 13.6103Z" fill="black"/>
<path d="M3.97443 13.7272L3.97775 13.7302L3.98931 13.7171L3.97292 13.7231L3.97443 13.7272Z" fill="black"/>
<path d="M4.23025 13.9136L4.22016 13.9207L4.22352 13.9326L4.24031 13.9279L4.23025 13.9136Z" fill="black"/>
<path d="M4.10186 14.0256L4.11826 14.0196L4.11663 14.0152L4.10186 14.0256Z" fill="black"/>
<path d="M4.11044 13.9982L4.09566 14.0086L4.10186 14.0256L4.11663 14.0152L4.11044 13.9982Z" fill="black"/>
<path d="M4.09179 14.0114L4.10186 14.0256L4.09566 14.0086L4.09179 14.0114Z" fill="black"/>
<path d="M3.78577 13.7237C3.78573 13.7207 3.78559 13.7178 3.78537 13.7148L3.76796 13.7162L3.77956 13.7292L3.78577 13.7237Z" fill="black"/>
<path d="M3.76796 13.7162C3.77032 13.7475 3.76187 13.7825 3.73539 13.8139L3.74897 13.8248L3.74885 13.825C3.77597 13.7928 3.78632 13.7568 3.78577 13.7237L3.77956 13.7292L3.76796 13.7162Z" fill="black"/>
<path d="M3.0676 14.5142L2.79285 14.1921L3.23047 13.8057C3.28388 13.769 3.33848 13.7623 3.40149 13.7569L3.38915 13.7445L3.39364 13.74C3.33296 13.7455 3.27618 13.7531 3.22059 13.7913C3.22001 13.7917 3.21945 13.7922 3.21892 13.7926L2.78129 14.179C2.77415 14.1853 2.77339 14.1962 2.77957 14.2034L3.05432 14.5255C3.05555 14.527 3.05702 14.5282 3.05866 14.5292C3.07692 14.5401 3.09527 14.5458 3.11392 14.5456C3.13258 14.5455 3.15002 14.5393 3.16647 14.529C3.16802 14.528 3.16941 14.5268 3.17059 14.5254L3.57778 14.0368L3.57795 14.0366L3.74873 13.8251L3.73539 13.8139L3.56437 14.0256L3.15718 14.5142C3.12852 14.5322 3.09986 14.5335 3.0676 14.5142Z" fill="black"/>
<path d="M2.8044 14.2052L2.81726 14.1938L2.80613 14.1808L2.79285 14.1921L2.8044 14.2052Z" fill="black"/>
<path d="M3.08088 14.5029L3.07894 14.5006C3.07815 14.5002 3.07735 14.4997 3.07654 14.4992L3.0676 14.5142L3.08088 14.5029Z" fill="black"/>
<path d="M3.14789 14.4994C3.14713 14.4999 3.14637 14.5004 3.14562 14.5008L3.14377 14.503L3.15718 14.5142L3.14789 14.4994Z" fill="black"/>
<path d="M3.24036 13.8201L3.24122 13.8195L3.24203 13.8188L3.23047 13.8057L3.24036 13.8201Z" fill="black"/>
<path d="M3.39364 13.74L3.38915 13.7445L3.40149 13.7569L3.39998 13.7395C3.39786 13.7397 3.39575 13.7398 3.39364 13.74Z" fill="black"/>
<path d="M3.64581 13.5125H3.71096L3.69936 13.4995L3.70432 13.4951H3.64581C3.64118 13.4951 3.63674 13.4969 3.63347 13.5002L3.39364 13.74C3.39575 13.7398 3.39786 13.7397 3.39998 13.7395L3.40149 13.7569L3.64581 13.5125Z" fill="black"/>
<path d="M3.64581 13.53H3.65304L3.65815 13.5249L3.64581 13.5125V13.53Z" fill="black"/>
<path d="M3.68653 13.2519L3.75168 13.2438L3.74052 13.2304L3.74444 13.2271L3.68436 13.2346C3.67619 13.2356 3.66985 13.2422 3.66914 13.2504L3.65285 13.4377C3.65224 13.4448 3.6559 13.4514 3.66213 13.4547C3.66836 13.458 3.67595 13.4572 3.68137 13.4527L4.15371 13.0618C4.15771 13.0585 4.16003 13.0536 4.16003 13.0484V13.0286L4.14258 13.0141V13.0484L3.68912 13.4236L3.68763 13.4408L3.67024 13.4393L3.65911 13.4258L3.67236 13.4148L3.68653 13.2519Z" fill="black"/>
<path d="M3.65911 13.4258L3.67024 13.4393L3.67236 13.4148L3.65911 13.4258Z" fill="black"/>
<path d="M3.69124 13.3992L3.67236 13.4148L3.67024 13.4393L3.68912 13.4236L3.69124 13.3992Z" fill="black"/>
<path d="M3.67024 13.4393L3.68763 13.4408L3.68912 13.4236L3.67024 13.4393Z" fill="black"/>
<path d="M3.70432 13.4951L3.69936 13.4995L3.71096 13.5125V13.4951H3.70432Z" fill="black"/>
<path d="M4.15072 13.1216L4.1833 13.1461L4.17194 13.1328L4.18257 13.1237L4.16119 13.1077C4.15456 13.1027 4.14533 13.1031 4.13913 13.1086L3.70432 13.4951H3.71096V13.5125L4.15072 13.1216Z" fill="black"/>
<path d="M3.68869 13.2693L3.70269 13.2675L3.70391 13.2535L3.68653 13.2519L3.68869 13.2693Z" fill="black"/>
<path d="M3.74444 13.2271L3.74052 13.2304L3.75168 13.2438L3.74951 13.2265L3.74444 13.2271Z" fill="black"/>
<path d="M4.13145 13.0349L4.12512 13.0401V13.0484H4.14258L4.13145 13.0349Z" fill="black"/>
<path d="M4.16003 13.0286V13.0059L4.14258 12.9913V13.0141L4.16003 13.0286Z" fill="black"/>
<path d="M4.14258 12.9913L4.1314 13.0047L4.14258 13.0141V12.9913Z" fill="black"/>
<path d="M4.16003 12.9913L4.14258 12.9913L4.16003 13.0059V12.9913Z" fill="black"/>
<path d="M4.20262 13.0186L4.19167 13.0095L4.18054 13.0184L4.19144 13.032L4.20262 13.0186Z" fill="black"/>
<path d="M4.14025 13.1356L4.15166 13.1442L4.16232 13.1347L4.15072 13.1216L4.14025 13.1356Z" fill="black"/>
<path d="M4.18257 13.1237L4.17194 13.1328L4.1833 13.1461L4.19377 13.1321L4.18257 13.1237Z" fill="black"/>
<path d="M4.1833 13.1461L4.24031 13.0972L4.22338 13.093L4.22473 13.0876L4.18257 13.1237L4.19377 13.1321L4.1833 13.1461Z" fill="black"/>
<path d="M4.22473 13.0876L4.22338 13.093L4.24031 13.0972L4.22896 13.084L4.22473 13.0876Z" fill="black"/>
<path d="M4.24031 13.0972L4.24844 13.0646C4.2366 13.0518 4.23662 13.0518 4.23662 13.0518C4.23412 13.0541 4.23233 13.0571 4.23151 13.0604L4.22473 13.0876L4.22896 13.084L4.24031 13.0972Z" fill="black"/>
<path d="M4.26538 13.0689L4.24844 13.0646L4.25627 13.0731C4.26028 13.0775 4.26029 13.0775 4.26029 13.0775L4.26411 13.0739L4.26538 13.0689Z" fill="black"/>
<path d="M4.55425 12.7644L4.55431 12.7644C4.55679 12.7684 4.55827 12.7712 4.55875 12.7725C4.55873 12.7724 4.55869 12.7723 4.55864 12.772C4.55856 12.7717 4.55825 12.7701 4.55852 12.7679C4.5588 12.7656 4.55991 12.7615 4.56375 12.7581C4.56547 12.7565 4.56728 12.7556 4.56896 12.7549L4.56887 12.7548C4.56859 12.7549 4.56836 12.755 4.56818 12.755C4.56709 12.7554 4.56622 12.7558 4.56567 12.7561C4.56456 12.7567 4.5636 12.7573 4.56294 12.7577C4.56156 12.7587 4.56003 12.7598 4.55852 12.761C4.55726 12.7619 4.55583 12.7631 4.55425 12.7644Z" fill="black"/>
<path d="M4.5688 12.7525L4.5579 12.7389C4.5579 12.7389 4.56309 12.7458 4.56789 12.7533L4.5688 12.7525Z" fill="black"/>
<path d="M4.55418 12.7642L4.55425 12.7644C4.55583 12.7631 4.55726 12.7619 4.55852 12.761C4.56003 12.7598 4.56156 12.7587 4.56294 12.7577C4.5636 12.7573 4.56456 12.7567 4.56567 12.7561C4.56622 12.7558 4.56709 12.7554 4.56818 12.755C4.56836 12.755 4.56859 12.7549 4.56887 12.7548C4.56855 12.7543 4.56822 12.7538 4.56789 12.7533L4.55418 12.7642Z" fill="black"/>
<path d="M4.5579 12.7389L4.55018 12.7447C4.54394 12.7494 4.54394 12.7494 4.54394 12.7494L4.54398 12.7494L4.54416 12.7497L4.54426 12.7498L4.5579 12.7389Z" fill="black"/>
<path d="M4.95762 12.2499C4.95814 12.2509 4.95875 12.2519 4.95942 12.2528L4.96022 12.2537L4.97323 12.2421L4.95762 12.2499Z" fill="black"/>
<path d="M5.14698 12.1129C5.14961 12.1103 5.15174 12.1083 5.15337 12.1068C5.154 12.1062 5.15448 12.1058 5.15483 12.1055L5.14535 12.0907C5.14362 12.0919 5.13901 12.0963 5.13236 12.1027L5.14197 12.1178C5.14378 12.116 5.14545 12.1144 5.14698 12.1129Z" fill="black"/>
<path d="M5.16794 12.1487L5.18498 12.1525L5.17288 12.1336L5.16579 12.1549L5.16636 12.1558L5.16794 12.1487Z" fill="black"/>
<path d="M5.17998 12.1124L5.17288 12.1336L5.18498 12.1525L5.18496 12.1526L5.19208 12.1313L5.17998 12.1124Z" fill="black"/>
<path d="M5.15701 12.2129L5.15287 12.2166L5.15166 12.222L5.16869 12.2258L5.15701 12.2129Z" fill="black"/>
<path d="M5.16038 12.1827C5.16062 12.1834 5.16091 12.1841 5.16124 12.1848L5.17272 12.2077L5.17872 12.1807L5.17685 12.1769L5.18496 12.1526L5.18498 12.1525L5.17028 12.1619L5.16636 12.1558L5.16038 12.1827Z" fill="black"/>
<path d="M5.16636 12.1558L5.17028 12.1619L5.18498 12.1525L5.16794 12.1487L5.16636 12.1558Z" fill="black"/>
<path d="M5.19569 12.1756L5.2018 12.1573L5.20201 12.1563C5.20302 12.1518 5.20218 12.147 5.19967 12.1431L5.19208 12.1313L5.18496 12.1526L5.17989 12.1754L5.19246 12.1691L5.19569 12.1756Z" fill="black"/>
<path d="M5.19569 12.1756L5.19246 12.1691L5.17989 12.1754L5.17937 12.1778L5.19341 12.1825L5.19569 12.1756Z" fill="black"/>
<path d="M5.18496 12.1526L5.17685 12.1769L5.17989 12.1754L5.18496 12.1526Z" fill="black"/>
<path d="M5.17989 12.1754L5.17685 12.1769L5.17937 12.1778L5.17989 12.1754Z" fill="black"/>
<path d="M5.17685 12.1769L5.17872 12.1807L5.17937 12.1778L5.17685 12.1769Z" fill="black"/>
<path d="M5.19569 12.1756L5.19341 12.1825L5.17937 12.1778L5.17872 12.1807L5.1911 12.2055L5.1971 12.1784L5.19569 12.1756Z" fill="black"/>
<path d="M5.20938 12.4859L5.32344 12.3643C5.34751 12.3371 5.35597 12.3256 5.356 12.2828L5.54331 12.12C5.5731 12.1302 5.59718 12.1445 5.61768 12.1622L5.63159 12.1512C5.60906 12.1311 5.58234 12.1149 5.54898 12.1034C5.54308 12.1014 5.53656 12.1027 5.53186 12.1068L5.34455 12.2696C5.34074 12.273 5.33855 12.2778 5.33855 12.2828C5.33853 12.3032 5.33647 12.314 5.33277 12.3224C5.32892 12.3311 5.32269 12.3388 5.31054 12.3525L5.18855 12.4826C5.18301 12.4885 5.18233 12.4974 5.1866 12.504L5.20938 12.4859Z" fill="black"/>
<path d="M5.356 12.2828C5.35597 12.3256 5.34751 12.3371 5.32344 12.3643L5.20938 12.4859L5.30261 12.412L5.33617 12.3762L5.3365 12.3759C5.34832 12.3625 5.35831 12.351 5.36471 12.3365C5.37045 12.3234 5.37283 12.3092 5.37335 12.2909L5.54698 12.1399C5.56903 12.1485 5.58754 12.1597 5.60375 12.1733L5.61768 12.1622C5.59718 12.1445 5.5731 12.1302 5.54331 12.12L5.356 12.2828Z" fill="black"/>
<path d="M6.18041 11.7813L5.66546 12.2177C5.65191 12.1975 5.63713 12.1795 5.61977 12.1641L5.60585 12.1751C5.62297 12.1898 5.6375 12.2073 5.65096 12.2274C5.65373 12.2315 5.65813 12.2343 5.66305 12.235C5.66797 12.2356 5.67295 12.2342 5.67675 12.231L6.18126 11.8034C6.19046 11.8087 6.20162 11.8128 6.21288 11.8151C6.23068 11.8188 6.25262 11.8188 6.27154 11.8085C6.2729 11.8077 6.27415 11.8068 6.27527 11.8057L7.12663 10.9885C7.13322 10.9822 7.13382 10.9719 7.128 10.9648L7.10949 10.9795L7.11454 10.976L6.26318 11.7931C6.2352 11.8084 6.19398 11.7948 6.18041 11.7813Z" fill="black"/>
<path d="M5.66546 12.2177L6.18041 11.7813C6.19398 11.7948 6.2352 11.8084 6.26318 11.7931L7.11454 10.976L7.10949 10.9795L5.63159 12.1512C5.63228 12.1518 5.63297 12.1524 5.63366 12.1531L6.93483 11.1243L6.25297 11.7787C6.24408 11.7829 6.23223 11.7834 6.2199 11.7809C6.20642 11.7781 6.19631 11.7725 6.19275 11.7689C6.18633 11.7625 6.17605 11.7621 6.16912 11.7679L5.6687 12.192C5.65808 12.1779 5.64657 12.1648 5.63366 12.1531L5.61977 12.1641C5.63713 12.1795 5.65191 12.1975 5.66546 12.2177Z" fill="black"/>
<path d="M6.25297 11.7787L6.93483 11.1243L5.63366 12.1531C5.64657 12.1648 5.65808 12.1779 5.6687 12.192L6.16912 11.7679C6.17605 11.7621 6.18633 11.7625 6.19275 11.7689C6.19631 11.7725 6.20642 11.7781 6.2199 11.7809C6.23223 11.7834 6.24408 11.7829 6.25297 11.7787Z" fill="black"/>
<path d="M6.1541 11.6069C6.1541 11.5797 6.18775 11.573 6.1541 11.5255L6.14069 11.5366C6.14055 11.5365 6.14042 11.5363 6.14028 11.5361L6.13985 11.5355L6.1541 11.5255C6.11805 11.4822 6.06451 11.5662 6.05638 11.5662C6.04934 11.5662 5.95412 11.5329 5.91058 11.4874L5.9092 11.5101C5.90327 11.5049 5.89768 11.4994 5.89271 11.4936L5.88584 11.6072L6.15756 11.6095L6.1541 11.6069Z" fill="black"/>
<path d="M7.128 10.9648L7.10447 10.9617L6.18697 11.6097L6.15756 11.6095L6.18666 11.6313L7.10949 10.9795L7.128 10.9648Z" fill="black"/>
<path d="M7.128 10.9648C7.12219 10.9578 7.11193 10.9564 7.10447 10.9617L7.128 10.9648Z" fill="black"/>
<path d="M6.13985 11.5355L6.14028 11.5361C6.14042 11.5363 6.14055 11.5365 6.14069 11.5366L6.1541 11.5255L6.13985 11.5355Z" fill="black"/>
<path d="M5.89444 11.4651L5.87876 11.4728C5.88235 11.4801 5.88714 11.4871 5.89271 11.4936L5.89444 11.4651Z" fill="black"/>
<path d="M5.9092 11.5101L5.91058 11.4874C5.90374 11.4802 5.89818 11.4728 5.89444 11.4651L5.89271 11.4936C5.89768 11.4994 5.90327 11.5049 5.9092 11.5101Z" fill="black"/>
<path d="M5.91186 11.4662L5.89444 11.4651C5.89818 11.4728 5.90374 11.4802 5.91058 11.4874L5.91186 11.4662Z" fill="black"/>
<path d="M5.46923 11.8442L5.47676 11.8446L5.48217 11.8393L5.47003 11.8268L5.46923 11.8442Z" fill="black"/>
<path d="M6.68343 14.4735L5.0547 12.6167L4.86723 12.7766L4.87894 12.7896L5.05293 12.6412L6.67031 14.485C6.67521 14.4906 6.68311 14.4925 6.68999 14.4897C6.73429 14.4717 6.76539 14.4559 6.78519 14.4308C6.80534 14.4053 6.81178 14.3729 6.81487 14.3281C6.8152 14.3233 6.81356 14.3187 6.81035 14.3152L6.8102 14.315L6.80932 14.314L6.80582 14.31C6.80274 14.3065 6.79821 14.3013 6.79231 14.2945C6.78051 14.281 6.76327 14.2612 6.74137 14.2361C6.69757 14.1858 6.63512 14.1141 6.56025 14.0282C6.4105 13.8563 6.21105 13.6273 6.01167 13.3984C5.8123 13.1695 5.61299 12.9407 5.46353 12.7691L5.22481 12.495L5.29238 12.4229L5.20149 12.4948C5.22195 12.5183 6.79518 14.3247 6.79746 14.3269C6.79134 14.4157 6.77235 14.4375 6.68343 14.4735Z" fill="black"/>
<path d="M5.29238 12.4229L5.30261 12.412L5.20938 12.4859L5.20129 12.4946L5.20149 12.4948L5.29238 12.4229Z" fill="black"/>
<path d="M5.1866 12.504C5.18696 12.5046 5.18735 12.5051 5.18779 12.5056L5.19642 12.4988L5.19645 12.4988L5.20129 12.4946L5.20938 12.4859L5.1866 12.504Z" fill="black"/>
<path d="M5.18779 12.5056C5.1879 12.5058 5.18801 12.5059 5.18812 12.506L5.19642 12.4988L5.18779 12.5056Z" fill="black"/>
<path d="M5.1866 12.504L5.06346 12.6016C5.06401 12.6019 5.06454 12.6023 5.06506 12.6027L5.18779 12.5056C5.18735 12.5051 5.18696 12.5046 5.1866 12.504Z" fill="black"/>
<path d="M5.18812 12.506C5.18801 12.5059 5.1879 12.5058 5.18779 12.5056L5.06506 12.6027C5.06605 12.6034 5.06697 12.6042 5.06782 12.6052L6.68831 14.4526C6.72549 14.4369 6.74555 14.4247 6.7578 14.4092C6.77017 14.3935 6.77631 14.3722 6.77951 14.3329L6.77121 14.3234L6.766 14.3174C6.7542 14.3039 6.73696 14.2841 6.71506 14.259C6.67125 14.2088 6.6088 14.1371 6.53393 14.0511C6.38418 13.8792 6.18473 13.6503 5.98535 13.4214C5.78597 13.1925 5.58667 12.9636 5.4372 12.792L5.1882 12.5061L5.18814 12.506C5.18814 12.506 5.18813 12.506 5.19645 12.4988L5.19642 12.4988L5.18812 12.506Z" fill="black"/>
<path d="M4.85701 12.7653L5.06346 12.6016C5.05723 12.598 5.04915 12.5985 5.04337 12.6034L4.85553 12.7637L4.85701 12.7653Z" fill="black"/>
<path d="M5.0547 12.6167L6.68343 14.4735C6.77235 14.4375 6.79134 14.4157 6.79746 14.3269C6.79518 14.3247 5.22195 12.5183 5.20149 12.4948L5.19645 12.4988C5.18813 12.506 5.18814 12.506 5.18814 12.506L5.1882 12.5061L5.4372 12.792C5.58667 12.9636 5.78597 13.1925 5.98535 13.4214C6.18473 13.6503 6.38418 13.8792 6.53393 14.0511C6.6088 14.1371 6.67125 14.2088 6.71506 14.259C6.73696 14.2841 6.7542 14.3039 6.766 14.3174L6.77121 14.3234L6.77951 14.3329C6.77631 14.3722 6.77017 14.3935 6.7578 14.4092C6.74555 14.4247 6.72549 14.4369 6.68831 14.4526L5.06782 12.6052C5.06697 12.6042 5.06605 12.6034 5.06506 12.6027L4.858 12.7664L4.86723 12.7766L5.0547 12.6167Z" fill="black"/>
<path d="M5.06346 12.6016L4.85701 12.7653L4.858 12.7664L5.06506 12.6027C5.06454 12.6023 5.06401 12.6019 5.06346 12.6016Z" fill="black"/>
</g>
<defs>
<clipPath id="clip0_1692_53988">
<rect x="2.04883" y="6.24561" width="19.9495" height="13.2997" rx="1" fill="white"/>
</clipPath>
</defs>
</svg>
