<svg width="25" height="25" viewBox="0 0 25 25" fill="none" xmlns="http://www.w3.org/2000/svg">
<g clip-path="url(#clip0_1692_54040)">
<path d="M2.04883 5.81006H21.9983V19.1097H2.04883V5.81006Z" fill="#FF0000"/>
<path d="M11.0212 11.5581C10.7735 11.4042 10.5107 11.2766 10.2404 11.1715C10.0077 11.5168 9.87256 11.9297 9.87256 12.3764C9.87256 12.5979 9.90634 12.8119 9.97016 13.0146C10.0828 12.7556 10.2254 12.5041 10.3981 12.2638C10.582 12.0011 10.7922 11.7646 11.0212 11.5581ZM10.3606 11.0138C10.6533 11.1152 10.9349 11.2466 11.2052 11.4005C11.2652 11.3479 11.329 11.3029 11.3891 11.2578C11.1038 11.1002 10.7997 10.9725 10.4882 10.8749C10.4431 10.92 10.3981 10.965 10.3606 11.0138ZM10.6233 10.7473C10.9612 10.8374 11.284 10.9613 11.588 11.1227C11.6594 11.0776 11.7307 11.0363 11.7983 10.9951C11.4754 10.8299 11.1338 10.7098 10.781 10.6234C10.7247 10.661 10.6721 10.7023 10.6233 10.7473ZM10.9424 10.5221C11.314 10.5971 11.6744 10.7173 12.0122 10.8824C12.3538 10.7173 12.7142 10.5971 13.0821 10.5221C12.7705 10.3381 12.4026 10.233 12.0122 10.233C11.6218 10.233 11.2577 10.3381 10.9424 10.5221ZM13.2435 10.6272C12.8906 10.7098 12.549 10.8336 12.2262 10.9951C12.2975 11.0363 12.3651 11.0776 12.4364 11.1227C12.7442 10.9613 13.067 10.8374 13.4011 10.7473C13.3523 10.7023 13.2998 10.661 13.2435 10.6272ZM13.5363 10.8787C13.2247 10.9725 12.9244 11.1002 12.6353 11.2578C12.6992 11.3029 12.763 11.3517 12.823 11.4005C13.0896 11.2466 13.3711 11.1152 13.6639 11.0138C13.6264 10.965 13.5851 10.92 13.5363 10.8787ZM13.784 11.1752C13.5137 11.2766 13.2547 11.4042 13.007 11.5581C13.236 11.7646 13.4424 12.0011 13.6301 12.2638C13.799 12.5041 13.9417 12.7556 14.058 13.0146C14.1181 12.8081 14.1519 12.5979 14.1519 12.3764C14.1519 11.9297 14.0167 11.5168 13.784 11.1752ZM13.6001 12.6467C13.3748 12.2826 13.1046 11.9598 12.8043 11.6857C12.7367 11.7345 12.6654 11.7833 12.6016 11.8321C13.1083 12.3051 13.5175 12.8982 13.7765 13.5889C13.8366 13.4988 13.8929 13.405 13.9379 13.3111C13.8441 13.0859 13.7315 12.8644 13.6001 12.6467ZM12.4101 11.6707C12.4777 11.6219 12.5453 11.5731 12.6166 11.5281C12.5565 11.4755 12.4927 11.4267 12.4289 11.3779C12.3576 11.423 12.2862 11.468 12.2149 11.5168H12.2187C12.2825 11.5656 12.3463 11.6182 12.4101 11.6707ZM12.0122 11.3704C12.0835 11.3254 12.1586 11.2803 12.2262 11.239C12.1549 11.194 12.0835 11.149 12.0122 11.1077C11.9409 11.149 11.8733 11.194 11.802 11.239C11.8733 11.2803 11.9409 11.3254 12.0122 11.3704ZM11.8095 11.5168C11.7382 11.468 11.6706 11.423 11.5993 11.3779C11.5355 11.4267 11.4717 11.4755 11.4079 11.5243C11.4792 11.5731 11.5468 11.6182 11.6143 11.667C11.6781 11.6144 11.7419 11.5656 11.8095 11.5168ZM12.0122 11.667C11.9484 11.7158 11.8846 11.7683 11.817 11.8246C11.8846 11.8772 11.9484 11.9335 12.0122 11.9898C12.076 11.9335 12.1398 11.8772 12.2074 11.8246C12.1436 11.7721 12.0798 11.7158 12.0122 11.667ZM12.0122 12.3689C11.7269 12.6767 11.4754 13.0296 11.2727 13.4238C11.1338 13.6865 11.025 13.9605 10.9424 14.2346C11.2577 14.411 11.6218 14.5161 12.0122 14.5161C12.4026 14.5161 12.7667 14.411 13.0821 14.2346C12.9995 13.9605 12.8906 13.6865 12.7517 13.4238C12.549 13.0296 12.3013 12.6767 12.0122 12.3689ZM10.7735 13.7916C11.0175 13.1685 11.3778 12.6242 11.8208 12.1737C11.757 12.1137 11.6931 12.0574 11.6256 11.9973C11.1113 12.4966 10.6984 13.1159 10.4469 13.8329C10.5182 13.9117 10.5933 13.9831 10.6759 14.0506C10.7059 13.9643 10.7397 13.878 10.7735 13.7916ZM12.2037 12.1737C12.6466 12.6242 13.007 13.1685 13.2547 13.7916C13.2885 13.878 13.3185 13.9643 13.3486 14.0506C13.4312 13.9831 13.51 13.9117 13.5813 13.8329C13.326 13.1159 12.9131 12.4966 12.3989 11.9973C12.3313 12.0574 12.2675 12.1137 12.2037 12.1737ZM10.2479 13.5889C10.507 12.8982 10.9161 12.3089 11.4266 11.8359C11.3591 11.7833 11.2915 11.7345 11.2202 11.6857C10.9199 11.9635 10.6496 12.2864 10.4244 12.6505C10.293 12.8644 10.1804 13.0859 10.0865 13.3111C10.1316 13.4087 10.1879 13.4988 10.2479 13.5889ZM12.0235 10.0604C13.3448 10.0604 14.4222 11.1377 14.4222 12.459C14.4222 13.7804 13.3448 14.8577 12.0235 14.8577C10.7021 14.8577 9.62481 13.7804 9.62481 12.459C9.62481 11.1377 10.7021 10.0604 12.0235 10.0604ZM13.0821 9.53483C13.0145 9.61366 12.9394 9.71501 12.8643 9.87642C12.8456 9.83513 12.8456 9.78633 12.8568 9.73378C12.8756 9.5611 12.9244 9.456 13.0145 9.3096C13.0445 9.25705 13.0745 9.212 13.0896 9.15569C13.1459 8.98677 13.1346 8.76155 13.0107 8.58512C13.0295 8.78407 12.9694 8.94924 12.9019 9.05059C12.8906 9.06936 12.8793 9.08062 12.8643 9.09563C12.793 9.16696 12.7142 9.23828 12.6128 9.40344C12.5565 9.49354 12.5002 9.60239 12.4477 9.77507C12.4251 9.73753 12.4176 9.69249 12.4214 9.63993C12.4139 9.4635 12.4439 9.35464 12.5077 9.19323C12.5302 9.13693 12.5528 9.08813 12.5603 9.02806C12.5866 8.85539 12.5415 8.63392 12.3914 8.48001C12.4402 8.67146 12.4101 8.84413 12.3576 8.95674C12.3463 8.97551 12.3388 8.99053 12.3275 9.00554C12.2675 9.08813 12.2037 9.17071 12.1248 9.34714C12.0873 9.44849 12.046 9.56486 12.0235 9.74129C11.9935 9.7075 11.9784 9.66246 11.9747 9.6099C11.9409 9.43723 11.9522 9.32461 11.9897 9.15569C12.0047 9.09939 12.0197 9.04683 12.016 8.98677C12.016 8.81035 11.9371 8.60013 11.7645 8.46875C11.8433 8.65269 11.8395 8.82911 11.8058 8.94924C11.7983 8.96425 11.7907 8.98302 11.7832 8.99803C11.7382 9.09188 11.6856 9.18197 11.6368 9.36966C11.6143 9.47477 11.5918 9.59864 11.5956 9.77507C11.5655 9.74504 11.543 9.70375 11.528 9.65495C11.4679 9.48603 11.4604 9.37717 11.4754 9.20074C11.4792 9.14068 11.4829 9.08813 11.4754 9.03182C11.4454 8.85539 11.3328 8.66019 11.1451 8.55884C11.2502 8.72776 11.2727 8.90419 11.2577 9.02431C11.254 9.04308 11.2502 9.06185 11.2464 9.08062C11.2164 9.17822 11.1789 9.27581 11.1601 9.47101C11.1526 9.57612 11.1488 9.69999 11.1826 9.87642C11.1451 9.85014 11.1188 9.81261 11.0963 9.76756C11.01 9.6099 10.9874 9.50104 10.9724 9.32837C10.9687 9.26831 10.9649 9.21575 10.9424 9.15945C10.8898 8.99053 10.7472 8.8141 10.5445 8.74653C10.6759 8.89293 10.7284 9.06185 10.7284 9.18572C10.7284 9.20449 10.7284 9.22326 10.7247 9.24203C10.7097 9.34338 10.6909 9.44849 10.7021 9.63993C10.7134 9.74504 10.7284 9.86891 10.7885 10.0378C10.7472 10.0191 10.7134 9.98528 10.6834 9.94399C10.5745 9.8051 10.537 9.69999 10.4957 9.53107C10.4807 9.47101 10.4694 9.42221 10.4394 9.36591C10.3606 9.212 10.1916 9.0581 9.98142 9.02056C10.1316 9.14819 10.2104 9.3096 10.2329 9.42972C10.2367 9.44849 10.2367 9.46726 10.2367 9.48603C10.2404 9.58738 10.2367 9.69249 10.278 9.88393C10.3042 9.98528 10.338 10.1054 10.4244 10.2593C10.3831 10.248 10.3455 10.2218 10.308 10.1842C10.1766 10.0641 10.1203 9.96651 10.0565 9.8051C10.034 9.74879 10.0115 9.69999 9.97767 9.65119C9.87256 9.5123 9.68487 9.38843 9.46715 9.38468C9.63983 9.48603 9.74118 9.62867 9.78247 9.74504C9.78622 9.76381 9.78998 9.78258 9.79373 9.80135C9.8125 9.9027 9.82376 10.0078 9.89508 10.188C9.93638 10.2856 9.99268 10.3982 10.1015 10.5371C10.0565 10.5333 10.0152 10.5108 9.97391 10.4808C9.82752 10.3832 9.75619 10.2931 9.66235 10.1467C9.63232 10.0941 9.60604 10.0491 9.561 10.0078C9.43712 9.88393 9.23066 9.79008 9.0167 9.82011C9.20063 9.89519 9.32451 10.0228 9.38457 10.1317C9.39208 10.1467 9.39958 10.1655 9.40709 10.1842C9.44087 10.2781 9.46715 10.3794 9.56475 10.5484C9.62106 10.6384 9.69238 10.7398 9.82376 10.8637C9.77872 10.8637 9.73367 10.8487 9.68862 10.8261C9.52721 10.7511 9.44463 10.676 9.33201 10.5446C9.29072 10.4996 9.25694 10.4583 9.20814 10.4207C9.0655 10.3194 8.84778 10.2593 8.64132 10.3231C8.83651 10.3682 8.97916 10.4733 9.05048 10.5709C9.0655 10.5859 9.073 10.6009 9.08051 10.6197C9.12931 10.7098 9.17436 10.8074 9.29823 10.9538C9.3658 11.0363 9.45214 11.1264 9.59853 11.2278C9.55724 11.2353 9.5122 11.2278 9.45964 11.209C9.29072 11.164 9.19688 11.1002 9.0655 10.9875C9.02045 10.95 8.97916 10.9162 8.92661 10.8862C8.76895 10.8074 8.54372 10.7848 8.34852 10.8787C8.54747 10.8899 8.70513 10.9763 8.79522 11.0589C8.80648 11.0739 8.81775 11.0851 8.82901 11.1039C8.89282 11.1827 8.94913 11.2728 9.09553 11.4005C9.17436 11.468 9.27571 11.5431 9.43712 11.6219C9.39583 11.6369 9.34703 11.6369 9.29823 11.6257C9.1218 11.6069 9.02045 11.5581 8.8703 11.468C8.81775 11.438 8.7727 11.408 8.71639 11.393C8.54747 11.3366 8.326 11.3479 8.14957 11.4718C8.34477 11.453 8.51369 11.5131 8.61504 11.5806C8.63006 11.5919 8.64507 11.6032 8.65633 11.6182C8.73141 11.6895 8.80273 11.7683 8.96414 11.8697C9.05423 11.926 9.16685 11.9861 9.33577 12.0349C9.29823 12.0574 9.25319 12.0649 9.20063 12.0649C9.0242 12.0686 8.91534 12.0386 8.75393 11.9748C8.69762 11.9523 8.64883 11.9297 8.58876 11.9222C8.41609 11.896 8.19462 11.941 8.04071 12.0912C8.23215 12.0424 8.40858 12.0724 8.51744 12.1249C8.53621 12.1362 8.55123 12.1437 8.56624 12.155C8.64883 12.215 8.73141 12.2788 8.91159 12.3577C9.00919 12.3952 9.12556 12.4365 9.30198 12.459C9.2682 12.4891 9.22315 12.5041 9.17436 12.5078C8.99793 12.5454 8.88907 12.5304 8.71639 12.4928C8.66009 12.4778 8.60753 12.4665 8.54747 12.4665C8.37104 12.4665 8.16083 12.5454 8.0332 12.718C8.21339 12.6392 8.38981 12.643 8.50994 12.6767C8.5287 12.6843 8.54372 12.6918 8.56249 12.6993C8.65258 12.7443 8.74642 12.7969 8.93411 12.8457C9.03547 12.8682 9.15934 12.8907 9.33577 12.887C9.30574 12.917 9.26445 12.9395 9.21565 12.9545C9.05048 13.0146 8.93787 13.0221 8.76519 13.0071C8.70513 13.0033 8.65258 12.9996 8.59252 13.0071C8.41984 13.0371 8.22465 13.1497 8.12329 13.3412C8.28846 13.2323 8.46489 13.2098 8.58876 13.2248C8.60753 13.2286 8.62255 13.2323 8.64132 13.2361C8.73892 13.2698 8.83651 13.3036 9.03171 13.3224C9.13682 13.3299 9.26069 13.3337 9.43712 13.2999C9.41084 13.3374 9.37331 13.3637 9.32826 13.3862C9.17436 13.4726 9.06174 13.4951 8.88907 13.5101C8.82901 13.5176 8.77645 13.5214 8.72015 13.5401C8.55123 13.5927 8.37855 13.7353 8.30723 13.938C8.45738 13.8066 8.6263 13.7578 8.75018 13.7541C8.76895 13.7541 8.78772 13.7541 8.80648 13.7578C8.90408 13.7729 9.00919 13.7916 9.20439 13.7804C9.30949 13.7729 9.43337 13.7541 9.59853 13.694C9.58352 13.7353 9.54973 13.7691 9.50469 13.7991C9.3658 13.908 9.26069 13.9455 9.09177 13.9868C9.03547 14.0018 8.98291 14.0131 8.93036 14.0431C8.7727 14.122 8.62255 14.2909 8.58501 14.5011C8.70889 14.3509 8.8703 14.2721 8.99042 14.2496C9.00919 14.2458 9.02796 14.2458 9.04673 14.2458C9.14808 14.2421 9.25694 14.2458 9.44463 14.2045C9.54598 14.1783 9.6661 14.1445 9.82376 14.0581C9.8125 14.0994 9.78247 14.1407 9.74493 14.1745C9.62481 14.3059 9.52721 14.3622 9.3658 14.426C9.31325 14.4523 9.26445 14.4711 9.21565 14.5048C9.073 14.61 8.94913 14.7976 8.94537 15.0154C9.04673 14.8427 9.19312 14.7413 9.30949 14.7C9.32826 14.6963 9.34328 14.6925 9.36205 14.6888C9.4634 14.67 9.5685 14.6587 9.74869 14.5874C9.84628 14.5461 9.9589 14.4898 10.1015 14.3847C10.094 14.426 10.0753 14.4673 10.0415 14.5086C9.94388 14.655 9.85755 14.7263 9.70739 14.8202C9.65859 14.8502 9.61355 14.8765 9.5685 14.9215C9.44463 15.0454 9.35454 15.2518 9.38457 15.4658C9.45589 15.2819 9.58352 15.158 9.69238 15.0979C9.71115 15.0904 9.72616 15.0829 9.74493 15.0754C9.84253 15.0454 9.94388 15.0154 10.109 14.9178C10.1991 14.8615 10.3005 14.7901 10.4244 14.6587C10.4281 14.7038 10.4131 14.7488 10.3868 14.7939C10.3118 14.9553 10.2367 15.0379 10.1053 15.1505C10.0603 15.1918 10.019 15.2256 9.98517 15.2744C9.88382 15.417 9.82376 15.6347 9.88758 15.8412C9.92887 15.646 10.034 15.5034 10.1353 15.432C10.1503 15.4208 10.1654 15.4095 10.1804 15.402C10.2705 15.3532 10.3681 15.3082 10.5182 15.1843C10.597 15.1167 10.6871 15.0304 10.7885 14.884C10.796 14.9253 10.7885 14.9741 10.7735 15.0229C10.7247 15.1918 10.6646 15.2856 10.5482 15.417C10.5107 15.4621 10.4769 15.5034 10.4506 15.5597C10.3718 15.7173 10.3455 15.9388 10.4394 16.134C10.4544 15.935 10.537 15.7774 10.6233 15.691C10.6346 15.676 10.6496 15.6648 10.6646 15.6535C10.7472 15.5897 10.8335 15.5334 10.9612 15.387C11.0287 15.3082 11.1038 15.2068 11.1826 15.0454C11.1976 15.0867 11.1976 15.1355 11.1901 15.1843C11.1676 15.3607 11.1226 15.4621 11.0325 15.6122C10.9987 15.6648 10.9724 15.7098 10.9537 15.7661C10.9011 15.935 10.9124 16.1603 11.0362 16.3367C11.0175 16.1377 11.0738 15.9688 11.1451 15.8675C11.1564 15.8525 11.1676 15.8374 11.1789 15.8262C11.2502 15.7511 11.329 15.6798 11.4341 15.5184C11.4867 15.4283 11.5468 15.3157 11.5956 15.1467C11.6181 15.1843 11.6256 15.2293 11.6256 15.2819C11.6331 15.4583 11.6031 15.5672 11.5355 15.7286C11.513 15.7849 11.4942 15.8337 11.4829 15.8937C11.4567 16.0664 11.5017 16.2879 11.6519 16.4418C11.6031 16.2504 11.6331 16.0739 11.6894 15.9651C11.6969 15.9463 11.7044 15.9313 11.7157 15.9163C11.7757 15.8337 11.8433 15.7511 11.9184 15.5709C11.9597 15.4733 12.001 15.357 12.0235 15.1805C12.0498 15.2143 12.0648 15.2594 12.0723 15.3082C12.1061 15.4846 12.0948 15.5934 12.0535 15.7661C12.0385 15.8224 12.0272 15.875 12.0272 15.935C12.0272 16.1115 12.1098 16.3217 12.2825 16.4493C12.2037 16.2691 12.2037 16.0927 12.2412 15.9726C12.245 15.9538 12.2525 15.9388 12.26 15.92C12.305 15.8299 12.3576 15.7361 12.4064 15.5484C12.4289 15.447 12.4514 15.3232 12.4477 15.1467C12.4814 15.1768 12.5002 15.2181 12.5152 15.2669C12.579 15.432 12.5828 15.5446 12.5715 15.7211C12.564 15.7774 12.5603 15.8299 12.5715 15.89C12.5978 16.0664 12.7104 16.2616 12.9019 16.363C12.7968 16.194 12.7705 16.0176 12.7893 15.8975C12.7893 15.8787 12.793 15.86 12.8005 15.8412C12.8305 15.7436 12.8681 15.646 12.8869 15.4508C12.8906 15.3457 12.8944 15.2218 12.8643 15.0454C12.8981 15.0717 12.9281 15.1092 12.9507 15.1543C13.037 15.3082 13.0595 15.4208 13.0745 15.5934C13.0783 15.6535 13.0821 15.7061 13.1008 15.7624C13.1571 15.9313 13.296 16.104 13.5025 16.1753C13.3711 16.0251 13.3185 15.8562 13.3148 15.7323C13.3148 15.7136 13.3148 15.6948 13.3185 15.676C13.3336 15.5784 13.3561 15.4733 13.3411 15.2781C13.3336 15.173 13.3148 15.0491 13.2585 14.884C13.296 14.9027 13.3298 14.9328 13.3598 14.9778C13.4687 15.1167 13.51 15.2218 13.5513 15.3907C13.5625 15.447 13.5776 15.4996 13.6038 15.5522C13.6864 15.7098 13.8516 15.86 14.0655 15.8975C13.9116 15.7736 13.8328 15.6122 13.8103 15.4921C13.8065 15.4733 13.8065 15.4546 13.8065 15.4358C13.8065 15.3344 13.8103 15.2293 13.769 15.0379C13.7427 14.9365 13.7052 14.8164 13.6188 14.6587C13.6639 14.67 13.7014 14.7 13.7352 14.7376C13.8666 14.8577 13.9229 14.9553 13.9905 15.1167C14.013 15.1693 14.0318 15.2181 14.0693 15.2669C14.1744 15.4095 14.3621 15.5334 14.5761 15.5371C14.4071 15.4358 14.3058 15.2894 14.2645 15.173C14.257 15.1543 14.2532 15.1392 14.2495 15.1205C14.2345 15.0191 14.2194 14.914 14.1481 14.7338C14.1068 14.6362 14.0543 14.5236 13.9454 14.3847C13.9905 14.3885 14.0318 14.4072 14.0731 14.441C14.2194 14.5386 14.2908 14.625 14.3809 14.7751C14.4109 14.8239 14.4409 14.8727 14.4822 14.914C14.6061 15.0379 14.8125 15.128 15.0265 15.0979C14.8426 15.0266 14.7187 14.899 14.6624 14.7901C14.6511 14.7714 14.6436 14.7563 14.6399 14.7376C14.6061 14.64 14.5761 14.5386 14.4785 14.3735C14.4222 14.2834 14.3508 14.182 14.2232 14.0581C14.2645 14.0581 14.3095 14.0694 14.3583 14.0957C14.516 14.1708 14.6023 14.2458 14.7149 14.3772C14.7525 14.4223 14.7863 14.4636 14.8351 14.4973C14.9777 14.6024 15.1954 14.6588 15.4019 14.5987C15.2105 14.5536 15.0678 14.4485 14.9927 14.3472C14.9815 14.3322 14.9702 14.3172 14.9627 14.3021C14.9139 14.212 14.8726 14.1145 14.7487 13.9643C14.6774 13.8855 14.5911 13.7954 14.4447 13.694C14.4897 13.6865 14.5348 13.694 14.5836 13.709C14.7525 13.7578 14.8463 13.8217 14.9815 13.9343C15.0265 13.9718 15.0678 14.0056 15.1204 14.0319C15.278 14.1107 15.4995 14.137 15.6947 14.0431C15.4957 14.0281 15.3418 13.9455 15.2517 13.8592C15.2367 13.8479 15.2255 13.8329 15.2142 13.8179C15.1541 13.7353 15.0941 13.649 14.9514 13.5214C14.8689 13.4538 14.7675 13.3787 14.6098 13.2999C14.6511 13.2849 14.6962 13.2849 14.7487 13.2924C14.9214 13.3149 15.0265 13.3599 15.1729 13.4538C15.2255 13.4838 15.2705 13.5101 15.3268 13.5289C15.4957 13.5814 15.721 13.5702 15.8974 13.4463C15.6984 13.465 15.5333 13.4087 15.4319 13.3374C15.4169 13.3262 15.4019 13.3149 15.3869 13.3036C15.3156 13.2323 15.2442 13.1535 15.0791 13.0484C14.989 12.9958 14.8801 12.9358 14.7074 12.887C14.745 12.8644 14.7938 12.8569 14.8426 12.8569C15.0228 12.8494 15.1316 12.8795 15.2893 12.947C15.3456 12.9695 15.3944 12.9883 15.4544 12.9996C15.6271 13.0259 15.8486 12.9808 16.0025 12.8307C15.8111 12.8795 15.6384 12.8494 15.5258 12.7931C15.5108 12.7856 15.492 12.7781 15.477 12.7668C15.3944 12.7068 15.3118 12.643 15.1354 12.5641C15.0378 12.5266 14.9177 12.4853 14.7412 12.459C14.775 12.4328 14.8201 12.4177 14.8726 12.4102C15.0453 12.3764 15.1579 12.3877 15.3268 12.429C15.3831 12.444 15.4357 12.4553 15.4957 12.4553C15.6722 12.4553 15.8824 12.3727 16.0138 12.2038C15.8298 12.2788 15.6534 12.2788 15.537 12.2413C15.5183 12.2376 15.4995 12.23 15.4845 12.2225C15.3906 12.1775 15.3005 12.1249 15.1129 12.0761C15.0077 12.0536 14.8876 12.0311 14.7074 12.0349C14.7375 12.0011 14.7788 11.9823 14.8276 11.9673C14.9965 11.9035 15.1091 11.8997 15.2818 11.911C15.3418 11.9185 15.3944 11.9222 15.4544 11.911C15.6271 11.8847 15.8223 11.7721 15.9237 11.5806C15.7547 11.6857 15.5821 11.712 15.4582 11.697C15.4394 11.6933 15.4207 11.6895 15.4019 11.682C15.3043 11.652 15.2067 11.6144 15.0153 11.5957C14.9101 11.5919 14.7825 11.5881 14.6098 11.6219C14.6324 11.5844 14.6699 11.5544 14.7187 11.5318C14.8726 11.4455 14.9815 11.423 15.1541 11.408C15.2142 11.4042 15.2668 11.4005 15.3231 11.3817C15.492 11.3254 15.6684 11.1865 15.736 10.98C15.5896 11.1114 15.4207 11.164 15.2968 11.1677C15.278 11.1677 15.2592 11.1677 15.2405 11.164C15.1391 11.149 15.034 11.1264 14.8426 11.1414C14.7375 11.149 14.6136 11.1677 14.4447 11.2278C14.4634 11.1865 14.4972 11.1527 14.5385 11.1227C14.6774 11.0138 14.7825 10.9725 14.9514 10.9312C15.0115 10.92 15.0603 10.905 15.1166 10.8787C15.2705 10.7961 15.4244 10.6309 15.462 10.417C15.3343 10.5709 15.1767 10.6497 15.0528 10.6722C15.034 10.676 15.0153 10.676 14.9965 10.676C14.8951 10.676 14.79 10.6722 14.6023 10.7135C14.4972 10.7398 14.3771 10.7773 14.2232 10.8637C14.2345 10.8186 14.2607 10.7811 14.2983 10.7473C14.4184 10.6159 14.516 10.5596 14.6774 10.492C14.7337 10.4695 14.7825 10.4508 14.8313 10.4132C14.9702 10.3081 15.0941 10.1204 15.0978 9.90645C14.9965 10.0754 14.8538 10.1767 14.7375 10.218C14.7187 10.2255 14.6999 10.2293 14.6812 10.233C14.5798 10.2518 14.4747 10.2631 14.2945 10.3344C14.2007 10.3757 14.0881 10.4282 13.9454 10.5371C13.9492 10.4958 13.9717 10.4508 14.0017 10.4095C14.0993 10.2631 14.1894 10.1917 14.3358 10.1016C14.3884 10.0716 14.4334 10.0416 14.4747 10.0003C14.5986 9.87642 14.6924 9.66996 14.6624 9.456C14.5873 9.63993 14.4597 9.76381 14.3508 9.82387C14.3358 9.83138 14.317 9.83888 14.302 9.84264C14.2044 9.87642 14.1031 9.90645 13.9342 10.0041C13.8441 10.0604 13.7427 10.1317 13.6188 10.2593C13.6188 10.218 13.6339 10.173 13.6564 10.1279C13.7315 9.96651 13.8065 9.88393 13.9379 9.76756C13.983 9.73002 14.0243 9.69624 14.0618 9.64744C14.1631 9.5048 14.2232 9.28708 14.1594 9.08062C14.1143 9.27206 14.0092 9.41471 13.9116 9.48978C13.8966 9.50104 13.8816 9.5123 13.8628 9.51981C13.7727 9.56861 13.6752 9.6099 13.5288 9.73378C13.4462 9.8051 13.3561 9.89144 13.2585 10.0378C13.2472 9.99654 13.2547 9.94774 13.2735 9.89894C13.3223 9.73002 13.3824 9.63618 13.495 9.50104C13.5325 9.456 13.57 9.41846 13.5963 9.36215C13.6751 9.20449 13.6977 8.98302 13.6038 8.78782C13.5926 8.98677 13.51 9.14068 13.4236 9.23077C13.4086 9.24578 13.3974 9.25705 13.3824 9.26831C13.2998 9.32837 13.2097 9.38843 13.0821 9.53483Z" fill="#FFFF00"/>
</g>
<defs>
<clipPath id="clip0_1692_54040">
<rect x="2.04688" y="5.81006" width="19.9551" height="13.2998" rx="1" fill="white"/>
</clipPath>
</defs>
</svg>
