<svg width="25" height="25" viewBox="0 0 25 25" fill="none" xmlns="http://www.w3.org/2000/svg">
<g clip-path="url(#clip0_1692_53996)">
<path d="M2.04883 6.24561H21.9983V19.5453H2.04883V6.24561Z" fill="#DA2032"/>
<path d="M8.69727 6.24561H15.3471V19.5453H8.69727V6.24561Z" fill="#0066B3"/>
<path d="M6.28589 11.5544C6.13183 11.9064 5.78047 12.1523 5.37167 12.1523C4.96288 12.1523 4.61152 11.9064 4.45746 11.5544C4.45737 11.5597 4.45732 11.5651 4.45732 11.5704C4.45732 12.0754 4.86669 12.4848 5.37167 12.4848C5.87666 12.4848 6.28603 12.0754 6.28603 11.5704C6.28603 11.5651 6.28598 11.5597 6.28589 11.5544Z" fill="#FFD900"/>
<path d="M5.37167 11.9861C5.73893 11.9861 6.03666 11.6883 6.03666 11.3211C6.03666 10.9538 5.73893 10.6561 5.37167 10.6561C5.00441 10.6561 4.70669 10.9538 4.70669 11.3211C4.70669 11.6883 5.00441 11.9861 5.37167 11.9861Z" fill="#FFD900"/>
<path d="M5.44156 9.15988C5.35893 9.19736 5.32806 9.26496 5.32141 9.33229C5.31725 9.38898 5.34227 9.45283 5.34477 9.50828C5.34477 9.60369 5.24605 9.63511 5.24605 9.77128C5.24605 9.81808 5.28927 9.86965 5.28927 9.99111C5.28179 10.0549 5.24622 10.0692 5.20615 10.0742C5.18411 10.0742 5.16296 10.0655 5.14737 10.0499C5.13179 10.0343 5.12303 10.0132 5.12303 9.99111C5.12309 9.9698 5.13133 9.94932 5.14605 9.93392C5.14868 9.93095 5.15151 9.92817 5.15453 9.9256C5.17348 9.90649 5.1995 9.89909 5.19934 9.84863C5.19934 9.8227 5.18254 9.79909 5.1665 9.75317C5.15137 9.70862 5.16235 9.63414 5.19834 9.59017C5.14015 9.61261 5.10429 9.66839 5.08601 9.71843C5.06672 9.77994 5.08351 9.81537 5.05708 9.86649C5.04095 9.89957 5.02175 9.91329 5.00355 9.94088C4.98202 9.97097 4.95675 10.0413 4.95675 10.074C4.95675 10.1842 5.00054 10.29 5.07848 10.3679C5.15642 10.4458 5.26214 10.4896 5.37236 10.4896C5.48259 10.4896 5.58831 10.4458 5.66625 10.3679C5.74419 10.29 5.78798 10.1842 5.78798 10.074C5.78798 10.0413 5.76304 9.97097 5.74151 9.94088C5.72331 9.91329 5.70378 9.89957 5.68765 9.86649C5.66155 9.81537 5.67834 9.77994 5.65906 9.71843C5.64077 9.66839 5.60486 9.61263 5.54671 9.59017C5.5827 9.63414 5.59367 9.70862 5.57854 9.75317C5.56242 9.79906 5.54546 9.82267 5.54546 9.84863C5.54546 9.89909 5.57131 9.90649 5.59026 9.9256C5.59328 9.92817 5.59612 9.93095 5.59874 9.93392C5.61346 9.94932 5.62171 9.9698 5.62177 9.99111C5.62177 10.0132 5.61301 10.0343 5.59742 10.0499C5.58183 10.0655 5.56069 10.0742 5.53864 10.0742C5.49268 10.0684 5.45968 10.047 5.45552 9.99111C5.45552 9.83108 5.52401 9.82087 5.52401 9.70245C5.52401 9.53336 5.37238 9.45332 5.37238 9.3297C5.37238 9.2878 5.38219 9.2164 5.44154 9.15967L5.44156 9.15988ZM3.54297 12.651H4.3742V16.6409H3.54297V12.651ZM6.36915 12.651H7.20038V16.6409H6.36915V12.651ZM4.54044 12.651H6.2029L5.37167 13.1498L4.54044 12.651ZM4.54044 13.316H6.2029V13.6485H4.54044V13.316ZM4.54044 15.6435H6.2029V15.976H4.54044V15.6435ZM4.54044 16.1422H6.2029L5.37167 16.6409L4.54044 16.1422Z" fill="#FFD900"/>
<path fill-rule="evenodd" clip-rule="evenodd" d="M5.37167 13.8148C4.9126 13.8148 4.54044 14.1869 4.54044 14.646C4.54044 14.9623 4.71708 15.2373 4.97708 15.3778C4.91521 15.2939 4.88125 15.192 4.88125 15.0865C4.88125 14.9565 4.93292 14.8317 5.02489 14.7398C5.11686 14.6478 5.24161 14.5961 5.37167 14.5961C5.47529 14.5961 5.57466 14.555 5.64793 14.4817C5.72119 14.4084 5.76235 14.3091 5.76235 14.2054C5.76235 14.1018 5.72119 14.0025 5.64793 13.9292C5.57466 13.8559 5.47529 13.8148 5.37167 13.8148ZM5.37167 14.3717C5.46349 14.3717 5.53792 14.2973 5.53792 14.2054C5.53792 14.1136 5.46349 14.0392 5.37167 14.0392C5.27986 14.0392 5.20543 14.1136 5.20543 14.2054C5.20543 14.2973 5.27986 14.3717 5.37167 14.3717Z" fill="#FFD900"/>
<path fill-rule="evenodd" clip-rule="evenodd" d="M5.37167 15.4772C5.83075 15.4772 6.2029 15.1051 6.2029 14.646C6.2029 14.3297 6.02627 14.0547 5.76627 13.9142C5.82814 13.998 5.8621 14.1 5.8621 14.2054C5.8621 14.3355 5.81043 14.4603 5.71846 14.5522C5.62649 14.6442 5.50174 14.6959 5.37167 14.6959C5.26806 14.6959 5.16869 14.737 5.09542 14.8103C5.02216 14.8836 4.981 14.9829 4.981 15.0865C4.981 15.1902 5.02216 15.2895 5.09542 15.3628C5.16869 15.4361 5.26806 15.4772 5.37167 15.4772ZM5.37167 15.2528C5.46349 15.2528 5.53792 15.1784 5.53792 15.0865C5.53792 14.9947 5.46349 14.9203 5.37167 14.9203C5.27986 14.9203 5.20543 14.9947 5.20543 15.0865C5.20543 15.1784 5.27986 15.2528 5.37167 15.2528Z" fill="#FFD900"/>
</g>
<defs>
<clipPath id="clip0_1692_53996">
<rect x="2.04883" y="6.24561" width="19.9495" height="13.2997" rx="1" fill="white"/>
</clipPath>
</defs>
</svg>
