<svg width="24" height="24" viewBox="0 0 24 24" fill="none" xmlns="http://www.w3.org/2000/svg">
<path d="M21.5689 11.223C21.7264 11.5066 21.8052 11.6484 21.8361 11.7985C21.8634 11.9315 21.8634 12.0685 21.8361 12.2015C21.8052 12.3516 21.7264 12.4934 21.5689 12.777L17.4578 20.177C17.2914 20.4766 17.2082 20.6263 17.0898 20.7354C16.9851 20.8318 16.8611 20.9049 16.7259 20.9495C16.5731 21 16.4018 21 16.0591 21H7.94202C7.59937 21 7.42805 21 7.27525 20.9495C7.14008 20.9049 7.016 20.8318 6.91131 20.7354C6.79297 20.6263 6.70977 20.4766 6.54337 20.177L2.43226 12.777C2.2747 12.4934 2.19592 12.3516 2.16503 12.2015C2.1377 12.0685 2.1377 11.9315 2.16503 11.7985C2.19592 11.6484 2.2747 11.5066 2.43226 11.223L6.54337 3.82297C6.70977 3.52345 6.79297 3.37369 6.91131 3.26463C7.016 3.16816 7.14008 3.09515 7.27526 3.05048C7.42805 3 7.59937 3 7.94202 3L16.0591 3C16.4018 3 16.5731 3 16.7259 3.05049C16.8611 3.09515 16.9851 3.16816 17.0898 3.26463C17.2082 3.37369 17.2914 3.52345 17.4578 3.82297L21.5689 11.223Z" stroke="#1C1D20" stroke-width="1.5" stroke-linecap="round" stroke-linejoin="round"/>
</svg>
