<svg width="24" height="24" viewBox="0 0 24 24" fill="none" xmlns="http://www.w3.org/2000/svg">
<path d="M11.2906 3.36589C11.5203 2.92379 11.6351 2.70274 11.7891 2.6309C11.9231 2.56835 12.078 2.56835 12.212 2.6309C12.3659 2.70274 12.4808 2.92379 12.7104 3.36589L14.2235 6.27816C14.3225 6.46885 14.3721 6.5642 14.4464 6.62754C14.512 6.68345 14.5909 6.72146 14.6755 6.73788C14.7714 6.75648 14.8768 6.73576 15.0876 6.69433L18.3079 6.06148C18.7968 5.96541 19.0412 5.91738 19.1933 5.99293C19.3258 6.05872 19.4223 6.17978 19.457 6.32358C19.4968 6.48871 19.3956 6.71632 19.1931 7.17154L17.8596 10.1702C17.7723 10.3666 17.7286 10.4648 17.7254 10.5624C17.7226 10.6485 17.7421 10.7339 17.782 10.8103C17.8272 10.8968 17.9092 10.9663 18.073 11.1054L20.5756 13.2285C20.9555 13.5508 21.1455 13.7119 21.1812 13.878C21.2124 14.0226 21.1779 14.1735 21.0871 14.2903C20.9828 14.4244 20.7418 14.4872 20.2597 14.6127L17.0837 15.4398C16.8758 15.4939 16.7718 15.521 16.6935 15.5793C16.6244 15.6308 16.5698 15.6993 16.5349 15.7782C16.4955 15.8675 16.4922 15.9749 16.4857 16.1897L16.3861 19.47C16.371 19.968 16.3634 20.217 16.2559 20.3485C16.1623 20.463 16.0228 20.5302 15.8749 20.532C15.705 20.534 15.5056 20.3847 15.1069 20.086L12.4801 18.1186C12.3081 17.9898 12.2221 17.9254 12.1277 17.9006C12.0443 17.8787 11.9567 17.8787 11.8734 17.9006C11.7789 17.9254 11.6929 17.9898 11.521 18.1186L8.89418 20.086C8.49542 20.3847 8.29604 20.534 8.12619 20.532C7.97829 20.5302 7.83877 20.463 7.74515 20.3485C7.63764 20.217 7.63008 19.968 7.61496 19.47L7.51537 16.1897C7.50884 15.9749 7.50558 15.8675 7.46612 15.7782C7.43129 15.6993 7.37667 15.6308 7.30756 15.5793C7.22927 15.521 7.12529 15.4939 6.91734 15.4398L3.7414 14.6127C3.25928 14.4872 3.01821 14.4244 2.91393 14.2903C2.82312 14.1735 2.78866 14.0226 2.81982 13.878C2.8556 13.7119 3.04556 13.5508 3.42546 13.2285L5.92804 11.1054C6.0919 10.9663 6.17384 10.8968 6.21906 10.8103C6.25898 10.7339 6.27847 10.6485 6.27565 10.5624C6.27245 10.4648 6.22879 10.3666 6.14147 10.1702L4.80792 7.17154C4.60548 6.71632 4.50426 6.48871 4.54406 6.32358C4.57873 6.17978 4.67527 6.05872 4.80775 5.99293C4.95988 5.91738 5.20431 5.96541 5.69316 6.06148L8.91342 6.69433C9.12428 6.73576 9.22971 6.75648 9.32556 6.73788C9.41017 6.72146 9.4891 6.68345 9.55469 6.62754C9.629 6.5642 9.67853 6.46885 9.7776 6.27816L11.2906 3.36589Z" stroke="#1C1D20" stroke-width="1.5" stroke-linecap="round" stroke-linejoin="round"/>
</svg>
