<svg width="24" height="24" viewBox="0 0 24 24" fill="none" xmlns="http://www.w3.org/2000/svg">
<path d="M2.38823 18.0986L10.6131 3.89195C11.0677 3.10679 11.295 2.71421 11.5915 2.58235C11.8502 2.46734 12.1454 2.46734 12.4041 2.58235C12.7006 2.71421 12.9279 3.10679 13.3825 3.89195L21.6074 18.0986C22.0636 18.8866 22.2917 19.2806 22.258 19.6039C22.2286 19.886 22.0808 20.1423 21.8514 20.309C21.5885 20.5002 21.1332 20.5002 20.2227 20.5002H3.77292C2.86239 20.5002 2.40713 20.5002 2.14417 20.309C1.91482 20.1423 1.76705 19.886 1.73764 19.6039C1.70393 19.2806 1.93203 18.8866 2.38823 18.0986Z" stroke="#1C1D20" stroke-width="1.5" stroke-linecap="round" stroke-linejoin="round"/>
</svg>
