<svg width="24" height="25" viewBox="0 0 24 25" fill="none" xmlns="http://www.w3.org/2000/svg">
<g clip-path="url(#clip0_1692_54056)">
<path d="M21.9749 5.76855H2.02539V19.0682H21.9749V5.76855Z" fill="#DA0000"/>
<path d="M21.9749 5.76855H2.02539V14.635H21.9749V5.76855Z" fill="white"/>
<path d="M21.9749 5.76855H2.02539V10.7559H21.9749V5.76855Z" fill="#239F40"/>
<path fill-rule="evenodd" clip-rule="evenodd" d="M3.53403 10.144H3.97735V10.6317H3.53403V10.543L3.46753 10.6317H3.17937V10.3657H3.53403V10.144ZM3.62269 10.4248L3.66702 10.3657H3.62269V10.2327H3.71136V10.543H3.62269V10.4248ZM3.80002 10.543H3.88869V10.2327H3.80002V10.543ZM3.4897 10.4544H3.26803V10.543H3.4232L3.4897 10.4544ZM5.30732 10.144H5.75064V10.6317H5.30732V10.543L5.24082 10.6317H4.95266V10.3657H5.30732V10.144ZM5.39598 10.4248L5.44031 10.3657H5.39598V10.2327H5.48465V10.543H5.39598V10.4248ZM5.57331 10.543H5.66198V10.2327H5.57331V10.543ZM5.26299 10.4544H5.04132V10.543H5.19649L5.26299 10.4544ZM7.08061 10.144H7.52393V10.6317H7.08061V10.543L7.01411 10.6317H6.72595V10.3657H7.08061V10.144ZM7.16927 10.4248L7.21361 10.3657H7.16927V10.2327H7.25794V10.543H7.16927V10.4248ZM7.3466 10.543H7.43527V10.2327H7.3466V10.543ZM7.03628 10.4544H6.81461V10.543H6.96978L7.03628 10.4544ZM8.8539 10.144H9.29722V10.6317H8.8539V10.543L8.7874 10.6317H8.49924V10.3657H8.8539V10.144ZM8.94256 10.4248L8.9869 10.3657H8.94256V10.2327H9.03123V10.543H8.94256V10.4248ZM9.11989 10.543H9.20856V10.2327H9.11989V10.543ZM8.80957 10.4544H8.5879V10.543H8.74307L8.80957 10.4544ZM10.6272 10.144H11.0705V10.6317H10.6272V10.543L10.5607 10.6317H10.2725V10.3657H10.6272V10.144ZM10.7159 10.4248L10.7602 10.3657H10.7159V10.2327H10.8045V10.543H10.7159V10.4248ZM10.8932 10.543H10.9818V10.2327H10.8932V10.543ZM10.5829 10.4544H10.3612V10.543H10.5164L10.5829 10.4544ZM12.4005 10.144H12.8438V10.6317H12.4005V10.543L12.334 10.6317H12.0458V10.3657H12.4005V10.144ZM12.4891 10.4248L12.5335 10.3657H12.4891V10.2327H12.5778V10.543H12.4891V10.4248ZM12.6665 10.543H12.7551V10.2327H12.6665V10.543ZM12.3561 10.4544H12.1345V10.543H12.2896L12.3561 10.4544ZM14.1738 10.144H14.6171V10.6317H14.1738V10.543L14.1073 10.6317H13.8191V10.3657H14.1738V10.144ZM14.2624 10.4248L14.3068 10.3657H14.2624V10.2327H14.3511V10.543H14.2624V10.4248ZM14.4398 10.543H14.5284V10.2327H14.4398V10.543ZM14.1294 10.4544H13.9078V10.543H14.0629L14.1294 10.4544ZM15.9471 10.144H16.3904V10.6317H15.9471V10.543L15.8806 10.6317H15.5924V10.3657H15.9471V10.144ZM16.0357 10.4248L16.0801 10.3657H16.0357V10.2327H16.1244V10.543H16.0357V10.4248ZM16.2131 10.543H16.3017V10.2327H16.2131V10.543ZM15.9027 10.4544H15.6811V10.543H15.8362L15.9027 10.4544ZM17.7204 10.144H18.1637V10.6317H17.7204V10.543L17.6539 10.6317H17.3657V10.3657H17.7204V10.144ZM17.809 10.4248L17.8533 10.3657H17.809V10.2327H17.8977V10.543H17.809V10.4248ZM17.9863 10.543H18.075V10.2327H17.9863V10.543ZM17.676 10.4544H17.4544V10.543H17.6095L17.676 10.4544ZM19.4936 10.144H19.937V10.6317H19.4936V10.543L19.4271 10.6317H19.139V10.3657H19.4936V10.144ZM19.5823 10.4248L19.6266 10.3657H19.5823V10.2327H19.671V10.543H19.5823V10.4248ZM19.7596 10.543H19.8483V10.2327H19.7596V10.543ZM19.4493 10.4544H19.2276V10.543H19.3828L19.4493 10.4544ZM21.2669 10.144H21.7103V10.6317H21.2669V10.543L21.2004 10.6317H20.9123V10.3657H21.2669V10.144ZM21.3556 10.4248L21.3999 10.3657H21.3556V10.2327H21.4443V10.543H21.3556V10.4248ZM21.5329 10.543H21.6216V10.2327H21.5329V10.543ZM21.2226 10.4544H21.0009V10.543H21.1561L21.2226 10.4544ZM3.44536 10.277H2.29272V10.1884H3.44536V10.277ZM5.21865 10.277H4.06602V10.1884H5.21865V10.277ZM6.99194 10.277H5.83931V10.1884H6.99194V10.277ZM8.76523 10.277H7.6126V10.1884H8.76523V10.277ZM10.5385 10.277H9.38589V10.1884H10.5385V10.277ZM12.3118 10.277H11.1592V10.1884H12.3118V10.277ZM14.0851 10.277H12.9325V10.1884H14.0851V10.277ZM15.8584 10.277H14.7058V10.1884H15.8584V10.277ZM17.6317 10.277H16.479V10.1884H17.6317V10.277ZM19.405 10.277H18.2523V10.1884H19.405V10.277ZM21.1783 10.277H20.0256V10.1884H21.1783V10.277ZM2.29272 10.3657H2.73605V10.4016L2.81511 10.3657H3.09071V10.6317H2.64738V10.5393L2.55872 10.5796V10.6317H2.47005V10.6199L2.29272 10.7005V10.3657ZM2.62005 10.4544H2.38139V10.5628L2.62005 10.4544ZM2.73605 10.499V10.543H3.00204V10.4544H2.83431L2.73605 10.499ZM4.06602 10.3657H4.50934V10.4016L4.5884 10.3657H4.864V10.6317H4.42067V10.5393L4.33201 10.5796V10.6317H4.24334V10.6199L4.06602 10.7005V10.3657ZM4.39334 10.4544H4.15468V10.5628L4.39334 10.4544ZM4.50934 10.499V10.543H4.77533V10.4544H4.6076L4.50934 10.499ZM5.83931 10.3657H6.28263V10.4016L6.36169 10.3657H6.63729V10.6317H6.19396V10.5393L6.1053 10.5796V10.6317H6.01663V10.6199L5.83931 10.7005V10.3657ZM6.16663 10.4544H5.92797V10.5628L6.16663 10.4544ZM6.28263 10.499V10.543H6.54862V10.4544H6.3809L6.28263 10.499ZM7.6126 10.3657H8.05592V10.4016L8.13498 10.3657H8.41058V10.6317H7.96725V10.5393L7.87859 10.5796V10.6317H7.78992V10.6199L7.6126 10.7005V10.3657ZM7.93992 10.4544H7.70126V10.5628L7.93992 10.4544ZM8.05592 10.499V10.543H8.32191V10.4544H8.15419L8.05592 10.499ZM9.38589 10.3657H9.82921V10.4016L9.90827 10.3657H10.1839V10.6317H9.74054V10.5393L9.65188 10.5796V10.6317H9.56321V10.6199L9.38589 10.7005V10.3657ZM9.71321 10.4544H9.47455V10.5628L9.71321 10.4544ZM9.82921 10.499V10.543H10.0952V10.4544H9.92748L9.82921 10.499ZM11.1592 10.3657H11.6025V10.4016L11.6816 10.3657H11.9572V10.6317H11.5138V10.5393L11.4252 10.5796V10.6317H11.3365V10.6199L11.1592 10.7005V10.3657ZM11.4865 10.4544H11.2478V10.5628L11.4865 10.4544ZM11.6025 10.499V10.543H11.8685V10.4544H11.7008L11.6025 10.499ZM12.9325 10.3657H13.3758V10.4016L13.4549 10.3657H13.7304V10.6317H13.2871V10.5393L13.1985 10.5796V10.6317H13.1098V10.6199L12.9325 10.7005V10.3657ZM13.2598 10.4544H13.0211V10.5628L13.2598 10.4544ZM13.3758 10.499V10.543H13.6418V10.4544H13.4741L13.3758 10.499ZM14.7058 10.3657H15.1491V10.4016L15.2281 10.3657H15.5037V10.6317H15.0604V10.5393L14.9718 10.5796V10.6317H14.8831V10.6199L14.7058 10.7005V10.3657ZM15.0331 10.4544H14.7944V10.5628L15.0331 10.4544ZM15.1491 10.499V10.543H15.4151V10.4544H15.2473L15.1491 10.499ZM16.479 10.3657H16.9224V10.4016L17.0014 10.3657H17.277V10.6317H16.8337V10.5393L16.745 10.5796V10.6317H16.6564V10.6199L16.479 10.7005V10.3657ZM16.8064 10.4544H16.5677V10.5628L16.8064 10.4544ZM16.9224 10.499V10.543H17.1884V10.4544H17.0206L16.9224 10.499ZM18.2523 10.3657H18.6957V10.4016L18.7747 10.3657H19.0503V10.6317H18.607V10.5393L18.5183 10.5796V10.6317H18.4297V10.6199L18.2523 10.7005V10.3657ZM18.5797 10.4544H18.341V10.5628L18.5797 10.4544ZM18.6957 10.499V10.543H18.9617V10.4544H18.7939L18.6957 10.499ZM20.0256 10.3657H20.469V10.4016L20.548 10.3657H20.8236V10.6317H20.3803V10.5393L20.2916 10.5796V10.6317H20.203V10.6199L20.0256 10.7005V10.3657ZM20.353 10.4544H20.1143V10.5628L20.353 10.4544ZM20.469 10.499V10.543H20.7349V10.4544H20.5672L20.469 10.499ZM3.53403 14.7419H3.97735V15.2296H3.53403V15.1409L3.46753 15.2296H3.17937V14.9636H3.53403V14.7419ZM3.62269 15.0227L3.66702 14.9636H3.62269V14.8306H3.71136V15.1409H3.62269V15.0227ZM3.80002 15.1409H3.88869V14.8306H3.80002V15.1409ZM3.4897 15.0523H3.26803V15.1409H3.4232L3.4897 15.0523ZM5.30732 14.7419H5.75064V15.2296H5.30732V15.1409L5.24082 15.2296H4.95266V14.9636H5.30732V14.7419ZM5.39598 15.0227L5.44032 14.9636H5.39598V14.8306H5.48465V15.1409H5.39598V15.0227ZM5.57331 15.1409H5.66198V14.8306H5.57331V15.1409ZM5.26299 15.0523H5.04132V15.1409H5.19649L5.26299 15.0523ZM7.08061 14.7419H7.52393V15.2296H7.08061V15.1409L7.01411 15.2296H6.72595V14.9636H7.08061V14.7419ZM7.16927 15.0227L7.21361 14.9636H7.16927V14.8306H7.25794V15.1409H7.16927V15.0227ZM7.3466 15.1409H7.43527V14.8306H7.3466V15.1409ZM7.03628 15.0523H6.81461V15.1409H6.96978L7.03628 15.0523ZM8.8539 14.7419H9.29722V15.2296H8.8539V15.1409L8.7874 15.2296H8.49924V14.9636H8.8539V14.7419ZM8.94256 15.0227L8.9869 14.9636H8.94256V14.8306H9.03123V15.1409H8.94256V15.0227ZM9.11989 15.1409H9.20856V14.8306H9.11989V15.1409ZM8.80957 15.0523H8.5879V15.1409H8.74307L8.80957 15.0523ZM10.6272 14.7419H11.0705V15.2296H10.6272V15.1409L10.5607 15.2296H10.2725V14.9636H10.6272V14.7419ZM10.7159 15.0227L10.7602 14.9636H10.7159V14.8306H10.8045V15.1409H10.7159V15.0227ZM10.8932 15.1409H10.9818V14.8306H10.8932V15.1409ZM10.5829 15.0523H10.3612V15.1409H10.5164L10.5829 15.0523ZM12.4005 14.7419H12.8438V15.2296H12.4005V15.1409L12.334 15.2296H12.0458V14.9636H12.4005V14.7419ZM12.4891 15.0227L12.5335 14.9636H12.4891V14.8306H12.5778V15.1409H12.4891V15.0227ZM12.6665 15.1409H12.7551V14.8306H12.6665V15.1409ZM12.3561 15.0523H12.1345V15.1409H12.2896L12.3561 15.0523ZM14.1738 14.7419H14.6171V15.2296H14.1738V15.1409L14.1073 15.2296H13.8191V14.9636H14.1738V14.7419ZM14.2624 15.0227L14.3068 14.9636H14.2624V14.8306H14.3511V15.1409H14.2624V15.0227ZM14.4398 15.1409H14.5284V14.8306H14.4398V15.1409ZM14.1294 15.0523H13.9078V15.1409H14.0629L14.1294 15.0523ZM15.9471 14.7419H16.3904V15.2296H15.9471V15.1409L15.8806 15.2296H15.5924V14.9636H15.9471V14.7419ZM16.0357 15.0227L16.0801 14.9636H16.0357V14.8306H16.1244V15.1409H16.0357V15.0227ZM16.2131 15.1409H16.3017V14.8306H16.2131V15.1409ZM15.9027 15.0523H15.6811V15.1409H15.8362L15.9027 15.0523ZM17.7204 14.7419H18.1637V15.2296H17.7204V15.1409L17.6539 15.2296H17.3657V14.9636H17.7204V14.7419ZM17.809 15.0227L17.8533 14.9636H17.809V14.8306H17.8977V15.1409H17.809V15.0227ZM17.9863 15.1409H18.075V14.8306H17.9863V15.1409ZM17.676 15.0523H17.4544V15.1409H17.6095L17.676 15.0523ZM19.4936 14.7419H19.937V15.2296H19.4936V15.1409L19.4271 15.2296H19.139V14.9636H19.4936V14.7419ZM19.5823 15.0227L19.6266 14.9636H19.5823V14.8306H19.671V15.1409H19.5823V15.0227ZM19.7596 15.1409H19.8483V14.8306H19.7596V15.1409ZM19.4493 15.0523H19.2276V15.1409H19.3828L19.4493 15.0523ZM21.2669 14.7419H21.7103V15.2296H21.2669V15.1409L21.2004 15.2296H20.9123V14.9636H21.2669V14.7419ZM21.3556 15.0227L21.3999 14.9636H21.3556V14.8306H21.4443V15.1409H21.3556V15.0227ZM21.5329 15.1409H21.6216V14.8306H21.5329V15.1409ZM21.2226 15.0523H21.0009V15.1409H21.1561L21.2226 15.0523ZM3.44536 14.8749H2.29272V14.7863H3.44536V14.8749ZM5.21865 14.8749H4.06602V14.7863H5.21865V14.8749ZM6.99194 14.8749H5.83931V14.7863H6.99194V14.8749ZM8.76523 14.8749H7.6126V14.7863H8.76523V14.8749ZM10.5385 14.8749H9.38589V14.7863H10.5385V14.8749ZM12.3118 14.8749H11.1592V14.7863H12.3118V14.8749ZM14.0851 14.8749H12.9325V14.7863H14.0851V14.8749ZM15.8584 14.8749H14.7058V14.7863H15.8584V14.8749ZM17.6317 14.8749H16.479V14.7863H17.6317V14.8749ZM19.405 14.8749H18.2523V14.7863H19.405V14.8749ZM21.1783 14.8749H20.0256V14.7863H21.1783V14.8749ZM2.29272 14.9636H2.73605V14.9995L2.81511 14.9636H3.09071V15.2296H2.64738V15.1372L2.55872 15.1775V15.2296H2.47005V15.2178L2.29272 15.2984V14.9636ZM2.62005 15.0523H2.38139V15.1607L2.62005 15.0523ZM2.73605 15.0969V15.1409H3.00204V15.0523H2.83431L2.73605 15.0969ZM4.06602 14.9636H4.50934V14.9995L4.5884 14.9636H4.864V15.2296H4.42067V15.1372L4.33201 15.1775V15.2296H4.24334V15.2178L4.06602 15.2984V14.9636ZM4.39334 15.0523H4.15468V15.1607L4.39334 15.0523ZM4.50934 15.0969V15.1409H4.77533V15.0523H4.6076L4.50934 15.0969ZM5.83931 14.9636H6.28263V14.9995L6.36169 14.9636H6.63729V15.2296H6.19396V15.1372L6.1053 15.1775V15.2296H6.01663V15.2178L5.83931 15.2984V14.9636ZM6.16663 15.0523H5.92797V15.1607L6.16663 15.0523ZM6.28263 15.0969V15.1409H6.54862V15.0523H6.3809L6.28263 15.0969ZM7.6126 14.9636H8.05592V14.9995L8.13498 14.9636H8.41058V15.2296H7.96725V15.1372L7.87859 15.1775V15.2296H7.78992V15.2178L7.6126 15.2984V14.9636ZM7.93992 15.0523H7.70126V15.1607L7.93992 15.0523ZM8.05592 15.0969V15.1409H8.32191V15.0523H8.15419L8.05592 15.0969ZM9.38589 14.9636H9.82921V14.9995L9.90827 14.9636H10.1839V15.2296H9.74054V15.1372L9.65188 15.1775V15.2296H9.56321V15.2178L9.38589 15.2984V14.9636ZM9.71321 15.0523H9.47455V15.1607L9.71321 15.0523ZM9.82921 15.0969V15.1409H10.0952V15.0523H9.92748L9.82921 15.0969ZM11.1592 14.9636H11.6025V14.9995L11.6816 14.9636H11.9572V15.2296H11.5138V15.1372L11.4252 15.1775V15.2296H11.3365V15.2178L11.1592 15.2984V14.9636ZM11.4865 15.0523H11.2478V15.1607L11.4865 15.0523ZM11.6025 15.0969V15.1409H11.8685V15.0523H11.7008L11.6025 15.0969ZM12.9325 14.9636H13.3758V14.9995L13.4549 14.9636H13.7304V15.2296H13.2871V15.1372L13.1985 15.1775V15.2296H13.1098V15.2178L12.9325 15.2984V14.9636ZM13.2598 15.0523H13.0211V15.1607L13.2598 15.0523ZM13.3758 15.0969V15.1409H13.6418V15.0523H13.4741L13.3758 15.0969ZM14.7058 14.9636H15.1491V14.9995L15.2281 14.9636H15.5037V15.2296H15.0604V15.1372L14.9718 15.1775V15.2296H14.8831V15.2178L14.7058 15.2984V14.9636ZM15.0331 15.0523H14.7944V15.1607L15.0331 15.0523ZM15.1491 15.0969V15.1409H15.4151V15.0523H15.2473L15.1491 15.0969ZM16.479 14.9636H16.9224V14.9995L17.0014 14.9636H17.277V15.2296H16.8337V15.1372L16.745 15.1775V15.2296H16.6564V15.2178L16.479 15.2984V14.9636ZM16.8064 15.0523H16.5677V15.1607L16.8064 15.0523ZM16.9224 15.0969V15.1409H17.1884V15.0523H17.0206L16.9224 15.0969ZM18.2523 14.9636H18.6957V14.9995L18.7747 14.9636H19.0503V15.2296H18.607V15.1372L18.5183 15.1775V15.2296H18.4297V15.2178L18.2523 15.2984V14.9636ZM18.5797 15.0523H18.341V15.1607L18.5797 15.0523ZM18.6957 15.0969V15.1409H18.9617V15.0523H18.7939L18.6957 15.0969ZM20.0256 14.9636H20.469V14.9995L20.548 14.9636H20.8236V15.2296H20.3803V15.1372L20.2916 15.1775V15.2296H20.203V15.2178L20.0256 15.2984V14.9636ZM20.3529 15.0523H20.1143V15.1607L20.3529 15.0523ZM20.469 15.0969V15.1409H20.7349V15.0523H20.5672L20.469 15.0969Z" fill="white"/>
<path d="M12.8787 13.6523C13.2627 13.4304 13.4737 12.9977 13.4121 12.5585C13.3505 12.1193 13.0286 11.7613 12.5984 11.6536C12.9011 11.8811 13.1007 12.2198 13.1533 12.5948C13.2059 12.9698 13.1071 13.3503 12.8787 13.6523Z" fill="#DA0000"/>
<path d="M11.1162 13.6523C10.7322 13.4304 10.5213 12.9977 10.5829 12.5585C10.6445 12.1193 10.9663 11.7613 11.3966 11.6536C11.0939 11.8811 10.8942 12.2198 10.8416 12.5948C10.789 12.9698 10.8878 13.3503 11.1162 13.6523Z" fill="#DA0000"/>
<path d="M11.9975 11.5251C12.0575 11.6104 12.1719 11.6373 12.2636 11.5876C12.3554 11.5379 12.3954 11.4275 12.3567 11.3306C12.3417 11.4104 12.2785 11.4725 12.1984 11.4861C12.1183 11.4998 12.0382 11.4623 11.9975 11.392C11.9567 11.4623 11.8766 11.4998 11.7965 11.4861C11.7164 11.4725 11.6533 11.4104 11.6382 11.3306C11.5996 11.4275 11.6396 11.5379 11.7313 11.5876C11.8231 11.6373 11.9375 11.6104 11.9975 11.5251Z" fill="#DA0000"/>
<path d="M11.9975 11.5877L11.9262 12.7097L11.9757 13.6996C11.9829 13.7039 11.9902 13.7082 11.9975 13.7124C12.0048 13.7082 12.012 13.7039 12.0192 13.6996L12.0687 12.7097L11.9975 11.5877Z" fill="#DA0000"/>
<path d="M11.8781 13.774C11.844 13.7897 11.8092 13.804 11.7738 13.8169C11.8091 13.8354 11.8452 13.8522 11.8819 13.8673L11.8781 13.774Z" fill="#DA0000"/>
<path fill-rule="evenodd" clip-rule="evenodd" d="M11.8866 13.9823L11.9975 14.1349L12.1084 13.9823L12.1102 13.9377C12.3265 13.9832 12.5564 13.9739 12.7787 13.9017C12.5855 13.911 12.3965 13.8809 12.2212 13.8169C12.4378 13.7035 12.6239 13.5283 12.7509 13.3027C13.0544 12.763 12.9351 12.0841 12.4657 11.6802C12.7678 12.1272 12.7916 12.7065 12.5271 13.1768C12.4246 13.359 12.2857 13.5127 12.1226 13.6312L12.1657 12.5666V11.7289C12.0986 11.6968 12.0408 11.6482 11.9975 11.5877C11.9542 11.6482 11.8963 11.6968 11.8293 11.7289V12.5666L11.8724 13.6312C11.7093 13.5127 11.5703 13.359 11.4679 13.1768C11.2034 12.7065 11.2271 12.1272 11.5292 11.6802C11.0599 12.0841 10.9405 12.763 11.2441 13.3027C11.371 13.5283 11.5571 13.7035 11.7738 13.8169C11.5985 13.8809 11.4094 13.911 11.2163 13.9017C11.4385 13.9739 11.6684 13.9832 11.8848 13.9377L11.8866 13.9823ZM11.8781 13.774C11.844 13.7897 11.8092 13.804 11.7738 13.8169C11.8091 13.8354 11.8452 13.8522 11.8819 13.8673C11.9161 13.8814 11.9508 13.894 11.986 13.9051L11.9769 13.724C11.9447 13.742 11.9117 13.7586 11.8781 13.774ZM11.9975 11.5877L12.0687 12.7097L12.0192 13.6996C12.012 13.7039 12.0048 13.7082 11.9975 13.7124C11.9902 13.7082 11.9829 13.7039 11.9757 13.6996L11.9262 12.7097L11.9975 11.5877Z" fill="#DA0000"/>
<path d="M11.8781 13.774L11.8819 13.8673C11.9161 13.8814 11.9508 13.894 11.986 13.9051L11.9769 13.724C11.9447 13.742 11.9117 13.7586 11.8781 13.774Z" fill="#DA0000"/>
</g>
<defs>
<clipPath id="clip0_1692_54056">
<rect x="2.02539" y="5.76855" width="19.9495" height="13.2997" rx="1" fill="white"/>
</clipPath>
</defs>
</svg>
