<svg width="24" height="25" viewBox="0 0 24 25" fill="none" xmlns="http://www.w3.org/2000/svg">
<g clip-path="url(#clip0_1692_54015)">
<path d="M2.02734 5.76855H21.9769V19.0682H2.02734V5.76855Z" fill="white"/>
<path d="M2.02734 7.01562H21.9769V9.0937H2.02734V7.01562Z" fill="#0038B8"/>
<path d="M2.02734 15.7422H21.9769V17.8203H2.02734V15.7422Z" fill="#0038B8"/>
<path fill-rule="evenodd" clip-rule="evenodd" d="M12.0155 9.53809L12.8469 10.978H14.5096L13.6782 12.418L14.5096 13.8579H12.8469L12.0155 15.2978L11.1842 13.8579H9.52148L10.3528 12.418L9.52148 10.978H11.1842L12.0155 9.53809ZM10.9202 11.4353H10.3135L10.6168 11.9607L10.9202 11.4353ZM10.8808 12.418L11.4482 11.4353H12.5829L13.1503 12.418L12.5829 13.4007H11.4482L10.8808 12.418ZM10.6168 12.8752L10.3135 13.4007H10.9202L10.6168 12.8752ZM11.7122 13.8579L12.0155 14.3834L12.3189 13.8579H11.7122ZM13.1109 13.4007H13.7176L13.4142 12.8752L13.1109 13.4007ZM13.4142 11.9607L13.7176 11.4353H13.1109L13.4142 11.9607ZM12.3189 10.978H11.7122L12.0155 10.4526L12.3189 10.978Z" fill="#0038B8"/>
</g>
<defs>
<clipPath id="clip0_1692_54015">
<rect x="2.02734" y="5.76855" width="19.9495" height="13.2997" rx="1" fill="white"/>
</clipPath>
</defs>
</svg>
