<svg width="24" height="24" viewBox="0 0 24 24" fill="none" xmlns="http://www.w3.org/2000/svg">
<path d="M13 14L10 11M15.0104 3.5V2M18.9497 5.06066L20.0104 4M18.9497 13L20.0104 14.0607M11.0104 5.06066L9.94969 4M20.5104 9H22.0104M6.13137 20.8686L15.3686 11.6314C15.7646 11.2354 15.9627 11.0373 16.0368 10.809C16.1021 10.6082 16.1021 10.3918 16.0368 10.191C15.9627 9.96265 15.7646 9.76465 15.3686 9.36863L14.6314 8.63137C14.2354 8.23535 14.0373 8.03735 13.809 7.96316C13.6082 7.8979 13.3918 7.8979 13.191 7.96316C12.9627 8.03735 12.7646 8.23535 12.3686 8.63137L3.13137 17.8686C2.73536 18.2646 2.53735 18.4627 2.46316 18.691C2.3979 18.8918 2.3979 19.1082 2.46316 19.309C2.53735 19.5373 2.73536 19.7354 3.13137 20.1314L3.86863 20.8686C4.26465 21.2646 4.46266 21.4627 4.69098 21.5368C4.89183 21.6021 5.10818 21.6021 5.30902 21.5368C5.53735 21.4627 5.73536 21.2646 6.13137 20.8686Z" stroke="#1C1D20" stroke-width="1.5" stroke-linecap="round" stroke-linejoin="round"/>
</svg>
