<svg width="24" height="24" viewBox="0 0 24 24" fill="none" xmlns="http://www.w3.org/2000/svg">
<path d="M8.09813 21.221C6.70826 19.2375 5.89062 16.8243 5.89062 14.2187C5.89062 10.8443 8.62455 8.10938 11.9969 8.10938C15.3692 8.10938 18.1032 10.8443 18.1032 14.2187" stroke="#1C1D20" stroke-width="1.5" stroke-linecap="round" stroke-linejoin="round"/>
<path d="M8.09813 21.221C6.70826 19.2375 5.89062 16.8243 5.89062 14.2187C5.89062 10.8443 8.62455 8.10938 11.9969 8.10938C15.3692 8.10938 18.1032 10.8443 18.1032 14.2187" stroke="#1C1D20" stroke-width="1.5" stroke-linecap="round" stroke-linejoin="round"/>
<path d="M18.4352 20.3118C18.3252 20.3179 18.2173 20.3281 18.1063 20.3281C14.7339 20.3281 12 17.5931 12 14.2188" stroke="#1C1D20" stroke-width="1.5" stroke-linecap="round" stroke-linejoin="round"/>
<path d="M18.4352 20.3118C18.3252 20.3179 18.2173 20.3281 18.1063 20.3281C14.7339 20.3281 12 17.5931 12 14.2188" stroke="#1C1D20" stroke-width="1.5" stroke-linecap="round" stroke-linejoin="round"/>
<path d="M13.2714 21.9999C10.6769 20.382 8.94901 17.5024 8.94901 14.2187C8.94901 12.5315 10.3165 11.164 12.0027 11.164C13.6888 11.164 15.0563 12.5315 15.0563 14.2187C15.0563 15.9059 16.4238 17.2733 18.1099 17.2733C19.7961 17.2733 21.1636 15.9059 21.1636 14.2187C21.1636 9.1571 17.0622 5.05469 12.0037 5.05469C6.94515 5.05469 2.84375 9.1571 2.84375 14.2187C2.84375 15.3469 2.97001 16.4455 3.20216 17.5045" stroke="#1C1D20" stroke-width="1.5" stroke-linecap="round" stroke-linejoin="round"/>
<path d="M13.2714 21.9999C10.6769 20.382 8.94901 17.5024 8.94901 14.2187C8.94901 12.5315 10.3165 11.164 12.0027 11.164C13.6888 11.164 15.0563 12.5315 15.0563 14.2187C15.0563 15.9059 16.4238 17.2733 18.1099 17.2733C19.7961 17.2733 21.1636 15.9059 21.1636 14.2187C21.1636 9.1571 17.0622 5.05469 12.0037 5.05469C6.94515 5.05469 2.84375 9.1571 2.84375 14.2187C2.84375 15.3469 2.97001 16.4455 3.20216 17.5045" stroke="#1C1D20" stroke-width="1.5" stroke-linecap="round" stroke-linejoin="round"/>
<path d="M20.5277 5.86313C18.4454 3.4978 15.401 2 12.0021 2C8.60331 2 5.55883 3.4978 3.47656 5.86313" stroke="#1C1D20" stroke-width="1.5" stroke-linecap="round" stroke-linejoin="round"/>
<path d="M20.5277 5.86313C18.4454 3.4978 15.401 2 12.0021 2C8.60331 2 5.55883 3.4978 3.47656 5.86313" stroke="#1C1D20" stroke-width="1.5" stroke-linecap="round" stroke-linejoin="round"/>
</svg>
