<svg width="24" height="24" viewBox="0 0 24 24" fill="none" xmlns="http://www.w3.org/2000/svg">
<path d="M8.80868 3.1971L11.4382 2.21103C11.6461 2.13307 11.75 2.09409 11.857 2.07864C11.9518 2.06493 12.0482 2.06493 12.143 2.07864C12.25 2.09409 12.3539 2.13307 12.5618 2.21103L17.9236 4.22171C18.6722 4.50243 19.0465 4.6428 19.3223 4.88589C19.566 5.10064 19.7537 5.3715 19.8692 5.67506C20 6.01869 20 6.41845 20 7.21796V12.0004C20 12.7207 19.8847 13.4121 19.6818 14.0713M17.6219 17.626C15.9362 19.5864 13.7879 20.9793 12.6996 21.6143C12.4772 21.7441 12.366 21.809 12.2098 21.8425C12.0885 21.8685 11.9116 21.8685 11.7904 21.8425C11.6341 21.809 11.5234 21.7444 11.302 21.6152C9.35396 20.4788 4 16.9088 4 12.0004V5.77667C4 5.30971 4.28966 4.89174 4.72688 4.72778M3 3.00036L21 21.0004" stroke="#1C1D20" stroke-width="1.5" stroke-linecap="round" stroke-linejoin="round"/>
</svg>
