<svg width="25" height="25" viewBox="0 0 25 25" fill="none" xmlns="http://www.w3.org/2000/svg">
<g clip-path="url(#clip0_1692_54031)">
<path d="M22.0003 19.6341V6.33447H2.05078V19.6341H22.0003Z" fill="#006C35"/>
<path d="M16.1656 9.89361C16.2786 9.81302 16.3838 9.72267 16.5096 9.65918C16.4737 9.80326 16.3659 9.91315 16.2555 10.0059C16.199 10.0499 16.2247 10.1305 16.217 10.1915C16.1862 10.1842 16.1579 10.1769 16.1271 10.1671C16.1554 10.5334 16.1964 10.8973 16.2144 11.2636C16.217 11.3051 16.2195 11.349 16.2555 11.3759C16.4249 11.5273 16.5995 11.6763 16.7227 11.8692C16.7715 11.9449 16.7972 12.0303 16.8228 12.1158C16.8536 11.9742 16.8511 11.8277 16.8357 11.6836C16.7741 11.1268 16.7176 10.5676 16.6688 10.0084C16.6637 9.94001 16.6534 9.86919 16.6611 9.80081C16.6662 9.73732 16.7304 9.6836 16.7946 9.68848C16.8331 9.72023 16.8536 9.76419 16.8742 9.80814C16.9255 9.92291 16.9717 10.0475 16.9589 10.1769C16.9281 10.1671 16.8973 10.1549 16.8639 10.1427C16.9101 10.5212 16.9563 10.8997 16.9846 11.2807C16.9974 11.5371 17.0359 11.7959 16.982 12.0499C16.9358 12.2843 16.8203 12.5212 16.6149 12.6555C16.4429 12.7678 16.2426 12.8313 16.0424 12.8728C15.9603 12.8899 15.8755 12.8972 15.796 12.8753C15.8807 12.8289 15.9757 12.7947 16.0655 12.7556C16.1964 12.6994 16.3222 12.6384 16.4403 12.5603C16.5507 12.487 16.6662 12.4137 16.7484 12.3063C16.6457 12.0328 16.4763 11.7764 16.2349 11.6079C16.2426 11.8765 16.2555 12.15 16.2144 12.4162C16.2067 12.4797 16.1785 12.5358 16.1348 12.5798C16.1066 12.4675 16.104 12.3502 16.0912 12.2355C16.0681 11.9864 16.0475 11.7349 16.0296 11.4858C16.0296 11.4345 15.9962 11.3954 15.9577 11.3661C15.8062 11.2391 15.665 11.0975 15.5187 10.9656C15.5238 11.1195 15.5469 11.2709 15.5572 11.4223C15.5752 11.6274 15.5777 11.8325 15.5983 12.0377C15.6111 12.1817 15.6137 12.3331 15.5598 12.4699C15.5059 12.5993 15.3852 12.7092 15.2414 12.719C15.1644 12.7263 15.0874 12.719 15.013 12.7068C14.9334 12.6946 14.8718 12.6335 14.8358 12.5651C14.7922 12.4821 14.7691 12.3893 14.7331 12.3038C14.6664 12.3185 14.5971 12.3331 14.5483 12.3844C14.4456 12.4821 14.4148 12.6311 14.366 12.7581C14.3378 12.8338 14.3044 12.9168 14.23 12.9583C14.1529 13.0023 14.0579 12.9852 13.9835 12.9436C13.8705 12.8826 13.8012 12.7654 13.7679 12.6457C13.7345 12.5529 13.7807 12.4455 13.7242 12.3576C13.6831 12.277 13.7062 12.1817 13.7268 12.0987C13.7704 11.9498 13.8628 11.8228 13.9732 11.7153C13.8269 11.5883 13.6806 11.4614 13.5342 11.3344C13.5471 11.686 13.5753 12.0377 13.5291 12.3869C13.5214 12.4577 13.4957 12.5236 13.4444 12.5749C13.429 12.509 13.4187 12.4406 13.4136 12.3722C13.3776 11.9864 13.3468 11.6006 13.3212 11.2147C13.3186 11.1708 13.3109 11.1219 13.2749 11.0926C13.126 10.951 12.9823 10.7996 12.8488 10.6409C12.7718 10.5432 12.6922 10.4431 12.6511 10.3258C12.6357 10.277 12.6229 10.2086 12.6691 10.172C12.723 10.1769 12.7718 10.2013 12.818 10.2257C12.9027 10.2746 12.9823 10.3381 13.0516 10.4113C13.0824 10.4431 13.0978 10.4846 13.1106 10.5261C13.067 10.5261 13.0259 10.5236 12.9823 10.5236C13.0696 10.6482 13.1723 10.763 13.2904 10.8606C13.2801 10.5334 13.2441 10.2037 13.2287 9.87652C13.2287 9.83256 13.2287 9.78372 13.2595 9.74709C13.2878 9.71535 13.3314 9.70314 13.3699 9.68848C13.4418 9.79349 13.4932 9.9107 13.524 10.0352C13.5368 10.0841 13.5342 10.1354 13.5317 10.1866C13.5009 10.1793 13.4701 10.1696 13.4418 10.1598C13.4624 10.426 13.4906 10.6897 13.5086 10.9559C13.5111 10.9925 13.5137 11.0316 13.524 11.0682C13.5394 11.0951 13.5625 11.1122 13.583 11.1317C13.7653 11.2855 13.9476 11.4394 14.1324 11.5883C14.2428 11.4931 14.3506 11.3954 14.461 11.3026C14.4867 11.2807 14.5123 11.2611 14.5329 11.2367C14.5534 11.2147 14.5457 11.183 14.5457 11.1561C14.5098 10.8362 14.4841 10.5163 14.4559 10.1964C14.4482 10.0792 14.4302 9.96443 14.4302 9.84965C14.4276 9.78128 14.4815 9.7129 14.5509 9.71046C14.5817 9.70802 14.5945 9.74221 14.6099 9.76174C14.6612 9.8521 14.6998 9.94978 14.7229 10.0523C14.7357 10.1012 14.7306 10.1525 14.7203 10.2037C14.692 10.1915 14.6612 10.1769 14.633 10.1647C14.6715 10.465 14.7023 10.7654 14.7306 11.0658C14.8101 11.0072 14.882 10.9388 14.9565 10.8753C15.0386 10.8045 15.1259 10.7361 15.2055 10.6604C15.1105 10.5578 15.0104 10.4626 14.9128 10.3625C14.8512 10.299 14.7768 10.2379 14.7511 10.1476C14.7306 10.0841 14.7434 10.0157 14.7562 9.95466C14.8718 9.9742 14.9719 10.0426 15.0643 10.1109C15.1285 10.1598 15.185 10.216 15.2414 10.2721C15.2363 10.1451 15.2209 10.0182 15.2106 9.89117C15.2106 9.84233 15.2055 9.7886 15.2389 9.74953C15.2671 9.71779 15.3107 9.70558 15.3467 9.68848C15.4211 9.78616 15.4673 9.90338 15.4982 10.0206C15.5136 10.0743 15.5136 10.128 15.511 10.1818C15.4802 10.1744 15.4468 10.1671 15.416 10.1598C15.4263 10.2575 15.4365 10.3527 15.4494 10.4504C15.57 10.36 15.6804 10.2575 15.8011 10.1671C15.8422 10.128 15.9166 10.0987 15.9166 10.0304C15.9192 9.9571 15.9038 9.8814 15.914 9.80814C15.9217 9.74465 15.9834 9.69337 16.0475 9.69825C16.1092 9.75686 16.1323 9.83012 16.1656 9.89361ZM15.5392 10.5993C15.5187 10.6213 15.4802 10.6409 15.4828 10.6775C15.4982 10.7092 15.529 10.7337 15.5546 10.7605C15.7035 10.8948 15.8447 11.0365 16.0013 11.1586C15.9962 11.0145 15.9808 10.8728 15.9731 10.7288C15.9603 10.5774 15.9551 10.426 15.9397 10.2746C15.8011 10.3747 15.6753 10.4919 15.5392 10.5993ZM15.1618 10.3332C15.1952 10.3698 15.226 10.4064 15.2594 10.4431C15.2594 10.4064 15.2568 10.3698 15.2568 10.3332C15.226 10.3332 15.1927 10.3332 15.1618 10.3332ZM14.8024 11.2245C14.7768 11.2465 14.746 11.2709 14.7485 11.3075C14.746 11.4931 14.7665 11.6836 14.7203 11.8643C14.71 11.9107 14.6766 11.9424 14.6433 11.9717C14.6022 11.7935 14.5996 11.6103 14.5688 11.4296C14.4584 11.5175 14.3532 11.6128 14.2505 11.708C14.3095 11.7739 14.3686 11.8448 14.3891 11.9351C14.4225 12.0596 14.384 12.2037 14.2813 12.2868C14.1555 12.3918 13.9861 12.4089 13.8295 12.4284C13.8526 12.5309 13.8731 12.6384 13.9347 12.7263C13.9732 12.7776 14.0348 12.8264 14.1016 12.8069C14.1735 12.7874 14.2171 12.719 14.2428 12.6555C14.2941 12.5261 14.3506 12.3991 14.4276 12.2819C14.4892 12.1842 14.5894 12.1036 14.7075 12.1012C14.746 12.1036 14.7973 12.0914 14.8204 12.1329C14.8718 12.2184 14.8897 12.3209 14.9539 12.4015C15.0617 12.5432 15.2902 12.5456 15.4186 12.4284C15.4622 12.3893 15.4622 12.3258 15.4571 12.2721C15.398 11.7861 15.3544 11.2953 15.303 10.8094C15.131 10.9437 14.9693 11.0853 14.8024 11.2245ZM13.8962 12.0548C13.868 12.0914 13.8526 12.1378 13.8397 12.1842C13.9553 12.1964 14.0734 12.172 14.1735 12.1134C14.2043 12.0938 14.2402 12.0621 14.2325 12.0206C14.2248 11.9375 14.1555 11.8789 14.0939 11.8301C14.0246 11.8985 13.9553 11.9742 13.8962 12.0548Z" fill="white"/>
<path d="M9.07499 9.68604C9.10579 9.66651 9.13403 9.70069 9.15457 9.72267C9.21618 9.79837 9.28293 9.87407 9.31887 9.96687C9.28806 9.97175 9.25469 9.97664 9.22388 9.98152C9.23158 10.128 9.35481 10.2282 9.39075 10.3674C9.41642 10.4528 9.41899 10.5456 9.40102 10.6311C9.37535 10.7483 9.27779 10.8509 9.15714 10.8704C9.01594 10.8948 8.85677 10.8606 8.75152 10.7556C8.6822 10.6873 8.65653 10.5896 8.62572 10.5017C8.59235 10.6213 8.54357 10.7361 8.45885 10.8289C8.41008 10.8851 8.3459 10.9241 8.28172 10.9583C8.29969 11.2855 8.33306 11.6128 8.30482 11.9375C8.29455 12.0303 8.28942 12.1402 8.2047 12.2013C8.17389 12.0719 8.16876 11.9375 8.15335 11.8032C8.12512 11.5322 8.10458 11.2611 8.07634 10.9901C7.99675 10.9705 7.90947 10.9534 7.84786 10.8948C7.74517 10.802 7.71179 10.6579 7.7195 10.5261C7.72206 10.4235 7.75544 10.3234 7.77854 10.2233C7.74003 10.2623 7.70923 10.3087 7.69126 10.36C7.63734 10.5236 7.6014 10.6946 7.52695 10.8509C7.49872 10.9119 7.4448 10.9632 7.37806 10.9778C7.29591 10.9949 7.19835 10.9901 7.13417 10.9266C7.06486 10.8582 7.04945 10.7556 7.03918 10.6628C7.03405 10.5676 7.02635 10.465 7.06999 10.3771C7.09566 10.3234 7.14957 10.2941 7.19578 10.2672C7.16498 10.3185 7.12904 10.3698 7.12134 10.4284C7.11107 10.5114 7.12647 10.5969 7.14187 10.6775C7.15214 10.7263 7.16241 10.78 7.20092 10.8142C7.25996 10.868 7.36009 10.8631 7.41656 10.8094C7.44737 10.7752 7.46277 10.7312 7.47818 10.6897C7.52952 10.5334 7.5706 10.3722 7.63478 10.2208C7.69126 10.0939 7.79138 9.96931 7.93514 9.94245C7.91974 10.1158 7.84015 10.277 7.83502 10.4528C7.83245 10.531 7.84015 10.6164 7.8915 10.6775C7.93001 10.7288 7.99419 10.7459 8.05323 10.763C8.03783 10.5261 8.01473 10.2892 7.99932 10.0499C7.99419 9.96198 7.97878 9.87163 7.99419 9.78372C8.00702 9.72267 8.07377 9.70069 8.12512 9.68116C8.22267 9.82523 8.29455 9.99617 8.29198 10.172C8.25861 10.1647 8.2278 10.1573 8.19443 10.15C8.21497 10.3527 8.23551 10.5578 8.25861 10.7605C8.34333 10.7337 8.42035 10.6824 8.46912 10.6067C8.56924 10.4626 8.58465 10.2746 8.53587 10.1085C8.51533 10.0377 8.48196 9.97175 8.46655 9.89849C8.45115 9.83012 8.49993 9.7593 8.56154 9.73732C8.58978 9.72511 8.60262 9.7593 8.61545 9.77884C8.65396 9.86186 8.6668 9.95466 8.68477 10.045C8.70787 10.1647 8.68477 10.2892 8.72841 10.404C8.76435 10.5017 8.82853 10.592 8.92095 10.6433C8.9954 10.6848 9.08269 10.6946 9.1674 10.6799C9.20848 10.6726 9.24185 10.6384 9.25212 10.5969C9.27266 10.5188 9.24442 10.4382 9.21105 10.3674C9.13403 10.2062 9.03904 10.0523 9.0031 9.87652C8.99027 9.81302 9.00824 9.72511 9.07499 9.68604Z" fill="white"/>
<path d="M12.5998 9.87407C12.6485 9.79105 12.7256 9.72755 12.8128 9.68604C12.7897 9.74709 12.7538 9.79837 12.7204 9.8521C12.6948 9.89117 12.6948 9.94001 12.6922 9.98396C12.7512 9.98152 12.8103 9.97175 12.8668 9.9571C12.8514 10.0035 12.836 10.0523 12.7923 10.0816C12.7435 10.1158 12.6717 10.1378 12.6203 10.0963C12.5664 10.0401 12.5587 9.94245 12.5998 9.87407Z" fill="white"/>
<path d="M9.41642 9.76663C9.4421 9.72756 9.49087 9.7129 9.52938 9.69581C9.60896 9.79837 9.65774 9.92291 9.68855 10.0475C9.70139 10.0963 9.69625 10.1451 9.69112 10.194C9.66288 10.1842 9.63207 10.1744 9.60383 10.1647C9.6372 10.4015 9.67828 10.636 9.70652 10.8728C9.84258 10.8069 9.96838 10.7263 10.1096 10.6677C10.1532 10.6482 10.1994 10.6384 10.2482 10.6335C10.2302 10.6726 10.2097 10.7117 10.1686 10.7288C10.0197 10.8045 9.86825 10.8704 9.72192 10.9534C9.73476 11.0706 9.74759 11.1903 9.763 11.3075C9.82975 11.222 9.88879 11.1146 10.0043 11.0877C10.0095 11.1512 9.98891 11.2269 10.0351 11.2782C10.107 11.3344 10.2046 11.3002 10.2713 11.2489C10.2662 11.1561 10.2918 11.0658 10.3098 10.9754C10.3381 10.9876 10.374 10.9925 10.3843 11.0267C10.4151 11.1122 10.4074 11.2074 10.3843 11.2929C10.3612 11.3905 10.2816 11.4638 10.1943 11.5078C10.1404 11.5346 10.0736 11.5493 10.0146 11.5249C9.95297 11.5004 9.91446 11.4418 9.87339 11.3905C9.83745 11.4785 9.7784 11.559 9.77583 11.6592C9.76557 11.8692 9.68341 12.0694 9.55762 12.2355C9.33941 12.5212 9.00567 12.6921 8.6668 12.7922C8.47169 12.846 8.26888 12.8948 8.0635 12.885C7.95311 12.8826 7.84016 12.8582 7.74517 12.7996C7.70409 12.7727 7.66815 12.7361 7.62708 12.7117C7.57573 12.7019 7.52182 12.7165 7.46791 12.7165C7.33955 12.7214 7.21119 12.7263 7.08539 12.7043C7.23943 12.653 7.39603 12.614 7.54749 12.5578C7.50642 12.2819 7.56033 11.9962 7.70153 11.7568C7.74003 11.6933 7.78881 11.6372 7.84015 11.5883C7.79651 11.6763 7.7426 11.7617 7.7195 11.8594C7.66558 12.0645 7.66815 12.2843 7.72976 12.4846C7.83502 12.4504 7.93771 12.404 8.03783 12.36C8.27145 12.2574 8.49993 12.1476 8.71301 12.0059C8.79259 11.9498 8.87474 11.8912 8.92865 11.8057C8.95433 11.7642 8.94919 11.7153 8.94919 11.6689C8.8388 11.6909 8.73098 11.7422 8.61545 11.7397C8.54357 11.7349 8.46655 11.7202 8.41521 11.664C8.36387 11.6079 8.3613 11.5273 8.37157 11.4565C8.38697 11.3637 8.42805 11.2709 8.5025 11.2098C8.58721 11.139 8.71301 11.1415 8.81056 11.1854C8.90555 11.2294 8.95946 11.3222 9.00567 11.4101C9.14943 11.3564 9.24699 11.2294 9.38818 11.1683C9.39332 11.2416 9.38562 11.3271 9.4421 11.3857C9.47547 11.4272 9.53195 11.4247 9.57816 11.4296C9.57046 11.3124 9.55249 11.1976 9.53708 11.0829C9.48831 10.6995 9.43953 10.3136 9.39845 9.9278C9.39589 9.87163 9.38818 9.81302 9.41642 9.76663ZM8.53844 11.4345C8.5256 11.4614 8.55641 11.4785 8.57695 11.4882C8.65396 11.5151 8.73868 11.498 8.81826 11.4833C8.77719 11.4394 8.72841 11.3905 8.66166 11.3881C8.61802 11.3857 8.55641 11.3881 8.53844 11.4345ZM9.09809 11.5932C9.10322 11.6714 9.10579 11.7495 9.08012 11.8228C9.03904 11.9473 8.94406 12.0474 8.8465 12.1305C8.6591 12.2843 8.43832 12.3844 8.22524 12.4968C8.13025 12.5529 8.02756 12.5969 7.92487 12.6408C8.0558 12.6506 8.18673 12.6286 8.31509 12.6189C8.51277 12.6067 8.70274 12.5505 8.88501 12.4772C9.07498 12.3991 9.25982 12.299 9.40872 12.1524C9.49858 12.0645 9.57046 11.9546 9.60126 11.8301C9.61667 11.7691 9.61667 11.7056 9.61923 11.6421C9.54222 11.6396 9.46007 11.6421 9.39075 11.603C9.33427 11.5713 9.30347 11.5102 9.27009 11.4565C9.21618 11.5078 9.15714 11.5542 9.09809 11.5932Z" fill="white"/>
<path d="M11.1852 9.7593C11.2135 9.72755 11.2648 9.73244 11.2982 9.75442C11.3726 9.80326 11.4163 9.89361 11.4111 9.98152C11.4086 10.023 11.3906 10.0597 11.3778 10.0963C11.3675 10.0401 11.3701 9.98152 11.3444 9.93024C11.3059 9.87652 11.234 9.86675 11.1878 9.82279C11.1698 9.80814 11.1621 9.77395 11.1852 9.7593Z" fill="white"/>
<path d="M12.2378 9.7886C12.2429 9.75442 12.2763 9.71779 12.3122 9.73732C12.4124 9.78616 12.4842 9.87896 12.5305 9.97908C12.4945 9.97908 12.4586 9.97664 12.4252 9.9742C12.4432 10.0426 12.4611 10.1085 12.4894 10.1744C12.5279 10.2672 12.5818 10.3551 12.5972 10.4577C12.6152 10.57 12.5946 10.697 12.5151 10.7825C12.3662 10.9485 12.0684 10.9192 11.94 10.741C11.8912 10.6775 11.8655 10.6042 11.8399 10.5285C11.7988 10.6897 11.7115 10.846 11.5652 10.929C11.4163 11.0194 11.2186 11.0072 11.0774 10.9119C10.9901 10.8558 10.9311 10.7581 10.9311 10.6555C10.9208 10.5041 10.9799 10.3625 11.0004 10.216C10.9645 10.2526 10.9311 10.2941 10.9157 10.3454C10.8541 10.509 10.8284 10.6848 10.7411 10.8387C10.7 10.9119 10.6307 10.9778 10.5434 10.9852C10.4587 10.9901 10.3663 10.9583 10.3175 10.8851C10.2739 10.8167 10.2636 10.7337 10.2636 10.6531C10.2662 10.531 10.2944 10.4064 10.3509 10.299C10.3509 10.4528 10.3047 10.6213 10.3817 10.7654C10.4202 10.846 10.5229 10.8924 10.6025 10.8484C10.6744 10.8045 10.7077 10.7214 10.7334 10.6457C10.7873 10.4846 10.8438 10.321 10.9234 10.1696C10.9568 10.1085 10.9927 10.045 11.0492 10.0011C11.0774 9.97664 11.1185 9.97664 11.1544 9.96931C11.1621 10.1061 11.0851 10.2257 11.0594 10.3576C11.0338 10.4724 11.0261 10.6091 11.1082 10.7043C11.2006 10.8045 11.3547 10.8289 11.483 10.7947C11.6602 10.7385 11.7885 10.5603 11.7962 10.3747C11.8014 10.2648 11.8065 10.1451 11.7475 10.0475C11.7218 9.99617 11.673 9.94245 11.6935 9.87896C11.7064 9.81547 11.7526 9.76663 11.8065 9.73732C11.845 9.79837 11.8784 9.86431 11.8861 9.93757C11.9066 10.1061 11.9092 10.2794 11.9682 10.4406C12.0042 10.5334 12.0581 10.6286 12.1531 10.6726C12.2404 10.7141 12.3482 10.7239 12.4329 10.6799C12.4868 10.6531 12.4996 10.5871 12.4868 10.5334C12.4509 10.3576 12.3302 10.2184 12.2737 10.0499C12.2429 9.96443 12.2198 9.87652 12.2378 9.7886Z" fill="white"/>
<path d="M13.963 9.75197C14.0169 9.72756 14.0939 9.74709 14.1196 9.80326C14.1298 9.83012 14.1119 9.85454 14.0913 9.86919C14.0528 9.86186 14.0194 9.84233 13.9861 9.82768C13.9424 9.9107 13.9193 10.0035 13.8936 10.0963C13.8757 10.0523 13.8603 10.0059 13.832 9.96687C13.7961 9.91803 13.7396 9.89361 13.6985 9.84965C13.6857 9.81058 13.7319 9.76663 13.7704 9.77884C13.8269 9.79593 13.8603 9.84721 13.8936 9.89361C13.909 9.84233 13.9168 9.78128 13.963 9.75197Z" fill="white"/>
<path d="M7.05715 9.9571C7.1008 9.86431 7.18552 9.79593 7.27794 9.75197C7.25483 9.81302 7.21632 9.86431 7.18552 9.92047C7.15984 9.95954 7.16241 10.0084 7.15984 10.0523C7.21889 10.0475 7.27793 10.0352 7.33698 10.0157C7.31901 10.0621 7.30104 10.1134 7.2574 10.1451C7.21119 10.1793 7.14187 10.1989 7.0931 10.1647C7.03662 10.1158 7.02635 10.0255 7.05715 9.9571Z" fill="white"/>
<path d="M10.3406 9.83256C10.356 9.75197 10.4767 9.75442 10.5152 9.81547C10.5409 9.85942 10.5537 9.90582 10.5794 9.94978C10.6025 9.99373 10.6307 10.0401 10.6153 10.0914C10.5922 10.172 10.5332 10.2355 10.5255 10.321C10.5537 10.3087 10.5819 10.2941 10.6102 10.2794C10.6025 10.3234 10.6102 10.382 10.564 10.4064C10.5075 10.4333 10.4382 10.3796 10.4433 10.3185C10.451 10.2086 10.5588 10.1232 10.5255 10.0059C10.4176 10.15 10.2687 10.2794 10.0865 10.3063C10.1661 10.2428 10.2559 10.1989 10.3278 10.1256C10.374 10.0816 10.4048 10.0255 10.4356 9.97175C10.3971 9.93268 10.3304 9.89605 10.3406 9.83256ZM10.4151 9.82523C10.433 9.8521 10.4561 9.87407 10.4818 9.88873C10.4715 9.85698 10.4459 9.835 10.4151 9.82523Z" fill="white"/>
<path d="M9.7707 9.88384C9.80921 9.87407 9.85542 9.85942 9.88622 9.89361C9.97864 9.97908 10.0223 10.1158 9.99148 10.2379C9.97094 10.1915 9.95554 10.1427 9.93243 10.0987C9.89393 10.0157 9.80921 9.96687 9.7707 9.88384Z" fill="white"/>
<path d="M8.94406 9.93512C8.98257 9.97664 9.00054 10.0279 8.99283 10.0841C8.93122 10.0939 8.86961 10.1109 8.80799 10.1256C8.77462 10.1354 8.73868 10.1109 8.73098 10.0768C8.72841 10.0401 8.74125 10.0059 8.74895 9.96931C8.76178 10.0059 8.77462 10.0426 8.78746 10.0816C8.80286 10.0743 8.82083 10.0694 8.83623 10.0621C8.83623 10.0279 8.83623 9.99373 8.83623 9.96199C8.84907 9.96199 8.86191 9.96199 8.87217 9.96199C8.87731 9.99129 8.88244 10.023 8.88758 10.0523C8.90812 10.0499 8.92609 10.0475 8.94662 10.045C8.94406 10.0084 8.94406 9.97175 8.94406 9.93512Z" fill="white"/>
<path d="M14.1581 10.0157C14.2068 10.0011 14.2608 9.99617 14.3121 9.99617C14.2864 10.0255 14.2582 10.0523 14.2222 10.067C14.0451 10.1378 13.8628 10.1891 13.6934 10.2794C13.7088 10.3112 13.7242 10.3405 13.7396 10.3722C13.6985 10.3649 13.6498 10.3649 13.619 10.3307C13.5907 10.3039 13.5881 10.2526 13.6215 10.2282C13.6498 10.2062 13.6806 10.194 13.7139 10.1793C13.8603 10.1256 14.0066 10.0645 14.1581 10.0157Z" fill="white"/>
<path d="M11.4753 10.1427C11.4959 10.1256 11.519 10.1134 11.5395 10.1012C11.5369 10.1671 11.56 10.2257 11.5883 10.2843C11.6165 10.3429 11.5934 10.426 11.5241 10.4406C11.4651 10.4601 11.4111 10.4235 11.3701 10.3893C11.3367 10.4186 11.3008 10.4577 11.252 10.4504C11.1621 10.4455 11.1185 10.3405 11.1365 10.2623C11.1442 10.2111 11.1852 10.1793 11.2212 10.1476C11.216 10.2013 11.1955 10.255 11.2083 10.3087C11.2186 10.3454 11.2623 10.3454 11.2931 10.3576C11.3033 10.299 11.3059 10.2379 11.3213 10.1769C11.3264 10.1451 11.3649 10.1427 11.3855 10.128C11.3906 10.1793 11.388 10.2306 11.4034 10.2794C11.4163 10.3161 11.4599 10.3283 11.4907 10.3454C11.5061 10.2746 11.4753 10.2086 11.4753 10.1427Z" fill="white"/>
<path d="M8.81056 10.2355C8.84907 10.2355 8.89528 10.2282 8.92609 10.2599C9.01337 10.3454 9.05701 10.4797 9.02364 10.5993C8.99283 10.5188 8.96716 10.4308 8.90041 10.3698C8.85934 10.3332 8.81826 10.2917 8.81056 10.2355Z" fill="white"/>
<path d="M14.1247 10.5432C14.1427 10.5212 14.1658 10.5065 14.1889 10.4895C14.1889 10.5505 14.2094 10.6067 14.2351 10.6604C14.2608 10.7141 14.2608 10.7996 14.1966 10.824C14.1375 10.8509 14.0759 10.8191 14.0271 10.7849C13.9886 10.8142 13.9424 10.8509 13.8885 10.8362C13.8089 10.8191 13.7756 10.7263 13.7884 10.6531C13.7935 10.5993 13.8397 10.5652 13.8757 10.531C13.868 10.5871 13.8449 10.6433 13.8603 10.6995C13.8731 10.7361 13.9167 10.7288 13.9476 10.7361C13.9578 10.6726 13.9527 10.6067 13.9784 10.5481C13.9963 10.5334 14.0194 10.5236 14.0425 10.5139C14.0451 10.57 14.0348 10.6311 14.0631 10.6824C14.0811 10.7141 14.1196 10.7166 14.1504 10.7263C14.1478 10.6653 14.1298 10.6042 14.1247 10.5432Z" fill="white"/>
<path d="M16.258 10.6311C16.2426 10.592 16.2734 10.5529 16.3145 10.5529C16.3787 10.5529 16.4275 10.6067 16.4583 10.6579C16.5122 10.763 16.5379 10.8899 16.4942 11.0023C16.4711 10.9021 16.4737 10.7752 16.3813 10.7092C16.3402 10.6848 16.2914 10.6702 16.258 10.6311Z" fill="white"/>
<path d="M12.7127 10.8509C12.741 10.8191 12.7872 10.8094 12.8283 10.8191C12.8796 10.868 12.8693 10.9559 12.8283 11.0072C12.7538 11.1048 12.6306 11.1512 12.5099 11.1512C12.5844 11.1073 12.6691 11.0829 12.7358 11.0267C12.7666 11.0047 12.7615 10.9632 12.7666 10.929C12.7307 10.9339 12.6948 10.9412 12.6614 10.9461C12.6768 10.9144 12.6896 10.8802 12.7127 10.8509Z" fill="white"/>
<path d="M14.4379 10.9266C14.461 10.9217 14.4918 10.907 14.5072 10.9315C14.4892 10.9901 14.4276 11.0145 14.3788 11.0389C14.194 11.1244 14.0143 11.2196 13.832 11.3124C13.8243 11.2953 13.8141 11.2807 13.8064 11.2636C13.909 11.1879 14.022 11.1317 14.1324 11.0706C14.2351 11.0194 14.3326 10.9632 14.4379 10.9266Z" fill="white"/>
<path d="M10.9593 11.0706C10.9645 11.034 10.9901 11.0072 11.0107 10.9803C11.1519 11.1341 11.2725 11.3124 11.3367 11.5151C11.3983 11.708 11.4137 11.9107 11.4522 12.1085C11.4728 12.2086 11.4907 12.3136 11.5575 12.3942C11.6011 12.4504 11.6653 12.4846 11.7269 12.5187C11.7398 12.4552 11.7552 12.3869 11.8142 12.3502C11.9939 12.2306 12.2019 12.1573 12.4072 12.0914C12.2404 12.0865 12.0709 12.0914 11.9041 12.089C11.768 12.0865 11.6319 12.0987 11.4984 12.0743C11.5036 12.023 11.5036 11.9693 11.5344 11.9229C11.596 11.8203 11.7038 11.7617 11.8065 11.708C11.9631 11.6274 12.1223 11.5566 12.2917 11.5102C12.2481 11.4638 12.1813 11.4125 12.1993 11.3368C12.2301 11.2489 12.3071 11.161 12.4047 11.1634C12.5125 11.1634 12.6177 11.2074 12.7102 11.2611C12.7666 11.2977 12.836 11.3368 12.8565 11.4052C12.8539 11.454 12.8283 11.498 12.8 11.5371C12.741 11.6103 12.6357 11.6054 12.5484 11.6152C12.5433 11.6738 12.5356 11.7446 12.4765 11.7715C12.4586 11.7251 12.4406 11.6811 12.4201 11.6347C12.207 11.6738 12.017 11.7837 11.8501 11.9156C12.3225 11.918 12.7923 11.9058 13.2647 11.9082C13.2955 11.9107 13.3263 11.9131 13.3571 11.918C13.3366 12.0426 13.2108 12.1036 13.1004 12.1305C12.877 12.1793 12.6537 12.2233 12.4303 12.2672C12.2635 12.3014 12.094 12.3405 11.9426 12.4162C11.8861 12.443 11.8399 12.4894 11.8014 12.5407C11.9118 12.5822 12.0273 12.6067 12.1428 12.6286C12.1813 12.6384 12.2352 12.6457 12.2455 12.6921C12.2609 12.7532 12.2635 12.8386 12.2044 12.8777C12.13 12.8948 12.053 12.8777 11.9785 12.8655C11.7731 12.8338 11.5755 12.7263 11.4574 12.5505C11.3675 12.4235 11.3418 12.2648 11.3187 12.1134C11.2597 12.1964 11.1981 12.2794 11.1236 12.3478C10.9234 12.5358 10.6821 12.6726 10.4305 12.7825C10.3432 12.8215 10.2328 12.8338 10.1455 12.78C10.0839 12.7434 10.0608 12.6677 10.0351 12.6042C9.80151 12.7239 9.56276 12.8386 9.30347 12.8875C9.1443 12.9168 8.98257 12.9388 8.82083 12.9363C8.90555 12.8948 8.99283 12.8631 9.07755 12.8289C9.35995 12.7117 9.6372 12.5798 9.90933 12.4382C9.9427 12.4186 9.98378 12.4015 10.0069 12.3698C10.0326 12.299 10.0351 12.2233 10.0736 12.1549C10.1121 12.0719 10.1815 12.0084 10.2559 11.9595C10.2071 12.067 10.1558 12.1769 10.1404 12.2941C10.3047 12.194 10.4613 12.0816 10.5999 11.9449C10.6359 11.9058 10.6872 11.857 10.6667 11.7984C10.641 11.7153 10.5973 11.6421 10.5665 11.5615C10.5203 11.4443 10.4638 11.3222 10.4767 11.1927C10.4793 11.1512 10.5101 11.1195 10.5306 11.0877C10.6436 11.161 10.7154 11.2807 10.7796 11.3954C10.7565 11.4003 10.7308 11.4052 10.7077 11.4101C10.7514 11.5297 10.8233 11.6372 10.8438 11.7642C10.8592 11.8618 10.8361 11.9693 10.7668 12.0426C10.5922 12.2306 10.3766 12.3722 10.1738 12.5261C10.2097 12.5456 10.2482 12.5725 10.2918 12.57C10.3766 12.5676 10.4587 12.5383 10.5357 12.5065C10.8181 12.382 11.0492 12.1744 11.2879 11.9815C11.2289 11.752 11.1236 11.5371 11.0132 11.3271C10.9747 11.2538 10.9465 11.161 10.9593 11.0706ZM12.3225 11.3735C12.3507 11.4125 12.3893 11.4443 12.4355 11.4614C12.5048 11.476 12.5715 11.4345 12.6229 11.3905C12.5587 11.3417 12.4842 11.3026 12.4021 11.3026C12.3636 11.3026 12.3225 11.3344 12.3225 11.3735Z" fill="white"/>
<path d="M7.42683 11.0706C7.4294 11.0413 7.45251 11.0096 7.48588 11.012C7.57316 11.0023 7.63478 11.0731 7.68869 11.1293C7.71693 11.1586 7.74003 11.1976 7.72206 11.2391C7.71179 11.2855 7.65788 11.2831 7.62194 11.2929C7.54493 11.2977 7.51412 11.3808 7.45507 11.4174C7.33698 11.498 7.19065 11.5615 7.04432 11.5419C7.08026 11.4907 7.13931 11.4687 7.19578 11.4516C7.30104 11.4174 7.38576 11.3417 7.46277 11.2636C7.44224 11.2001 7.41656 11.1366 7.42683 11.0706ZM7.47561 11.0804C7.48075 11.1219 7.49101 11.1659 7.51412 11.2025C7.52952 11.1683 7.54493 11.1317 7.55776 11.0975C7.53209 11.0902 7.50385 11.0853 7.47561 11.0804ZM7.59114 11.2391C7.61937 11.2367 7.64761 11.2318 7.67585 11.2294C7.67072 11.1927 7.66302 11.1561 7.64761 11.1219C7.61167 11.1488 7.60654 11.1976 7.59114 11.2391Z" fill="white"/>
<path d="M11.786 11.0902C11.8014 11.0706 11.827 11.0584 11.8476 11.0462C11.8476 11.1317 11.9092 11.1976 11.9169 11.2807C11.9246 11.3661 11.8142 11.4101 11.7475 11.371C11.7269 11.3564 11.7089 11.3393 11.691 11.3246C11.655 11.3564 11.6165 11.4028 11.5626 11.3905C11.4805 11.3759 11.4368 11.2807 11.4522 11.2025C11.4599 11.1488 11.5036 11.1146 11.5421 11.0829C11.5344 11.1341 11.5164 11.183 11.5215 11.2367C11.5267 11.2758 11.5703 11.288 11.6011 11.3051C11.6217 11.2465 11.6268 11.183 11.6371 11.1195C11.6422 11.0853 11.6833 11.0804 11.7064 11.0633C11.7089 11.1146 11.7064 11.1683 11.7218 11.2172C11.7372 11.2514 11.7731 11.2684 11.8014 11.288C11.8322 11.222 11.7885 11.1561 11.786 11.0902Z" fill="white"/>
<path d="M7.68869 11.4028C7.73233 11.3832 7.77854 11.3588 7.82732 11.3539C7.87353 11.3515 7.89663 11.4223 7.86069 11.4516C7.80678 11.4931 7.7426 11.5102 7.68099 11.5371C7.53722 11.6054 7.39346 11.6714 7.25226 11.7471C7.22146 11.7666 7.18295 11.7617 7.14957 11.7568C7.17011 11.7153 7.19835 11.6763 7.23943 11.6518C7.38833 11.5615 7.53722 11.4785 7.68869 11.4028Z" fill="white"/>
<path d="M13.0875 11.4785C13.0978 11.4296 13.1543 11.4223 13.1954 11.4076C13.2056 11.4785 13.2133 11.5517 13.257 11.6103C13.2339 11.6128 13.2108 11.6152 13.1902 11.6176C13.1594 11.664 13.126 11.7153 13.0747 11.7397C12.99 11.7813 12.895 11.7813 12.8026 11.7764C12.9001 11.7495 13.0208 11.7422 13.085 11.6543C13.1286 11.603 13.0824 11.5371 13.0875 11.4785Z" fill="white"/>
<path d="M15.0258 11.5493C15.0386 11.5102 15.0848 11.5102 15.1182 11.5151C15.1901 11.5273 15.2414 11.5883 15.2876 11.6396C15.321 11.6714 15.3313 11.7275 15.3005 11.7666C15.2543 11.8032 15.1798 11.7813 15.1387 11.8301C15.0155 11.9717 14.8255 12.0621 14.6356 12.0426C14.6715 11.9913 14.7306 11.9693 14.7896 11.9522C14.8949 11.918 14.977 11.8399 15.054 11.7642C15.0335 11.6958 15.0027 11.6225 15.0258 11.5493ZM15.0746 11.5786C15.0797 11.6225 15.09 11.6665 15.1054 11.708C15.1233 11.6738 15.1413 11.6396 15.1516 11.603C15.1259 11.5932 15.0977 11.5859 15.0746 11.5786ZM15.2235 11.6323C15.2081 11.6665 15.1978 11.7031 15.1875 11.7397C15.2158 11.7373 15.244 11.7324 15.2722 11.73C15.2645 11.6958 15.2594 11.6616 15.244 11.6299C15.2389 11.6299 15.2286 11.6323 15.2235 11.6323Z" fill="white"/>
<path d="M10.1686 11.625C10.2174 11.5786 10.3047 11.603 10.3355 11.6592C10.3509 11.6909 10.3175 11.7153 10.3047 11.7397C10.279 11.7251 10.2533 11.7056 10.2251 11.6982C10.1994 11.6909 10.1917 11.7202 10.184 11.7373C10.1532 11.8106 10.1378 11.8887 10.1147 11.9644C10.0967 11.918 10.0839 11.8716 10.0557 11.8301C10.0249 11.7861 9.97351 11.7617 9.935 11.7251C9.89906 11.6958 9.93757 11.6323 9.97864 11.6396C10.0377 11.647 10.0736 11.7007 10.1147 11.7397C10.1301 11.7007 10.1404 11.6567 10.1686 11.625Z" fill="white"/>
<path d="M7.08283 12.0499C7.1316 11.9669 7.20862 11.9034 7.29591 11.8618C7.2728 11.9229 7.23686 11.9766 7.20349 12.0303C7.17781 12.0694 7.17781 12.1158 7.17525 12.1598C7.23429 12.1573 7.29334 12.1476 7.35238 12.1353C7.33698 12.1817 7.31901 12.233 7.27537 12.2599C7.22659 12.2916 7.15728 12.3161 7.10593 12.2745C7.04945 12.2135 7.04432 12.1183 7.08283 12.0499Z" fill="white"/>
<path d="M11.1801 12.4259C11.2237 12.4186 11.2751 12.3991 11.3136 12.4308C11.3521 12.4552 11.3649 12.5187 11.329 12.5529C11.2751 12.5822 11.2058 12.5651 11.1596 12.6067C11.1673 12.6701 11.216 12.7214 11.2263 12.7825C11.2289 12.8215 11.1981 12.8533 11.1801 12.885C11.1673 12.824 11.157 12.7581 11.1236 12.7043C11.1031 12.6653 11.0723 12.6262 11.0825 12.5798C11.0928 12.5285 11.1467 12.5041 11.1852 12.4797C11.1827 12.465 11.1801 12.4455 11.1801 12.4259Z" fill="white"/>
<path d="M13.1492 12.5016C13.1697 12.4504 13.2185 12.4259 13.2621 12.3991C13.2441 12.4406 13.2133 12.4821 13.2082 12.5285C13.2287 12.5651 13.2621 12.592 13.2801 12.6311C13.2852 12.6946 13.1928 12.7043 13.1594 12.6653C13.1209 12.6213 13.126 12.5529 13.1492 12.5016Z" fill="white"/>
<path d="M12.6742 12.4308C12.7461 12.4064 12.8231 12.4308 12.8873 12.4675C12.8411 12.5627 12.7333 12.5871 12.6537 12.6457C12.6562 12.6555 12.6588 12.675 12.6588 12.6848C12.7153 12.6872 12.7743 12.6946 12.8231 12.6653C12.8873 12.6311 12.954 12.5993 13.0259 12.5847C12.9694 12.6335 12.9155 12.6824 12.8591 12.7287C12.7923 12.7825 12.6999 12.7825 12.6203 12.7605C12.5818 12.7483 12.533 12.7141 12.5459 12.6653C12.5664 12.6042 12.628 12.5725 12.6768 12.5358C12.6408 12.5334 12.6075 12.5309 12.5715 12.5285C12.5998 12.4894 12.6254 12.4406 12.6742 12.4308Z" fill="white"/>
<path d="M14.5354 12.6042C14.5098 12.5749 14.5329 12.5261 14.5688 12.5212C14.6381 12.509 14.6972 12.5651 14.728 12.6213C14.7742 12.6994 14.7716 12.7971 14.7331 12.8777C14.7203 12.8215 14.7203 12.7629 14.692 12.7117C14.6535 12.6604 14.5817 12.6506 14.5354 12.6042Z" fill="white"/>
<path d="M15.6984 12.6408C15.7934 12.6067 15.8884 12.5627 15.9911 12.5725C15.968 12.6091 15.9397 12.6433 15.8961 12.6579C15.7369 12.7165 15.5752 12.7703 15.4186 12.8362C15.3698 12.8582 15.3184 12.8753 15.2645 12.8875C15.2594 12.8728 15.2517 12.8582 15.2466 12.8435C15.3903 12.7605 15.5444 12.7019 15.6984 12.6408Z" fill="white"/>
<path d="M15.3881 15.7776H14.5974V15.7027C14.6331 15.6718 14.6816 15.6299 14.6816 15.6057C14.6816 15.5638 14.5821 15.4778 14.5592 15.4778C14.5337 15.4778 14.4367 15.566 14.4367 15.6057C14.4367 15.6321 14.4801 15.6696 14.5158 15.7005L14.5184 15.7027V15.7799H8.282C8.50391 16.0003 8.83294 15.9981 9.49356 16.0047C10.0828 16.0136 10.0802 16.0136 14.5158 16.0047V16.0841C14.4801 16.115 14.4367 16.1569 14.4367 16.1811C14.4367 16.223 14.5311 16.309 14.5592 16.309C14.577 16.309 14.6357 16.2605 14.6663 16.2186H14.9392C14.9571 16.2495 14.9979 16.2671 15.0463 16.2671C15.0948 16.2671 15.1356 16.2473 15.1535 16.2186H15.4799C15.5208 16.2649 15.5769 16.2671 15.61 16.2671C15.735 16.2627 15.7631 16.1988 15.7631 15.9783C15.7605 15.7931 15.6355 15.7732 15.3881 15.7776ZM15.4442 16.1503H15.1535C15.1356 16.1194 15.0948 16.0996 15.0463 16.0996C14.9979 16.0996 14.9571 16.1194 14.9392 16.1503H14.6714C14.6561 16.1282 14.6255 16.0996 14.6 16.0819V16.0025H15.4468C15.4315 16.0599 15.4289 16.1106 15.4442 16.1503Z" fill="white"/>
</g>
<defs>
<clipPath id="clip0_1692_54031">
<rect x="2.05078" y="6.33447" width="19.9495" height="13.2997" rx="1" fill="white"/>
</clipPath>
</defs>
</svg>
