<svg width="25" height="25" viewBox="0 0 25 25" fill="none" xmlns="http://www.w3.org/2000/svg">
<g clip-path="url(#clip0_1692_54130)">
<path d="M2.04883 6.33447H21.9983V19.6341H2.04883V6.33447Z" fill="#012A87"/>
<path d="M2.04883 6.33447H21.9983V12.9843H2.04883V6.33447Z" fill="#DC171D"/>
<path d="M2.04883 6.33447V19.6341L10.9153 12.9843L2.04883 6.33447Z" fill="white"/>
<path d="M6.54017 11.3526L6.5429 11.2491C6.5429 11.2491 6.48731 11.1606 6.55183 11.0654C6.55183 11.0654 6.41476 10.9929 6.44666 10.8793C6.44666 10.8793 6.32272 10.8477 6.33183 10.7113C6.33183 10.7113 6.19805 10.7021 6.1842 10.5882C6.1842 10.5882 6.05041 10.6102 5.99154 10.4992C5.99154 10.4992 5.86104 10.5247 5.82422 10.4332C5.82422 10.4332 5.69737 10.4772 5.62209 10.3696C5.62209 10.3696 5.48812 10.4238 5.43199 10.3223C5.37658 10.4234 5.24261 10.3696 5.24261 10.3696C5.16825 10.4768 5.04048 10.4323 5.04048 10.4323C5.00494 10.5242 4.8748 10.4981 4.8748 10.4981C4.81611 10.6091 4.68251 10.587 4.68251 10.587C4.66939 10.7006 4.53579 10.7099 4.53579 10.7099C4.54636 10.8465 4.4226 10.8775 4.4226 10.8775C4.45522 10.9911 4.31834 11.0634 4.31834 11.0634C4.38451 11.1591 4.32946 11.2469 4.32946 11.2469L4.32636 11.3424L6.54053 11.3526H6.54017Z" fill="black"/>
<path d="M6.52836 11.3534L6.53106 11.251C6.53106 11.251 6.47606 11.1634 6.5399 11.0693C6.5399 11.0693 6.40428 10.9975 6.43584 10.8852C6.43584 10.8852 6.31322 10.8538 6.32223 10.7189C6.32223 10.7189 6.18987 10.7098 6.17616 10.5971C6.17616 10.5971 6.04379 10.6189 5.98555 10.5091C5.98555 10.5091 5.85642 10.5343 5.82 10.4438C5.82 10.4438 5.69448 10.4873 5.62 10.3809C5.62 10.3809 5.48746 10.4344 5.43191 10.334C5.37709 10.4341 5.24454 10.3809 5.24454 10.3809C5.17097 10.4869 5.04455 10.4429 5.04455 10.4429C5.00939 10.5338 4.88063 10.508 4.88063 10.508C4.82256 10.6178 4.69037 10.596 4.69037 10.596C4.67739 10.7083 4.5452 10.7175 4.5452 10.7175C4.55566 10.8527 4.43321 10.8834 4.43321 10.8834C4.46549 10.9957 4.33006 11.0673 4.33006 11.0673C4.39552 11.162 4.34106 11.2489 4.34106 11.2489L4.338 11.3433L6.52872 11.3534H6.52836Z" fill="#F9D90F"/>
<path d="M5.43253 10.7332C5.49154 10.7928 5.43637 10.8254 5.38194 10.7948C5.24738 10.693 5.09012 10.6365 4.87383 10.6981C4.56306 10.6992 4.23293 10.6805 4.08198 10.8454C4.07123 10.8772 3.98695 10.997 4.31294 10.8212C4.29261 10.9428 4.44426 10.8434 4.56149 10.7882C4.48072 10.8726 4.68515 10.8865 4.81444 10.8036C4.75089 10.8888 4.86252 10.8866 4.96841 10.8871C5.1233 10.892 5.03774 11.0267 4.77265 11.0322C4.75332 11.0309 4.679 11.0657 4.77925 11.0916C4.82568 11.0939 4.78791 11.1586 4.94862 11.0762C4.93863 11.1244 5.0075 11.1151 5.10479 11.085C5.15996 11.1283 5.20475 11.0834 5.25216 11.0608C5.45521 11.1402 5.72333 11.2196 5.79546 10.9443C5.96492 10.9248 6.10519 10.8999 6.02925 10.8354C6.25001 10.9254 6.26279 10.8907 6.25944 10.8463C6.36531 10.8863 6.48845 10.9405 6.43831 10.8525C6.54009 10.8785 6.65157 10.8876 6.73849 10.9396C6.82656 10.9852 6.79806 10.9055 6.77737 10.8696C6.73227 10.7974 6.67523 10.7762 6.54662 10.7735C6.43756 10.7713 5.92648 10.6288 5.66063 10.7826C5.66063 10.7826 5.66686 10.7826 5.66219 10.7826C5.65752 10.7826 5.55176 10.6831 5.55176 10.6831C5.57609 10.6824 5.59366 10.6702 5.60775 10.652C5.71144 10.6572 5.81513 10.6473 5.91882 10.6193C5.96606 10.6046 5.993 10.6327 5.99192 10.6535C6.03514 10.5775 5.97531 10.5618 5.93126 10.5649C5.75586 10.5749 5.65056 10.5657 5.56576 10.5509C5.39763 10.4671 5.19527 10.5957 5.38223 10.7017L5.43253 10.7332Z" fill="#BC715F"/>
<path fill-rule="evenodd" clip-rule="evenodd" d="M5.5697 10.5453C5.65384 10.5599 5.75855 10.569 5.93297 10.5591C5.94437 10.5583 5.9569 10.5587 5.96864 10.561C5.98034 10.5633 5.99169 10.5677 6.00027 10.5751C6.00903 10.5827 6.01461 10.5933 6.01486 10.6071C6.01511 10.6207 6.01023 10.637 5.99914 10.6565L5.9881 10.6533C5.98889 10.6379 5.96738 10.6111 5.92266 10.625L5.92244 10.6251C5.81914 10.6529 5.71584 10.663 5.61257 10.6581C5.60067 10.6727 5.58608 10.6837 5.56719 10.6875C5.56933 10.6895 5.57178 10.6918 5.57447 10.6943C5.58446 10.7037 5.59781 10.7161 5.61131 10.7285C5.62481 10.7409 5.63844 10.7534 5.64896 10.7626C5.65423 10.7673 5.65867 10.7711 5.66192 10.7738C5.66259 10.7743 5.6632 10.7748 5.66375 10.7752C5.79829 10.6995 5.9921 10.6972 6.16506 10.7137C6.2526 10.7221 6.33519 10.7353 6.40261 10.7466C6.41021 10.7479 6.4176 10.7491 6.42478 10.7503C6.48166 10.7599 6.52511 10.7672 6.54882 10.7677C6.61329 10.769 6.66061 10.775 6.69762 10.7901C6.73495 10.8053 6.76138 10.8296 6.78447 10.8665L6.78458 10.8667C6.78991 10.876 6.79572 10.888 6.80006 10.9002C6.80434 10.9122 6.80743 10.925 6.80669 10.9356C6.80632 10.941 6.80494 10.9462 6.80179 10.9505C6.79852 10.9549 6.79375 10.9578 6.78771 10.9588C6.77626 10.9608 6.75999 10.9563 6.73785 10.9449L6.73753 10.9447C6.69486 10.9192 6.64597 10.9041 6.59471 10.8921C6.57247 10.8869 6.54988 10.8823 6.5272 10.8777C6.52374 10.877 6.52029 10.8763 6.51683 10.8756C6.49501 10.8712 6.47316 10.8666 6.45164 10.8614C6.45451 10.8677 6.45638 10.8732 6.45726 10.8781C6.45867 10.886 6.45761 10.8931 6.45283 10.8983C6.44824 10.9033 6.44136 10.9052 6.43412 10.9057C6.42675 10.9062 6.41796 10.9052 6.4083 10.9032C6.37685 10.8969 6.33222 10.8798 6.28823 10.8629C6.2814 10.8603 6.27458 10.8576 6.26784 10.8551C6.2679 10.8634 6.26692 10.8717 6.26327 10.8787C6.25792 10.8891 6.24761 10.8956 6.23105 10.8972C6.21478 10.8988 6.19177 10.8959 6.15936 10.8871C6.13165 10.8796 6.09672 10.8677 6.05277 10.8504C6.05379 10.8521 6.05468 10.8538 6.05543 10.8554C6.05913 10.8637 6.05939 10.8717 6.05608 10.8793C6.05289 10.8866 6.04666 10.8928 6.03867 10.898C6.03064 10.9033 6.02039 10.9081 6.00845 10.9123C5.96169 10.9291 5.88525 10.9401 5.80221 10.9498C5.78381 11.0174 5.75336 11.0641 5.71441 11.0945C5.67475 11.1255 5.62684 11.1392 5.57526 11.1415C5.47324 11.1462 5.35543 11.1067 5.2545 11.0673C5.24593 11.0715 5.23746 11.0764 5.22878 11.0814C5.2265 11.0828 5.22422 11.0841 5.22191 11.0854C5.21016 11.0921 5.198 11.0987 5.18547 11.1032C5.17288 11.1078 5.15967 11.1103 5.1458 11.1086C5.13268 11.107 5.11935 11.1018 5.1057 11.0916C5.0583 11.1061 5.0171 11.1159 4.98857 11.1159C4.97414 11.116 4.96166 11.1136 4.95344 11.1068C4.94725 11.1016 4.94418 11.0947 4.94386 11.0863C4.90859 11.104 4.88326 11.1143 4.86455 11.1195C4.84421 11.1251 4.83099 11.125 4.82108 11.1213C4.81314 11.1183 4.80777 11.113 4.80343 11.1087C4.8025 11.1078 4.80161 11.1069 4.80076 11.1061C4.7959 11.1016 4.79081 11.098 4.78104 11.0975L4.78044 11.0975L4.77985 11.0974C4.75463 11.0909 4.73912 11.0835 4.73109 11.0754C4.72694 11.0712 4.7245 11.0666 4.72419 11.0615C4.72388 11.0565 4.72573 11.052 4.72839 11.0483C4.73356 11.0411 4.7427 11.0356 4.75118 11.0319C4.75948 11.0284 4.76863 11.026 4.77485 11.0264C4.84054 11.025 4.89494 11.0156 4.93716 11.0023C4.97954 10.989 5.00927 10.9718 5.02593 10.9553C5.03427 10.947 5.03903 10.9391 5.04079 10.9323C5.04249 10.9256 5.04144 10.9197 5.03772 10.9146C5.03387 10.9092 5.02676 10.9041 5.01548 10.9002C5.00426 10.8963 4.98932 10.8937 4.97039 10.8931C4.96706 10.8931 4.96372 10.8931 4.96038 10.893C4.93725 10.8929 4.91395 10.8928 4.89254 10.8918C4.86808 10.8906 4.84557 10.8881 4.82824 10.8828C4.81116 10.8776 4.79719 10.869 4.79317 10.8541C4.79058 10.8445 4.79249 10.8335 4.79869 10.8209C4.73667 10.8542 4.66321 10.8679 4.61089 10.8646C4.59625 10.8637 4.58306 10.8614 4.57213 10.8577C4.56127 10.854 4.55217 10.8488 4.54628 10.8417C4.54019 10.8343 4.53789 10.8253 4.54018 10.8152C4.54101 10.8116 4.54242 10.8079 4.54441 10.8041C4.53172 10.8103 4.51878 10.8169 4.50581 10.8235C4.49555 10.8287 4.48527 10.834 4.47506 10.8391C4.44467 10.8542 4.41502 10.8682 4.38957 10.8766C4.37683 10.8809 4.36492 10.8838 4.35433 10.8847C4.34378 10.8856 4.33403 10.8846 4.32605 10.8804C4.31139 10.8727 4.30559 10.8563 4.30769 10.8319C4.23155 10.8726 4.17844 10.8966 4.14182 10.9092C4.12271 10.9158 4.10785 10.9194 4.0964 10.9204C4.08508 10.9215 4.07626 10.9202 4.07004 10.9161C4.06344 10.9118 4.06089 10.9052 4.06056 10.8984C4.06023 10.8918 4.06192 10.8846 4.06416 10.8779C4.06643 10.8711 4.06944 10.8643 4.07214 10.8583C4.0725 10.8575 4.07285 10.8567 4.0732 10.8559C4.0755 10.8509 4.0774 10.8467 4.07846 10.8435L4.07886 10.8423L4.0797 10.8414C4.15668 10.7573 4.27879 10.7206 4.41938 10.7045C4.53265 10.6915 4.65893 10.6918 4.78479 10.6922C4.81497 10.6922 4.84513 10.6923 4.87508 10.6922C5.09291 10.6305 5.25175 10.6874 5.38726 10.7899C5.40001 10.797 5.4126 10.8003 5.42334 10.8006C5.43427 10.8009 5.44278 10.798 5.44792 10.7935C5.4528 10.7891 5.45535 10.7826 5.45346 10.7736C5.45153 10.7643 5.44489 10.7522 5.43088 10.7379L5.38128 10.7069C5.33402 10.68 5.30981 10.651 5.30466 10.6228C5.29942 10.5941 5.31419 10.5687 5.33945 10.5504C5.38956 10.5141 5.48415 10.503 5.5697 10.5453ZM5.66601 10.7875L5.666 10.7885H5.64069L5.65277 10.7815C5.64958 10.7789 5.64561 10.7755 5.64114 10.7715C5.63052 10.7621 5.61682 10.7497 5.6033 10.7372C5.58978 10.7248 5.5764 10.7123 5.5664 10.703C5.56141 10.6983 5.55725 10.6944 5.55435 10.6917L5.54981 10.6874L5.53934 10.6776L5.55368 10.6772C5.57573 10.6766 5.59179 10.6657 5.60516 10.6484L5.60705 10.646L5.61013 10.6461C5.7132 10.6513 5.81623 10.6415 5.91925 10.6137C5.95795 10.6017 5.9861 10.6168 5.99603 10.6365C6.00118 10.6247 6.00318 10.6151 6.00304 10.6073C6.00285 10.5969 5.99882 10.5895 5.99253 10.5841C5.98604 10.5785 5.97688 10.5747 5.96632 10.5726C5.95582 10.5705 5.94437 10.5701 5.93377 10.5709L5.93368 10.5709C5.7579 10.5808 5.65214 10.5717 5.56683 10.5568L5.56597 10.5567L5.5652 10.5563C5.48282 10.5152 5.3926 10.5265 5.34639 10.56C5.32341 10.5766 5.31214 10.598 5.31629 10.6206C5.32051 10.6438 5.34108 10.6705 5.38722 10.6966L5.38745 10.6968L5.43833 10.7286L5.43881 10.7291C5.45398 10.7445 5.46244 10.7586 5.46504 10.7711C5.4677 10.784 5.46412 10.7949 5.45578 10.8023C5.44771 10.8095 5.43591 10.8128 5.42303 10.8124C5.41005 10.8121 5.39547 10.8081 5.38112 10.8L5.38077 10.7998L5.38045 10.7996C5.24707 10.6986 5.09171 10.6429 4.87753 10.7038L4.87675 10.704L4.87593 10.704C4.84552 10.7041 4.81496 10.7041 4.78442 10.704C4.65862 10.7037 4.53324 10.7033 4.42073 10.7162C4.28133 10.7322 4.16326 10.7684 4.08923 10.8485C4.08793 10.8521 4.08598 10.8564 4.08395 10.8609C4.08361 10.8616 4.08326 10.8624 4.08292 10.8631C4.08022 10.8691 4.07743 10.8755 4.07538 10.8816C4.0733 10.8879 4.07215 10.8934 4.07237 10.8978C4.07257 10.902 4.07392 10.9046 4.07649 10.9062C4.07944 10.9082 4.08505 10.9096 4.0953 10.9087C4.10544 10.9077 4.1193 10.9045 4.13797 10.8981C4.17529 10.8852 4.23081 10.8599 4.31221 10.816L4.32284 10.8103L4.32085 10.8222C4.31584 10.8522 4.32204 10.8649 4.33154 10.8699C4.33675 10.8726 4.34395 10.8737 4.35331 10.8729C4.36263 10.8721 4.37358 10.8695 4.38585 10.8654C4.41042 10.8573 4.43939 10.8437 4.46978 10.8285C4.47981 10.8235 4.49001 10.8183 4.50022 10.8131C4.52078 10.8026 4.54143 10.7921 4.56105 10.7829L4.56784 10.7923C4.55812 10.8025 4.55327 10.811 4.55171 10.8179C4.55023 10.8244 4.55165 10.8297 4.55539 10.8342C4.55933 10.8389 4.56615 10.8432 4.57591 10.8465C4.58559 10.8497 4.59771 10.8519 4.61165 10.8528C4.66763 10.8564 4.7498 10.8394 4.81333 10.7987L4.82126 10.8072C4.80557 10.8282 4.80216 10.8421 4.80459 10.851C4.80693 10.8597 4.81557 10.8666 4.8317 10.8715C4.84756 10.8764 4.86885 10.8788 4.89312 10.88C4.91425 10.881 4.93725 10.8811 4.96042 10.8812C4.96379 10.8812 4.96716 10.8813 4.97053 10.8813L4.97068 10.8813C4.99043 10.8819 5.00667 10.8846 5.01937 10.889C5.03202 10.8934 5.04157 10.8996 5.04733 10.9077C5.05323 10.9159 5.05476 10.9254 5.05224 10.9352C5.04978 10.9448 5.04352 10.9545 5.03427 10.9637C5.01577 10.9821 4.98409 10.9999 4.94071 11.0136C4.89722 11.0273 4.84161 11.0368 4.77486 11.0382L4.77459 11.0382L4.77432 11.0382C4.77088 11.0379 4.76365 11.0394 4.75584 11.0428C4.74808 11.0461 4.74129 11.0506 4.73799 11.0552C4.73642 11.0574 4.7359 11.0592 4.73599 11.0608C4.73608 11.0623 4.73681 11.0644 4.73948 11.0671C4.74507 11.0727 4.75771 11.0794 4.78224 11.0858C4.7953 11.0866 4.80276 11.0919 4.8088 11.0975C4.81009 11.0987 4.81126 11.0998 4.81237 11.1009C4.81657 11.105 4.81985 11.1082 4.82524 11.1102C4.83178 11.1126 4.84215 11.1134 4.86139 11.1081C4.8806 11.1027 4.90795 11.0915 4.948 11.071L4.95899 11.0654L4.95649 11.0774C4.95427 11.0882 4.95664 11.0941 4.96098 11.0977C4.9659 11.1017 4.97484 11.1041 4.98854 11.1041C5.01569 11.104 5.05645 11.0945 5.10512 11.0794L5.10808 11.0785L5.11052 11.0804C5.12359 11.0907 5.13573 11.0955 5.14721 11.0969C5.15874 11.0983 5.17004 11.0962 5.18147 11.0921C5.19295 11.088 5.20433 11.0818 5.21603 11.0751C5.21824 11.0739 5.22045 11.0726 5.22268 11.0713C5.23216 11.0658 5.24189 11.0602 5.2517 11.0555L5.25401 11.0544L5.25639 11.0554C5.35799 11.0951 5.47469 11.1343 5.57472 11.1297C5.62456 11.1274 5.6699 11.1143 5.70714 11.0852C5.74435 11.0561 5.77404 11.0107 5.79182 10.9428L5.79285 10.9389L5.79686 10.9385C5.88175 10.9287 5.95847 10.9176 6.00447 10.9012C6.01591 10.8971 6.0252 10.8928 6.03215 10.8882C6.03915 10.8836 6.04333 10.879 6.04525 10.8746C6.04706 10.8704 6.04715 10.8658 6.04465 10.8603C6.04205 10.8545 6.03666 10.8477 6.02751 10.84L6.03356 10.83C6.08864 10.8524 6.13058 10.8671 6.16245 10.8757C6.19442 10.8843 6.21578 10.8868 6.22989 10.8854C6.2437 10.8841 6.24976 10.8791 6.25276 10.8733C6.2561 10.8668 6.25646 10.8579 6.25563 10.8468L6.25493 10.8375L6.26361 10.8408C6.27333 10.8445 6.28315 10.8483 6.29294 10.852C6.33692 10.8689 6.38026 10.8856 6.41062 10.8916C6.41984 10.8935 6.42748 10.8943 6.43337 10.8939C6.43939 10.8935 6.44258 10.892 6.44414 10.8903C6.4455 10.8888 6.44666 10.8861 6.44562 10.8802C6.44457 10.8743 6.44138 10.8662 6.43525 10.8555L6.42835 10.8434L6.44185 10.8468C6.46714 10.8533 6.49307 10.8587 6.51919 10.864C6.52263 10.8647 6.52608 10.8654 6.52953 10.8661C6.55221 10.8707 6.57498 10.8754 6.5974 10.8806C6.64899 10.8926 6.69924 10.908 6.74345 10.9345C6.76524 10.9457 6.77839 10.9484 6.7857 10.9471C6.78906 10.9466 6.791 10.9452 6.79227 10.9435C6.79365 10.9416 6.79462 10.9388 6.7949 10.9348C6.79546 10.9267 6.79305 10.9157 6.78892 10.9041C6.78486 10.8927 6.77939 10.8814 6.77438 10.8727C6.75238 10.8375 6.72775 10.8151 6.69316 10.801C6.65823 10.7868 6.61272 10.7808 6.54858 10.7795C6.52393 10.779 6.4795 10.7715 6.42308 10.762C6.4158 10.7608 6.40832 10.7595 6.40066 10.7583C6.33328 10.747 6.25104 10.7338 6.16394 10.7255C5.9895 10.7088 5.79716 10.7119 5.66601 10.7875Z" fill="black"/>
<path d="M5.47413 10.5844C5.43895 10.5897 5.40263 10.5939 5.38859 10.6182C5.38962 10.5781 5.4493 10.5754 5.47413 10.5844Z" fill="black"/>
<path d="M5.45546 10.6147C5.46384 10.6147 5.47063 10.6078 5.47063 10.5992C5.47063 10.5906 5.46384 10.5836 5.45546 10.5836C5.44709 10.5836 5.4403 10.5906 5.4403 10.5992C5.4403 10.6078 5.44709 10.6147 5.45546 10.6147Z" fill="black"/>
<path d="M3.54111 11.0864C3.61054 11.4805 3.68761 11.8844 3.7255 12.2969C3.80799 12.9079 3.43633 13.4209 3.58879 14.0245C3.6798 14.3141 3.99832 14.4825 4.28984 14.5159C4.67657 14.5889 5.14408 14.5161 5.42636 14.8053C5.70865 14.516 6.17616 14.5889 6.56289 14.5159C6.8544 14.4825 7.17292 14.3141 7.26393 14.0245C7.4164 13.4209 7.04473 12.9079 7.12722 12.2969C7.16511 11.8844 7.24218 11.4805 7.31162 11.0864C6.63089 11.456 5.95827 10.9752 5.42636 11.2826C4.89446 10.9752 4.22184 11.456 3.54111 11.0864Z" fill="#DC171D"/>
<path fill-rule="evenodd" clip-rule="evenodd" d="M7.32156 11.0747L7.31943 11.0868C7.31066 11.1366 7.30177 11.1865 7.29284 11.2366C7.23114 11.583 7.16818 11.9366 7.1351 12.2968L7.13508 12.297L7.13507 12.297C7.09673 12.581 7.15688 12.8437 7.21679 13.1055C7.22107 13.1242 7.22534 13.1428 7.22957 13.1615C7.29312 13.4416 7.34827 13.722 7.27165 14.0253L7.27157 14.0256L7.27156 14.0256C7.17958 14.3183 6.85837 14.4875 6.56576 14.521C6.4688 14.5393 6.36685 14.5485 6.2643 14.5565C6.24872 14.5577 6.23312 14.5588 6.21753 14.56C6.13031 14.5666 6.04311 14.5732 5.95824 14.5847C5.75817 14.6117 5.57234 14.6656 5.43259 14.8088L5.42836 14.8131L5.42412 14.8088C5.28437 14.6656 5.09854 14.6117 4.89847 14.5847C4.8136 14.5733 4.7264 14.5666 4.63918 14.56C4.62359 14.5588 4.60799 14.5577 4.59241 14.5565C4.48985 14.5485 4.38791 14.5393 4.29095 14.521C3.99834 14.4875 3.67713 14.3183 3.58515 14.0256L3.58505 14.0253L3.58505 14.0253C3.50844 13.722 3.56359 13.4416 3.62713 13.1615C3.63137 13.1428 3.63564 13.1242 3.63992 13.1055C3.69983 12.8437 3.75998 12.581 3.72164 12.297L3.7216 12.2968L3.72161 12.2968C3.68853 11.9366 3.62556 11.583 3.56386 11.2366C3.55494 11.1865 3.54605 11.1366 3.53728 11.0868L3.5431 11.0857L3.54592 11.0806C3.88451 11.2644 4.22114 11.2369 4.54088 11.2013C4.55663 11.1995 4.57233 11.1978 4.58799 11.196C4.88867 11.1621 5.17434 11.1298 5.42835 11.2751C5.68237 11.1298 5.96804 11.1621 6.26871 11.196C6.28438 11.1978 6.30008 11.1995 6.31583 11.2013C6.63557 11.2369 6.9722 11.2644 7.31079 11.0806L7.32156 11.0747ZM3.55104 11.0967C3.55912 11.1425 3.56729 11.1884 3.57549 11.2345C3.63718 11.5808 3.70024 11.9349 3.73337 12.2956C3.77197 12.5817 3.71137 12.8464 3.65153 13.1077C3.64723 13.1265 3.64292 13.1453 3.63866 13.1641C3.57513 13.4441 3.52069 13.722 3.59648 14.0222C3.68656 14.3086 4.00219 14.4761 4.29251 14.5093L4.29272 14.5093L4.29293 14.5094C4.38926 14.5276 4.49071 14.5367 4.59333 14.5447C4.60886 14.5459 4.62442 14.5471 4.64 14.5482C4.7272 14.5548 4.81481 14.5615 4.90005 14.573C5.099 14.5999 5.28632 14.6534 5.42835 14.7962C5.57039 14.6534 5.75771 14.5998 5.95666 14.573C6.0419 14.5615 6.12949 14.5548 6.2167 14.5482C6.23228 14.547 6.24784 14.5459 6.26338 14.5447C6.366 14.5367 6.46745 14.5276 6.56378 14.5094L6.56399 14.5093L6.5642 14.5093C6.85452 14.4761 7.17015 14.3086 7.26023 14.0222C7.33602 13.722 7.28158 13.4441 7.21804 13.1641C7.21378 13.1453 7.20948 13.1265 7.20518 13.1077C7.14534 12.8464 7.08473 12.5817 7.12334 12.2956C7.15647 11.9349 7.21952 11.5809 7.28121 11.2345C7.28941 11.1884 7.29759 11.1425 7.30567 11.0967C6.96716 11.2761 6.63089 11.2482 6.31452 11.213C6.29917 11.2113 6.28386 11.2096 6.26861 11.2079C5.96559 11.1737 5.68259 11.1418 5.43131 11.287L5.42835 11.2888L5.4254 11.287C5.17412 11.1418 4.89112 11.1737 4.5881 11.2079C4.57285 11.2096 4.55754 11.2113 4.54219 11.213C4.22582 11.2482 3.88955 11.2761 3.55104 11.0967Z" fill="black"/>
<path d="M3.79715 11.4038C3.85712 11.7289 3.92369 12.0622 3.95642 12.4025C4.02766 12.9067 3.70665 13.3299 3.83834 13.8279C3.91694 14.0669 4.19205 14.2058 4.44384 14.2333C4.77785 14.2936 5.18165 14.2335 5.42546 14.4722C5.66927 14.2335 6.07306 14.2936 6.40708 14.2333C6.65887 14.2058 6.93397 14.0669 7.01258 13.8279C7.14426 13.3299 6.82326 12.9067 6.8945 12.4025C6.92723 12.0622 6.99379 11.7289 7.05377 11.4038C6.46581 11.7087 5.88487 11.3121 5.42546 11.5657C4.96605 11.3121 4.3851 11.7087 3.79715 11.4038Z" fill="#62AFE1"/>
<path fill-rule="evenodd" clip-rule="evenodd" d="M3.78923 11.3931L3.79997 11.3986C4.09222 11.5502 4.38281 11.5275 4.65898 11.4982C4.6726 11.4967 4.68619 11.4953 4.69974 11.4938C4.95925 11.4658 5.20605 11.4392 5.42556 11.559C5.64507 11.4392 5.89187 11.4658 6.15137 11.4938C6.16493 11.4953 6.17851 11.4967 6.19213 11.4982C6.46831 11.5275 6.75889 11.5502 7.05114 11.3986L7.06188 11.3931L7.05969 11.405C7.05211 11.4461 7.04443 11.4873 7.03672 11.5286C6.98343 11.8144 6.92906 12.1061 6.90049 12.4032L6.90047 12.4035L6.90046 12.4035C6.86738 12.6375 6.91928 12.8541 6.97103 13.0701C6.97472 13.0855 6.97841 13.1009 6.98206 13.1162C7.03695 13.3473 7.08466 13.5789 7.0184 13.8295L7.01831 13.8299L7.0183 13.8299C6.97845 13.951 6.88889 14.0465 6.77798 14.115C6.66714 14.1836 6.53464 14.2254 6.40803 14.2393C6.32425 14.2544 6.23618 14.262 6.14761 14.2685C6.13415 14.2695 6.12067 14.2705 6.1072 14.2715C6.03187 14.2769 5.95658 14.2824 5.8833 14.2918C5.71051 14.3141 5.55021 14.3585 5.4297 14.4765L5.42556 14.4806L5.42142 14.4765C5.30091 14.3585 5.1406 14.3141 4.96782 14.2918C4.89454 14.2824 4.81924 14.2769 4.74392 14.2715C4.73044 14.2705 4.71697 14.2695 4.7035 14.2685C4.61493 14.262 4.52686 14.2544 4.44309 14.2393C4.31648 14.2254 4.18398 14.1836 4.07313 14.115C3.96222 14.0465 3.87267 13.951 3.83281 13.8299L3.8327 13.8295L3.83271 13.8295C3.76645 13.5789 3.81417 13.3473 3.86905 13.1162C3.87271 13.1009 3.87639 13.0855 3.88008 13.0701C3.93184 12.8541 3.98373 12.6375 3.95065 12.4035L3.95062 12.4032L3.95062 12.4032C3.92205 12.1061 3.86768 11.8144 3.81438 11.5285C3.80668 11.4872 3.799 11.446 3.79143 11.405L3.78923 11.3931ZM3.80525 11.4146C3.81211 11.4518 3.81905 11.489 3.82602 11.5263C3.8793 11.8121 3.93377 12.1043 3.9624 12.4019C3.99576 12.6383 3.94336 12.8569 3.89169 13.0724C3.88797 13.088 3.88425 13.1035 3.88057 13.119C3.82569 13.35 3.77876 13.579 3.84412 13.8263C3.8829 13.9441 3.97016 14.0375 4.07936 14.105C4.1886 14.1725 4.31946 14.2139 4.44458 14.2275L4.44499 14.2276L4.44499 14.2276C4.52816 14.2426 4.61575 14.2501 4.70438 14.2567C4.7178 14.2577 4.73124 14.2587 4.7447 14.2597C4.82002 14.2651 4.89569 14.2706 4.96933 14.2801C5.14096 14.3022 5.30274 14.3463 5.42556 14.464C5.54837 14.3463 5.71016 14.3022 5.88178 14.2801C5.95542 14.2706 6.0311 14.2651 6.10642 14.2597C6.11987 14.2587 6.13332 14.2577 6.14674 14.2567C6.23537 14.2501 6.32296 14.2426 6.40613 14.2276L6.40653 14.2275L6.40654 14.2275C6.53165 14.2139 6.66251 14.1725 6.77176 14.105C6.88095 14.0375 6.96822 13.9441 7.007 13.8263C7.07236 13.579 7.02542 13.35 6.97054 13.119C6.96686 13.1035 6.96314 13.088 6.95942 13.0724C6.90775 12.8569 6.85535 12.6383 6.88872 12.4019C6.91734 12.1043 6.97181 11.8121 7.02509 11.5264C7.03205 11.489 7.039 11.4518 7.04586 11.4146C6.75378 11.5619 6.46368 11.5389 6.19088 11.51C6.17765 11.5085 6.16445 11.5071 6.15131 11.5057C5.88951 11.4775 5.64526 11.4512 5.42842 11.5709L5.42556 11.5725L5.4227 11.5709C5.20585 11.4512 4.96161 11.4775 4.69981 11.5057C4.68666 11.5071 4.67347 11.5085 4.66023 11.51C4.38743 11.5389 4.09734 11.5619 3.80525 11.4146Z" fill="black"/>
<path d="M5.10791 12.3154L4.41995 12.7869V13.3546H6.43412V12.7869L5.74615 12.3154H5.10791Z" fill="white"/>
<path fill-rule="evenodd" clip-rule="evenodd" d="M5.10342 12.3018H5.7499L6.44705 12.7795V13.3675H4.40628V12.7795L5.10342 12.3018ZM5.11166 12.3284L4.43288 12.7936V13.3409H6.42044V12.7936L5.74166 12.3284H5.11166Z" fill="black"/>
<path d="M4.25589 13.2607V13.3693H4.32214V13.9267H6.53062V13.3693H6.59686V13.2607H4.25589Z" fill="white"/>
<path fill-rule="evenodd" clip-rule="evenodd" d="M4.24026 13.2471H6.60784V13.3822H6.54159V13.9397H4.30651V13.3822H4.24026V13.2471ZM4.26687 13.2737V13.3556H4.33312V13.9131H6.51499V13.3556H6.58124V13.2737H4.26687Z" fill="black"/>
<path d="M5.43044 11.7002L5.11136 12.0108V12.315H5.7496V12.0108L5.43044 11.7002Z" fill="white"/>
<path fill-rule="evenodd" clip-rule="evenodd" d="M5.42812 11.6816L5.76058 12.0052V12.3283H5.09573V12.0052L5.42812 11.6816ZM5.42812 11.7188L5.12234 12.0164V12.3017H5.73397V12.0164L5.42812 11.7188Z" fill="black"/>
<path fill-rule="evenodd" clip-rule="evenodd" d="M4.50784 12.8506H4.73625V13.1968H4.50784V12.8506ZM4.53445 12.8772V13.1702H4.70965V12.8772H4.53445Z" fill="black"/>
<path fill-rule="evenodd" clip-rule="evenodd" d="M5.08074 12.8506H5.30915V13.1968H5.08074V12.8506ZM5.10734 12.8772V13.1702H5.28255V12.8772H5.10734Z" fill="black"/>
<path fill-rule="evenodd" clip-rule="evenodd" d="M6.12129 12.8506H6.34971V13.1968H6.12129V12.8506ZM6.1479 12.8772V13.1702H6.3231V12.8772H6.1479Z" fill="black"/>
<path fill-rule="evenodd" clip-rule="evenodd" d="M5.54844 12.8506H5.77685V13.1968H5.54844V12.8506ZM5.57504 12.8772V13.1702H5.75025V12.8772H5.57504Z" fill="black"/>
<path fill-rule="evenodd" clip-rule="evenodd" d="M4.50784 13.4063H4.73625V13.7525H4.50784V13.4063ZM4.53445 13.4329V13.7259H4.70965V13.4329H4.53445Z" fill="black"/>
<path fill-rule="evenodd" clip-rule="evenodd" d="M6.12129 13.4063H6.34971V13.7525H6.12129V13.4063ZM6.1479 13.4329V13.7259H6.3231V13.4329H6.1479Z" fill="black"/>
<path fill-rule="evenodd" clip-rule="evenodd" d="M5.25731 13.3882H5.60028V13.9398H5.25731V13.3882ZM5.28391 13.4148V13.9132H5.57367V13.4148H5.28391Z" fill="black"/>
<path fill-rule="evenodd" clip-rule="evenodd" d="M4.93154 13.2472H5.10002V13.9398H4.93154V13.2472ZM4.95815 13.2738V13.9132H5.07342V13.2738H4.95815Z" fill="black"/>
<path fill-rule="evenodd" clip-rule="evenodd" d="M5.75765 13.2472H5.92619V13.9398H5.75765V13.2472ZM5.78425 13.2738V13.9132H5.89959V13.2738H5.78425Z" fill="black"/>
<path d="M5.96412 13.2827V13.1182H4.89066V13.2827H5.96412Z" fill="white"/>
<path fill-rule="evenodd" clip-rule="evenodd" d="M4.87889 13.1055H5.97896V13.2966H4.87889V13.1055ZM4.90549 13.1321V13.27H5.95235V13.1321H4.90549Z" fill="black"/>
<path fill-rule="evenodd" clip-rule="evenodd" d="M5.74615 12.0242H5.10791V11.9976H5.74615V12.0242Z" fill="black"/>
<path fill-rule="evenodd" clip-rule="evenodd" d="M6.43412 12.7999H4.41995V12.7733H6.43412V12.7999Z" fill="black"/>
<path fill-rule="evenodd" clip-rule="evenodd" d="M5.29192 12.0634H5.56207V12.2625H5.29192V12.0634ZM5.31852 12.09V12.2359H5.53546V12.09H5.31852Z" fill="black"/>
<path d="M4.20316 13.8564H6.6453V14.029H4.20316V13.8564Z" fill="white"/>
<path fill-rule="evenodd" clip-rule="evenodd" d="M4.19144 13.8428H6.66018V14.042H4.19144V13.8428ZM4.21804 13.8694V14.0154H6.63358V13.8694H4.21804Z" fill="black"/>
<path fill-rule="evenodd" clip-rule="evenodd" d="M4.95528 13.2827V13.1182H4.98484V13.2827H4.95528Z" fill="black"/>
<path fill-rule="evenodd" clip-rule="evenodd" d="M5.87539 13.2827V13.1182H5.90495V13.2827H5.87539Z" fill="black"/>
<path fill-rule="evenodd" clip-rule="evenodd" d="M5.79871 13.2827V13.1182H5.82827V13.2827H5.79871Z" fill="black"/>
<path fill-rule="evenodd" clip-rule="evenodd" d="M5.72204 13.2827V13.1182H5.7516V13.2827H5.72204Z" fill="black"/>
<path fill-rule="evenodd" clip-rule="evenodd" d="M5.64534 13.2827V13.1182H5.6749V13.2827H5.64534Z" fill="black"/>
<path fill-rule="evenodd" clip-rule="evenodd" d="M5.56866 13.2827V13.1182H5.59822V13.2827H5.56866Z" fill="black"/>
<path fill-rule="evenodd" clip-rule="evenodd" d="M5.49199 13.2827V13.1182H5.52154V13.2827H5.49199Z" fill="black"/>
<path fill-rule="evenodd" clip-rule="evenodd" d="M5.41531 13.2827V13.1182H5.44487V13.2827H5.41531Z" fill="black"/>
<path fill-rule="evenodd" clip-rule="evenodd" d="M5.33863 13.2827V13.1182H5.36819V13.2827H5.33863Z" fill="black"/>
<path fill-rule="evenodd" clip-rule="evenodd" d="M5.26196 13.2827V13.1182H5.29152V13.2827H5.26196Z" fill="black"/>
<path fill-rule="evenodd" clip-rule="evenodd" d="M5.18528 13.2827V13.1182H5.21484V13.2827H5.18528Z" fill="black"/>
<path fill-rule="evenodd" clip-rule="evenodd" d="M5.1086 13.2827V13.1182H5.13816V13.2827H5.1086Z" fill="black"/>
<path fill-rule="evenodd" clip-rule="evenodd" d="M5.03193 13.2827V13.1182H5.06149V13.2827H5.03193Z" fill="black"/>
<path fill-rule="evenodd" clip-rule="evenodd" d="M5.95354 13.2827V13.1294H5.98014V13.2827H5.95354Z" fill="black"/>
<path d="M4.38319 11.6699C4.53551 11.7671 4.60754 11.857 4.6079 11.9403C4.41833 11.9303 4.24692 11.841 4.38319 11.6699Z" fill="#008830"/>
<path fill-rule="evenodd" clip-rule="evenodd" d="M4.38058 11.6611L4.38565 11.6644C4.46214 11.7132 4.51885 11.7604 4.55656 11.8062C4.59428 11.852 4.61326 11.8967 4.61345 11.9404L4.61348 11.9475L4.60641 11.9471C4.51114 11.942 4.41898 11.9171 4.36773 11.8705C4.34187 11.8471 4.3262 11.8178 4.32634 11.783C4.32648 11.7484 4.34223 11.7093 4.37683 11.6658L4.38058 11.6611ZM4.38357 11.6789C4.35272 11.719 4.33982 11.7537 4.33971 11.7831C4.33958 11.8134 4.35306 11.8392 4.37672 11.8607C4.42328 11.9029 4.50832 11.9275 4.59987 11.9333C4.59779 11.8958 4.58053 11.8563 4.54624 11.8147C4.51058 11.7714 4.45679 11.7261 4.38357 11.6789Z" fill="black"/>
<path d="M4.50869 11.7568C4.65538 11.8403 4.73803 11.9311 4.76352 12.0286C4.61451 12.0545 4.45553 11.9842 4.50869 11.7568Z" fill="#008830"/>
<path fill-rule="evenodd" clip-rule="evenodd" d="M4.50308 11.748L4.51086 11.7525C4.65823 11.8363 4.7427 11.9284 4.76885 12.0284L4.77069 12.0354L4.76353 12.0366C4.68789 12.0498 4.60865 12.0387 4.5549 11.9943C4.50065 11.9495 4.47408 11.8721 4.50105 11.7568L4.50308 11.748ZM4.5121 11.7686C4.48928 11.8756 4.51551 11.9444 4.56341 11.984C4.61146 12.0237 4.68295 12.0355 4.75396 12.0247C4.72752 11.934 4.64958 11.8483 4.5121 11.7686Z" fill="black"/>
<path d="M4.31401 11.9004C4.33376 12.068 4.30958 12.1884 4.24618 12.2667C4.13696 12.1621 4.09935 11.9924 4.31401 11.9004Z" fill="#008830"/>
<path fill-rule="evenodd" clip-rule="evenodd" d="M4.32237 11.8906L4.32342 11.8995C4.34326 12.0679 4.31919 12.1905 4.25415 12.2708L4.24958 12.2764L4.24434 12.2714C4.1889 12.2183 4.15082 12.148 4.15474 12.0783C4.1587 12.0081 4.20525 11.9408 4.31415 11.8941L4.32237 11.8906ZM4.24831 12.2566C4.19751 12.2058 4.16458 12.1413 4.16809 12.0791C4.17158 12.017 4.21146 11.9551 4.31117 11.9101C4.32847 12.068 4.30562 12.1816 4.24831 12.2566Z" fill="black"/>
<path d="M4.31882 11.9004C4.45661 11.9978 4.52995 12.0963 4.54575 12.1958C4.39491 12.207 4.2436 12.1215 4.31882 11.9004Z" fill="#008830"/>
<path fill-rule="evenodd" clip-rule="evenodd" d="M4.3144 11.8901L4.3217 11.8953C4.46013 11.9932 4.53517 12.0931 4.55138 12.1952L4.55252 12.2023L4.54527 12.2029C4.46871 12.2086 4.39094 12.1898 4.3418 12.1403C4.29221 12.0903 4.27336 12.0108 4.31152 11.8986L4.3144 11.8901ZM4.32135 11.9115C4.28815 12.0157 4.3075 12.0868 4.35129 12.1309C4.39521 12.1751 4.4652 12.1938 4.53692 12.19C4.51951 12.0973 4.45035 12.0043 4.32135 11.9115Z" fill="black"/>
<path d="M4.40624 11.7666L4.46973 11.8062L4.53787 11.7995L4.56646 11.8466C4.56646 11.8466 4.55879 11.9433 4.55875 11.9522C4.55869 11.961 4.5798 12.0151 4.5798 12.0151L4.53342 12.0488L4.4092 12.0997L4.29302 12.0053L4.21978 12.0129L4.18767 11.922L4.22376 11.8444L4.31443 11.7855L4.40624 11.7666Z" fill="#008830"/>
<path fill-rule="evenodd" clip-rule="evenodd" d="M4.40691 11.7598L4.47074 11.7996L4.5408 11.7927L4.57269 11.8452L4.57252 11.8474L4.57132 11.8626C4.5706 11.8718 4.56964 11.8842 4.56868 11.8968C4.56674 11.9223 4.56485 11.9484 4.56482 11.9525C4.56482 11.9525 4.56482 11.9525 4.56482 11.9525C4.56483 11.9525 4.56485 11.9528 4.56495 11.9535C4.56507 11.9541 4.56526 11.955 4.56552 11.9561C4.56604 11.9582 4.56682 11.9609 4.56779 11.964C4.56971 11.9702 4.57231 11.9777 4.57493 11.9849C4.57755 11.9922 4.58017 11.9992 4.58214 12.0044C4.58313 12.007 4.58395 12.0091 4.58452 12.0106L4.58519 12.0123L4.58542 12.0129C4.58542 12.0129 4.58542 12.0129 4.57919 12.0154L4.58542 12.0129L4.58729 12.0177L4.53609 12.0549L4.40746 12.1076L4.29035 12.0125L4.21463 12.0204L4.17986 11.9219L4.21791 11.8401L4.31124 11.7795L4.40691 11.7598ZM4.57111 12.013C4.57068 12.0119 4.57019 12.0106 4.56965 12.0091C4.56766 12.0039 4.56501 11.9968 4.56236 11.9895C4.55971 11.9821 4.55704 11.9744 4.55503 11.968C4.55402 11.9648 4.55316 11.9618 4.55254 11.9593C4.55198 11.957 4.55145 11.9544 4.55146 11.9524M4.57111 12.013L4.52954 12.0432L4.40973 12.0923L4.29448 11.9987L4.22373 12.006L4.19427 11.9225L4.2284 11.8492L4.31641 11.7921L4.40437 11.7739L4.46752 11.8134L4.53374 11.8068L4.55902 11.8485" fill="black"/>
<path d="M4.28964 11.8147C4.22994 11.9725 4.15298 12.0683 4.06063 12.1086C4.0119 11.9654 4.05672 11.7975 4.28964 11.8147Z" fill="#008830"/>
<path fill-rule="evenodd" clip-rule="evenodd" d="M4.06369 12.0997C4.14912 12.0596 4.22174 11.9693 4.27919 11.8211C4.16993 11.8152 4.106 11.8518 4.0743 11.9052C4.0425 11.9588 4.042 12.0313 4.06369 12.0997ZM4.0628 11.8984C4.0987 11.8379 4.17101 11.7996 4.28917 11.8084L4.29809 11.809L4.29492 11.8174C4.23495 11.976 4.15709 12.0737 4.06234 12.115L4.05568 12.1179L4.05334 12.111C4.0286 12.0384 4.02723 11.9584 4.0628 11.8984Z" fill="black"/>
<path d="M4.2869 11.8279C4.12131 11.7953 4.01409 11.7354 3.95898 11.651C4.09207 11.5792 4.26515 11.5954 4.2869 11.8279Z" fill="#008830"/>
<path fill-rule="evenodd" clip-rule="evenodd" d="M3.97061 11.6533C4.02444 11.7309 4.12557 11.7874 4.28125 11.8194C4.26893 11.7107 4.22221 11.6538 4.16421 11.6314C4.10603 11.609 4.03452 11.6206 3.97061 11.6533ZM4.28883 11.8278L4.29548 11.8271C4.28444 11.7092 4.2347 11.6443 4.16902 11.619C4.10394 11.5939 4.02528 11.6085 3.95773 11.645L3.95134 11.6485L3.95531 11.6545C4.01185 11.7411 4.12118 11.8016 4.28753 11.8343L4.28883 11.8278Z" fill="black"/>
<path d="M4.60368 11.8334C4.77179 11.8483 4.89148 11.8207 4.96795 11.7551C4.86022 11.6489 4.68948 11.6162 4.60368 11.8334Z" fill="#008830"/>
<path fill-rule="evenodd" clip-rule="evenodd" d="M4.77676 11.6662C4.84626 11.6602 4.91769 11.6963 4.97238 11.7501L4.97755 11.7552L4.97204 11.76C4.89359 11.8273 4.77172 11.8549 4.60283 11.8399L4.59392 11.8391L4.59721 11.8308C4.64073 11.7206 4.70663 11.6721 4.77676 11.6662ZM4.61303 11.8273C4.77145 11.8401 4.88435 11.814 4.95769 11.7545C4.90547 11.7052 4.84002 11.6742 4.7779 11.6795C4.71596 11.6848 4.65521 11.7264 4.61303 11.8273Z" fill="black"/>
<path d="M4.60368 11.8317C4.70506 11.9666 4.80568 12.0371 4.90561 12.05C4.91245 11.8989 4.82254 11.7502 4.60368 11.8317Z" fill="#008830"/>
<path fill-rule="evenodd" clip-rule="evenodd" d="M4.8448 11.8496C4.8957 11.8973 4.91671 11.9744 4.91323 12.0511L4.91291 12.0584L4.9057 12.0574C4.80318 12.0442 4.70114 11.9721 4.59929 11.8365L4.59392 11.8294L4.6023 11.8263C4.71333 11.7849 4.79343 11.8015 4.8448 11.8496ZM4.61544 11.8357C4.7187 11.7995 4.7903 11.8168 4.83566 11.8593C4.88116 11.9019 4.90187 11.9714 4.90014 12.0431C4.80689 12.0284 4.71196 11.962 4.61544 11.8357Z" fill="black"/>
<path d="M4.55264 11.9141C4.67899 12.0259 4.74114 12.1319 4.746 12.2325C4.59484 12.2272 4.45377 12.1256 4.55264 11.9141Z" fill="#008830"/>
<path fill-rule="evenodd" clip-rule="evenodd" d="M4.55315 11.9033L4.55984 11.9092C4.68678 12.0216 4.75047 12.1291 4.75545 12.2324L4.7558 12.2396L4.74854 12.2394C4.67181 12.2367 4.59655 12.2095 4.55311 12.155C4.50926 12.0999 4.4992 12.0187 4.54936 11.9114L4.55315 11.9033ZM4.55773 11.9253C4.51336 12.0253 4.52485 12.098 4.56356 12.1466C4.6024 12.1954 4.66993 12.2216 4.74164 12.2257C4.73444 12.1316 4.67584 12.0316 4.55773 11.9253Z" fill="black"/>
<path d="M4.50165 12.0991C4.58811 12.244 4.61521 12.3638 4.58931 12.4612C4.44689 12.4103 4.34326 12.2707 4.50165 12.0991Z" fill="#008830"/>
<path fill-rule="evenodd" clip-rule="evenodd" d="M4.49778 12.0879L4.50237 12.0956C4.58922 12.2412 4.61731 12.3629 4.59074 12.4628L4.58888 12.4698L4.58204 12.4674C4.50974 12.4415 4.44626 12.3928 4.42141 12.3277C4.39633 12.2619 4.41136 12.1815 4.49172 12.0945L4.49778 12.0879ZM4.57962 12.4522C4.60131 12.3604 4.57578 12.2473 4.49549 12.1102C4.42287 12.192 4.41175 12.2648 4.4339 12.3229C4.45611 12.3812 4.51251 12.4266 4.57962 12.4522Z" fill="black"/>
<path d="M4.43993 12.0894C4.45908 12.257 4.43446 12.3773 4.37078 12.4554C4.26194 12.3504 4.22494 12.1806 4.43993 12.0894Z" fill="#008830"/>
<path fill-rule="evenodd" clip-rule="evenodd" d="M4.44418 12.0796L4.4452 12.0885C4.46443 12.2569 4.43992 12.3794 4.37459 12.4595L4.37 12.4651L4.36477 12.4601C4.30952 12.4068 4.2717 12.3363 4.27587 12.2667C4.28009 12.1964 4.32688 12.1294 4.43595 12.0831L4.44418 12.0796ZM4.3688 12.4453C4.31817 12.3944 4.28548 12.3297 4.28921 12.2675C4.29294 12.2055 4.33304 12.1437 4.43291 12.099C4.44963 12.257 4.42638 12.3705 4.3688 12.4453Z" fill="black"/>
<path d="M4.34303 11.6872C4.34563 11.7002 4.34515 11.7088 4.34077 11.7281C4.33855 11.7378 4.33681 11.746 4.33691 11.7463C4.33701 11.7466 4.33925 11.747 4.34188 11.7472C4.34647 11.7477 4.347 11.7473 4.35464 11.7382C4.38074 11.7071 4.4053 11.6908 4.42293 11.6926C4.44337 11.6948 4.45294 11.7238 4.4436 11.7553C4.43567 11.7821 4.41878 11.7999 4.39615 11.8055C4.38777 11.8076 4.38419 11.8077 4.37417 11.806C4.36758 11.8049 4.36247 11.8046 4.3628 11.8052C4.36313 11.8059 4.36828 11.809 4.37424 11.8122C4.40356 11.8278 4.42156 11.8479 4.42391 11.8676C4.42561 11.8819 4.4177 11.8967 4.40319 11.9066C4.3788 11.9231 4.34663 11.9175 4.33037 11.8939C4.32256 11.8826 4.32013 11.8731 4.3186 11.848C4.3177 11.8334 4.31662 11.8251 4.31557 11.8248C4.31467 11.8245 4.31221 11.8225 4.31011 11.8204L4.30629 11.8165L4.29312 11.8305C4.2797 11.8447 4.2699 11.8536 4.25878 11.8617C4.2434 11.8728 4.22477 11.8777 4.21501 11.8732C4.19362 11.8635 4.19121 11.8232 4.2102 11.7931C4.22561 11.7686 4.25065 11.7575 4.27458 11.7646C4.27995 11.7662 4.28752 11.768 4.29141 11.7686L4.29848 11.7698L4.28683 11.7565C4.27111 11.7385 4.26209 11.7253 4.25554 11.7109C4.24318 11.6836 4.24719 11.6608 4.26649 11.6488C4.28134 11.6396 4.30158 11.6401 4.31586 11.6487C4.33013 11.6574 4.34 11.672 4.34303 11.6872Z" fill="#F9D90F"/>
<path d="M4.45135 11.757L4.44141 11.7484C4.44434 11.7356 4.44385 11.7238 4.44091 11.7149C4.43757 11.7048 4.43151 11.6993 4.42439 11.6986C4.41758 11.6978 4.40845 11.7006 4.39733 11.708C4.39688 11.7083 4.39644 11.7086 4.39599 11.7089L4.38693 11.701L4.39078 11.6982L4.42565 11.6868L4.45212 11.7112L4.45135 11.757Z" fill="black"/>
<path d="M4.45212 11.7112C4.45635 11.724 4.45629 11.7404 4.45135 11.757L4.45212 11.7112Z" fill="black"/>
<path d="M4.26547 11.6439C4.28228 11.6335 4.30491 11.6339 4.32101 11.6437L4.35091 11.6861L4.34512 11.6872L4.34861 11.7294C4.34758 11.734 4.34665 11.7382 4.34597 11.7414C4.3463 11.7411 4.34686 11.7406 4.3478 11.7396C4.3489 11.7384 4.35028 11.7367 4.35221 11.7344C4.36209 11.7227 4.37187 11.7129 4.38126 11.7052L4.38693 11.701L4.39599 11.7089C4.38534 11.7163 4.37356 11.7274 4.36124 11.742C4.35935 11.7443 4.35781 11.7461 4.35651 11.7475C4.35524 11.7489 4.35398 11.7502 4.35261 11.7511C4.3511 11.7522 4.3495 11.7529 4.34766 11.7532C4.34606 11.7534 4.34453 11.7532 4.34342 11.7531C4.34197 11.753 4.34057 11.7528 4.33945 11.7526C4.33892 11.7525 4.33831 11.7524 4.33776 11.7522C4.3375 11.7521 4.33706 11.752 4.33658 11.7518C4.33635 11.7517 4.33593 11.7514 4.33547 11.7511C4.33512 11.7508 4.3341 11.75 4.33351 11.7485C4.33319 11.7477 4.33313 11.747 4.33312 11.7468C4.33309 11.7466 4.33309 11.7463 4.33309 11.7462C4.3331 11.7459 4.33312 11.7457 4.33313 11.7456C4.33315 11.7454 4.33319 11.7451 4.33321 11.745C4.33327 11.7446 4.33335 11.7442 4.33345 11.7437C4.33364 11.7426 4.33393 11.7412 4.33428 11.7396C4.33499 11.7362 4.33598 11.7317 4.3371 11.7268C4.34138 11.7079 4.34171 11.7002 4.33933 11.6884C4.33662 11.6748 4.32773 11.6617 4.31488 11.6538C4.30244 11.6463 4.28459 11.6459 4.27168 11.6539C4.26344 11.659 4.25862 11.6663 4.25704 11.6752C4.25544 11.6842 4.25715 11.6955 4.26301 11.7085C4.26923 11.7222 4.27785 11.7349 4.29336 11.7526L4.31579 11.7783L4.29256 11.7745C4.28834 11.7738 4.28051 11.772 4.275 11.7703C4.2541 11.7641 4.23159 11.7736 4.21728 11.7962C4.20844 11.8103 4.20462 11.8267 4.20544 11.8405C4.20629 11.8546 4.21174 11.8643 4.21955 11.8679C4.22261 11.8693 4.22809 11.8696 4.23536 11.8676C4.24242 11.8658 4.25026 11.8621 4.25741 11.8569C4.26813 11.8492 4.27764 11.8406 4.2909 11.8265L4.30828 11.808L4.3164 11.8163C4.3173 11.8172 4.31828 11.8181 4.31908 11.8187C4.31948 11.819 4.31978 11.8192 4.31997 11.8194C4.32128 11.8199 4.32208 11.8208 4.32247 11.8213C4.32294 11.8219 4.32324 11.8224 4.32341 11.8228C4.32377 11.8236 4.32401 11.8244 4.32418 11.8251C4.32452 11.8265 4.32482 11.8283 4.32508 11.8303C4.32562 11.8344 4.32613 11.8403 4.32658 11.8476C4.32809 11.8725 4.33044 11.8806 4.33732 11.8906C4.35165 11.9114 4.38013 11.9165 4.40196 11.9017C4.41513 11.8928 4.42151 11.8799 4.42013 11.8683C4.41814 11.8516 4.40232 11.8328 4.37355 11.8174C4.37049 11.8158 4.36762 11.8142 4.36543 11.8128C4.36434 11.8122 4.36336 11.8116 4.3626 11.811C4.36222 11.8108 4.36181 11.8105 4.36144 11.8102C4.36126 11.81 4.36101 11.8098 4.36076 11.8095C4.36058 11.8093 4.36006 11.8088 4.35963 11.808C4.35883 11.8064 4.35858 11.8041 4.3599 11.802C4.36089 11.8004 4.36229 11.7998 4.36275 11.7996C4.3638 11.7992 4.3648 11.7991 4.36515 11.7991C4.36613 11.799 4.3673 11.7991 4.36839 11.7991C4.3707 11.7993 4.37382 11.7997 4.37722 11.8003C4.38216 11.8011 4.38511 11.8014 4.38773 11.8013C4.39029 11.8013 4.39279 11.8009 4.39681 11.7999C4.41699 11.7949 4.43256 11.7789 4.44003 11.7537C4.44055 11.7519 4.44101 11.7502 4.44141 11.7484L4.45135 11.757C4.44296 11.7853 4.42475 11.8051 4.39966 11.8113C4.3959 11.8122 4.39279 11.8129 4.38955 11.8131C4.41362 11.8282 4.42949 11.8471 4.43186 11.8669C4.43388 11.8839 4.42445 11.9008 4.40859 11.9115C4.38164 11.9298 4.34578 11.9237 4.3276 11.8973C4.31886 11.8846 4.31635 11.8738 4.31479 11.8484C4.31435 11.8411 4.31387 11.8356 4.31338 11.8318C4.31321 11.8306 4.31306 11.8296 4.31292 11.8288C4.3125 11.8285 4.31208 11.8282 4.31167 11.8279C4.31065 11.8271 4.30954 11.8261 4.30848 11.825L4.2995 11.8346C4.28593 11.849 4.27584 11.8582 4.26432 11.8665C4.25609 11.8724 4.24693 11.8768 4.23838 11.879C4.23005 11.8812 4.22135 11.8817 4.21464 11.8787C4.20107 11.8724 4.19462 11.8572 4.19366 11.8412C4.19268 11.8249 4.19715 11.8061 4.2073 11.79C4.22381 11.7637 4.25137 11.751 4.27834 11.759C4.2803 11.7596 4.28255 11.7602 4.28478 11.7607L4.28447 11.7604C4.26855 11.7422 4.25913 11.7285 4.25225 11.7133C4.24574 11.699 4.24328 11.6852 4.24542 11.6731C4.24758 11.6608 4.25442 11.6507 4.26547 11.6439Z" fill="black"/>
<path d="M4.42565 11.6868C4.43896 11.6882 4.4479 11.6984 4.45212 11.7112L4.42565 11.6868Z" fill="black"/>
<path d="M4.39078 11.6982C4.40287 11.6901 4.41483 11.6857 4.42565 11.6868L4.39078 11.6982Z" fill="black"/>
<path d="M4.35091 11.6861C4.35373 11.7002 4.3531 11.7097 4.34861 11.7294L4.34512 11.6872L4.35091 11.6861Z" fill="black"/>
<path d="M4.33741 11.658C4.34421 11.6663 4.3489 11.676 4.35091 11.6861L4.32101 11.6437L4.33741 11.658Z" fill="black"/>
<path d="M4.3236 11.7466C4.33386 11.7439 4.34468 11.7449 4.35368 11.7495C4.36269 11.7541 4.36913 11.7618 4.37161 11.7711C4.37408 11.7803 4.37238 11.7902 4.36687 11.7987C4.36137 11.8072 4.35251 11.8135 4.34225 11.8162C4.33199 11.819 4.32117 11.8179 4.31217 11.8134C4.30317 11.8088 4.29672 11.801 4.29425 11.7918C4.29177 11.7826 4.29347 11.7726 4.29898 11.7641C4.30449 11.7557 4.31334 11.7494 4.3236 11.7466Z" fill="#F9D90F"/>
<path fill-rule="evenodd" clip-rule="evenodd" d="M4.3018 11.7905C4.3038 11.798 4.30903 11.8044 4.31656 11.8082C4.32413 11.8121 4.33336 11.813 4.34221 11.8106C4.35106 11.8082 4.3586 11.8028 4.36322 11.7957C4.36783 11.7886 4.36916 11.7805 4.36717 11.773C4.36518 11.7656 4.35995 11.7592 4.35241 11.7553C4.34485 11.7515 4.33561 11.7506 4.32676 11.7529C4.31791 11.7553 4.31038 11.7607 4.30575 11.7679C4.30114 11.7749 4.29981 11.7831 4.3018 11.7905ZM4.31116 11.8188C4.30081 11.8135 4.29323 11.8045 4.29031 11.7936C4.28738 11.7827 4.28944 11.7711 4.29577 11.7614C4.30208 11.7516 4.31215 11.7445 4.32368 11.7414C4.33521 11.7384 4.34748 11.7395 4.35781 11.7447C4.36816 11.75 4.37575 11.759 4.37867 11.7699C4.38159 11.7808 4.37953 11.7924 4.3732 11.8022C4.36689 11.8119 4.35683 11.819 4.34529 11.8221C4.33376 11.8252 4.32149 11.8241 4.31116 11.8188Z" fill="black"/>
<path d="M4.50156 11.7227C4.49894 11.7358 4.49942 11.7445 4.50384 11.7639C4.50608 11.7738 4.50783 11.782 4.50773 11.7823C4.50763 11.7825 4.50537 11.783 4.50272 11.7832C4.4981 11.7837 4.49756 11.7833 4.48986 11.7741C4.46355 11.7428 4.43879 11.7263 4.42103 11.7282C4.40043 11.7304 4.39078 11.7597 4.4002 11.7914C4.40819 11.8183 4.42521 11.8363 4.44802 11.842C4.45647 11.8441 4.46008 11.8442 4.47018 11.8425C4.47682 11.8414 4.48197 11.841 4.48164 11.8417C4.4813 11.8423 4.47611 11.8455 4.4701 11.8487C4.44056 11.8645 4.42241 11.8847 4.42004 11.9045C4.41833 11.9189 4.4263 11.9339 4.44093 11.9438C4.46551 11.9605 4.49793 11.9548 4.51432 11.9311C4.52219 11.9196 4.52464 11.9101 4.52619 11.8847C4.52709 11.8701 4.52818 11.8617 4.52924 11.8614C4.53015 11.8611 4.53263 11.8591 4.53475 11.8569L4.5386 11.853L4.55187 11.8671C4.5654 11.8815 4.57528 11.8905 4.58649 11.8986C4.60199 11.9098 4.62077 11.9147 4.6306 11.9102C4.65216 11.9004 4.65459 11.8598 4.63545 11.8294C4.61992 11.8048 4.59468 11.7936 4.57056 11.8007C4.56514 11.8023 4.55751 11.8042 4.55359 11.8048L4.54647 11.806L4.55821 11.7925C4.57405 11.7744 4.58314 11.7612 4.58975 11.7466C4.60221 11.719 4.59816 11.6961 4.57871 11.6841C4.56374 11.6748 4.54334 11.6752 4.52895 11.684C4.51457 11.6927 4.50462 11.7074 4.50156 11.7227Z" fill="#F9D90F"/>
<path d="M4.39661 11.7932L4.40662 11.7845C4.40368 11.7715 4.40417 11.7596 4.40713 11.7507C4.41049 11.7405 4.4166 11.735 4.42378 11.7342C4.43065 11.7335 4.43985 11.7363 4.45106 11.7437C4.4515 11.744 4.45195 11.7443 4.4524 11.7447L4.46154 11.7367L4.45766 11.7338L4.42252 11.7224L4.39583 11.7469L4.39661 11.7932Z" fill="black"/>
<path d="M4.39583 11.7469C4.39157 11.7599 4.39163 11.7764 4.39661 11.7932L4.39583 11.7469Z" fill="black"/>
<path d="M4.58397 11.6791C4.56702 11.6686 4.54421 11.6691 4.52798 11.679L4.49784 11.7216L4.50368 11.7228L4.50016 11.7653C4.5012 11.7699 4.50214 11.7741 4.50282 11.7774C4.50249 11.7771 4.50192 11.7766 4.50098 11.7755C4.49987 11.7743 4.49848 11.7727 4.49654 11.7704C4.48657 11.7585 4.47672 11.7486 4.46725 11.7409L4.46154 11.7367L4.4524 11.7447C4.46314 11.7521 4.47502 11.7633 4.48743 11.778C4.48934 11.7803 4.49089 11.7821 4.4922 11.7836C4.49348 11.785 4.49475 11.7862 4.49613 11.7872C4.49765 11.7883 4.49927 11.789 4.50112 11.7892C4.50273 11.7895 4.50428 11.7893 4.50539 11.7892C4.50685 11.7891 4.50827 11.7889 4.50939 11.7887C4.50993 11.7886 4.51054 11.7885 4.5111 11.7883C4.51136 11.7882 4.5118 11.7881 4.51228 11.7878C4.51252 11.7877 4.51294 11.7875 4.5134 11.7872C4.51376 11.7869 4.51479 11.7861 4.51538 11.7846C4.5157 11.7837 4.51576 11.7831 4.51578 11.7829C4.5158 11.7826 4.5158 11.7824 4.5158 11.7822C4.5158 11.782 4.51578 11.7818 4.51577 11.7816C4.51574 11.7814 4.51571 11.7812 4.51568 11.781C4.51562 11.7806 4.51554 11.7802 4.51544 11.7797C4.51525 11.7786 4.51496 11.7772 4.5146 11.7755C4.51389 11.7722 4.51289 11.7676 4.51176 11.7627C4.50745 11.7437 4.50712 11.7359 4.50951 11.724C4.51225 11.7103 4.52121 11.697 4.53417 11.6891C4.5467 11.6815 4.5647 11.6812 4.5777 11.6892C4.58601 11.6944 4.59087 11.7017 4.59246 11.7106C4.59407 11.7198 4.59235 11.7312 4.58645 11.7442C4.58017 11.7581 4.57148 11.7708 4.55585 11.7887L4.53324 11.8146L4.55666 11.8108C4.56091 11.8101 4.5688 11.8082 4.57436 11.8065C4.59542 11.8003 4.61812 11.8098 4.63253 11.8327C4.64145 11.8468 4.6453 11.8633 4.64447 11.8773C4.64362 11.8914 4.63812 11.9013 4.63025 11.9049C4.62717 11.9063 4.62164 11.9066 4.61431 11.9046C4.6072 11.9027 4.59929 11.899 4.59209 11.8938C4.58129 11.886 4.57169 11.8774 4.55833 11.8632L4.54082 11.8445L4.53263 11.8529C4.53172 11.8538 4.53074 11.8547 4.52993 11.8553C4.52953 11.8556 4.52922 11.8559 4.52903 11.856C4.52771 11.8565 4.5269 11.8574 4.52652 11.8579C4.52604 11.8585 4.52574 11.8591 4.52556 11.8595C4.5252 11.8602 4.52496 11.8611 4.52479 11.8617C4.52444 11.8631 4.52414 11.8649 4.52387 11.867C4.52333 11.8712 4.52282 11.8771 4.52237 11.8845C4.52084 11.9095 4.51847 11.9177 4.51154 11.9278C4.49709 11.9487 4.46839 11.9539 4.44638 11.939C4.43312 11.93 4.42668 11.917 4.42807 11.9053C4.43008 11.8885 4.44603 11.8695 4.47502 11.854C4.4781 11.8524 4.481 11.8508 4.48321 11.8494C4.4843 11.8487 4.48529 11.8481 4.48606 11.8476C4.48644 11.8473 4.48685 11.847 4.48723 11.8467C4.48741 11.8465 4.48766 11.8463 4.48791 11.8461C4.4881 11.8459 4.48862 11.8453 4.48905 11.8445C4.48986 11.8429 4.49012 11.8406 4.48878 11.8385C4.48778 11.8369 4.48638 11.8363 4.48591 11.8361C4.48486 11.8356 4.48384 11.8356 4.48349 11.8355C4.4825 11.8355 4.48133 11.8355 4.48022 11.8356C4.4779 11.8357 4.47475 11.8361 4.47132 11.8367C4.46634 11.8375 4.46337 11.8379 4.46073 11.8378C4.45816 11.8377 4.45563 11.8373 4.45158 11.8363C4.43124 11.8313 4.41555 11.8152 4.40802 11.7898C4.40749 11.788 4.40702 11.7862 4.40662 11.7845L4.39661 11.7932C4.40506 11.8217 4.42342 11.8416 4.44871 11.8479C4.4525 11.8488 4.45563 11.8494 4.4589 11.8496C4.43464 11.8649 4.41864 11.8839 4.41626 11.9039C4.41421 11.921 4.42372 11.938 4.43971 11.9489C4.46687 11.9673 4.50301 11.9611 4.52134 11.9345C4.53015 11.9217 4.53268 11.9108 4.53425 11.8852C4.5347 11.8779 4.53518 11.8723 4.53567 11.8685C4.53584 11.8673 4.536 11.8663 4.53614 11.8655C4.53656 11.8652 4.53698 11.8649 4.53739 11.8646C4.53842 11.8637 4.53955 11.8627 4.54061 11.8617L4.54966 11.8713C4.56334 11.8858 4.57351 11.8951 4.58512 11.9035C4.59342 11.9095 4.60265 11.9139 4.61127 11.9161C4.61966 11.9183 4.62844 11.9188 4.6352 11.9157C4.64888 11.9095 4.65538 11.8941 4.65635 11.878C4.65733 11.8615 4.65283 11.8426 4.6426 11.8263C4.62595 11.7999 4.59818 11.7871 4.57099 11.7951C4.56902 11.7957 4.56675 11.7963 4.5645 11.7969L4.56481 11.7965C4.58086 11.7782 4.59036 11.7644 4.59729 11.7491C4.60385 11.7346 4.60633 11.7208 4.60418 11.7086C4.60199 11.6962 4.5951 11.686 4.58397 11.6791Z" fill="black"/>
<path d="M4.42252 11.7224C4.4091 11.7238 4.40008 11.734 4.39583 11.7469L4.42252 11.7224Z" fill="black"/>
<path d="M4.45766 11.7338C4.44547 11.7257 4.43341 11.7212 4.42252 11.7224L4.45766 11.7338Z" fill="black"/>
<path d="M4.49784 11.7216C4.495 11.7358 4.49564 11.7454 4.50016 11.7653L4.50368 11.7228L4.49784 11.7216Z" fill="black"/>
<path d="M4.51146 11.6933C4.5046 11.7016 4.49987 11.7115 4.49784 11.7216L4.52798 11.679L4.51146 11.6933Z" fill="black"/>
<path d="M4.52648 11.7828C4.51614 11.78 4.50523 11.781 4.49616 11.7857C4.48708 11.7903 4.48058 11.7981 4.47809 11.8074C4.4756 11.8167 4.47732 11.8267 4.48286 11.8353C4.48841 11.8438 4.49734 11.8502 4.50768 11.8529C4.51802 11.8557 4.52893 11.8547 4.538 11.85C4.54708 11.8454 4.55358 11.8376 4.55607 11.8283C4.55856 11.819 4.55685 11.809 4.5513 11.8004C4.54575 11.7919 4.53682 11.7855 4.52648 11.7828Z" fill="#F9D90F"/>
<path fill-rule="evenodd" clip-rule="evenodd" d="M4.55161 11.8271C4.5496 11.8346 4.54433 11.841 4.53674 11.8449C4.52911 11.8488 4.51981 11.8497 4.51088 11.8473C4.50196 11.8449 4.49437 11.8394 4.48971 11.8323C4.48506 11.8251 4.48372 11.8169 4.48573 11.8094C4.48774 11.8019 4.49301 11.7955 4.50061 11.7916C4.50823 11.7877 4.51753 11.7868 4.52646 11.7892C4.53538 11.7916 4.54297 11.797 4.54764 11.8042C4.55228 11.8114 4.55362 11.8196 4.55161 11.8271ZM4.54218 11.8556C4.55261 11.8503 4.56026 11.8412 4.5632 11.8302C4.56615 11.8192 4.56408 11.8075 4.5577 11.7977C4.55133 11.7879 4.54119 11.7807 4.52956 11.7776C4.51794 11.7745 4.50557 11.7756 4.49516 11.7809C4.48473 11.7862 4.47708 11.7953 4.47414 11.8063C4.47119 11.8173 4.47327 11.829 4.47965 11.8388C4.48601 11.8486 4.49615 11.8558 4.50778 11.8589C4.5194 11.862 4.53177 11.8609 4.54218 11.8556Z" fill="black"/>
<path d="M4.3023 12.0973C4.29899 12.0827 4.29928 12.073 4.30369 12.051C4.30592 12.0399 4.30765 12.0305 4.30752 12.0303C4.3074 12.03 4.30486 12.0296 4.30187 12.0294C4.29667 12.029 4.29608 12.0294 4.2877 12.0399C4.25905 12.0758 4.23173 12.0951 4.21173 12.0935C4.18854 12.0916 4.17687 12.059 4.18653 12.0231C4.19473 11.9926 4.21333 11.9719 4.23878 11.9649C4.2482 11.9623 4.25225 11.9621 4.26364 11.9637C4.27113 11.9648 4.27693 11.965 4.27653 11.9643C4.27613 11.9636 4.27022 11.9602 4.26338 11.9568C4.22976 11.9399 4.2088 11.9177 4.20558 11.8955C4.20324 11.8794 4.21176 11.8623 4.2279 11.8508C4.25503 11.8314 4.29159 11.8368 4.31067 11.863C4.31983 11.8756 4.32286 11.8863 4.32532 11.9147C4.32675 11.9312 4.32821 11.9405 4.32942 11.9409C4.33045 11.9411 4.33328 11.9433 4.33572 11.9457L4.34016 11.9499L4.35466 11.9337C4.36943 11.9172 4.38027 11.9068 4.39262 11.8974C4.40971 11.8844 4.43065 11.8783 4.44182 11.8831C4.4663 11.8935 4.4702 11.939 4.44957 11.9737C4.43284 12.0018 4.40482 12.015 4.37753 12.0077C4.37141 12.0061 4.36279 12.0043 4.35837 12.0037L4.35034 12.0026L4.36391 12.0173C4.38221 12.0372 4.3928 12.0518 4.40063 12.068C4.41541 12.0986 4.41152 12.1244 4.39003 12.1385C4.37348 12.1494 4.35056 12.1495 4.33416 12.1401C4.31776 12.1306 4.30617 12.1145 4.3023 12.0973Z" fill="#F9D90F"/>
<path d="M4.17894 12.0214L4.19043 12.0309C4.18749 12.0454 4.18839 12.0588 4.19197 12.0688C4.19604 12.0801 4.20305 12.0861 4.21113 12.0868C4.21886 12.0874 4.22911 12.084 4.24149 12.0753C4.24198 12.0749 4.24247 12.0746 4.24297 12.0742L4.25346 12.0829L4.24918 12.0862L4.21005 12.1001L4.17938 12.0733L4.17894 12.0214Z" fill="black"/>
<path d="M4.17938 12.0733C4.17423 12.0589 4.17383 12.0404 4.17894 12.0214L4.17938 12.0733Z" fill="black"/>
<path d="M4.39256 12.1441C4.37383 12.1564 4.34821 12.1565 4.3297 12.1458L4.29465 12.0988L4.30116 12.0973L4.296 12.0497C4.29704 12.0445 4.29797 12.0397 4.29865 12.0361C4.29828 12.0364 4.29766 12.037 4.29662 12.0382C4.29542 12.0396 4.2939 12.0414 4.29179 12.0441C4.28094 12.0577 4.27016 12.0691 4.25975 12.078L4.25346 12.0829L4.24297 12.0742C4.25481 12.0656 4.26783 12.0527 4.28134 12.0358C4.28342 12.0332 4.28511 12.031 4.28654 12.0294C4.28793 12.0278 4.28933 12.0263 4.29084 12.0252C4.29252 12.024 4.29432 12.0231 4.2964 12.0228C4.2982 12.0225 4.29994 12.0226 4.30119 12.0227C4.30284 12.0228 4.30443 12.023 4.30569 12.0232C4.3063 12.0233 4.30699 12.0234 4.30762 12.0236C4.30792 12.0236 4.30842 12.0238 4.30897 12.024C4.30924 12.0242 4.30972 12.0244 4.31024 12.0248C4.31065 12.0251 4.31183 12.026 4.31254 12.0276C4.31292 12.0285 4.31301 12.0293 4.31303 12.0295C4.31307 12.0298 4.31308 12.0301 4.31308 12.0302C4.31308 12.0305 4.31306 12.0308 4.31305 12.0309C4.31303 12.0312 4.313 12.0314 4.31298 12.0316C4.31292 12.032 4.31284 12.0326 4.31275 12.0331C4.31256 12.0343 4.31227 12.0359 4.31192 12.0378C4.31122 12.0416 4.31022 12.0467 4.3091 12.0523C4.3048 12.0738 4.30466 12.0825 4.30768 12.0958C4.31115 12.1111 4.32158 12.1258 4.33636 12.1342C4.35065 12.1424 4.37086 12.1423 4.38523 12.1329C4.39442 12.1269 4.39967 12.1186 4.40119 12.1084C4.40274 12.0981 4.40048 12.0854 4.39348 12.0709C4.38604 12.0555 4.37592 12.0415 4.35786 12.0218L4.33173 11.9934L4.35813 11.997C4.36292 11.9977 4.37184 11.9996 4.37813 12.0013C4.40195 12.0076 4.42716 11.9964 4.44269 11.9703C4.4523 11.9541 4.45615 11.9355 4.45482 11.9199C4.45346 11.904 4.44701 11.893 4.43806 11.8892C4.43457 11.8877 4.42835 11.8876 4.42017 11.89C4.41225 11.8923 4.40347 11.8967 4.39554 11.9027C4.38363 11.9118 4.37311 11.9218 4.35851 11.9382L4.33938 11.9596L4.32995 11.9505C4.3289 11.9495 4.32777 11.9485 4.32685 11.9478C4.32639 11.9474 4.32604 11.9472 4.32582 11.9471C4.32432 11.9465 4.32339 11.9455 4.32294 11.945C4.32239 11.9443 4.32203 11.9437 4.32182 11.9432C4.3214 11.9424 4.3211 11.9415 4.3209 11.9407C4.32046 11.9392 4.32008 11.9371 4.31972 11.9348C4.31899 11.9302 4.31825 11.9235 4.31753 11.9153C4.3151 11.8872 4.3122 11.878 4.30413 11.867C4.28731 11.8438 4.25494 11.8388 4.23066 11.8562C4.21602 11.8667 4.20917 11.8815 4.21106 11.8945C4.2138 11.9134 4.23224 11.9342 4.26524 11.9508C4.26875 11.9525 4.27205 11.9543 4.27456 11.9557C4.27581 11.9565 4.27694 11.9571 4.27782 11.9577C4.27825 11.958 4.27872 11.9583 4.27915 11.9587C4.27936 11.9588 4.27965 11.9591 4.27994 11.9594C4.28015 11.9596 4.28076 11.9602 4.28126 11.9611C4.28222 11.9629 4.28257 11.9655 4.28113 11.9679C4.28006 11.9697 4.2785 11.9704 4.27798 11.9706C4.27681 11.9712 4.27567 11.9713 4.27527 11.9713C4.27416 11.9714 4.27285 11.9714 4.2716 11.9714C4.26899 11.9712 4.26545 11.9709 4.26158 11.9703C4.25597 11.9695 4.25262 11.9693 4.24966 11.9694C4.24677 11.9696 4.24395 11.9701 4.23942 11.9714C4.21673 11.9776 4.19958 11.9961 4.19185 12.0248C4.1913 12.0269 4.19083 12.0289 4.19043 12.0309L4.17894 12.0214C4.18762 11.9891 4.20766 11.9662 4.23587 11.9585C4.2401 11.9573 4.2436 11.9565 4.24727 11.9562C4.21959 11.9398 4.20108 11.9188 4.19783 11.8965C4.19505 11.8773 4.20524 11.858 4.22288 11.8453C4.25285 11.8239 4.2936 11.8297 4.31494 11.8591C4.3252 11.8732 4.32835 11.8854 4.33085 11.9141C4.33156 11.9223 4.33226 11.9286 4.33292 11.9328C4.33315 11.9342 4.33335 11.9353 4.33353 11.9361C4.33401 11.9365 4.33449 11.9368 4.33497 11.9372C4.33614 11.9381 4.33743 11.9392 4.33866 11.9403L4.34854 11.9293C4.36349 11.9125 4.37464 11.9019 4.38744 11.8921C4.39659 11.8851 4.40682 11.88 4.41643 11.8772C4.42579 11.8744 4.43563 11.8737 4.44331 11.8769C4.45885 11.8836 4.46659 11.9006 4.46813 11.9187C4.46971 11.9372 4.4652 11.9586 4.45418 11.9771C4.43624 12.0072 4.40542 12.0224 4.37467 12.0142C4.37244 12.0136 4.36988 12.013 4.36733 12.0124L4.36769 12.0128C4.38624 12.0329 4.39729 12.0481 4.40551 12.0651C4.41329 12.0812 4.41647 12.0967 4.4144 12.1104C4.41231 12.1244 4.40486 12.136 4.39256 12.1441Z" fill="black"/>
<path d="M4.21005 12.1001C4.19494 12.0989 4.18453 12.0876 4.17938 12.0733L4.21005 12.1001Z" fill="black"/>
<path d="M4.24918 12.0862C4.23573 12.0957 4.22232 12.1011 4.21005 12.1001L4.24918 12.0862Z" fill="black"/>
<path d="M4.29465 12.0988C4.29105 12.0829 4.29149 12.0722 4.296 12.0497L4.30116 12.0973L4.29465 12.0988Z" fill="black"/>
<path d="M4.31074 12.1302C4.3028 12.121 4.29721 12.1101 4.29465 12.0988L4.3297 12.1458L4.31074 12.1302Z" fill="black"/>
<path d="M4.31637 12.0303C4.30442 12.0303 4.29296 12.026 4.28452 12.0184C4.27607 12.0108 4.27133 12.0005 4.27133 11.9897C4.27133 11.979 4.27607 11.9687 4.28452 11.9611C4.29296 11.9535 4.30442 11.9492 4.31636 11.9492C4.32831 11.9492 4.33977 11.9535 4.34821 11.9611C4.35666 11.9687 4.3614 11.979 4.36141 11.9897C4.36141 12.0005 4.35666 12.0108 4.34821 12.0184C4.33977 12.026 4.32831 12.0303 4.31637 12.0303Z" fill="#F9D90F"/>
<path fill-rule="evenodd" clip-rule="evenodd" d="M4.35576 11.9894C4.35576 11.9806 4.3519 11.9721 4.34475 11.9656C4.33757 11.9592 4.3277 11.9554 4.31727 11.9554C4.30684 11.9554 4.29697 11.9592 4.28979 11.9656C4.28263 11.9721 4.27877 11.9806 4.27877 11.9894C4.27877 11.9982 4.28263 12.0067 4.28979 12.0132C4.29697 12.0196 4.30684 12.0234 4.31727 12.0234C4.3277 12.0234 4.33757 12.0196 4.34475 12.0132C4.3519 12.0067 4.35577 11.9982 4.35576 11.9894ZM4.35381 11.9556C4.36363 11.9644 4.36931 11.9766 4.36931 11.9894C4.36931 12.0022 4.36363 12.0144 4.35381 12.0232C4.34401 12.032 4.33085 12.0369 4.31727 12.0369C4.30368 12.0369 4.29053 12.032 4.28073 12.0232C4.27091 12.0144 4.26523 12.0022 4.26523 11.9894C4.26523 11.9766 4.2709 11.9644 4.28073 11.9556C4.29053 11.9467 4.30368 11.9419 4.31727 11.9419C4.33085 11.9419 4.34401 11.9467 4.35381 11.9556Z" fill="black"/>
<path d="M4.51456 11.9334C4.51162 11.9481 4.51216 11.9578 4.51713 11.9796C4.51964 11.9907 4.5216 12 4.52149 12.0003C4.52137 12.0006 4.51884 12.0011 4.51586 12.0013C4.51067 12.0018 4.51007 12.0014 4.50142 11.9911C4.47187 11.956 4.44407 11.9374 4.42411 11.9395C4.40098 11.942 4.39015 11.9749 4.40072 12.0105C4.40969 12.0408 4.42881 12.061 4.45443 12.0674C4.46392 12.0697 4.46797 12.0698 4.47932 12.0679C4.48677 12.0667 4.49256 12.0663 4.49218 12.067C4.49181 12.0677 4.48598 12.0713 4.47923 12.0749C4.44605 12.0926 4.42566 12.1153 4.42301 12.1376C4.42108 12.1537 4.43004 12.1706 4.44646 12.1817C4.47408 12.2004 4.51049 12.1941 4.52889 12.1674C4.53773 12.1546 4.54048 12.1438 4.54222 12.1154C4.54323 12.0989 4.54446 12.0895 4.54565 12.0891C4.54667 12.0888 4.54945 12.0866 4.55183 12.0841L4.55616 12.0797L4.57107 12.0956C4.58626 12.1117 4.59735 12.1218 4.60994 12.1309C4.62735 12.1435 4.64844 12.149 4.65949 12.144C4.6837 12.1329 4.68643 12.0873 4.66493 12.0532C4.64749 12.0255 4.61914 12.013 4.59205 12.021C4.58597 12.0228 4.5774 12.0249 4.573 12.0256L4.565 12.0269L4.57819 12.0118C4.59598 11.9914 4.60619 11.9766 4.6136 11.9602C4.6276 11.9293 4.62306 11.9035 4.60121 11.89C4.58439 11.8796 4.56148 11.88 4.54533 11.8899C4.52917 11.8997 4.518 11.9162 4.51456 11.9334Z" fill="#F9D90F"/>
<path d="M4.39318 12.0118L4.40443 12.002C4.40112 11.9875 4.40167 11.9741 4.40499 11.964C4.40877 11.9526 4.41563 11.9464 4.42369 11.9455C4.43141 11.9447 4.44174 11.9479 4.45433 11.9563C4.45483 11.9566 4.45534 11.9569 4.45584 11.9573L4.4661 11.9484L4.46175 11.9452L4.42227 11.9323L4.3923 11.9599L4.39318 12.0118Z" fill="black"/>
<path d="M4.3923 11.9599C4.38751 11.9744 4.38759 11.9929 4.39318 12.0118L4.3923 11.9599Z" fill="black"/>
<path d="M4.6036 11.8837C4.58457 11.8719 4.55895 11.8724 4.54072 11.8835L4.50687 11.9314L4.51343 11.9327L4.50948 11.9805C4.51065 11.9856 4.5117 11.9904 4.51247 11.994C4.51209 11.9937 4.51146 11.9931 4.5104 11.992C4.50915 11.9906 4.50759 11.9888 4.50541 11.9862C4.49422 11.9729 4.48315 11.9617 4.47252 11.9531L4.4661 11.9484L4.45584 11.9573C4.4679 11.9656 4.48124 11.9782 4.49518 11.9948C4.49732 11.9973 4.49907 11.9994 4.50054 12.001C4.50197 12.0026 4.50341 12.004 4.50495 12.0051C4.50666 12.0063 4.50848 12.0071 4.51056 12.0074C4.51237 12.0076 4.5141 12.0075 4.51535 12.0073C4.517 12.0072 4.51858 12.007 4.51984 12.0067C4.52045 12.0066 4.52114 12.0065 4.52176 12.0063C4.52205 12.0062 4.52255 12.0061 4.52309 12.0058C4.52336 12.0057 4.52383 12.0054 4.52435 12.005C4.52475 12.0047 4.52591 12.0038 4.52657 12.0021C4.52693 12.0012 4.527 12.0004 4.52702 12.0002C4.52705 11.9999 4.52705 11.9996 4.52704 11.9995C4.52704 11.9992 4.52702 11.999 4.527 11.9988C4.52698 11.9986 4.52694 11.9983 4.52691 11.9981C4.52684 11.9977 4.52675 11.9972 4.52664 11.9966C4.52642 11.9955 4.5261 11.9939 4.5257 11.992C4.5249 11.9882 4.52377 11.9831 4.52251 11.9775C4.51766 11.9562 4.5173 11.9475 4.51998 11.934C4.52305 11.9187 4.53311 11.9038 4.54767 11.8949C4.56175 11.8864 4.58196 11.886 4.59656 11.895C4.6059 11.9008 4.61136 11.909 4.61314 11.9191C4.61495 11.9294 4.61302 11.9421 4.60639 11.9568C4.59934 11.9724 4.58958 11.9867 4.57203 12.0068L4.54663 12.0358L4.57293 12.0315C4.5777 12.0308 4.58657 12.0286 4.59281 12.0268C4.61646 12.0198 4.64196 12.0305 4.65815 12.0561C4.66816 12.072 4.67249 12.0906 4.67155 12.1062C4.67059 12.1221 4.66442 12.1332 4.65558 12.1373C4.65212 12.1389 4.64591 12.1391 4.63768 12.137C4.6297 12.1348 4.62081 12.1307 4.61272 12.1248C4.60059 12.1161 4.58982 12.1063 4.5748 12.0904L4.55514 12.0695L4.54594 12.0788C4.54492 12.0798 4.54382 12.0808 4.54291 12.0816C4.54246 12.0819 4.54212 12.0822 4.5419 12.0823C4.54042 12.0829 4.53951 12.0839 4.53908 12.0845C4.53854 12.0851 4.5382 12.0858 4.538 12.0862C4.5376 12.0871 4.53733 12.088 4.53714 12.0888C4.53675 12.0904 4.53641 12.0924 4.53611 12.0947C4.5355 12.0994 4.53493 12.106 4.53442 12.1143C4.5327 12.1424 4.53005 12.1516 4.52226 12.1629C4.50603 12.1865 4.4738 12.1923 4.44908 12.1756C4.43418 12.1655 4.42695 12.1508 4.42851 12.1377C4.43077 12.1188 4.44868 12.0975 4.48125 12.0801C4.48471 12.0783 4.48796 12.0764 4.49044 12.0749C4.49167 12.0742 4.49278 12.0735 4.49365 12.0729C4.49407 12.0726 4.49453 12.0722 4.49495 12.0719C4.49516 12.0717 4.49544 12.0715 4.49572 12.0712C4.49593 12.071 4.49652 12.0703 4.497 12.0694C4.49791 12.0676 4.4982 12.065 4.4967 12.0627C4.49558 12.0609 4.494 12.0602 4.49348 12.06C4.49229 12.0595 4.49115 12.0594 4.49075 12.0594C4.48964 12.0593 4.48833 12.0593 4.48708 12.0594C4.48447 12.0596 4.48094 12.06 4.47709 12.0607C4.4715 12.0616 4.46816 12.062 4.4652 12.0619C4.4623 12.0618 4.45947 12.0614 4.45491 12.0602C4.43207 12.0546 4.41445 12.0365 4.40599 12.008C4.4054 12.006 4.40488 12.004 4.40443 12.002L4.39318 12.0118C4.40267 12.0438 4.42329 12.0662 4.45169 12.0732C4.45595 12.0743 4.45947 12.075 4.46314 12.0752C4.43589 12.0923 4.41792 12.1137 4.41524 12.1362C4.41295 12.1554 4.42363 12.1745 4.44159 12.1866C4.47209 12.2073 4.51268 12.2004 4.53327 12.1705C4.54316 12.1562 4.546 12.1439 4.54776 12.1151C4.54827 12.1069 4.54881 12.1006 4.54936 12.0964C4.54955 12.095 4.54973 12.0939 4.54989 12.093C4.55036 12.0927 4.55083 12.0923 4.5513 12.092C4.55245 12.091 4.55371 12.0899 4.55491 12.0887L4.56507 12.0995C4.58044 12.1159 4.59186 12.1263 4.6049 12.1357C4.61422 12.1424 4.62459 12.1473 4.63426 12.1499C4.64369 12.1524 4.65355 12.1529 4.66114 12.1494C4.6765 12.1424 4.6838 12.1252 4.68489 12.107C4.686 12.0886 4.68094 12.0672 4.66945 12.049C4.65076 12.0194 4.61956 12.005 4.58903 12.014C4.58681 12.0146 4.58427 12.0153 4.58174 12.016L4.58209 12.0156C4.60012 11.9949 4.61078 11.9795 4.61856 11.9623C4.62593 11.946 4.62872 11.9305 4.6263 11.9168C4.62384 11.9028 4.61611 11.8914 4.6036 11.8837Z" fill="black"/>
<path d="M4.42227 11.9323C4.4072 11.9339 4.39708 11.9454 4.3923 11.9599L4.42227 11.9323Z" fill="black"/>
<path d="M4.46175 11.9452C4.44806 11.936 4.43451 11.931 4.42227 11.9323L4.46175 11.9452Z" fill="black"/>
<path d="M4.50687 11.9314C4.50369 11.9474 4.5044 11.9581 4.50948 11.9805L4.51343 11.9327L4.50687 11.9314Z" fill="black"/>
<path d="M4.52216 11.8996C4.51446 11.909 4.50915 11.92 4.50687 11.9314L4.54072 11.8835L4.52216 11.8996Z" fill="black"/>
<path d="M4.52535 11.9992C4.51341 11.9995 4.50206 12.0041 4.49381 12.0119C4.48556 12.0197 4.48108 12.0301 4.48135 12.0409C4.48163 12.0516 4.48663 12.0618 4.49527 12.0692C4.50391 12.0766 4.51547 12.0806 4.52741 12.0802C4.53935 12.0799 4.55069 12.0754 4.55894 12.0676C4.56719 12.0598 4.57168 12.0493 4.5714 12.0386C4.57113 12.0278 4.56612 12.0177 4.55749 12.0103C4.54885 12.0029 4.53729 11.9989 4.52535 11.9992Z" fill="#F9D90F"/>
<path fill-rule="evenodd" clip-rule="evenodd" d="M4.5655 12.0388C4.56572 12.0476 4.56208 12.0562 4.55509 12.0628C4.54808 12.0695 4.5383 12.0735 4.52788 12.0737C4.51745 12.074 4.50749 12.0705 4.50015 12.0642C4.49283 12.058 4.48875 12.0495 4.48853 12.0408C4.48831 12.032 4.49195 12.0233 4.49894 12.0167C4.50595 12.0101 4.51573 12.0061 4.52615 12.0058C4.53657 12.0056 4.54654 12.009 4.55388 12.0153C4.5612 12.0216 4.56527 12.03 4.5655 12.0388ZM4.5644 12.0727C4.574 12.0636 4.57936 12.0513 4.57904 12.0385C4.57871 12.0256 4.57273 12.0136 4.56268 12.005C4.55266 11.9965 4.53939 11.9919 4.52581 11.9923C4.51223 11.9926 4.4992 11.9978 4.48963 12.0069C4.48003 12.016 4.47466 12.0283 4.47499 12.0411C4.47532 12.0539 4.4813 12.0659 4.49135 12.0745C4.50137 12.0831 4.51464 12.0876 4.52822 12.0873C4.5418 12.0869 4.55483 12.0817 4.5644 12.0727Z" fill="black"/>
<path d="M6.76363 12.3492H6.6791V12.2892H6.6071V12.2205H6.52465L6.52459 11.7849L6.4307 11.6206L6.3368 11.7849V12.2205H6.25436V12.2892H6.18235V12.3492H6.09782V12.4379L6.76363 12.4398V12.3492Z" fill="white"/>
<path fill-rule="evenodd" clip-rule="evenodd" d="M6.4308 11.5972L6.53652 11.7821L6.53658 12.2091H6.61903V12.2777H6.69103V12.3378H6.77556V12.4521L6.08611 12.4501V12.3378H6.17064V12.2777H6.24264V12.2091H6.32508V11.7821L6.4308 11.5972ZM6.34873 11.7884V12.2327H6.26629V12.3014H6.19428V12.3615H6.10975V12.4265L6.75191 12.4284V12.3615H6.66739V12.3014H6.59538V12.2327H6.51294L6.51287 11.7884L6.4308 11.6448L6.34873 11.7884Z" fill="black"/>
<path d="M5.43131 15.0834C5.7696 15.0845 6.18566 15.0155 6.38055 14.9147L6.80858 14.8768L6.8171 15.399C6.45452 15.5989 5.61731 15.6419 5.43312 15.6405C5.24874 15.6419 4.4012 15.5982 4.03699 15.3976L4.0417 14.875L4.47064 14.9136C4.66553 15.0139 5.09428 15.0834 5.43221 15.0834H5.43131" fill="#F9D90F"/>
<path d="M4.03699 15.3981L4.48049 15.2966L4.03847 15.2334L4.03699 15.3981Z" fill="#F9B60F"/>
<path d="M2.93544 12.8568L3.31253 12.9768L3.1985 13.5873L2.84153 13.6427C2.84153 13.6427 2.78134 13.3217 2.93544 12.8564" fill="#F9D90F"/>
<path d="M2.84558 13.6432L3.07856 13.3218L3.20424 13.5875L2.84558 13.6432Z" fill="#F9B60F"/>
<path fill-rule="evenodd" clip-rule="evenodd" d="M2.93154 12.8481L3.32133 12.9722L3.20556 13.5919L2.83879 13.6489L2.83773 13.6433L2.84355 13.6422C2.83773 13.6433 2.83773 13.6433 2.83773 13.6433L2.83771 13.6432L2.83768 13.643L2.83755 13.6423C2.83743 13.6416 2.83727 13.6407 2.83707 13.6394C2.83666 13.6369 2.83608 13.6332 2.8354 13.6283C2.83404 13.6185 2.83228 13.6041 2.83065 13.5853C2.8274 13.5477 2.82468 13.4928 2.8268 13.4233C2.83102 13.2846 2.85453 13.0878 2.93154 12.8549V12.8481ZM2.94114 12.8636C2.86584 13.0931 2.8428 13.2869 2.83863 13.4237C2.83653 13.4927 2.83923 13.5471 2.84245 13.5842C2.84406 13.6028 2.8458 13.6171 2.84713 13.6267C2.84762 13.6302 2.84806 13.6332 2.84842 13.6354L3.19546 13.5815L3.30776 12.9803L2.94114 12.8636Z" fill="black"/>
<path fill-rule="evenodd" clip-rule="evenodd" d="M4.48205 15.3021L4.03572 15.4036L4.03308 15.392L4.47941 15.2905L4.48205 15.3021Z" fill="black"/>
<path fill-rule="evenodd" clip-rule="evenodd" d="M3.19748 13.5901L3.07214 13.3224L3.08292 13.3174L3.20825 13.5851L3.19748 13.5901Z" fill="black"/>
<path d="M6.81832 15.4L6.37482 15.2986L6.81684 15.2354L6.81832 15.4Z" fill="#F9B60F"/>
<path d="M7.91993 12.8578L7.54285 12.9778L7.65688 13.5883L8.01384 13.6437C8.01384 13.6437 8.07403 13.3227 7.91993 12.8574" fill="#F9D90F"/>
<path d="M8.01673 13.6447L7.78375 13.3232L7.65807 13.589L8.01673 13.6447Z" fill="#F9B60F"/>
<path fill-rule="evenodd" clip-rule="evenodd" d="M7.92482 12.8564V12.8496L7.53503 12.9736L7.6508 13.5934L8.01757 13.6504L8.01863 13.6447L8.01281 13.6436C8.01863 13.6447 8.01863 13.6447 8.01863 13.6447L8.01865 13.6447L8.01868 13.6445L8.01881 13.6437C8.01893 13.6431 8.01909 13.6421 8.01929 13.6409C8.01971 13.6384 8.02028 13.6347 8.02096 13.6298C8.02232 13.62 8.02408 13.6055 8.02571 13.5867C8.02896 13.5492 8.03168 13.4943 8.02956 13.4248C8.02534 13.2861 8.00184 13.0892 7.92482 12.8564ZM8.00794 13.6369C8.0083 13.6346 8.00874 13.6317 8.00923 13.6281C8.01056 13.6185 8.0123 13.6043 8.01391 13.5857C8.01713 13.5486 8.01983 13.4941 8.01773 13.4252C8.01356 13.2884 7.99052 13.0946 7.91522 12.8651L7.5486 12.9818L7.6609 13.583L8.00794 13.6369Z" fill="black"/>
<path fill-rule="evenodd" clip-rule="evenodd" d="M6.37364 15.2925L6.81997 15.3939L6.81733 15.4055L6.371 15.3041L6.37364 15.2925Z" fill="black"/>
<path fill-rule="evenodd" clip-rule="evenodd" d="M7.65425 13.586L7.77958 13.3184L7.79036 13.3234L7.66503 13.5911L7.65425 13.586Z" fill="black"/>
<path fill-rule="evenodd" clip-rule="evenodd" d="M4.03398 14.8682L4.47046 14.9075L4.47149 14.908C4.56811 14.9577 4.72331 15 4.89693 15.0299C5.07042 15.0598 5.26175 15.0772 5.43035 15.0772C5.5989 15.0776 5.78678 15.0607 5.95683 15.0311C6.1273 15.0014 6.27933 14.9591 6.37597 14.9091L6.37701 14.9086L6.81254 14.87L6.82122 15.4021L6.8181 15.4039C6.63572 15.5044 6.33475 15.5652 6.05711 15.6008C5.77927 15.6363 5.52369 15.6467 5.43126 15.646C5.33874 15.6467 5.08053 15.6362 4.79988 15.6003C4.51943 15.5645 4.21547 15.5033 4.03227 15.4024L4.02917 15.4007L4.03398 14.8682ZM5.42943 15.089C5.26032 15.0889 5.0687 15.0715 4.89492 15.0416C4.72157 15.0117 4.56543 14.9694 4.4671 14.919L4.0457 14.8811L4.04108 15.3937C4.22243 15.4925 4.52251 15.553 4.80138 15.5886C5.08161 15.6244 5.33932 15.6349 5.43121 15.6342H5.43131C5.52311 15.6349 5.77819 15.6245 6.0556 15.589C6.33166 15.5537 6.62874 15.4935 6.80926 15.3952L6.80091 14.8829L6.38037 14.9201C6.28208 14.9707 6.12911 15.0131 5.95886 15.0427C5.78788 15.0725 5.59894 15.0895 5.42943 15.089Z" fill="black"/>
<path d="M8.14447 13.2979L7.78098 13.3241C7.77282 13.6321 7.73547 14.8074 6.33191 14.8712L6.3756 15.2988C8.0841 15.3165 8.2139 13.8572 8.14447 13.2979Z" fill="#F9D90F"/>
<path fill-rule="evenodd" clip-rule="evenodd" d="M8.15032 13.292L8.15101 13.2976C8.18582 13.578 8.17075 14.084 7.93262 14.518C7.8135 14.7351 7.63854 14.9342 7.38612 15.0779C7.13372 15.2215 6.80419 15.3096 6.37621 15.3051L6.37092 15.3051L6.32605 14.866L6.33231 14.8657C7.03207 14.8339 7.39041 14.5253 7.57519 14.1868C7.76025 13.8479 7.77165 13.4784 7.77573 13.3244L7.77587 13.319L8.15032 13.292ZM7.78742 13.3301C7.7832 13.4873 7.77 13.8548 7.58559 14.1925C7.39932 14.5336 7.03879 14.8437 6.3391 14.8773L6.38162 15.2934C6.80531 15.297 7.13102 15.2094 7.38026 15.0676C7.63053 14.9251 7.80403 14.7278 7.92224 14.5123C8.1572 14.0841 8.17368 13.5846 8.13994 13.3046L7.78742 13.3301Z" fill="black"/>
<path d="M2.71094 13.2964L3.07443 13.3227C3.08259 13.6306 3.11994 14.8059 4.5235 14.8697L4.47981 15.2973C2.77131 15.3151 2.64151 13.8558 2.71094 13.2964Z" fill="#F9D90F"/>
<path fill-rule="evenodd" clip-rule="evenodd" d="M2.70786 13.2905L3.08232 13.3176L3.08246 13.3229C3.08653 13.4769 3.09793 13.8464 3.28299 14.1854C3.46778 14.5238 3.82611 14.8324 4.52588 14.8643L4.53213 14.8645L4.48727 15.3036L4.48198 15.3037C4.05399 15.3081 3.72447 15.2201 3.47206 15.0764C3.21965 14.9327 3.04469 14.7337 2.92557 14.5166C2.68743 14.0826 2.67236 13.5765 2.70717 13.2961L2.70786 13.2905ZM2.71824 13.3032C2.68451 13.5832 2.70098 14.0827 2.93595 14.5109C3.05416 14.7263 3.22765 14.9237 3.47792 15.0661C3.72716 15.208 4.05288 15.2955 4.47656 15.2919L4.51908 14.8758C3.81939 14.8422 3.45886 14.5322 3.2726 14.191C3.08819 13.8533 3.07498 13.4858 3.07076 13.3286L2.71824 13.3032Z" fill="black"/>
<path d="M5.19785 15.3412C5.18824 15.3474 5.17519 15.349 5.16014 15.3483L5.09233 15.3449L5.09814 15.2602L5.1654 15.2638C5.17863 15.2647 5.18915 15.2673 5.19567 15.2713C5.20927 15.2783 5.21525 15.2914 5.21398 15.3095C5.21308 15.3251 5.20764 15.3353 5.19767 15.3412H5.19785ZM5.08381 15.4745L5.09052 15.3713L5.16957 15.3768C5.19513 15.3788 5.21416 15.3721 5.22704 15.359C5.24045 15.3463 5.24734 15.3296 5.24825 15.3108C5.24988 15.2888 5.24426 15.2709 5.2312 15.2577C5.2187 15.245 5.20093 15.2383 5.17863 15.2361L5.06569 15.229L5.05009 15.4719L5.08363 15.4741" fill="#012A87"/>
<path d="M5.34079 15.2713L5.42346 15.2722C5.43542 15.2732 5.44485 15.2747 5.45174 15.278C5.46443 15.2839 5.47041 15.2959 5.47041 15.3133C5.47041 15.3296 5.4657 15.3405 5.45645 15.347C5.44757 15.353 5.4347 15.3557 5.41929 15.3557L5.33988 15.3548L5.34061 15.2713H5.34079ZM5.33934 15.4864L5.34007 15.3827L5.41766 15.3838C5.43144 15.3838 5.44159 15.3849 5.44866 15.3884C5.46008 15.3936 5.4657 15.4047 5.46625 15.4199L5.46824 15.4607C5.46879 15.4705 5.46897 15.4765 5.46951 15.4804C5.47059 15.4833 5.47114 15.4864 5.47259 15.4886H5.51429L5.51356 15.4833C5.50885 15.4808 5.50504 15.4759 5.50341 15.4685C5.50196 15.4638 5.50123 15.4567 5.50087 15.4478L5.50015 15.4154C5.4996 15.4007 5.49707 15.3905 5.49145 15.3849C5.48655 15.3784 5.47984 15.3728 5.46951 15.3693C5.48111 15.3632 5.48982 15.3561 5.49616 15.3474C5.50214 15.3378 5.50522 15.3256 5.50522 15.3108C5.50522 15.2829 5.4938 15.2638 5.4706 15.2535C5.45809 15.2479 5.44214 15.245 5.42328 15.2446L5.30671 15.2435L5.30581 15.4871H5.33934" fill="#012A87"/>
<path d="M5.6155 15.4355C5.60064 15.4174 5.59266 15.3947 5.59085 15.3679C5.58921 15.3342 5.59574 15.3084 5.61115 15.291C5.62674 15.2722 5.64687 15.2631 5.67315 15.2617C5.69962 15.2602 5.72138 15.2687 5.73751 15.2854C5.75401 15.3017 5.76344 15.3244 5.76507 15.3527C5.76597 15.3798 5.76126 15.4039 5.74875 15.4251C5.73642 15.4467 5.71594 15.4589 5.68566 15.4596C5.65412 15.4612 5.63055 15.4538 5.6155 15.4355ZM5.57562 15.2821C5.56003 15.3062 5.55368 15.3342 5.55531 15.3679C5.55767 15.4043 5.56891 15.4344 5.59012 15.4571C5.61369 15.4797 5.64487 15.4911 5.68331 15.489C5.72446 15.4871 5.75546 15.4716 5.77649 15.4429C5.79353 15.417 5.80169 15.3869 5.79988 15.3497C5.79752 15.3166 5.78791 15.2896 5.76996 15.2694C5.7473 15.2424 5.71413 15.2305 5.66916 15.2323C5.62674 15.235 5.59556 15.2506 5.57544 15.2821" fill="#012A87"/>
<path d="M2.88084 13.7484L2.88646 13.7788C2.87286 13.7816 2.86198 13.787 2.85401 13.7941C2.83968 13.8075 2.83479 13.8276 2.83968 13.855C2.84186 13.8666 2.84603 13.878 2.85129 13.8871C2.86217 13.9056 2.8763 13.913 2.89425 13.9101C2.90749 13.9077 2.91619 13.9027 2.92036 13.8932C2.92435 13.884 2.92725 13.8698 2.92816 13.8517L2.92979 13.8174C2.93091 13.7962 2.93323 13.7796 2.93794 13.7703C2.94537 13.7536 2.95934 13.7433 2.98018 13.7399C3.00248 13.7359 3.02206 13.741 3.03892 13.7536C3.05596 13.7654 3.06721 13.7859 3.07137 13.8131C3.07664 13.8379 3.07428 13.8602 3.06448 13.8803C3.05505 13.8999 3.03692 13.9119 3.00919 13.917L3.00375 13.8862C3.01662 13.8814 3.02623 13.8769 3.03257 13.8706C3.04345 13.8584 3.04671 13.8408 3.04254 13.8167C3.03927 13.7971 3.03257 13.7845 3.02241 13.7781C3.01245 13.7707 3.00247 13.7678 2.99159 13.7696C2.97945 13.7714 2.97147 13.7781 2.96766 13.789C2.96531 13.7962 2.9635 13.8113 2.96186 13.8343L2.96023 13.8698C2.95934 13.8865 2.95679 13.9003 2.95117 13.9097C2.94229 13.9271 2.92724 13.9378 2.90531 13.9412C2.87757 13.946 2.85618 13.9396 2.84095 13.9218C2.82536 13.9044 2.81575 13.8836 2.81085 13.8577C2.80541 13.8269 2.8094 13.8029 2.82173 13.7837C2.83424 13.764 2.854 13.7526 2.88084 13.7488" fill="#012A87"/>
<path d="M2.86543 14.0698L3.10509 13.9976L3.16093 14.1664L3.13174 14.1756L3.08606 14.0369L3.01318 14.0589L3.05542 14.187L3.0275 14.1959L2.98562 14.0674L2.9044 14.0917L2.95081 14.2334L2.92217 14.2416L2.86543 14.0698Z" fill="#012A87"/>
<path d="M2.97166 14.3623L3.19212 14.2454L3.21568 14.2865L3.06412 14.4468L3.28548 14.4089L3.30832 14.4497L3.08842 14.5659L3.07282 14.5389L3.20263 14.4705C3.20734 14.4678 3.2146 14.4638 3.22511 14.4582C3.23544 14.4535 3.24705 14.4471 3.25865 14.4412L3.0382 14.4787L3.02206 14.45L3.17254 14.2903L3.16529 14.294C3.16057 14.2967 3.15241 14.3007 3.14135 14.307C3.13047 14.3137 3.12232 14.3179 3.11706 14.3201L2.98762 14.3895L2.97167 14.362" fill="#012A87"/>
<path d="M3.38247 14.6869C3.37141 14.6844 3.36054 14.6781 3.34984 14.667L3.30325 14.619L3.36597 14.5615L3.41293 14.6094C3.42199 14.6183 3.4278 14.6269 3.43088 14.6344C3.43522 14.6487 3.43088 14.6618 3.41764 14.6741C3.40568 14.6851 3.39371 14.6897 3.38247 14.6869ZM3.20535 14.7092L3.28222 14.6387L3.33679 14.694C3.35437 14.712 3.37232 14.7201 3.39117 14.7198C3.41039 14.7187 3.42689 14.7116 3.44139 14.6978C3.45771 14.6833 3.4655 14.6663 3.4655 14.648C3.46528 14.6302 3.45717 14.6135 3.44212 14.598L3.3638 14.518L3.18142 14.6855L3.20499 14.7092" fill="#012A87"/>
<path d="M3.42526 14.905L3.55742 14.6978L3.71369 14.7928L3.69738 14.8175L3.56902 14.7406L3.52932 14.8033L3.64734 14.8749L3.63211 14.8987L3.51391 14.8274L3.46895 14.8976L3.59893 14.9757L3.58334 15.0002L3.42526 14.905Z" fill="#012A87"/>
<path d="M3.81648 14.8649L3.89589 14.8902C3.90713 14.8936 3.91529 14.8979 3.92073 14.9028C3.93088 14.9124 3.9336 14.9262 3.92762 14.9429C3.92273 14.9574 3.91529 14.9668 3.90369 14.9708C3.89336 14.9726 3.8803 14.9726 3.86507 14.9679L3.7902 14.944L3.81648 14.8649ZM3.74796 15.0685L3.78095 14.9697L3.85492 14.9938C3.86816 14.9973 3.87777 15.002 3.88248 15.0069C3.89154 15.015 3.89426 15.0272 3.88973 15.0422L3.87867 15.0815C3.87613 15.0911 3.87486 15.0975 3.87378 15.1004C3.87378 15.1035 3.87378 15.1068 3.87433 15.1089L3.91331 15.1216L3.91567 15.116C3.9115 15.1127 3.90914 15.1068 3.90932 15.0993C3.91022 15.0948 3.9115 15.0875 3.91404 15.0792L3.92347 15.0476C3.92728 15.0339 3.92873 15.0235 3.92528 15.0161C3.92237 15.0083 3.91748 15.0012 3.90932 14.9946C3.92165 14.9924 3.93235 14.9886 3.94141 14.9818C3.94994 14.9744 3.95718 14.9641 3.96154 14.9496C3.97042 14.9233 3.96552 14.9014 3.94594 14.8847C3.93616 14.876 3.9222 14.8686 3.90389 14.8617L3.79293 14.8274L3.71534 15.0585L3.74779 15.0685" fill="#012A87"/>
<path d="M6.70443 14.9146C6.72788 14.9111 6.74816 14.9125 6.76654 14.9192C6.79357 14.9282 6.81151 14.9487 6.82237 14.9797L6.78875 14.9838C6.7818 14.967 6.77168 14.9554 6.75784 14.9488C6.74435 14.9426 6.72734 14.9408 6.70771 14.9433C6.68481 14.9464 6.66629 14.9574 6.65309 14.9755C6.64004 14.9948 6.63576 15.0209 6.64077 15.0543C6.64498 15.082 6.6547 15.1055 6.6711 15.1214C6.68621 15.1376 6.70877 15.1437 6.73839 15.14C6.76057 15.1368 6.77849 15.1283 6.79128 15.1133C6.80459 15.099 6.8088 15.0771 6.80497 15.0488L6.72663 15.0593L6.72313 15.0325L6.83219 15.0177L6.85104 15.147L6.82941 15.1499L6.81654 15.1199C6.80724 15.1332 6.79798 15.1433 6.7899 15.1491C6.77629 15.1594 6.75804 15.1658 6.73533 15.1686C6.70588 15.1726 6.67915 15.1669 6.65515 15.1508C6.62886 15.1306 6.61218 15.1009 6.6064 15.0601C6.60006 15.0199 6.60703 14.9857 6.62601 14.9591C6.64407 14.9333 6.6699 14.9185 6.70443 14.9143" fill="#012A87"/>
<path d="M6.95074 14.9003L7.0292 14.8734C7.03997 14.8696 7.04924 14.8685 7.0572 14.8696C7.0715 14.8709 7.08185 14.8796 7.08753 14.8968C7.09288 14.9114 7.09265 14.9241 7.08614 14.9328C7.07927 14.9419 7.06863 14.9485 7.0533 14.9538L6.97959 14.9787L6.95074 14.9003ZM7.02501 15.103L6.98873 15.0047L7.06171 14.9799C7.07538 14.9758 7.08485 14.9736 7.09191 14.9745C7.10475 14.9763 7.11439 14.9843 7.12065 14.9993L7.13646 15.0367C7.13992 15.046 7.14272 15.0517 7.14503 15.0543C7.14605 15.0576 7.14838 15.0596 7.15015 15.0618L7.18975 15.048L7.18767 15.0427C7.18187 15.0426 7.17631 15.0393 7.17225 15.0328C7.16926 15.0283 7.16647 15.0217 7.16244 15.014L7.15013 14.9833C7.14457 14.97 7.13874 14.9617 7.13194 14.9567C7.12512 14.9528 7.11647 14.9501 7.10615 14.9492C7.11429 14.9401 7.12026 14.9309 7.12264 14.9201C7.12519 14.9091 7.12433 14.8967 7.11933 14.8829C7.10983 14.8568 7.09178 14.8423 7.06608 14.84C7.0525 14.8387 7.03686 14.8413 7.0188 14.8473L6.90861 14.8843L6.99288 15.115L7.02518 15.1038" fill="#012A87"/>
<path d="M7.31234 14.9876L7.17701 14.7822L7.33141 14.6877L7.34782 14.7125L7.22129 14.7901L7.26294 14.8528L7.37976 14.7807L7.3951 14.8047L7.27828 14.8769L7.32416 14.9461L7.45289 14.867L7.46931 14.8913L7.31216 14.9876" fill="#012A87"/>
<path d="M7.44051 14.6313L7.48119 14.5882C7.50004 14.5689 7.51978 14.5604 7.54112 14.5633C7.56247 14.5655 7.58402 14.5772 7.60685 14.5979C7.61311 14.6029 7.61861 14.6093 7.62428 14.6165C7.63419 14.6299 7.63996 14.6417 7.64355 14.6533C7.64655 14.6679 7.64558 14.6811 7.64028 14.6937C7.63708 14.7 7.63151 14.7073 7.62319 14.716L7.58234 14.7588L7.44052 14.6309L7.44051 14.6313ZM7.6494 14.7303C7.67825 14.6996 7.68502 14.6662 7.66922 14.6281C7.65999 14.6074 7.64567 14.5872 7.62569 14.5694C7.60054 14.5463 7.57411 14.5342 7.54605 14.5315C7.51492 14.5286 7.48825 14.5394 7.46477 14.5641L7.39546 14.6357L7.5799 14.8026L7.64921 14.7307" fill="#012A87"/>
<path d="M7.79804 14.5439L7.58466 14.4133L7.60275 14.3857L7.81651 14.5156L7.79822 14.5443" fill="#012A87"/>
<path d="M7.88538 14.3983L7.65416 14.3009L7.72585 14.1383L7.75393 14.1497L7.69545 14.2837L7.7651 14.3125L7.81975 14.1892L7.84638 14.2007L7.79227 14.3239L7.87017 14.3572L7.93013 14.2217L7.95821 14.2328L7.8852 14.3983" fill="#012A87"/>
<path d="M7.99755 14.1143L7.75347 14.0556L7.76232 14.0179L7.99011 13.9456L7.79207 13.8981L7.79986 13.8685L8.04396 13.9257L8.0355 13.9623L7.80731 14.0363L8.00537 14.0829L7.99773 14.1143" fill="#012A87"/>
<path d="M7.98384 13.8027L7.98748 13.772C8.00161 13.7726 8.01361 13.7707 8.02277 13.766C8.04071 13.7567 8.05137 13.7386 8.05458 13.7116C8.0559 13.6989 8.05557 13.6879 8.05285 13.6773C8.04797 13.6569 8.03675 13.6455 8.01848 13.6433C8.00491 13.6416 7.99506 13.6447 7.98786 13.652C7.98136 13.6604 7.97443 13.6726 7.96903 13.6899L7.95721 13.7218C7.94958 13.7427 7.9426 13.757 7.93521 13.7651C7.92333 13.7801 7.90692 13.785 7.8861 13.7832C7.86385 13.7805 7.84588 13.7712 7.83332 13.754C7.82038 13.7381 7.81534 13.7158 7.81911 13.6882C7.82174 13.6631 7.83047 13.6421 7.84565 13.6253C7.85971 13.61 7.88123 13.6029 7.90855 13.6063L7.90545 13.6371C7.89204 13.6368 7.8813 13.639 7.8734 13.6443C7.85912 13.6518 7.85103 13.6682 7.84823 13.6922C7.84587 13.7121 7.84835 13.7256 7.85578 13.7359C7.86323 13.7445 7.87274 13.7501 7.88396 13.7513C7.89591 13.7526 7.9054 13.7489 7.9121 13.7398C7.91692 13.7335 7.9228 13.7199 7.93082 13.6977L7.94249 13.6642C7.94821 13.6487 7.95495 13.6369 7.96272 13.6285C7.97658 13.6146 7.99445 13.609 8.01671 13.611C8.04385 13.6144 8.06304 13.626 8.07263 13.6468C8.08204 13.6679 8.08543 13.691 8.08259 13.717C8.07897 13.7465 8.06894 13.7695 8.05089 13.7848C8.03284 13.8004 8.01062 13.8054 7.98384 13.8027Z" fill="#012A87"/>
</g>
<defs>
<clipPath id="clip0_1692_54130">
<rect x="2.04883" y="6.33447" width="19.9495" height="13.2997" rx="1" fill="white"/>
</clipPath>
</defs>
</svg>
