<svg width="25" height="25" viewBox="0 0 25 25" fill="none" xmlns="http://www.w3.org/2000/svg">
<g clip-path="url(#clip0_1692_54048)">
<path d="M2.04883 6.33447H21.9983V19.6341H2.04883V6.33447Z" fill="#DC171D"/>
<path d="M12.0238 10.0762L6.83008 12.9847L12.0238 15.8931L17.2175 12.9847L12.0238 10.0762Z" fill="white"/>
<path d="M6.2161 12.7188H2.49219V7.37832C2.49219 7.04695 2.76082 6.77832 3.09219 6.77832H11.7576V9.61558L6.2161 12.7188Z" fill="#012A87"/>
<path d="M17.8312 12.7188H21.5551V7.37832C21.5551 7.04695 21.2864 6.77832 20.9551 6.77832H12.2896V9.61558L17.8312 12.7188Z" fill="#012A87"/>
<path d="M6.2161 13.2508H2.49219V18.5914C2.49219 18.9227 2.76082 19.1913 3.09219 19.1913H11.7576V16.3541L6.2161 13.2508Z" fill="#012A87"/>
<path d="M17.8312 13.2508H21.5551V18.5914C21.5551 18.9227 21.2864 19.1913 20.9551 19.1913H12.2896V16.3541L17.8312 13.2508Z" fill="#012A87"/>
<path d="M12.0252 10.7559L12.204 11.3063L12.7827 11.3063L12.3146 11.6465L12.4934 12.1969L12.0252 11.8567L11.5569 12.1969L11.7358 11.6465L11.2676 11.3063L11.8463 11.3063L12.0252 10.7559Z" fill="#F9D90F"/>
<path d="M8.28516 13.801C8.34526 13.6049 8.4761 13.5179 8.65299 13.5573C8.76246 13.1421 9.26783 13.068 9.46838 13.2723L9.96208 13.7681C10.0693 13.818 10.2327 13.8367 10.3461 13.8367C10.4864 13.8389 10.4707 13.9034 10.588 13.9056C10.9004 13.9116 11.7216 13.9157 11.8704 13.9056C11.9314 13.9014 13.292 12.4015 13.292 12.4015C13.4055 12.2616 13.7011 12.2168 13.862 12.3302C14.0124 12.4727 14.1708 12.4886 14.2816 12.3936C14.3792 12.2484 14.6006 12.2315 14.7408 12.3144L16.2802 13.5073L14.2039 14.6687H9.83592L8.28516 13.801Z" fill="#008830"/>
</g>
<defs>
<clipPath id="clip0_1692_54048">
<rect x="2.04883" y="6.33447" width="19.9495" height="13.2997" rx="1" fill="white"/>
</clipPath>
</defs>
</svg>
