<svg width="25" height="25" viewBox="0 0 25 25" fill="none" xmlns="http://www.w3.org/2000/svg">
<g clip-path="url(#clip0_1692_54042)">
<path d="M2.04883 6.33398H21.9983V19.6337H2.04883V6.33398Z" fill="#FF0000"/>
<path d="M2.04883 6.33398H21.9983V15.2004H2.04883V6.33398Z" fill="#005CE5"/>
<path d="M2.04883 6.33398H21.9983V10.7672H2.04883V6.33398Z" fill="white"/>
<path fill-rule="evenodd" clip-rule="evenodd" d="M7.81071 8.66699C7.78094 8.66704 7.75125 8.66765 7.72164 8.66851C7.14577 8.68343 6.60512 8.83215 6.22015 9.01352L6.22019 9.01404C6.1781 9.03163 6.13686 9.04927 6.09766 9.06691L6.22998 11.1395C6.32166 12.2226 7.0275 12.8532 7.81175 13.1009C8.59599 12.8532 9.30179 12.2226 9.39348 11.1395L9.52506 9.07349C9.48578 9.05315 9.44458 9.03344 9.40253 9.01404L9.40257 9.01352C8.99795 8.82289 8.42142 8.66806 7.8127 8.66699C7.81225 8.66699 7.81181 8.66699 7.81136 8.66699C7.81114 8.66699 7.81093 8.66699 7.81071 8.66699Z" fill="#005CE5"/>
<path fill-rule="evenodd" clip-rule="evenodd" d="M7.809 10.1006L7.42191 10.8565L7.17166 10.5314L6.51776 11.3955C6.52958 11.4492 6.54346 11.501 6.55861 11.5515C6.63164 11.6748 6.77198 11.8155 6.95198 11.8155C7.09482 11.8155 7.23765 11.7012 7.38049 11.7012C7.52333 11.7012 7.66616 11.8155 7.809 11.8155C7.95183 11.8155 8.09467 11.7012 8.23751 11.7012C8.38034 11.7012 8.52318 11.8155 8.66601 11.8155C8.84439 11.8155 8.98379 11.6774 9.05739 11.5549C9.07309 11.503 9.0872 11.4496 9.09938 11.3944L8.44633 10.5314L8.19608 10.8565L7.809 10.1006ZM7.38049 11.8155C7.23765 11.8155 7.09482 11.9297 6.95198 11.9297C6.83894 11.9297 6.74182 11.8897 6.6666 11.8329C6.69316 11.8893 6.72126 11.9441 6.75201 11.996C6.81094 12.0327 6.87791 12.0574 6.95198 12.0574C7.09482 12.0574 7.23765 11.9432 7.38049 11.9432C7.52333 11.9432 7.66616 12.0574 7.809 12.0574C7.95183 12.0574 8.09467 11.9432 8.23751 11.9432C8.38034 11.9432 8.52318 12.0574 8.66601 12.0574C8.73904 12.0574 8.80508 12.0332 8.86341 11.9974C8.89415 11.9457 8.92223 11.8911 8.94883 11.8349C8.87396 11.8906 8.77774 11.9297 8.66601 11.9297C8.52318 11.9297 8.38034 11.8155 8.23751 11.8155C8.09467 11.8155 7.95183 11.9297 7.809 11.9297C7.66616 11.9297 7.52333 11.8155 7.38049 11.8155ZM7.38049 12.0574C7.23765 12.0574 7.09482 12.1717 6.95198 12.1717C6.92095 12.1717 6.89144 12.1681 6.86285 12.1626C7.10997 12.4927 7.44711 12.7137 7.80871 12.8408C8.16957 12.7139 8.50618 12.4927 8.75314 12.1631C8.72519 12.1684 8.6963 12.1717 8.66601 12.1717C8.52318 12.1717 8.38034 12.0574 8.23751 12.0574C8.09467 12.0574 7.95183 12.1717 7.809 12.1717C7.66616 12.1717 7.52333 12.0574 7.38049 12.0574Z" fill="white"/>
<path fill-rule="evenodd" clip-rule="evenodd" d="M7.92623 9.68167L7.98024 9.7752H7.87222L7.92623 9.68167ZM7.87223 9.58816H7.98023L7.92623 9.68167L7.87223 9.58816ZM7.76418 9.58816H7.87223L7.81821 9.49459L7.76418 9.58816ZM7.71017 9.68169L7.76417 9.7752H7.65617L7.71017 9.68169ZM7.71017 9.68169L7.76418 9.58816H7.65616L7.71017 9.68169ZM7.76417 9.7752L7.81819 9.86876L7.87222 9.7752H7.76417Z" fill="#FFE500"/>
<path d="M7.87222 9.7752L7.92623 9.68167L7.87223 9.58816H7.76418L7.71017 9.68169L7.76417 9.7752H7.87222Z" fill="#FFE500"/>
<path fill-rule="evenodd" clip-rule="evenodd" d="M7.4439 9.03571L7.49791 9.12924H7.38989L7.4439 9.03571ZM7.3899 8.9422H7.49789L7.4439 9.03571L7.3899 8.9422ZM7.28185 8.9422H7.3899L7.33588 8.84863L7.28185 8.9422ZM7.22784 9.03573L7.28183 9.12924H7.17384L7.22784 9.03573ZM7.22784 9.03573L7.28185 8.9422H7.17383L7.22784 9.03573ZM7.28183 9.12924L7.33586 9.2228L7.38989 9.12924H7.28183Z" fill="#FFE500"/>
<path d="M7.38989 9.12924L7.4439 9.03571L7.3899 8.9422H7.28185L7.22784 9.03573L7.28183 9.12924H7.38989Z" fill="#FFE500"/>
<path fill-rule="evenodd" clip-rule="evenodd" d="M8.40855 9.03571L8.46256 9.12924H8.35454L8.40855 9.03571ZM8.35455 8.9422H8.46254L8.40855 9.03571L8.35455 8.9422ZM8.2465 8.9422H8.35455L8.30053 8.84863L8.2465 8.9422ZM8.19249 9.03573L8.24648 9.12924H8.13849L8.19249 9.03573ZM8.19249 9.03573L8.2465 8.9422H8.13848L8.19249 9.03573ZM8.24648 9.12924L8.30051 9.2228L8.35454 9.12924H8.24648Z" fill="#FFE500"/>
<path d="M8.35454 9.12924L8.40855 9.03571L8.35455 8.9422H8.2465L8.19249 9.03573L8.24648 9.12924H8.35454Z" fill="#FFE500"/>
<path fill-rule="evenodd" clip-rule="evenodd" d="M7.94056 8.76025C7.86645 8.7607 7.79258 8.76715 7.71887 8.77628C7.79258 8.76812 7.86641 8.76072 7.94056 8.76025ZM6.22019 9.01475C6.17809 9.03235 6.13688 9.04998 6.09766 9.06762L6.22998 11.1403C6.32166 12.2234 7.02746 12.8539 7.81171 13.1016C8.59595 12.8539 9.30175 12.2234 9.39343 11.1403L9.52502 9.0742C9.48573 9.05386 9.44454 9.03415 9.40248 9.01475L9.27969 11.0716C9.19457 12.1247 8.53939 12.7378 7.81136 12.9785C7.08333 12.7378 6.4281 12.1247 6.34299 11.0716L6.22019 9.01475Z" fill="#FF0000"/>
</g>
<defs>
<clipPath id="clip0_1692_54042">
<rect x="2.04688" y="6.33398" width="19.9534" height="13.3001" rx="1" fill="white"/>
</clipPath>
</defs>
</svg>
