<svg width="25" height="25" viewBox="0 0 25 25" fill="none" xmlns="http://www.w3.org/2000/svg">
<g clip-path="url(#clip0_1692_53995)">
<path d="M21.9983 6.33398H2.04883V19.6337H21.9983V6.33398Z" fill="#EE1C25"/>
<path d="M21.9983 6.33398H2.04883V15.2004H21.9983V6.33398Z" fill="#0B4EA2"/>
<path d="M21.9983 6.33398H2.04883V10.7672H21.9983V6.33398Z" fill="white"/>
<path d="M10.7645 9.45996H10.5848H8.02556H5.46635H5.28673L5.26796 9.6386C5.26388 9.67743 5.16797 10.6133 5.16797 12.6685C5.16797 13.6341 5.49439 14.486 6.13818 15.2005C6.58924 15.7011 7.17828 16.1226 7.939 16.489L8.02556 16.5307L8.11214 16.489C8.87288 16.1226 9.46197 15.7011 9.91305 15.2005C10.5568 14.486 10.8833 13.6341 10.8833 12.6685C10.8833 10.6133 10.7873 9.67743 10.7833 9.6386L10.7645 9.45996Z" fill="white"/>
<path d="M8.02566 16.31C6.93183 15.7831 5.36719 14.7373 5.36719 12.6686C5.36719 10.6 5.46608 9.65918 5.46608 9.65918H8.02566H10.5853C10.5853 9.65918 10.6842 10.6 10.6842 12.6686C10.6842 14.7373 9.11958 15.7831 8.02566 16.31Z" fill="#EE1C25"/>
<path d="M8.25878 12.127C8.55496 12.1318 9.1328 12.1434 9.64735 11.9712C9.64735 11.9712 9.63376 12.1553 9.63376 12.3698C9.63376 12.5843 9.64735 12.7685 9.64735 12.7685C9.17539 12.6105 8.59254 12.6072 8.25878 12.6115V13.754H7.79092V12.6115C7.45716 12.6072 6.87433 12.6105 6.40234 12.7685C6.40234 12.7685 6.41593 12.5843 6.41593 12.3698C6.41593 12.1553 6.40234 11.9712 6.40234 11.9712C6.91689 12.1434 7.49474 12.1318 7.79092 12.127V11.4094C7.52096 11.407 7.13198 11.4199 6.69214 11.5671C6.69214 11.5671 6.70573 11.383 6.70573 11.1685C6.70573 10.9539 6.69214 10.7698 6.69214 10.7698C7.13131 10.9168 7.51985 10.9299 7.78972 10.9275C7.77584 10.4731 7.64347 9.90039 7.64347 9.90039C7.64347 9.90039 7.91591 9.92165 8.02483 9.92165C8.13385 9.92165 8.4062 9.90039 8.4062 9.90039C8.4062 9.90039 8.27387 10.4731 8.25997 10.9275C8.52986 10.9298 8.91838 10.9167 9.35755 10.7698C9.35755 10.7698 9.34396 10.9539 9.34396 11.1684C9.34396 11.3829 9.35755 11.5671 9.35755 11.5671C8.91774 11.4199 8.52873 11.407 8.25878 11.4094V12.1269V12.127Z" fill="white"/>
<path d="M8.02651 13.6289C7.47556 13.6289 7.18046 14.3931 7.18046 14.3931C7.18046 14.3931 7.01674 14.0307 6.56724 14.0307C6.2631 14.0307 6.03897 14.3012 5.89648 14.5517C6.44981 15.4319 7.33261 15.9751 8.02649 16.3093C8.7205 15.9751 9.60388 15.432 10.1572 14.5517C10.0147 14.3012 9.79061 14.0307 9.48647 14.0307C9.03694 14.0307 8.87253 14.3931 8.87253 14.3931C8.87253 14.3931 8.57751 13.6289 8.02651 13.6289Z" fill="#0B4EA2"/>
</g>
<defs>
<clipPath id="clip0_1692_53995">
<rect x="2.04688" y="6.33398" width="19.9534" height="13.3001" rx="1" fill="white"/>
</clipPath>
</defs>
</svg>
