<svg width="25" height="25" viewBox="0 0 25 25" fill="none" xmlns="http://www.w3.org/2000/svg">
<g clip-path="url(#clip0_1692_53983)">
<path fill-rule="evenodd" clip-rule="evenodd" d="M21.9983 19.6337V6.33398H2.04883V19.6337H21.9983Z" fill="white"/>
<path fill-rule="evenodd" clip-rule="evenodd" d="M14.8464 12.9745C14.8464 12.9745 13.8396 11.6122 12.4331 12.9104L12.1185 13.1419L11.8039 13.3734C10.4125 14.5286 9.38086 13.1117 9.38086 13.1117L9.3829 13.2572C9.40051 13.6821 9.51706 14.097 9.72326 14.469C10.4552 15.7938 12.1209 16.2736 13.4437 15.5405C14.3689 15.0279 14.8814 14.0576 14.8555 13.0673L14.8464 12.9745Z" fill="#1E71B8"/>
<path fill-rule="evenodd" clip-rule="evenodd" d="M9.39584 12.9738C9.45306 12.0716 9.94464 11.2137 10.7933 10.7436C12.1161 10.0106 13.7818 10.4903 14.5137 11.8151C14.6891 12.1323 14.7856 12.4664 14.827 12.8054L14.8466 12.9749C14.8466 12.9749 13.8397 11.6127 12.4332 12.9109L12.1186 13.1424L11.804 13.3738C10.4125 14.529 9.38086 13.1122 9.38086 13.1122L9.39584 12.9738Z" fill="#CC2229"/>
<path fill-rule="evenodd" clip-rule="evenodd" d="M8.0256 7.75506L7.52274 7.46436L5.72289 10.5864L6.22575 10.8771L8.0256 7.75506ZM8.80497 8.2057L8.30211 7.915L6.50227 11.037L7.00501 11.3277L8.80497 8.2057ZM9.58435 8.65635L9.08149 8.36553L7.28164 11.4876L7.7845 11.7783L9.58435 8.65635ZM17.278 9.54299L17.7807 9.25228L18.584 10.659L18.0812 10.9497L17.278 9.54299ZM16.315 7.82283L16.8179 7.53212L17.6211 8.93888L17.1184 9.22969L16.315 7.82283ZM15.7103 10.4443L16.2131 10.1536L17.0163 11.5603L16.5135 11.851L15.7103 10.4443ZM14.7474 8.72411L15.2503 8.43341L16.0535 9.84016L15.5507 10.131L14.7474 8.72411ZM15.5018 8.27835L16.0047 7.98765L17.8047 11.1097L17.3019 11.4004L15.5018 8.27835ZM16.0245 16.2136L15.5216 15.9228L14.7184 17.3297L15.2212 17.6204L16.0245 16.2136ZM16.9873 14.4935L16.4845 14.2028L15.6812 15.6095L16.184 15.9001L16.9873 14.4935ZM17.5921 17.1148L17.0893 16.8242L16.2861 18.2309L16.7888 18.5216L17.5921 17.1148ZM18.555 15.3946L18.0521 15.1041L17.2489 16.5107L17.7518 16.8014L18.555 15.3946ZM16.8126 16.6544L16.3098 16.3637L15.5067 17.7705L16.0096 18.0613L16.8126 16.6544ZM17.7755 14.9344L17.2726 14.6435L16.4694 16.0504L16.9724 16.3411L17.7755 14.9344ZM7.31558 14.3868L7.81833 14.0962L9.61829 17.2182L9.11543 17.5088L7.31558 14.3868ZM7.52319 16.5528L8.02605 16.262L8.83891 17.6686L8.33605 17.9596L7.52319 16.5528ZM6.56515 14.8666L7.06801 14.5757L7.88087 15.9826L7.37801 16.2732L6.56515 14.8666ZM5.75672 15.2881L6.25958 14.9974L8.05942 18.1194L7.55668 18.4101L5.75672 15.2881Z" fill="black"/>
</g>
<defs>
<clipPath id="clip0_1692_53983">
<rect x="2.04688" y="6.33398" width="19.9534" height="13.3001" rx="1" fill="white"/>
</clipPath>
</defs>
</svg>
