<svg width="25" height="25" viewBox="0 0 25 25" fill="none" xmlns="http://www.w3.org/2000/svg">
<g clip-path="url(#clip0_1692_53982)">
<path d="M1.97656 7.99707H21.9261V17.9718H1.97656V7.99707Z" fill="#FFBE29"/>
<path d="M2.90825 8.92822H8.09512V17.041H2.90825V8.92822Z" fill="#EB7400"/>
<path d="M2.90825 8.92822H5.50169V17.041H2.90825V8.92822Z" fill="#00534E"/>
<path d="M9.02344 8.92822H20.9931V17.041H9.02344V8.92822Z" fill="#8D153A"/>
<mask id="path-6-outside-1_1692_53982" maskUnits="userSpaceOnUse" x="10.1113" y="8.64014" width="9" height="8" fill="black">
<rect fill="white" x="10.1113" y="8.64014" width="9" height="8"/>
<path d="M13.1282 16.0178L13.2039 15.9752L13.2362 16.0179C13.2793 16.0748 13.3986 16.0741 13.4777 16.0166L13.5382 15.9726L13.5889 16.0166C13.6555 16.0744 13.78 16.0745 13.8594 16.0168C13.915 15.9764 13.9228 15.9756 13.9595 16.0063C13.9815 16.0246 14.0458 16.0455 14.1024 16.0527C14.2045 16.0656 14.206 16.0649 14.2658 15.9775C14.3158 15.9043 14.3236 15.8747 14.3117 15.8037C14.3037 15.7566 14.2952 15.6809 14.2927 15.6353C14.2882 15.5529 14.2887 15.5524 14.4117 15.5106C14.4797 15.4875 14.5583 15.4565 14.5865 15.4418C14.6357 15.4161 14.7712 15.2607 14.7712 15.2301C14.7712 15.2219 14.7182 15.2095 14.6535 15.2024C14.3962 15.1743 14.3526 15.0395 14.5199 14.789C14.7927 14.3806 14.9574 13.9829 14.9585 13.7295C14.9589 13.6163 14.9656 13.5783 14.9805 13.6029C15.0414 13.7035 14.9322 14.1255 14.7668 14.4286L14.7002 14.5506L14.7638 14.5363C14.7987 14.5285 15.0042 14.4439 15.2205 14.3483C15.8123 14.0868 16.0156 14.0355 16.3986 14.0513C16.7195 14.0645 16.8562 14.1256 17.0827 14.3575C17.2027 14.4803 17.3184 14.5682 17.5299 14.6974C17.9805 14.9726 17.9993 14.9964 18.0207 15.3201C18.0424 15.648 18.0316 15.6658 17.7774 15.7206C17.5601 15.7674 17.4239 15.8662 17.3874 16.0035C17.3679 16.0769 17.409 16.079 17.5185 16.0103L17.5988 15.9599L17.6345 16.0103C17.6814 16.0765 17.7812 16.0767 17.864 16.0109L17.9266 15.9612L17.9905 16.0109C18.0899 16.0882 18.2221 16.0694 18.2594 15.9728C18.2665 15.9542 18.2857 15.9601 18.3244 15.993C18.397 16.0546 18.5832 16.081 18.6033 16.0326C18.6109 16.0141 18.5964 15.9685 18.5709 15.9312C18.4626 15.7728 18.4287 15.6972 18.4273 15.611C18.4253 15.491 18.462 15.4332 18.6018 15.3356C18.7717 15.2171 18.8242 15.0642 18.695 15.0642C18.6153 15.0642 18.5349 14.9954 18.4836 14.8833C18.3794 14.6555 18.3998 14.4001 18.5562 13.9751C18.7151 13.5435 18.7327 13.4639 18.7334 13.1752C18.7339 12.9418 18.7279 12.9014 18.6734 12.7735C18.6401 12.6952 18.5726 12.5787 18.5234 12.5146L18.4338 12.398L18.5488 12.305C18.8998 12.0213 18.828 11.5569 18.4055 11.378C18.2762 11.3232 18.2439 11.3184 18.0173 11.3199C17.8814 11.3208 17.6742 11.3382 17.5568 11.3587C17.4371 11.3795 17.2346 11.3963 17.0956 11.3968C16.8748 11.3977 16.8374 11.3924 16.7523 11.3482C16.6636 11.3021 16.6484 11.2802 16.631 11.1737C16.6274 11.1519 16.6118 11.13 16.5962 11.1252C16.566 11.1159 16.4266 11.2339 16.4061 11.2862C16.3959 11.312 16.3876 11.3102 16.3578 11.2758C16.338 11.253 16.3104 11.2005 16.2964 11.1592C16.2612 11.0554 16.3044 10.9775 16.4295 10.9192L16.5266 10.8739L16.4694 10.8393C16.3513 10.7677 16.1504 10.8167 16.0778 10.9346C16.0572 10.968 16.0348 10.9954 16.028 10.9955C16.0211 10.9955 15.9821 10.9637 15.9412 10.9247C15.7887 10.7793 15.8412 10.5642 16.0451 10.4985C16.1539 10.4635 16.2501 10.4902 16.2702 10.561C16.3007 10.669 16.3958 10.527 16.3787 10.3988C16.3674 10.3135 16.3691 10.3106 16.4296 10.3106C16.5137 10.3106 16.6927 10.4182 16.748 10.5021C16.8123 10.5996 16.8076 10.7531 16.7369 10.8674L16.6813 10.9572L16.754 10.943C16.8606 10.9222 16.9641 10.8576 17.0165 10.7793C17.0719 10.6965 17.0778 10.5353 17.0287 10.4483C16.9811 10.364 16.9866 10.3506 17.057 10.3791C17.1766 10.4276 17.2406 10.481 17.2886 10.5726C17.3318 10.6551 17.3342 10.6756 17.3108 10.7614C17.2963 10.8144 17.2642 10.8841 17.2394 10.9163C17.2008 10.9664 17.1995 10.9748 17.2302 10.9748C17.2876 10.9748 17.4073 10.9219 17.4498 10.8777C17.4713 10.8554 17.5026 10.8005 17.5194 10.7556L17.55 10.6741L17.5851 10.7363C17.6347 10.8241 17.7312 10.9032 17.8488 10.9524C17.9754 11.0053 18.0281 11.0083 17.9619 10.9588C17.9173 10.9254 17.8351 10.69 17.86 10.667C17.8746 10.6535 18.0464 10.7824 18.2426 10.9542C18.4281 11.1167 18.5447 11.17 18.7151 11.17C18.9328 11.17 19.0595 10.9851 18.9617 10.8103C18.9046 10.7083 18.7776 10.6942 18.7033 10.7815C18.6691 10.8216 18.6597 10.8535 18.6697 10.8956C18.682 10.9472 18.6772 10.9541 18.629 10.9541C18.5658 10.9541 18.441 10.8751 18.2195 10.6948C17.8817 10.4197 17.4713 10.1866 17.1749 10.1015C16.9847 10.0468 16.5784 10.0255 16.3851 10.06C16.1758 10.0974 15.9283 10.2142 15.7935 10.3393C15.5545 10.5609 15.5507 10.8559 15.7834 11.1244L15.85 11.2014L15.8049 11.2698C15.7393 11.3692 15.7449 11.5031 15.8188 11.6017C15.8514 11.6451 15.8843 11.6806 15.8918 11.6806C15.8994 11.6806 15.9078 11.6527 15.9103 11.6186C15.9169 11.5323 15.9548 11.4745 16.0199 11.4516C16.0786 11.431 16.1165 11.4407 16.3851 11.5453C16.6677 11.6554 17.1325 11.663 17.6266 11.5656C17.8689 11.5178 18.1545 11.5206 18.2802 11.572C18.5106 11.6661 18.564 11.9111 18.3946 12.0971C18.3213 12.1776 18.2506 12.2104 18.0133 12.2739C17.8326 12.3223 17.7898 12.3255 17.3793 12.3215C17.0285 12.3181 16.9025 12.3247 16.7593 12.3538C16.6039 12.3855 16.5083 12.3887 16.0517 12.3775L15.5237 12.3645L15.5823 12.4118C15.6145 12.4378 15.66 12.4698 15.6834 12.4829C15.7232 12.5052 15.7219 12.5082 15.6627 12.5296C15.6279 12.5422 15.5507 12.5525 15.4911 12.5525H15.3828L15.3682 12.6423C15.3602 12.6917 15.3608 12.7494 15.3696 12.7705C15.3825 12.8016 15.3777 12.806 15.3441 12.7941C15.3213 12.786 15.2579 12.7702 15.2031 12.7588C15.1484 12.7475 15.0746 12.7244 15.0393 12.7075C14.9799 12.6791 14.9733 12.6799 14.9514 12.7177C14.9319 12.7514 14.7484 12.8846 14.7215 12.8846C14.7171 12.8846 14.7115 12.8589 14.709 12.8275C14.7065 12.7961 14.68 12.7144 14.6502 12.6459C14.6203 12.5774 14.5892 12.5027 14.5809 12.4798C14.5685 12.4454 14.5629 12.4436 14.5479 12.4695C14.5379 12.4866 14.5234 12.5333 14.5156 12.5732C14.5078 12.6132 14.4802 12.6781 14.4542 12.7175L14.4069 12.7891L14.3768 12.7279C14.3444 12.6622 14.2907 12.594 14.2713 12.594C14.2647 12.594 14.2535 12.615 14.2464 12.6407C14.2316 12.6944 14.1042 12.8431 14.0731 12.8431C14.0617 12.8431 14.0523 12.8011 14.0523 12.7497C14.0523 12.6983 14.0422 12.6563 14.0298 12.6563C14.0175 12.6563 14.0074 12.6696 14.0074 12.6858C14.0074 12.7253 13.8986 12.8431 13.8621 12.8431C13.8462 12.8431 13.8206 12.8571 13.8052 12.8742C13.7651 12.9189 13.7323 12.9126 13.7491 12.8635C13.757 12.8405 13.7519 12.7868 13.7377 12.7442C13.7235 12.7015 13.7084 12.6562 13.7042 12.6433C13.6988 12.6272 13.6598 12.6315 13.5773 12.6573C13.444 12.699 13.3993 12.6916 13.4679 12.6392C13.493 12.6201 13.5311 12.5537 13.5526 12.4918C13.5741 12.4298 13.6059 12.3749 13.6232 12.3696C13.6474 12.3623 13.6462 12.3714 13.6176 12.409C13.5972 12.4359 13.5805 12.4722 13.5804 12.4896C13.5804 12.5071 13.565 12.5484 13.5463 12.5815C13.5276 12.6146 13.5159 12.645 13.5202 12.649C13.5245 12.653 13.5753 12.6342 13.6329 12.6072L13.7378 12.5581L13.7382 12.602C13.7385 12.6261 13.7511 12.6898 13.7663 12.7435L13.7939 12.8411L13.8653 12.8091C13.9383 12.7764 14.0074 12.6598 14.0074 12.5694C14.0074 12.5247 14.0336 12.5315 14.0443 12.579C14.0475 12.593 14.064 12.6453 14.0809 12.6953L14.1118 12.7862L14.1607 12.7288C14.1876 12.6972 14.2213 12.6353 14.2356 12.5912C14.2604 12.5146 14.2994 12.4817 14.2994 12.5373C14.2994 12.5774 14.4115 12.7211 14.4331 12.7088C14.4436 12.7028 14.4644 12.6488 14.4794 12.5889C14.5106 12.4641 14.5608 12.3793 14.5928 12.3976C14.6048 12.4044 14.6095 12.4177 14.6032 12.4272C14.5969 12.4366 14.6227 12.5177 14.6606 12.6074C14.6984 12.6971 14.7364 12.7874 14.745 12.808C14.7589 12.8413 14.7714 12.8364 14.8525 12.7665C14.903 12.723 14.9489 12.6743 14.9544 12.6583C14.9627 12.6341 14.974 12.6349 15.0212 12.6635C15.0872 12.7035 15.3093 12.7679 15.3264 12.7521C15.3328 12.7462 15.3394 12.6893 15.341 12.6257L15.344 12.51L15.4079 12.5229C15.443 12.53 15.5168 12.5296 15.5719 12.522L15.6722 12.5081L15.5828 12.4483C15.5337 12.4154 15.484 12.3728 15.4725 12.3537C15.4601 12.3333 15.4164 12.316 15.3668 12.3119C15.233 12.3008 14.9958 12.171 14.9958 12.1089C14.9958 12.0972 15.0287 12.117 15.0688 12.1529C15.1579 12.2326 15.2817 12.2826 15.3897 12.2826H15.4706L15.4206 12.2177C15.3918 12.1804 15.3661 12.1096 15.36 12.0514C15.3504 11.9587 15.3403 11.9439 15.241 11.8766C15.1814 11.8361 15.1075 11.7755 15.0769 11.7418L15.0212 11.6806L14.9927 11.7533C14.9771 11.7932 14.958 11.8259 14.9503 11.8259C14.9426 11.8259 14.9125 11.8026 14.8835 11.774C14.8545 11.7455 14.8249 11.7222 14.8178 11.7224C14.8107 11.7225 14.785 11.761 14.7607 11.8078L14.7165 11.893L14.6823 11.8439C14.6635 11.8169 14.6192 11.7691 14.5837 11.7377C14.5483 11.7063 14.5296 11.6806 14.5423 11.6806C14.555 11.6806 14.5987 11.7133 14.6395 11.7533L14.7137 11.826L14.7439 11.7727C14.7618 11.7411 14.7685 11.6926 14.7604 11.6533C14.7486 11.5961 14.7502 11.5928 14.7727 11.6287C14.787 11.6516 14.8304 11.6953 14.8692 11.726L14.9396 11.7818L14.9883 11.6949C15.0367 11.6084 15.037 11.6082 15.059 11.6599C15.0885 11.7289 15.3015 11.8994 15.483 11.9989C15.5109 12.0143 15.4991 11.9615 15.4475 11.8402C15.4338 11.808 15.4226 11.7501 15.4226 11.7114C15.4226 11.654 15.4057 11.6285 15.3304 11.5726C15.2218 11.492 15.1867 11.4347 15.1663 11.3046C15.158 11.2519 15.139 11.1933 15.124 11.1744C15.1019 11.1463 15.0982 11.162 15.1041 11.2598C15.1081 11.3257 15.0994 11.4077 15.0846 11.4419L15.0578 11.5042L15.0371 11.4523C15.0257 11.4237 14.9753 11.3741 14.9252 11.342C14.875 11.3098 14.8397 11.2782 14.8469 11.2716C14.854 11.265 14.9057 11.2943 14.9616 11.3366C15.0469 11.4012 15.0657 11.4082 15.0775 11.3798C15.0913 11.3463 15.0775 11.201 15.0506 11.0994C15.0373 11.0487 15.0384 11.0489 15.1026 11.1115C15.1499 11.1577 15.176 11.2127 15.1963 11.3087C15.222 11.4307 15.235 11.451 15.3506 11.55C15.4201 11.6095 15.4805 11.6548 15.4849 11.6508C15.4893 11.6467 15.4981 11.4928 15.5044 11.3089C15.5164 10.9561 15.5028 10.8721 15.4157 10.7632L15.371 10.7072L15.4413 10.6331C15.5331 10.5366 15.5752 10.4592 15.5935 10.3536L15.6083 10.2677L15.5289 10.341C15.464 10.4011 15.4329 10.4144 15.3576 10.4144C15.2831 10.4144 15.254 10.4022 15.2038 10.35C15.1435 10.2873 15.0367 10.227 14.934 10.1977C14.8961 10.1868 14.8835 10.1916 14.8835 10.2166C14.8835 10.2349 14.8625 10.2879 14.8369 10.3343L14.7903 10.4186L14.6928 10.3246C14.6329 10.2668 14.5619 10.2219 14.5091 10.2084C14.3741 10.1737 14.3668 10.1772 14.3668 10.2753C14.3668 10.4241 14.3016 10.4519 14.1844 10.3529C14.0951 10.2775 14.0209 10.2611 13.8515 10.2793L13.7206 10.2933L13.7442 10.351C13.7638 10.3991 13.7594 10.4194 13.7173 10.4741C13.6489 10.5628 13.56 10.6012 13.4232 10.6012C13.3602 10.6012 13.2814 10.6139 13.248 10.6295C13.2147 10.645 13.1318 10.6629 13.0638 10.6693C12.9958 10.6756 12.9234 10.6869 12.9028 10.6944C12.8707 10.7062 12.8671 10.6965 12.8775 10.6251C12.8934 10.5158 12.8151 10.4351 12.6931 10.4351C12.5349 10.4351 12.4619 10.5732 12.5239 10.7554C12.5358 10.7905 12.5514 10.8458 12.5585 10.8783C12.566 10.912 12.6372 11.0016 12.7245 11.0868C12.8087 11.169 12.8882 11.2544 12.9013 11.2768C12.9144 11.2991 12.9575 11.3349 12.9972 11.3564L13.0694 11.3954L13.0599 11.3201C13.0494 11.2372 13.0679 11.2242 13.1131 11.2827C13.1292 11.3036 13.1702 11.3374 13.2042 11.3577C13.2577 11.3898 13.266 11.3905 13.266 11.3626C13.266 11.3449 13.2769 11.3041 13.2902 11.272L13.3145 11.2136L13.3565 11.2931C13.3797 11.3368 13.4549 11.4362 13.5238 11.5139C13.6573 11.6648 13.7387 11.8334 13.6967 11.8722C13.6797 11.8879 13.6336 11.8867 13.5382 11.868C13.4642 11.8535 13.3727 11.8458 13.3348 11.8509C13.2575 11.8614 13.2514 11.8517 13.299 11.7936C13.3492 11.7323 13.3412 11.7221 13.2426 11.7221C13.1285 11.7221 12.8453 11.6688 12.7365 11.6268C12.6308 11.586 12.6064 11.5962 12.5753 11.694C12.5613 11.738 12.5357 11.8178 12.5184 11.8713L12.4868 11.9685L12.6012 11.9578C12.6641 11.9519 12.745 11.9384 12.781 11.9279C12.817 11.9174 12.8497 11.9118 12.8537 11.9155C12.8577 11.9192 12.8416 11.9572 12.818 11.9999L12.7752 12.0776L12.8465 12.0635C12.8857 12.0557 12.9447 12.0366 12.9776 12.021C13.0348 11.994 13.0394 11.996 13.0846 12.0667C13.1401 12.1537 13.1845 12.1501 13.1944 12.0579C13.2046 11.9625 13.2367 11.9766 13.2972 12.103C13.3553 12.2245 13.4158 12.2674 13.4274 12.1953C13.4313 12.1714 13.4626 12.1325 13.497 12.1088C13.5667 12.061 13.6191 12.0753 13.6492 12.1505C13.6804 12.2283 13.6109 12.3084 13.4089 12.4279C13.0042 12.6673 12.769 12.9946 12.7018 13.4118C12.6413 13.7882 12.8304 14.1771 13.21 14.4564C13.3916 14.59 13.6801 14.7311 13.6618 14.6773C13.5839 14.4487 13.5865 14.0125 13.6661 13.9389C13.6781 13.9279 13.674 13.9734 13.657 14.0401C13.5937 14.2884 13.6212 14.4863 13.7833 14.9501C13.9299 15.3696 13.9096 15.5488 13.7021 15.6673C13.6355 15.7054 13.5926 15.7117 13.4134 15.7096C13.219 15.7073 13.1978 15.7111 13.1354 15.7596C13.0749 15.8067 12.9964 15.9611 12.9964 16.0332C12.9964 16.0723 13.0408 16.0671 13.1282 16.0179L13.1282 16.0178Z"/>
<path d="M16.2841 16.0094L16.3657 15.9582L16.421 16.0094C16.4935 16.0764 16.5785 16.0749 16.6482 16.0053C16.6786 15.975 16.7059 15.954 16.7089 15.9586C16.7118 15.9633 16.7254 15.9858 16.739 16.0086C16.7562 16.0375 16.7917 16.052 16.8556 16.0564C16.9327 16.0617 16.9534 16.0545 16.984 16.0113L17.0205 15.9598L17.1008 16.0102C17.3206 16.148 17.4377 16.0034 17.3395 15.7154C17.2895 15.569 17.317 15.4867 17.4779 15.3004C17.5458 15.2218 17.6014 15.1379 17.6015 15.114C17.6015 15.0759 17.5889 15.0707 17.4986 15.0725C17.4121 15.0742 17.3868 15.0651 17.3413 15.0162C17.2673 14.9367 17.2717 14.8457 17.3545 14.7447L17.4206 14.664L17.3033 14.5863C17.2388 14.5436 17.1225 14.4426 17.0448 14.3618C16.8704 14.1803 16.6989 14.0943 16.4728 14.0748L16.3211 14.0617L16.3213 14.1737C16.3216 14.3178 16.391 14.4565 16.5803 14.6914C16.7955 14.9585 16.8105 14.9999 16.8192 15.349L16.8266 15.6442L16.7643 15.7019C16.708 15.7539 16.6827 15.7606 16.5011 15.7708C16.3282 15.7805 16.2919 15.7892 16.2412 15.8331C16.1738 15.8913 16.1536 15.923 16.1328 16.0034C16.1207 16.0503 16.1256 16.0605 16.1603 16.0605C16.1835 16.0605 16.2392 16.0375 16.2841 16.0094L16.2841 16.0094Z"/>
<path d="M11.6935 15.1552C11.6935 15.1179 11.7106 15.108 11.7946 15.0963L11.8958 15.0823L11.8283 15.0298C11.7482 14.9675 11.7408 14.9188 11.8114 14.9187C11.8818 14.9187 12.0009 14.8474 12.019 14.7947C12.0275 14.7702 12.0222 14.7374 12.0071 14.7206C11.9676 14.6767 11.8935 14.6833 11.8797 14.732C11.8649 14.7843 11.8401 14.7844 11.7839 14.7325C11.6993 14.6544 11.6974 14.4926 11.78 14.3985C11.8189 14.3541 11.8185 14.3512 11.7689 14.3054C11.7156 14.2561 11.6775 14.1585 11.7026 14.1354C11.7105 14.128 11.7527 14.1339 11.7962 14.1484C11.8581 14.1691 11.8825 14.1694 11.908 14.1499C11.9852 14.0907 11.9015 14.0145 11.7777 14.0313C11.7279 14.0381 11.7073 14.0313 11.7002 14.0061C11.6948 13.987 11.6512 13.962 11.6021 13.9499C11.5144 13.9283 11.5137 13.9285 11.5137 13.9875C11.5137 14.0521 11.4759 14.0643 11.4041 14.0229C11.3457 13.9892 11.2891 14.0153 11.2891 14.076C11.2891 14.1326 11.3474 14.1605 11.452 14.1539C11.5321 14.1489 11.5351 14.2071 11.459 14.2907L11.4042 14.3508L11.4476 14.4116C11.5118 14.5017 11.5064 14.6513 11.4362 14.7256L11.3812 14.7838L11.3451 14.7371C11.2949 14.6722 11.2263 14.6766 11.2075 14.7458C11.1952 14.7912 11.2054 14.8119 11.2636 14.86C11.3027 14.8923 11.3598 14.9187 11.3905 14.9187C11.4665 14.9187 11.4635 14.977 11.3846 15.0359L11.3228 15.082L11.4183 15.0964C11.4708 15.1044 11.5137 15.1193 11.5137 15.1297C11.5137 15.1692 11.5385 15.2894 11.6012 15.2924C11.6572 15.2951 11.6921 15.212 11.6935 15.1552Z"/>
<path d="M12.9017 14.7206C12.9884 14.6872 13.1761 14.5321 13.1761 14.4938C13.1761 14.4817 13.1243 14.4261 13.061 14.3702C12.9277 14.2525 12.7827 14.0544 12.7452 13.9385C12.7256 13.8781 12.631 13.7747 12.3644 13.5225L12.0096 13.1868L11.9074 13.212C11.8512 13.2259 11.7825 13.2377 11.7549 13.2381C11.7073 13.2388 11.7082 13.2414 11.7715 13.2892L11.8382 13.3396L11.9319 13.289C12.0226 13.2398 12.0258 13.2395 12.037 13.2791C12.0436 13.3022 12.0294 13.3423 12.0043 13.3718C11.98 13.4004 11.9662 13.4328 11.9736 13.4438C11.9809 13.4549 11.9576 13.4779 11.9216 13.4951C11.855 13.5269 11.8088 13.6317 11.8614 13.6317C11.9086 13.6317 12.0129 13.5062 12.0009 13.4637C11.9948 13.442 11.9977 13.4196 12.0075 13.414C12.0481 13.3908 12.0456 13.4894 12.0043 13.5379C11.98 13.5664 11.9662 13.5988 11.9736 13.6099C11.9809 13.6209 11.9576 13.644 11.9216 13.6612C11.8555 13.6928 11.8088 13.7978 11.8609 13.7978C11.9119 13.7978 12.0145 13.6778 12.0018 13.6329C11.9952 13.6095 11.9977 13.5857 12.0075 13.5801C12.0349 13.5645 12.0496 13.6423 12.0265 13.6804C12.0142 13.7008 12.0143 13.7287 12.0268 13.7508C12.0496 13.7909 12.0265 13.8678 11.9847 13.8917C11.9667 13.9019 11.9789 13.9221 12.0224 13.9541C12.0854 14.0005 12.0866 14.0054 12.0866 14.2102C12.0866 14.3814 12.0937 14.4256 12.1259 14.4554C12.1621 14.4888 12.1652 14.4889 12.1652 14.4569C12.1652 14.4218 12.2282 14.379 12.2798 14.379C12.295 14.379 12.39 14.4576 12.4909 14.5536C12.5924 14.6502 12.6986 14.7323 12.7287 14.7376C12.7585 14.7428 12.7909 14.7483 12.8006 14.7499C12.8102 14.7514 12.8557 14.7382 12.9017 14.7206Z"/>
<path d="M11.8171 13.8925C11.8171 13.8373 11.7004 13.7784 11.5609 13.7631C11.4482 13.7508 11.4464 13.7515 11.4464 13.8064C11.4464 13.8519 11.4641 13.8697 11.5419 13.9028C11.6668 13.9559 11.8171 13.9502 11.8171 13.8925Z"/>
<path d="M11.9449 13.8874C12.0018 13.837 12.0288 13.7771 11.9945 13.7771C11.9552 13.7771 11.8507 13.8686 11.8507 13.9031C11.8507 13.9569 11.8701 13.9537 11.9449 13.8874Z"/>
<path d="M11.8236 13.7242C11.8285 13.6931 11.8087 13.6723 11.7496 13.6463C11.622 13.59 11.4694 13.564 11.4327 13.5922C11.365 13.6441 11.4101 13.7138 11.5194 13.7263C11.5635 13.7313 11.6232 13.7444 11.6521 13.7554C11.7362 13.7873 11.8161 13.7727 11.8236 13.7242Z"/>
<path d="M11.8236 13.5575C11.8305 13.5131 11.8014 13.4972 11.5638 13.4156C11.3864 13.3547 11.3079 13.3834 11.3646 13.4885C11.3843 13.5251 11.4175 13.5418 11.4918 13.5527C11.5471 13.5608 11.6227 13.5765 11.6597 13.5878C11.7588 13.6178 11.816 13.6072 11.8236 13.5575Z"/>
<path d="M11.9427 13.4013C11.9785 13.3658 12.0078 13.324 12.0078 13.3083C12.0078 13.2574 11.8663 13.3474 11.8482 13.4098C11.8266 13.4846 11.8616 13.4814 11.9427 13.4013Z"/>
<path d="M11.8236 13.3908C11.8315 13.3402 11.7452 13.2945 11.5757 13.2594C11.4513 13.2336 11.3964 13.2482 11.4057 13.3046C11.4108 13.3354 11.4522 13.3579 11.5698 13.3937C11.7579 13.451 11.8145 13.4503 11.8236 13.3908Z"/>
<path d="M11.9895 13.1553C12.2068 13.061 12.2256 12.823 12.0207 12.7605C11.9356 12.7346 11.8813 12.7485 11.8487 12.8048C11.8238 12.8478 11.8405 12.9261 11.8746 12.9261C11.8861 12.9261 11.8955 12.9406 11.8955 12.9583C11.8955 13.0409 11.5638 13.0784 11.4277 13.0111C11.3799 12.9874 11.3591 12.9261 11.3989 12.9261C11.4286 12.9261 11.4492 12.8636 11.434 12.8193C11.4133 12.7591 11.3511 12.7382 11.2608 12.7613C11.0571 12.8132 11.0629 13.0467 11.2702 13.1458C11.4403 13.2271 11.813 13.232 11.9895 13.1553Z"/>
<path d="M11.8544 12.9724C11.8669 12.9607 11.8615 12.9429 11.8404 12.9267C11.7942 12.8913 11.7966 12.8386 11.8473 12.7783C11.8854 12.733 11.8901 12.6652 11.9032 11.9814C11.9258 10.8031 12.0156 9.91688 12.1339 9.70428C12.1811 9.61963 12.1745 9.61929 12.0527 9.70013C11.8958 9.80427 11.7764 9.93987 11.6706 10.134C11.4708 10.5005 11.4014 10.9935 11.4014 12.046C11.4014 12.6436 11.4055 12.7218 11.4404 12.778C11.4736 12.8314 11.4753 12.8511 11.452 12.9081C11.437 12.945 11.4301 12.9803 11.4368 12.9865C11.4814 13.0277 11.8064 13.0168 11.8544 12.9725V12.9724Z"/>
<path d="M13.6799 11.8488C13.6867 11.8386 13.6717 11.7872 13.6465 11.7346C13.6072 11.6525 13.5914 11.6389 13.5355 11.6389C13.3602 11.6389 13.0785 11.5625 12.7881 11.4362C12.6203 11.3633 12.5624 11.3465 12.5423 11.3651C12.491 11.4125 12.5763 11.5251 12.7083 11.5842C12.8255 11.6367 13.1531 11.7012 13.3025 11.7012C13.3892 11.7012 13.3912 11.705 13.3419 11.7746L13.3056 11.8257L13.4037 11.8282C13.4576 11.8296 13.5321 11.8378 13.5691 11.8465C13.6654 11.8691 13.6663 11.8692 13.6799 11.8488L13.6799 11.8488Z"/>
</mask>
<path d="M13.1282 16.0178L13.2039 15.9752L13.2362 16.0179C13.2793 16.0748 13.3986 16.0741 13.4777 16.0166L13.5382 15.9726L13.5889 16.0166C13.6555 16.0744 13.78 16.0745 13.8594 16.0168C13.915 15.9764 13.9228 15.9756 13.9595 16.0063C13.9815 16.0246 14.0458 16.0455 14.1024 16.0527C14.2045 16.0656 14.206 16.0649 14.2658 15.9775C14.3158 15.9043 14.3236 15.8747 14.3117 15.8037C14.3037 15.7566 14.2952 15.6809 14.2927 15.6353C14.2882 15.5529 14.2887 15.5524 14.4117 15.5106C14.4797 15.4875 14.5583 15.4565 14.5865 15.4418C14.6357 15.4161 14.7712 15.2607 14.7712 15.2301C14.7712 15.2219 14.7182 15.2095 14.6535 15.2024C14.3962 15.1743 14.3526 15.0395 14.5199 14.789C14.7927 14.3806 14.9574 13.9829 14.9585 13.7295C14.9589 13.6163 14.9656 13.5783 14.9805 13.6029C15.0414 13.7035 14.9322 14.1255 14.7668 14.4286L14.7002 14.5506L14.7638 14.5363C14.7987 14.5285 15.0042 14.4439 15.2205 14.3483C15.8123 14.0868 16.0156 14.0355 16.3986 14.0513C16.7195 14.0645 16.8562 14.1256 17.0827 14.3575C17.2027 14.4803 17.3184 14.5682 17.5299 14.6974C17.9805 14.9726 17.9993 14.9964 18.0207 15.3201C18.0424 15.648 18.0316 15.6658 17.7774 15.7206C17.5601 15.7674 17.4239 15.8662 17.3874 16.0035C17.3679 16.0769 17.409 16.079 17.5185 16.0103L17.5988 15.9599L17.6345 16.0103C17.6814 16.0765 17.7812 16.0767 17.864 16.0109L17.9266 15.9612L17.9905 16.0109C18.0899 16.0882 18.2221 16.0694 18.2594 15.9728C18.2665 15.9542 18.2857 15.9601 18.3244 15.993C18.397 16.0546 18.5832 16.081 18.6033 16.0326C18.6109 16.0141 18.5964 15.9685 18.5709 15.9312C18.4626 15.7728 18.4287 15.6972 18.4273 15.611C18.4253 15.491 18.462 15.4332 18.6018 15.3356C18.7717 15.2171 18.8242 15.0642 18.695 15.0642C18.6153 15.0642 18.5349 14.9954 18.4836 14.8833C18.3794 14.6555 18.3998 14.4001 18.5562 13.9751C18.7151 13.5435 18.7327 13.4639 18.7334 13.1752C18.7339 12.9418 18.7279 12.9014 18.6734 12.7735C18.6401 12.6952 18.5726 12.5787 18.5234 12.5146L18.4338 12.398L18.5488 12.305C18.8998 12.0213 18.828 11.5569 18.4055 11.378C18.2762 11.3232 18.2439 11.3184 18.0173 11.3199C17.8814 11.3208 17.6742 11.3382 17.5568 11.3587C17.4371 11.3795 17.2346 11.3963 17.0956 11.3968C16.8748 11.3977 16.8374 11.3924 16.7523 11.3482C16.6636 11.3021 16.6484 11.2802 16.631 11.1737C16.6274 11.1519 16.6118 11.13 16.5962 11.1252C16.566 11.1159 16.4266 11.2339 16.4061 11.2862C16.3959 11.312 16.3876 11.3102 16.3578 11.2758C16.338 11.253 16.3104 11.2005 16.2964 11.1592C16.2612 11.0554 16.3044 10.9775 16.4295 10.9192L16.5266 10.8739L16.4694 10.8393C16.3513 10.7677 16.1504 10.8167 16.0778 10.9346C16.0572 10.968 16.0348 10.9954 16.028 10.9955C16.0211 10.9955 15.9821 10.9637 15.9412 10.9247C15.7887 10.7793 15.8412 10.5642 16.0451 10.4985C16.1539 10.4635 16.2501 10.4902 16.2702 10.561C16.3007 10.669 16.3958 10.527 16.3787 10.3988C16.3674 10.3135 16.3691 10.3106 16.4296 10.3106C16.5137 10.3106 16.6927 10.4182 16.748 10.5021C16.8123 10.5996 16.8076 10.7531 16.7369 10.8674L16.6813 10.9572L16.754 10.943C16.8606 10.9222 16.9641 10.8576 17.0165 10.7793C17.0719 10.6965 17.0778 10.5353 17.0287 10.4483C16.9811 10.364 16.9866 10.3506 17.057 10.3791C17.1766 10.4276 17.2406 10.481 17.2886 10.5726C17.3318 10.6551 17.3342 10.6756 17.3108 10.7614C17.2963 10.8144 17.2642 10.8841 17.2394 10.9163C17.2008 10.9664 17.1995 10.9748 17.2302 10.9748C17.2876 10.9748 17.4073 10.9219 17.4498 10.8777C17.4713 10.8554 17.5026 10.8005 17.5194 10.7556L17.55 10.6741L17.5851 10.7363C17.6347 10.8241 17.7312 10.9032 17.8488 10.9524C17.9754 11.0053 18.0281 11.0083 17.9619 10.9588C17.9173 10.9254 17.8351 10.69 17.86 10.667C17.8746 10.6535 18.0464 10.7824 18.2426 10.9542C18.4281 11.1167 18.5447 11.17 18.7151 11.17C18.9328 11.17 19.0595 10.9851 18.9617 10.8103C18.9046 10.7083 18.7776 10.6942 18.7033 10.7815C18.6691 10.8216 18.6597 10.8535 18.6697 10.8956C18.682 10.9472 18.6772 10.9541 18.629 10.9541C18.5658 10.9541 18.441 10.8751 18.2195 10.6948C17.8817 10.4197 17.4713 10.1866 17.1749 10.1015C16.9847 10.0468 16.5784 10.0255 16.3851 10.06C16.1758 10.0974 15.9283 10.2142 15.7935 10.3393C15.5545 10.5609 15.5507 10.8559 15.7834 11.1244L15.85 11.2014L15.8049 11.2698C15.7393 11.3692 15.7449 11.5031 15.8188 11.6017C15.8514 11.6451 15.8843 11.6806 15.8918 11.6806C15.8994 11.6806 15.9078 11.6527 15.9103 11.6186C15.9169 11.5323 15.9548 11.4745 16.0199 11.4516C16.0786 11.431 16.1165 11.4407 16.3851 11.5453C16.6677 11.6554 17.1325 11.663 17.6266 11.5656C17.8689 11.5178 18.1545 11.5206 18.2802 11.572C18.5106 11.6661 18.564 11.9111 18.3946 12.0971C18.3213 12.1776 18.2506 12.2104 18.0133 12.2739C17.8326 12.3223 17.7898 12.3255 17.3793 12.3215C17.0285 12.3181 16.9025 12.3247 16.7593 12.3538C16.6039 12.3855 16.5083 12.3887 16.0517 12.3775L15.5237 12.3645L15.5823 12.4118C15.6145 12.4378 15.66 12.4698 15.6834 12.4829C15.7232 12.5052 15.7219 12.5082 15.6627 12.5296C15.6279 12.5422 15.5507 12.5525 15.4911 12.5525H15.3828L15.3682 12.6423C15.3602 12.6917 15.3608 12.7494 15.3696 12.7705C15.3825 12.8016 15.3777 12.806 15.3441 12.7941C15.3213 12.786 15.2579 12.7702 15.2031 12.7588C15.1484 12.7475 15.0746 12.7244 15.0393 12.7075C14.9799 12.6791 14.9733 12.6799 14.9514 12.7177C14.9319 12.7514 14.7484 12.8846 14.7215 12.8846C14.7171 12.8846 14.7115 12.8589 14.709 12.8275C14.7065 12.7961 14.68 12.7144 14.6502 12.6459C14.6203 12.5774 14.5892 12.5027 14.5809 12.4798C14.5685 12.4454 14.5629 12.4436 14.5479 12.4695C14.5379 12.4866 14.5234 12.5333 14.5156 12.5732C14.5078 12.6132 14.4802 12.6781 14.4542 12.7175L14.4069 12.7891L14.3768 12.7279C14.3444 12.6622 14.2907 12.594 14.2713 12.594C14.2647 12.594 14.2535 12.615 14.2464 12.6407C14.2316 12.6944 14.1042 12.8431 14.0731 12.8431C14.0617 12.8431 14.0523 12.8011 14.0523 12.7497C14.0523 12.6983 14.0422 12.6563 14.0298 12.6563C14.0175 12.6563 14.0074 12.6696 14.0074 12.6858C14.0074 12.7253 13.8986 12.8431 13.8621 12.8431C13.8462 12.8431 13.8206 12.8571 13.8052 12.8742C13.7651 12.9189 13.7323 12.9126 13.7491 12.8635C13.757 12.8405 13.7519 12.7868 13.7377 12.7442C13.7235 12.7015 13.7084 12.6562 13.7042 12.6433C13.6988 12.6272 13.6598 12.6315 13.5773 12.6573C13.444 12.699 13.3993 12.6916 13.4679 12.6392C13.493 12.6201 13.5311 12.5537 13.5526 12.4918C13.5741 12.4298 13.6059 12.3749 13.6232 12.3696C13.6474 12.3623 13.6462 12.3714 13.6176 12.409C13.5972 12.4359 13.5805 12.4722 13.5804 12.4896C13.5804 12.5071 13.565 12.5484 13.5463 12.5815C13.5276 12.6146 13.5159 12.645 13.5202 12.649C13.5245 12.653 13.5753 12.6342 13.6329 12.6072L13.7378 12.5581L13.7382 12.602C13.7385 12.6261 13.7511 12.6898 13.7663 12.7435L13.7939 12.8411L13.8653 12.8091C13.9383 12.7764 14.0074 12.6598 14.0074 12.5694C14.0074 12.5247 14.0336 12.5315 14.0443 12.579C14.0475 12.593 14.064 12.6453 14.0809 12.6953L14.1118 12.7862L14.1607 12.7288C14.1876 12.6972 14.2213 12.6353 14.2356 12.5912C14.2604 12.5146 14.2994 12.4817 14.2994 12.5373C14.2994 12.5774 14.4115 12.7211 14.4331 12.7088C14.4436 12.7028 14.4644 12.6488 14.4794 12.5889C14.5106 12.4641 14.5608 12.3793 14.5928 12.3976C14.6048 12.4044 14.6095 12.4177 14.6032 12.4272C14.5969 12.4366 14.6227 12.5177 14.6606 12.6074C14.6984 12.6971 14.7364 12.7874 14.745 12.808C14.7589 12.8413 14.7714 12.8364 14.8525 12.7665C14.903 12.723 14.9489 12.6743 14.9544 12.6583C14.9627 12.6341 14.974 12.6349 15.0212 12.6635C15.0872 12.7035 15.3093 12.7679 15.3264 12.7521C15.3328 12.7462 15.3394 12.6893 15.341 12.6257L15.344 12.51L15.4079 12.5229C15.443 12.53 15.5168 12.5296 15.5719 12.522L15.6722 12.5081L15.5828 12.4483C15.5337 12.4154 15.484 12.3728 15.4725 12.3537C15.4601 12.3333 15.4164 12.316 15.3668 12.3119C15.233 12.3008 14.9958 12.171 14.9958 12.1089C14.9958 12.0972 15.0287 12.117 15.0688 12.1529C15.1579 12.2326 15.2817 12.2826 15.3897 12.2826H15.4706L15.4206 12.2177C15.3918 12.1804 15.3661 12.1096 15.36 12.0514C15.3504 11.9587 15.3403 11.9439 15.241 11.8766C15.1814 11.8361 15.1075 11.7755 15.0769 11.7418L15.0212 11.6806L14.9927 11.7533C14.9771 11.7932 14.958 11.8259 14.9503 11.8259C14.9426 11.8259 14.9125 11.8026 14.8835 11.774C14.8545 11.7455 14.8249 11.7222 14.8178 11.7224C14.8107 11.7225 14.785 11.761 14.7607 11.8078L14.7165 11.893L14.6823 11.8439C14.6635 11.8169 14.6192 11.7691 14.5837 11.7377C14.5483 11.7063 14.5296 11.6806 14.5423 11.6806C14.555 11.6806 14.5987 11.7133 14.6395 11.7533L14.7137 11.826L14.7439 11.7727C14.7618 11.7411 14.7685 11.6926 14.7604 11.6533C14.7486 11.5961 14.7502 11.5928 14.7727 11.6287C14.787 11.6516 14.8304 11.6953 14.8692 11.726L14.9396 11.7818L14.9883 11.6949C15.0367 11.6084 15.037 11.6082 15.059 11.6599C15.0885 11.7289 15.3015 11.8994 15.483 11.9989C15.5109 12.0143 15.4991 11.9615 15.4475 11.8402C15.4338 11.808 15.4226 11.7501 15.4226 11.7114C15.4226 11.654 15.4057 11.6285 15.3304 11.5726C15.2218 11.492 15.1867 11.4347 15.1663 11.3046C15.158 11.2519 15.139 11.1933 15.124 11.1744C15.1019 11.1463 15.0982 11.162 15.1041 11.2598C15.1081 11.3257 15.0994 11.4077 15.0846 11.4419L15.0578 11.5042L15.0371 11.4523C15.0257 11.4237 14.9753 11.3741 14.9252 11.342C14.875 11.3098 14.8397 11.2782 14.8469 11.2716C14.854 11.265 14.9057 11.2943 14.9616 11.3366C15.0469 11.4012 15.0657 11.4082 15.0775 11.3798C15.0913 11.3463 15.0775 11.201 15.0506 11.0994C15.0373 11.0487 15.0384 11.0489 15.1026 11.1115C15.1499 11.1577 15.176 11.2127 15.1963 11.3087C15.222 11.4307 15.235 11.451 15.3506 11.55C15.4201 11.6095 15.4805 11.6548 15.4849 11.6508C15.4893 11.6467 15.4981 11.4928 15.5044 11.3089C15.5164 10.9561 15.5028 10.8721 15.4157 10.7632L15.371 10.7072L15.4413 10.6331C15.5331 10.5366 15.5752 10.4592 15.5935 10.3536L15.6083 10.2677L15.5289 10.341C15.464 10.4011 15.4329 10.4144 15.3576 10.4144C15.2831 10.4144 15.254 10.4022 15.2038 10.35C15.1435 10.2873 15.0367 10.227 14.934 10.1977C14.8961 10.1868 14.8835 10.1916 14.8835 10.2166C14.8835 10.2349 14.8625 10.2879 14.8369 10.3343L14.7903 10.4186L14.6928 10.3246C14.6329 10.2668 14.5619 10.2219 14.5091 10.2084C14.3741 10.1737 14.3668 10.1772 14.3668 10.2753C14.3668 10.4241 14.3016 10.4519 14.1844 10.3529C14.0951 10.2775 14.0209 10.2611 13.8515 10.2793L13.7206 10.2933L13.7442 10.351C13.7638 10.3991 13.7594 10.4194 13.7173 10.4741C13.6489 10.5628 13.56 10.6012 13.4232 10.6012C13.3602 10.6012 13.2814 10.6139 13.248 10.6295C13.2147 10.645 13.1318 10.6629 13.0638 10.6693C12.9958 10.6756 12.9234 10.6869 12.9028 10.6944C12.8707 10.7062 12.8671 10.6965 12.8775 10.6251C12.8934 10.5158 12.8151 10.4351 12.6931 10.4351C12.5349 10.4351 12.4619 10.5732 12.5239 10.7554C12.5358 10.7905 12.5514 10.8458 12.5585 10.8783C12.566 10.912 12.6372 11.0016 12.7245 11.0868C12.8087 11.169 12.8882 11.2544 12.9013 11.2768C12.9144 11.2991 12.9575 11.3349 12.9972 11.3564L13.0694 11.3954L13.0599 11.3201C13.0494 11.2372 13.0679 11.2242 13.1131 11.2827C13.1292 11.3036 13.1702 11.3374 13.2042 11.3577C13.2577 11.3898 13.266 11.3905 13.266 11.3626C13.266 11.3449 13.2769 11.3041 13.2902 11.272L13.3145 11.2136L13.3565 11.2931C13.3797 11.3368 13.4549 11.4362 13.5238 11.5139C13.6573 11.6648 13.7387 11.8334 13.6967 11.8722C13.6797 11.8879 13.6336 11.8867 13.5382 11.868C13.4642 11.8535 13.3727 11.8458 13.3348 11.8509C13.2575 11.8614 13.2514 11.8517 13.299 11.7936C13.3492 11.7323 13.3412 11.7221 13.2426 11.7221C13.1285 11.7221 12.8453 11.6688 12.7365 11.6268C12.6308 11.586 12.6064 11.5962 12.5753 11.694C12.5613 11.738 12.5357 11.8178 12.5184 11.8713L12.4868 11.9685L12.6012 11.9578C12.6641 11.9519 12.745 11.9384 12.781 11.9279C12.817 11.9174 12.8497 11.9118 12.8537 11.9155C12.8577 11.9192 12.8416 11.9572 12.818 11.9999L12.7752 12.0776L12.8465 12.0635C12.8857 12.0557 12.9447 12.0366 12.9776 12.021C13.0348 11.994 13.0394 11.996 13.0846 12.0667C13.1401 12.1537 13.1845 12.1501 13.1944 12.0579C13.2046 11.9625 13.2367 11.9766 13.2972 12.103C13.3553 12.2245 13.4158 12.2674 13.4274 12.1953C13.4313 12.1714 13.4626 12.1325 13.497 12.1088C13.5667 12.061 13.6191 12.0753 13.6492 12.1505C13.6804 12.2283 13.6109 12.3084 13.4089 12.4279C13.0042 12.6673 12.769 12.9946 12.7018 13.4118C12.6413 13.7882 12.8304 14.1771 13.21 14.4564C13.3916 14.59 13.6801 14.7311 13.6618 14.6773C13.5839 14.4487 13.5865 14.0125 13.6661 13.9389C13.6781 13.9279 13.674 13.9734 13.657 14.0401C13.5937 14.2884 13.6212 14.4863 13.7833 14.9501C13.9299 15.3696 13.9096 15.5488 13.7021 15.6673C13.6355 15.7054 13.5926 15.7117 13.4134 15.7096C13.219 15.7073 13.1978 15.7111 13.1354 15.7596C13.0749 15.8067 12.9964 15.9611 12.9964 16.0332C12.9964 16.0723 13.0408 16.0671 13.1282 16.0179L13.1282 16.0178Z" fill="#FFBE29"/>
<path d="M16.2841 16.0094L16.3657 15.9582L16.421 16.0094C16.4935 16.0764 16.5785 16.0749 16.6482 16.0053C16.6786 15.975 16.7059 15.954 16.7089 15.9586C16.7118 15.9633 16.7254 15.9858 16.739 16.0086C16.7562 16.0375 16.7917 16.052 16.8556 16.0564C16.9327 16.0617 16.9534 16.0545 16.984 16.0113L17.0205 15.9598L17.1008 16.0102C17.3206 16.148 17.4377 16.0034 17.3395 15.7154C17.2895 15.569 17.317 15.4867 17.4779 15.3004C17.5458 15.2218 17.6014 15.1379 17.6015 15.114C17.6015 15.0759 17.5889 15.0707 17.4986 15.0725C17.4121 15.0742 17.3868 15.0651 17.3413 15.0162C17.2673 14.9367 17.2717 14.8457 17.3545 14.7447L17.4206 14.664L17.3033 14.5863C17.2388 14.5436 17.1225 14.4426 17.0448 14.3618C16.8704 14.1803 16.6989 14.0943 16.4728 14.0748L16.3211 14.0617L16.3213 14.1737C16.3216 14.3178 16.391 14.4565 16.5803 14.6914C16.7955 14.9585 16.8105 14.9999 16.8192 15.349L16.8266 15.6442L16.7643 15.7019C16.708 15.7539 16.6827 15.7606 16.5011 15.7708C16.3282 15.7805 16.2919 15.7892 16.2412 15.8331C16.1738 15.8913 16.1536 15.923 16.1328 16.0034C16.1207 16.0503 16.1256 16.0605 16.1603 16.0605C16.1835 16.0605 16.2392 16.0375 16.2841 16.0094L16.2841 16.0094Z" fill="#FFBE29"/>
<path d="M11.6935 15.1552C11.6935 15.1179 11.7106 15.108 11.7946 15.0963L11.8958 15.0823L11.8283 15.0298C11.7482 14.9675 11.7408 14.9188 11.8114 14.9187C11.8818 14.9187 12.0009 14.8474 12.019 14.7947C12.0275 14.7702 12.0222 14.7374 12.0071 14.7206C11.9676 14.6767 11.8935 14.6833 11.8797 14.732C11.8649 14.7843 11.8401 14.7844 11.7839 14.7325C11.6993 14.6544 11.6974 14.4926 11.78 14.3985C11.8189 14.3541 11.8185 14.3512 11.7689 14.3054C11.7156 14.2561 11.6775 14.1585 11.7026 14.1354C11.7105 14.128 11.7527 14.1339 11.7962 14.1484C11.8581 14.1691 11.8825 14.1694 11.908 14.1499C11.9852 14.0907 11.9015 14.0145 11.7777 14.0313C11.7279 14.0381 11.7073 14.0313 11.7002 14.0061C11.6948 13.987 11.6512 13.962 11.6021 13.9499C11.5144 13.9283 11.5137 13.9285 11.5137 13.9875C11.5137 14.0521 11.4759 14.0643 11.4041 14.0229C11.3457 13.9892 11.2891 14.0153 11.2891 14.076C11.2891 14.1326 11.3474 14.1605 11.452 14.1539C11.5321 14.1489 11.5351 14.2071 11.459 14.2907L11.4042 14.3508L11.4476 14.4116C11.5118 14.5017 11.5064 14.6513 11.4362 14.7256L11.3812 14.7838L11.3451 14.7371C11.2949 14.6722 11.2263 14.6766 11.2075 14.7458C11.1952 14.7912 11.2054 14.8119 11.2636 14.86C11.3027 14.8923 11.3598 14.9187 11.3905 14.9187C11.4665 14.9187 11.4635 14.977 11.3846 15.0359L11.3228 15.082L11.4183 15.0964C11.4708 15.1044 11.5137 15.1193 11.5137 15.1297C11.5137 15.1692 11.5385 15.2894 11.6012 15.2924C11.6572 15.2951 11.6921 15.212 11.6935 15.1552Z" fill="#FFBE29"/>
<path d="M12.9017 14.7206C12.9884 14.6872 13.1761 14.5321 13.1761 14.4938C13.1761 14.4817 13.1243 14.4261 13.061 14.3702C12.9277 14.2525 12.7827 14.0544 12.7452 13.9385C12.7256 13.8781 12.631 13.7747 12.3644 13.5225L12.0096 13.1868L11.9074 13.212C11.8512 13.2259 11.7825 13.2377 11.7549 13.2381C11.7073 13.2388 11.7082 13.2414 11.7715 13.2892L11.8382 13.3396L11.9319 13.289C12.0226 13.2398 12.0258 13.2395 12.037 13.2791C12.0436 13.3022 12.0294 13.3423 12.0043 13.3718C11.98 13.4004 11.9662 13.4328 11.9736 13.4438C11.9809 13.4549 11.9576 13.4779 11.9216 13.4951C11.855 13.5269 11.8088 13.6317 11.8614 13.6317C11.9086 13.6317 12.0129 13.5062 12.0009 13.4637C11.9948 13.442 11.9977 13.4196 12.0075 13.414C12.0481 13.3908 12.0456 13.4894 12.0043 13.5379C11.98 13.5664 11.9662 13.5988 11.9736 13.6099C11.9809 13.6209 11.9576 13.644 11.9216 13.6612C11.8555 13.6928 11.8088 13.7978 11.8609 13.7978C11.9119 13.7978 12.0145 13.6778 12.0018 13.6329C11.9952 13.6095 11.9977 13.5857 12.0075 13.5801C12.0349 13.5645 12.0496 13.6423 12.0265 13.6804C12.0142 13.7008 12.0143 13.7287 12.0268 13.7508C12.0496 13.7909 12.0265 13.8678 11.9847 13.8917C11.9667 13.9019 11.9789 13.9221 12.0224 13.9541C12.0854 14.0005 12.0866 14.0054 12.0866 14.2102C12.0866 14.3814 12.0937 14.4256 12.1259 14.4554C12.1621 14.4888 12.1652 14.4889 12.1652 14.4569C12.1652 14.4218 12.2282 14.379 12.2798 14.379C12.295 14.379 12.39 14.4576 12.4909 14.5536C12.5924 14.6502 12.6986 14.7323 12.7287 14.7376C12.7585 14.7428 12.7909 14.7483 12.8006 14.7499C12.8102 14.7514 12.8557 14.7382 12.9017 14.7206Z" fill="#FFBE29"/>
<path d="M11.8171 13.8925C11.8171 13.8373 11.7004 13.7784 11.5609 13.7631C11.4482 13.7508 11.4464 13.7515 11.4464 13.8064C11.4464 13.8519 11.4641 13.8697 11.5419 13.9028C11.6668 13.9559 11.8171 13.9502 11.8171 13.8925Z" fill="#FFBE29"/>
<path d="M11.9449 13.8874C12.0018 13.837 12.0288 13.7771 11.9945 13.7771C11.9552 13.7771 11.8507 13.8686 11.8507 13.9031C11.8507 13.9569 11.8701 13.9537 11.9449 13.8874Z" fill="#FFBE29"/>
<path d="M11.8236 13.7242C11.8285 13.6931 11.8087 13.6723 11.7496 13.6463C11.622 13.59 11.4694 13.564 11.4327 13.5922C11.365 13.6441 11.4101 13.7138 11.5194 13.7263C11.5635 13.7313 11.6232 13.7444 11.6521 13.7554C11.7362 13.7873 11.8161 13.7727 11.8236 13.7242Z" fill="#FFBE29"/>
<path d="M11.8236 13.5575C11.8305 13.5131 11.8014 13.4972 11.5638 13.4156C11.3864 13.3547 11.3079 13.3834 11.3646 13.4885C11.3843 13.5251 11.4175 13.5418 11.4918 13.5527C11.5471 13.5608 11.6227 13.5765 11.6597 13.5878C11.7588 13.6178 11.816 13.6072 11.8236 13.5575Z" fill="#FFBE29"/>
<path d="M11.9427 13.4013C11.9785 13.3658 12.0078 13.324 12.0078 13.3083C12.0078 13.2574 11.8663 13.3474 11.8482 13.4098C11.8266 13.4846 11.8616 13.4814 11.9427 13.4013Z" fill="#FFBE29"/>
<path d="M11.8236 13.3908C11.8315 13.3402 11.7452 13.2945 11.5757 13.2594C11.4513 13.2336 11.3964 13.2482 11.4057 13.3046C11.4108 13.3354 11.4522 13.3579 11.5698 13.3937C11.7579 13.451 11.8145 13.4503 11.8236 13.3908Z" fill="#FFBE29"/>
<path d="M11.9895 13.1553C12.2068 13.061 12.2256 12.823 12.0207 12.7605C11.9356 12.7346 11.8813 12.7485 11.8487 12.8048C11.8238 12.8478 11.8405 12.9261 11.8746 12.9261C11.8861 12.9261 11.8955 12.9406 11.8955 12.9583C11.8955 13.0409 11.5638 13.0784 11.4277 13.0111C11.3799 12.9874 11.3591 12.9261 11.3989 12.9261C11.4286 12.9261 11.4492 12.8636 11.434 12.8193C11.4133 12.7591 11.3511 12.7382 11.2608 12.7613C11.0571 12.8132 11.0629 13.0467 11.2702 13.1458C11.4403 13.2271 11.813 13.232 11.9895 13.1553Z" fill="#FFBE29"/>
<path d="M11.8544 12.9724C11.8669 12.9607 11.8615 12.9429 11.8404 12.9267C11.7942 12.8913 11.7966 12.8386 11.8473 12.7783C11.8854 12.733 11.8901 12.6652 11.9032 11.9814C11.9258 10.8031 12.0156 9.91688 12.1339 9.70428C12.1811 9.61963 12.1745 9.61929 12.0527 9.70013C11.8958 9.80427 11.7764 9.93987 11.6706 10.134C11.4708 10.5005 11.4014 10.9935 11.4014 12.046C11.4014 12.6436 11.4055 12.7218 11.4404 12.778C11.4736 12.8314 11.4753 12.8511 11.452 12.9081C11.437 12.945 11.4301 12.9803 11.4368 12.9865C11.4814 13.0277 11.8064 13.0168 11.8544 12.9725V12.9724Z" fill="#FFBE29"/>
<path d="M13.6799 11.8488C13.6867 11.8386 13.6717 11.7872 13.6465 11.7346C13.6072 11.6525 13.5914 11.6389 13.5355 11.6389C13.3602 11.6389 13.0785 11.5625 12.7881 11.4362C12.6203 11.3633 12.5624 11.3465 12.5423 11.3651C12.491 11.4125 12.5763 11.5251 12.7083 11.5842C12.8255 11.6367 13.1531 11.7012 13.3025 11.7012C13.3892 11.7012 13.3912 11.705 13.3419 11.7746L13.3056 11.8257L13.4037 11.8282C13.4576 11.8296 13.5321 11.8378 13.5691 11.8465C13.6654 11.8691 13.6663 11.8692 13.6799 11.8488L13.6799 11.8488Z" fill="#FFBE29"/>
<path d="M13.1282 16.0178L13.2039 15.9752L13.2362 16.0179C13.2793 16.0748 13.3986 16.0741 13.4777 16.0166L13.5382 15.9726L13.5889 16.0166C13.6555 16.0744 13.78 16.0745 13.8594 16.0168C13.915 15.9764 13.9228 15.9756 13.9595 16.0063C13.9815 16.0246 14.0458 16.0455 14.1024 16.0527C14.2045 16.0656 14.206 16.0649 14.2658 15.9775C14.3158 15.9043 14.3236 15.8747 14.3117 15.8037C14.3037 15.7566 14.2952 15.6809 14.2927 15.6353C14.2882 15.5529 14.2887 15.5524 14.4117 15.5106C14.4797 15.4875 14.5583 15.4565 14.5865 15.4418C14.6357 15.4161 14.7712 15.2607 14.7712 15.2301C14.7712 15.2219 14.7182 15.2095 14.6535 15.2024C14.3962 15.1743 14.3526 15.0395 14.5199 14.789C14.7927 14.3806 14.9574 13.9829 14.9585 13.7295C14.9589 13.6163 14.9656 13.5783 14.9805 13.6029C15.0414 13.7035 14.9322 14.1255 14.7668 14.4286L14.7002 14.5506L14.7638 14.5363C14.7987 14.5285 15.0042 14.4439 15.2205 14.3483C15.8123 14.0868 16.0156 14.0355 16.3986 14.0513C16.7195 14.0645 16.8562 14.1256 17.0827 14.3575C17.2027 14.4803 17.3184 14.5682 17.5299 14.6974C17.9805 14.9726 17.9993 14.9964 18.0207 15.3201C18.0424 15.648 18.0316 15.6658 17.7774 15.7206C17.5601 15.7674 17.4239 15.8662 17.3874 16.0035C17.3679 16.0769 17.409 16.079 17.5185 16.0103L17.5988 15.9599L17.6345 16.0103C17.6814 16.0765 17.7812 16.0767 17.864 16.0109L17.9266 15.9612L17.9905 16.0109C18.0899 16.0882 18.2221 16.0694 18.2594 15.9728C18.2665 15.9542 18.2857 15.9601 18.3244 15.993C18.397 16.0546 18.5832 16.081 18.6033 16.0326C18.6109 16.0141 18.5964 15.9685 18.5709 15.9312C18.4626 15.7728 18.4287 15.6972 18.4273 15.611C18.4253 15.491 18.462 15.4332 18.6018 15.3356C18.7717 15.2171 18.8242 15.0642 18.695 15.0642C18.6153 15.0642 18.5349 14.9954 18.4836 14.8833C18.3794 14.6555 18.3998 14.4001 18.5562 13.9751C18.7151 13.5435 18.7327 13.4639 18.7334 13.1752C18.7339 12.9418 18.7279 12.9014 18.6734 12.7735C18.6401 12.6952 18.5726 12.5787 18.5234 12.5146L18.4338 12.398L18.5488 12.305C18.8998 12.0213 18.828 11.5569 18.4055 11.378C18.2762 11.3232 18.2439 11.3184 18.0173 11.3199C17.8814 11.3208 17.6742 11.3382 17.5568 11.3587C17.4371 11.3795 17.2346 11.3963 17.0956 11.3968C16.8748 11.3977 16.8374 11.3924 16.7523 11.3482C16.6636 11.3021 16.6484 11.2802 16.631 11.1737C16.6274 11.1519 16.6118 11.13 16.5962 11.1252C16.566 11.1159 16.4266 11.2339 16.4061 11.2862C16.3959 11.312 16.3876 11.3102 16.3578 11.2758C16.338 11.253 16.3104 11.2005 16.2964 11.1592C16.2612 11.0554 16.3044 10.9775 16.4295 10.9192L16.5266 10.8739L16.4694 10.8393C16.3513 10.7677 16.1504 10.8167 16.0778 10.9346C16.0572 10.968 16.0348 10.9954 16.028 10.9955C16.0211 10.9955 15.9821 10.9637 15.9412 10.9247C15.7887 10.7793 15.8412 10.5642 16.0451 10.4985C16.1539 10.4635 16.2501 10.4902 16.2702 10.561C16.3007 10.669 16.3958 10.527 16.3787 10.3988C16.3674 10.3135 16.3691 10.3106 16.4296 10.3106C16.5137 10.3106 16.6927 10.4182 16.748 10.5021C16.8123 10.5996 16.8076 10.7531 16.7369 10.8674L16.6813 10.9572L16.754 10.943C16.8606 10.9222 16.9641 10.8576 17.0165 10.7793C17.0719 10.6965 17.0778 10.5353 17.0287 10.4483C16.9811 10.364 16.9866 10.3506 17.057 10.3791C17.1766 10.4276 17.2406 10.481 17.2886 10.5726C17.3318 10.6551 17.3342 10.6756 17.3108 10.7614C17.2963 10.8144 17.2642 10.8841 17.2394 10.9163C17.2008 10.9664 17.1995 10.9748 17.2302 10.9748C17.2876 10.9748 17.4073 10.9219 17.4498 10.8777C17.4713 10.8554 17.5026 10.8005 17.5194 10.7556L17.55 10.6741L17.5851 10.7363C17.6347 10.8241 17.7312 10.9032 17.8488 10.9524C17.9754 11.0053 18.0281 11.0083 17.9619 10.9588C17.9173 10.9254 17.8351 10.69 17.86 10.667C17.8746 10.6535 18.0464 10.7824 18.2426 10.9542C18.4281 11.1167 18.5447 11.17 18.7151 11.17C18.9328 11.17 19.0595 10.9851 18.9617 10.8103C18.9046 10.7083 18.7776 10.6942 18.7033 10.7815C18.6691 10.8216 18.6597 10.8535 18.6697 10.8956C18.682 10.9472 18.6772 10.9541 18.629 10.9541C18.5658 10.9541 18.441 10.8751 18.2195 10.6948C17.8817 10.4197 17.4713 10.1866 17.1749 10.1015C16.9847 10.0468 16.5784 10.0255 16.3851 10.06C16.1758 10.0974 15.9283 10.2142 15.7935 10.3393C15.5545 10.5609 15.5507 10.8559 15.7834 11.1244L15.85 11.2014L15.8049 11.2698C15.7393 11.3692 15.7449 11.5031 15.8188 11.6017C15.8514 11.6451 15.8843 11.6806 15.8918 11.6806C15.8994 11.6806 15.9078 11.6527 15.9103 11.6186C15.9169 11.5323 15.9548 11.4745 16.0199 11.4516C16.0786 11.431 16.1165 11.4407 16.3851 11.5453C16.6677 11.6554 17.1325 11.663 17.6266 11.5656C17.8689 11.5178 18.1545 11.5206 18.2802 11.572C18.5106 11.6661 18.564 11.9111 18.3946 12.0971C18.3213 12.1776 18.2506 12.2104 18.0133 12.2739C17.8326 12.3223 17.7898 12.3255 17.3793 12.3215C17.0285 12.3181 16.9025 12.3247 16.7593 12.3538C16.6039 12.3855 16.5083 12.3887 16.0517 12.3775L15.5237 12.3645L15.5823 12.4118C15.6145 12.4378 15.66 12.4698 15.6834 12.4829C15.7232 12.5052 15.7219 12.5082 15.6627 12.5296C15.6279 12.5422 15.5507 12.5525 15.4911 12.5525H15.3828L15.3682 12.6423C15.3602 12.6917 15.3608 12.7494 15.3696 12.7705C15.3825 12.8016 15.3777 12.806 15.3441 12.7941C15.3213 12.786 15.2579 12.7702 15.2031 12.7588C15.1484 12.7475 15.0746 12.7244 15.0393 12.7075C14.9799 12.6791 14.9733 12.6799 14.9514 12.7177C14.9319 12.7514 14.7484 12.8846 14.7215 12.8846C14.7171 12.8846 14.7115 12.8589 14.709 12.8275C14.7065 12.7961 14.68 12.7144 14.6502 12.6459C14.6203 12.5774 14.5892 12.5027 14.5809 12.4798C14.5685 12.4454 14.5629 12.4436 14.5479 12.4695C14.5379 12.4866 14.5234 12.5333 14.5156 12.5732C14.5078 12.6132 14.4802 12.6781 14.4542 12.7175L14.4069 12.7891L14.3768 12.7279C14.3444 12.6622 14.2907 12.594 14.2713 12.594C14.2647 12.594 14.2535 12.615 14.2464 12.6407C14.2316 12.6944 14.1042 12.8431 14.0731 12.8431C14.0617 12.8431 14.0523 12.8011 14.0523 12.7497C14.0523 12.6983 14.0422 12.6563 14.0298 12.6563C14.0175 12.6563 14.0074 12.6696 14.0074 12.6858C14.0074 12.7253 13.8986 12.8431 13.8621 12.8431C13.8462 12.8431 13.8206 12.8571 13.8052 12.8742C13.7651 12.9189 13.7323 12.9126 13.7491 12.8635C13.757 12.8405 13.7519 12.7868 13.7377 12.7442C13.7235 12.7015 13.7084 12.6562 13.7042 12.6433C13.6988 12.6272 13.6598 12.6315 13.5773 12.6573C13.444 12.699 13.3993 12.6916 13.4679 12.6392C13.493 12.6201 13.5311 12.5537 13.5526 12.4918C13.5741 12.4298 13.6059 12.3749 13.6232 12.3696C13.6474 12.3623 13.6462 12.3714 13.6176 12.409C13.5972 12.4359 13.5805 12.4722 13.5804 12.4896C13.5804 12.5071 13.565 12.5484 13.5463 12.5815C13.5276 12.6146 13.5159 12.645 13.5202 12.649C13.5245 12.653 13.5753 12.6342 13.6329 12.6072L13.7378 12.5581L13.7382 12.602C13.7385 12.6261 13.7511 12.6898 13.7663 12.7435L13.7939 12.8411L13.8653 12.8091C13.9383 12.7764 14.0074 12.6598 14.0074 12.5694C14.0074 12.5247 14.0336 12.5315 14.0443 12.579C14.0475 12.593 14.064 12.6453 14.0809 12.6953L14.1118 12.7862L14.1607 12.7288C14.1876 12.6972 14.2213 12.6353 14.2356 12.5912C14.2604 12.5146 14.2994 12.4817 14.2994 12.5373C14.2994 12.5774 14.4115 12.7211 14.4331 12.7088C14.4436 12.7028 14.4644 12.6488 14.4794 12.5889C14.5106 12.4641 14.5608 12.3793 14.5928 12.3976C14.6048 12.4044 14.6095 12.4177 14.6032 12.4272C14.5969 12.4366 14.6227 12.5177 14.6606 12.6074C14.6984 12.6971 14.7364 12.7874 14.745 12.808C14.7589 12.8413 14.7714 12.8364 14.8525 12.7665C14.903 12.723 14.9489 12.6743 14.9544 12.6583C14.9627 12.6341 14.974 12.6349 15.0212 12.6635C15.0872 12.7035 15.3093 12.7679 15.3264 12.7521C15.3328 12.7462 15.3394 12.6893 15.341 12.6257L15.344 12.51L15.4079 12.5229C15.443 12.53 15.5168 12.5296 15.5719 12.522L15.6722 12.5081L15.5828 12.4483C15.5337 12.4154 15.484 12.3728 15.4725 12.3537C15.4601 12.3333 15.4164 12.316 15.3668 12.3119C15.233 12.3008 14.9958 12.171 14.9958 12.1089C14.9958 12.0972 15.0287 12.117 15.0688 12.1529C15.1579 12.2326 15.2817 12.2826 15.3897 12.2826H15.4706L15.4206 12.2177C15.3918 12.1804 15.3661 12.1096 15.36 12.0514C15.3504 11.9587 15.3403 11.9439 15.241 11.8766C15.1814 11.8361 15.1075 11.7755 15.0769 11.7418L15.0212 11.6806L14.9927 11.7533C14.9771 11.7932 14.958 11.8259 14.9503 11.8259C14.9426 11.8259 14.9125 11.8026 14.8835 11.774C14.8545 11.7455 14.8249 11.7222 14.8178 11.7224C14.8107 11.7225 14.785 11.761 14.7607 11.8078L14.7165 11.893L14.6823 11.8439C14.6635 11.8169 14.6192 11.7691 14.5837 11.7377C14.5483 11.7063 14.5296 11.6806 14.5423 11.6806C14.555 11.6806 14.5987 11.7133 14.6395 11.7533L14.7137 11.826L14.7439 11.7727C14.7618 11.7411 14.7685 11.6926 14.7604 11.6533C14.7486 11.5961 14.7502 11.5928 14.7727 11.6287C14.787 11.6516 14.8304 11.6953 14.8692 11.726L14.9396 11.7818L14.9883 11.6949C15.0367 11.6084 15.037 11.6082 15.059 11.6599C15.0885 11.7289 15.3015 11.8994 15.483 11.9989C15.5109 12.0143 15.4991 11.9615 15.4475 11.8402C15.4338 11.808 15.4226 11.7501 15.4226 11.7114C15.4226 11.654 15.4057 11.6285 15.3304 11.5726C15.2218 11.492 15.1867 11.4347 15.1663 11.3046C15.158 11.2519 15.139 11.1933 15.124 11.1744C15.1019 11.1463 15.0982 11.162 15.1041 11.2598C15.1081 11.3257 15.0994 11.4077 15.0846 11.4419L15.0578 11.5042L15.0371 11.4523C15.0257 11.4237 14.9753 11.3741 14.9252 11.342C14.875 11.3098 14.8397 11.2782 14.8469 11.2716C14.854 11.265 14.9057 11.2943 14.9616 11.3366C15.0469 11.4012 15.0657 11.4082 15.0775 11.3798C15.0913 11.3463 15.0775 11.201 15.0506 11.0994C15.0373 11.0487 15.0384 11.0489 15.1026 11.1115C15.1499 11.1577 15.176 11.2127 15.1963 11.3087C15.222 11.4307 15.235 11.451 15.3506 11.55C15.4201 11.6095 15.4805 11.6548 15.4849 11.6508C15.4893 11.6467 15.4981 11.4928 15.5044 11.3089C15.5164 10.9561 15.5028 10.8721 15.4157 10.7632L15.371 10.7072L15.4413 10.6331C15.5331 10.5366 15.5752 10.4592 15.5935 10.3536L15.6083 10.2677L15.5289 10.341C15.464 10.4011 15.4329 10.4144 15.3576 10.4144C15.2831 10.4144 15.254 10.4022 15.2038 10.35C15.1435 10.2873 15.0367 10.227 14.934 10.1977C14.8961 10.1868 14.8835 10.1916 14.8835 10.2166C14.8835 10.2349 14.8625 10.2879 14.8369 10.3343L14.7903 10.4186L14.6928 10.3246C14.6329 10.2668 14.5619 10.2219 14.5091 10.2084C14.3741 10.1737 14.3668 10.1772 14.3668 10.2753C14.3668 10.4241 14.3016 10.4519 14.1844 10.3529C14.0951 10.2775 14.0209 10.2611 13.8515 10.2793L13.7206 10.2933L13.7442 10.351C13.7638 10.3991 13.7594 10.4194 13.7173 10.4741C13.6489 10.5628 13.56 10.6012 13.4232 10.6012C13.3602 10.6012 13.2814 10.6139 13.248 10.6295C13.2147 10.645 13.1318 10.6629 13.0638 10.6693C12.9958 10.6756 12.9234 10.6869 12.9028 10.6944C12.8707 10.7062 12.8671 10.6965 12.8775 10.6251C12.8934 10.5158 12.8151 10.4351 12.6931 10.4351C12.5349 10.4351 12.4619 10.5732 12.5239 10.7554C12.5358 10.7905 12.5514 10.8458 12.5585 10.8783C12.566 10.912 12.6372 11.0016 12.7245 11.0868C12.8087 11.169 12.8882 11.2544 12.9013 11.2768C12.9144 11.2991 12.9575 11.3349 12.9972 11.3564L13.0694 11.3954L13.0599 11.3201C13.0494 11.2372 13.0679 11.2242 13.1131 11.2827C13.1292 11.3036 13.1702 11.3374 13.2042 11.3577C13.2577 11.3898 13.266 11.3905 13.266 11.3626C13.266 11.3449 13.2769 11.3041 13.2902 11.272L13.3145 11.2136L13.3565 11.2931C13.3797 11.3368 13.4549 11.4362 13.5238 11.5139C13.6573 11.6648 13.7387 11.8334 13.6967 11.8722C13.6797 11.8879 13.6336 11.8867 13.5382 11.868C13.4642 11.8535 13.3727 11.8458 13.3348 11.8509C13.2575 11.8614 13.2514 11.8517 13.299 11.7936C13.3492 11.7323 13.3412 11.7221 13.2426 11.7221C13.1285 11.7221 12.8453 11.6688 12.7365 11.6268C12.6308 11.586 12.6064 11.5962 12.5753 11.694C12.5613 11.738 12.5357 11.8178 12.5184 11.8713L12.4868 11.9685L12.6012 11.9578C12.6641 11.9519 12.745 11.9384 12.781 11.9279C12.817 11.9174 12.8497 11.9118 12.8537 11.9155C12.8577 11.9192 12.8416 11.9572 12.818 11.9999L12.7752 12.0776L12.8465 12.0635C12.8857 12.0557 12.9447 12.0366 12.9776 12.021C13.0348 11.994 13.0394 11.996 13.0846 12.0667C13.1401 12.1537 13.1845 12.1501 13.1944 12.0579C13.2046 11.9625 13.2367 11.9766 13.2972 12.103C13.3553 12.2245 13.4158 12.2674 13.4274 12.1953C13.4313 12.1714 13.4626 12.1325 13.497 12.1088C13.5667 12.061 13.6191 12.0753 13.6492 12.1505C13.6804 12.2283 13.6109 12.3084 13.4089 12.4279C13.0042 12.6673 12.769 12.9946 12.7018 13.4118C12.6413 13.7882 12.8304 14.1771 13.21 14.4564C13.3916 14.59 13.6801 14.7311 13.6618 14.6773C13.5839 14.4487 13.5865 14.0125 13.6661 13.9389C13.6781 13.9279 13.674 13.9734 13.657 14.0401C13.5937 14.2884 13.6212 14.4863 13.7833 14.9501C13.9299 15.3696 13.9096 15.5488 13.7021 15.6673C13.6355 15.7054 13.5926 15.7117 13.4134 15.7096C13.219 15.7073 13.1978 15.7111 13.1354 15.7596C13.0749 15.8067 12.9964 15.9611 12.9964 16.0332C12.9964 16.0723 13.0408 16.0671 13.1282 16.0179L13.1282 16.0178Z" stroke="black" stroke-width="0.00443323" mask="url(#path-6-outside-1_1692_53982)"/>
<path d="M16.2841 16.0094L16.3657 15.9582L16.421 16.0094C16.4935 16.0764 16.5785 16.0749 16.6482 16.0053C16.6786 15.975 16.7059 15.954 16.7089 15.9586C16.7118 15.9633 16.7254 15.9858 16.739 16.0086C16.7562 16.0375 16.7917 16.052 16.8556 16.0564C16.9327 16.0617 16.9534 16.0545 16.984 16.0113L17.0205 15.9598L17.1008 16.0102C17.3206 16.148 17.4377 16.0034 17.3395 15.7154C17.2895 15.569 17.317 15.4867 17.4779 15.3004C17.5458 15.2218 17.6014 15.1379 17.6015 15.114C17.6015 15.0759 17.5889 15.0707 17.4986 15.0725C17.4121 15.0742 17.3868 15.0651 17.3413 15.0162C17.2673 14.9367 17.2717 14.8457 17.3545 14.7447L17.4206 14.664L17.3033 14.5863C17.2388 14.5436 17.1225 14.4426 17.0448 14.3618C16.8704 14.1803 16.6989 14.0943 16.4728 14.0748L16.3211 14.0617L16.3213 14.1737C16.3216 14.3178 16.391 14.4565 16.5803 14.6914C16.7955 14.9585 16.8105 14.9999 16.8192 15.349L16.8266 15.6442L16.7643 15.7019C16.708 15.7539 16.6827 15.7606 16.5011 15.7708C16.3282 15.7805 16.2919 15.7892 16.2412 15.8331C16.1738 15.8913 16.1536 15.923 16.1328 16.0034C16.1207 16.0503 16.1256 16.0605 16.1603 16.0605C16.1835 16.0605 16.2392 16.0375 16.2841 16.0094L16.2841 16.0094Z" stroke="black" stroke-width="0.00443323" mask="url(#path-6-outside-1_1692_53982)"/>
<path d="M11.6935 15.1552C11.6935 15.1179 11.7106 15.108 11.7946 15.0963L11.8958 15.0823L11.8283 15.0298C11.7482 14.9675 11.7408 14.9188 11.8114 14.9187C11.8818 14.9187 12.0009 14.8474 12.019 14.7947C12.0275 14.7702 12.0222 14.7374 12.0071 14.7206C11.9676 14.6767 11.8935 14.6833 11.8797 14.732C11.8649 14.7843 11.8401 14.7844 11.7839 14.7325C11.6993 14.6544 11.6974 14.4926 11.78 14.3985C11.8189 14.3541 11.8185 14.3512 11.7689 14.3054C11.7156 14.2561 11.6775 14.1585 11.7026 14.1354C11.7105 14.128 11.7527 14.1339 11.7962 14.1484C11.8581 14.1691 11.8825 14.1694 11.908 14.1499C11.9852 14.0907 11.9015 14.0145 11.7777 14.0313C11.7279 14.0381 11.7073 14.0313 11.7002 14.0061C11.6948 13.987 11.6512 13.962 11.6021 13.9499C11.5144 13.9283 11.5137 13.9285 11.5137 13.9875C11.5137 14.0521 11.4759 14.0643 11.4041 14.0229C11.3457 13.9892 11.2891 14.0153 11.2891 14.076C11.2891 14.1326 11.3474 14.1605 11.452 14.1539C11.5321 14.1489 11.5351 14.2071 11.459 14.2907L11.4042 14.3508L11.4476 14.4116C11.5118 14.5017 11.5064 14.6513 11.4362 14.7256L11.3812 14.7838L11.3451 14.7371C11.2949 14.6722 11.2263 14.6766 11.2075 14.7458C11.1952 14.7912 11.2054 14.8119 11.2636 14.86C11.3027 14.8923 11.3598 14.9187 11.3905 14.9187C11.4665 14.9187 11.4635 14.977 11.3846 15.0359L11.3228 15.082L11.4183 15.0964C11.4708 15.1044 11.5137 15.1193 11.5137 15.1297C11.5137 15.1692 11.5385 15.2894 11.6012 15.2924C11.6572 15.2951 11.6921 15.212 11.6935 15.1552Z" stroke="black" stroke-width="0.00443323" mask="url(#path-6-outside-1_1692_53982)"/>
<path d="M12.9017 14.7206C12.9884 14.6872 13.1761 14.5321 13.1761 14.4938C13.1761 14.4817 13.1243 14.4261 13.061 14.3702C12.9277 14.2525 12.7827 14.0544 12.7452 13.9385C12.7256 13.8781 12.631 13.7747 12.3644 13.5225L12.0096 13.1868L11.9074 13.212C11.8512 13.2259 11.7825 13.2377 11.7549 13.2381C11.7073 13.2388 11.7082 13.2414 11.7715 13.2892L11.8382 13.3396L11.9319 13.289C12.0226 13.2398 12.0258 13.2395 12.037 13.2791C12.0436 13.3022 12.0294 13.3423 12.0043 13.3718C11.98 13.4004 11.9662 13.4328 11.9736 13.4438C11.9809 13.4549 11.9576 13.4779 11.9216 13.4951C11.855 13.5269 11.8088 13.6317 11.8614 13.6317C11.9086 13.6317 12.0129 13.5062 12.0009 13.4637C11.9948 13.442 11.9977 13.4196 12.0075 13.414C12.0481 13.3908 12.0456 13.4894 12.0043 13.5379C11.98 13.5664 11.9662 13.5988 11.9736 13.6099C11.9809 13.6209 11.9576 13.644 11.9216 13.6612C11.8555 13.6928 11.8088 13.7978 11.8609 13.7978C11.9119 13.7978 12.0145 13.6778 12.0018 13.6329C11.9952 13.6095 11.9977 13.5857 12.0075 13.5801C12.0349 13.5645 12.0496 13.6423 12.0265 13.6804C12.0142 13.7008 12.0143 13.7287 12.0268 13.7508C12.0496 13.7909 12.0265 13.8678 11.9847 13.8917C11.9667 13.9019 11.9789 13.9221 12.0224 13.9541C12.0854 14.0005 12.0866 14.0054 12.0866 14.2102C12.0866 14.3814 12.0937 14.4256 12.1259 14.4554C12.1621 14.4888 12.1652 14.4889 12.1652 14.4569C12.1652 14.4218 12.2282 14.379 12.2798 14.379C12.295 14.379 12.39 14.4576 12.4909 14.5536C12.5924 14.6502 12.6986 14.7323 12.7287 14.7376C12.7585 14.7428 12.7909 14.7483 12.8006 14.7499C12.8102 14.7514 12.8557 14.7382 12.9017 14.7206Z" stroke="black" stroke-width="0.00443323" mask="url(#path-6-outside-1_1692_53982)"/>
<path d="M11.8171 13.8925C11.8171 13.8373 11.7004 13.7784 11.5609 13.7631C11.4482 13.7508 11.4464 13.7515 11.4464 13.8064C11.4464 13.8519 11.4641 13.8697 11.5419 13.9028C11.6668 13.9559 11.8171 13.9502 11.8171 13.8925Z" stroke="black" stroke-width="0.00443323" mask="url(#path-6-outside-1_1692_53982)"/>
<path d="M11.9449 13.8874C12.0018 13.837 12.0288 13.7771 11.9945 13.7771C11.9552 13.7771 11.8507 13.8686 11.8507 13.9031C11.8507 13.9569 11.8701 13.9537 11.9449 13.8874Z" stroke="black" stroke-width="0.00443323" mask="url(#path-6-outside-1_1692_53982)"/>
<path d="M11.8236 13.7242C11.8285 13.6931 11.8087 13.6723 11.7496 13.6463C11.622 13.59 11.4694 13.564 11.4327 13.5922C11.365 13.6441 11.4101 13.7138 11.5194 13.7263C11.5635 13.7313 11.6232 13.7444 11.6521 13.7554C11.7362 13.7873 11.8161 13.7727 11.8236 13.7242Z" stroke="black" stroke-width="0.00443323" mask="url(#path-6-outside-1_1692_53982)"/>
<path d="M11.8236 13.5575C11.8305 13.5131 11.8014 13.4972 11.5638 13.4156C11.3864 13.3547 11.3079 13.3834 11.3646 13.4885C11.3843 13.5251 11.4175 13.5418 11.4918 13.5527C11.5471 13.5608 11.6227 13.5765 11.6597 13.5878C11.7588 13.6178 11.816 13.6072 11.8236 13.5575Z" stroke="black" stroke-width="0.00443323" mask="url(#path-6-outside-1_1692_53982)"/>
<path d="M11.9427 13.4013C11.9785 13.3658 12.0078 13.324 12.0078 13.3083C12.0078 13.2574 11.8663 13.3474 11.8482 13.4098C11.8266 13.4846 11.8616 13.4814 11.9427 13.4013Z" stroke="black" stroke-width="0.00443323" mask="url(#path-6-outside-1_1692_53982)"/>
<path d="M11.8236 13.3908C11.8315 13.3402 11.7452 13.2945 11.5757 13.2594C11.4513 13.2336 11.3964 13.2482 11.4057 13.3046C11.4108 13.3354 11.4522 13.3579 11.5698 13.3937C11.7579 13.451 11.8145 13.4503 11.8236 13.3908Z" stroke="black" stroke-width="0.00443323" mask="url(#path-6-outside-1_1692_53982)"/>
<path d="M11.9895 13.1553C12.2068 13.061 12.2256 12.823 12.0207 12.7605C11.9356 12.7346 11.8813 12.7485 11.8487 12.8048C11.8238 12.8478 11.8405 12.9261 11.8746 12.9261C11.8861 12.9261 11.8955 12.9406 11.8955 12.9583C11.8955 13.0409 11.5638 13.0784 11.4277 13.0111C11.3799 12.9874 11.3591 12.9261 11.3989 12.9261C11.4286 12.9261 11.4492 12.8636 11.434 12.8193C11.4133 12.7591 11.3511 12.7382 11.2608 12.7613C11.0571 12.8132 11.0629 13.0467 11.2702 13.1458C11.4403 13.2271 11.813 13.232 11.9895 13.1553Z" stroke="black" stroke-width="0.00443323" mask="url(#path-6-outside-1_1692_53982)"/>
<path d="M11.8544 12.9724C11.8669 12.9607 11.8615 12.9429 11.8404 12.9267C11.7942 12.8913 11.7966 12.8386 11.8473 12.7783C11.8854 12.733 11.8901 12.6652 11.9032 11.9814C11.9258 10.8031 12.0156 9.91688 12.1339 9.70428C12.1811 9.61963 12.1745 9.61929 12.0527 9.70013C11.8958 9.80427 11.7764 9.93987 11.6706 10.134C11.4708 10.5005 11.4014 10.9935 11.4014 12.046C11.4014 12.6436 11.4055 12.7218 11.4404 12.778C11.4736 12.8314 11.4753 12.8511 11.452 12.9081C11.437 12.945 11.4301 12.9803 11.4368 12.9865C11.4814 13.0277 11.8064 13.0168 11.8544 12.9725V12.9724Z" stroke="black" stroke-width="0.00443323" mask="url(#path-6-outside-1_1692_53982)"/>
<path d="M13.6799 11.8488C13.6867 11.8386 13.6717 11.7872 13.6465 11.7346C13.6072 11.6525 13.5914 11.6389 13.5355 11.6389C13.3602 11.6389 13.0785 11.5625 12.7881 11.4362C12.6203 11.3633 12.5624 11.3465 12.5423 11.3651C12.491 11.4125 12.5763 11.5251 12.7083 11.5842C12.8255 11.6367 13.1531 11.7012 13.3025 11.7012C13.3892 11.7012 13.3912 11.705 13.3419 11.7746L13.3056 11.8257L13.4037 11.8282C13.4576 11.8296 13.5321 11.8378 13.5691 11.8465C13.6654 11.8691 13.6663 11.8692 13.6799 11.8488L13.6799 11.8488Z" stroke="black" stroke-width="0.00443323" mask="url(#path-6-outside-1_1692_53982)"/>
<path d="M14.71 12.3809C14.71 12.3504 14.6183 12.2678 14.5254 12.2147C14.4524 12.1729 14.4404 12.1716 14.4402 12.2057C14.44 12.2574 14.3928 12.3874 14.3743 12.3874C14.3639 12.3874 14.3485 12.362 14.34 12.3309C14.3316 12.2999 14.2962 12.2387 14.2614 12.195L14.1982 12.1155L14.1489 12.1892C14.103 12.2578 14.0234 12.3251 13.9881 12.3251C13.9797 12.3251 13.9781 12.2889 13.9845 12.2447C13.9914 12.1967 13.9861 12.1586 13.9711 12.1501C13.9573 12.1422 13.9461 12.1449 13.9461 12.1562C13.9461 12.182 13.8356 12.3043 13.8122 12.3043C13.8026 12.3043 13.7891 12.2693 13.7822 12.2265C13.7754 12.1836 13.7638 12.1159 13.7564 12.0759C13.749 12.036 13.7647 12.0631 13.7913 12.1362L13.8397 12.2691L13.8928 12.1881C13.922 12.1435 13.9459 12.0948 13.9459 12.0799C13.9459 12.065 13.9559 12.0583 13.9679 12.0652C13.9799 12.072 13.9966 12.1256 14.005 12.1842L14.0203 12.2907L14.0787 12.2282C14.1108 12.1939 14.1484 12.1479 14.1623 12.1261C14.187 12.0871 14.1884 12.0871 14.2377 12.1278C14.2653 12.1507 14.3077 12.2053 14.332 12.2492C14.3562 12.2932 14.3793 12.3259 14.3833 12.3219C14.3873 12.3179 14.3962 12.2726 14.4031 12.2213C14.41 12.1699 14.4161 12.1259 14.4167 12.1236C14.4202 12.1109 14.5926 12.2202 14.6564 12.2756C14.6974 12.3112 14.7363 12.3353 14.7429 12.3292C14.7495 12.3231 14.7549 12.2706 14.7549 12.2125C14.7549 12.1225 14.7451 12.0984 14.6887 12.0492C14.6238 11.9926 14.622 11.9923 14.5981 12.0337C14.5669 12.0874 14.5302 12.0882 14.5302 12.0351C14.5302 11.9964 14.4076 11.8476 14.3757 11.8476C14.3675 11.8476 14.3417 11.8803 14.3184 11.9202C14.2951 11.9602 14.27 11.9928 14.2627 11.9928C14.2313 11.9926 14.0584 11.8046 14.0585 11.7707C14.0585 11.7437 14.0701 11.7506 14.1004 11.7956C14.1235 11.8299 14.1695 11.881 14.2027 11.9093C14.2699 11.9665 14.2943 11.9526 14.3202 11.8424C14.3276 11.811 14.3404 11.7853 14.3487 11.7853C14.3775 11.7853 14.5279 11.9412 14.5491 11.9929L14.5703 12.0448L14.5864 11.9877C14.6061 11.9179 14.6278 11.9153 14.6592 11.979C14.6724 12.0056 14.7372 12.0609 14.8033 12.1019L14.9234 12.1765L14.9476 12.1015C14.9608 12.0603 14.9784 12.0366 14.9866 12.0488C14.9989 12.0671 14.9676 12.1914 14.944 12.2182C14.9405 12.2222 14.9016 12.2 14.8575 12.169L14.7774 12.1125L14.7771 12.2136C14.7769 12.2692 14.7707 12.3357 14.7632 12.3614C14.7487 12.4116 14.71 12.4258 14.71 12.3809Z" fill="black"/>
<path d="M14.1109 11.575C13.968 11.4587 13.9463 11.4321 13.9495 11.3769L13.9529 11.3182L13.9622 11.3749C13.9676 11.408 14.0057 11.4576 14.0536 11.4941L14.1357 11.5567L14.1862 11.4997C14.2139 11.4684 14.237 11.4311 14.2374 11.4168C14.2386 11.3796 14.2454 11.3828 14.3421 11.4646C14.428 11.5373 14.4294 11.5377 14.4422 11.4906C14.4493 11.4643 14.4468 11.4148 14.4365 11.3807C14.4085 11.2867 14.414 11.2725 14.4565 11.3292C14.4777 11.3574 14.5118 11.3973 14.5322 11.4179C14.5678 11.4536 14.57 11.4532 14.5833 11.4075C14.5909 11.3812 14.5972 11.3332 14.5974 11.3007L14.5977 11.2416L14.6752 11.3273C14.7475 11.4073 14.7542 11.4103 14.7763 11.3722C14.7893 11.3497 14.8001 11.2957 14.8003 11.2521C14.8005 11.1958 14.8066 11.1816 14.8213 11.2031C14.8458 11.2389 14.8288 11.3363 14.7835 11.4193L14.7511 11.4789L14.7084 11.4141C14.6539 11.3313 14.6358 11.3326 14.6008 11.422C14.5677 11.5065 14.5462 11.5129 14.514 11.448C14.4932 11.406 14.4892 11.4111 14.4744 11.4994L14.458 11.5975L14.2609 11.4483L14.2166 11.4975C14.1923 11.5245 14.172 11.5583 14.1716 11.5726C14.1707 11.6035 14.147 11.6045 14.1109 11.575Z" fill="black"/>
<path d="M15.3813 11.1416C15.3293 11.0959 15.2935 11.0523 15.3017 11.0448C15.3099 11.0372 15.3192 11.035 15.3223 11.0399C15.3253 11.0449 15.3678 11.0885 15.4167 11.1368C15.5292 11.2481 15.506 11.2513 15.3813 11.1416Z" fill="black"/>
<path d="M13.6891 10.971C13.6418 10.9086 13.645 10.8673 13.7026 10.7996C13.7442 10.7508 13.7632 10.7442 13.8358 10.7532C13.8824 10.7589 13.9827 10.7991 14.0586 10.8424C14.1463 10.8924 14.2371 10.926 14.3074 10.9343C14.3682 10.9415 14.418 10.9442 14.418 10.9403C14.418 10.9364 14.3927 10.8963 14.3618 10.851C14.2885 10.7437 14.291 10.7321 14.3737 10.7965C14.4587 10.8625 14.5603 10.8818 14.7873 10.8751L14.8982 10.8718L14.8339 10.8097C14.7439 10.7229 14.7716 10.7152 14.8709 10.7993C14.9642 10.8783 14.9583 10.8838 14.7621 10.9029C14.6788 10.911 14.5891 10.9051 14.5146 10.8867C14.4031 10.859 14.3988 10.8594 14.4199 10.8959C14.4321 10.9169 14.4518 10.9341 14.4637 10.9341C14.4756 10.9341 14.4854 10.9447 14.4854 10.9578C14.4854 10.9978 14.2446 10.9626 14.1295 10.9057C13.8666 10.7759 13.8335 10.7646 13.771 10.7839C13.7361 10.7946 13.7013 10.8259 13.6893 10.8573C13.6492 10.962 13.8015 11.0435 13.8643 10.9509C13.8825 10.924 13.8782 10.9057 13.8462 10.873C13.8024 10.8283 13.8065 10.8219 13.8657 10.8429C13.9077 10.8578 13.9133 10.9561 13.8742 10.9922C13.8296 11.0335 13.7276 11.0218 13.6891 10.971Z" fill="black"/>
<path d="M14.7246 10.7123C14.6917 10.6819 14.7175 10.6745 14.8648 10.6718C15.0472 10.6685 15.1579 10.6389 15.2885 10.5584C15.3932 10.4939 15.4216 10.5066 15.3222 10.5734C15.2316 10.6344 15.0902 10.6813 14.9537 10.6957C14.8876 10.7026 14.8123 10.7122 14.7863 10.717C14.7604 10.7218 14.7326 10.7197 14.7246 10.7123Z" fill="black"/>
<path d="M10.3265 15.4644C10.3265 15.4644 10.2164 15.6941 10.0948 15.7877C9.91468 15.9263 9.54529 15.9163 9.38852 16.0781C9.20066 16.2689 9.4031 16.5209 9.40141 16.5428L9.3911 16.6759C9.3911 16.6759 9.51777 16.6775 9.57111 16.686C9.65131 16.6988 9.68259 16.7657 9.8319 16.7558C10.2073 16.7308 10.1922 16.3841 10.2134 16.0878C10.2323 15.975 10.2759 15.8279 10.3007 15.7151C10.3219 15.6184 10.3265 15.4644 10.3265 15.4644Z" fill="#FFBE29"/>
<path d="M19.6949 15.4663C19.6949 15.4663 19.8049 15.6957 19.9264 15.7892C20.1064 15.9276 20.4754 15.9176 20.6321 16.0792C20.8198 16.2697 20.6175 16.5213 20.6192 16.5432L20.6295 16.6761C20.6295 16.6761 20.5029 16.6777 20.4496 16.6862C20.3695 16.699 20.3383 16.7658 20.1891 16.7559C19.814 16.7309 19.8291 16.3847 19.8079 16.0888C19.789 15.9762 19.7455 15.8293 19.7207 15.7167C19.6994 15.6201 19.6949 15.4663 19.6949 15.4663Z" fill="#FFBE29"/>
<path d="M19.6944 10.5031C19.6944 10.5031 19.8045 10.2734 19.926 10.1799C20.1062 10.0412 20.4755 10.0512 20.6323 9.88948C20.8201 9.69875 20.6177 9.44675 20.6194 9.42488L20.6297 9.29179C20.6297 9.29179 20.503 9.29023 20.4497 9.28171C20.3695 9.26889 20.3382 9.20201 20.189 9.21194C19.8136 9.23692 19.8287 9.58357 19.8075 9.87981C19.7886 9.99261 19.745 10.1397 19.7202 10.2525C19.699 10.3492 19.6944 10.5031 19.6944 10.5031Z" fill="#FFBE29"/>
<path d="M10.3265 10.5033C10.3265 10.5033 10.2164 10.2736 10.0948 10.18C9.91468 10.0413 9.54529 10.0514 9.38852 9.88959C9.20066 9.69882 9.4031 9.44678 9.40141 9.42491L9.3911 9.2918C9.3911 9.2918 9.51777 9.29024 9.57111 9.28172C9.65131 9.2689 9.68259 9.202 9.8319 9.21194C10.2073 9.23692 10.1922 9.58363 10.2134 9.87991C10.2323 9.99273 10.2759 10.1398 10.3007 10.2526C10.3219 10.3493 10.3265 10.5033 10.3265 10.5033Z" fill="#FFBE29"/>
<path fill-rule="evenodd" clip-rule="evenodd" d="M10.3436 15.4682L10.3571 15.44L10.3093 15.4496L10.309 15.4597C10.3082 15.4613 10.3071 15.4635 10.3058 15.4662C10.3026 15.4725 10.2979 15.4817 10.2918 15.4931C10.2797 15.5159 10.2624 15.5471 10.2413 15.5813C10.1987 15.6502 10.1422 15.7287 10.084 15.7734C10.0412 15.8064 9.98641 15.831 9.92476 15.8518C9.87157 15.8698 9.81429 15.8846 9.75618 15.8997C9.74692 15.9021 9.73763 15.9045 9.72834 15.9069C9.66113 15.9244 9.59364 15.9429 9.533 15.9673C9.47239 15.9918 9.41744 16.0226 9.37589 16.0655C9.27586 16.1671 9.28036 16.2854 9.30829 16.3783C9.32223 16.4247 9.34211 16.4654 9.35814 16.4955C9.36215 16.503 9.36593 16.5099 9.36931 16.5161C9.36983 16.517 9.37033 16.5179 9.37083 16.5188C9.3736 16.5238 9.37603 16.5282 9.3781 16.5321C9.38057 16.5367 9.38228 16.5401 9.38332 16.5425C9.38346 16.5428 9.38358 16.5431 9.38368 16.5434L9.37212 16.6926L9.39072 16.6928L9.39211 16.6929C9.39304 16.6929 9.39442 16.6929 9.39619 16.6929C9.39973 16.693 9.40485 16.6931 9.41117 16.6932C9.42382 16.6935 9.44122 16.6939 9.46027 16.6947C9.49874 16.6961 9.54271 16.6986 9.56819 16.7027C9.58597 16.7055 9.60129 16.7114 9.617 16.7189C9.62432 16.7224 9.63157 16.7262 9.63931 16.7303L9.64126 16.7313C9.64964 16.7356 9.65852 16.7403 9.66803 16.7447C9.70691 16.7629 9.75498 16.7778 9.83288 16.7727C9.92948 16.7662 10.0025 16.739 10.0575 16.6957C10.1124 16.6525 10.148 16.5945 10.1717 16.5289C10.2104 16.4217 10.2182 16.2909 10.2257 16.1663C10.2272 16.1403 10.2288 16.1146 10.2305 16.0894C10.2399 16.0339 10.2552 15.9699 10.2715 15.9052C10.2752 15.8905 10.279 15.8758 10.2827 15.8612C10.2954 15.8113 10.3079 15.7622 10.3175 15.7183C10.3284 15.6687 10.3349 15.605 10.3387 15.5543C10.3407 15.5288 10.3419 15.5064 10.3427 15.4903C10.343 15.4823 10.3433 15.4758 10.3435 15.4714C10.3435 15.4702 10.3436 15.4691 10.3436 15.4682ZM10.3047 15.5422C10.295 15.5596 10.2836 15.5791 10.2709 15.5996C10.228 15.669 10.1687 15.7522 10.1053 15.801C10.058 15.8374 9.99909 15.8635 9.93591 15.8848C9.88143 15.9033 9.82277 15.9184 9.76475 15.9334C9.75552 15.9358 9.74631 15.9382 9.73713 15.9406C9.66987 15.9581 9.60436 15.9762 9.54602 15.9997C9.48768 16.0232 9.43768 16.0518 9.40086 16.0898C9.31308 16.1789 9.31577 16.2821 9.34166 16.3683C9.35464 16.4115 9.37331 16.4498 9.38889 16.4791C9.39278 16.4864 9.39647 16.4931 9.39983 16.4992C9.40034 16.5002 9.40083 16.5011 9.40132 16.5019C9.40409 16.507 9.40664 16.5116 9.40882 16.5157C9.41136 16.5204 9.41364 16.5249 9.41528 16.5286C9.4161 16.5305 9.41692 16.5326 9.41754 16.5347C9.41806 16.5365 9.4189 16.5398 9.4186 16.5436L9.40973 16.6583C9.41045 16.6583 9.41118 16.6584 9.41194 16.6584C9.42471 16.6587 9.44231 16.6591 9.46159 16.6598C9.49979 16.6613 9.54582 16.6638 9.57368 16.6683C9.59599 16.6719 9.61466 16.6792 9.63204 16.6875C9.63995 16.6913 9.64773 16.6953 9.65536 16.6993L9.65739 16.7004C9.66576 16.7048 9.67405 16.709 9.68279 16.7131C9.71693 16.7291 9.75916 16.7426 9.83056 16.7379C9.92166 16.7318 9.98754 16.7064 10.036 16.6683C10.0844 16.6302 10.1168 16.5784 10.1389 16.5171C10.1757 16.4151 10.1832 16.2907 10.1907 16.1661C10.1923 16.1393 10.1939 16.1126 10.1959 16.0861L10.1959 16.0852L10.196 16.0844C10.2056 16.0272 10.2214 15.9617 10.2377 15.8967C10.2415 15.8818 10.2453 15.8669 10.249 15.8522C10.2617 15.8024 10.274 15.7541 10.2835 15.7109C10.2938 15.6638 10.3002 15.6021 10.304 15.5517C10.3042 15.5485 10.3045 15.5453 10.3047 15.5422Z" fill="black"/>
<path fill-rule="evenodd" clip-rule="evenodd" d="M19.6671 15.4485H19.7116L19.712 15.4617C19.7128 15.4633 19.7139 15.4655 19.7153 15.4682C19.7185 15.4745 19.7232 15.4837 19.7292 15.4951C19.7413 15.5178 19.7586 15.549 19.7797 15.5831C19.8222 15.6519 19.8787 15.7303 19.9368 15.775C19.9796 15.8079 20.0343 15.8325 20.0959 15.8533C20.1491 15.8712 20.2063 15.886 20.2644 15.901C20.2736 15.9034 20.2829 15.9058 20.2922 15.9083C20.3593 15.9258 20.4268 15.9442 20.4874 15.9686C20.5479 15.993 20.6028 16.0238 20.6444 16.0666C20.7443 16.1681 20.7398 16.2862 20.7119 16.379C20.698 16.4253 20.6781 16.466 20.6621 16.496C20.6581 16.5036 20.6543 16.5104 20.6509 16.5166C20.6504 16.5175 20.6499 16.5184 20.6494 16.5193C20.6466 16.5243 20.6442 16.5287 20.6421 16.5326C20.6397 16.5372 20.638 16.5406 20.6369 16.543C20.6368 16.5433 20.6367 16.5436 20.6366 16.5438L20.6481 16.6929L20.6295 16.6931L20.6281 16.6931C20.6272 16.6931 20.6258 16.6931 20.6241 16.6932C20.6205 16.6932 20.6154 16.6933 20.6091 16.6935C20.5965 16.6937 20.5791 16.6942 20.56 16.6949C20.5216 16.6964 20.4777 16.6989 20.4522 16.703C20.4344 16.7058 20.4191 16.7116 20.4034 16.7191C20.3961 16.7227 20.3889 16.7264 20.3811 16.7305L20.3792 16.7315C20.3708 16.7358 20.362 16.7404 20.3525 16.7449C20.3136 16.7631 20.2656 16.778 20.1877 16.7728C20.0912 16.7664 20.0183 16.7392 19.9633 16.696C19.9084 16.6529 19.8729 16.5949 19.8492 16.5294C19.8106 16.4224 19.8028 16.2917 19.7953 16.1673C19.7938 16.1413 19.7922 16.1156 19.7904 16.0905C19.7811 16.0351 19.7657 15.9711 19.7495 15.9066C19.7458 15.8919 19.742 15.8772 19.7383 15.8626C19.7256 15.8128 19.7132 15.7638 19.7035 15.72C19.6926 15.6704 19.6861 15.6068 19.6823 15.5562C19.6804 15.5307 19.6792 15.5083 19.6784 15.4923C19.678 15.4843 19.6778 15.4778 19.6776 15.4734C19.6775 15.4722 19.6775 15.4711 19.6775 15.4702L19.6671 15.4485ZM19.7163 15.5441C19.7166 15.5472 19.7168 15.5504 19.717 15.5536C19.7208 15.6039 19.7272 15.6655 19.7375 15.7125C19.747 15.7557 19.7593 15.8039 19.772 15.8537C19.7757 15.8684 19.7795 15.8832 19.7832 15.8981C19.7996 15.9629 19.8153 16.0284 19.8249 16.0856L19.825 16.0864L19.8251 16.0872C19.827 16.1137 19.8286 16.1404 19.8302 16.1671C19.8377 16.2915 19.8452 16.4158 19.882 16.5176C19.9041 16.5788 19.9364 16.6306 19.9848 16.6686C20.0332 16.7066 20.099 16.732 20.1901 16.7381C20.2614 16.7428 20.3036 16.7293 20.3377 16.7134C20.3465 16.7093 20.3547 16.705 20.3631 16.7006L20.3651 16.6996C20.3727 16.6956 20.3805 16.6915 20.3884 16.6877C20.4058 16.6794 20.4244 16.6721 20.4467 16.6686C20.4746 16.6641 20.5206 16.6616 20.5587 16.6601C20.578 16.6594 20.5956 16.6589 20.6083 16.6587C20.6091 16.6586 20.6098 16.6586 20.6105 16.6586L20.6017 16.5441C20.6014 16.5403 20.6022 16.537 20.6027 16.5352C20.6034 16.5331 20.6042 16.531 20.605 16.5291C20.6066 16.5253 20.6089 16.5209 20.6115 16.5162C20.6136 16.5121 20.6162 16.5075 20.6189 16.5025C20.6194 16.5016 20.6199 16.5007 20.6204 16.4998C20.6238 16.4937 20.6275 16.487 20.6314 16.4797C20.6469 16.4504 20.6656 16.4121 20.6786 16.369C20.7044 16.2829 20.7072 16.18 20.6195 16.091C20.5827 16.053 20.5327 16.0244 20.4744 16.0009C20.4161 15.9774 20.3506 15.9595 20.2834 15.9419C20.2743 15.9396 20.265 15.9372 20.2558 15.9348C20.1979 15.9198 20.1392 15.9046 20.0848 15.8863C20.0217 15.8649 19.9628 15.8389 19.9156 15.8025C19.8522 15.7538 19.7929 15.6707 19.7501 15.6015C19.7374 15.5809 19.7261 15.5614 19.7163 15.5441Z" fill="black"/>
<path fill-rule="evenodd" clip-rule="evenodd" d="M20.4032 9.24764C20.4189 9.25516 20.4343 9.26101 20.452 9.26386C20.4775 9.26793 20.5215 9.27043 20.5599 9.27189C20.579 9.27261 20.5964 9.27307 20.609 9.27335C20.6154 9.27349 20.6205 9.27359 20.624 9.27364C20.6258 9.27367 20.6272 9.27369 20.6281 9.27371L20.6481 9.27396L20.6365 9.42318C20.6366 9.42342 20.6368 9.4237 20.6369 9.42402C20.6379 9.42642 20.6396 9.42982 20.6421 9.43443C20.6442 9.4383 20.6466 9.4427 20.6494 9.44772C20.6499 9.44862 20.6504 9.44954 20.6509 9.45048C20.6543 9.45662 20.6581 9.46351 20.6621 9.47104C20.6781 9.50115 20.698 9.54182 20.7119 9.5882C20.7398 9.68114 20.7443 9.79941 20.6443 9.90101C20.6028 9.94387 20.5478 9.97469 20.4872 9.99911C20.4266 10.0235 20.3591 10.042 20.2919 10.0596C20.2826 10.062 20.2733 10.0644 20.2641 10.0668C20.206 10.0818 20.1487 10.0966 20.0955 10.1146C20.0339 10.1354 19.9791 10.1601 19.9363 10.193C19.8781 10.2378 19.8216 10.3162 19.779 10.3851C19.7579 10.4192 19.7406 10.4505 19.7285 10.4733C19.7224 10.4846 19.7177 10.4939 19.7145 10.5002C19.7132 10.5029 19.7121 10.5051 19.7113 10.5067L19.711 10.5185L19.6652 10.5223L19.6767 10.4982C19.6767 10.4973 19.6768 10.4962 19.6768 10.495C19.677 10.4905 19.6773 10.4841 19.6776 10.4761C19.6784 10.46 19.6796 10.4376 19.6816 10.4121C19.6854 10.3614 19.6919 10.2977 19.7028 10.2481C19.7124 10.2042 19.7249 10.1551 19.7376 10.1052C19.7413 10.0906 19.7451 10.0759 19.7488 10.0612C19.765 9.99659 19.7804 9.93254 19.7897 9.8771C19.7915 9.85192 19.7931 9.8262 19.7946 9.80021C19.8021 9.67558 19.8099 9.54477 19.8486 9.43759C19.8723 9.37203 19.9079 9.31402 19.9628 9.27083C20.0178 9.2276 20.0908 9.20034 20.1874 9.19391C20.2653 9.18873 20.3133 9.20368 20.3522 9.22187C20.3617 9.22631 20.3706 9.23092 20.379 9.23529C20.3796 9.23563 20.3803 9.23597 20.3809 9.23631C20.3887 9.24035 20.3959 9.24413 20.4032 9.24764ZM19.7156 10.4241C19.7253 10.4068 19.7367 10.3873 19.7494 10.3668C19.7923 10.2974 19.8515 10.2143 19.915 10.1654C19.9622 10.129 20.0212 10.1029 20.0843 10.0816C20.1388 10.0632 20.1975 10.048 20.2555 10.033C20.2647 10.0306 20.2739 10.0282 20.2831 10.0258C20.3504 10.0083 20.4159 9.9903 20.4742 9.96679C20.5325 9.94328 20.5825 9.91471 20.6194 9.87671C20.7071 9.78759 20.7044 9.68441 20.6785 9.59822C20.6656 9.55503 20.6469 9.51668 20.6313 9.48742C20.6274 9.48011 20.6237 9.4734 20.6204 9.46729C20.6199 9.46638 20.6194 9.46548 20.6189 9.4646C20.6161 9.45958 20.6136 9.45495 20.6114 9.45087C20.6089 9.44613 20.6066 9.44169 20.6049 9.4379C20.6041 9.43601 20.6033 9.43393 20.6027 9.43183C20.6022 9.43004 20.6013 9.42672 20.6016 9.42289L20.6105 9.30824C20.6098 9.30822 20.609 9.30821 20.6083 9.30819C20.5955 9.30791 20.5779 9.30744 20.5586 9.30671C20.5204 9.30526 20.4744 9.30272 20.4465 9.29827C20.4242 9.2947 20.4056 9.28739 20.3882 9.27907C20.3803 9.27529 20.3725 9.27122 20.3649 9.26724C20.3642 9.26689 20.3635 9.26653 20.3629 9.26618C20.3545 9.26181 20.3462 9.25752 20.3374 9.25343C20.3033 9.23746 20.2611 9.22393 20.1897 9.22868C20.0986 9.23474 20.0327 9.26018 19.9843 9.29823C19.9359 9.33632 19.9035 9.38817 19.8814 9.44943C19.8446 9.55139 19.8371 9.67584 19.8296 9.8004C19.8279 9.82714 19.8263 9.85388 19.8244 9.88041L19.8244 9.88123L19.8242 9.88204C19.8147 9.93921 19.7989 10.0048 19.7825 10.0698C19.7788 10.0846 19.775 10.0995 19.7713 10.1142C19.7586 10.164 19.7463 10.2123 19.7368 10.2556C19.7265 10.3026 19.7201 10.3643 19.7163 10.4147C19.7161 10.4179 19.7158 10.421 19.7156 10.4241Z" fill="black"/>
<path fill-rule="evenodd" clip-rule="evenodd" d="M9.57369 9.2983C9.59599 9.29473 9.61466 9.28742 9.63204 9.2791C9.63995 9.27532 9.64773 9.27125 9.65536 9.26727L9.65739 9.26621C9.66576 9.26184 9.67405 9.25755 9.6828 9.25346C9.71693 9.23748 9.75916 9.22395 9.83057 9.2287C9.92167 9.23477 9.98755 9.26021 10.036 9.29826C10.0844 9.33636 10.1168 9.38822 10.1389 9.44948C10.1757 9.55147 10.1832 9.67594 10.1907 9.80051C10.1923 9.82726 10.1939 9.854 10.1959 9.88054L10.1959 9.88135L10.196 9.88216C10.2056 9.93935 10.2214 10.0049 10.2377 10.0699C10.2415 10.0848 10.2453 10.0997 10.249 10.1144C10.2617 10.1642 10.274 10.2125 10.2835 10.2557C10.2938 10.3028 10.3002 10.3645 10.304 10.4149C10.3042 10.4181 10.3045 10.4213 10.3047 10.4244C10.2954 10.4078 10.2846 10.3892 10.2725 10.3696L10.3047 10.4244L10.1053 10.1656C10.058 10.1292 9.99909 10.1031 9.93592 10.0818C9.88143 10.0633 9.82277 10.0482 9.76475 10.0331C9.75552 10.0308 9.74631 10.0284 9.73713 10.026C9.66987 10.0085 9.60436 9.99045 9.54602 9.96693C9.48768 9.94342 9.43758 9.91474 9.40076 9.87674C9.31298 9.7876 9.31577 9.68451 9.34166 9.59831C9.35464 9.55511 9.37331 9.51675 9.38889 9.48749C9.39278 9.48018 9.39647 9.47346 9.39983 9.46736L9.40132 9.46465C9.40408 9.45964 9.40664 9.45501 9.40882 9.45093C9.41136 9.44619 9.41364 9.44174 9.41528 9.43796C9.4161 9.43607 9.41692 9.43399 9.41754 9.43188C9.41806 9.43009 9.4189 9.42678 9.4186 9.42295L9.40973 9.30827L9.41194 9.30823C9.42471 9.30794 9.44231 9.30748 9.46159 9.30675C9.49979 9.3053 9.54582 9.30275 9.57369 9.2983ZM9.39211 9.27374L9.39071 9.27376L9.37212 9.27399L9.38367 9.42324C9.38358 9.42348 9.38346 9.42375 9.38332 9.42408C9.38228 9.42648 9.38057 9.42988 9.3781 9.43449C9.37603 9.43836 9.3736 9.44276 9.37083 9.44779L9.36931 9.45054C9.36593 9.45668 9.36215 9.46357 9.35814 9.47111C9.34211 9.50122 9.32223 9.54189 9.30829 9.58828C9.28036 9.68124 9.27586 9.79952 9.37588 9.90114C9.41744 9.944 9.47239 9.97482 9.533 9.99925C9.59364 10.0237 9.66113 10.0422 9.72834 10.0597C9.73763 10.0621 9.74692 10.0645 9.75618 10.0669C9.81429 10.082 9.87157 10.0968 9.92476 10.1148C9.98641 10.1356 10.0412 10.1602 10.084 10.1932C10.1422 10.2379 10.1987 10.3164 10.2413 10.3853C10.2624 10.4194 10.2797 10.4507 10.2918 10.4735C10.2979 10.4849 10.3026 10.4941 10.3058 10.5004C10.3071 10.5031 10.3082 10.5053 10.309 10.5069L10.3093 10.5185L10.3554 10.5231L10.3436 10.4984L10.3435 10.4952C10.3433 10.4908 10.343 10.4843 10.3427 10.4763C10.3419 10.4602 10.3407 10.4378 10.3387 10.4123C10.3349 10.3616 10.3284 10.2979 10.3175 10.2483C10.3079 10.2044 10.2954 10.1553 10.2827 10.1054C10.279 10.0908 10.2752 10.0761 10.2715 10.0614C10.2553 9.99673 10.2399 9.93268 10.2305 9.87723C10.2288 9.85204 10.2272 9.82632 10.2257 9.80032C10.2182 9.67568 10.2104 9.54485 10.1717 9.43765C10.148 9.37208 10.1124 9.31406 10.0575 9.27087C10.0025 9.22763 9.92948 9.20036 9.83288 9.19394C9.75498 9.18875 9.70691 9.2037 9.66803 9.22189C9.65852 9.22634 9.64964 9.23095 9.64126 9.23532L9.63932 9.23634C9.63158 9.24038 9.62432 9.24417 9.617 9.24767C9.60129 9.25519 9.58598 9.26105 9.56819 9.26389C9.54271 9.26796 9.49874 9.27047 9.46027 9.27193C9.44122 9.27265 9.42381 9.27311 9.41117 9.27339C9.40485 9.27353 9.39973 9.27362 9.39618 9.27368C9.39441 9.27371 9.39304 9.27373 9.39211 9.27374ZM9.38407 9.42219C9.3841 9.42206 9.3841 9.42203 9.38407 9.42219V9.42219Z" fill="black"/>
<path d="M10.2709 10.367C10.228 10.2976 10.1687 10.2144 10.1053 10.1656L10.3047 10.4244L10.2725 10.3696L10.2709 10.367Z" fill="black"/>
</g>
<defs>
<clipPath id="clip0_1692_53982">
<rect x="2.04688" y="6.33398" width="19.9534" height="13.3001" rx="1" fill="white"/>
</clipPath>
</defs>
</svg>
