<svg width="24" height="25" viewBox="0 0 24 25" fill="none" xmlns="http://www.w3.org/2000/svg">
<g clip-path="url(#clip0_1692_54092)">
<path d="M2.02344 5.50342H21.973V18.8031H2.02344V5.50342Z" fill="black"/>
<path d="M2.02344 5.50342H21.973V14.3699H2.02344V5.50342Z" fill="white"/>
<path d="M2.02344 5.50342H21.973V9.93664H2.02344V5.50342Z" fill="#CE1126"/>
<path fill-rule="evenodd" clip-rule="evenodd" d="M11.8832 10.0548C11.8926 10.0496 11.9046 10.0472 11.9196 10.048C11.9678 10.0507 12.0281 10.062 12.0818 10.0782C12.1087 10.0863 12.1343 10.0958 12.1561 10.1061C12.1777 10.1164 12.1966 10.1279 12.2093 10.1406C12.2483 10.1796 12.2915 10.2777 12.2819 10.5149C12.2767 10.631 12.296 10.7623 12.3276 10.8693C12.3434 10.9228 12.3621 10.9697 12.3821 11.0055C12.3831 11.0073 12.3841 11.0091 12.3852 11.0109C12.5383 11.0111 12.6835 10.9723 12.8181 10.886C12.8183 10.8859 12.8185 10.8858 12.8187 10.8857C12.9417 10.8154 13.0903 10.7563 13.2116 10.7654C13.2729 10.77 13.328 10.792 13.3687 10.8395C13.4091 10.8868 13.4337 10.9574 13.4377 11.0563L13.5458 13.6162C13.546 13.6219 13.5428 13.6272 13.5376 13.6296C13.5325 13.632 13.5263 13.631 13.5222 13.6271L12.7166 12.8793L12.8919 13.5014C12.8835 13.5037 12.875 13.506 12.8664 13.5082L12.7443 13.0749L12.6674 13.3572L12.7831 13.5198L12.7649 13.5327C12.7628 13.5332 12.7607 13.5336 12.7587 13.534L12.6593 13.3945L12.6091 13.561C12.605 13.5616 12.6008 13.5622 12.5967 13.5627C12.5906 13.5635 12.5846 13.5643 12.5785 13.5651L12.6372 13.3701L12.5273 13.1893L12.4669 13.3733C12.4652 13.3785 12.4607 13.3822 12.4553 13.3829C12.4499 13.3836 12.4446 13.3811 12.4416 13.3766L12.3283 13.2003L12.279 13.4336L12.3129 13.588C12.3039 13.5882 12.2949 13.5883 12.286 13.5883L12.2642 13.4892L12.2098 13.5436L12.1244 13.4804L12.0439 12.9048L12.0776 13.4777L11.9955 13.5821L11.9134 13.4777L11.9471 12.905L11.8667 13.4804L11.7812 13.5436L11.7267 13.489L11.7049 13.5883C11.696 13.5883 11.687 13.5882 11.678 13.588L11.7119 13.4336L11.6626 13.2003L11.5493 13.3766C11.5463 13.3811 11.541 13.3836 11.5356 13.3829C11.5303 13.3822 11.5257 13.3785 11.524 13.3733L11.4636 13.1893L11.3537 13.3701L11.4124 13.5651C11.4064 13.5643 11.4004 13.5635 11.3944 13.5627C11.3902 13.5621 11.386 13.5616 11.3818 13.561L11.3316 13.3945L11.2322 13.534C11.2301 13.5336 11.2281 13.5331 11.226 13.5327L11.2078 13.5198L11.3236 13.3572L11.2466 13.0749L11.1245 13.5082C11.1159 13.5059 11.1074 13.5037 11.099 13.5014L11.2677 12.9026L10.4689 13.6272C10.4646 13.631 10.4586 13.6319 10.4534 13.6295C10.4483 13.6271 10.4451 13.6219 10.4453 13.6162L10.5535 11.0563C10.5575 10.9574 10.5821 10.8868 10.6226 10.8395C10.6632 10.792 10.7183 10.77 10.7796 10.7654C10.9009 10.7563 11.0495 10.8154 11.1724 10.8857C11.1727 10.8858 11.1729 10.8859 11.1731 10.886C11.3062 10.9713 11.4497 11.0102 11.6009 11.0109C11.6108 10.9968 11.6214 10.981 11.6325 10.964C11.68 10.8907 11.7345 10.7937 11.7635 10.6973C11.7914 10.6048 11.806 10.5192 11.8088 10.4501C11.8101 10.4156 11.8086 10.3854 11.8044 10.3607C11.8002 10.3358 11.7935 10.3174 11.7853 10.3056C11.7636 10.2741 11.7381 10.2469 11.7106 10.2343C11.6971 10.2282 11.6833 10.2256 11.6691 10.2274C11.6548 10.2293 11.6392 10.2358 11.6223 10.2493C11.6164 10.2541 11.6069 10.258 11.5974 10.2524C11.5901 10.2481 11.5869 10.24 11.5853 10.2343C11.5818 10.2219 11.5815 10.2039 11.5834 10.1857C11.5853 10.1672 11.5895 10.1468 11.5962 10.1289C11.6027 10.1116 11.6123 10.0944 11.6264 10.085C11.6523 10.0677 11.6917 10.063 11.7346 10.0648C11.7735 10.0665 11.8174 10.0738 11.8616 10.0843C11.8622 10.0814 11.8631 10.0783 11.8645 10.0751C11.8678 10.0675 11.8736 10.06 11.8832 10.0548ZM12.2643 13.3669L12.306 13.1698L12.1819 12.9813L12.1806 12.9857L12.2643 13.3669ZM12.1616 12.8992L12.1718 12.9148L12.2434 12.6677L12.1839 12.5897C12.205 12.568 12.2252 12.5461 12.2445 12.524L12.2072 12.5738L12.2654 12.6501C12.2697 12.6521 12.2726 12.656 12.2734 12.6605L12.3542 12.7663L12.3781 12.5422L12.2952 12.463C12.301 12.4556 12.3068 12.4481 12.3125 12.4407L12.3819 12.5069L12.4026 12.3126L12.3935 12.3247C12.408 12.302 12.4216 12.2794 12.4345 12.2567C12.4357 12.2591 12.4363 12.2619 12.436 12.2647L12.4075 12.5314L12.5563 12.6735L12.5994 12.5686L12.6019 12.5697L12.4862 12.1588C12.5353 12.0577 12.5705 11.9593 12.5957 11.8684L12.6227 12.5461L12.6999 12.8201L12.6432 11.6383C12.6617 11.503 12.658 11.4097 12.6568 11.3898C12.6844 11.382 12.7193 11.3651 12.7468 11.3518C12.756 11.3473 12.7644 11.3432 12.7714 11.3401L12.84 12.9554L12.9105 13.0209L12.8414 11.305C12.8495 11.2969 12.8666 11.2832 12.8864 11.2674C12.9134 11.2458 12.9453 11.2203 12.9654 11.2L13.0532 13.1533L13.1241 13.2191L13.0354 11.146C13.0435 11.1379 13.0674 11.1174 13.0947 11.0941C13.1314 11.0628 13.1744 11.0261 13.1944 11.006L13.3013 13.3836L13.3525 13.4312L13.2487 10.9678C13.2805 10.9678 13.3572 11.0126 13.4091 11.0471C13.404 10.9591 13.3816 10.8991 13.3489 10.8598L13.348 10.8588L13.3473 10.8579C13.3126 10.8173 13.2651 10.7976 13.2095 10.7935C13.0971 10.7851 12.9549 10.8403 12.833 10.9099C12.6987 10.996 12.5545 11.0361 12.4036 11.0389C12.4165 11.0559 12.4291 11.0671 12.4407 11.0722L12.4344 11.098L12.4101 11.0959C12.3955 11.0943 12.3755 11.0918 12.3541 11.0881C12.3329 11.0843 12.31 11.0792 12.2898 11.0724C12.2849 11.0708 12.2802 11.069 12.2755 11.0671C12.2759 11.0682 12.2763 11.0694 12.2767 11.0705C12.2801 11.0805 12.2834 11.0914 12.2848 11.1C12.2855 11.104 12.286 11.1092 12.2849 11.1139C12.2844 11.1163 12.2831 11.12 12.2799 11.1231C12.2763 11.1266 12.2717 11.1278 12.2676 11.1276C12.2083 11.1221 12.1591 11.0988 12.1253 11.0772C12.1084 11.0664 12.0951 11.0559 12.086 11.048C12.0843 11.0466 12.0828 11.0452 12.0814 11.044C12.0754 11.0496 12.0669 11.0578 12.0578 11.0668C12.0394 11.0851 12.0178 11.1078 12.0036 11.1266L11.994 11.1392L11.9034 11.0442L11.9018 11.0455L11.8999 11.0471C11.8914 11.0544 11.879 11.0645 11.8637 11.0761C11.8332 11.0991 11.7907 11.1279 11.7431 11.1506L11.7175 11.1628L11.7463 11.0435C11.7338 11.0504 11.7178 11.0588 11.6999 11.0672C11.6578 11.0869 11.6027 11.1076 11.5556 11.1076H11.527L11.5452 11.0855L11.5456 11.085L11.5469 11.0834C11.5481 11.0819 11.5498 11.0797 11.5521 11.0769C11.5565 11.0712 11.563 11.0629 11.571 11.0522C11.5741 11.0481 11.5774 11.0436 11.581 11.0387C11.4325 11.0349 11.2905 10.9947 11.1582 10.9099C11.0363 10.8403 10.8941 10.7851 10.7817 10.7935C10.7261 10.7976 10.6786 10.8173 10.644 10.8579C10.6104 10.8971 10.5873 10.9576 10.5821 11.0468C10.634 11.0124 10.7105 10.9678 10.7422 10.9678L10.6382 13.4356L10.6894 13.3892L10.7965 11.006C10.8165 11.0261 10.8595 11.0628 10.8962 11.0941C10.9235 11.1174 10.9474 11.1378 10.9555 11.1459L10.8665 13.2286L10.9372 13.1644L11.0255 11.2C11.0457 11.2203 11.0775 11.2458 11.1045 11.2674C11.1243 11.2832 11.1414 11.2969 11.1495 11.305L11.0798 13.0351L11.1502 12.9712L11.2195 11.3401C11.2265 11.3433 11.2349 11.3473 11.2442 11.3518C11.2716 11.3651 11.3065 11.382 11.3341 11.3898C11.3329 11.4098 11.329 11.5041 11.3478 11.6406L11.2922 12.8157L11.369 12.5431L11.3954 11.8707C11.4206 11.9612 11.4557 12.0592 11.5045 12.1597L11.389 12.5697L11.3915 12.5686L11.4346 12.6735L11.5834 12.5314L11.5549 12.2647C11.5546 12.2621 11.5551 12.2597 11.556 12.2574C11.5675 12.2776 11.5796 12.2978 11.5923 12.3179L11.5883 12.3126L11.6091 12.5069L11.6779 12.4411C11.6836 12.4486 11.6894 12.456 11.6953 12.4635L11.6128 12.5422L11.6367 12.7663L11.7175 12.6605C11.7183 12.656 11.7212 12.6521 11.7255 12.6501L11.7837 12.5738L11.7515 12.5307C11.7691 12.5507 11.7875 12.5706 11.8066 12.5903L11.7475 12.6677L11.8191 12.9148L11.8293 12.8992L11.8813 12.6626C11.9168 12.695 11.9547 12.7268 11.995 12.7578C12.0356 12.7265 12.0737 12.6945 12.1095 12.6619L12.1616 12.8992ZM12.3784 12.8044L12.4038 12.5668L12.5518 12.7081C12.5552 12.7114 12.5599 12.7127 12.5645 12.7117C12.569 12.7108 12.5728 12.7076 12.5746 12.7033L12.6131 12.6093L12.7179 12.9812L12.5717 12.8312C12.5681 12.8276 12.563 12.8261 12.5581 12.8274C12.5532 12.8286 12.5494 12.8324 12.548 12.8372L12.499 13.0117L12.3866 12.8595C12.3833 12.855 12.3776 12.8529 12.3721 12.8541C12.3667 12.8554 12.3625 12.8598 12.3615 12.8653L12.3135 13.1299L12.1922 12.9457L12.2647 12.6955L12.3533 12.8114C12.3568 12.816 12.3627 12.818 12.3682 12.8164C12.3738 12.8149 12.3778 12.8101 12.3784 12.8044ZM11.7266 13.3669L11.8103 12.9857L11.809 12.9813L11.6849 13.1698L11.7266 13.3669ZM11.4391 12.7081L11.5871 12.5668L11.6125 12.8044C11.6131 12.8101 11.6171 12.8149 11.6227 12.8164C11.6282 12.818 11.6341 12.816 11.6376 12.8114L11.7262 12.6955L11.7987 12.9457L11.6774 13.1299L11.6294 12.8653C11.6284 12.8598 11.6242 12.8554 11.6188 12.8541C11.6133 12.8529 11.6076 12.855 11.6043 12.8595L11.4919 13.0117L11.4429 12.8372C11.4415 12.8324 11.4377 12.8286 11.4328 12.8274C11.4279 12.8261 11.4228 12.8276 11.4192 12.8312L11.273 12.9812L11.3778 12.6093L11.4163 12.7033C11.4181 12.7076 11.4219 12.7108 11.4264 12.7117C11.431 12.7127 11.4357 12.7114 11.4391 12.7081ZM11.6141 11.039C11.6204 11.0302 11.6271 11.0206 11.634 11.0104C11.6408 11.0004 11.6479 10.9898 11.6552 10.9787C11.7032 10.9046 11.7592 10.8051 11.7893 10.7051C11.8178 10.6108 11.8329 10.5229 11.8357 10.4512C11.8372 10.4153 11.8356 10.3832 11.831 10.3562C11.8305 10.353 11.8299 10.3499 11.8293 10.3468C11.8318 10.3433 11.8352 10.3394 11.8401 10.3352C11.8411 10.3343 11.8428 10.3334 11.8454 10.3327C11.8481 10.3319 11.8513 10.3314 11.855 10.3312C11.8624 10.3307 11.8711 10.3312 11.8796 10.3321C11.8881 10.333 11.8961 10.3343 11.902 10.3354C11.905 10.3359 11.9074 10.3364 11.9091 10.3367L11.9103 10.337L11.911 10.3372L11.9115 10.3373L11.9241 10.3401L11.9177 10.3291C11.8336 10.1855 11.7373 10.1498 11.6927 10.1525C11.663 10.154 11.6419 10.1761 11.6286 10.1964C11.6228 10.2052 11.6183 10.214 11.6151 10.2211C11.6136 10.2221 11.6121 10.2232 11.6106 10.2243C11.609 10.2163 11.6087 10.2036 11.6102 10.1885C11.6119 10.1718 11.6158 10.1537 11.6215 10.1384C11.6219 10.1372 11.6224 10.136 11.6229 10.1349C11.6237 10.1342 11.6247 10.1335 11.6256 10.1328C11.6378 10.1238 11.6576 10.114 11.6883 10.1114C11.7202 10.1093 11.7401 10.1107 11.758 10.117C11.7761 10.1234 11.7926 10.135 11.8174 10.1546C11.8424 10.1743 11.8649 10.1891 11.8844 10.1985C11.9036 10.2077 11.9207 10.212 11.9345 10.2096C11.9347 10.2096 11.935 10.2097 11.9357 10.2102C11.9366 10.211 11.9378 10.2124 11.9392 10.2146C11.9402 10.2161 11.9411 10.2176 11.9422 10.2193C11.9427 10.2201 11.9432 10.221 11.9438 10.222C11.9455 10.2247 11.9473 10.2276 11.9495 10.2303C11.9505 10.2313 11.9513 10.2325 11.9521 10.2337C11.9523 10.234 11.9526 10.2344 11.9529 10.2348C11.954 10.2365 11.9555 10.2386 11.9579 10.2403C11.9627 10.2438 11.9697 10.2453 11.9817 10.2453C11.9873 10.2453 11.9918 10.2425 11.9954 10.2392C11.9989 10.2359 12.0019 10.2315 12.0044 10.2273C12.0057 10.2252 12.007 10.2231 12.0081 10.221C12.0093 10.219 12.0105 10.2169 12.0116 10.2151C12.0139 10.2114 12.0157 10.2089 12.0173 10.2076C12.0225 10.2035 12.0304 10.2003 12.0392 10.1976C12.046 10.1955 12.0531 10.1939 12.0594 10.1925C12.0611 10.1921 12.063 10.1917 12.0646 10.1913C12.0868 10.1857 12.1003 10.1847 12.1151 10.1835C12.1208 10.183 12.1268 10.1826 12.1335 10.1818C12.1405 10.181 12.1591 10.1802 12.1785 10.1832C12.192 10.1853 12.205 10.1892 12.215 10.1956C12.2395 10.2445 12.262 10.3381 12.2549 10.5138C12.2496 10.6332 12.2694 10.7675 12.3017 10.8769C12.3179 10.9316 12.3373 10.9806 12.3585 11.0187C12.3687 11.0369 12.3796 11.0532 12.3912 11.0664C12.3812 11.0651 12.3702 11.0635 12.3588 11.0615C12.3383 11.0578 12.3169 11.053 12.2984 11.0468C12.2795 11.0405 12.2674 11.0349 12.26 11.0272C12.2404 10.9985 12.224 10.9561 12.2105 10.9076C12.1971 10.8593 12.1869 10.806 12.1792 10.7563C12.1716 10.7066 12.1665 10.6607 12.1633 10.6272C12.1617 10.6104 12.1606 10.5968 12.1599 10.5874C12.1596 10.5827 12.1593 10.579 12.1592 10.5765L12.159 10.5737L12.159 10.573L12.1449 10.5736C12.1308 10.5744 12.1308 10.5745 12.1308 10.5745L12.1309 10.5755L12.1311 10.5784C12.1313 10.5809 12.1315 10.5847 12.1319 10.5895C12.1326 10.5991 12.1337 10.6129 12.1353 10.6298C12.1385 10.6637 12.1436 10.7102 12.1514 10.7606C12.1592 10.8109 12.1696 10.8654 12.1834 10.9151C12.1971 10.9646 12.2138 11.0078 12.236 11.0404L12.2363 11.0412L12.2368 11.0423L12.2374 11.0437C12.2383 11.0458 12.2396 11.0489 12.2411 11.0526C12.244 11.0599 12.2478 11.0697 12.2511 11.0793C12.2537 11.0867 12.2558 11.0936 12.2571 11.0992C12.209 11.0924 12.1688 11.073 12.1398 11.0545C12.1242 11.0445 12.1119 11.0347 12.1036 11.0276C12.1002 11.0246 12.0974 11.0221 12.0954 11.0201L12.0712 10.5529L12.043 10.5537L12.043 10.5582C12.043 10.5612 12.043 10.5656 12.0431 10.5712C12.0431 10.5824 12.0432 10.5984 12.0434 10.6179C12.0438 10.6568 12.0445 10.7095 12.0461 10.7643C12.0476 10.8191 12.0499 10.8762 12.0533 10.9239C12.055 10.9478 12.0571 10.9695 12.0594 10.9875L12.0595 10.9882C12.0618 11.0053 12.0626 11.0113 12.0661 11.0213C12.065 11.0223 12.0638 11.0234 12.0625 11.0246C12.0565 11.0304 12.0481 11.0384 12.0387 11.0477C12.0238 11.0625 12.0062 11.0808 11.9919 11.0979L11.9211 11.0236C11.9211 11.0236 11.9483 10.9494 11.9582 10.9025C11.9692 10.8508 11.9776 10.7932 11.9841 10.7395C11.9905 10.6858 11.9949 10.6359 11.9977 10.5993C11.9992 10.5811 12.0002 10.5661 12.0008 10.5558C12.0011 10.5506 12.0014 10.5465 12.0015 10.5438L12.0017 10.5406L12.0018 10.5395L11.9738 10.5364L11.8918 11.0184C11.8897 11.0203 11.8865 11.0231 11.8824 11.0266C11.8742 11.0336 11.8623 11.0434 11.8475 11.0545C11.8235 11.0726 11.7923 11.0941 11.7573 11.1131L11.7787 11.0241L11.7791 11.0236C11.7875 11.0142 11.7954 11.0031 11.8027 10.9907C11.8172 10.9662 11.8299 10.9365 11.8416 10.9041C11.8596 10.8547 11.8747 10.7988 11.8868 10.7465C11.8988 10.6942 11.908 10.6452 11.9141 10.6092C11.9172 10.5913 11.9195 10.5765 11.9211 10.5663C11.9218 10.5612 11.9224 10.5572 11.9228 10.5545L11.923 10.5533L11.9232 10.5513L11.9234 10.5505L11.896 10.5442L11.7571 10.9987L11.7544 11.0077C11.7509 11.0098 11.7459 11.0127 11.7395 11.0163C11.7309 11.0212 11.7199 11.0272 11.7073 11.0336C11.7014 11.0366 11.695 11.0397 11.6884 11.0428C11.6565 11.0576 11.6194 11.0719 11.5855 11.0778C11.5877 11.0749 11.5901 11.0718 11.5926 11.0684C11.5989 11.06 11.6062 11.0501 11.6141 11.039ZM11.8918 11.0184L11.9047 11.0065L11.895 11.0155L11.8942 11.0162C11.8937 11.0167 11.8929 11.0174 11.8918 11.0184ZM12.0954 11.0201L12.0943 11.0191C12.0932 11.0181 12.0925 11.0173 12.092 11.0168L12.0914 11.0163L12.0822 11.0065L12.0954 11.0201ZM11.9954 10.1737C11.9954 10.1881 11.9838 10.1998 11.9694 10.1998C11.955 10.1998 11.9433 10.1881 11.9433 10.1737C11.9433 10.1593 11.955 10.1477 11.9694 10.1477C11.9838 10.1477 11.9954 10.1593 11.9954 10.1737ZM11.6545 13.1609L11.6076 12.9024L11.4974 13.0515C11.4942 13.0559 11.4889 13.058 11.4836 13.057C11.4783 13.0561 11.474 13.0522 11.4726 13.047L11.4224 12.8683L11.2638 13.031L11.3452 13.3297L11.4554 13.1485C11.4583 13.1438 11.4636 13.1412 11.4691 13.1419C11.4745 13.1425 11.4791 13.1462 11.4808 13.1515L11.5416 13.3365L11.6545 13.1609ZM12.3365 13.1609L12.3834 12.9024L12.4935 13.0515C12.4967 13.0559 12.502 13.058 12.5073 13.057C12.5126 13.0561 12.5169 13.0522 12.5183 13.047L12.5685 12.8683L12.7271 13.031L12.6457 13.3297L12.5355 13.1485C12.5326 13.1438 12.5273 13.1412 12.5218 13.1419C12.5164 13.1425 12.5118 13.1462 12.5101 13.1515L12.4493 13.3365L12.3365 13.1609Z" fill="#C09300"/>
<path d="M11.4265 13.5669C11.4366 13.5682 11.4467 13.5694 11.4569 13.5707L11.5146 13.4728L11.55 13.5805C11.5602 13.5814 11.5703 13.5823 11.5805 13.583L11.5317 13.4344C11.5299 13.4292 11.5253 13.4254 11.5198 13.4248C11.5143 13.4242 11.509 13.4269 11.5062 13.4317L11.4265 13.5669Z" fill="#C09300"/>
<path d="M12.4104 13.5831C12.4205 13.5823 12.4307 13.5814 12.4409 13.5805L12.4763 13.4728L12.534 13.5707C12.5442 13.5695 12.5543 13.5682 12.5644 13.5669L12.4847 13.4317C12.4819 13.4269 12.4766 13.4242 12.4711 13.4248C12.4656 13.4254 12.461 13.4292 12.4592 13.4344L12.4104 13.5831Z" fill="#C09300"/>
<path fill-rule="evenodd" clip-rule="evenodd" d="M13.0618 13.6083C13.0588 13.6052 13.0563 13.6017 13.0545 13.5978C13.0523 13.5917 13.0509 13.5863 13.0499 13.5815C13.0419 13.589 13.0305 13.5965 13.0149 13.6034C12.9142 13.6318 12.7673 13.6602 12.6683 13.6783C12.6696 13.6893 12.6685 13.6988 12.666 13.7073C12.7654 13.6892 12.9189 13.6598 13.0234 13.6303C13.0241 13.6301 13.0246 13.6299 13.0252 13.6296C13.0397 13.6233 13.0519 13.6162 13.0618 13.6083ZM13.0149 13.6034L13.0158 13.6032L13.0196 13.6167L13.014 13.6038L13.0149 13.6034Z" fill="#C09300"/>
<path d="M12.1498 13.7563C12.1589 13.7482 12.1684 13.7369 12.1684 13.7219L12.1635 13.731L12.1498 13.7563Z" fill="#C09300"/>
<path fill-rule="evenodd" clip-rule="evenodd" d="M13.024 13.5011C13.032 13.5129 13.0354 13.5207 13.0368 13.5265C13.0381 13.5319 13.0378 13.5363 13.037 13.542C13.0368 13.5431 13.0366 13.5443 13.0364 13.5456C13.0355 13.5509 13.0343 13.5578 13.0343 13.5657C13.0342 13.5759 13.036 13.5876 13.0412 13.6025C13.0413 13.6029 13.0415 13.6032 13.0417 13.6036C13.0474 13.6161 13.0577 13.6245 13.0682 13.6307C13.0785 13.6367 13.0905 13.6414 13.1013 13.6456L13.1018 13.6459C13.1132 13.6503 13.1232 13.6543 13.1314 13.6591C13.1396 13.6639 13.1444 13.6686 13.1466 13.6736C13.1489 13.6785 13.1537 13.6817 13.1592 13.6818C13.1646 13.6819 13.1696 13.6789 13.172 13.674C13.192 13.6341 13.1871 13.5805 13.1632 13.5398C13.139 13.4983 13.094 13.4684 13.0334 13.4789C13.0326 13.4791 13.0319 13.4792 13.0312 13.4794C13.0253 13.4813 13.0213 13.4867 13.0213 13.4929C13.0213 13.4959 13.0223 13.4987 13.024 13.5011ZM13.1389 13.554C13.1225 13.526 13.0954 13.5056 13.0588 13.505C13.0612 13.5102 13.063 13.5151 13.0641 13.5198C13.0667 13.5303 13.0659 13.5389 13.0648 13.5463C13.0645 13.5481 13.0643 13.5498 13.064 13.5513C13.0632 13.5563 13.0625 13.5605 13.0624 13.5658C13.0624 13.5723 13.0634 13.5806 13.0675 13.5924C13.0699 13.5972 13.0746 13.6018 13.0825 13.6064C13.0907 13.6112 13.1007 13.6152 13.1121 13.6197L13.1126 13.6199C13.1234 13.6241 13.1354 13.6288 13.1457 13.6348C13.1485 13.6365 13.1513 13.6383 13.1541 13.6403C13.1598 13.6131 13.1545 13.5807 13.1389 13.554Z" fill="#C09300"/>
<path fill-rule="evenodd" clip-rule="evenodd" d="M10.9881 13.5375L11.0923 13.5722C11.0965 13.5736 11.1011 13.5721 11.1036 13.5684C11.1061 13.5648 11.1059 13.5599 11.103 13.5565C11.0979 13.5504 11.0903 13.5451 11.0819 13.5407C11.0734 13.5361 11.0635 13.5322 11.0532 13.5288C11.033 13.5224 11.0102 13.5182 10.9916 13.518C10.9875 13.5175 10.9834 13.5197 10.9815 13.5236C10.9793 13.528 10.9808 13.5334 10.985 13.5361C10.9859 13.5367 10.9871 13.5372 10.9881 13.5375ZM12.9391 13.5289C12.9593 13.5223 12.9818 13.518 13.0006 13.518C13.0054 13.518 13.0096 13.5215 13.0103 13.5263C13.0111 13.5311 13.0083 13.5358 13.0037 13.5373L12.8987 13.5722C12.8944 13.5737 12.8896 13.572 12.8872 13.5681C12.8848 13.5642 12.8854 13.5591 12.8886 13.5559C12.8998 13.5447 12.9191 13.5354 12.9391 13.5289ZM12.8342 13.5768C12.8365 13.5806 12.836 13.5855 12.8329 13.5887C12.8314 13.5903 12.8293 13.5914 12.8271 13.5918L12.7043 13.6264C12.6995 13.6278 12.6944 13.6253 12.6925 13.6207C12.6906 13.616 12.6925 13.6107 12.6969 13.6083C12.7155 13.5982 12.7426 13.5892 12.7671 13.5828C12.7903 13.5767 12.8127 13.5725 12.8241 13.5722C12.8281 13.5715 12.8321 13.5733 12.8342 13.5768ZM11.1637 13.5918L11.2866 13.6264C11.2914 13.6278 11.2965 13.6253 11.2984 13.6207C11.3003 13.616 11.2984 13.6107 11.294 13.6083C11.2754 13.5982 11.2482 13.5892 11.2238 13.5828C11.2006 13.5767 11.1782 13.5725 11.1667 13.5722C11.1628 13.5715 11.1589 13.5732 11.1568 13.5766C11.1544 13.5802 11.1548 13.585 11.1576 13.5883C11.1592 13.5901 11.1614 13.5914 11.1637 13.5918ZM11.5873 13.6315C11.5978 13.634 11.6078 13.6382 11.6145 13.6449C11.6173 13.6477 11.6181 13.6519 11.6166 13.6556C11.6151 13.6593 11.6115 13.6617 11.6075 13.6617H11.4835C11.4789 13.6617 11.475 13.6587 11.4739 13.6543C11.4728 13.6499 11.4748 13.6453 11.4787 13.6432C11.4982 13.6325 11.5263 13.6276 11.5514 13.6276C11.5641 13.6276 11.5766 13.6289 11.5873 13.6315ZM12.5074 13.6617C12.5119 13.6617 12.5159 13.6587 12.517 13.6543C12.5181 13.6499 12.5161 13.6453 12.5122 13.6432C12.4927 13.6325 12.4646 13.6276 12.4394 13.6276C12.4267 13.6276 12.4143 13.6289 12.4036 13.6315C12.3936 13.6339 12.384 13.6378 12.3774 13.6439C12.375 13.6457 12.3734 13.6486 12.3734 13.6518C12.3734 13.6573 12.3778 13.6617 12.3833 13.6617H12.5074ZM12.1805 13.6473C12.1824 13.6435 12.1864 13.6414 12.1906 13.6419C12.208 13.6419 12.2341 13.642 12.2582 13.644C12.2706 13.645 12.2827 13.6465 12.2931 13.6489C12.3032 13.6512 12.3131 13.6546 12.3198 13.6601C12.3231 13.6629 12.3243 13.6676 12.3225 13.6716C12.3207 13.6757 12.3165 13.678 12.3122 13.6775L12.1895 13.6617C12.1868 13.6617 12.1841 13.6606 12.1823 13.6586C12.1794 13.6556 12.1786 13.651 12.1805 13.6473ZM11.8001 13.6419C11.8041 13.6414 11.808 13.6434 11.81 13.6468C11.8117 13.6499 11.8118 13.6537 11.81 13.6568C11.8082 13.6598 11.805 13.6617 11.8014 13.6617C11.8014 13.6617 11.8015 13.6617 11.8014 13.6617L11.6787 13.6775C11.6744 13.678 11.6702 13.6757 11.6684 13.6716C11.6666 13.6676 11.6678 13.6629 11.6711 13.6601C11.6778 13.6546 11.6877 13.6512 11.6977 13.6489C11.7082 13.6465 11.7203 13.645 11.7327 13.644C11.7567 13.642 11.7827 13.6419 11.8001 13.6419Z" fill="#C09300"/>
<path d="M10.961 13.8075C10.9492 13.8052 10.9429 13.7958 10.9459 13.7848C10.9496 13.7713 10.9604 13.7635 10.9706 13.7671C10.9771 13.7694 10.989 13.7814 10.989 13.7857C10.9891 13.7907 10.9828 13.8024 10.9801 13.8024C10.9789 13.8025 10.9771 13.8035 10.9761 13.8047C10.9739 13.8073 10.9669 13.8086 10.961 13.8075ZM12.1788 13.8944C12.1744 13.8927 12.1673 13.8829 12.1673 13.8783C12.1674 13.8697 12.1801 13.8558 12.1879 13.8557C12.1918 13.8557 12.2025 13.8612 12.2064 13.8653C12.2136 13.8728 12.2121 13.8851 12.203 13.8921C12.1986 13.8955 12.1853 13.8968 12.1788 13.8944ZM12.1867 13.9493C12.1774 13.9462 12.174 13.9416 12.1733 13.9313C12.1725 13.9206 12.1735 13.9189 12.1849 13.9127L12.193 13.9083L12.2007 13.9117C12.2113 13.9164 12.216 13.9215 12.2164 13.9287C12.2168 13.9364 12.2111 13.9443 12.2022 13.9483C12.1944 13.9518 12.194 13.9518 12.1867 13.9493Z" fill="#C09300"/>
<path d="M11.0588 13.7079C11.0511 13.7077 11.0406 13.7147 11.0345 13.7183C11.0201 13.7217 11.0034 13.7305 10.9895 13.7211C10.9758 13.7169 10.9576 13.7202 10.9555 13.737C10.9591 13.7515 10.9793 13.7597 10.9916 13.7502C11.0007 13.7383 11.0255 13.7313 11.0283 13.7516C11.0182 13.7669 11.0193 13.7872 11.011 13.8035C11.0096 13.8137 11.0054 13.8233 10.9999 13.8319C10.9896 13.833 10.9787 13.8318 10.9701 13.8382C10.9562 13.8389 10.9421 13.8458 10.9341 13.8576C10.9251 13.8704 10.9166 13.8834 10.914 13.8991C10.9163 13.9152 10.9348 13.9198 10.9486 13.9206C10.9634 13.9247 10.9782 13.93 10.993 13.9345C11.017 13.9399 11.0396 13.9486 11.0636 13.9539C11.0987 13.9645 11.1356 13.9693 11.171 13.9788C11.1747 13.98 11.1782 13.9811 11.1821 13.9816C11.1968 13.9846 11.2044 13.9687 11.2056 13.9566C11.2129 13.9309 11.2185 13.9048 11.2257 13.879C11.2307 13.8687 11.2367 13.8454 11.2167 13.8506C11.2053 13.8575 11.1956 13.8678 11.1814 13.8687C11.162 13.8698 11.1731 13.8896 11.1807 13.8978C11.1824 13.9108 11.1783 13.9263 11.1696 13.9365C11.1581 13.9439 11.1436 13.9353 11.1315 13.9324C11.1188 13.9326 11.0933 13.9261 11.1052 13.9088C11.1094 13.896 11.1098 13.8821 11.1149 13.8694C11.1214 13.8557 11.1223 13.8409 11.1253 13.8264C11.1173 13.8092 11.1036 13.8321 11.0927 13.834C11.0852 13.8392 11.0571 13.8414 11.0719 13.8548C11.0847 13.8645 11.0749 13.8813 11.0726 13.8936C11.0718 13.9107 11.054 13.9147 11.0401 13.9109C11.0261 13.9102 11.0068 13.8999 11.0186 13.8846C11.0213 13.8718 11.0257 13.8593 11.0283 13.8465C11.0335 13.831 11.038 13.8163 11.0435 13.8008C11.0459 13.787 11.0509 13.774 11.0574 13.762C11.0578 13.7468 11.068 13.7337 11.0678 13.7183C11.0667 13.7108 11.0634 13.7081 11.0588 13.7079ZM10.9791 13.8687C10.9809 13.8683 10.9822 13.8686 10.9839 13.8693C10.9895 13.8717 10.9896 13.8762 10.9839 13.8811C10.9815 13.8833 10.9786 13.8853 10.9777 13.8853C10.9673 13.8844 10.9643 13.8828 10.9639 13.879C10.9635 13.8757 10.9645 13.8747 10.9715 13.8714C10.9749 13.8698 10.9773 13.869 10.9791 13.8687ZM10.9561 13.9799C10.9451 13.9696 10.9469 13.9621 10.9632 13.9499C10.9701 13.9448 10.9743 13.9453 10.9823 13.9526C10.9945 13.9638 10.995 13.9708 10.9842 13.9804C10.9789 13.9852 10.9765 13.9861 10.9703 13.9862C10.9638 13.9863 10.962 13.9854 10.9561 13.9799ZM11.0237 14.0003C11.0186 13.9991 11.0142 13.9958 11.0116 13.9913C11.009 13.9867 11.0084 13.9813 11.0099 13.9762C11.0128 13.9666 11.0144 13.9656 11.0286 13.9655C11.0444 13.9653 11.0475 13.968 11.0476 13.982C11.0477 13.9898 11.0471 13.9916 11.0432 13.9953C11.0386 13.9995 11.0298 14.0018 11.0237 14.0003ZM12.9992 14.0021C12.9942 13.9979 12.9932 13.996 12.9931 13.9907C12.9931 13.9816 12.9983 13.9749 13.0097 13.9698C13.0248 13.9629 13.031 13.9639 13.0367 13.9739C13.0442 13.9872 13.0439 13.9927 13.0348 14.0016C13.0298 14.0066 13.0288 14.0069 13.0174 14.007C13.0061 14.0071 13.0048 14.0068 12.9992 14.0021ZM11.1135 14.0276C11.1055 14.0255 11.1013 14.0194 11.1012 14.0097C11.1011 14.0023 11.1016 14.0011 11.1068 13.9971C11.1101 13.9945 11.1154 13.9922 11.1196 13.9917C11.1255 13.9908 11.1277 13.9914 11.1325 13.9947C11.1447 14.0033 11.1473 14.0118 11.1402 14.02C11.1327 14.0288 11.1255 14.0308 11.1135 14.0276ZM11.5995 14.0493C11.5977 14.0471 11.5937 14.0458 11.5933 14.043C11.594 14.0307 11.5946 14.0182 11.5985 14.0064C11.6007 13.9948 11.5988 13.9827 11.6028 13.9714C11.607 13.9509 11.607 13.9297 11.6118 13.9093C11.612 13.8988 11.613 13.8882 11.616 13.8781C11.6195 13.8621 11.6163 13.8454 11.621 13.8296C11.6205 13.8236 11.6274 13.8078 11.6334 13.8172C11.6421 13.83 11.6536 13.8404 11.6649 13.8508C11.6746 13.8564 11.6657 13.8646 11.659 13.8674C11.6498 13.871 11.6475 13.8812 11.6482 13.8901C11.6469 13.8993 11.6432 13.9079 11.6428 13.9173C11.6409 13.9311 11.6413 13.9451 11.6395 13.9589C11.6354 13.9724 11.637 13.9869 11.6356 14.0008C11.6358 14.0096 11.6316 14.0176 11.6322 14.0265C11.6311 14.0355 11.6307 14.0463 11.6232 14.0525C11.6159 14.0562 11.6053 14.0555 11.5995 14.0493ZM12.2579 13.8321C12.2472 13.8402 12.2376 13.8497 12.2281 13.8591C12.215 13.869 12.2389 13.8748 12.242 13.8833C12.2455 13.8963 12.2452 13.9102 12.2461 13.9235C12.2501 13.9357 12.2518 13.9488 12.251 13.9616C12.2498 13.9754 12.2318 13.9725 12.224 13.9803C12.2131 13.9849 12.2087 13.9956 12.2004 14.0032C12.1949 14.0139 12.1935 14.0271 12.1928 14.0392C12.1936 14.0491 12.1861 14.0603 12.1928 14.069C12.1936 14.0702 12.1947 14.0719 12.1955 14.0732C12.1978 14.0764 12.2031 14.0738 12.2066 14.0746C12.2178 14.0739 12.2294 14.0756 12.2399 14.0711C12.2667 14.0665 12.2938 14.0661 12.3209 14.0649C12.3376 14.0654 12.3535 14.0596 12.3701 14.06C12.3831 14.0629 12.389 14.0488 12.3888 14.0385C12.3815 14.024 12.3878 14.0069 12.3819 13.9921C12.3767 13.9772 12.3788 13.9605 12.3764 13.945C12.376 13.9328 12.3606 13.9283 12.3528 13.9374C12.3452 13.945 12.333 13.9466 12.3272 13.9561C12.3206 13.9694 12.3411 13.9695 12.3445 13.9796C12.3484 13.9899 12.3471 14.0014 12.348 14.0122C12.3505 14.0253 12.3362 14.0261 12.3272 14.0274C12.3153 14.0319 12.2986 14.0349 12.2918 14.0205C12.2876 14.0099 12.2882 13.9985 12.287 13.9873C12.2867 13.9675 12.282 13.9481 12.2808 13.9284C12.2796 13.9041 12.2754 13.8799 12.2738 13.8556C12.2736 13.8455 12.2723 13.8291 12.2579 13.8321ZM12.244 14.015L12.251 14.0157L12.2524 14.0323L12.2433 14.0351C12.2386 14.0365 12.2344 14.0372 12.2343 14.0371C12.2329 14.0363 12.2315 14.0354 12.2302 14.0344C12.2253 14.0309 12.2266 14.0258 12.233 14.0191C12.2366 14.0154 12.2383 14.0146 12.244 14.015ZM11.5797 13.8092C11.5713 13.8122 11.5606 13.8246 11.552 13.8245C11.5325 13.8259 11.5352 13.8449 11.5493 13.8515C11.5511 13.8573 11.5494 13.8645 11.55 13.8709C11.5527 13.8884 11.5416 13.9025 11.5437 13.9201C11.5427 13.9394 11.5369 13.9582 11.5361 13.9776C11.5306 13.9976 11.5306 14.0182 11.5271 14.0386C11.5248 14.0568 11.5116 14.0504 11.5001 14.0455C11.5 14.0376 11.4995 14.0298 11.4994 14.0219C11.5042 14.0038 11.4896 13.9985 11.4751 13.9963C11.4599 13.9977 11.4525 13.9847 11.4557 13.9714C11.4623 13.9636 11.4787 13.9657 11.489 13.9644C11.5107 13.9689 11.5099 13.9398 11.4987 13.9298C11.491 13.9157 11.4721 13.9096 11.4668 13.8952C11.4689 13.8759 11.4562 13.8567 11.4405 13.8474C11.4164 13.8457 11.3981 13.8665 11.3892 13.8868C11.3792 13.8897 11.3692 13.8927 11.3594 13.8965C11.3437 13.9005 11.3213 13.9277 11.3428 13.9381C11.3549 13.9414 11.3916 13.9498 11.3754 13.9665C11.3662 13.9822 11.3487 13.9825 11.3331 13.9783C11.3171 13.9783 11.2992 13.9705 11.2999 13.952C11.2966 13.9353 11.2971 13.9174 11.2895 13.9021C11.2862 13.8835 11.2651 13.8878 11.2638 13.9048C11.2476 13.9167 11.2497 13.9358 11.2611 13.9499C11.2681 13.966 11.2611 13.9849 11.2541 13.9998C11.2499 14.0192 11.2285 14.0198 11.2133 14.0261C11.2058 14.029 11.1772 14.0244 11.1876 14.0406C11.2043 14.0465 11.2243 14.0518 11.2417 14.0476C11.2599 14.0453 11.2757 14.0328 11.2846 14.0171C11.2969 14.0047 11.3179 14.0112 11.3338 14.0108C11.3509 14.0108 11.3684 14.0229 11.3851 14.015C11.3899 14.0025 11.4122 13.9818 11.419 14.0032C11.4178 14.0224 11.4347 14.0326 11.4523 14.0302C11.4714 14.0292 11.4643 14.0438 11.4641 14.0552C11.4653 14.0759 11.4787 14.0868 11.4959 14.0954C11.5018 14.0969 11.508 14.0964 11.5139 14.0954C11.5305 14.0902 11.5484 14.0828 11.5534 14.0642C11.5601 14.0491 11.5603 14.032 11.5652 14.0164C11.5691 13.9913 11.5742 13.9663 11.5749 13.9409C11.581 13.9179 11.5793 13.8935 11.5839 13.8702C11.5868 13.8529 11.589 13.8356 11.5908 13.8183C11.5888 13.809 11.5848 13.8074 11.5797 13.8092ZM11.4294 13.9014C11.4328 13.9018 11.4346 13.9059 11.435 13.9132C11.4353 13.9212 11.4395 13.9278 11.4447 13.9291C11.4487 13.9301 11.4483 13.9344 11.444 13.9374C11.4414 13.9392 11.4368 13.9402 11.4287 13.9402C11.4159 13.9401 11.408 13.9368 11.401 13.9298L11.3968 13.9256L11.4031 13.9215C11.4075 13.918 11.4116 13.9143 11.4156 13.9104C11.4219 13.9039 11.4261 13.901 11.4294 13.9014ZM12.8933 13.7268C12.8807 13.7273 12.8681 13.7294 12.8566 13.7323C12.8335 13.7309 12.8219 13.7551 12.8441 13.767C12.8574 13.801 12.8782 13.7599 12.8995 13.7628C12.9314 13.769 12.9341 13.8034 12.939 13.8293C12.9408 13.8549 12.9482 13.8799 12.9556 13.9041C12.977 13.9278 12.9396 13.9427 12.9238 13.9242C12.9102 13.9095 12.8812 13.8914 12.8649 13.9117C12.8448 13.9202 12.844 13.947 12.8275 13.9547C12.8007 13.9629 12.7973 13.9299 12.7831 13.9159C12.7701 13.8976 12.7452 13.896 12.7249 13.8896C12.7154 13.8703 12.7204 13.8376 12.7007 13.8245C12.6841 13.8312 12.6538 13.8622 12.6792 13.8764C12.704 13.8977 12.6684 13.9075 12.657 13.9221C12.6408 13.9402 12.6382 13.9651 12.6356 13.988C12.6076 14.0034 12.6022 13.9705 12.5988 13.9499C12.5967 13.9252 12.5759 13.9324 12.5614 13.9415C12.5403 13.9501 12.5298 13.9701 12.515 13.9859C12.5132 14.0002 12.5158 14.0159 12.5157 14.0309C12.5205 14.0489 12.5424 14.0404 12.5559 14.0392C12.5776 14.0301 12.5865 14.0531 12.569 14.0662C12.5573 14.0812 12.5198 14.0734 12.5233 14.0974C12.5354 14.0988 12.5479 14.0984 12.56 14.0974C12.5842 14.0908 12.6102 14.0738 12.6127 14.0468C12.6159 14.0234 12.6497 14.0277 12.6681 14.0226C12.6912 14.0159 12.719 14.0142 12.7242 14.0434C12.74 14.0599 12.7741 14.0785 12.7914 14.0558C12.809 14.0451 12.8175 14.0262 12.8164 14.006C12.8128 13.9886 12.8445 13.9879 12.8524 13.9976C12.864 14.0167 12.9001 14.0111 12.9175 14.0004C12.9361 13.9867 12.9401 13.9626 12.9667 13.9623C13.0062 13.9505 13.0473 13.9437 13.0859 13.9291C13.1171 13.9223 13.0812 13.9025 13.0734 13.891C13.0496 13.8792 13.0289 13.9274 13.002 13.9034C12.9813 13.8876 12.9827 13.8574 12.975 13.8341C12.9698 13.8041 12.9711 13.7694 12.9494 13.7455C12.9345 13.7296 12.9142 13.7258 12.8933 13.7268ZM12.7422 13.9367C12.745 13.9366 12.7482 13.938 12.7533 13.9408C12.763 13.9462 12.77 13.9551 12.77 13.9623C12.7699 13.967 12.7688 13.9674 12.7616 13.9706C12.7573 13.9726 12.7523 13.9748 12.7506 13.9748C12.7465 13.9747 12.7367 13.9669 12.7367 13.9637C12.7367 13.9624 12.7354 13.9574 12.7339 13.9533C12.7313 13.9462 12.7317 13.9463 12.7353 13.9415C12.7376 13.9385 12.7395 13.9368 12.7422 13.9367ZM12.887 13.9443C12.8953 13.9438 12.9002 13.9463 12.9037 13.9526C12.9077 13.9599 12.905 13.9655 12.8947 13.9699C12.8901 13.9719 12.8856 13.9735 12.885 13.9734C12.8843 13.9733 12.8806 13.9711 12.8766 13.9686C12.8707 13.9646 12.8698 13.9627 12.8697 13.9582C12.8697 13.9512 12.8775 13.9449 12.887 13.9443ZM12.6889 13.9464C12.6913 13.946 12.6935 13.9473 12.6965 13.9498C12.7005 13.9533 12.7018 13.956 12.7028 13.963C12.7034 13.9679 12.7033 13.9741 12.7028 13.9769C12.7017 13.9819 12.7016 13.9817 12.6903 13.9817C12.6761 13.9819 12.6748 13.9803 12.675 13.9672C12.6752 13.9588 12.6753 13.9566 12.6799 13.9519C12.6835 13.9483 12.6865 13.9468 12.6889 13.9464ZM12.567 13.9783C12.5714 13.9793 12.5756 13.9826 12.5767 13.988C12.5781 13.995 12.5768 13.9982 12.5711 14.0011C12.5662 14.0036 12.5549 14.0045 12.5517 14.0025C12.5507 14.0019 12.5486 14.0002 12.5476 13.9983C12.5461 13.9957 12.5463 13.9944 12.5483 13.9928C12.5496 13.9917 12.551 13.9901 12.551 13.9893C12.551 13.9885 12.5525 13.9857 12.5545 13.9831C12.5577 13.9788 12.5626 13.9772 12.567 13.9783ZM12.772 14.0046C12.776 14.0046 12.7793 14.0059 12.7817 14.008C12.7858 14.0116 12.7857 14.0169 12.781 14.0205C12.778 14.0228 12.7617 14.0226 12.7561 14.0205C12.7536 14.0196 12.7526 14.0183 12.7526 14.0157C12.7526 14.0125 12.7535 14.0106 12.7589 14.008C12.7634 14.0059 12.7681 14.0046 12.772 14.0046ZM12.3914 14.1114C12.3892 14.11 12.3861 14.1088 12.3893 14.1065C12.3931 14.0998 12.4007 14.0975 12.4075 14.095C12.4197 14.0897 12.4302 14.0808 12.438 14.0702C12.4391 14.0628 12.4474 14.0588 12.4473 14.0511C12.4474 14.0405 12.448 14.0298 12.4455 14.0195C12.4426 14.01 12.4355 14.0028 12.4271 13.9979C12.4215 13.9934 12.4122 13.9922 12.4101 13.9843C12.4089 13.9767 12.4157 13.9709 12.4181 13.9641C12.423 13.9547 12.4272 13.945 12.4325 13.9358C12.4383 13.9295 12.4471 13.9355 12.4501 13.9416C12.4543 13.9478 12.458 13.9544 12.4601 13.9615C12.4668 13.9689 12.4727 13.9775 12.4752 13.9873C12.4784 13.9942 12.4836 14.0007 12.4833 14.0087C12.4833 14.018 12.4886 14.0262 12.4882 14.0355C12.4885 14.0479 12.4885 14.0608 12.484 14.0726C12.4809 14.0791 12.4747 14.083 12.4705 14.0888C12.4635 14.0954 12.4557 14.1017 12.4466 14.1051C12.4402 14.1072 12.4365 14.1146 12.4284 14.1128C12.417 14.113 12.4054 14.1145 12.3941 14.1127C12.3948 14.1139 12.3907 14.1106 12.3914 14.1114ZM12.2395 14.1214C12.2341 14.1159 12.233 14.1135 12.2329 14.1081C12.2328 14.1026 12.2339 14.1004 12.2392 14.0951C12.2489 14.0853 12.2536 14.085 12.2704 14.0935C12.2864 14.1016 12.2918 14.1024 12.2933 14.0966C12.2947 14.0911 12.3039 14.086 12.3127 14.086C12.3182 14.0859 12.3213 14.087 12.3258 14.0905C12.3314 14.0948 12.3316 14.0955 12.3318 14.1055C12.3319 14.1158 12.3317 14.1162 12.3253 14.1219C12.3192 14.1273 12.3182 14.1276 12.3106 14.1268C12.3009 14.1259 12.2951 14.1214 12.2935 14.1138C12.2923 14.1083 12.2904 14.1069 12.2889 14.1107C12.2885 14.1119 12.2861 14.1134 12.2836 14.114C12.2791 14.1152 12.2715 14.12 12.266 14.1251C12.264 14.127 12.2604 14.128 12.2545 14.128C12.2467 14.1281 12.2456 14.1276 12.2395 14.1214ZM11.8001 13.9241C11.7854 13.9242 11.7695 13.9366 11.7675 13.9511C11.7709 13.9678 11.7848 13.9841 11.7759 14.0017C11.782 14.0241 11.759 14.0326 11.7433 14.0197C11.7338 13.9982 11.729 13.9746 11.7149 13.9553C11.6971 13.9502 11.6893 13.9787 11.6768 13.9885C11.683 14.0053 11.7011 14.0203 11.7031 14.0412C11.7074 14.0614 11.6951 14.084 11.6775 14.0945C11.6623 14.109 11.6414 14.1038 11.6228 14.107C11.6 14.1202 11.6394 14.1251 11.6498 14.1257C11.673 14.128 11.6971 14.125 11.7142 14.1077C11.7312 14.0995 11.7299 14.07 11.7502 14.0668C11.7854 14.0652 11.8203 14.0722 11.8555 14.073C11.8744 14.0775 11.9035 14.0708 11.9165 14.0848C11.9165 14.1094 11.9373 14.1245 11.9574 14.134C11.9684 14.1371 11.9801 14.1234 11.9913 14.1208C12.0127 14.114 12.0062 14.0875 12.019 14.0772C12.0556 14.0752 12.0925 14.0756 12.1292 14.0751C12.1362 14.0753 12.1382 14.0654 12.143 14.0613C12.1422 14.0471 12.1417 14.033 12.1396 14.019C12.1325 14.0011 12.1407 13.9781 12.1278 13.9629C12.1094 13.9579 12.0937 13.9747 12.0751 13.976C12.0546 13.9852 12.0373 14.0041 12.0363 14.0273C12.0242 14.0472 12.0047 14.0238 12.0114 14.0072C12.0106 14 12.013 13.9916 12.0107 13.985C11.9995 13.9716 11.9798 13.976 11.9643 13.974C11.9417 13.9749 11.9197 13.97 11.8971 13.9705C11.8773 13.969 11.8567 13.9722 11.8375 13.967C11.8146 13.9664 11.8178 13.944 11.814 13.9282C11.8099 13.9252 11.805 13.924 11.8001 13.9241ZM11.8444 14.0058C11.852 14.006 11.8592 14.007 11.8666 14.0079C11.8762 14.0095 11.8863 14.0046 11.8957 14.0079C11.9174 14.0116 11.939 14.0107 11.9608 14.0128C11.9666 14.0127 11.9707 14.0168 11.9747 14.0204C11.9747 14.0355 11.9747 14.0509 11.9747 14.0661C11.974 14.0718 11.9764 14.0794 11.9712 14.0834C11.9696 14.0846 11.9677 14.0858 11.9657 14.0862C11.9597 14.0846 11.9533 14.0807 11.9504 14.0751C11.9495 14.0672 11.9508 14.0595 11.9511 14.0516C11.951 14.0495 11.952 14.0463 11.9511 14.0446C11.9464 14.0413 11.9411 14.0391 11.9352 14.0391C11.9164 14.0384 11.8979 14.037 11.8791 14.0363C11.8634 14.0353 11.8473 14.0377 11.832 14.0335C11.826 14.0314 11.8183 14.0321 11.8147 14.0259C11.8095 14.0199 11.817 14.0127 11.8223 14.01C11.8293 14.0068 11.8368 14.0057 11.8444 14.0058ZM12.0945 14.0114C12.0981 14.0113 12.0992 14.0125 12.1008 14.019C12.1018 14.0232 12.103 14.0282 12.1035 14.0301C12.1043 14.0327 12.1031 14.0335 12.0994 14.0349C12.0884 14.0391 12.0775 14.0386 12.0738 14.0335C12.072 14.0312 12.074 14.0239 12.0772 14.0211C12.0836 14.0153 12.0907 14.0114 12.0945 14.0114Z" fill="#C09300"/>
<path fill-rule="evenodd" clip-rule="evenodd" d="M12.0028 11.1745L12.0121 11.1867C12.0314 11.2119 12.0676 11.2369 12.1153 11.2603C12.1627 11.2836 12.2199 11.3045 12.2795 11.3221C12.3989 11.3574 12.526 11.3788 12.6003 11.3788C12.6185 11.3788 12.6358 11.377 12.6541 11.3733L12.6682 11.3705L12.6693 11.3849L12.6566 11.3858C12.6693 11.3849 12.6693 11.3849 12.6693 11.3849L12.6694 11.3856C12.6694 11.386 12.6694 11.3866 12.6695 11.3874C12.6696 11.389 12.6697 11.3914 12.6698 11.3946C12.6701 11.4008 12.6704 11.41 12.6706 11.4218C12.6709 11.4455 12.6705 11.4798 12.6677 11.5228C12.6622 11.6086 12.6472 11.7288 12.6095 11.8664C12.534 12.1419 12.3673 12.4875 12.0028 12.7679L11.9993 12.7705H11.9906L11.9872 12.7679C11.6227 12.4875 11.4562 12.1419 11.381 11.8664C11.3434 11.7287 11.3285 11.6086 11.3231 11.5227C11.3204 11.4798 11.32 11.4455 11.3203 11.4218C11.3204 11.41 11.3208 11.4008 11.3211 11.3945C11.3212 11.3914 11.3214 11.389 11.3215 11.3874C11.3215 11.3866 11.3215 11.386 11.3216 11.3855L11.3216 11.3849C11.3216 11.3849 11.3216 11.3849 11.3343 11.3858L11.3216 11.3849L11.3227 11.3704L11.337 11.3734C11.3542 11.377 11.3724 11.3788 11.3907 11.3788C11.4643 11.3788 11.5931 11.3549 11.7153 11.3182C11.7762 11.2999 11.8351 11.2786 11.8841 11.2558C11.9335 11.2328 11.9717 11.2089 11.9925 11.1859L12.0028 11.1745ZM11.3463 11.401C11.3461 11.4065 11.3459 11.4136 11.3458 11.4221C11.3455 11.4452 11.3458 11.4789 11.3485 11.5211C11.3539 11.6056 11.3685 11.724 11.4056 11.8597C11.4792 12.1291 11.6412 12.4665 11.995 12.7416C12.3487 12.4665 12.511 12.1291 12.5849 11.8597C12.6221 11.724 12.6368 11.6056 12.6423 11.5211C12.645 11.4789 12.6454 11.4452 12.6451 11.4221C12.645 11.4136 12.6448 11.4064 12.6446 11.4009C12.6299 11.4032 12.6153 11.4043 12.6003 11.4043C12.5227 11.4043 12.3929 11.3823 12.2722 11.3466C12.2118 11.3287 12.1531 11.3073 12.1041 11.2832C12.0615 11.2623 12.025 11.2389 12.0012 11.2132C11.9761 11.2364 11.9386 11.2586 11.8949 11.2789C11.8444 11.3024 11.7843 11.3241 11.7226 11.3426C11.5995 11.3796 11.4679 11.4043 11.3907 11.4043C11.3758 11.4043 11.3609 11.4032 11.3463 11.401Z" fill="#C09300"/>
<path fill-rule="evenodd" clip-rule="evenodd" d="M12.0002 11.2567L12.0064 11.262C12.0662 11.3134 12.175 11.357 12.2872 11.3878C12.3992 11.4186 12.5125 11.436 12.5801 11.436C12.5862 11.436 12.5922 11.4358 12.5983 11.4354L12.609 11.4347L12.609 11.4455C12.6091 11.4681 12.6074 11.5056 12.6057 11.536C12.5985 11.6454 12.5792 11.7552 12.5501 11.8607C12.4582 12.1932 12.2704 12.476 12.0012 12.6903L11.9949 12.6954L11.9886 12.6903C11.7196 12.4761 11.532 12.1937 11.4404 11.8614C11.4113 11.7558 11.3921 11.6461 11.3849 11.5367C11.383 11.5076 11.3813 11.4753 11.3816 11.4441L11.3818 11.432L11.3936 11.4342C11.3995 11.4353 11.4051 11.436 11.4106 11.436C11.477 11.436 11.591 11.4166 11.7049 11.3848C11.8189 11.353 11.9308 11.3093 11.9937 11.2616L12.0002 11.2567ZM11.7103 11.4044C11.5957 11.4363 11.4796 11.4563 11.4106 11.4563C11.4077 11.4563 11.4048 11.4561 11.4019 11.4559C11.402 11.4827 11.4035 11.5101 11.4051 11.5354C11.4122 11.6433 11.4312 11.7517 11.4599 11.856C11.5497 12.1815 11.7327 12.4585 11.9949 12.6694C12.2573 12.4583 12.4405 12.1811 12.5305 11.8553C12.5593 11.751 12.5783 11.6427 12.5855 11.5348C12.5869 11.5089 12.5883 11.4782 12.5887 11.4562C12.5858 11.4562 12.583 11.4563 12.5801 11.4563C12.5101 11.4563 12.3948 11.4384 12.2819 11.4074C12.1728 11.3775 12.0638 11.3347 11.9994 11.2826C11.9324 11.3308 11.8211 11.3734 11.7103 11.4044Z" fill="#C09300"/>
<path d="M12.1183 13.6679C12.1154 13.6609 12.1147 13.6537 12.1156 13.6465L12.1158 13.6452C12.1153 13.6443 12.1149 13.6435 12.1147 13.6427C12.1139 13.6404 12.1132 13.6355 12.1205 13.6248C12.1235 13.6205 12.1238 13.6149 12.1214 13.6102C12.119 13.6056 12.1142 13.6027 12.1089 13.6027L12.1048 13.6028C12.1012 13.6075 12.0981 13.6124 12.0955 13.6176C12.0998 13.6171 12.1042 13.6168 12.1089 13.6168C12.0915 13.6421 12.1027 13.6548 12.1183 13.6679Z" fill="#C09300"/>
<path d="M12.5528 13.7261C12.5482 13.7186 12.5447 13.7099 12.5433 13.6989L12.5293 13.7006C12.5307 13.7111 12.5336 13.7201 12.5377 13.728L12.5528 13.7261Z" fill="#C09300"/>
<path fill-rule="evenodd" clip-rule="evenodd" d="M12.0403 13.6303C12.0556 13.6136 12.0772 13.6037 12.1048 13.6028C12.1012 13.6075 12.0981 13.6124 12.0955 13.6176C12.0998 13.6171 12.1042 13.6168 12.1089 13.6168C12.0915 13.6421 12.1027 13.6548 12.1183 13.6679C12.1154 13.6609 12.1147 13.6537 12.1156 13.6465L12.1158 13.6452C12.1177 13.6484 12.1212 13.6521 12.1275 13.6573L12.132 13.6609C12.1431 13.6699 12.1588 13.6825 12.1654 13.7024C12.158 13.7002 12.1517 13.6977 12.1463 13.695C12.1511 13.7023 12.1544 13.711 12.1543 13.7219C12.1543 13.724 12.154 13.7261 12.1534 13.7281C12.1566 13.7292 12.16 13.7301 12.1635 13.731L12.1498 13.7563L12.1237 13.7758L12.1179 13.7799C12.1068 13.7876 12.0969 13.795 12.0898 13.8031C12.0829 13.811 12.0794 13.8185 12.0794 13.8267C12.0794 13.8328 12.0755 13.8382 12.0697 13.8401C12.0639 13.842 12.0575 13.84 12.0539 13.835C12.0266 13.7974 12.0102 13.7415 12.0147 13.6942C12.0169 13.6704 12.0246 13.6474 12.0403 13.6303ZM12.5377 13.728C12.43 13.7411 12.2872 13.7484 12.1878 13.7357C12.1791 13.7345 12.171 13.733 12.1635 13.731L12.1684 13.7219C12.1684 13.7147 12.1673 13.7082 12.1654 13.7024C12.1729 13.7046 12.1816 13.7065 12.1914 13.7078C12.2864 13.7199 12.4239 13.7132 12.5293 13.7006C12.5307 13.7111 12.5336 13.7201 12.5377 13.728ZM12.5377 13.728L12.5528 13.7261C12.5482 13.7186 12.5447 13.7099 12.5433 13.6989L12.5293 13.7006C12.5287 13.6963 12.5284 13.6917 12.5284 13.6868C12.5284 13.6673 12.5337 13.6428 12.5439 13.6228C12.5537 13.6034 12.5709 13.5837 12.5965 13.5837C12.6186 13.5837 12.6395 13.5946 12.6546 13.6097C12.6693 13.6244 12.68 13.6446 12.6806 13.6661C12.6847 13.6854 12.6832 13.7015 12.678 13.7157C12.6729 13.7299 12.6644 13.7414 12.6566 13.7516L12.6539 13.7551C12.639 13.7742 12.6265 13.7904 12.6265 13.8181C12.6265 13.8259 12.6202 13.8322 12.6124 13.8322C12.6046 13.8322 12.5983 13.8259 12.5983 13.8181C12.5983 13.8032 12.5947 13.7934 12.5897 13.7856C12.5843 13.7774 12.5771 13.7709 12.5682 13.7631L12.5676 13.7626C12.5592 13.7552 12.5492 13.7465 12.5416 13.7347C12.5402 13.7325 12.5389 13.7303 12.5377 13.728ZM12.1728 13.5959C12.1445 13.5964 12.1199 13.6199 12.1158 13.6452C12.1153 13.6443 12.1149 13.6435 12.1147 13.6427C12.1139 13.6404 12.1132 13.6355 12.1205 13.6248C12.1235 13.6205 12.1238 13.6149 12.1214 13.6102C12.119 13.6056 12.1142 13.6027 12.1089 13.6027L12.1048 13.6028C12.1207 13.5822 12.1457 13.5677 12.1736 13.5677L12.1755 13.5678C12.2943 13.5835 12.4519 13.5678 12.5951 13.5487L12.5967 13.5627L12.5826 13.5627C12.5826 13.5668 12.5843 13.5706 12.5874 13.5733C12.5904 13.5759 12.5943 13.5771 12.5981 13.5767C12.4556 13.5957 12.2955 13.6118 12.1728 13.5959ZM12.1728 13.5959C12.1731 13.5959 12.1734 13.5959 12.1736 13.5959V13.5818L12.1718 13.5958L12.1728 13.5959ZM12.5981 13.5767L12.5967 13.5627L12.6107 13.5627C12.6107 13.5587 12.609 13.5548 12.6059 13.5521C12.603 13.5495 12.599 13.5483 12.5951 13.5487C12.734 13.5298 12.8729 13.495 12.9803 13.4603C12.9807 13.4602 12.9811 13.4601 12.9815 13.46C13.0029 13.4551 13.025 13.4596 13.0436 13.4693C13.0547 13.475 13.0649 13.4828 13.0732 13.4921C13.0616 13.4903 13.0489 13.4905 13.0354 13.4929C13.0371 13.4954 13.0387 13.4978 13.0401 13.5C13.0371 13.4979 13.0339 13.496 13.0306 13.4942C13.0169 13.4871 13.0018 13.4844 12.9883 13.4873C12.8796 13.5224 12.7387 13.5576 12.5981 13.5767ZM12.0427 13.6969C12.0398 13.7276 12.0475 13.7636 12.0618 13.7934C12.0639 13.7902 12.0662 13.7873 12.0687 13.7845C12.0782 13.7736 12.0906 13.7645 12.1018 13.7568L12.1084 13.7522C12.1173 13.746 12.125 13.7408 12.131 13.7354C12.1387 13.7285 12.1403 13.7243 12.1403 13.7218C12.1403 13.7055 12.1306 13.6964 12.1167 13.6849L12.1138 13.6825L12.1095 13.6789C12.1018 13.6725 12.0919 13.6638 12.0879 13.6515C12.086 13.6457 12.0856 13.6398 12.0865 13.6338C12.0769 13.6365 12.0694 13.6411 12.0635 13.6468L12.0611 13.6493C12.0508 13.6605 12.0446 13.677 12.0427 13.6969ZM12.5689 13.6356C12.5609 13.6514 12.5566 13.6714 12.5566 13.6868C12.5566 13.7017 12.5602 13.7116 12.5652 13.7194C12.5706 13.7276 12.5778 13.7341 12.5867 13.7419L12.5873 13.7424C12.5949 13.7491 12.6039 13.757 12.6112 13.7673C12.6173 13.7562 12.6245 13.7469 12.6311 13.7385L12.6343 13.7344C12.642 13.7244 12.648 13.7158 12.6515 13.7061C12.6549 13.6969 12.6562 13.6858 12.6528 13.6708C12.6525 13.6698 12.6524 13.6688 12.6524 13.6677C12.6524 13.6548 12.6458 13.6407 12.6347 13.6296C12.6235 13.6184 12.6094 13.6118 12.5965 13.6118C12.5872 13.6118 12.5773 13.6192 12.5689 13.6356Z" fill="#C09300"/>
<path d="M12.1543 13.7219C12.1543 13.724 12.154 13.7261 12.1534 13.7281C12.1566 13.7292 12.16 13.7301 12.1635 13.731L12.1684 13.7219C12.1684 13.7147 12.1673 13.7082 12.1654 13.7024C12.158 13.7002 12.1517 13.6977 12.1463 13.695C12.1511 13.7023 12.1544 13.711 12.1543 13.7219Z" fill="#C09300"/>
<path d="M11.8375 13.7282C11.8368 13.7261 11.8365 13.724 11.8365 13.7219C11.8365 13.7111 11.8396 13.7025 11.8445 13.6952C11.839 13.6979 11.8327 13.7003 11.8254 13.7025C11.8235 13.7083 11.8224 13.7147 11.8224 13.7219C11.8224 13.7254 11.8229 13.7288 11.8239 13.732C11.8286 13.7308 11.8332 13.7296 11.8375 13.7282Z" fill="#C09300"/>
<path d="M11.3249 13.7073C11.3223 13.6988 11.3213 13.6893 11.3226 13.6782L11.3087 13.6757C11.3074 13.6862 11.3078 13.6957 11.3097 13.7045L11.3249 13.7073Z" fill="#C09300"/>
<path d="M11.4476 13.6989C11.4462 13.7099 11.4427 13.7186 11.4381 13.726L11.4532 13.7279C11.4573 13.72 11.4602 13.7111 11.4616 13.7006L11.4476 13.6989Z" fill="#C09300"/>
<path d="M10.9507 13.5003C10.9537 13.498 10.957 13.496 10.9605 13.4942C10.9634 13.4927 10.9663 13.4914 10.9693 13.4903C10.9684 13.4852 10.9647 13.481 10.9596 13.4794C10.9589 13.4792 10.9582 13.4791 10.9575 13.4789C10.9498 13.4776 10.9423 13.4769 10.935 13.4768C10.9288 13.4813 10.923 13.4864 10.9178 13.492C10.9295 13.4903 10.942 13.4905 10.9555 13.4929C10.9537 13.4955 10.9521 13.4979 10.9507 13.5003Z" fill="#C09300"/>
<path fill-rule="evenodd" clip-rule="evenodd" d="M11.0027 13.4873C10.9921 13.485 10.9805 13.4862 10.9693 13.4903C10.9684 13.4852 10.9647 13.481 10.9596 13.4794C10.9589 13.4792 10.9582 13.4791 10.9575 13.4789C10.9498 13.4776 10.9423 13.4769 10.935 13.4768C10.939 13.474 10.9432 13.4715 10.9475 13.4693C10.966 13.4596 10.9881 13.4551 11.0095 13.46C11.0099 13.4601 11.0103 13.4602 11.0107 13.4603C11.1181 13.495 11.2574 13.5298 11.3963 13.5488C11.5395 13.5679 11.6968 13.5835 11.8188 13.5678L11.8206 13.5677C11.8477 13.5677 11.8719 13.5823 11.8873 13.6028L11.8819 13.6027C11.8767 13.6027 11.8719 13.6056 11.8695 13.6102C11.867 13.6149 11.8674 13.6205 11.8703 13.6248C11.8776 13.6354 11.8769 13.6404 11.8762 13.6427L11.8755 13.6443C11.8714 13.6191 11.8476 13.5964 11.8215 13.5959C11.6956 13.6118 11.5351 13.5957 11.3925 13.5767C11.2519 13.5575 11.1114 13.5224 11.0027 13.4873ZM11.8254 13.7025C11.8319 13.6825 11.8477 13.6699 11.8589 13.6609L11.8633 13.6573C11.8702 13.6515 11.8738 13.6477 11.8755 13.6443L11.8758 13.6463C11.8766 13.6534 11.8759 13.6606 11.8731 13.6675C11.8884 13.6546 11.8991 13.6418 11.8819 13.6168C11.887 13.6168 11.8918 13.6171 11.8963 13.6178C11.8938 13.6125 11.8908 13.6075 11.8873 13.6028C11.9143 13.604 11.9355 13.6138 11.9505 13.6303C11.9662 13.6474 11.9739 13.6704 11.9761 13.6942C11.9806 13.7415 11.9642 13.7974 11.9369 13.835C11.9333 13.84 11.9269 13.842 11.9211 13.8401C11.9153 13.8382 11.9114 13.8328 11.9114 13.8267C11.9114 13.8185 11.9079 13.811 11.901 13.8031C11.8939 13.795 11.884 13.7876 11.8729 13.7799L11.8671 13.7758C11.8581 13.7697 11.8485 13.7631 11.841 13.7563C11.8341 13.7501 11.8269 13.7421 11.8239 13.732C11.8286 13.7308 11.8332 13.7296 11.8375 13.7282C11.8368 13.7261 11.8365 13.724 11.8365 13.7219C11.8365 13.7111 11.8396 13.7025 11.8445 13.6952C11.839 13.6979 11.8327 13.7003 11.8254 13.7025ZM11.4616 13.7006C11.567 13.7132 11.7047 13.7199 11.7997 13.7078C11.8094 13.7065 11.8179 13.7047 11.8254 13.7025C11.8235 13.7083 11.8224 13.7147 11.8224 13.7219C11.8224 13.7254 11.8229 13.7288 11.8239 13.732C11.8174 13.7335 11.8105 13.7347 11.8033 13.7357C11.7038 13.7484 11.561 13.7411 11.4532 13.7279C11.4573 13.72 11.4602 13.7111 11.4616 13.7006ZM11.3087 13.6757C11.2103 13.6575 11.0722 13.6305 10.9762 13.6034C10.9671 13.5995 10.9596 13.5953 10.9532 13.591C10.9557 13.5813 10.9566 13.5731 10.9566 13.5657C10.9565 13.5578 10.9554 13.5509 10.9545 13.5456L10.9539 13.542C10.953 13.5363 10.9528 13.5319 10.9541 13.5264C10.9555 13.5207 10.9589 13.5128 10.9669 13.5011C10.9686 13.4987 10.9695 13.4959 10.9695 13.4929C10.9695 13.492 10.9695 13.4912 10.9693 13.4903C10.9663 13.4914 10.9634 13.4927 10.9605 13.4942C10.957 13.496 10.9537 13.498 10.9507 13.5003C10.9521 13.4979 10.9537 13.4955 10.9555 13.4929C10.942 13.4905 10.9295 13.4903 10.9178 13.492C10.923 13.4864 10.9288 13.4813 10.935 13.4768C10.8857 13.4763 10.8488 13.5036 10.8276 13.5398C10.8038 13.5805 10.7989 13.6341 10.8189 13.674C10.8213 13.6789 10.8263 13.6819 10.8317 13.6818C10.8372 13.6817 10.8421 13.6785 10.8443 13.6735C10.8465 13.6686 10.8513 13.6639 10.8594 13.6591C10.8677 13.6543 10.8777 13.6503 10.8891 13.6459L10.8896 13.6456C10.9004 13.6414 10.9124 13.6367 10.9227 13.6307C10.9291 13.6269 10.9354 13.6223 10.9407 13.6165C10.9481 13.6212 10.9565 13.6256 10.9658 13.6296L10.9676 13.6303C11.0669 13.6583 11.2104 13.6863 11.3097 13.7045C11.3105 13.7084 11.3116 13.7121 11.3129 13.7157C11.318 13.7299 11.3265 13.7414 11.3343 13.7515L11.337 13.7551C11.3518 13.7742 11.3644 13.7904 11.3644 13.8181C11.3644 13.8259 11.3707 13.8322 11.3785 13.8322C11.3862 13.8322 11.3925 13.8259 11.3925 13.8181C11.3925 13.8032 11.3962 13.7934 11.4012 13.7856C11.4065 13.7774 11.4137 13.7709 11.4227 13.7631L11.4232 13.7626C11.4316 13.7552 11.4416 13.7465 11.4493 13.7347C11.4507 13.7325 11.452 13.7303 11.4532 13.7279L11.4381 13.726C11.4427 13.7186 11.4462 13.7099 11.4476 13.6989L11.4616 13.7006C11.4622 13.6963 11.4625 13.6917 11.4625 13.6868C11.4625 13.6673 11.4572 13.6428 11.447 13.6228C11.4371 13.6034 11.42 13.5837 11.3944 13.5837C11.3723 13.5837 11.3514 13.5946 11.3363 13.6097C11.3216 13.6244 11.3108 13.6446 11.3103 13.6661C11.3096 13.6694 11.3091 13.6726 11.3087 13.6757ZM11.3087 13.6757L11.3226 13.6782C11.3213 13.6893 11.3223 13.6988 11.3249 13.7073L11.3097 13.7045C11.3078 13.6957 11.3074 13.6862 11.3087 13.6757ZM10.9321 13.505C10.8955 13.5056 10.8684 13.526 10.8519 13.554C10.8363 13.5807 10.8311 13.6131 10.8368 13.6403C10.8396 13.6383 10.8424 13.6365 10.8452 13.6348C10.8555 13.6288 10.8675 13.6241 10.8783 13.6199L10.8788 13.6197C10.8902 13.6152 10.9002 13.6112 10.9084 13.6064C10.9164 13.6018 10.921 13.5972 10.9234 13.5924C10.9275 13.5806 10.9285 13.5723 10.9284 13.5658C10.9284 13.5605 10.9277 13.5564 10.9269 13.5514L10.9261 13.5463C10.9249 13.5389 10.9242 13.5303 10.9267 13.5198C10.9279 13.5151 10.9296 13.5102 10.9321 13.505ZM11.4036 13.7424C11.3959 13.7491 11.3869 13.757 11.3796 13.7673C11.3736 13.7562 11.3663 13.7469 11.3598 13.7385L11.3566 13.7344C11.3489 13.7244 11.3428 13.7158 11.3393 13.7061C11.336 13.6969 11.3347 13.6858 11.3381 13.6708C11.3383 13.6698 11.3384 13.6688 11.3384 13.6677C11.3384 13.6548 11.345 13.6407 11.3562 13.6296C11.3673 13.6184 11.3814 13.6118 11.3944 13.6118C11.4037 13.6118 11.4136 13.6192 11.422 13.6356C11.43 13.6514 11.4343 13.6714 11.4343 13.6868C11.4343 13.7017 11.4307 13.7116 11.4256 13.7194C11.4203 13.7276 11.4131 13.7341 11.4041 13.7419L11.4036 13.7424ZM11.9043 13.6338C11.9152 13.6369 11.9235 13.6424 11.9297 13.6493C11.94 13.6605 11.9462 13.677 11.9481 13.6969C11.951 13.7276 11.9433 13.7637 11.929 13.7934C11.9269 13.7902 11.9246 13.7873 11.9221 13.7845C11.9126 13.7736 11.9002 13.7645 11.889 13.7568L11.8824 13.7522C11.8735 13.746 11.8658 13.7408 11.8598 13.7354C11.8521 13.7285 11.8505 13.7243 11.8505 13.7219C11.8505 13.7043 11.8616 13.6953 11.877 13.6825L11.8813 13.6789C11.889 13.6725 11.8989 13.6638 11.9029 13.6515C11.9048 13.6457 11.9053 13.6398 11.9043 13.6338Z" fill="#C09300"/>
<path d="M11.8758 13.6463C11.8766 13.6534 11.8759 13.6606 11.8731 13.6675C11.8884 13.6546 11.8991 13.6418 11.8819 13.6168C11.887 13.6168 11.8918 13.6171 11.8963 13.6178C11.8938 13.6125 11.8908 13.6075 11.8873 13.6028L11.8819 13.6027C11.8767 13.6027 11.8719 13.6056 11.8695 13.6102C11.867 13.6149 11.8674 13.6205 11.8703 13.6248C11.8776 13.6354 11.8769 13.6404 11.8762 13.6427L11.8755 13.6443L11.8758 13.6463Z" fill="#C09300"/>
</g>
<defs>
<clipPath id="clip0_1692_54092">
<rect x="2.02344" y="5.50342" width="19.9495" height="13.2997" rx="1" fill="white"/>
</clipPath>
</defs>
</svg>
