<svg width="24" height="25" viewBox="0 0 24 25" fill="none" xmlns="http://www.w3.org/2000/svg">
<g clip-path="url(#clip0_1692_54053)">
<path fill-rule="evenodd" clip-rule="evenodd" d="M2.02539 5.50342V18.8031H21.9749V5.50342H2.02539Z" fill="#3C8BDC"/>
<path d="M2.02539 5.50342H21.9749V12.1533H2.02539V5.50342Z" fill="#0BAC24"/>
<path d="M2.02539 5.50342V18.8031L21.9749 12.1533L2.02539 5.50342Z" fill="#EB0433"/>
<path d="M5.60272 9.41654C5.5666 9.41707 5.52125 9.42296 5.46906 9.4356C5.29608 9.47751 5.13317 9.63942 5.0263 9.83166C4.99348 9.87213 4.90347 9.90838 4.86165 9.91324C4.85767 9.88792 4.87193 9.81647 4.89906 9.76239C4.92206 9.71658 5.01856 9.6225 5.12804 9.54238L5.23628 9.46317L5.0955 9.47876C4.82175 9.509 4.58862 9.66474 4.4768 9.89359C4.44778 9.95298 4.41726 10.0672 4.40402 10.1642C4.39181 10.2537 4.37838 10.3134 4.36411 10.3456C4.35647 10.3628 4.35164 10.3659 4.35164 10.3659C4.35028 10.3658 4.33703 10.3525 4.32183 10.3064C4.29831 10.2352 4.30717 10.1561 4.36145 10.0011C4.38139 9.94417 4.40144 9.87622 4.36564 9.87622C4.35003 9.87622 4.2978 9.90755 4.24545 9.94253C4.05467 10.07 3.93907 10.3143 3.9234 10.6148C3.91586 10.7594 3.92059 10.8211 3.94665 10.8834C3.97603 10.9536 3.98168 11.024 3.97188 11.0424C3.90877 11.0155 3.83572 10.705 3.86855 10.539L3.89826 10.3885L3.80301 10.4798C3.71637 10.5628 3.63527 10.7002 3.58664 10.8447C3.55043 10.9523 3.54445 11.0077 3.55179 11.1645C3.55962 11.3317 3.56972 11.3735 3.63564 11.5105C3.67644 11.5954 3.74485 11.7031 3.78811 11.75C3.85619 11.8239 3.87091 11.8799 3.85117 11.8966C3.80702 11.8796 3.66081 11.7268 3.61667 11.6416C3.59264 11.5951 3.55847 11.5054 3.54088 11.4423L3.49434 11.2752L3.44177 11.4216C3.41937 11.484 3.40243 11.6045 3.3962 11.7413C3.38778 11.9263 3.39276 11.9842 3.4277 12.0993C3.49959 12.336 3.68614 12.5727 3.90833 12.7099C3.99742 12.7649 4.03211 12.8025 4.03456 12.8319C4.02483 12.8312 4.00919 12.827 3.98003 12.8167C3.81388 12.7581 3.64684 12.6311 3.50558 12.4547L3.41173 12.3375L3.42446 12.4958C3.46699 13.0245 3.85962 13.4912 4.3621 13.6097C4.43172 13.6261 4.51035 13.6399 4.53931 13.6401C4.57653 13.6403 4.64386 13.6919 4.65589 13.719C4.6529 13.7195 4.65127 13.7201 4.64667 13.7204C4.57455 13.7256 4.37267 13.7018 4.21635 13.6651C4.12804 13.6443 3.99088 13.5973 3.91145 13.5606C3.84624 13.5305 3.79151 13.51 3.77369 13.5111C3.77068 13.5113 3.76324 13.5129 3.75885 13.5181C3.75107 13.5274 3.7548 13.5356 3.75752 13.5403C3.95911 13.8856 4.32461 14.1726 4.74036 14.3128C5.00084 14.4006 5.18463 14.4259 5.61461 14.4339C5.84515 14.4382 6.04219 14.4416 6.05863 14.4415C6.0479 14.4519 6.03016 14.4646 6.0019 14.4807C5.96079 14.5042 5.87256 14.5646 5.8054 14.6151L5.67037 14.7166L5.72213 14.7866C5.74436 14.8166 5.76041 14.8488 5.80274 14.8296C5.83469 14.8151 5.88566 14.7696 5.99534 14.6764C6.05833 14.6229 6.11126 14.5868 6.11962 14.5828C6.12286 14.6081 6.10853 14.6747 6.07815 14.7356C6.06359 14.7648 6.05155 14.7934 6.05169 14.8045C6.05172 14.807 6.05189 14.8136 6.0586 14.8189C6.06659 14.8251 6.12212 14.8319 6.1834 14.8388L6.31564 14.8537L6.30366 14.74C6.2984 14.6901 6.30165 14.6249 6.31015 14.5956L6.31924 14.5642L6.47889 14.7155L6.48369 14.7201H6.48412C6.57024 14.8015 6.64801 14.8707 6.67224 14.8857C6.67501 14.8874 6.68021 14.8904 6.68601 14.8904C6.7031 14.8904 6.73333 14.8646 6.75755 14.8389L6.81266 14.7801L6.69858 14.6776C6.64215 14.6268 6.538 14.5507 6.46717 14.5082C6.42116 14.4807 6.39324 14.4633 6.37877 14.4518C6.37992 14.4515 6.38098 14.4511 6.38228 14.4508C6.40369 14.4455 6.62356 14.4366 6.86521 14.433C7.25747 14.4271 7.33008 14.4206 7.51824 14.3753C7.77755 14.3128 7.99157 14.2264 8.17127 14.1114C8.33254 14.0081 8.51052 13.8336 8.57607 13.7133L8.64764 13.5819L8.50495 13.6531C8.3859 13.7125 8.27693 13.7386 8.0844 13.7527C7.99837 13.7591 7.8861 13.7687 7.83483 13.7741C7.76262 13.7818 7.76069 13.7767 7.76069 13.7712C7.76069 13.7458 7.83563 13.7064 7.95746 13.6908C8.09704 13.673 8.29172 13.6009 8.41613 13.5211C8.70048 13.3386 8.91173 12.9546 8.91273 12.6183L8.91318 12.467L8.84889 12.5598C8.76177 12.6856 8.46158 12.9036 8.38395 12.9036C8.36381 12.9036 8.36322 12.8988 8.37333 12.8817C8.38298 12.8655 8.40246 12.8449 8.43263 12.8224C8.6572 12.6552 8.84395 12.4123 8.9239 12.1826C8.97642 12.0317 8.97526 11.6895 8.92238 11.5098L8.86905 11.3286L8.81976 11.4946C8.77375 11.6496 8.60975 11.925 8.5406 11.9778C8.53341 11.9833 8.5301 11.9844 8.52917 11.9844C8.51062 11.9854 8.52411 11.909 8.59708 11.8128C8.75288 11.6075 8.80892 11.4248 8.78868 11.1853C8.77417 11.0137 8.69275 10.8048 8.58019 10.6493L8.47799 10.5082L8.46302 10.7558C8.45147 10.9468 8.42192 11.0865 8.3919 11.1292C8.38562 11.1381 8.3819 11.139 8.3819 11.139C8.3819 11.139 8.38045 11.1387 8.37778 11.136C8.36057 11.1188 8.35939 11.0553 8.38752 10.8772C8.44134 10.5362 8.31458 10.2088 8.04644 9.99641C8.00711 9.96526 7.96928 9.93941 7.95473 9.93717C7.95168 9.9367 7.94376 9.93631 7.93781 9.9426C7.93338 9.94728 7.93263 9.95463 7.93258 9.95688C7.93221 9.97445 7.94586 10.0395 7.96454 10.1121C7.99924 10.247 8.00385 10.3672 7.9849 10.4055C7.98131 10.4127 7.97821 10.4133 7.97821 10.4133C7.97821 10.4133 7.97995 10.4142 7.97759 10.4119C7.96431 10.3984 7.94567 10.3488 7.92076 10.2503C7.89617 10.153 7.85444 10.0285 7.82762 9.97325C7.7337 9.77961 7.52592 9.60581 7.31868 9.54751C7.23476 9.5239 7.18985 9.51121 7.17391 9.51283C7.1682 9.51341 7.15664 9.51735 7.15501 9.52971C7.15277 9.54676 7.17741 9.56398 7.20596 9.5868C7.35685 9.70743 7.47779 9.87447 7.46238 9.91464C7.45873 9.92416 7.44995 9.92963 7.40828 9.92175C7.38358 9.91707 7.36582 9.91095 7.35005 9.90317C7.34809 9.89606 7.34525 9.88895 7.34151 9.8819C7.23555 9.68226 7.05608 9.52855 6.87859 9.48555C6.66982 9.43496 6.57006 9.49263 6.73592 9.56807C6.82129 9.60687 6.87608 9.66497 6.87608 9.71667C6.87608 9.74518 6.85719 9.73677 6.80156 9.68342C6.63696 9.52578 6.26881 9.47966 6.3688 9.62922C6.42294 9.71025 6.51351 9.75205 6.69527 9.77983C6.86894 9.8064 6.90963 9.82434 6.82072 9.83514C6.69421 9.85047 6.63869 9.84624 6.58372 9.81702C6.47631 9.7599 6.47077 9.79483 6.57076 9.89833C6.70163 10.0338 6.82536 10.0851 6.99134 10.0727C7.12935 10.0624 7.2206 10.041 7.27698 10.0138C7.30867 10.0149 7.33635 10.0255 7.39318 10.0515C7.46065 10.0824 7.49265 10.1106 7.49265 10.1184C7.49265 10.1267 7.48628 10.1328 7.31972 10.1258C7.21516 10.1214 7.1155 10.1103 7.09935 10.1031C7.08557 10.0969 7.07064 10.0897 7.05927 10.0959C7.03785 10.1076 7.05425 10.1349 7.07129 10.1679C7.11948 10.2611 7.24387 10.3716 7.36531 10.4314C7.46318 10.4796 7.50161 10.4862 7.68941 10.4869C7.88162 10.4877 7.89624 10.4917 7.93674 10.5297C7.96266 10.5541 7.9809 10.5864 7.9809 10.5998C7.9809 10.6142 7.98558 10.6174 7.88718 10.6072C7.78932 10.597 7.6346 10.5599 7.5573 10.5281C7.54907 10.5247 7.53588 10.5222 7.52701 10.5331C7.5209 10.5406 7.52148 10.5513 7.52285 10.5578C7.53325 10.6073 7.64651 10.7685 7.7302 10.8457C7.84172 10.9484 8.08106 11.0757 8.20144 11.0953C8.25167 11.1034 8.2636 11.1131 8.29506 11.1842C8.31631 11.2323 8.33247 11.2806 8.33247 11.292C8.33247 11.3033 8.30523 11.3066 8.29665 11.2927C8.28601 11.2755 8.23296 11.2615 8.18163 11.2538C8.07925 11.2384 7.98065 11.1925 7.89342 11.1191L7.83159 11.0671L7.80509 11.0862L7.84412 11.1851C7.92593 11.3927 7.947 11.4339 8.03202 11.5531C8.12231 11.6796 8.28126 11.8349 8.38239 11.8946C8.42369 11.919 8.43008 11.9303 8.42983 11.9919C8.42968 12.0301 8.4256 12.0587 8.41882 12.078C8.41036 12.1021 8.40285 12.1043 8.39145 12.0962C8.3763 12.0853 8.31233 12.0402 8.24918 11.9957C8.12124 11.9056 8.06877 11.8519 8.02559 11.77L7.99467 11.7114L7.96295 11.7192L7.96233 11.8461C7.96103 12.1053 8.04263 12.424 8.15815 12.6091C8.27799 12.8011 8.27762 12.806 8.22573 12.9233C8.20656 12.9667 8.19017 12.9934 8.17598 13.0071C8.1694 13.0135 8.16536 13.0143 8.16536 13.0143C8.16459 13.0142 8.15838 13.009 8.15354 12.9841C8.14863 12.9587 8.11808 12.9033 8.08599 12.8566C7.99886 12.73 7.95328 12.6112 7.93797 12.4722L7.91693 12.2811L7.84997 12.4297C7.76465 12.619 7.73827 12.8054 7.73569 13.2223L7.73328 13.606L7.66366 13.686C7.61081 13.7468 7.56704 13.7862 7.53587 13.8051C7.51856 13.8156 7.5107 13.8156 7.51002 13.8156C7.50974 13.8142 7.50947 13.8122 7.50973 13.8087C7.5105 13.7984 7.51467 13.7831 7.52389 13.7612C7.54037 13.7221 7.55814 13.5924 7.56617 13.4684C7.5749 13.3335 7.59646 13.1962 7.62031 13.1217C7.64032 13.0591 7.65501 13.0017 7.65427 12.9848C7.65416 12.9822 7.65421 12.9762 7.64862 12.9707C7.63843 12.9605 7.62484 12.966 7.618 12.9696C7.56523 12.9975 7.37583 13.1978 7.26861 13.34C7.19916 13.4321 7.08965 13.6105 7.02521 13.7364C6.89776 13.9855 6.84402 14.0581 6.75064 14.1158C6.70136 14.1463 6.40146 14.2747 6.36331 14.2846C6.35941 14.2414 6.35316 14.1265 6.34763 13.9891C6.33633 13.7086 6.32309 13.5882 6.28602 13.4313C6.28089 13.4096 6.28241 13.405 6.31427 13.3971C6.34727 13.3888 6.43207 13.3196 6.50539 13.2452L6.631 13.1178L6.71612 13.1443C6.92086 13.2078 7.196 13.1424 7.32833 12.9971C7.38102 12.9392 7.44695 12.8475 7.45793 12.8189C7.45926 12.8155 7.46117 12.8078 7.45972 12.8024C7.45527 12.7856 7.43918 12.7878 7.43224 12.7911C7.42225 12.7959 7.36535 12.8234 7.30559 12.8523C7.20053 12.9031 7.12621 12.922 7.0985 12.9179C7.09784 12.9178 7.09792 12.9177 7.0974 12.9176C7.10221 12.9056 7.12479 12.8821 7.17859 12.8466C7.27917 12.7801 7.38893 12.6435 7.42383 12.54C7.43569 12.5049 7.45399 12.4543 7.42296 12.4543C7.41418 12.4543 7.37858 12.4688 7.33999 12.485C7.30329 12.5003 7.23552 12.513 7.18908 12.513C7.07213 12.513 6.99315 12.5421 6.93685 12.6104C6.91322 12.6391 6.88987 12.647 6.8781 12.6447C6.87052 12.6433 6.86147 12.6351 6.86897 12.6071C6.87586 12.5815 6.88132 12.5304 6.88148 12.4934C6.88166 12.4482 6.89465 12.4232 6.94899 12.3734L7.02177 12.3068L7.00485 12.2785L6.94048 12.3009C6.80641 12.3477 6.6891 12.4455 6.62977 12.5612C6.57924 12.6596 6.57359 12.6907 6.58115 12.8237C6.58667 12.9207 6.58107 12.9817 6.56563 13.0119C6.53348 13.0749 6.40669 13.1883 6.31197 13.2367C6.23892 13.2739 6.24832 13.269 6.23653 13.247C6.16628 13.1157 6.06035 12.6127 6.06341 12.4226C6.06635 12.2398 6.07616 12.2269 6.17424 12.2019C6.22816 12.1881 6.3111 12.149 6.35828 12.1151C6.44787 12.0508 6.56194 12.0397 6.64175 12.0854C6.77272 12.1602 7.03136 12.0939 7.15917 11.9579C7.19138 11.9236 7.21698 11.8977 7.20505 11.8796C7.19201 11.8598 7.15896 11.8782 7.11815 11.8995C7.05657 11.9316 6.95565 11.9352 6.87339 11.9065C6.83841 11.8943 6.82566 11.8823 6.82478 11.879C6.82478 11.879 6.84143 11.8635 6.90135 11.8555C7.01525 11.8403 7.143 11.7607 7.22844 11.6532C7.26137 11.6117 7.29192 11.5733 7.29192 11.5626C7.29192 11.5417 7.27922 11.5456 7.27517 11.5453C7.26444 11.5447 7.23357 11.5543 7.19801 11.5665C7.14211 11.5857 7.11712 11.5854 7.03323 11.5615C6.93221 11.5328 6.91749 11.5334 6.83793 11.5749C6.8 11.5947 6.77777 11.606 6.76489 11.6104C6.76483 11.6104 6.76476 11.6104 6.7647 11.6104C6.7646 11.608 6.76453 11.6054 6.76453 11.6021C6.76453 11.5817 6.78448 11.5535 6.88235 11.4526L6.95269 11.3802H6.85601C6.76385 11.3802 6.62576 11.4559 6.57813 11.533C6.55548 11.5697 6.51453 11.6602 6.48652 11.7347C6.41906 11.9143 6.36085 11.9845 6.23955 12.0382C6.1818 12.0637 6.12696 12.0833 6.12215 12.0833C6.11677 12.0833 6.12053 12.0423 6.2149 11.8672C6.325 11.663 6.41221 11.4587 6.45092 11.3134C6.48065 11.2019 6.50395 11.1713 6.6284 11.0872C6.71569 11.0281 6.72362 11.0261 6.83464 11.0365C7.02384 11.0541 7.12691 11.0323 7.22486 10.9484C7.25867 10.9195 7.28367 10.8935 7.2975 10.8738C7.32702 10.8319 7.30622 10.8032 7.25392 10.8251C7.19326 10.8504 7.06044 10.87 7.03699 10.861C7.0185 10.8539 7.01835 10.8463 7.01959 10.843C7.02226 10.8359 7.03524 10.824 7.06284 10.8179C7.15603 10.7975 7.33095 10.6216 7.33095 10.5419C7.33095 10.5214 7.31961 10.5042 7.29523 10.5126C7.28673 10.5156 7.27488 10.5228 7.26107 10.5325C7.2374 10.549 7.18413 10.5598 7.11529 10.5598C7.00706 10.5598 6.99026 10.566 6.93561 10.6345C6.91548 10.6597 6.89848 10.6763 6.88615 10.6868C6.88391 10.6762 6.88173 10.6634 6.88173 10.6458C6.88173 10.5999 6.89631 10.5697 6.9522 10.5109L7.05437 10.4036H6.96243C6.88291 10.4036 6.77446 10.4828 6.73076 10.569C6.7104 10.6092 6.68574 10.7069 6.6749 10.787C6.65855 10.9079 6.64716 10.935 6.59628 10.9875C6.54674 11.0386 6.51931 11.0498 6.51669 11.0481C6.51669 11.0481 6.51196 11.0372 6.51876 11.0049C6.57953 10.7163 6.57505 10.5903 6.49528 10.3675C6.44982 10.2405 6.45039 10.2367 6.47762 10.1796C6.49584 10.1414 6.51057 10.0712 6.51045 10.0242C6.51023 9.93289 6.43829 9.75442 6.38068 9.70677C6.36219 9.69147 6.33573 9.68078 6.32635 9.71609C6.32122 9.7354 6.3207 9.77356 6.3207 9.84183C6.3207 9.97653 6.31741 9.97384 6.29849 9.97384C6.28201 9.97384 6.27558 9.96637 6.27556 9.96578C6.27494 9.94446 6.22234 9.87948 6.16346 9.81702L6.03824 9.68413L6.00813 9.76321C5.97849 9.84118 5.99947 9.91415 6.07169 10.0049C6.096 10.0355 6.11149 10.0586 6.11903 10.0749C6.1273 10.0927 6.12531 10.091 6.1179 10.091C6.09282 10.0909 5.97544 10.0203 5.94429 9.98244C5.93511 9.97129 5.9257 9.95964 5.91451 9.95903C5.88532 9.95744 5.89462 9.992 5.9011 10.022C5.93266 10.1683 6.08922 10.2861 6.2652 10.3004C6.41667 10.3128 6.42868 10.3293 6.42647 10.6742C6.42497 10.9084 6.41765 10.9638 6.35629 11.2031C6.31833 11.3512 6.28159 11.4747 6.28024 11.476C6.26486 11.4914 6.18266 11.452 6.06704 11.3438L5.94581 11.2304L5.94753 11.1174C5.94861 11.0462 5.93607 10.9616 5.91711 10.9166C5.8896 10.8513 5.73199 10.6651 5.67663 10.6275C5.67022 10.6232 5.66064 10.6184 5.65357 10.6184C5.61661 10.6184 5.64001 10.6748 5.66013 10.7159C5.67926 10.7549 5.70051 10.823 5.70745 10.8673C5.71769 10.9327 5.71371 10.9309 5.70661 10.9309C5.6987 10.9309 5.68507 10.9204 5.67968 10.9034C5.65884 10.8377 5.55751 10.7942 5.45084 10.7942C5.38101 10.7942 5.36268 10.7864 5.31464 10.736L5.21244 10.6287L5.23848 10.7463C5.26726 10.8761 5.33706 10.9842 5.43483 11.0479C5.50201 11.0917 5.51791 11.116 5.51673 11.1181C5.51251 11.1255 5.47127 11.1336 5.38085 11.1298L5.19464 11.1219L5.27076 11.2046C5.36519 11.3071 5.46313 11.3348 5.71034 11.3352L5.92646 11.3357L6.04791 11.4423C6.21125 11.5857 6.21654 11.6066 6.1619 11.6932C5.95608 12.0192 5.85979 12.4004 5.91626 12.6751C5.93553 12.7688 5.93524 12.8099 5.93065 12.8128C5.92805 12.8145 5.89622 12.7966 5.83092 12.7326C5.69055 12.595 5.67764 12.5667 5.66598 12.3713C5.65128 12.1249 5.569 11.994 5.37105 11.907C5.33015 11.8891 5.30113 11.8775 5.28479 11.8728C5.2587 11.8653 5.2311 11.8778 5.25738 11.9051C5.26281 11.9107 5.27316 11.9188 5.28687 11.9284C5.30692 11.9424 5.33166 11.9795 5.34159 12.0122C5.37736 12.1303 5.37632 12.1895 5.36838 12.1939C5.36711 12.1946 5.34709 12.1871 5.31048 12.1415C5.25461 12.0718 5.23603 12.0637 5.13924 12.0637C5.01244 12.0637 4.9247 12.0374 4.87133 11.9872L4.79725 11.9177V11.9998C4.79725 12.1247 4.98788 12.3427 5.15395 12.4165C5.19863 12.4364 5.22699 12.4626 5.22699 12.4644C5.22699 12.4644 5.22685 12.4643 5.22299 12.4662C5.19533 12.4799 5.1104 12.4755 5.04851 12.448C4.96413 12.4105 4.87042 12.3808 4.84161 12.3835C4.8375 12.3839 4.83036 12.3855 4.8256 12.3903C4.81828 12.3976 4.81884 12.4073 4.82005 12.4131C4.82803 12.4512 4.91944 12.5589 4.97528 12.5982C5.17058 12.7358 5.37601 12.7701 5.54128 12.6878L5.61506 12.6511L5.70225 12.7425C5.74421 12.7865 5.77952 12.8276 5.79133 12.8453C5.7916 12.8457 5.79184 12.8461 5.79208 12.8465C5.79229 12.8468 5.79248 12.8471 5.79266 12.8474C5.79283 12.8477 5.79298 12.848 5.79312 12.8482C5.79323 12.8484 5.79337 12.8486 5.79347 12.8488C5.79356 12.849 5.79362 12.8491 5.7937 12.8492C5.79377 12.8493 5.79385 12.8494 5.7939 12.8495L5.79338 12.8457C5.79338 12.8642 5.84163 12.9051 5.89278 12.9442C5.99572 13.0227 6.0262 13.0704 6.0271 13.14C6.02754 13.1737 6.05295 13.2582 6.08273 13.3316C6.13641 13.4638 6.13516 13.4574 6.13024 13.8952C6.12786 14.1062 6.12292 14.2786 6.119 14.3209C6.06017 14.303 5.84298 14.1873 5.75642 14.1238C5.65229 14.0473 5.53774 13.9033 5.41544 13.6932C5.20046 13.3238 5.05319 13.1435 4.84811 13.0013C4.81799 12.9804 4.79205 12.9662 4.77559 12.9608C4.7548 12.9539 4.72835 12.9607 4.73779 12.9885C4.74061 12.9968 4.74892 13.0085 4.75994 13.0206C4.78392 13.047 4.8199 13.2171 4.83736 13.4143C4.84665 13.5193 4.86768 13.6329 4.88698 13.6702C4.91473 13.7239 4.9084 13.7435 4.8899 13.7435C4.88824 13.7435 4.83583 13.7044 4.77975 13.6514L4.68271 13.5596L4.67989 13.2875C4.67627 12.9394 4.59909 12.5114 4.50872 12.3483C4.5028 12.3376 4.4974 12.3282 4.49271 12.3226C4.47683 12.3035 4.45795 12.3113 4.45094 12.3333C4.44656 12.3472 4.44296 12.3728 4.43766 12.4128C4.42295 12.5239 4.36771 12.6645 4.31936 12.7179C4.29906 12.7404 4.27363 12.8007 4.26041 12.8528C4.24707 12.9053 4.22813 12.931 4.22654 12.9321C4.22609 12.9318 4.22561 12.9314 4.22505 12.931C4.20953 12.9187 4.1822 12.8806 4.15796 12.8334L4.10655 12.7335L4.17452 12.6272C4.32653 12.3896 4.40205 12.1132 4.40019 11.803L4.39905 11.6215L4.36667 11.6152L4.33361 11.6955C4.29028 11.8008 4.26512 11.8277 4.16085 11.8806C4.10933 11.9067 4.04308 11.956 4.014 11.9906C3.98331 12.0271 3.96251 12.0406 3.95408 12.0405C3.94545 12.0404 3.93249 12.0122 3.93249 11.9255C3.93249 11.8666 3.93746 11.857 4.0227 11.7974C4.05846 11.7723 4.08541 11.7456 4.10048 11.7305C4.32993 11.501 4.38323 11.3997 4.46812 11.2001C4.49935 11.1247 4.52023 11.068 4.52963 11.0349C4.53525 11.0151 4.54124 10.9932 4.52677 10.9839C4.50523 10.97 4.48535 11.005 4.46163 11.0469C4.41276 11.1332 4.35675 11.1648 4.21589 11.1794C4.15661 11.1855 4.09315 11.2026 4.07625 11.2229C4.05434 11.2493 4.01062 11.2469 4.01062 11.2297C4.01062 11.2159 4.02754 11.1633 4.04962 11.112C4.08688 11.0254 4.08381 11.0275 4.18092 11.0174C4.33291 11.0018 4.45458 10.9416 4.58386 10.8194C4.68263 10.7262 4.81065 10.5464 4.81122 10.4904C4.8113 10.4829 4.80671 10.4735 4.79728 10.4705C4.78115 10.4654 4.75908 10.4818 4.73925 10.5C4.68261 10.5518 4.64533 10.5607 4.50349 10.5448C4.39715 10.5329 4.3886 10.5259 4.38557 10.5048C4.38352 10.4904 4.39896 10.4531 4.42379 10.4263L4.46397 10.383L4.54564 10.4191C4.62107 10.4525 4.66906 10.4595 4.76244 10.451C4.92626 10.4361 5.12125 10.339 5.20003 10.2302C5.2317 10.1865 5.26063 10.1412 5.26063 10.1263C5.26063 10.0971 5.20769 10.0995 5.16464 10.1052C5.12414 10.1107 5.03347 10.1092 4.96362 10.1018C4.88467 10.0933 4.85294 10.0795 4.85145 10.0737C4.8506 10.0704 4.87065 10.0489 4.93904 10.0173C5.00255 9.98783 5.02738 9.96694 5.11313 9.96751C5.16944 9.98636 5.25268 10.0133 5.35627 10.0227C5.52225 10.0351 5.64597 9.98383 5.77685 9.84839C5.87683 9.74489 5.87129 9.70999 5.76389 9.76711C5.70892 9.79633 5.65339 9.80053 5.52689 9.78519C5.43798 9.7744 5.47867 9.75646 5.65234 9.72989C5.8341 9.70211 5.92466 9.66034 5.97881 9.57931C6.07879 9.42975 5.71064 9.47584 5.54605 9.63347C5.49041 9.68683 5.47152 9.69527 5.47152 9.66676C5.47152 9.61506 5.52635 9.55692 5.61172 9.51812C5.73611 9.46154 5.71108 9.41496 5.60272 9.41654L5.60272 9.41654Z" fill="#FBC724"/>
</g>
<defs>
<clipPath id="clip0_1692_54053">
<rect x="2.02539" y="5.50342" width="19.9495" height="13.2997" rx="1" fill="white"/>
</clipPath>
</defs>
</svg>
