<svg width="24" height="25" viewBox="0 0 24 25" fill="none" xmlns="http://www.w3.org/2000/svg">
<g clip-path="url(#clip0_1692_54162)">
<path d="M2.02539 5.50342H21.9749V18.8031H2.02539V5.50342Z" fill="#3E5EB9"/>
<path d="M2.02539 7.99658H21.9749V16.3089H2.02539V7.99658Z" fill="#FFD900"/>
<path d="M2.02539 8.82715H21.9749V15.477H2.02539V8.82715Z" fill="#B10C0C"/>
<path d="M18.4191 10.6318L17.6115 10.9169L18.4191 11.2019L19.2267 10.9169L18.4191 10.6318Z" fill="white"/>
<path fill-rule="evenodd" clip-rule="evenodd" d="M18.4126 10.6152L19.2705 10.918L18.4126 11.2208L17.5547 10.918L18.4126 10.6152ZM17.6554 10.918L18.4126 11.1853L19.1698 10.918L18.4126 10.6508L17.6554 10.918Z" fill="black"/>
<path d="M17.8784 10.8228H6.21069C6.15366 10.8228 6.10742 10.8653 6.10742 10.9177C6.10742 10.9702 6.15366 11.0127 6.21069 11.0127H17.8784C17.9355 11.0127 17.9817 10.9702 17.9817 10.9177C17.9817 10.8653 17.9355 10.8228 17.8784 10.8228Z" fill="#FFD900"/>
<path fill-rule="evenodd" clip-rule="evenodd" d="M17.5878 10.8412C17.5882 10.8416 17.5886 10.842 17.589 10.8424V10.8403H17.5869C17.5679 10.8217 17.5425 10.8082 17.5156 10.8068H17.589V10.8066H17.6058C17.6074 10.8066 17.609 10.8067 17.6106 10.8068H17.6841V10.8066H17.7009C17.7025 10.8066 17.7041 10.8067 17.7057 10.8068H17.8815C17.9465 10.8068 18.0015 10.8555 18.0015 10.9185C18.0015 10.9815 17.9465 11.0303 17.8815 11.0303H6.21378C6.14883 11.0303 6.09375 10.9815 6.09375 10.9185C6.09375 10.8555 6.14884 10.8068 6.21378 10.8068H17.5107V10.8402C17.512 10.8402 17.5132 10.8402 17.5145 10.8403H6.21378C6.16465 10.8403 6.12727 10.8766 6.12727 10.9185C6.12727 10.9604 6.16465 10.9968 6.21378 10.9968H17.5107V10.9966C17.5289 10.9966 17.5487 10.9873 17.5641 10.9718C17.5796 10.9564 17.589 10.9367 17.589 10.9184C17.589 10.9001 17.5796 10.8804 17.5642 10.8649C17.5497 10.8505 17.5317 10.8415 17.5145 10.8403H17.5869L17.5878 10.8412ZM17.5107 10.8068H17.5156C17.5139 10.8067 17.5123 10.8066 17.5107 10.8066V10.8068ZM17.682 10.8403L17.6829 10.8412L17.6837 10.842L17.6841 10.8424V10.8403H17.682ZM17.7771 10.8403L17.778 10.8412C17.7982 10.8614 17.8127 10.8892 17.8127 10.9184C17.8127 10.9476 17.7982 10.9754 17.778 10.9955C17.7776 10.996 17.7772 10.9964 17.7768 10.9968H17.8815C17.9306 10.9968 17.968 10.9604 17.968 10.9185C17.968 10.8766 17.9306 10.8403 17.8815 10.8403H17.7771ZM17.6841 10.9968V10.9944C17.6837 10.9948 17.6833 10.9952 17.6829 10.9955C17.6825 10.996 17.6821 10.9964 17.6817 10.9968H17.6841ZM17.589 10.9968V10.9944C17.5886 10.9948 17.5882 10.9952 17.5878 10.9955L17.5872 10.9962L17.5866 10.9968H17.589ZM17.6225 10.9942L17.6225 10.8426C17.6356 10.8463 17.6484 10.8541 17.6592 10.8649C17.6747 10.8804 17.6841 10.9001 17.6841 10.9184C17.6841 10.9367 17.6747 10.9564 17.6592 10.9718C17.6484 10.9826 17.6355 10.9904 17.6225 10.9942ZM17.7176 10.9942L17.7176 10.8426C17.7306 10.8463 17.7435 10.8541 17.7543 10.8649C17.7698 10.8804 17.7791 10.9001 17.7791 10.9184C17.7791 10.9367 17.7698 10.9564 17.7543 10.9718C17.7435 10.9826 17.7306 10.9904 17.7176 10.9942Z" fill="black"/>
<path d="M17.5869 10.8403C17.5679 10.8217 17.5425 10.8082 17.5156 10.8068H17.5107V10.8402C17.512 10.8402 17.5132 10.8402 17.5145 10.8403H17.5869Z" fill="black"/>
<path d="M20.0243 12.0107H4.15607C4.0785 12.0107 4.01562 12.0745 4.01562 12.1532C4.01562 12.2319 4.0785 12.2957 4.15607 12.2957H20.0243C20.1019 12.2957 20.1648 12.2319 20.1648 12.1532C20.1648 12.0745 20.1019 12.0107 20.0243 12.0107Z" fill="#FFD900"/>
<path fill-rule="evenodd" clip-rule="evenodd" d="M4.15449 12.0281C4.08709 12.0281 4.032 12.0836 4.032 12.1526C4.032 12.2217 4.08709 12.2772 4.15449 12.2772H20.0227C20.0901 12.2772 20.1452 12.2217 20.1452 12.1526C20.1452 12.0836 20.0901 12.0281 20.0227 12.0281H4.15449ZM3.99609 12.1526C3.99609 12.0643 4.06677 11.9922 4.15449 11.9922H20.0227C20.1105 11.9922 20.1811 12.0643 20.1811 12.1526C20.1811 12.241 20.1105 12.3131 20.0227 12.3131H4.15449C4.06677 12.3131 3.99609 12.241 3.99609 12.1526Z" fill="black"/>
<path d="M16.75 12.1532C15.8 13.1031 14.5333 15.003 12 15.003C9.78335 15.003 8.20029 13.1031 7.25003 12.1532C8.2 11.2031 9.78322 9.30322 12 9.30322C14.5332 9.30322 15.7997 11.2031 16.75 12.1532Z" fill="white"/>
<path fill-rule="evenodd" clip-rule="evenodd" d="M9.14014 10.3587C9.93337 9.76377 10.8869 9.28662 12.0002 9.28662C14.1494 9.28662 15.3913 10.6504 16.2962 11.6443L16.2962 11.6443C16.4616 11.8259 16.6157 11.9952 16.7621 12.1415L16.7739 12.1534L16.7621 12.1652C16.6159 12.3114 16.4619 12.4805 16.2966 12.662L16.2966 12.6621L16.2966 12.6621C15.3918 13.6559 14.1498 15.0199 12.0002 15.0199C10.8869 15.0199 9.93351 14.5428 9.1403 13.9479C8.51235 13.4769 7.9836 12.9312 7.55521 12.489L7.55507 12.4889L7.5549 12.4887L7.55482 12.4886C7.44244 12.3726 7.33696 12.2637 7.23842 12.1652L7.22656 12.1534L7.23841 12.1415C7.33679 12.0431 7.44207 11.9344 7.55426 11.8186L7.55431 11.8185C7.98277 11.3762 8.51178 10.83 9.14014 10.3587ZM16.2696 12.6416C15.5126 13.4726 14.5279 14.5535 12.9783 14.8852C12.9131 14.5954 12.4839 14.4321 12.1654 14.311C11.9643 14.2345 11.8074 14.1748 11.8141 14.1106C11.8317 14.0149 12.0473 13.9751 12.2543 13.9369C12.4504 13.9007 12.6388 13.866 12.6437 13.7865C12.6484 13.7073 12.4787 13.6424 12.3045 13.5757C12.1184 13.5046 11.9273 13.4314 11.9384 13.3369C11.9461 13.2511 12.0209 13.1993 12.1034 13.1424C12.2079 13.0702 12.3245 12.9896 12.3318 12.8205C12.3368 12.4874 12.5181 12.3727 12.6492 12.2897C12.7246 12.242 12.7834 12.2048 12.7824 12.1425C12.781 12.0645 12.7497 12.0596 12.6999 12.0519C12.6445 12.0432 12.5662 12.031 12.4806 11.911C12.4008 11.8018 12.4064 11.5819 12.4113 11.3882C12.4163 11.1939 12.4205 11.026 12.3375 11.0223C12.2236 11.0177 12.2012 10.9509 12.1775 10.8803C12.1519 10.8039 12.1247 10.723 11.978 10.7122C11.8353 10.7023 11.8287 10.6651 11.8154 10.5894C11.8036 10.5231 11.7867 10.4274 11.6687 10.2947L11.6691 10.2945C11.375 9.94314 11.8797 9.42047 11.9828 9.32018C11.9855 9.32016 11.9882 9.32015 11.9909 9.32015C11.9928 9.32014 11.9947 9.32014 11.9966 9.32014L12.0002 9.32014C14.1332 9.32014 15.3638 10.6709 16.2692 11.6647L16.2693 11.6648L16.2693 11.6648L16.2693 11.6649C16.431 11.8423 16.5823 12.0084 16.7266 12.1534C16.5824 12.2983 16.4312 12.4642 16.2696 12.6416L16.2696 12.6416ZM9.02375 11.1399V11.8999H9.25407V11.1399H9.02375ZM9.71457 11.8999V11.1399H9.48425V11.8999H9.71457ZM9.94509 11.1399V11.8999H10.1754V11.1399H9.94509Z" fill="black"/>
<path d="M19.0253 12.0405C18.8814 12.2898 19.1358 11.9576 19.7564 12.3749C19.8715 12.4525 19.972 12.6572 19.972 12.7992C19.9428 12.7797 19.9211 12.7362 19.8889 12.708C19.8439 12.7531 19.9319 12.96 19.9448 13.0577C19.8478 13.0034 19.8571 12.9777 19.8249 12.911C19.8313 12.9917 19.8082 13.2138 19.8468 13.2994C19.7703 13.2775 19.7754 13.216 19.7355 13.2036C19.7627 13.3005 19.7118 13.4058 19.7253 13.5147C19.6806 13.4705 19.633 13.4358 19.6122 13.418C19.6088 13.4698 19.5263 13.6061 19.5244 13.6551C19.4865 13.6322 19.4762 13.5965 19.4699 13.5724C19.4228 13.6316 19.2553 13.8503 19.2445 13.917C19.1155 13.8031 18.7849 13.5255 18.7418 13.3781C18.7038 13.4618 18.6487 13.49 18.5399 13.5511C18.4969 13.3175 18.336 13.0551 18.4221 12.8549C18.3611 12.8911 18.3109 12.9272 18.25 12.9717C18.3077 12.6335 18.602 12.2369 19.0255 12.0405H19.0253Z" fill="#3D5DA7"/>
<path fill-rule="evenodd" clip-rule="evenodd" d="M19.0175 12.0254H19.0258L19.0294 12.0418L19.038 12.0467C19.0199 12.078 19.0088 12.099 19.0037 12.1132C19.0012 12.1204 19.0006 12.1244 19.0008 12.1265C19.0008 12.1268 19.0008 12.1271 19.0008 12.1272C19.0015 12.1277 19.0036 12.1287 19.0087 12.1295C19.014 12.1303 19.021 12.1307 19.0302 12.1307C19.0382 12.1307 19.0474 12.1305 19.058 12.1302C19.0595 12.1302 19.061 12.1302 19.0625 12.1301C19.0749 12.1298 19.089 12.1295 19.1046 12.1296C19.2303 12.1299 19.4518 12.1518 19.7648 12.3622C19.825 12.4028 19.8803 12.4758 19.9204 12.5556C19.9605 12.6355 19.9865 12.7244 19.9865 12.7983V12.8249L19.9644 12.8101C19.9476 12.7989 19.9335 12.7812 19.9207 12.7647C19.9197 12.7634 19.9187 12.7621 19.9177 12.7609C19.9095 12.7502 19.9014 12.7399 19.8929 12.7305C19.8926 12.7315 19.8924 12.7325 19.8922 12.7336C19.8907 12.7421 19.8904 12.7529 19.8914 12.7659C19.8934 12.7919 19.9003 12.824 19.9093 12.8586C19.9151 12.8813 19.9217 12.9044 19.9282 12.9273C19.9317 12.9395 19.9351 12.9516 19.9384 12.9635C19.9477 12.9973 19.9559 13.0294 19.9593 13.0549L19.963 13.083L19.9382 13.0692C19.8888 13.0416 19.8646 13.0202 19.8489 12.9958C19.8457 12.9908 19.8429 12.9857 19.8404 12.9806C19.8403 12.9847 19.8402 12.9888 19.8402 12.993C19.84 13.0012 19.8398 13.0096 19.8396 13.0181C19.839 13.045 19.8384 13.0737 19.8384 13.1025C19.8383 13.1404 19.8392 13.1782 19.8425 13.2116C19.8458 13.2453 19.8515 13.2734 19.8601 13.2926L19.8727 13.3206L19.8433 13.3121C19.8007 13.3 19.7804 13.2762 19.766 13.255C19.7634 13.251 19.7611 13.2475 19.759 13.2442C19.7584 13.2432 19.7577 13.2423 19.7571 13.2413C19.7604 13.2795 19.7555 13.318 19.75 13.3558C19.7493 13.3601 19.7487 13.3644 19.7481 13.3687C19.7409 13.417 19.7339 13.4642 19.7398 13.5121L19.7448 13.5528L19.7157 13.5239C19.6841 13.4926 19.6517 13.4668 19.6277 13.4476C19.6257 13.446 19.6238 13.4445 19.6219 13.443C19.619 13.4529 19.6152 13.4635 19.6109 13.4743C19.6026 13.4953 19.5919 13.5188 19.5814 13.5418L19.581 13.5426C19.5703 13.566 19.5599 13.5889 19.552 13.6089C19.544 13.6295 19.5394 13.6451 19.539 13.6547L19.5381 13.6788L19.5174 13.6663C19.4877 13.6483 19.473 13.6233 19.4647 13.6016C19.4375 13.6365 19.395 13.6926 19.3556 13.7491C19.3311 13.7842 19.308 13.8193 19.2903 13.8496C19.2815 13.8648 19.2741 13.8786 19.2687 13.8905C19.2631 13.9026 19.26 13.9119 19.2589 13.9184L19.2548 13.9439L19.2355 13.9268C19.2234 13.9161 19.2096 13.904 19.1943 13.8907C19.1283 13.833 19.0362 13.7525 18.9513 13.6693C18.8991 13.6181 18.8492 13.5656 18.8097 13.5165C18.7801 13.4797 18.7556 13.444 18.7403 13.4116C18.7024 13.4757 18.6485 13.5059 18.5615 13.5545C18.5568 13.5572 18.552 13.5598 18.5472 13.5625L18.5299 13.5723L18.5263 13.5527C18.5157 13.4953 18.4978 13.4359 18.4781 13.3754C18.4723 13.3578 18.4664 13.34 18.4604 13.3222C18.4461 13.2793 18.4317 13.2361 18.4193 13.1935C18.3886 13.0879 18.3693 12.9823 18.3958 12.887C18.3498 12.9161 18.3079 12.9463 18.2588 12.9822L18.2305 13.0029L18.2364 12.9684C18.2948 12.6262 18.5907 12.2275 19.0156 12.0287L19.0175 12.0254ZM18.9914 12.072C18.6079 12.2653 18.3394 12.6238 18.2712 12.938C18.3198 12.9028 18.3637 12.8723 18.4152 12.8418L18.4527 12.8195L18.4355 12.8596C18.3946 12.9547 18.4119 13.0661 18.4466 13.1856C18.4588 13.2276 18.473 13.2699 18.4872 13.3126C18.4932 13.3305 18.4992 13.3485 18.5051 13.3666C18.5228 13.4207 18.5393 13.475 18.5504 13.5281C18.6484 13.4732 18.6954 13.4458 18.7293 13.3713L18.7451 13.3365L18.7558 13.3732C18.7658 13.4072 18.793 13.4504 18.8318 13.4986C18.8704 13.5465 18.9193 13.5982 18.9712 13.649C19.0555 13.7316 19.1468 13.8113 19.2128 13.8691C19.2216 13.8767 19.2299 13.884 19.2376 13.8908C19.2392 13.8869 19.2409 13.8828 19.2428 13.8787C19.2488 13.8656 19.2566 13.8509 19.2657 13.8353C19.284 13.804 19.3076 13.7682 19.3323 13.7329C19.3816 13.6621 19.4354 13.5924 19.4591 13.5626L19.4768 13.5404L19.484 13.5679C19.489 13.5868 19.4959 13.6102 19.5151 13.6289C19.5178 13.6193 19.5215 13.609 19.5256 13.5985C19.5338 13.5776 19.5446 13.554 19.5552 13.5308L19.5553 13.5304C19.566 13.5071 19.5764 13.4842 19.5845 13.4638C19.5927 13.443 19.5977 13.4266 19.5984 13.4161L19.6003 13.3877L19.6219 13.4063C19.6272 13.4108 19.6347 13.4168 19.6437 13.424C19.6614 13.4381 19.685 13.4569 19.7092 13.4787C19.7087 13.4396 19.7144 13.4013 19.7199 13.365C19.7205 13.3605 19.7212 13.3561 19.7218 13.3517C19.7295 13.2994 19.7348 13.2517 19.7222 13.2065L19.7151 13.1814L19.7401 13.1891C19.7537 13.1933 19.763 13.2017 19.7704 13.2109C19.7751 13.2167 19.7797 13.2239 19.784 13.2306C19.786 13.2335 19.7878 13.2364 19.7896 13.2391C19.7979 13.2514 19.8077 13.2636 19.8238 13.2732C19.8193 13.2555 19.8163 13.2355 19.8142 13.2144C19.8108 13.1796 19.8099 13.1407 19.8099 13.1024C19.81 13.0733 19.8106 13.0442 19.8112 13.0173C19.8114 13.0088 19.8116 13.0005 19.8117 12.9925C19.8124 12.9588 19.8126 12.9305 19.8111 12.9112L19.838 12.9039C19.845 12.9182 19.8501 12.9308 19.8545 12.9418C19.8554 12.944 19.8563 12.9461 19.8571 12.9481C19.8622 12.9607 19.8667 12.9708 19.8729 12.9804C19.8824 12.9952 19.8966 13.0099 19.9256 13.0286C19.9218 13.0113 19.9167 12.9918 19.911 12.9711C19.9078 12.9596 19.9044 12.9477 19.901 12.9356C19.8944 12.9125 19.8877 12.8887 19.8818 12.8658C19.8727 12.8308 19.8653 12.7967 19.8631 12.7681C19.8619 12.7538 19.8621 12.7403 19.8643 12.7285C19.8664 12.7167 19.8709 12.7054 19.8792 12.697L19.8887 12.6876L19.8987 12.6964C19.9146 12.7104 19.928 12.7277 19.9399 12.7431C19.941 12.7445 19.9421 12.7459 19.9431 12.7472C19.9477 12.7531 19.952 12.7585 19.9562 12.7635C19.9497 12.7026 19.9275 12.633 19.895 12.5684C19.8561 12.4909 19.8036 12.4227 19.7489 12.3858C19.4412 12.1789 19.2252 12.1583 19.1045 12.158C19.0893 12.158 19.0756 12.1583 19.0632 12.1586C19.0617 12.1586 19.0602 12.1586 19.0587 12.1587C19.0482 12.1589 19.0386 12.1592 19.0301 12.1591C19.0205 12.1591 19.0118 12.1588 19.0043 12.1576C18.9971 12.1565 18.9894 12.1544 18.9832 12.1495C18.9763 12.1441 18.9728 12.1365 18.9724 12.1281C18.9719 12.1204 18.9739 12.1121 18.977 12.1036C18.9801 12.0948 18.985 12.0844 18.9914 12.072Z" fill="black"/>
<path d="M18.4861 13.2741C18.5459 13.1546 18.6009 13.1167 18.6395 13.0398C18.7077 12.9046 18.7175 12.7971 18.7769 12.8129C18.8363 12.8286 18.8362 12.884 18.7593 13.0169C18.6823 13.1498 18.6457 13.1782 18.4861 13.2741ZM18.8901 13.5587C18.8825 13.4678 18.9088 13.4298 18.904 13.3712C18.8958 13.2682 18.8537 13.1974 18.9085 13.1924C18.9633 13.1874 18.9889 13.2226 18.9891 13.3264C18.9892 13.4303 18.9732 13.4575 18.8902 13.5587L18.8901 13.5587ZM19.1968 13.737C19.1728 13.61 19.1907 13.5537 19.1754 13.4719C19.1487 13.328 19.096 13.2332 19.1467 13.2201C19.1975 13.2069 19.2282 13.2534 19.2474 13.3994C19.2666 13.5453 19.2565 13.5855 19.1968 13.737ZM19.5157 12.8474C19.4408 12.7906 19.3971 12.7868 19.3488 12.7502C19.2637 12.6862 19.2207 12.6176 19.1933 12.6516C19.166 12.6857 19.1854 12.7229 19.2745 12.782C19.3636 12.8412 19.3938 12.8458 19.5157 12.8474H19.5157ZM19.4628 13.2687C19.4233 13.1868 19.3818 13.166 19.3562 13.1132C19.3111 13.0206 19.3111 12.9404 19.2621 12.9609C19.2132 12.9815 19.2092 13.0235 19.2616 13.1132C19.3139 13.2029 19.3413 13.2191 19.4628 13.2687Z" fill="#B3B3B3"/>
<path d="M4.70795 12.2797C4.6999 12.2071 4.71544 12.1984 4.67077 12.1437C4.7358 12.1709 4.73826 12.2432 4.81731 12.1919C4.84633 12.1768 4.85899 12.1763 4.82372 12.0957C4.90614 12.0995 5.17608 12.1921 5.21931 12.1942C5.33281 12.1995 5.54001 12.075 5.68382 12.228C5.82187 12.3676 5.77578 12.5124 5.77578 12.7056C5.72031 12.679 5.74705 12.6659 5.68819 12.5968C5.7323 12.7657 5.68584 13.0703 5.68584 13.2494C5.66318 13.2062 5.66651 13.225 5.64436 13.1802C5.5855 13.3437 5.51496 13.3774 5.51496 13.5706C5.49372 13.4949 5.51423 13.5109 5.49059 13.471C5.4334 13.5952 5.04965 13.7012 5.19751 13.8264C5.06406 13.7481 5.00553 13.7563 4.94501 13.686C4.91891 13.7028 4.89821 13.7346 4.87395 13.7783C4.63929 13.6703 4.7232 13.4374 4.53935 13.2819C4.50754 13.3471 4.52204 13.3376 4.48765 13.4438C4.45043 13.2963 4.44026 13.2027 4.3984 13.0943C4.36229 13.1543 4.3655 13.1313 4.29992 13.2221C4.27279 13.0425 4.22863 13.0001 4.2461 12.8813C4.1764 12.9304 4.22202 12.9105 4.15234 12.9711C4.21836 12.5108 4.50344 12.1707 4.70802 12.2796L4.70795 12.2797Z" fill="#3D5DA7"/>
<path fill-rule="evenodd" clip-rule="evenodd" d="M4.79691 12.0776L4.82543 12.079C4.84798 12.08 4.88186 12.0869 4.91935 12.0962C4.95728 12.1055 5.00037 12.1176 5.04199 12.1295C5.05563 12.1334 5.06908 12.1373 5.08216 12.1411C5.10915 12.1489 5.13452 12.1563 5.15647 12.1624C5.17273 12.1669 5.18688 12.1706 5.19822 12.1732C5.20996 12.176 5.21744 12.1773 5.22104 12.1775C5.24664 12.1787 5.27857 12.1725 5.31651 12.1639C5.32259 12.1625 5.32881 12.1611 5.33514 12.1596C5.36744 12.1521 5.40277 12.144 5.43871 12.1391C5.52523 12.1274 5.61995 12.1343 5.69748 12.2167C5.76989 12.29 5.79417 12.3653 5.80015 12.4464C5.8031 12.4865 5.80159 12.528 5.79943 12.571C5.79907 12.578 5.7987 12.5852 5.79832 12.5923C5.79639 12.6289 5.79441 12.6667 5.79441 12.7066V12.7348L5.769 12.7226C5.75423 12.7155 5.74361 12.7087 5.73548 12.7008C5.72894 12.6945 5.7246 12.6879 5.72102 12.6814C5.72809 12.7542 5.7264 12.838 5.72216 12.9212C5.7199 12.9655 5.71693 13.0095 5.71406 13.0519C5.7091 13.1254 5.70447 13.1939 5.70447 13.2504L5.67101 13.2586C5.66077 13.2391 5.65638 13.2333 5.65232 13.228C5.6521 13.2277 5.65187 13.2274 5.65165 13.2271C5.65053 13.2256 5.64943 13.2241 5.6483 13.2225C5.63176 13.2626 5.61463 13.2951 5.59916 13.3244C5.59026 13.3413 5.5819 13.3572 5.57452 13.3728C5.55059 13.4236 5.53358 13.4777 5.53358 13.5716L5.49876 13.5764C5.48833 13.5392 5.48744 13.5225 5.48693 13.5112C5.46734 13.5346 5.43989 13.5565 5.41097 13.5768C5.38975 13.5918 5.36683 13.6065 5.34417 13.621C5.34194 13.6224 5.33972 13.6238 5.3375 13.6252C5.31701 13.6383 5.29687 13.6511 5.27803 13.664C5.23544 13.693 5.20311 13.7198 5.18935 13.745C5.18285 13.7569 5.18115 13.7673 5.18347 13.7772C5.18586 13.7874 5.19316 13.7997 5.20986 13.8138L5.18943 13.8427C5.13498 13.8107 5.09356 13.7936 5.05847 13.7791C5.05136 13.7762 5.04451 13.7733 5.03786 13.7705C5.00257 13.7555 4.97294 13.7406 4.94383 13.7109C4.92665 13.7266 4.91041 13.7518 4.89035 13.7879L4.88236 13.8023L4.86743 13.7954C4.74332 13.7383 4.7035 13.6472 4.67171 13.5547C4.66848 13.5453 4.66534 13.5359 4.66221 13.5266C4.63655 13.45 4.61155 13.3754 4.54618 13.3121C4.53871 13.3293 4.53577 13.3396 4.53259 13.3527C4.53194 13.3554 4.53127 13.3582 4.53056 13.3611C4.52627 13.3792 4.52038 13.4041 4.50542 13.4502L4.48643 13.5089L4.47134 13.4491C4.45817 13.397 4.44832 13.3513 4.43934 13.3096C4.43558 13.2922 4.43197 13.2754 4.42834 13.2592C4.4186 13.2158 4.40858 13.1758 4.39474 13.1348C4.38743 13.1449 4.38142 13.1517 4.37423 13.1596L4.37336 13.1605C4.3619 13.1731 4.34671 13.1898 4.3152 13.2335L4.28976 13.2687L4.28327 13.2258C4.27267 13.1556 4.25952 13.107 4.24833 13.0657C4.24538 13.0548 4.24258 13.0444 4.23998 13.0343C4.23036 12.9966 4.2239 12.9627 4.22552 12.9209C4.21911 12.9266 4.21696 12.9297 4.21478 12.9328L4.21471 12.933C4.21437 12.9334 4.21402 12.934 4.21366 12.9345C4.21091 12.9385 4.20732 12.9438 4.20071 12.9512C4.19342 12.9594 4.1826 12.97 4.16486 12.9854L4.12891 13.0167L4.13567 12.9695C4.16906 12.7368 4.25791 12.5335 4.36536 12.4017C4.41905 12.3358 4.47812 12.2869 4.53818 12.2616C4.58871 12.2404 4.64018 12.2359 4.68879 12.2526C4.68851 12.2469 4.68833 12.2418 4.68818 12.237C4.68816 12.2363 4.68814 12.2355 4.68811 12.2348C4.68777 12.2237 4.68753 12.2159 4.68644 12.2086C4.68439 12.1949 4.67922 12.182 4.65791 12.1559L4.67851 12.1283C4.6974 12.1362 4.71149 12.1473 4.72291 12.1578C4.7274 12.162 4.73165 12.1662 4.73548 12.17C4.73642 12.171 4.73734 12.1719 4.73824 12.1728C4.74292 12.1774 4.74692 12.1812 4.75082 12.1844C4.75838 12.1905 4.76428 12.193 4.77108 12.193C4.77855 12.193 4.7901 12.1899 4.80854 12.178L4.80927 12.1775L4.81004 12.1771C4.81231 12.1759 4.81428 12.1749 4.81599 12.174C4.82072 12.1716 4.82358 12.1702 4.82599 12.1684C4.82791 12.1671 4.82799 12.1666 4.82808 12.1661C4.82809 12.166 4.8281 12.166 4.82811 12.1659C4.82847 12.1641 4.82858 12.1592 4.82551 12.1485C4.82252 12.138 4.81708 12.1237 4.80835 12.1038L4.79691 12.0776ZM4.69226 12.2922L4.69363 12.3045L4.75361 12.2843L4.72553 12.2694C4.72435 12.2563 4.72395 12.2455 4.72365 12.2359C4.72362 12.235 4.72359 12.234 4.72356 12.233C4.72328 12.2237 4.723 12.2148 4.72193 12.2063C4.72407 12.2082 4.72626 12.2102 4.72851 12.212C4.73958 12.2209 4.75318 12.2285 4.77111 12.2285C4.78815 12.2285 4.80632 12.2216 4.8271 12.2082C4.82807 12.2077 4.82909 12.2072 4.83016 12.2067C4.83555 12.2039 4.84189 12.2007 4.84682 12.1972C4.85417 12.1918 4.86065 12.1843 4.86292 12.1728C4.86493 12.1626 4.86319 12.1512 4.85962 12.1387C4.85787 12.1326 4.85553 12.1257 4.85259 12.118C4.86892 12.1208 4.8887 12.1252 4.91087 12.1306C4.94809 12.1398 4.99063 12.1517 5.0322 12.1636C5.04564 12.1675 5.05899 12.1714 5.07201 12.1751C5.09914 12.183 5.12486 12.1904 5.14701 12.1966C5.16342 12.2011 5.17809 12.205 5.19011 12.2078C5.2017 12.2105 5.2121 12.2126 5.21932 12.2129L5.21938 12.2129C5.25053 12.2144 5.28705 12.2069 5.32436 12.1985C5.33072 12.197 5.33712 12.1956 5.34357 12.1941C5.37586 12.1866 5.40931 12.1789 5.44346 12.1743C5.52481 12.1633 5.60552 12.1707 5.67178 12.2412L5.67194 12.2413L5.6721 12.2415C5.73761 12.3077 5.75928 12.3745 5.76476 12.449C5.76754 12.4867 5.76615 12.5263 5.76399 12.5692C5.76364 12.5761 5.76327 12.5831 5.7629 12.5902C5.76148 12.6171 5.76 12.6452 5.75932 12.6745C5.75571 12.6707 5.75322 12.6666 5.75001 12.6602C5.74908 12.6584 5.74813 12.6564 5.74712 12.6543C5.73995 12.6394 5.72976 12.6182 5.70258 12.5863L5.67191 12.6023C5.69319 12.6838 5.69284 12.7995 5.68673 12.9194C5.68455 12.9621 5.68163 13.0054 5.67878 13.0476C5.67538 13.098 5.67209 13.1468 5.67032 13.1909C5.66789 13.1866 5.66493 13.181 5.66114 13.1734L5.64266 13.136L5.62855 13.1752C5.60887 13.2299 5.58843 13.2686 5.56916 13.3051C5.55991 13.3227 5.55093 13.3397 5.54243 13.3577C5.52746 13.3895 5.51506 13.4225 5.50722 13.4638C5.50706 13.4635 5.5069 13.4632 5.50674 13.463L5.48951 13.4339L5.47537 13.4646C5.46328 13.4908 5.43241 13.5183 5.39055 13.5478C5.37007 13.5622 5.34777 13.5766 5.32508 13.591C5.32285 13.5925 5.32062 13.5939 5.31838 13.5953C5.29797 13.6083 5.27736 13.6215 5.25805 13.6347C5.21604 13.6633 5.17658 13.6943 5.15819 13.728C5.14945 13.744 5.14497 13.7616 5.14788 13.78C5.11851 13.7655 5.09346 13.7552 5.07169 13.7462C5.06471 13.7433 5.05807 13.7406 5.05174 13.7379C5.01387 13.7218 4.98701 13.7075 4.95935 13.6754L4.94927 13.6636L4.93628 13.672C4.90941 13.6893 4.88863 13.7194 4.86759 13.756C4.76847 13.705 4.73474 13.6289 4.70526 13.5431C4.7021 13.5339 4.69899 13.5246 4.69584 13.5152C4.66832 13.4327 4.63824 13.3425 4.5517 13.2693L4.53429 13.2546L4.52429 13.2751C4.50789 13.3087 4.5031 13.3239 4.49812 13.3443C4.49745 13.347 4.49677 13.3499 4.49606 13.3529C4.49447 13.3596 4.49269 13.3671 4.49033 13.3762C4.48441 13.3503 4.47918 13.326 4.47417 13.3028C4.47038 13.2852 4.46671 13.2682 4.46296 13.2515C4.45046 13.1957 4.43723 13.1442 4.41584 13.0888L4.40277 13.055L4.38408 13.0861C4.36669 13.115 4.35919 13.1234 4.34797 13.1357L4.34731 13.1364C4.33874 13.1459 4.32826 13.1574 4.31143 13.1792C4.30196 13.1279 4.29138 13.0889 4.28242 13.0558C4.27953 13.0451 4.27682 13.0351 4.27436 13.0255C4.26245 12.9789 4.25626 12.9411 4.26454 12.8848L4.27055 12.8439L4.23676 12.8678C4.20143 12.8927 4.19332 12.9015 4.18549 12.9128C4.1851 12.9134 4.18472 12.914 4.18434 12.9145C4.18285 12.9167 4.18141 12.9188 4.17952 12.9213C4.21722 12.7164 4.29824 12.5402 4.39286 12.4241C4.44426 12.361 4.49894 12.3166 4.55193 12.2943C4.60131 12.2736 4.64887 12.2721 4.69226 12.2922Z" fill="black"/>
<path d="M4.42383 13.0315C4.48431 12.8833 4.5388 12.8368 4.57788 12.7414C4.64687 12.5737 4.65811 12.4396 4.71606 12.4601C4.77404 12.4806 4.77311 12.5496 4.69556 12.7143C4.61801 12.8791 4.58172 12.914 4.42383 13.0314V13.0315ZM4.65275 13.4023C4.677 13.2694 4.71524 13.221 4.73096 13.1355C4.75887 12.985 4.74331 12.873 4.79718 12.8789C4.85105 12.8848 4.86322 12.9416 4.82738 13.0912C4.79153 13.2409 4.76679 13.2763 4.65273 13.4023H4.65275ZM4.92656 13.66C4.93339 13.5312 4.96358 13.4809 4.96811 13.3979C4.97629 13.252 4.9482 13.1476 4.99956 13.147C5.05093 13.1464 5.06924 13.1989 5.0535 13.3449C5.03776 13.491 5.01876 13.5275 4.92656 13.66ZM5.51454 12.8177C5.40211 12.7057 5.33414 12.6847 5.26161 12.6127C5.13384 12.4862 5.07212 12.3674 5.02663 12.4095C4.98114 12.4516 5.00852 12.5147 5.14302 12.6351C5.27755 12.7555 5.32432 12.7731 5.51454 12.8177ZM5.44603 13.2506C5.37281 13.1382 5.31907 13.109 5.27178 13.0367C5.18842 12.9095 5.15974 12.8002 5.11249 12.8273C5.06521 12.8544 5.07578 12.9115 5.16614 13.0347C5.25648 13.158 5.29282 13.1807 5.44603 13.2507V13.2506Z" fill="#B3B3B3"/>
<path d="M10.465 9.80859C10.3333 10.0631 10.6954 9.72393 11.263 10.1501C11.3682 10.2293 11.519 10.542 11.519 10.687C11.3981 10.6613 11.1841 10.542 11.1841 10.542C11.1841 10.542 11.4352 10.7936 11.4352 11.0835C11.3465 11.0281 11.3021 11.0364 11.2726 10.9683C11.2726 11.0622 11.3516 11.122 11.3516 11.267C11.2976 11.2236 11.2399 11.1851 11.1791 11.1519C11.2628 11.2969 11.0266 11.5782 11.1448 11.6721C10.938 11.6421 10.7265 11.51 10.6427 11.3651C10.5984 11.3949 10.5936 11.4419 10.5918 11.4919C10.5984 11.4974 10.2771 11.2535 10.3066 11.1598C10.2635 11.2202 10.2575 11.2535 10.2476 11.3216C10.1296 11.2052 10.0214 11.0888 9.98205 10.9384C9.92962 11.0065 9.92632 11.0065 9.87387 11.0746C9.83454 10.8362 9.83454 10.8447 9.91322 10.6403C9.85748 10.6772 9.81159 10.7141 9.75586 10.7596C9.80862 10.4142 10.0778 10.0092 10.465 9.80868L10.465 9.80859Z" fill="#3D5DA7"/>
<path d="M10.1406 11.0524C10.1617 10.877 10.2075 10.8109 10.2212 10.6979C10.2457 10.4993 10.2167 10.354 10.2871 10.3577C10.3575 10.3614 10.3777 10.4347 10.3429 10.6329C10.3082 10.8312 10.2788 10.8793 10.1406 11.0524V11.0524ZM10.5081 11.3736C10.4938 11.2256 10.5212 11.1626 10.5121 11.0673C10.4964 10.8995 10.4446 10.7859 10.506 10.7755C10.5673 10.765 10.5984 10.8213 10.605 10.9906C10.6116 11.16 10.5952 11.2051 10.5081 11.3736H10.5081ZM11.0817 11.6356C11.0193 11.5076 10.9657 11.4694 10.9255 11.387C10.8543 11.2421 10.8394 11.1238 10.7846 11.1452C10.7297 11.1667 10.7327 11.2279 10.812 11.3697C10.8912 11.5115 10.9271 11.5404 11.0817 11.6356ZM11.2802 10.4887C11.1213 10.4051 11.0397 10.404 10.9374 10.3503C10.7571 10.256 10.6521 10.1496 10.6149 10.2082C10.5776 10.2668 10.6273 10.325 10.8132 10.4107C10.9991 10.4964 11.0562 10.5004 11.2803 10.4887H11.2802ZM11.3384 10.9679C11.2228 10.8717 11.1543 10.8575 11.0797 10.7956C10.9483 10.6869 10.8829 10.5802 10.8389 10.6235C10.795 10.6667 10.8244 10.7239 10.9623 10.8262C11.1003 10.9286 11.1475 10.9413 11.3384 10.9679Z" fill="#B3B3B3"/>
</g>
<defs>
<clipPath id="clip0_1692_54162">
<rect x="2.02539" y="5.50342" width="19.9495" height="13.2997" rx="1" fill="white"/>
</clipPath>
</defs>
</svg>
