<svg width="24" height="25" viewBox="0 0 24 25" fill="none" xmlns="http://www.w3.org/2000/svg">
<g clip-path="url(#clip0_1692_54014)">
<path d="M21.9964 5.56738H2.04688V18.8671H21.9964V5.56738Z" fill="#003399"/>
<path d="M12.0246 7.04541L11.8312 7.64059L11.7963 7.74812L12.1476 7.86228L12.1168 7.65741L12.1015 7.55596L12.0246 7.04541Z" fill="#FFCC00"/>
<path d="M7.75102 15.0319L7.94441 14.4367L7.97935 14.3292L8.3307 14.4433L8.18532 14.5909L8.11332 14.664L7.75102 15.0319Z" fill="#FFCC00"/>
<path d="M9.80799 15.3179L9.61461 15.9131L9.57967 16.0206L9.93102 16.1348L9.90017 15.9299L9.88489 15.8285L9.80799 15.3179Z" fill="#FFCC00"/>
<path d="M9.37369 8.97598L9.736 8.60814L9.70304 8.58419L9.64453 8.54168L9.61158 8.51774L9.37369 8.97598Z" fill="#FFCC00"/>
<path d="M9.10529 8.1499L9.56708 8.3808L9.57967 8.34206L9.60202 8.27327L9.61461 8.23453L9.10529 8.1499Z" fill="#FFCC00"/>
<path d="M9.80799 7.63935L9.7311 8.1499H9.84416L9.88489 8.1499L9.80799 7.63935Z" fill="#FFCC00"/>
<path d="M10.0014 8.23453L10.014 8.27327L10.0363 8.34206L10.0489 8.3808L10.5107 8.1499L10.0014 8.23453Z" fill="#FFCC00"/>
<path d="M9.91294 8.5842L9.87999 8.60814L10.2423 8.97598L10.0044 8.51774L9.97145 8.54168L9.91294 8.5842Z" fill="#FFCC00"/>
<path d="M9.61158 8.51774L9.65885 8.42668L9.56708 8.3808L9.53958 8.46543L9.61158 8.51774Z" fill="#FFCC00"/>
<path fill-rule="evenodd" clip-rule="evenodd" d="M9.61461 8.23453L9.10529 8.1499H9.64211L9.61461 8.23453ZM9.7311 8.1499L9.71582 8.25135L9.61461 8.23453L9.60202 8.27327L9.57967 8.34206L9.56708 8.3808L9.10529 8.1499L9.53958 8.46543L9.37369 8.97598L9.80799 8.66044L10.2423 8.97598L10.0764 8.46543L10.5107 8.1499H9.97388L9.80799 7.63935L9.64211 8.1499H9.7311ZM9.88489 8.1499L9.80799 7.63935L9.7311 8.1499H9.84416L9.88489 8.1499ZM10.0014 8.23453L9.97388 8.1499H9.88489L9.90017 8.25135L10.0014 8.23453ZM10.0014 8.23453L10.5107 8.1499L10.0489 8.3808L10.0363 8.34206L10.014 8.27327L10.0014 8.23453ZM9.87999 8.60814L9.80799 8.66044L9.736 8.60814L9.80799 8.53504L9.87999 8.60814ZM9.61158 8.51774L9.65885 8.42668L9.56708 8.3808L9.53958 8.46543L9.61158 8.51774ZM9.61158 8.51774L9.64453 8.54168L9.70304 8.58419L9.736 8.60814L9.37369 8.97598L9.61158 8.51774ZM9.87999 8.60814L10.2423 8.97598L10.0044 8.51774L9.97145 8.54168L9.91294 8.5842L9.87999 8.60814Z" fill="#FFCC00"/>
<path d="M9.64211 8.1499L9.61461 8.23453L9.71582 8.25135L9.7311 8.1499H9.64211Z" fill="#FFCC00"/>
<path d="M10.0014 8.23453L9.97388 8.1499H9.88489L9.90017 8.25135L10.0014 8.23453Z" fill="#FFCC00"/>
<path d="M9.80799 8.53504L9.736 8.60814L9.80799 8.66044L9.87999 8.60814L9.80799 8.53504Z" fill="#FFCC00"/>
<path d="M11.5903 8.38204L11.9526 8.0142L11.9197 7.99026L11.8611 7.94774L11.8282 7.9238L11.5903 8.38204Z" fill="#FFCC00"/>
<path d="M12.1015 7.55596H12.1905L12.0246 7.04541L12.1015 7.55596Z" fill="#FFCC00"/>
<path d="M11.3219 7.55596L11.7837 7.78686L11.7963 7.74812L11.8186 7.67933L11.8312 7.64059L11.3219 7.55596Z" fill="#FFCC00"/>
<path d="M12.2655 7.78686L12.7273 7.55596L12.218 7.64059L12.2306 7.67933L12.2529 7.74812L12.2655 7.78686Z" fill="#FFCC00"/>
<path d="M12.221 7.9238L12.1881 7.94774L12.1296 7.99026L12.0966 8.0142L12.4589 8.38204L12.221 7.9238Z" fill="#FFCC00"/>
<path d="M11.8282 7.9238L11.8755 7.83274L11.7837 7.78686L11.7562 7.87149L11.8282 7.9238Z" fill="#FFCC00"/>
<path d="M12.1905 7.55596H12.1015L12.1168 7.65741L12.218 7.64059L12.1905 7.55596Z" fill="#FFCC00"/>
<path d="M12.221 7.9238L12.293 7.87149L12.2655 7.78686L12.1737 7.83274L12.221 7.9238Z" fill="#FFCC00"/>
<path fill-rule="evenodd" clip-rule="evenodd" d="M11.9477 7.55596L12.0246 7.04541L12.1015 7.55596L12.1168 7.65741L12.218 7.64059L12.2306 7.67933L12.2529 7.74812L12.2655 7.78686L12.1737 7.83274L12.221 7.9238L12.1881 7.94774L12.1296 7.99026L12.0966 8.0142L12.0246 7.9411L11.9526 8.0142L11.9197 7.99026L11.8611 7.94774L11.8282 7.9238L11.8755 7.83274L11.7837 7.78686L11.7963 7.74812L11.8186 7.67933L11.8312 7.64059L11.3219 7.55596H11.9477ZM11.7562 7.87149L11.3219 7.55596L11.7837 7.78686L11.7562 7.87149ZM11.5903 8.38204L11.7562 7.87149L11.8282 7.9238L11.5903 8.38204ZM12.0246 8.06651L11.5903 8.38204L11.9526 8.0142L12.0246 8.06651ZM12.4589 8.38204L12.0246 8.06651L12.0966 8.0142L12.4589 8.38204ZM12.293 7.87149L12.4589 8.38204L12.221 7.9238L12.293 7.87149ZM12.7273 7.55596H12.1905L12.218 7.64059L12.7273 7.55596ZM12.7273 7.55596L12.293 7.87149L12.2655 7.78686L12.7273 7.55596Z" fill="#FFCC00"/>
<path d="M12.0966 8.0142L12.0246 7.9411L11.9526 8.0142L12.0246 8.06651L12.0966 8.0142Z" fill="#FFCC00"/>
<path d="M14.4695 8.34206L14.4821 8.3808L14.9439 8.1499L14.4346 8.23453L14.4472 8.27327L14.4695 8.34206Z" fill="#FFCC00"/>
<path d="M14.2412 7.63935L14.1643 8.1499L14.2051 8.1499H14.3181L14.2412 7.63935Z" fill="#FFCC00"/>
<path d="M13.5385 8.1499L14.0003 8.3808L14.0129 8.34206L14.0352 8.27327L14.0478 8.23453L13.5385 8.1499Z" fill="#FFCC00"/>
<path d="M13.8069 8.97598L14.1692 8.60814L14.1363 8.5842L14.0778 8.54168L14.0448 8.51774L13.8069 8.97598Z" fill="#FFCC00"/>
<path d="M14.6755 8.97598L14.4376 8.51774L14.4047 8.54168L14.3462 8.58419L14.3132 8.60814L14.6755 8.97598Z" fill="#FFCC00"/>
<path fill-rule="evenodd" clip-rule="evenodd" d="M14.0478 8.23453L13.5385 8.1499H14.0753L14.0478 8.23453ZM14.1643 8.1499L14.149 8.25135L14.0478 8.23453L14.0352 8.27327L14.0129 8.34206L14.0003 8.3808L13.5385 8.1499L13.9728 8.46543L13.8069 8.97598L14.2412 8.66044L14.6755 8.97598L14.5096 8.46543L14.9439 8.1499H14.4071L14.2412 7.63935L14.0753 8.1499H14.1643ZM14.3181 8.1499H14.2051L14.1643 8.1499L14.2412 7.63935L14.3181 8.1499ZM14.4346 8.23453L14.4472 8.27327L14.4695 8.34206L14.4821 8.3808L14.9439 8.1499L14.4346 8.23453ZM14.4346 8.23453L14.3334 8.25135L14.3181 8.1499H14.4071L14.4346 8.23453ZM14.3132 8.60814L14.2412 8.66044L14.1692 8.60814L14.2412 8.53504L14.3132 8.60814ZM14.0448 8.51774L13.8069 8.97598L14.1692 8.60814L14.1363 8.5842L14.0778 8.54168L14.0448 8.51774ZM14.3132 8.60814L14.6755 8.97598L14.4376 8.51774L14.4047 8.54168L14.3462 8.58419L14.3132 8.60814ZM14.0448 8.51774L13.9728 8.46543L14.0003 8.3808L14.0921 8.42668L14.0448 8.51774Z" fill="#FFCC00"/>
<path d="M14.0753 8.1499L14.0478 8.23453L14.149 8.25135L14.1643 8.1499H14.0753Z" fill="#FFCC00"/>
<path d="M14.3181 8.1499L14.3334 8.25135L14.4346 8.23453L14.4071 8.1499H14.3181Z" fill="#FFCC00"/>
<path d="M14.2412 8.53504L14.1692 8.60814L14.2412 8.66044L14.3132 8.60814L14.2412 8.53504Z" fill="#FFCC00"/>
<path d="M13.9728 8.46543L14.0448 8.51774L14.0921 8.42668L14.0003 8.3808L13.9728 8.46543Z" fill="#FFCC00"/>
<path d="M15.8639 9.26202L15.787 9.77257L15.8277 9.77257H15.9408L15.8639 9.26202Z" fill="#FFCC00"/>
<path d="M16.0922 9.96473L16.1048 10.0035L16.5666 9.77257L16.0573 9.85721L16.0699 9.89595L16.0922 9.96473Z" fill="#FFCC00"/>
<path d="M15.1612 9.77257L15.623 10.0035L15.6356 9.96473L15.6579 9.89595L15.6705 9.85721L15.1612 9.77257Z" fill="#FFCC00"/>
<path d="M15.4296 10.5987L15.7919 10.2308L15.7589 10.2069L15.7004 10.1644L15.6675 10.1404L15.4296 10.5987Z" fill="#FFCC00"/>
<path d="M15.9688 10.2069L15.9359 10.2308L16.2982 10.5987L16.0603 10.1404L16.0274 10.1644L15.9688 10.2069Z" fill="#FFCC00"/>
<path d="M15.7147 10.0494L15.623 10.0035L15.5955 10.0881L15.6675 10.1404L15.7147 10.0494Z" fill="#FFCC00"/>
<path fill-rule="evenodd" clip-rule="evenodd" d="M15.6356 9.96473L15.6579 9.89595L15.6705 9.85721L15.7717 9.87403L15.787 9.77257L15.8277 9.77257H15.9408L15.9561 9.87403L16.0573 9.85721L16.0699 9.89595L16.0922 9.96473L16.1048 10.0035L16.5666 9.77257L16.1323 10.0881L16.2982 10.5987L16.0603 10.1404L16.0274 10.1644L15.9688 10.2069L15.9359 10.2308L15.8639 10.1577L15.7919 10.2308L15.7589 10.2069L15.7004 10.1644L15.6675 10.1404L15.7147 10.0494L15.623 10.0035L15.6356 9.96473ZM15.5955 10.0881L15.1612 9.77257L15.623 10.0035L15.5955 10.0881ZM15.4296 10.5987L15.6675 10.1404L15.5955 10.0881L15.4296 10.5987ZM15.8639 10.2831L16.2982 10.5987L15.9359 10.2308L15.8639 10.2831ZM15.8639 10.2831L15.4296 10.5987L15.7919 10.2308L15.8639 10.2831ZM15.698 9.77257H15.1612L15.6705 9.85721L15.698 9.77257ZM15.8639 9.26202L15.787 9.77257H15.698L15.8639 9.26202ZM16.0298 9.77257H16.5666L16.0573 9.85721L16.0298 9.77257ZM16.0298 9.77257L15.8639 9.26202L15.9408 9.77257H16.0298Z" fill="#FFCC00"/>
<path d="M15.9408 9.77257L15.9561 9.87403L16.0573 9.85721L16.0298 9.77257H15.9408Z" fill="#FFCC00"/>
<path d="M15.787 9.77257H15.698L15.6705 9.85721L15.7717 9.87403L15.787 9.77257Z" fill="#FFCC00"/>
<path d="M15.8639 10.1577L15.7919 10.2308L15.8639 10.2831L15.9359 10.2308L15.8639 10.1577Z" fill="#FFCC00"/>
<path d="M16.0235 12.8153L16.3858 12.4474L16.3529 12.4235L16.2944 12.381L16.2614 12.357L16.0235 12.8153Z" fill="#FFCC00"/>
<path d="M16.5628 12.4235L16.5298 12.4474L16.8921 12.8153L16.6542 12.357L16.6213 12.381L16.5628 12.4235Z" fill="#FFCC00"/>
<path d="M15.7551 11.9892L16.2169 12.2201L16.2295 12.1813L16.2519 12.1126L16.2644 12.0738L15.7551 11.9892Z" fill="#FFCC00"/>
<path d="M16.4578 11.4786L16.3809 11.9892H16.4217H16.494H16.5347L16.4578 11.4786Z" fill="#FFCC00"/>
<path d="M16.6512 12.0738L16.6638 12.1126L16.6862 12.1813L16.6987 12.2201L17.1605 11.9892L16.6512 12.0738Z" fill="#FFCC00"/>
<path fill-rule="evenodd" clip-rule="evenodd" d="M16.2919 11.9892L16.4578 11.4786L16.3809 11.9892H16.2919ZM16.2644 12.0738L16.2919 11.9892H15.7551L16.1894 12.3047L16.0235 12.8153L16.4578 12.4997L16.8921 12.8153L16.7262 12.3047L17.1605 11.9892H16.6237L16.4578 11.4786L16.5347 11.9892H16.494H16.4217H16.3809L16.3657 12.0906L16.2644 12.0738ZM16.2169 12.2201L15.7551 11.9892L16.2644 12.0738L16.2519 12.1126L16.2295 12.1813L16.2169 12.2201ZM16.2614 12.357L16.1894 12.3047L16.2169 12.2201L16.3087 12.266L16.2614 12.357ZM16.3858 12.4474L16.3529 12.4235L16.2944 12.381L16.2614 12.357L16.0235 12.8153L16.3858 12.4474ZM16.5298 12.4474L16.5628 12.4235L16.6213 12.381L16.6542 12.357L16.8921 12.8153L16.5298 12.4474ZM16.5298 12.4474L16.4578 12.3743L16.3858 12.4474L16.4578 12.4997L16.5298 12.4474ZM16.6512 12.0738L16.6237 11.9892H16.5347L16.55 12.0906L16.6512 12.0738ZM16.6512 12.0738L16.6638 12.1126L16.6862 12.1813L16.6987 12.2201L17.1605 11.9892L16.6512 12.0738Z" fill="#FFCC00"/>
<path d="M16.6237 11.9892H16.5347L16.55 12.0906L16.6512 12.0738L16.6237 11.9892Z" fill="#FFCC00"/>
<path d="M16.3809 11.9892H16.2919L16.2644 12.0738L16.3657 12.0906L16.3809 11.9892Z" fill="#FFCC00"/>
<path d="M16.2169 12.2201L16.1894 12.3047L16.2614 12.357L16.3087 12.266L16.2169 12.2201Z" fill="#FFCC00"/>
<path d="M16.5298 12.4474L16.4578 12.3743L16.3858 12.4474L16.4578 12.4997L16.5298 12.4474Z" fill="#FFCC00"/>
<path d="M15.4296 15.0319L15.7919 14.664L15.7589 14.6401L15.7004 14.5976L15.6675 14.5736L15.4296 15.0319Z" fill="#FFCC00"/>
<path d="M15.6705 14.2904L15.1612 14.2058L15.623 14.4367L15.6356 14.398L15.6579 14.3292L15.6705 14.2904Z" fill="#FFCC00"/>
<path d="M15.8639 13.6953L15.787 14.2058H15.8277H15.9001H15.9408L15.8639 13.6953Z" fill="#FFCC00"/>
<path d="M16.0922 14.398L16.1048 14.4367L16.5666 14.2058L16.0573 14.2904L16.0699 14.3292L16.0922 14.398Z" fill="#FFCC00"/>
<path d="M15.9688 14.6401L15.9359 14.664L16.2982 15.0319L16.0603 14.5736L16.0274 14.5976L15.9688 14.6401Z" fill="#FFCC00"/>
<path fill-rule="evenodd" clip-rule="evenodd" d="M15.1612 14.2058L15.6705 14.2904L15.6579 14.3292L15.6356 14.398L15.623 14.4367L15.1612 14.2058ZM15.5955 14.5213L15.1612 14.2058H15.698L15.6705 14.2904L15.7717 14.3073L15.787 14.2058H15.8277H15.9001H15.9408L15.9561 14.3073L16.0573 14.2904L16.0699 14.3292L16.0922 14.398L16.1048 14.4367L16.5666 14.2058L16.1323 14.5213L16.2982 15.0319L16.0603 14.5736L16.0274 14.5976L15.9688 14.6401L15.9359 14.664L15.8639 14.5909L15.7919 14.664L15.7589 14.6401L15.7004 14.5976L15.6675 14.5736L15.7147 14.4826L15.623 14.4367L15.5955 14.5213ZM15.4296 15.0319L15.5955 14.5213L15.6675 14.5736L15.4296 15.0319ZM15.8639 14.7163L16.2982 15.0319L15.9359 14.664L15.8639 14.7163ZM15.8639 14.7163L15.4296 15.0319L15.7919 14.664L15.8639 14.7163ZM16.0298 14.2058H16.5666L16.0573 14.2904L16.0298 14.2058ZM15.8639 13.6953L15.698 14.2058H15.787L15.8639 13.6953ZM15.8639 13.6953L16.0298 14.2058H15.9408L15.8639 13.6953Z" fill="#FFCC00"/>
<path d="M15.8639 14.5909L15.7919 14.664L15.8639 14.7163L15.9359 14.664L15.8639 14.5909Z" fill="#FFCC00"/>
<path d="M15.6675 14.5736L15.7147 14.4826L15.623 14.4367L15.5955 14.5213L15.6675 14.5736Z" fill="#FFCC00"/>
<path d="M15.698 14.2058L15.6705 14.2904L15.7717 14.3073L15.787 14.2058H15.698Z" fill="#FFCC00"/>
<path d="M15.9408 14.2058L15.9561 14.3073L16.0573 14.2904L16.0298 14.2058H15.9408Z" fill="#FFCC00"/>
<path d="M14.2412 15.3179L14.1643 15.8285H14.2051H14.2774H14.3181L14.2412 15.3179Z" fill="#FFCC00"/>
<path d="M14.4695 16.0206L14.4821 16.0594L14.9439 15.8285L14.4346 15.9131L14.4472 15.9518L14.4695 16.0206Z" fill="#FFCC00"/>
<path d="M14.3462 16.2628L14.3132 16.2867L14.6755 16.6546L14.4376 16.1963L14.4047 16.2203L14.3462 16.2628Z" fill="#FFCC00"/>
<path d="M13.8069 16.6546L14.1692 16.2867L14.1363 16.2628L14.0778 16.2203L14.0448 16.1963L13.8069 16.6546Z" fill="#FFCC00"/>
<path d="M14.0478 15.9131L13.5385 15.8285L14.0003 16.0594L14.0129 16.0206L14.0352 15.9518L14.0478 15.9131Z" fill="#FFCC00"/>
<path fill-rule="evenodd" clip-rule="evenodd" d="M14.0352 15.9518L14.0129 16.0206L14.0003 16.0594L13.5385 15.8285L14.0478 15.9131L14.0352 15.9518ZM14.0753 15.8285L14.0478 15.9131L14.149 15.9299L14.1643 15.8285H14.2051H14.2774H14.3181L14.3334 15.9299L14.4346 15.9131L14.4472 15.9518L14.4695 16.0206L14.4821 16.0594L14.3904 16.1053L14.4376 16.1963L14.4047 16.2203L14.3462 16.2628L14.3132 16.2867L14.6755 16.6546L14.2412 16.339L13.8069 16.6546L14.1692 16.2867L14.1363 16.2628L14.0778 16.2203L14.0448 16.1963L14.0921 16.1053L14.0003 16.0594L13.9728 16.144L13.5385 15.8285H14.0753ZM14.2412 15.3179L14.0753 15.8285H14.1643L14.2412 15.3179ZM14.4071 15.8285H14.3181L14.2412 15.3179L14.4071 15.8285ZM14.9439 15.8285L14.4821 16.0594L14.5096 16.144L14.4376 16.1963L14.6755 16.6546L14.5096 16.144L14.9439 15.8285ZM14.9439 15.8285L14.4346 15.9131L14.4071 15.8285H14.9439ZM13.9728 16.144L13.8069 16.6546L14.0448 16.1963L13.9728 16.144Z" fill="#FFCC00"/>
<path d="M14.4821 16.0594L14.3904 16.1053L14.4376 16.1963L14.5096 16.144L14.4821 16.0594Z" fill="#FFCC00"/>
<path d="M14.3181 15.8285L14.3334 15.9299L14.4346 15.9131L14.4071 15.8285H14.3181Z" fill="#FFCC00"/>
<path d="M14.149 15.9299L14.1643 15.8285H14.0753L14.0478 15.9131L14.149 15.9299Z" fill="#FFCC00"/>
<path d="M14.0448 16.1963L14.0921 16.1053L14.0003 16.0594L13.9728 16.144L14.0448 16.1963Z" fill="#FFCC00"/>
<path d="M11.3219 16.4224L11.7837 16.6533L11.7963 16.6146L11.8186 16.5458L11.8312 16.507L11.3219 16.4224Z" fill="#FFCC00"/>
<path d="M12.0246 15.9119L11.9477 16.4224H11.9884H12.0608H12.1015L12.0246 15.9119Z" fill="#FFCC00"/>
<path d="M12.218 16.507L12.2306 16.5458L12.2529 16.6146L12.2655 16.6533L12.7273 16.4224L12.218 16.507Z" fill="#FFCC00"/>
<path d="M12.221 16.7903L12.1881 16.8142L12.1296 16.8567L12.0966 16.8807L12.4589 17.2485L12.221 16.7903Z" fill="#FFCC00"/>
<path d="M11.5903 17.2485L11.9526 16.8807L11.9197 16.8567L11.8611 16.8142L11.8282 16.7903L11.5903 17.2485Z" fill="#FFCC00"/>
<path fill-rule="evenodd" clip-rule="evenodd" d="M11.8312 16.507L11.3219 16.4224H11.8587L11.8312 16.507ZM11.9477 16.4224L11.9324 16.5239L11.8312 16.507L11.8186 16.5458L11.7963 16.6146L11.7837 16.6533L11.3219 16.4224L11.7562 16.7379L11.5903 17.2485L12.0246 16.933L12.4589 17.2485L12.293 16.7379L12.7273 16.4224H12.1905L12.0246 15.9119L11.8587 16.4224H11.9477ZM12.1015 16.4224H12.0608H11.9884H11.9477L12.0246 15.9119L12.1015 16.4224ZM12.218 16.507L12.1168 16.5239L12.1015 16.4224H12.1905L12.218 16.507ZM12.2655 16.6533L12.7273 16.4224L12.218 16.507L12.2306 16.5458L12.2529 16.6146L12.2655 16.6533ZM12.221 16.7903L12.293 16.7379L12.2655 16.6533L12.1737 16.6992L12.221 16.7903ZM12.221 16.7903L12.4589 17.2485L12.0966 16.8807L12.1296 16.8567L12.1881 16.8142L12.221 16.7903ZM11.8282 16.7903L11.8611 16.8142L11.9197 16.8567L11.9526 16.8807L11.5903 17.2485L11.8282 16.7903ZM11.8282 16.7903L11.8755 16.6992L11.7837 16.6533L11.7562 16.7379L11.8282 16.7903Z" fill="#FFCC00"/>
<path d="M11.8282 16.7903L11.8755 16.6992L11.7837 16.6533L11.7562 16.7379L11.8282 16.7903Z" fill="#FFCC00"/>
<path d="M11.8587 16.4224L11.8312 16.507L11.9324 16.5239L11.9477 16.4224H11.8587Z" fill="#FFCC00"/>
<path d="M12.1015 16.4224L12.1168 16.5239L12.218 16.507L12.1905 16.4224H12.1015Z" fill="#FFCC00"/>
<path d="M12.221 16.7903L12.293 16.7379L12.2655 16.6533L12.1737 16.6992L12.221 16.7903Z" fill="#FFCC00"/>
<path d="M9.37369 16.6546L9.736 16.2867L9.70304 16.2628L9.64453 16.2203L9.61158 16.1963L9.37369 16.6546Z" fill="#FFCC00"/>
<path d="M9.37369 16.6546L9.61158 16.1963L9.53958 16.144L9.37369 16.6546Z" fill="#FFCC00"/>
<path d="M9.10528 15.8285L9.56708 16.0594L9.57967 16.0206L9.60202 15.9518L9.61461 15.9131L9.10528 15.8285Z" fill="#FFCC00"/>
<path d="M9.88489 15.8285H9.97388L9.80799 15.3179L9.88489 15.8285Z" fill="#FFCC00"/>
<path d="M10.0489 16.0594L10.5107 15.8285L10.0014 15.9131L10.014 15.9518L10.0363 16.0206L10.0489 16.0594Z" fill="#FFCC00"/>
<path d="M10.0044 16.1963L9.97145 16.2203L9.91294 16.2628L9.87999 16.2867L10.2423 16.6546L10.0044 16.1963Z" fill="#FFCC00"/>
<path fill-rule="evenodd" clip-rule="evenodd" d="M9.80799 15.3179L9.7311 15.8285H9.10528L9.53958 16.144L9.56708 16.0594L9.65885 16.1053L9.61158 16.1963L9.64453 16.2203L9.70304 16.2628L9.736 16.2867L9.37369 16.6546L9.80799 16.339L10.2423 16.6546L10.0764 16.144L10.5107 15.8285H9.97388L10.0014 15.9131L9.90017 15.9299L9.88489 15.8285L9.80799 15.3179ZM10.0489 16.0594L10.5107 15.8285L10.0014 15.9131L10.014 15.9518L10.0363 16.0206L10.0489 16.0594ZM10.0044 16.1963L10.0764 16.144L10.0489 16.0594L9.95713 16.1053L10.0044 16.1963ZM9.87999 16.2867L9.80799 16.2136L9.736 16.2867L9.80799 16.339L9.87999 16.2867ZM9.87999 16.2867L9.91294 16.2628L9.97145 16.2203L10.0044 16.1963L10.2423 16.6546L9.87999 16.2867ZM9.56708 16.0594L9.57967 16.0206L9.60202 15.9518L9.61461 15.9131L9.10528 15.8285L9.56708 16.0594Z" fill="#FFCC00"/>
<path d="M9.97388 15.8285H9.88489L9.90017 15.9299L10.0014 15.9131L9.97388 15.8285Z" fill="#FFCC00"/>
<path d="M9.87999 16.2867L9.80799 16.2136L9.736 16.2867L9.80799 16.339L9.87999 16.2867Z" fill="#FFCC00"/>
<path d="M10.0044 16.1963L10.0764 16.144L10.0489 16.0594L9.95713 16.1053L10.0044 16.1963Z" fill="#FFCC00"/>
<path d="M9.56708 16.0594L9.53958 16.144L9.61158 16.1963L9.65885 16.1053L9.56708 16.0594Z" fill="#FFCC00"/>
<path d="M8.18532 14.7163L8.11332 14.664L7.75102 15.0319L8.18532 14.7163Z" fill="#FFCC00"/>
<path d="M8.18532 13.6953L8.10843 14.2058H8.14916H8.22148H8.26221L8.18532 13.6953Z" fill="#FFCC00"/>
<path d="M8.42623 14.4367L8.88803 14.2058L8.37871 14.2904L8.39129 14.3292L8.41364 14.398L8.42623 14.4367Z" fill="#FFCC00"/>
<path d="M8.38173 14.5736L8.34878 14.5976L8.29027 14.6401L8.25732 14.664L8.61962 15.0319L8.38173 14.5736Z" fill="#FFCC00"/>
<path d="M7.48261 14.2058L7.94441 14.4367L7.957 14.398L7.97935 14.3292L7.99193 14.2904L7.48261 14.2058Z" fill="#FFCC00"/>
<path fill-rule="evenodd" clip-rule="evenodd" d="M7.957 14.398L7.97935 14.3292L7.99193 14.2904L8.09314 14.3073L8.10843 14.2058H8.14916H8.22148H8.26221L8.27749 14.3073L8.37871 14.2904L8.39129 14.3292L8.41364 14.398L8.42623 14.4367L8.33446 14.4826L8.38173 14.5736L8.34878 14.5976L8.29027 14.6401L8.25732 14.664L8.18532 14.5909L8.11332 14.664L7.75102 15.0319L7.9889 14.5736L7.48261 14.2058L7.94441 14.4367L7.957 14.398ZM8.01943 14.2058H7.48261L7.99193 14.2904L8.01943 14.2058ZM8.18532 13.6953L8.10843 14.2058H8.01943L8.18532 13.6953ZM8.35121 14.2058H8.26221L8.18532 13.6953L8.35121 14.2058ZM8.88803 14.2058L8.37871 14.2904L8.35121 14.2058H8.88803ZM8.45373 14.5213L8.42623 14.4367L8.88803 14.2058L8.45373 14.5213ZM8.61962 15.0319L8.25732 14.664L8.18532 14.7163L8.61962 15.0319ZM8.61962 15.0319L8.45373 14.5213L8.38173 14.5736L8.61962 15.0319Z" fill="#FFCC00"/>
<path d="M8.42623 14.4367L8.33446 14.4826L8.38173 14.5736L8.45373 14.5213L8.42623 14.4367Z" fill="#FFCC00"/>
<path d="M8.26221 14.2058L8.27749 14.3073L8.37871 14.2904L8.35121 14.2058H8.26221Z" fill="#FFCC00"/>
<path d="M8.09314 14.3073L8.10843 14.2058H8.01943L7.99193 14.2904L8.09314 14.3073Z" fill="#FFCC00"/>
<path d="M8.11332 14.664L8.18532 14.7163L8.25732 14.664L8.18532 14.5909L8.11332 14.664Z" fill="#FFCC00"/>
<path d="M6.88867 11.9892L7.35047 12.2201L7.36306 12.1813L7.38541 12.1126L7.39799 12.0738L6.88867 11.9892Z" fill="#FFCC00"/>
<path d="M7.59138 11.4786L7.51449 11.9892H7.55522H7.62754H7.66827L7.59138 11.4786Z" fill="#FFCC00"/>
<path d="M7.78477 12.0738L7.79735 12.1126L7.8197 12.1813L7.83229 12.2201L8.29409 11.9892L7.78477 12.0738Z" fill="#FFCC00"/>
<path d="M7.78779 12.357L7.75484 12.381L7.69633 12.4235L7.66338 12.4474L8.02568 12.8153L7.78779 12.357Z" fill="#FFCC00"/>
<path d="M7.15708 12.8153L7.51938 12.4474L7.48643 12.4235L7.42792 12.381L7.39497 12.357L7.15708 12.8153Z" fill="#FFCC00"/>
<path fill-rule="evenodd" clip-rule="evenodd" d="M7.38541 12.1126L7.36306 12.1813L7.35047 12.2201L6.88867 11.9892L7.39799 12.0738L7.38541 12.1126ZM7.42549 11.9892L7.39799 12.0738L7.4992 12.0906L7.51449 11.9892H7.55522H7.62754H7.66827L7.68355 12.0906L7.78477 12.0738L7.79735 12.1126L7.8197 12.1813L7.83229 12.2201L7.74052 12.266L7.78779 12.357L7.75484 12.381L7.69633 12.4235L7.66338 12.4474L8.02568 12.8153L7.59138 12.4997L7.15708 12.8153L7.51938 12.4474L7.48643 12.4235L7.42792 12.381L7.39497 12.357L7.44224 12.266L7.35047 12.2201L7.32297 12.3047L6.88867 11.9892H7.42549ZM7.59138 11.4786L7.42549 11.9892H7.51449L7.59138 11.4786ZM7.75727 11.9892H7.66827L7.59138 11.4786L7.75727 11.9892ZM8.29409 11.9892L7.83229 12.2201L7.85979 12.3047L7.78779 12.357L8.02568 12.8153L7.85979 12.3047L8.29409 11.9892ZM8.29409 11.9892L7.78477 12.0738L7.75727 11.9892H8.29409ZM7.32297 12.3047L7.15708 12.8153L7.39497 12.357L7.32297 12.3047Z" fill="#FFCC00"/>
<path d="M7.39497 12.357L7.44224 12.266L7.35047 12.2201L7.32297 12.3047L7.39497 12.357Z" fill="#FFCC00"/>
<path d="M7.4992 12.0906L7.51449 11.9892H7.42549L7.39799 12.0738L7.4992 12.0906Z" fill="#FFCC00"/>
<path d="M7.66827 11.9892L7.68355 12.0906L7.78477 12.0738L7.75727 11.9892H7.66827Z" fill="#FFCC00"/>
<path d="M7.83229 12.2201L7.74052 12.266L7.78779 12.357L7.85979 12.3047L7.83229 12.2201Z" fill="#FFCC00"/>
<path d="M7.75102 10.5987L8.11332 10.2308L8.08037 10.2069L8.02186 10.1644L7.98891 10.1404L7.75102 10.5987Z" fill="#FFCC00"/>
<path d="M7.48261 9.77257L7.94441 10.0035L7.957 9.96473L7.97935 9.89595L7.99193 9.85721L7.48261 9.77257Z" fill="#FFCC00"/>
<path d="M8.18532 9.26202L8.10842 9.77257H8.22148L8.26221 9.77257L8.18532 9.26202Z" fill="#FFCC00"/>
<path d="M8.41364 9.96473L8.42623 10.0035L8.88803 9.77257L8.37871 9.85721L8.39129 9.89595L8.41364 9.96473Z" fill="#FFCC00"/>
<path d="M8.25732 10.2308L8.61962 10.5987L8.38173 10.1404L8.34878 10.1644L8.29027 10.2069L8.25732 10.2308Z" fill="#FFCC00"/>
<path fill-rule="evenodd" clip-rule="evenodd" d="M7.48261 9.77257L7.99193 9.85721L7.97935 9.89595L7.957 9.96473L7.94441 10.0035L7.48261 9.77257ZM7.91691 10.0881L7.48261 9.77257H8.01943L7.99193 9.85721L8.09314 9.87403L8.10842 9.77257H8.22148L8.26221 9.77257L8.27749 9.87403L8.37871 9.85721L8.39129 9.89595L8.41364 9.96473L8.42623 10.0035L8.88803 9.77257L8.45373 10.0881L8.61962 10.5987L8.38173 10.1404L8.34878 10.1644L8.29027 10.2069L8.25732 10.2308L8.18532 10.1577L8.11332 10.2308L8.08037 10.2069L8.02186 10.1644L7.98891 10.1404L8.03618 10.0494L7.94441 10.0035L7.91691 10.0881ZM7.75102 10.5987L7.91691 10.0881L7.98891 10.1404L7.75102 10.5987ZM8.18532 10.2831L8.61962 10.5987L8.25732 10.2308L8.18532 10.2831ZM8.18532 10.2831L7.75102 10.5987L8.11332 10.2308L8.18532 10.2831ZM8.35121 9.77257H8.88803L8.37871 9.85721L8.35121 9.77257ZM8.18532 9.26202L8.01943 9.77257H8.10842L8.18532 9.26202ZM8.18532 9.26202L8.35121 9.77257H8.26221L8.18532 9.26202Z" fill="#FFCC00"/>
<path d="M8.26221 9.77257L8.27749 9.87403L8.37871 9.85721L8.35121 9.77257H8.26221Z" fill="#FFCC00"/>
<path d="M8.11332 10.2308L8.18532 10.2831L8.25732 10.2308L8.18532 10.1577L8.11332 10.2308Z" fill="#FFCC00"/>
<path d="M7.91691 10.0881L7.98891 10.1404L8.03618 10.0494L7.94441 10.0035L7.91691 10.0881Z" fill="#FFCC00"/>
<path d="M8.01943 9.77257L7.99193 9.85721L8.09314 9.87403L8.10842 9.77257H8.01943Z" fill="#FFCC00"/>
</g>
<defs>
<clipPath id="clip0_1692_54014">
<rect x="2.02734" y="5.50342" width="19.9495" height="13.2997" rx="1" fill="white"/>
</clipPath>
</defs>
</svg>
