<svg width="24" height="25" viewBox="0 0 24 25" fill="none" xmlns="http://www.w3.org/2000/svg">
<g clip-path="url(#clip0_1692_54111)">
<path d="M2.02539 6.15674H21.9749V19.4564H2.02539V6.15674Z" fill="white"/>
<path d="M2.02539 6.15674H21.9749V10.59H2.02539V6.15674ZM2.02539 15.0232H21.9749V19.4564H2.02539V15.0232Z" fill="#18C3DF"/>
<path fill-rule="evenodd" clip-rule="evenodd" d="M8.48188 11.4705L8.31598 10.96L8.15009 11.4705H7.61328L8.04757 11.786L7.88168 12.2966L8.31598 11.981L8.75029 12.2966L8.5844 11.786L9.01869 11.4705H8.48188ZM8.48188 11.4705L8.5844 11.786L8.31598 11.981L8.04757 11.786L8.15009 11.4705H8.48188Z" fill="#18C3DF"/>
<path d="M8.5844 11.786L8.48188 11.4705H8.15009L8.04757 11.786L8.31598 11.981L8.5844 11.786Z" fill="#18C3DF"/>
<path fill-rule="evenodd" clip-rule="evenodd" d="M8.48188 13.6871L8.31598 13.1766L8.15009 13.6871H7.61328L8.04757 14.0026L7.88168 14.5132L8.31598 14.1977L8.75029 14.5132L8.5844 14.0026L9.01869 13.6871H8.48188ZM8.48188 13.6871L8.5844 14.0026L8.31598 14.1977L8.04757 14.0026L8.15009 13.6871H8.48188Z" fill="#18C3DF"/>
<path d="M8.5844 14.0026L8.48188 13.6871H8.15009L8.04757 14.0026L8.31598 14.1977L8.5844 14.0026Z" fill="#18C3DF"/>
<path fill-rule="evenodd" clip-rule="evenodd" d="M12.1762 12.5788L12.0103 12.0683L11.8444 12.5788H11.3076L11.7419 12.8943L11.576 13.4049L12.0103 13.0894L12.4446 13.4049L12.2788 12.8943L12.713 12.5788H12.1762ZM12.1762 12.5788L12.2788 12.8943L12.0103 13.0894L11.7419 12.8943L11.8444 12.5788H12.1762Z" fill="#18C3DF"/>
<path fill-rule="evenodd" clip-rule="evenodd" d="M15.8706 13.6871L15.7047 13.1766L15.5388 13.6871H15.002L15.4363 14.0026L15.2704 14.5132L15.7047 14.1977L16.139 14.5132L15.9731 14.0026L16.4074 13.6871H15.8706ZM15.8706 13.6871L15.9731 14.0026L15.7047 14.1977L15.4363 14.0026L15.5388 13.6871H15.8706Z" fill="#18C3DF"/>
<path fill-rule="evenodd" clip-rule="evenodd" d="M15.8706 11.4705L15.7047 10.96L15.5388 11.4705H15.002L15.4363 11.786L15.2704 12.2966L15.7047 11.981L16.139 12.2966L15.9731 11.786L16.4074 11.4705H15.8706ZM15.8706 11.4705L15.9731 11.786L15.7047 11.981L15.4363 11.786L15.5388 11.4705H15.8706Z" fill="#18C3DF"/>
<path d="M12.2788 12.8943L12.1762 12.5788H11.8444L11.7419 12.8943L12.0103 13.0894L12.2788 12.8943Z" fill="#18C3DF"/>
<path d="M15.9731 11.786L15.8706 11.4705H15.5388L15.4363 11.786L15.7047 11.981L15.9731 11.786Z" fill="#18C3DF"/>
<path d="M15.9731 14.0026L15.8706 13.6871H15.5388L15.4363 14.0026L15.7047 14.1977L15.9731 14.0026Z" fill="#18C3DF"/>
</g>
<defs>
<clipPath id="clip0_1692_54111">
<rect x="2.02539" y="6.15674" width="19.9504" height="13.2997" rx="1" fill="white"/>
</clipPath>
</defs>
</svg>
