<svg width="24" height="24" viewBox="0 0 24 24" fill="none" xmlns="http://www.w3.org/2000/svg">
<path d="M13.744 2.63492L21.272 7.52813C21.538 7.70104 21.671 7.78749 21.7674 7.90281C21.8527 8.00489 21.9167 8.12296 21.9558 8.25011C22 8.39375 22 8.55238 22 8.86964V16.2013C22 17.8815 22 18.7216 21.673 19.3633C21.3854 19.9278 20.9265 20.3867 20.362 20.6744C19.7202 21.0013 18.8802 21.0013 17.2 21.0013H6.8C5.11984 21.0013 4.27976 21.0013 3.63803 20.6744C3.07354 20.3867 2.6146 19.9278 2.32698 19.3633C2 18.7216 2 17.8815 2 16.2013V8.86964C2 8.55238 2 8.39375 2.04417 8.25011C2.08327 8.12296 2.14735 8.00489 2.23265 7.90281C2.32901 7.78749 2.46201 7.70104 2.72802 7.52813L10.256 2.63492M13.744 2.63492C13.1127 2.22461 12.7971 2.01946 12.457 1.93964C12.1564 1.86908 11.8436 1.86908 11.543 1.93964C11.2029 2.01946 10.8873 2.22461 10.256 2.63492M13.744 2.63492L20.9681 7.33059C21.312 7.55414 21.484 7.66592 21.5435 7.80767C21.5956 7.93154 21.5956 8.07115 21.5435 8.19503C21.484 8.33678 21.312 8.44855 20.9681 8.6721L13.744 13.3678C13.1127 13.7781 12.7971 13.9832 12.457 14.0631C12.1564 14.1336 11.8436 14.1336 11.543 14.0631C11.2029 13.9832 10.8873 13.7781 10.256 13.3678L3.03193 8.6721C2.68801 8.44855 2.51604 8.33678 2.45649 8.19503C2.40444 8.07115 2.40444 7.93154 2.45649 7.80767C2.51604 7.66592 2.68801 7.55414 3.03193 7.33059L10.256 2.63492" stroke="#1C1D20" stroke-width="1.5" stroke-linecap="round" stroke-linejoin="round"/>
</svg>
