<svg width="24" height="24" viewBox="0 0 24 24" fill="none" xmlns="http://www.w3.org/2000/svg">
<path d="M13.744 2.63492L21.272 7.52813C21.538 7.70104 21.671 7.78749 21.7674 7.90281C21.8527 8.00489 21.9167 8.12296 21.9558 8.25011C22 8.39375 22 8.55238 22 8.86964V16.2013C22 17.8815 22 18.7216 21.673 19.3633C21.3854 19.9278 20.9265 20.3867 20.362 20.6744C19.7202 21.0013 18.8802 21.0013 17.2 21.0013H6.8C5.11984 21.0013 4.27976 21.0013 3.63803 20.6744C3.07354 20.3867 2.6146 19.9278 2.32698 19.3633C2 18.7216 2 17.8815 2 16.2013V8.86964C2 8.55238 2 8.39375 2.04417 8.25011C2.08327 8.12296 2.14735 8.00489 2.23265 7.90281C2.32901 7.78749 2.46201 7.70104 2.72802 7.52813L10.256 2.63492M13.744 2.63492C13.1127 2.22461 12.7971 2.01946 12.457 1.93964C12.1564 1.86908 11.8436 1.86908 11.543 1.93964C11.2029 2.01946 10.8873 2.22461 10.256 2.63492M13.744 2.63492L19.9361 6.65984C20.624 7.10694 20.9679 7.33049 21.087 7.61398C21.1911 7.86174 21.1911 8.14096 21.087 8.38871C20.9679 8.6722 20.624 8.89576 19.9361 9.34286L13.744 13.3678C13.1127 13.7781 12.7971 13.9832 12.457 14.0631C12.1564 14.1336 11.8436 14.1336 11.543 14.0631C11.2029 13.9832 10.8873 13.7781 10.256 13.3678L4.06386 9.34286C3.37601 8.89576 3.03209 8.6722 2.91297 8.38871C2.80888 8.14096 2.80888 7.86174 2.91297 7.61398C3.03209 7.33049 3.37601 7.10694 4.06386 6.65984L10.256 2.63492M21.5 19.0013L14.8572 13.0013M9.14282 13.0013L2.5 19.0013" stroke="#1C1D20" stroke-width="1.5" stroke-linecap="round" stroke-linejoin="round"/>
</svg>
