<svg width="24" height="24" viewBox="0 0 24 24" fill="none" xmlns="http://www.w3.org/2000/svg">
<path d="M8.99865 14C8.99865 14 10.3111 15.5 12.4986 15.5C14.6861 15.5 15.9986 14 15.9986 14M15.2486 9H15.2586M9.74865 9H9.75865M12.4986 20C17.1931 20 20.9986 16.1944 20.9986 11.5C20.9986 6.80558 17.1931 3 12.4986 3C7.80423 3 3.99865 6.80558 3.99865 11.5C3.99865 12.45 4.1545 13.3636 4.44202 14.2166C4.55022 14.5376 4.60432 14.6981 4.61408 14.8214C4.62371 14.9432 4.61643 15.0286 4.5863 15.1469C4.5558 15.2668 4.48844 15.3915 4.35374 15.6408L2.71808 18.6684C2.48477 19.1002 2.36812 19.3161 2.39423 19.4828C2.41697 19.6279 2.5024 19.7557 2.62782 19.8322C2.77183 19.9201 3.01595 19.8948 3.50419 19.8444L8.62521 19.315C8.78029 19.299 8.85783 19.291 8.92851 19.2937C8.99802 19.2963 9.04709 19.3029 9.11488 19.3185C9.1838 19.3344 9.27047 19.3678 9.4438 19.4345C10.3919 19.7998 11.4219 20 12.4986 20ZM15.7486 9C15.7486 9.27614 15.5248 9.5 15.2486 9.5C14.9725 9.5 14.7486 9.27614 14.7486 9C14.7486 8.72386 14.9725 8.5 15.2486 8.5C15.5248 8.5 15.7486 8.72386 15.7486 9ZM10.2486 9C10.2486 9.27614 10.0248 9.5 9.74865 9.5C9.47251 9.5 9.24865 9.27614 9.24865 9C9.24865 8.72386 9.47251 8.5 9.74865 8.5C10.0248 8.5 10.2486 8.72386 10.2486 9Z" stroke="#1C1D20" stroke-width="1.5" stroke-linecap="round" stroke-linejoin="round"/>
</svg>
