<svg width="24" height="24" viewBox="0 0 24 24" fill="none" xmlns="http://www.w3.org/2000/svg">
<path d="M12.0005 19.0003V12.0003M12.292 19.085L19.2704 21.4212C19.8173 21.6043 20.0908 21.6958 20.2594 21.6301C20.4059 21.5731 20.517 21.4505 20.5594 21.2992C20.6082 21.1249 20.4903 20.8617 20.2545 20.3354L12.766 3.62269C12.5354 3.10799 12.4201 2.85064 12.2594 2.7709C12.1199 2.70162 11.956 2.70136 11.8162 2.77019C11.6553 2.84941 11.5392 3.10639 11.3069 3.62035L3.75244 20.3364C3.51474 20.8623 3.39589 21.1253 3.44422 21.2998C3.48619 21.4513 3.59697 21.5742 3.74329 21.6317C3.91178 21.6978 4.18567 21.6069 4.73346 21.4251L11.786 19.0843C11.8799 19.0532 11.9268 19.0376 11.9749 19.0314C12.0175 19.026 12.0606 19.026 12.1032 19.0316C12.1512 19.0379 12.1981 19.0536 12.292 19.085Z" stroke="#1C1D20" stroke-width="1.5" stroke-linecap="round" stroke-linejoin="round"/>
</svg>
