<svg width="24" height="24" viewBox="0 0 24 24" fill="none" xmlns="http://www.w3.org/2000/svg">
<path d="M10.5014 11.9988H5.0014M4.91675 12.2903L2.58183 19.265C2.39839 19.813 2.30668 20.0869 2.3725 20.2556C2.42966 20.4022 2.55242 20.5132 2.7039 20.5555C2.87834 20.6042 3.1418 20.4856 3.66874 20.2485L20.3802 12.7284C20.8945 12.4969 21.1517 12.3812 21.2312 12.2204C21.3002 12.0808 21.3002 11.9169 21.2312 11.7772C21.1517 11.6164 20.8945 11.5007 20.3802 11.2693L3.66291 3.74654C3.13757 3.51013 2.87489 3.39193 2.70063 3.44042C2.54929 3.48253 2.42654 3.59332 2.36918 3.73956C2.30314 3.90795 2.39388 4.18133 2.57535 4.72809L4.9174 11.7843C4.94857 11.8782 4.96415 11.9252 4.9703 11.9732C4.97576 12.0158 4.97571 12.059 4.97014 12.1016C4.96386 12.1496 4.94816 12.1965 4.91675 12.2903Z" stroke="#1C1D20" stroke-width="1.5" stroke-linecap="round" stroke-linejoin="round"/>
</svg>
